<?xml version="1.0" standalone="no"?>
<!DOCTYPE svg PUBLIC "-//W3C//DTD SVG 1.1//EN" "http://www.w3.org/Graphics/SVG/1.1/DTD/svg11.dtd" >
<svg xmlns="http://www.w3.org/2000/svg">
<metadata>
Created by FontPrep 20130207 at Sat Dec 19 14:53:34 2015
 By Martin Campillo
Copyright (c) 2014 by Claus Eggers Srensen (es@forthehearts.net).
</metadata>
<defs>
<font id="bc77912da35c83b53ebb67d6e6ad7b19" horiz-adv-x='1024' >
  <font-face 
    font-family="InknutAntiqua-Black"
    font-weight="900"
    font-stretch="normal"
    units-per-em="2048"
    panose-1="0 0 10 0 0 0 0 0 0 0"
    ascent="1638"
    descent="-410"
    x-height="1112"
    cap-height="1608"
    bbox="-10471 -1794 12110 3488"
    underline-thickness="194"
    underline-position="-119"
    unicode-range="U+0020-FB02"
  />
<missing-glyph horiz-adv-x="2859" 
d="M1452 414q-102 0 -166 -91q-29 -42 -29 -100q0 -59 40 -103q39 -44 91 -44q105 0 166 91q29 41 29 99t-40 103t-91 45zM1424 1399q-90 0 -171 -17l-202 -157l61 -78q134 78 206 78t132 -30t97 -77q38 -47 38 -85q0 -39 -29 -67q-28 -28 -100 -80t-115 -98t-43 -110
t62 -139l215 106v64q-48 56 -46 90q3 33 32 61t101 80q72 53 113 98q42 46 41 104q0 58 -64 118t-151 100q-87 39 -177 39zM1430 -451l-1307 1237l1307 1233l1306 -1233z" />
    <glyph glyph-name="IJ" unicode="IJ" horiz-adv-x="1900" 
d="M82 0v145l192 168v1069l-233 62l82 164h786v-146l-194 -170v-1067l235 -61l-82 -164h-786zM1665 203q0 -188 18 -244l-505 -500l-160 123q123 145 165 247.5t42 254.5v1302l-275 60l82 164h828v-146l-195 -151v-1110z" />
    <glyph glyph-name="ij" unicode="ij" horiz-adv-x="1656" 
d="M1475 203q0 -188 18 -244l-475 -500l-160 123q123 145 165 247.5t42 254.5v664l-182 126v146l432 131h160v-948zM72 0v145l182 160v400l-182 118v146l432 182h160v-930l184 -57l-82 -164h-694zM965 1482q0 79 48 137t119.5 93t156.5 35t151.5 -63.5t66.5 -143.5t-48 -137
t-119.5 -92t-155.5 -35t-151.5 63.5t-67.5 142.5zM154 1506.5q0 79.5 48 137.5t119.5 93t156.5 35t151.5 -63.5t66.5 -144t-48 -137.5t-119.5 -92t-155.5 -35t-151.5 63.5t-67.5 143z" />
    <glyph glyph-name="fi" unicode="fi" horiz-adv-x="1716" 
d="M1112 0v750l-170 135h-278v-641l327 -80l-82 -164h-837v145l182 160v580h-203v166h203v145q0 164 100 305t248 224t297 83q147 0 307 -14t220 -43t95 -82q33 -53 33 -119t-48 -123t-120 -92t-137 -35q-115 0 -219 127q-53 70 -100 93q-46 22 -120 22q-148 -1 -146 -199
v-292h307l391 100h160v-930l184 -57l-82 -164h-512z" />
    <glyph glyph-name="fl" unicode="fl" horiz-adv-x="1716" 
d="M889 1808q334 0 514 -20h119v-1567l182 -57l-82 -164h-512v1358q-57 86 -141 135q-85 49 -159 49q-149 0 -146 -199v-292h329v-166h-329v-641l327 -80l-82 -164h-837v145l182 160v580h-203v166h203v145q0 164 100 305t248 224t287 83z" />
    <glyph glyph-name="f_adieresis.liga" unicode="f&#xe4;" horiz-adv-x="2394" 
d="M1458 397q0 -35 32 -57t105 -22q74 0 193 69v80h-311q-19 -35 -19 -70zM1059 326q0 168 184 307h545q-6 90 -61.5 136t-139.5 46q-141 0 -413 -86l-62 139l281 226q113 39 270 39q254 0 395.5 -112t141.5 -327v-458l182 -72l-82 -164h-512v178l-232 -182
q-41 -16 -102 -16q-209 0 -302 101t-93 245zM1737 1536q0 72 41 124t101 84t133 32t129.5 -57t56.5 -129t-41 -124.5t-102.5 -83t-133.5 -30.5t-128 56t-56 128zM993 1051v-166h-329v-641l327 -80l-82 -164h-837v145l182 160v580h-203v166h203v145q0 164 108.5 305t269 224
t308.5 83q382 0 496 -45q59 -23 93 -76t34 -110t-39 -108.5t-101.5 -84t-124.5 -32.5q-104 0 -165 86q-43 61 -105 82.5t-164 21.5q-200 0 -200 -199v-292h329z" />
    <glyph glyph-name="f_b.liga" unicode="fb" horiz-adv-x="2445" 
d="M1909 498q0 143 -45 232q-46 89 -146 89t-198 -45v-317q0 -85 63 -143t176 -58q150 0 150 242zM889 1808q334 0 514 -20h119v-834l200 162q66 16 150 17l-2 2q135 0 243 -71q107 -71 167 -195q60 -123 60 -281t-108 -299t-272 -224t-321 -83t-271 110l-98 -92h-160v1358
q-57 86 -141 135q-85 49 -159 49q-149 0 -146 -199v-292h329v-166h-329v-641l327 -80l-82 -164h-837v145l182 160v580h-203v166h203v145q0 164 100 305t248 224t287 83z" />
    <glyph glyph-name="f_eth.liga" unicode="f&#xf0;" horiz-adv-x="2353" 
d="M1616 860q-150 0 -150 -239q0 -169 66 -267t176 -98v-2q84 0 122 78t38 238t-37 290h-215zM2312 718q0 -202 -100 -368q-100 -168 -267 -268t-341 -100t-302 70t-202 194q-74 123 -74 270q0 146 98 286t256 231t324 100q-80 115 -191 202l-417 -223l-39 76l379 203
q-162 109 -357 161q-64 15 -141 15q-76 0 -138 -41t-100 -112t-38 -152v-211h290v-166h-290v-641l327 -80l-82 -164h-837v145l182 160v580h-203v166h203v125q0 186 119 331t296 223t343 78h417q201 -82 381 -219l412 219l41 -75l-381 -203l-4 2q202 -176 319 -394t117 -420z
" />
    <glyph glyph-name="f_f.liga" unicode="ff" horiz-adv-x="1918" 
d="M1110 1194q0 57 12 109q-59 84 -134 130q-76 46 -154 46q-78 -1 -125 -53t-47 -146v-231h448v145zM2081 1333h-160q-49 95 -121 151t-140 56t-104 -52t-36 -147v-292h329v-166h-329v-641l327 -80l-82 -164h-655v885h-448v-641l327 -80l-82 -164h-837v145l182 160v580
h-203v166h203v84q0 164 106 305t266 224t304 83q94 0 220 -29t204 -65q90 73 195 115t200 42l-2 -2q80 1 184 -23t152 -52v-398z" />
    <glyph glyph-name="f_f_adieresis.liga" unicode="ff&#xe4;" horiz-adv-x="3252" 
d="M2316 397q0 -35 32 -57t105 -22q74 0 193 69v80h-311q-19 -35 -19 -70zM1917 326q0 168 184 307h545q-6 90 -61.5 136t-139.5 46q-141 0 -413 -86l-62 139l281 226q113 39 270 39q254 0 395.5 -112t141.5 -327v-458l182 -72l-82 -164h-512v178l-231 -182
q-41 -16 -103 -16q-209 0 -302 101t-93 245zM1112 1196q0 57 12 109q-59 84 -135.5 130t-154.5 46t-125 -52.5t-47 -146.5v-231h450v145zM2593 1536q0 72 41 124t101.5 84t132.5 32t129 -57t57 -129t-41 -124.5t-102.5 -83t-133.5 -30.5t-128 56t-56 128zM1362 1645
q214 163 458 163q126 0 271 -11t203 -34t92.5 -76t34.5 -110t-39 -108.5t-101.5 -84t-124.5 -32.5q-104 0 -165 86q-43 61 -105 82.5t-164 21.5q-200 0 -200 -199l-2 -292h329v-166h-329v-641l327 -80l-82 -164h-655v885h-448v-641l327 -80l-82 -164h-837v145l182 160v580
h-203v166h203v84q0 164 106.5 305t265 224t304.5 83q98 0 229 -30.5t205 -71.5z" />
    <glyph glyph-name="f_f_b.liga" unicode="ffb" horiz-adv-x="3303" 
d="M2765 496q0 143 -45 232q-46 89 -146 89t-198 -45v-317q0 -85 63 -143t176 -58q150 0 150 242zM1108 1196q0 57 12 109q-59 84 -134 130q-76 46 -154 46q-78 -1 -125 -53t-48 -146v-231h449v145zM1747 1808q336 0 514 -20h119v-834l200 162q64 16 146 17q135 0 243 -71
t168 -195q60 -123 60 -281t-109 -299q-108 -141 -272 -225t-320 -82q-156 0 -272 110l-98 -92h-160v1358q-57 86 -141 135q-85 49 -159 49q-149 0 -146 -199v-292h329v-166h-329v-641l327 -80l-82 -164h-655v885h-448v-641l327 -80l-82 -164h-837v145l182 160v580h-203v166
h203v84q0 164 106 305t266 224t304 83q94 0 220 -29t204 -65q90 73 195 115t200 42z" />
    <glyph glyph-name="f_f_eth.liga" unicode="ff&#xf0;" horiz-adv-x="3211" 
d="M2474 860q-150 0 -150 -239q0 -169 66 -267t176 -98v-2q84 0 122 78t38 238t-37 290h-215zM1108 1178q0 61 16 122q-59 84 -135 132q-75 48 -155 49q-80 -1 -127 -53t-48 -146v-231h330l119 2v125zM2462 -20q-174 0 -302 70t-202 194q-74 123 -74 270q0 146 98 286
t256 231t324 99q-80 115 -190 203l-418 -223l-39 76l379 203q-98 63 -215 110l-154 55q-47 12 -94 13q-141 0 -227 -82t-86 -223v-211h290v-166h-290v-641l327 -80l-82 -164h-655v885h-449v-641l328 -80l-82 -164h-837v145l182 160v580h-203v166h203v84q0 164 106 305
t266 224t282 83t256 -33t208 -74q111 80 244 124t256 44h418q201 -82 380 -219l412 219l41 -75l-381 -203h-4q203 -176 320 -394q116 -218 116 -420t-100 -369t-267 -267t-341 -100z" />
    <glyph glyph-name="f_f_h.liga" unicode="ffh" horiz-adv-x="3270" 
d="M1108 1196q0 57 12 109q-59 84 -134 130q-76 46 -154 46q-78 -1 -125 -53t-48 -146v-231h449v145zM1747 1808q336 0 514 -20h119v-832l198 160q55 16 134 17q168 0 266 -85t98 -231v-596l180 -57l-82 -164h-512v633q0 88 -25 125t-101 37t-160 -43v-533l184 -57l-82 -164
h-512v1358q-57 86 -141 135q-85 49 -159 49q-149 0 -146 -199v-292h329v-166h-329v-641l327 -80l-82 -164h-655v885h-448v-641l327 -80l-82 -164h-837v145l182 160v580h-203v166h203v84q0 164 106 305t266 224t304 83q94 0 220 -29t204 -65q90 73 195 115t200 42z" />
    <glyph glyph-name="f_f_i.liga" unicode="ffi" horiz-adv-x="2574" 
d="M1110 1194q0 57 12 109q-59 84 -134 130q-76 46 -154 46q-78 -1 -125 -53t-47 -146v-231h448v145zM1352 1651q190 157 426 157q126 0 286 -14t220 -43t95 -82q34 -53 34 -119q-1 -66 -49 -123t-120 -92t-136 -35q-115 0 -220 127q-53 70 -100 93q-46 22 -120 22
q-146 -1 -146 -199v-292h307l391 100h160v-930l182 -59l-82 -164h-512v750l-170 135h-278v-641l327 -80l-82 -164h-655v885h-448v-641l327 -80l-82 -164h-837v145l182 160v580h-203v166h203v84q0 164 106 305t266 224t304 83q94 0 220 -29t204 -65z" />
    <glyph glyph-name="f_f_idieresis.liga" unicode="ff&#xef;" horiz-adv-x="2695" 
d="M1110 1194q0 57 12 109q-59 84 -134 130q-76 46 -154 46q-78 -1 -125 -53t-47 -146v-231h448v145zM2818 1588q0 -72 -41 -124t-102 -84q-61 -30 -133 -30t-128 56t-56 128t40 124q42 52 102 84t133 32t129 -58q56 -56 56 -128zM1907 -2v145l182 160v445l-170 135h-399
v-641l327 -80l-82 -164h-655v885h-448v-641l327 -80l-82 -164h-837v145l182 160v580h-203v166h203v84q0 164 106 305t266 224t304 83q94 0 220 -29t204 -65q90 73 195 115t200 42q197 0 317 -50t121 -181q0 -59 -41 -111t-102 -84q-116 -59 -214 -8q-42 23 -69 60t-42 63
q-15 25 -25 35t-35 10q-63 0 -99 -52t-36 -147v-292h428l391 100h160l-2 -932l184 -57l-82 -164h-694z" />
    <glyph glyph-name="f_f_igrave.liga" unicode="ff&#xec;" horiz-adv-x="2574" 
d="M1110 1194q0 57 12 109q-59 84 -134 130q-76 46 -154 46q-78 -1 -125 -53t-47 -146v-231h448v145zM1968 -2v750l-170 135h-278v-641l327 -80l-82 -164h-655v885h-448v-641l327 -80l-82 -164h-837v145l182 160v580h-203v166h203v84q0 164 106 305t266 224t304 83
q94 0 220 -29t204 -65q90 73 195 115t200 42l385 19l219 -402l-139 -63q-317 144 -433 168q-57 12 -121 12t-100 -52t-36 -147v-292h307l391 100h160v-930l182 -59l-82 -164h-512z" />
    <glyph glyph-name="f_f_iogonek.liga" unicode="ff&#x12f;" horiz-adv-x="2574" 
d="M1110 1194q0 57 12 109q-59 84 -134 130q-76 46 -154 46q-78 -1 -125 -53t-47 -146v-231h448v145zM1352 1651q190 157 426 157q126 0 286 -14t220 -43t95 -82q34 -53 34 -119q-1 -66 -49 -123t-120 -92t-136 -35q-115 0 -220 127q-53 70 -100 93q-46 22 -120 22
q-146 -1 -146 -199v-292h307l391 100h160v-930l184 -57l-82 -164q-68 -129 -67 -190l-2 -3q-2 -67 100 -67v-160l-154 -123q-168 23 -257 85t-89 157q0 59 17 88l262 211h-324v750l-170 135h-278v-641l327 -80l-82 -164h-655v885h-448v-641l327 -80l-82 -164h-837v145
l182 160v580h-203v166h203v84q0 164 106 305t266 224t304 83q94 0 220 -29t204 -65z" />
    <glyph glyph-name="f_f_j.liga" unicode="ffj" horiz-adv-x="2562" 
d="M1110 1194q0 57 12 109q-59 84 -134 130q-76 46 -154 46q-78 -1 -125 -53t-47 -146v-231h448v145zM1352 1651q190 157 426 157q126 0 286 -14t220 -43t95 -82q34 -53 34 -119q-1 -66 -49 -123t-120 -92t-136 -35q-115 0 -220 127q-53 70 -100 93q-46 22 -120 22
q-146 -1 -146 -199v-292h307l391 100h160l-2 -950q0 -190 18 -244l-475 -500l-160 123q123 146 165 248t42 254v666l-170 135h-278v-641l327 -80l-82 -164h-655v885h-448v-641l327 -80l-82 -164h-837v145l182 160v580h-203v166h203v84q0 164 106 305t266 224t304 83
q94 0 220 -29t204 -65z" />
    <glyph glyph-name="f_f_k.liga" unicode="ffk" horiz-adv-x="3311" 
d="M3244 1110v-145l-393 -314l239 -409l209 -80l-82 -164h-469l-303 553l344 264l-280 131l82 164h653zM1108 1194q0 57 12 109q-59 84 -134 130q-76 46 -154 46q-78 -1 -125 -53t-48 -146v-231h449v145zM1747 1808q336 0 514 -20h119l-4 -1569l184 -57l-82 -164h-512v1358
q-57 86 -141 135q-85 49 -159 49q-149 0 -146 -199v-292h329v-166h-329v-641l327 -80l-82 -164h-655v885h-448v-641l327 -80l-82 -164h-837v145l182 160v580h-203v166h203v84q0 164 106 305t266 224t304 83q94 0 220 -29t204 -65q90 73 195 115t200 42z" />
    <glyph glyph-name="f_f_kcommaaccent.liga" unicode="ff&#x137;" horiz-adv-x="3311" 
d="M3244 1110v-145l-393 -314l239 -409l209 -80l-82 -164h-469l-303 553l344 264l-280 131l82 164h653zM1108 1194q0 57 12 109q-59 84 -134 130q-76 46 -154 46q-78 -1 -125 -53t-48 -146v-231h449v145zM1747 1808q336 0 514 -20h119l-4 -1569l184 -57l-82 -164h-512v1358
q-57 86 -141 135q-85 49 -159 49q-149 0 -146 -199v-292h329v-166h-329v-641l327 -80l-82 -164h-655v885h-448v-641l327 -80l-82 -164h-837v145l182 160v580h-203v166h203v84q0 164 106 305t266 224t304 83q94 0 220 -29t204 -65q90 73 195 115t200 42zM2906 -170v-145
l-262 -308h-221l63 193l-192 96l82 164h530z" />
    <glyph glyph-name="f_f_l.liga" unicode="ffl" horiz-adv-x="2574" 
d="M1108 1194q0 57 12 109q-59 84 -134 130q-76 46 -154 46q-78 -1 -125 -53t-48 -146v-231h449v145zM1747 1808q336 0 514 -20h119v-1567l180 -59l-82 -164h-512v1358q-57 86 -141 135q-85 49 -159 49q-149 0 -146 -199v-292h329v-166h-329v-641l327 -80l-82 -164h-655v885
h-448v-641l327 -80l-82 -164h-837v145l182 160v580h-203v166h203v84q0 164 106 305t266 224t304 83q94 0 220 -29t204 -65q90 73 195 115t200 42z" />
    <glyph glyph-name="f_f_lcaron.liga" unicode="ff&#x13e;" horiz-adv-x="2574" 
d="M1108 1194q0 57 12 109q-59 84 -134 130q-76 46 -154 46q-78 -1 -125 -53t-48 -146v-231h449v145zM1747 1808q336 0 514 -20h119v-1567l180 -59l-82 -164h-512v1358q-57 86 -141 135q-85 49 -159 49q-149 0 -146 -199v-292h329v-166h-329v-641l327 -80l-82 -164h-655v885
h-448v-641l327 -80l-82 -164h-837v145l182 160v580h-203v166h203v84q0 164 106 305t266 224t304 83q94 0 220 -29t204 -65q90 73 195 115t200 42zM2955 1788v-381l-223 -238l-162 123q25 74 37 140l-119 79v146l310 131h157z" />
    <glyph glyph-name="f_f_lcommaaccent.liga" unicode="ff&#x13c;" horiz-adv-x="2574" 
d="M1108 1194q0 57 12 109q-59 84 -134 130q-76 46 -154 46q-78 -1 -125 -53t-48 -146v-231h449v145zM1747 1808q336 0 514 -20h119v-1567l180 -59l-82 -164h-512v1358q-57 86 -141 135q-85 49 -159 49q-149 0 -146 -199v-292h329v-166h-329v-641l327 -80l-82 -164h-655v885
h-448v-641l327 -80l-82 -164h-837v145l182 160v580h-203v166h203v84q0 164 106 305t266 224t304 83q94 0 220 -29t204 -65q90 73 195 115t200 42zM2505 -170v-145l-262 -308h-222l64 193l-193 96l82 164h531z" />
    <glyph glyph-name="f_f_odieresis.liga" unicode="ff&#xf6;" horiz-adv-x="3229" 
d="M2548 254q137 0 137 262q0 140 -60 241t-169 101q-138 0 -138 -240q0 -160 60 -262t170 -102zM1876 526q0 158 109 299t273 225t320 83q156 0 282 -71t197 -195q71 -123 71 -281t-110 -299q-108 -141 -272 -225t-320 -82q-156 0 -283 70t-197 195q-70 123 -70 281z
M1112 1196q0 57 12 109q-59 84 -135 130q-77 46 -155 46q-78 -1 -125 -53t-47 -146v-231h450v145zM2593 1536q0 72 41 124t101 84t133 32t129 -58q57 -58 57 -128q0 -72 -41 -124t-103 -84q-62 -30 -133 -30q-72 0 -128 56t-56 128zM1362 1645q214 163 458 163
q126 0 271 -11t203 -34t93 -75q34 -52 34 -110t-39 -110q-40 -52 -102 -84t-124 -32q-104 1 -165 86q-43 61 -105 83q-62 21 -164 21q-200 -1 -200 -199l-2 -292h329v-166h-329v-641l327 -80l-82 -164h-655v885h-448v-641l327 -80l-82 -164h-837v145l182 160v580h-203v166
h203v84q0 164 106 305t266 224t280 83q122 0 253 -31t205 -71z" />
    <glyph glyph-name="f_h.liga" unicode="fh" horiz-adv-x="2412" 
d="M889 1808q334 0 514 -20h119v-832l198 160q55 16 133 17q169 0 267 -85t98 -231v-596l182 -55l-82 -164h-512v633q0 88 -25 125t-101 37t-160 -43v-533l184 -57l-82 -164h-512v1358q-57 86 -141 135q-85 49 -159 49q-149 0 -146 -199v-292h329v-166h-329v-641l327 -80
l-82 -164h-837v145l182 160v580h-203v166h203v145q0 164 100 305t248 224t287 83z" />
    <glyph glyph-name="f_idieresis.liga" unicode="f&#xef;" horiz-adv-x="1837" 
d="M1962 1590q0 -72 -41 -124t-102 -84q-61 -30 -133 -30t-128 56t-56 128t40 124q42 52 102 84t133 32t129 -58q56 -56 56 -128zM1051 0v145l182 160v445l-170 135h-399v-641l327 -80l-82 -164h-837v145l182 160v580h-203v166h203v145q0 164 100 305t248 224t287 83
q197 0 317 -50t121 -181q0 -59 -41 -111t-102 -84q-116 -59 -214 -8q-42 23 -69 60t-42 63q-15 25 -25 35t-35 10q-63 0 -99 -52t-36 -147v-292h428l391 100h159v-930l185 -57l-82 -164h-694z" />
    <glyph glyph-name="f_igrave.liga" unicode="f&#xec;" horiz-adv-x="1716" 
d="M1112 0v750l-170 135h-278v-641l327 -80l-82 -164h-837v145l182 160v580h-203v166h203v145q0 164 100 305t248 224t287 83l385 19l219 -402l-139 -63q-317 144 -433 168q-57 12 -121 12t-100 -52t-36 -147v-292h307l391 100h160v-930l184 -57l-82 -164h-512z" />
    <glyph glyph-name="f_iogonek.liga" unicode="f&#x12f;" horiz-adv-x="1716" 
d="M1657 -258v-160l-154 -123q-168 23 -257 85t-89 157q0 59 17 88l262 211h-324v750l-170 135h-278v-641l327 -80l-82 -164h-837v145l182 160v580h-203v166h203v145q0 164 100 305t248 224t297 83q147 0 307 -14t220 -43t95 -82q33 -53 33 -119t-48 -123t-120 -92t-137 -35
q-115 0 -219 127q-53 70 -100 93q-46 22 -120 22q-148 -1 -146 -199v-292h307l391 100h160v-930l184 -57l-82 -164q-68 -130 -68 -178t24 -64t77 -16z" />
    <glyph glyph-name="f_j.liga" unicode="fj" horiz-adv-x="1703" 
d="M1522 203q0 -190 18 -244l-475 -500l-160 123q123 146 165 248t42 254v666l-170 135h-278v-641l327 -80l-82 -164h-837v145l182 160v580h-203v166h203v145q0 164 100 305t248 224t297 83q147 0 307 -14t220 -43t95 -82q33 -53 33 -119t-48 -123t-120 -92t-137 -35
q-115 0 -219 127q-53 70 -100 93q-46 22 -120 22q-148 -1 -146 -199v-292h307l391 100h160v-948z" />
    <glyph glyph-name="f_k.liga" unicode="fk" horiz-adv-x="2453" 
d="M2388 1112v-145l-393 -314l239 -409l209 -80l-82 -164h-469l-303 553l344 264l-280 131l82 164h653zM889 1808q334 0 514 -20h119l-2 -1567l184 -57l-82 -164h-512v1358q-57 86 -141 135q-85 49 -159 49q-149 0 -146 -199v-292h329v-166h-329v-641l327 -80l-82 -164h-837
v145l182 160v580h-203v166h203v145q0 164 100 305t248 224t287 83z" />
    <glyph glyph-name="f_kcommaaccent.liga" unicode="f&#x137;" horiz-adv-x="2453" 
d="M2388 1112v-145l-393 -314l239 -409l209 -80l-82 -164h-469l-303 553l344 264l-280 131l82 164h653zM889 1808q334 0 514 -20h119l-2 -1567l184 -57l-82 -164h-512v1358q-57 86 -141 135q-85 49 -159 49q-149 0 -146 -199v-292h329v-166h-329v-641l327 -80l-82 -164h-837
v145l182 160v580h-203v166h203v145q0 164 100 305t248 224t287 83zM2077 -170v-145l-262 -308h-222l64 193l-193 96l82 164h531z" />
    <glyph glyph-name="f_lcaron.liga" unicode="f&#x13e;" horiz-adv-x="1716" 
d="M889 1808q334 0 514 -20h119v-1567l182 -57l-82 -164h-512v1358q-57 86 -141 135q-85 49 -159 49q-149 0 -146 -199v-292h329v-166h-329v-641l327 -80l-82 -164h-837v145l182 160v580h-203v166h203v145q0 164 100 305t248 224t287 83zM2097 1788v-381l-223 -238l-162 123
q25 74 37 140l-119 79v146l309 131h158z" />
    <glyph glyph-name="f_lcommaaccent.liga" unicode="f&#x13c;" horiz-adv-x="1716" 
d="M889 1808q334 0 514 -20h119v-1567l182 -57l-82 -164h-512v1358q-57 86 -141 135q-85 49 -159 49q-149 0 -146 -199v-292h329v-166h-329v-641l327 -80l-82 -164h-837v145l182 160v580h-203v166h203v145q0 164 100 305t248 224t287 83zM1649 -170v-145l-263 -308h-221
l64 193l-193 96l82 164h531z" />
    <glyph glyph-name="f_odieresis.liga" unicode="f&#xf6;" horiz-adv-x="2371" 
d="M1690 254q137 0 137 262q-1 140 -61 241t-169 101q-137 0 -137 -240q0 -160 60 -262t170 -102zM1018 526q0 158 108 299q109 141 273 225q165 84 321 83q156 0 282 -71t197 -195q71 -123 71 -281t-110 -299q-108 -141 -272 -225t-320 -82q-156 0 -283 70t-197 195
q-70 123 -70 281zM1737 1536q0 72 41 124t101 84t133 32t129 -58q57 -58 57 -128q0 -72 -41 -124t-103 -84q-62 -30 -133 -30q-72 0 -128 56t-56 128zM993 1051v-166h-329v-641l327 -80l-82 -164h-837v145l182 160v580h-203v166h203v145q0 164 108 305q109 141 270 224
q160 83 308 83q382 0 496 -45q59 -23 93 -75t34 -110t-39 -110q-40 -52 -102 -84t-124 -32q-104 1 -165 86q-43 61 -105 83q-62 21 -164 21q-200 -1 -200 -199v-292h329z" />
    <glyph glyph-name="longs_t.liga" unicode="&#x17f;t" horiz-adv-x="1912" 
d="M1096 1260q-118 221 -264 221q-74 0 -121 -52.5t-47 -146.5v-1038l327 -80l-82 -164h-837v145l182 160v580h-203v166h203v84q0 164 106.5 305t265 224t304.5 83q86 0 197.5 -36t211 -92t150.5 -116v-452h369v-166h-369v-504q0 -125 160 -125q75 0 182 43l59 -141
l-207 -164q-84 -16 -196 -17q-213 0 -311.5 89.5t-98.5 275.5v541h-221v125z" />
    <glyph glyph-name="longs_b.liga" unicode="&#x17f;b" horiz-adv-x="2445" 
d="M1909 498q0 143 -45 232q-46 89 -146 89t-198 -45v-317q0 -85 63 -143t176 -58q150 0 150 242zM889 1808q334 0 514 -20h119v-834l200 162q66 16 150 17l-2 2q135 0 243 -71q107 -71 167 -195q60 -123 60 -281t-108 -299t-272 -224t-321 -83t-271 110l-98 -92h-160v1358
q-57 86 -141 135q-85 49 -159 49q-149 0 -146 -199v-1099l327 -80l-82 -164h-837v145l182 160v580h-203v166h203v145q0 164 100 305t248 224t287 83z" />
    <glyph glyph-name="longs_h.liga" unicode="&#x17f;h" horiz-adv-x="2412" 
d="M889 1808q334 0 514 -20h119v-832l198 160q55 16 133 17q169 0 267 -85t98 -231v-596l182 -55l-82 -164h-512v633q0 88 -25 125t-101 37t-160 -43v-533l184 -57l-82 -164h-512v1358q-57 86 -141 135q-85 49 -159 49q-149 0 -146 -199v-1099l327 -80l-82 -164h-837v145
l182 160v580h-203v166h203v145q0 164 100 305t248 224t287 83z" />
    <glyph glyph-name="longs_i.liga" unicode="&#x17f;i" horiz-adv-x="1716" 
d="M1112 0v705l-182 118v146l432 182h160v-930l184 -57l-82 -164h-512zM72 0v145l182 160v580h-203v166h203v145q0 164 100 305t248 224t297 83q147 0 307 -14t220 -43t95 -82q33 -53 33 -119t-48 -123t-120 -92t-137 -35q-115 0 -219 127q-53 70 -100 93q-46 22 -120 22
q-148 -1 -146 -199v-1099l327 -80l-82 -164h-837z" />
    <glyph glyph-name="longs_k.liga" unicode="&#x17f;k" horiz-adv-x="2453" 
d="M2388 1112v-145l-393 -314l239 -409l209 -80l-82 -164h-469l-303 553l344 264l-280 131l82 164h653zM889 1808q334 0 514 -20h119l-2 -1567l184 -57l-82 -164h-512v1358q-57 86 -141 135q-85 49 -159 49q-149 0 -146 -199v-1099l327 -80l-82 -164h-837v145l182 160v580
h-203v166h203v145q0 164 100 305t248 224t287 83z" />
    <glyph glyph-name="longs_l.liga" unicode="&#x17f;l" horiz-adv-x="1716" 
d="M889 1808q334 0 514 -20h119v-1567l182 -57l-82 -164h-512v1358q-57 86 -141 135q-85 49 -159 49q-149 0 -146 -199v-1099l327 -80l-82 -164h-837v145l182 160v580h-203v166h203v145q0 164 100 305t248 224t287 83z" />
    <glyph glyph-name="longs_longs.liga" unicode="&#x17f;&#x17f;" horiz-adv-x="1918" 
d="M2081 1333h-160q-49 95 -121 151t-140 56t-104 -52t-36 -147v-1099l327 -80l-82 -164h-655v885h-203v166h203v145q0 57 12 109q-59 84 -134 130q-76 46 -154 46q-78 -1 -125 -53t-47 -146v-1038l327 -80l-82 -164h-837v145l182 160v580h-203v166h203v84q0 164 106 305
t266 224t304 83q94 0 220 -29t204 -65q90 73 195 115t200 42l-2 -2q80 1 184 -23t152 -52v-398z" />
    <glyph glyph-name="longs_longs_i.liga" unicode="&#x17f;&#x17f;i" horiz-adv-x="2574" 
d="M1968 -2v704l-182 119v146l432 182h160v-930l184 -57l-82 -164h-512zM1352 1651q190 157 426 157q126 0 286 -14t220 -43t95 -82q34 -53 34 -119q-1 -66 -49 -123t-120 -92t-136 -35q-115 0 -220 127q-53 70 -100 93q-46 22 -120 22q-146 -1 -146 -199l-2 -1101l327 -80
l-82 -164h-655v885h-203v166h203v145q0 57 12 109q-59 84 -134 130q-76 46 -154 46q-78 -1 -125 -53t-47 -146v-1038l327 -80l-82 -164h-837v145l182 160v580h-203v166h203v84q0 164 106 305t266 224t304 83q94 0 220 -29t204 -65z" />
    <glyph glyph-name="longs_longs_l.liga" unicode="&#x17f;&#x17f;l" horiz-adv-x="2574" 
d="M1747 1808q336 0 514 -20h119v-1567l180 -59l-82 -164h-512v1358q-57 86 -141 135q-85 49 -159 49q-149 0 -146 -199v-1099l327 -80l-82 -164h-655v885h-203v166h203v145q0 57 12 109q-59 84 -134 130q-76 46 -154 46q-78 -1 -125 -53t-47 -146v-1038l327 -80l-82 -164
h-837v145l182 160v580h-203v166h203v84q0 164 106 305t266 224t304 83q94 0 220 -29t204 -65q90 73 195 115t200 42z" />
    <glyph glyph-name=".notdef" horiz-adv-x="2859" 
d="M1452 414q-102 0 -166 -91q-29 -42 -29 -100q0 -59 40 -103q39 -44 91 -44q105 0 166 91q29 41 29 99t-40 103t-91 45zM1424 1399q-90 0 -171 -17l-202 -157l61 -78q134 78 206 78t132 -30t97 -77q38 -47 38 -85q0 -39 -29 -67q-28 -28 -100 -80t-115 -98t-43 -110
t62 -139l215 106v64q-48 56 -46 90q3 33 32 61t101 80q72 53 113 98q42 46 41 104q0 58 -64 118t-151 100q-87 39 -177 39zM1430 -451l-1307 1237l1307 1233l1306 -1233z" />
    <glyph glyph-name=".null" horiz-adv-x="0" 
 />
    <glyph glyph-name="nonmarkingreturn" horiz-adv-x="681" 
 />
    <glyph glyph-name="space" unicode=" " horiz-adv-x="571" 
 />
    <glyph glyph-name="exclam" unicode="!" horiz-adv-x="694" 
d="M633 244q0 -80 -48 -138q-48 -57 -120 -92t-139 -34q-100 0 -168 63t-68 143t48 137q48 58 120 93q72 34 156 34t152 -63q67 -63 67 -143zM219 608l-158 697v145l396 160h159l-131 -1002h-266z" />
    <glyph glyph-name="quotedbl" unicode="&#x22;" horiz-adv-x="1554" 
d="M434 723l-311 559v145l432 183h160l-76 -887h-205zM1151 723l-311 559v145l432 183h160l-76 -887h-205z" />
    <glyph glyph-name="numbersign" unicode="#" horiz-adv-x="1597" 
d="M725 676l-141 -246h286l142 246h-287zM1010 430h307l-100 -174h-308l-157 -274l-103 63l121 211h-287l-157 -274l-103 63l121 211h-307l100 174h309l142 246h-307l100 174h307l162 280l102 -63l-125 -217h287l162 280l102 -63l-125 -217h308l-101 -174h-309z" />
    <glyph glyph-name="dollar" unicode="$" horiz-adv-x="1433" 
d="M825 -410h-215v371q-152 10 -308 37t-230 55v479h262q82 -166 190 -258t219 -92q74 0 118 41t44 99q0 104 -164 217q-70 47 -207 127t-229 144q-92 65 -158 151q-141 183 16 388q81 105 205 187t242 106v377h215v-374q135 -10 275 -37t211 -54v-479h-262
q-76 164 -171 257t-198 93q-61 0 -96 -39q-35 -38 -35 -102t48 -122t121 -106q72 -48 208 -126t228 -140t154 -146q64 -84 64 -187v-2q0 -91 -84 -195t-213 -185t-250 -108v-377z" />
    <glyph glyph-name="percent" unicode="%" horiz-adv-x="2334" 
d="M690 1143q180 0 180 190q0 121 -65 199q-66 78 -189 78q-180 -1 -180 -191q0 -121 66 -199t188 -77zM1225 1397q1 -119 -99 -225t-247 -166q-147 -62 -291 -62t-260 53t-182 145q-64 92 -64 213q0 120 99 225q99 104 247 166t290 62t259 -53t183 -146t65 -212zM214 -184
l-108 118l2015 1816l110 -117zM1898 131q0 121 -65 199q-66 78 -188 78q-181 -1 -181 -191q0 -121 66 -199t188 -77q180 0 180 190zM2253 195q1 -119 -99 -225t-247 -166q-147 -62 -291 -62t-260 53t-182 145q-64 92 -64 213q0 120 99 225q99 104 247 166t290 62t259 -53
t183 -146t65 -212z" />
    <glyph glyph-name="ampersand" unicode="&#x26;" horiz-adv-x="2668" 
d="M1737 805q-176 88 -284 88t-202 -72q-27 -129 -157 -217t-367 -174l-84 164q125 43 168 91q43 49 43 107t-33 103t-90 45q-197 0 -199 -264q-1 -243 156 -349q74 -50 168 -51l-4 3q127 0 282 63t281 166l4 2q82 176 318 295zM104 567q0 170 116 321q116 150 289 238
t341 88t266 -66t129 -171q217 238 395 237q110 0 263 -63t240 -63q87 -1 133 30t46 86q0 129 -378 234v145l405 96q75 -79 147 -199t72 -226t-94 -236q-94 -131 -221 -219t-211 -88q-49 0 -111 14q-114 -114 -113 -223q1 -110 53 -168t148 -58q152 1 455 107l61 -139
l-280 -226q-149 -38 -317 -38q-309 1 -454 153q-69 72 -87 162l-344 -277q-113 -38 -291 -38t-332 76t-240 208q-86 133 -86 303z" />
    <glyph glyph-name="quotesingle" unicode="'" horiz-adv-x="837" 
d="M434 723l-311 559v145l432 183h160l-76 -887h-205z" />
    <glyph glyph-name="parenleft" unicode="(" horiz-adv-x="1038" 
d="M543 820q-1 -348 117 -637q118 -288 376 -451l-116 -162q-246 84 -431 249q-184 165 -285 397t-102 511q0 727 826 1225l110 -162q-247 -162 -371 -392t-124 -578z" />
    <glyph glyph-name="parenright" unicode=")" horiz-adv-x="1038" 
d="M496 702q0 348 -118 636t-376 452l117 162q246 -84 430 -249q183 -165 285 -397t102 -511q0 -727 -825 -1225l-111 162q248 162 372 392t124 578z" />
    <glyph glyph-name="asterisk" unicode="*" horiz-adv-x="1429" 
d="M1141 772l-60 -240l-260 -47l-73 127l114 164l-145 250l35 21zM709 1030l-43 -475l-238 -68l-170 201l72 127l198 -16l146 250zM672 1098v-41l-432 -199l-179 172l91 248h145l86 -180h289zM758 1053v41l432 198l178 -170l-90 -250h-145l-86 181h-289zM721 1122l43 473
l237 70l170 -203l-71 -127l-199 17l-145 -250zM713 1124l-35 -20l-389 274l59 240l260 47l74 -127l-113 -164z" />
    <glyph glyph-name="plus" unicode="+" horiz-adv-x="1136" 
d="M651 561v-403h-166v403h-403v166h403v403h166v-403h404v-166h-404z" />
    <glyph glyph-name="comma" unicode="," horiz-adv-x="757" 
d="M221 -541l-160 123q86 102 130 178t63 158l-186 121v145l473 183l155 -408z" />
    <glyph glyph-name="hyphen" unicode="-" horiz-adv-x="1050" 
d="M948 768v-143l-82 -105h-764v144l82 104h764z" />
    <glyph glyph-name="period" unicode="." horiz-adv-x="665" 
d="M61 186q1 80 49 137q48 58 120 93q72 34 156 34q85 0 152 -63q66 -63 66 -143t-48 -138q-48 -57 -120 -92t-139 -34q-100 0 -168 63t-68 143z" />
    <glyph glyph-name="slash" unicode="/" horiz-adv-x="727" 
d="M184 -297l-184 41l541 2195l186 -38z" />
    <glyph glyph-name="zero" unicode="0" horiz-adv-x="1632" 
d="M545 659q0 -184 82 -305t235 -121q225 0 225 304q0 184 -81 304q-82 120 -236 120q-225 -1 -225 -302zM1530 627q0 -170 -124 -321q-124 -150 -308 -238t-362 -88t-324 76q-145 76 -228 208q-82 133 -82 303t124 321q124 150 308 238t364 88q178 0 324 -75
q146 -76 227 -209t81 -303z" />
    <glyph glyph-name="one" unicode="1" horiz-adv-x="1052" 
d="M123 0v145l199 156v672l-240 57l82 164h766v-145l-199 -156v-672l240 -57l-82 -164h-766z" />
    <glyph glyph-name="two" unicode="2" horiz-adv-x="1413" 
d="M92 -2v145q470 354 574 493q53 73 53 135t-48 103t-122 41q-139 0 -414 -106l-61 139l280 226q102 38 263 38t291 -40t202 -114t72 -171q0 -74 -109 -197t-328 -278h359l80 186l145 -43v-594l-194 37h-1043z" />
    <glyph glyph-name="three" unicode="3" horiz-adv-x="1146" 
d="M1085 174q1 -219 -237 -389t-760 -324l-51 181q244 84 370 147t177 129t51 160q0 182 -275 282v134q100 61 145 127q44 67 44 147t-41 127t-115 47t-303 -106l-61 139l280 225q70 16 127 17q154 -1 283 -45t205 -118t75 -165q-19 -193 -348 -370q222 -65 328 -147
t106 -198z" />
    <glyph glyph-name="four" unicode="4" horiz-adv-x="1511" 
d="M819 311v504l-422 -504h422zM1229 84v-401l-410 -121v522h-758v145l758 904l410 120v-942h313l-72 -227h-241z" />
    <glyph glyph-name="five" unicode="5" horiz-adv-x="1282" 
d="M711 29q0 76 -44 127q-86 100 -544 229l160 809h602l80 186l143 -41v-594l-195 37h-542l-13 -65l2 2q318 -92 491 -180q173 -87 242 -183t68 -225q0 -172 -148 -299q-149 -127 -369 -210t-521 -163l-51 181q494 144 590 256q50 58 49 133z" />
    <glyph glyph-name="six" unicode="6" horiz-adv-x="1603" 
d="M881 233q178 0 178 254q0 185 -87 305t-218 183l104 174q168 0 316 -74q148 -73 238 -197q89 -124 89 -276q-1 -152 -109 -298t-282 -235t-351 -89t-317 82q-139 83 -219 233t-80 342q0 303 241 597t839 574l90 -166q-514 -314 -658 -620q-69 -150 -69 -296
q1 -294 136 -427q67 -66 159 -66z" />
    <glyph glyph-name="seven" unicode="7" horiz-adv-x="1347" 
d="M1327 1194v-160l-883 -1575l-165 74l704 1251h-635l-82 -188l-143 41v594l194 -37h1010z" />
    <glyph glyph-name="eight" unicode="8" horiz-adv-x="1609" 
d="M1065 421q0 85 -54 153t-134 123q-80 54 -220 137q-69 -84 -91 -142t-22 -140q0 -83 45 -166q44 -83 117 -132q73 -50 161 -50t143 66t55 151zM649 1412q0 -81 67 -157t189 -155q49 82 63 131q13 49 13 131q-1 82 -45 150q-44 70 -120 70t-121 -44q-46 -45 -46 -126z
M1503 518q1 -110 -109 -236t-266 -214t-280 -88q-219 0 -389 64t-265 176t-96 247q0 103 98 205t320 243q-145 93 -227 191t-82 210t102 224q101 113 249 191q148 77 290 77t269 -50q126 -50 196 -135t69 -185q-6 -88 -74 -183q-69 -94 -253 -243h-2q147 -87 236 -150
t151 -149t63 -195z" />
    <glyph glyph-name="nine" unicode="9" horiz-adv-x="1603" 
d="M1460 558q0 -190 -92 -368t-326 -363t-641 -368l-90 166q264 156 419 294q288 256 288 549q0 292 -134 426q-67 67 -161 67q-178 0 -178 -254q0 -185 87 -305t218 -183l-105 -174q-168 0 -316 74t-238 197q-89 124 -89 276t109 298t283 235t351 89t316 -82
q139 -83 219 -233t80 -341z" />
    <glyph glyph-name="colon" unicode=":" horiz-adv-x="665" 
d="M61 868q1 80 49 137q48 58 120 93q72 34 156 34q85 0 152 -63q66 -63 66 -143t-48 -138q-48 -57 -120 -92t-139 -34q-100 0 -168 63t-68 143zM61 186q1 80 49 137q48 58 120 93q72 34 156 34q85 0 152 -63q66 -63 66 -143t-48 -138q-48 -57 -120 -92t-139 -34
q-100 0 -168 63t-68 143z" />
    <glyph glyph-name="semicolon" unicode=";" horiz-adv-x="757" 
d="M221 -541l-160 123q86 102 130 178t63 158l-186 121v145l473 183l155 -408zM61 868q1 80 49 137q48 58 120 93q72 34 156 34q85 0 152 -63q66 -63 66 -143t-48 -138q-48 -57 -120 -92t-139 -34q-100 0 -168 63t-68 143z" />
    <glyph glyph-name="less" unicode="&#x3c;" horiz-adv-x="1011" 
d="M698 168l-637 477l766 514l86 -110l-487 -328l524 -387z" />
    <glyph glyph-name="equal" unicode="=" horiz-adv-x="1136" 
d="M82 911h973v-166h-973v166zM82 543h973v-166h-973v166z" />
    <glyph glyph-name="greater" unicode="&#x3e;" horiz-adv-x="1011" 
d="M184 131l-86 111l488 327l-525 387l252 166l637 -477z" />
    <glyph glyph-name="question" unicode="?" horiz-adv-x="1110" 
d="M233 186q1 80 49 137q48 58 120 93q72 34 156 34q85 0 152 -63q66 -63 66 -143t-48 -138q-48 -57 -120 -92t-139 -34q-100 0 -168 63t-68 143zM1008 1330q0 -64 -54 -118t-139 -111q-84 -58 -117 -87t-32 -56q0 -41 127 -75v-146l-289 -190q-131 59 -206 119t-75 128
t49 124q50 56 130 118t112 96t31 62q0 28 -33 62q-33 32 -81 55t-93 22q-102 0 -277 -63l-61 139l281 225q93 16 211 16t238 -52t199 -128t79 -140z" />
    <glyph glyph-name="at" unicode="@" horiz-adv-x="3012" 
d="M1430 856q-150 0 -150 -252q0 -125 49 -207t137 -82l2 2q109 0 203 41v330q-13 72 -75 120t-166 48zM2910 748q0 -193 -134 -357t-330 -267t-367 -126h-410v147l-190 -151q-65 -16 -179 -16t-222 70q-108 71 -168 192q-60 120 -60 276t96 300t240 230t280 84
q193 0 338 -94l115 97h160v-922q389 106 389 442q0 215 -102 395t-316 286q-213 108 -511 108t-521 -106t-348 -296t-125 -431t100 -451t307 -354t516 -181l-82 -164q-422 -2 -710 128t-430 368q-144 237 -144 565t241 598t602 424t695 154v-2q375 0 664 -122
q290 -122 448 -337t158 -487z" />
    <glyph glyph-name="A" unicode="A" horiz-adv-x="1931" 
d="M858 1274l-219 -549h442zM1022 0v145l244 127l-105 258h-598l-84 -208l287 -158l-82 -164h-684v145l240 179l491 1220l438 105l570 -1389l213 -96l-82 -164h-848z" />
    <glyph glyph-name="B" unicode="B" horiz-adv-x="1636" 
d="M1153 432q0 113 -68 196t-198 91h-172v-469q98 -35 221 -35l-2 -2q103 0 161 53t58 166zM834 1419q-63 0 -119 -18v-510h190q168 0 168 223q0 139 -60 222t-179 83zM1614 472q0 -130 -117 -244t-290 -182t-303 -66q-130 0 -228 10q-164 10 -254 10h-342v145l192 152v1094
l-233 55l82 164h299q186 0 346 10t225 10q162 0 285 -53q124 -53 190 -144t66 -197q0 -200 -222 -360q144 -58 224 -166t80 -238z" />
    <glyph glyph-name="C" unicode="C" horiz-adv-x="1734" 
d="M946 1376q-100 0 -183 -66.5t-131 -183t-48 -269.5t49 -287t149.5 -214t247.5 -80q195 0 549 173l94 -152l-377 -293q-152 -45 -386.5 -45t-418.5 104.5t-286.5 288t-102.5 420t153 440t379 321.5t431 118q127 0 295 -31t246 -66v-458h-263q-147 280 -397 280z" />
    <glyph glyph-name="D" unicode="D" horiz-adv-x="1923" 
d="M1339 758.5q0 170.5 -54 323.5t-165.5 244t-275.5 91q-68 0 -127 -35v-1157q88 -33 201.5 -32.5t211 72t153.5 197.5t56 296.5zM1821 837q0 -230 -152.5 -428t-379 -313.5t-431.5 -115.5q-90 0 -182 10q-147 10 -232 10h-362v145l192 152v1079l-233 70l82 164h319
q186 0 342 10t220 10q241 0 426.5 -101.5t288 -281.5t102.5 -410z" />
    <glyph glyph-name="E" unicode="E" horiz-adv-x="1687" 
d="M82 0v145l192 152v1085l-233 64l82 164h1272l170 37v-553l-144 -62l-258 383h-448v-495h198l150 210h145v-581l-164 -82l-137 258h-192v-530h430l297 423l143 -61v-594l-170 37h-1333z" />
    <glyph glyph-name="F" unicode="F" horiz-adv-x="1605" 
d="M715 1415v-495h198l150 210h145v-622l-164 -82l-141 299h-188v-489l379 -72l-82 -164h-930v145l192 152v1085l-233 64l82 164h1272l170 37v-553l-144 -62l-268 383h-438z" />
    <glyph glyph-name="G" unicode="G" horiz-adv-x="1966" 
d="M584 853q0 -159 55 -301t170 -228t283 -86h63q80 0 125 4v350l-336 76l82 163h889v-145l-195 -170v-135l56 -143l-377 -232q-169 -45 -424.5 -45t-454 104.5t-308.5 288t-110 420t163 440t403.5 321.5t457.5 118q135 0 316.5 -31t265.5 -66v-540h-262q-162 362 -438 362
q-117 0 -214.5 -66.5t-153.5 -183t-56 -275.5z" />
    <glyph glyph-name="H" unicode="H" horiz-adv-x="2056" 
d="M1147 0v145l192 168v392h-624v-480l235 -61l-82 -164h-786v145l192 168v1069l-233 62l82 164h786v-146l-194 -170v-395h624v485l-233 62l82 164h786v-146l-194 -170v-1067l235 -61l-82 -164h-786z" />
    <glyph glyph-name="I" unicode="I" horiz-adv-x="991" 
d="M82 0v145l192 168v1069l-233 62l82 164h786v-146l-194 -170v-1067l235 -61l-82 -164h-786z" />
    <glyph glyph-name="J" unicode="J" horiz-adv-x="909" 
d="M674 203q0 -188 18 -244l-506 -500l-159 123q123 145 164.5 247.5t41.5 254.5v1302l-274 60l82 164h827v-146l-194 -151v-1110z" />
    <glyph glyph-name="K" unicode="K" horiz-adv-x="1904" 
d="M1837 1612v-146l-629 -555l455 -647l217 -98l-82 -164h-473l-553 807l569 504l-239 135l82 164h653zM82 2v145l192 168v1069l-233 62l82 164h786v-146l-194 -170v-1067l235 -61l-82 -164h-786z" />
    <glyph glyph-name="L" unicode="L" horiz-adv-x="1646" 
d="M82 -2v145l192 152v1096l-233 55l82 164h786v-146l-194 -151v-1118h422l325 464l144 -61v-637l-170 37h-1354z" />
    <glyph glyph-name="M" unicode="M" horiz-adv-x="2408" 
d="M1499 -2v145l193 152v889l-486 -1186h-215l-502 1198v-950l236 -84l-82 -164h-561v145l192 152v1063l-233 88l82 164h655l441 -1053l432 1053h676v-146l-195 -151v-1094l235 -57l-81 -164h-787z" />
    <glyph glyph-name="N" unicode="N" horiz-adv-x="1871" 
d="M1657 2h-215l-953 1014v-742l338 -110l-82 -164h-663v145l192 168v1000l-233 133l82 164h391l928 -985v712l-336 109l82 164h663v-144l-194 -170v-1294z" />
    <glyph glyph-name="O" unicode="O" horiz-adv-x="2004" 
d="M584 851q0 -159 51 -302t156.5 -229.5t257.5 -86.5q102 0 187 67t135 183.5t50 276t-51 303t-155.5 228.5t-258.5 85q-102 0 -187 -66.5t-135 -183t-50 -275.5zM1903 836.5q0 -236.5 -155 -439t-384 -320.5t-454.5 -118t-413 103.5t-291 288t-103.5 421t155 440
t384 321.5t454.5 118t414 -104.5t291 -289t102.5 -421z" />
    <glyph glyph-name="P" unicode="P" horiz-adv-x="1636" 
d="M864 1415q-80 0 -149 -47v-1132l379 -72l-82 -164h-930v145l192 152v1079l-233 70l82 164h401q172 0 318 10t202 10q168 0 298 -63t202 -174t72 -252t-118 -273t-297 -208q-179 -75 -345 -66l-86 49l82 164h84v-2q92 0 145 76t53 214t-68 229q-69 91 -202 91z" />
    <glyph glyph-name="Q" unicode="Q" horiz-adv-x="2004" 
d="M1049 233q102 0 187 67t135 183.5t50 276t-51 303t-155.5 228.5t-258.5 85q-102 0 -187 -66.5t-135 -183t-50 -275.5t51 -302t156.5 -229.5t257.5 -86.5zM1624 -541q-68 0 -210 146.5t-329 369.5q-86 -16 -155 -16q-246 0 -433.5 103.5t-291 288t-103.5 421t155 440
t384 321.5t454.5 118t414 -104.5t291 -289t102.5 -420t-152 -436t-381 -321.5q421 -295 479 -295h277l82 -174q-426 -152 -584 -152z" />
    <glyph glyph-name="R" unicode="R" horiz-adv-x="1781" 
d="M936 868q92 0 145.5 66.5t53.5 193.5t-69 208t-202 81q-80 0 -149 -47v-1143l235 -61l-82 -164h-786v145l192 168v1069l-233 62l82 164h401q172 0 317.5 10t202.5 10q168 0 298.5 -56t202 -154.5t71.5 -229.5t-122 -250t-304 -186l182 -49l236 -453l194 -88l-82 -164
h-483l-360 696l-86 49l61 123h84z" />
    <glyph glyph-name="S" unicode="S" horiz-adv-x="1433" 
d="M82 1150q0 103 99.5 221t242.5 199t276 81t327 -31t284 -66v-479h-262q-76 164 -171.5 257t-197.5 93q-61 0 -96 -38.5t-35 -102.5t48 -122t121 -106t208.5 -126t227 -140.5t155 -146.5t63.5 -186.5t-105.5 -220t-257 -198.5t-290 -81t-347 30.5t-300.5 65.5v479h262
q82 -166 190.5 -258t218.5 -92q74 0 118 41t44 99.5t-47 114t-116.5 102.5t-207 126.5t-229.5 144t-157.5 151t-65.5 189.5z" />
    <glyph glyph-name="T" unicode="T" horiz-adv-x="1744" 
d="M1090 1415v-1196l235 -55l-82 -164h-786v145l192 152v1118h-147l-297 -424l-144 62v594l170 -37h1282l170 37v-594l-143 -62l-297 424h-153z" />
    <glyph glyph-name="U" unicode="U" horiz-adv-x="1839" 
d="M1624 635q0 -215 -109.5 -368.5t-271.5 -230.5t-342 -77t-343 81t-254 223.5t-91 320.5v807l-233 55l81 164h787v-146l-195 -151v-672q0 -193 102.5 -300.5t311.5 -107.5q80 0 159 46.5t131 134.5t52 207v739l-254 86l82 164h582v-146l-195 -151v-678z" />
    <glyph glyph-name="V" unicode="V" horiz-adv-x="1931" 
d="M909 1610v-146l-243 -127l405 -1001l381 952l-287 158l82 164h684v-146l-239 -178l-492 -1220l-438 -105l-569 1389l-213 96l81 164h848z" />
    <glyph glyph-name="W" unicode="W" horiz-adv-x="2729" 
d="M786 1612v-146l-141 -102l393 -1012l205 682l-117 322l-184 90l82 164h786v-146l-217 -121l349 -997l323 936l-301 164l82 164h684v-144l-227 -168l-432 -1230l-439 -105l-268 737l-184 -632l-439 -105l-551 1389l-210 96l81 164h725z" />
    <glyph glyph-name="X" unicode="X" horiz-adv-x="1828" 
d="M979 0v145l160 99l-301 344l-297 -295l225 -129l-82 -164h-684v145l266 187l426 420l-542 608l-150 86l82 164h766v-146l-170 -86l305 -348l268 285l-227 131l82 164h684v-146l-244 -170l-411 -432l569 -639l123 -59l-82 -164h-766z" />
    <glyph glyph-name="Y" unicode="Y" horiz-adv-x="1787" 
d="M494 -4v145l192 152v217l-563 868l-146 66l41 164h746v-146l-133 -102l342 -520l334 456l-285 150l82 164h684v-146l-234 -184l-448 -627v-436l235 -57l-81 -164h-766z" />
    <glyph glyph-name="Z" unicode="Z" horiz-adv-x="1617" 
d="M57 0v195l967 1220h-510l-248 -403l-143 61v574l170 -37h1255v-195l-968 -1220h528l274 444l144 -61v-615l-170 37h-1299z" />
    <glyph glyph-name="bracketleft" unicode="[" horiz-adv-x="890" 
d="M573 -256h297v-174h-706v2384h706v-174h-297v-2036z" />
    <glyph glyph-name="backslash" unicode="\" horiz-adv-x="727" 
d="M543 -297l-543 2198l186 38l541 -2195z" />
    <glyph glyph-name="bracketright" unicode="]" horiz-adv-x="890" 
d="M317 1780h-297v174h707v-2384h-707v174h297v2036z" />
    <glyph glyph-name="asciicircum" unicode="^" horiz-adv-x="1370" 
d="M1288 604h-401l-324 572l-317 -572h-164v160l358 641l439 104l409 -745v-160z" />
    <glyph glyph-name="underscore" unicode="_" horiz-adv-x="1101" 
d="M82 -150h938v-165h-938v165z" />
    <glyph glyph-name="grave" unicode="`" horiz-adv-x="778" 
d="M598 1362l-578 295l60 131l438 39l219 -402z" />
    <glyph glyph-name="a" unicode="a" horiz-adv-x="1415" 
d="M479 397.5q0 -35.5 31.5 -57.5t105.5 -22.5t193 69.5v80h-311q-19 -34 -19 -69.5zM80 326q0 168 184 307h545q-6 90 -61.5 136t-139.5 46q-141 0 -413 -86l-62 139l281 226q113 39 270 39q254 0 395.5 -112t141.5 -327v-458l182 -72l-82 -164h-512v178l-231 -182
q-41 -16 -103 -16q-209 0 -302 101t-93 245z" />
    <glyph glyph-name="b" unicode="b" horiz-adv-x="1525" 
d="M991 498q0 143 -45 232q-46 89 -146 89t-198 -45v-317q0 -85 64 -143t176 -58q149 0 149 242zM1423 588q-1 -158 -109 -299t-272 -224t-320 -83t-271 110l-99 -92h-159v1341l-183 119v146l432 182h160v-834l201 162q66 16 149 17v2q135 0 243 -71t168 -195
q60 -123 60 -281z" />
    <glyph glyph-name="c" unicode="c" horiz-adv-x="1337" 
d="M532 602q0 -131 62.5 -228.5t190.5 -97.5t403 107l61 -139l-280 -226q-131 -39 -302.5 -38.5t-297 71t-196.5 194.5t-71 281.5t102.5 299t257 224.5t277.5 83t260.5 -24t198.5 -52v-418h-160q-160 219 -370 219q-61 0 -98.5 -62.5t-37.5 -193.5z" />
    <glyph glyph-name="d" unicode="d" horiz-adv-x="1525" 
d="M682 858q-150 0 -150 -242q0 -133 46 -217t135 -84h2q111 0 209 45v345q-12 69 -74 111t-168 42zM922 0v156l-199 -160q-66 -16 -150 -16q-135 0 -243 70t-167 195q-61 123 -61 281t109 299t273 225t317 83q63 0 121 -29v237l-183 119v146l432 182h160v-1567l185 -57
l-82 -164h-512z" />
    <glyph glyph-name="e" unicode="e" horiz-adv-x="1374" 
d="M694.5 858q-80.5 0 -119 -52t-43.5 -161h338q-10 109 -52.5 161t-123 52zM774 276q145 0 434 107l62 -139l-281 -226q-139 -39 -316.5 -38.5t-303 71t-196.5 194.5t-71 281.5t108.5 299t272 224t316.5 83.5q227 0 352 -170t119 -484h-723q25 -94 82 -148.5t145 -54.5z
" />
    <glyph glyph-name="f" unicode="f" horiz-adv-x="1060" 
d="M1225 1335h-160q-49 95 -121 151t-140 56t-104 -52t-36 -147v-292h329v-166h-329v-641l327 -80l-82 -164h-837v145l182 160v580h-203v166h203v145q0 164 100 305t248 224t287 83q80 1 184 -23t152 -52v-398z" />
    <glyph glyph-name="g" unicode="g" horiz-adv-x="1310" 
d="M665.5 584q98.5 0 98.5 92q0 86 -56.5 135t-154.5 49t-98 -88q0 -82 56 -135t154.5 -53zM1202 -130q0 -69 -84 -168t-208 -172t-249.5 -73t-306 39t-301.5 78v397h160q90 -131 184.5 -199.5t214.5 -68.5q59 0 98.5 19.5t39.5 41.5q0 43 -49.5 77t-157 83t-168 92
t-60.5 97.5t82 105.5t195 90q-18 -2 -55 -2q-133 0 -245 50.5t-176.5 134t-64.5 190.5t92.5 213t237.5 172t307 66t297 -82h346l4 -164h-196q25 -55 24 -117q0 -121 -103.5 -234.5t-260.5 -177.5q-53 -66 -54 -125q0 -27 40 -52t154 -79t188.5 -108.5t74.5 -123.5z" />
    <glyph glyph-name="h" unicode="h" horiz-adv-x="1513" 
d="M909 2v633q0 88 -25.5 125t-101 37t-159.5 -43v-533l184 -57l-82 -164h-694v145l182 160v1036l-182 119v146l432 182h160v-832l198 160q55 16 133 17q168 0 266.5 -85t98.5 -231v-596l184 -55l-82 -164h-512z" />
    <glyph glyph-name="i" unicode="i" horiz-adv-x="858" 
d="M72 0v145l182 160v400l-182 118v146l432 182h160v-930l184 -57l-82 -164h-694zM696 1564.5q0 -80.5 -48 -137.5t-119.5 -92t-155.5 -35t-151.5 63.5t-67.5 143t48 137.5t119.5 93t156.5 35t151.5 -63.5t66.5 -144z" />
    <glyph glyph-name="j" unicode="j" horiz-adv-x="798" 
d="M616 203q0 -185 19 -244l-475 -500l-160 123q123 145 165 247.5t42 254.5v664l-182 126v146l432 131h159v-948zM649 1540q0 -80 -48 -137t-119.5 -92t-155.5 -35t-152 63.5t-68 142.5t48.5 137t120 93t156.5 35t151.5 -63.5t66.5 -143.5z" />
    <glyph glyph-name="k" unicode="k" horiz-adv-x="1554" 
d="M1491 1112v-145l-393 -314l239 -409l209 -80l-82 -164h-469l-303 553l344 264l-280 131l82 164h653zM31 0v145l182 160v1036l-182 119v146l432 182h160v-1567l184 -57l-82 -164h-694z" />
    <glyph glyph-name="l" unicode="l" horiz-adv-x="817" 
d="M31 0v145l182 160v1036l-182 119v146l432 182h160v-1567l184 -57l-82 -164h-694z" />
    <glyph glyph-name="m" unicode="m" horiz-adv-x="2168" 
d="M1569 0v674q-1 68 -21 94t-86 27q-66 0 -141 -41v-537l164 -53l-82 -164h-492v674q0 68 -20 94t-86 27q-66 0 -141 -41v-537l163 -53l-82 -164h-673v145l182 160v400l-182 118v146l473 182l86 -221l231 186q46 16 140 16t178 -50t118 -142l220 176q45 16 112 17
q158 0 251 -85t93 -231v-596l189 -57l-82 -164h-512z" />
    <glyph glyph-name="n" unicode="n" horiz-adv-x="1554" 
d="M950 2v633q0 88 -25.5 125t-101 37t-159.5 -43v-533l184 -57l-82 -164h-694v145l182 160v400l-182 118v146l473 182l86 -221l231 186q55 16 133 17q168 0 266.5 -85t98.5 -231v-596l184 -55l-82 -164h-512z" />
    <glyph glyph-name="o" unicode="o" horiz-adv-x="1456" 
d="M774 254q137 0 137 262q0 140 -60 241t-169 101q-137 0 -137 -240q0 -160 60.5 -262t168.5 -102zM1354 585.5q0 -157.5 -108.5 -299t-272.5 -224t-321 -82.5t-282.5 70.5t-196.5 194.5t-71 281.5t108.5 299t272.5 224.5t321 83t282.5 -71t196.5 -195t71 -281.5z" />
    <glyph glyph-name="p" unicode="p" horiz-adv-x="1587" 
d="M662 455q0 -85 63 -143t178 -58q150 0 150 242q0 133 -45 217t-136 84h-2q-110 0 -208 -45v-297zM72 -520v145l182 160v920l-182 118v146l473 182l86 -223l233 188q66 16 150 17q134 0 242 -71t168 -195q60 -123 60 -281t-108 -299t-272 -225t-318 -82h-2q-65 -1 -120 30
v-286l327 -80l-82 -164h-837z" />
    <glyph glyph-name="q" unicode="q" horiz-adv-x="1525" 
d="M684 860q-152 0 -150 -254q0 -123 50 -205q49 -82 137 -82l2 3q109 -1 203 40v330q-12 72 -74 120t-168 48zM598 -518v145l326 135v388l-191 -152q-65 -16 -179 -16t-222 70t-167 192q-61 120 -61 276t96 300t241 230q144 86 280 85q193 0 340 -99l110 92h160v-1437
l207 -45l-82 -164h-858z" />
    <glyph glyph-name="r" unicode="r" horiz-adv-x="1226" 
d="M72 0v145l182 160v400l-182 118v146l473 182l82 -213l174 178q37 16 92 17q133 0 223 -55.5t123 -153.5l-231 -291h-160q0 88 -16.5 125t-65.5 37t-102 -37v-514l327 -80l-82 -164h-837z" />
    <glyph glyph-name="s" unicode="s" horiz-adv-x="1144" 
d="M756 836.5q-72 50.5 -138.5 50.5t-66.5 -62q0 -29 48 -64.5t179.5 -111t219 -149.5t87.5 -157t-77.5 -166t-190 -140t-219.5 -57t-270.5 23.5t-235.5 51.5v377h160q57 -96 141 -151.5t166 -55.5q31 0 50.5 16.5t19.5 43t-46 60.5t-177.5 110.5t-221.5 152.5t-90 159
t76 167t185.5 141.5t212 57.5t252 -24t216.5 -52v-357h-159q-49 86 -121 136.5z" />
    <glyph glyph-name="t" unicode="t" horiz-adv-x="1054" 
d="M791 256q75 0 182 43l61 -139l-207 -164q-84 -16 -196 -16q-213 0 -311.5 89t-98.5 275v541h-221v125l471 493h160v-452h368v-166h-368v-504q0 -125 160 -125z" />
    <glyph glyph-name="u" unicode="u" horiz-adv-x="1495" 
d="M891 0v154l-199 -160q-55 -16 -133 -17q-168 0 -266 85t-98 231v407l-183 105v145l432 183h160v-656q0 -88 25.5 -125t101.5 -37t160 43v342l-182 105v145l432 183h159v-912l185 -57l-82 -164h-512z" />
    <glyph glyph-name="v" unicode="v" horiz-adv-x="1370" 
d="M1329 1112v-145l-530 -967h-320l-293 713l-206 121v145l514 172l77 -309l209 -504l221 414l-305 196l82 164h551z" />
    <glyph glyph-name="w" unicode="w" horiz-adv-x="2025" 
d="M1985 965l-490 -967h-319l-162 391l-215 -391h-320l-293 713l-206 120v146l514 172l77 -309l209 -504l144 272l-43 105l-207 121v145l514 172l78 -309l207 -496l192 399l-313 203l82 164l551 -2v-145z" />
    <glyph glyph-name="x" unicode="x" horiz-adv-x="1409" 
d="M45 -2v145l438 379l-252 328l-211 98l82 164h449l280 -375l142 129l-178 82l82 164h489v-145l-438 -379l223 -291l238 -133l-82 -164h-449l-270 381l-150 -135l178 -84l-81 -164h-490z" />
    <glyph glyph-name="y" unicode="y" horiz-adv-x="1370" 
d="M1329 1112v-145l-530 -967l-514 -541l-160 123q143 180 203.5 310.5t74.5 289.5l-217 531l-206 121v145l514 172l77 -309l209 -504l221 414l-305 196l82 164h551z" />
    <glyph glyph-name="z" unicode="z" horiz-adv-x="1363" 
d="M125 0v160l580 542h-345l-77 -167l-144 40v574l195 -37h907v-160l-577 -542h337l82 188l144 -41v-594l-195 37h-907z" />
    <glyph glyph-name="braceleft" unicode="{" horiz-adv-x="1015" 
d="M379 84v262q0 150 -50 230t-141 79h-106v205h106q90 0 141 80q50 80 50 229v263q0 162 117 300t307 218l90 -162q-104 -47 -105 -227v-293q0 -160 -110 -297t-272 -211q162 -74 272 -211t110 -297v-297q1 -180 105 -227l-90 -162q-190 80 -307 218t-117 300z" />
    <glyph glyph-name="bar" unicode="|" horiz-adv-x="763" 
d="M489 -410h-215v2429h215v-2429z" />
    <glyph glyph-name="braceright" unicode="}" horiz-adv-x="1015" 
d="M637 1440v-262q0 -150 50 -230t140 -80h107v-204h-107q-90 0 -140 -80t-50 -230v-262q0 -162 -117 -300t-307 -218l-90 162q104 47 104 227v293q0 160 111 297t272 211q-162 74 -272 211t-111 297v297q0 180 -104 227l90 162q190 -80 307 -218t117 -300z" />
    <glyph glyph-name="asciitilde" unicode="~" horiz-adv-x="1382" 
d="M978 328q-89 0 -169 38t-181 101q-102 63 -152 89t-97 26q-93 0 -195 -138l-143 99q66 172 170 297t193 125t169 -38q79 -37 181 -101t153 -90t97 -25q93 0 194 137l143 -98q-66 -172 -170 -297t-193 -125z" />
    <glyph glyph-name="uni00A0" unicode="&#xa0;" horiz-adv-x="571" 
 />
    <glyph glyph-name="exclamdown" unicode="&#xa1;" horiz-adv-x="679" 
d="M618 -360l-395 -160h-160l132 1022h266l157 -717v-145zM61 868q1 80 49 137q48 58 120 93q72 34 156 34q85 0 152 -63q66 -63 66 -143t-48 -138q-48 -57 -120 -92t-139 -34q-100 0 -168 63t-68 143z" />
    <glyph glyph-name="cent" unicode="&#xa2;" horiz-adv-x="1337" 
d="M532 602q0 -132 62 -228q62 -98 191 -98q128 0 403 107l61 -139l-282 -230q-74 -20 -142 -30v-398h-215v391q-147 10 -263 83t-180 192q-65 119 -65 260t73 263t190 209t245 124v424h215v-404q100 -6 210 -28t163 -43v-418h-160q-160 219 -370 219q-60 0 -98 -62
t-38 -194z" />
    <glyph glyph-name="sterling" unicode="&#xa3;" horiz-adv-x="1476" 
d="M662 842h339l-83 -166h-267q-33 -145 -135 -266h653l82 188l142 -41v-594l-195 37h-1116v160l170 178v338h-254l84 166h170v196q0 164 102 305t257 225t277 83q122 0 260 -24t200 -52v-418h-160q-160 219 -371 219q-72 0 -114 -62t-41 -177v-295z" />
    <glyph glyph-name="currency" unicode="&#xa4;" horiz-adv-x="1814" 
d="M1245 743q0 178 -98 293t-285 115q-78 0 -146 -38q-68 -37 -106 -103q-39 -66 -39 -144q1 -178 99 -293t284 -114q78 0 146 38q68 37 106 103t39 143zM848 205q-194 0 -338 78l-283 -283l-123 121l271 270q-142 155 -142 372q0 218 193 402l-322 322l123 121l336 -336
q211 133 408 133q196 0 338 -80l282 283l123 -121l-270 -270q137 -154 137 -377h2q0 -215 -192 -396l323 -323l-123 -121l-338 338q-211 -133 -405 -133z" />
    <glyph glyph-name="yen" unicode="&#xa5;" horiz-adv-x="1787" 
d="M1106 635v-162h549l-84 -166h-465v-88l235 -57l-81 -164h-766v145l192 152v12h-567l84 166h483v37l-80 125h-487l84 166h295l-375 577l-146 66l41 164h746v-146l-133 -102l342 -520l334 456l-285 150l82 164h684v-146l-238 -186l-340 -477h445l-84 -166h-465z" />
    <glyph glyph-name="brokenbar" unicode="&#xa6;" horiz-adv-x="763" 
d="M274 -410v949h215v-949h-215zM274 1071v948h215v-948h-215z" />
    <glyph glyph-name="section" unicode="&#xa7;" horiz-adv-x="1587" 
d="M790 1450q-70 0 -132 -43q-64 -43 -107 -108t-43 -123q0 -104 50 -208t151 -257q94 -150 138 -238t44 -169t-47 -139t-162 -114q46 -16 114 -16t133 43q65 44 109 108t43 144q0 80 -50 184q-50 102 -145 248t-142 239q-46 95 -46 177t48 140t161 116q-47 16 -117 16z
M1141 1323q-49 1 -49 -103t43 -190t136 -226t143 -243t50 -215t-108 -230t-264 -200t-298 -82t-350 31q-209 31 -301 65v439h160q23 -94 56 -151q34 -56 68 -56q35 0 57 34t22 101t-41 148t-119 197t-117 186q-96 170 -96 323q1 102 103 220t250 199t288 81t346 -31t303 -66
v-438h-159q-20 102 -54 154t-69 53z" />
    <glyph glyph-name="dieresis" unicode="&#xa8;" horiz-adv-x="1218" 
d="M520 1452q0 -72 -41 -124t-102 -82q-61 -32 -132 -32t-129 58t-58 128q0 72 41 124t102 83t133 31t129 -57t57 -129zM599 1400q0 72 41 124t102 83t133 31t129 -57q56 -57 56 -129t-41 -123q-89 -113 -233 -115q-72 0 -130 58t-57 128z" />
    <glyph glyph-name="copyright" unicode="&#xa9;" horiz-adv-x="2209" 
d="M1470 836h-159q-43 84 -103 131t-114 47q-104 0 -105 -137q0 -102 42 -171t118 -69q113 0 311 65l62 -139l-179 -143q-131 -39 -313 -39q-117 0 -210 53q-93 54 -146 144t-53 206t78 226q79 110 200 174t219 64t201 -24q104 -24 151 -53v-335zM481 851q0 -165 74 -312
t224 -237q151 -89 372 -89q154 0 286 70q132 71 212 191t80 286t-74 312q-74 148 -224 237q-151 88 -372 88q-154 0 -286 -70q-132 -71 -212 -191t-80 -285zM1008 -41q-240 0 -442 103q-202 104 -312 288t-111 421q0 237 165 441t409 321q245 117 485 117t442 -104t312 -288
t110 -422q0 -236 -164 -439t-409 -321t-485 -117z" />
    <glyph glyph-name="ordfeminine" unicode="&#xaa;" horiz-adv-x="1216" 
d="M418 936q0 -61 116 -61q62 0 164 52v60h-265q-15 -24 -15 -51zM698 1112q-10 136 -195 136q-96 0 -327 -64l-53 104l239 169q96 29 230 29q216 0 336 -83.5t120 -244.5v-344l155 -54l-70 -123h-435v134l-197 -137q-35 -12 -87 -12q-178 0 -257 76t-79 193t157 221h463z
" />
    <glyph glyph-name="guillemotleft" unicode="&#xab;" horiz-adv-x="1595" 
d="M1358 326l-144 -123l-436 356l436 356l144 -122l-103 -195zM838 162l-144 -123l-633 520l633 520l144 -123l-252 -356z" />
    <glyph glyph-name="logicalnot" unicode="&#xac;" horiz-adv-x="1183" 
d="M1055 174h-166v387h-807v166h973v-553z" />
    <glyph glyph-name="softhyphen" unicode="&#xad;" horiz-adv-x="1050" 
d="M948 768v-143l-82 -105h-764v144l82 104h764z" />
    <glyph glyph-name="registered" unicode="&#xae;" horiz-adv-x="2127" 
d="M1038 1100q-16 0 -26 -8v-213q27 -10 59 -11q76 0 76 121h-2q0 47 -28 79t-79 32zM1014 418h-379v125l90 98v399l-111 47l41 144h271q90 0 160 6t126 6q58 0 128 -28q146 -59 145 -171q0 -78 -82 -150t-225 -101l223 -43l45 -148l80 -41l-41 -143h-320l-71 258
q-23 80 -80 96v-354zM1688 760q0 166 -74 312q-74 148 -224 237q-151 88 -372 88q-154 0 -286 -70q-132 -71 -212 -191t-80 -285t74 -312t224 -237q151 -89 372 -89q154 0 286 70q132 71 212 191t80 286zM968 -41q-240 0 -443 103q-203 104 -313 288t-110 421t165 441
t409 321t484 117t443 -104t313 -288t110 -422q0 -236 -166 -439q-164 -203 -408 -321t-484 -117z" />
    <glyph glyph-name="macron" unicode="&#xaf;" horiz-adv-x="1228" 
d="M113 1667h1020v-166h-1020v166z" />
    <glyph glyph-name="degree" unicode="&#xb0;" horiz-adv-x="882" 
d="M287 1511q0 -92 42 -150t105 -58q121 0 121 127q0 88 -42 147t-118 59q-108 0 -108 -125zM801 1500q0 -91 -71 -178t-176 -139q-104 -53 -198 -53t-165 40t-111 110t-39 160q0 90 71 177t176 139t199 52t164 -40t110 -108t40 -160z" />
    <glyph glyph-name="plusminus" unicode="&#xb1;" horiz-adv-x="1136" 
d="M651 561v-403h-166v403h-403v166h403v403h166v-403h404v-166h-404zM82 -51h973v-166h-973v166z" />
    <glyph glyph-name="twosuperior" unicode="&#xb2;" horiz-adv-x="1161" 
d="M86 850v143q352 230 422 313q39 46 39 79t-27 50t-67 17q-113 0 -332 -76l-49 140l225 157q80 27 201 27q209 0 335 -62t125 -165q0 -53 -98 -139t-299 -195h301l70 141l143 -41v-416l-184 27h-805z" />
    <glyph glyph-name="threesuperior" unicode="&#xb3;" horiz-adv-x="935" 
d="M514 905q0 113 -219 176v115q151 80 149 186q-2 107 -126 107q-60 0 -240 -74l-49 117l225 158q51 12 137 12q85 0 189 -31t164 -83t61 -115q-15 -138 -276 -259q179 -45 263 -102t82 -139q0 -154 -190 -274t-608 -226l-41 148q195 55 296 96t142 84t41 104z" />
    <glyph glyph-name="acute" unicode="&#xb4;" horiz-adv-x="778" 
d="M840 1657l-578 -295l-139 63l219 402l438 -39z" />
    <glyph glyph-name="uni00B5" unicode="&#xb5;" horiz-adv-x="1445" 
d="M856 -20v174l-199 -160q-47 -12 -88 -14v-109q-2 -53 32 -122t87 -128l-369 -141h-159v1261q0 55 -33 123t-86 127l369 142h159v-656q0 -88 26 -125q25 -37 101 -37t160 43v383q0 55 -33 123t-86 127l369 142h160v-762q-1 -55 32 -123t86 -127l-368 -141h-160z" />
    <glyph glyph-name="paragraph" unicode="&#xb6;" horiz-adv-x="1753" 
d="M1262 -522v2130h409v-146l-194 -170v-1587l235 -63l-82 -164h-368zM635 1630q82 0 164 -10q139 -10 209 -10h112v-2130h-407v145l192 168v819l-416 -18q-139 0 -245 63t-165 174t-59 252t96 269t242 202q145 76 277 76z" />
    <glyph glyph-name="periodcentered" unicode="&#xb7;" horiz-adv-x="665" 
d="M280 317q-84 -1 -151 63q-68 64 -68 144q1 80 49 136q48 58 120 94t139 34q102 0 169 -63q66 -63 66 -143t-48 -138q-48 -57 -120 -92t-156 -35z" />
    <glyph glyph-name="cedilla" unicode="&#xb8;" horiz-adv-x="1228" 
d="M905 -336q0 -94 -117 -144t-358 -61v146q59 20 84 44q25 23 25 61t-24 69t-89 76q143 121 242 211q98 90 186 194l152 -88q-57 -78 -125 -144t-166 -149q110 -59 150 -106t40 -109z" />
    <glyph glyph-name="onesuperior" unicode="&#xb9;" horiz-adv-x="874" 
d="M115 852v123l159 108v428l-192 41l65 136h613v-123l-158 -109v-430l191 -39l-66 -135h-612z" />
    <glyph glyph-name="ordmasculine" unicode="&#xba;" horiz-adv-x="1267" 
d="M670 827q117 -1 117 197q0 104 -51.5 180.5t-143.5 76.5q-117 0 -117 -180q0 -120 51.5 -197t143.5 -77zM1163 1076q0 -118 -92.5 -224t-231.5 -168t-272.5 -62t-240.5 53t-167 145.5t-60 211t92.5 224.5t231.5 168t272.5 62t240.5 -53t167 -146t60 -211z" />
    <glyph glyph-name="guillemotright" unicode="&#xbb;" horiz-adv-x="1595" 
d="M381 201l-143 123l102 194l-102 273l143 122l436 -356zM901 37l-143 123l252 356l-252 438l143 123l633 -520z" />
    <glyph glyph-name="onequarter" unicode="&#xbc;" horiz-adv-x="2187" 
d="M115 852v123l159 108v428l-192 41l65 136h613v-123l-158 -109v-430l191 -39l-66 -135h-612zM561 -412l-141 74l1272 2394l143 -71zM1640 55v332l-317 -332h317zM1968 -123v-260l-328 -86v346h-606v121l606 633l328 84v-660h250l-57 -178h-193z" />
    <glyph glyph-name="onehalf" unicode="&#xbd;" horiz-adv-x="2482" 
d="M115 852v123l159 108v428l-192 41l65 136h613v-123l-158 -109v-430l191 -39l-66 -135h-612zM561 -412l-141 74l1272 2394l143 -71zM1407 -162v144q354 231 422 312q39 46 39 79t-27 50t-67 17q-113 0 -332 -75l-49 139l225 158q80 27 201 26q209 0 335 -62t125 -165
q0 -53 -98 -139t-299 -195h301l70 141l143 -41v-415l-184 26h-805z" />
    <glyph glyph-name="threequarters" unicode="&#xbe;" horiz-adv-x="2248" 
d="M514 905q0 113 -219 176v115q151 80 149 186q-2 107 -126 107q-60 0 -240 -74l-49 117l225 158q51 12 137 12q85 0 189 -31t164 -83t61 -115q-15 -138 -276 -259q179 -45 263 -102t82 -139q0 -154 -190 -274t-608 -226l-41 148q195 55 296 96t142 84t41 104zM623 -412
l-142 74l1272 2394l143 -71zM1702 55v332l-318 -332h318zM2030 -123v-260l-328 -86v346h-606v121l606 633l328 84v-660h249l-57 -178h-192z" />
    <glyph glyph-name="questiondown" unicode="&#xbf;" horiz-adv-x="946" 
d="M422 -84q0 -28 33 -62q33 -32 81 -55t93 -22q102 0 276 63l62 -139l-281 -225q-265 -46 -449 36q-120 52 -199 128t-79 140t54 118q55 54 139 111q84 58 116 87t33 56q0 41 -127 75v146l289 190q131 -60 206 -119q75 -60 75 -128t-50 -123q-49 -55 -129 -119
q-79 -64 -111 -96q-32 -34 -32 -62zM673 1069q67 -63 67 -143t-49 -138q-48 -57 -120 -92t-139 -34q-100 0 -168 63t-68 143t49 137q48 58 120 93q73 34 157 34t151 -63z" />
    <glyph glyph-name="Agrave" unicode="&#xc0;" horiz-adv-x="1931" 
d="M858 1274l-219 -549h442zM1022 0v145l244 127l-105 258h-598l-84 -208l287 -158l-82 -164h-684v145l240 179l491 1220l438 105l570 -1389l213 -96l-82 -164h-848zM1020 1860l-578 294l60 132l438 38l219 -401z" />
    <glyph glyph-name="Aacute" unicode="&#xc1;" horiz-adv-x="1931" 
d="M858 1274l-219 -549h442zM1022 0v145l244 127l-105 258h-598l-84 -208l287 -158l-82 -164h-684v145l240 179l491 1220l438 105l570 -1389l213 -96l-82 -164h-848zM1464 2154l-577 -294l-139 63l219 401l438 -38z" />
    <glyph glyph-name="Acircumflex" unicode="&#xc2;" horiz-adv-x="1931" 
d="M858 1274l-219 -549h442zM1022 0v145l244 127l-105 258h-598l-84 -208l287 -158l-82 -164h-684v145l240 179l491 1220l438 105l570 -1389l213 -96l-82 -164h-848zM1454 1890l-438 -39l-125 232l-383 -236l-90 150l518 319l577 -295z" />
    <glyph glyph-name="Atilde" unicode="&#xc3;" horiz-adv-x="1931" 
d="M858 1274l-219 -549h442zM1022 0v145l244 127l-105 258h-598l-84 -208l287 -158l-82 -164h-684v145l240 179l491 1220l438 105l570 -1389l213 -96l-82 -164h-848zM1187 2183q40 0 79 25l125 78l90 -150l-516 -317q-102 104 -158.5 145t-93.5 41t-84 -27l-123 -75l-90 149
l516 318q102 -103 158.5 -145t96.5 -42z" />
    <glyph glyph-name="Adieresis" unicode="&#xc4;" horiz-adv-x="1931" 
d="M858 1274l-219 -549h442zM1022 0v145l244 127l-105 258h-598l-84 -208l287 -158l-82 -164h-684v145l240 179l491 1220l438 105l570 -1389l213 -96l-82 -164h-848zM1087 2033.5q0 75.5 43.5 131t108 88.5t141 33t136 -61.5t59.5 -136t-43 -129t-107.5 -87.5t-140.5 -33
t-136.5 59.5t-60.5 135zM330 2033.5q0 75.5 43 131t107.5 88.5t141 33t136 -61.5t59.5 -136t-43 -129t-107.5 -87.5t-140 -33t-136 59.5t-60.5 135z" />
    <glyph glyph-name="Aring" unicode="&#xc5;" horiz-adv-x="1931" 
d="M858 1274l-219 -549h442zM1022 0v145l244 127l-105 258h-598l-84 -208l287 -158l-82 -164h-684v145l240 179l491 1220l438 105l570 -1389l213 -96l-82 -164h-848zM909.5 2175q-71.5 0 -71.5 -63.5t42 -105.5t113.5 -42t71.5 64.5t-42 105.5t-113.5 41zM1331 2098
q0 -69 -70.5 -136.5t-176 -108.5t-198.5 -41t-164 30t-111 80t-40 119t71 136.5t176.5 108.5t199.5 41t163.5 -30t109.5 -80t40 -119z" />
    <glyph glyph-name="AE" unicode="&#xc6;" horiz-adv-x="2316" 
d="M981 920v481l-213 -481h213zM788 0v145l193 152v428h-297l-190 -434l188 -127l-82 -164h-602v145l252 187l467 1044l-252 70l82 164h1476l170 37v-553l-143 -62l-258 383h-367v-495h117l150 210h145v-581l-164 -82l-137 258h-111v-530h349l297 423l143 -61l-4 -594
l-170 37h-1252z" />
    <glyph glyph-name="Ccedilla" unicode="&#xc7;" horiz-adv-x="1734" 
d="M946 1376q-100 0 -183 -66.5t-131 -183t-48 -269.5t49 -287t149.5 -214t247.5 -80q195 0 549 173l94 -152l-377 -293l-2 -2q-84 -25 -178 -35q-33 -31 -102 -88q111 -59 150.5 -106t39.5 -109q0 -94 -116.5 -144t-358.5 -61v146q59 20 84 43.5t25 61.5t-23.5 69t-89.5 76
q86 70 127 106q-223 14 -393 120.5t-263.5 285t-93.5 410t153 435t379 321.5t431 118q127 0 295 -31t246 -66v-458h-263q-147 280 -397 280z" />
    <glyph glyph-name="Egrave" unicode="&#xc8;" horiz-adv-x="1687" 
d="M82 0v145l192 152v1085l-233 64l82 164h1272l170 37v-553l-144 -62l-258 383h-448v-495h198l150 210h145v-581l-164 -82l-137 258h-192v-530h430l297 423l143 -61v-594l-170 37h-1333zM942 1860l-577 294l59 132l438 38l219 -401z" />
    <glyph glyph-name="Eacute" unicode="&#xc9;" horiz-adv-x="1687" 
d="M82 0v145l192 152v1085l-233 64l82 164h1272l170 37v-553l-144 -62l-258 383h-448v-495h198l150 210h145v-581l-164 -82l-137 258h-192v-530h430l297 423l143 -61v-594l-170 37h-1333zM1386 2154l-577 -294l-139 63l219 401l438 -38z" />
    <glyph glyph-name="Ecircumflex" unicode="&#xca;" horiz-adv-x="1687" 
d="M82 0v145l192 152v1085l-233 64l82 164h1272l170 37v-553l-144 -62l-258 383h-448v-495h198l150 210h145v-581l-164 -82l-137 258h-192v-530h430l297 423l143 -61v-594l-170 37h-1333zM1376 1890l-438 -39l-125 232l-383 -236l-90 150l518 319l578 -295z" />
    <glyph glyph-name="Edieresis" unicode="&#xcb;" horiz-adv-x="1687" 
d="M82 0v145l192 152v1085l-233 64l82 164h1272l170 37v-553l-144 -62l-258 383h-448v-495h198l150 210h145v-581l-164 -82l-137 258h-192v-530h430l297 423l143 -61v-594l-170 37h-1333zM1010 2033.5q0 75.5 43 131t107.5 88.5t141 33t136 -61.5t59.5 -136t-43 -129
t-107.5 -87.5t-140.5 -33t-136 59.5t-60 135zM252 2033.5q0 75.5 43 131t107.5 88.5t141 33t136 -61.5t59.5 -136t-43 -129t-107.5 -87.5t-140 -33t-136 59.5t-60.5 135z" />
    <glyph glyph-name="Igrave" unicode="&#xcc;" horiz-adv-x="991" 
d="M82 0v145l192 168v1069l-233 62l82 164h786v-146l-194 -170v-1067l235 -61l-82 -164h-786zM563 1860l-577 294l59 132l438 38l219 -401z" />
    <glyph glyph-name="Iacute" unicode="&#xcd;" horiz-adv-x="991" 
d="M82 0v145l192 168v1069l-233 62l82 164h786v-146l-194 -170v-1067l235 -61l-82 -164h-786zM1008 2154l-578 -294l-139 63l219 401l438 -38z" />
    <glyph glyph-name="Icircumflex" unicode="&#xce;" horiz-adv-x="991" 
d="M82 0v145l192 168v1069l-233 62l82 164h786v-146l-194 -170v-1067l235 -61l-82 -164h-786zM997 1890l-438 -39l-125 232l-383 -236l-90 150l518 319l578 -295z" />
    <glyph glyph-name="Idieresis" unicode="&#xcf;" horiz-adv-x="991" 
d="M82 2v145l192 168v1069l-233 62l82 164h786v-146l-194 -170v-1067l235 -61l-82 -164h-786zM1049 2087.5q0 -71.5 -41 -124t-102.5 -83.5t-133.5 -31t-128 56.5t-56 128t41 124t101.5 84t133 31.5t129 -57t56.5 -128.5zM137.5 1849q-71.5 0 -128 56.5t-56.5 128t41 124
t101.5 84t133 31.5t129 -57t56.5 -129t-41 -124t-102.5 -83t-133 -31z" />
    <glyph glyph-name="Eth" unicode="&#xd0;" horiz-adv-x="1923" 
d="M1339 758.5q0 170.5 -54 323.5t-165.5 244t-275.5 91q-68 0 -127 -35v-493h387v-195h-387v-469q88 -33 201.5 -32.5t211 72t153.5 197.5t56 296.5zM1821 837q0 -230 -152.5 -428t-379 -313.5t-431.5 -115.5q-90 0 -182 10q-147 10 -232 10h-362v145l192 152v397h-274v195
h274v487l-233 70l82 164h319q186 0 342 10t220 10q241 0 426.5 -101.5t288 -281.5t102.5 -410z" />
    <glyph glyph-name="Ntilde" unicode="&#xd1;" horiz-adv-x="1871" 
d="M1657 2h-215l-953 1014v-742l338 -110l-82 -164h-663v145l192 168v1000l-233 133l82 164h391l928 -985v712l-336 109l82 164h663v-144l-194 -170v-1294zM1181 2183q40 0 79 25l124 78l91 -150l-517 -317q-102 104 -158.5 145t-93.5 41t-83 -27l-123 -75l-90 149l516 318
q102 -103 158.5 -145t96.5 -42z" />
    <glyph glyph-name="Ograve" unicode="&#xd2;" horiz-adv-x="2004" 
d="M584 851q0 -159 51 -302t156.5 -229.5t257.5 -86.5q102 0 187 67t135 183.5t50 276t-51 303t-155.5 228.5t-258.5 85q-102 0 -187 -66.5t-135 -183t-50 -275.5zM1903 836.5q0 -236.5 -155 -439t-384 -320.5t-454.5 -118t-413 103.5t-291 288t-103.5 421t155 440
t384 321.5t454.5 118t414 -104.5t291 -289t102.5 -421zM1071 1860l-577 294l59 132l438 38l219 -401z" />
    <glyph glyph-name="Oacute" unicode="&#xd3;" horiz-adv-x="2004" 
d="M584 851q0 -159 51 -302t156.5 -229.5t257.5 -86.5q102 0 187 67t135 183.5t50 276t-51 303t-155.5 228.5t-258.5 85q-102 0 -187 -66.5t-135 -183t-50 -275.5zM1903 836.5q0 -236.5 -155 -439t-384 -320.5t-454.5 -118t-413 103.5t-291 288t-103.5 421t155 440
t384 321.5t454.5 118t414 -104.5t291 -289t102.5 -421zM1516 2154l-578 -294l-139 63l219 401l438 -38z" />
    <glyph glyph-name="Ocircumflex" unicode="&#xd4;" horiz-adv-x="2004" 
d="M584 851q0 -159 51 -302t156.5 -229.5t257.5 -86.5q102 0 187 67t135 183.5t50 276t-51 303t-155.5 228.5t-258.5 85q-102 0 -187 -66.5t-135 -183t-50 -275.5zM1903 836.5q0 -236.5 -155 -439t-384 -320.5t-454.5 -118t-413 103.5t-291 288t-103.5 421t155 440
t384 321.5t454.5 118t414 -104.5t291 -289t102.5 -421zM1505 1890l-438 -39l-125 232l-383 -236l-90 150l518 319l578 -295z" />
    <glyph glyph-name="Otilde" unicode="&#xd5;" horiz-adv-x="2004" 
d="M584 851q0 -159 51 -302t156.5 -229.5t257.5 -86.5q102 0 187 67t135 183.5t50 276t-51 303t-155.5 228.5t-258.5 85q-102 0 -187 -66.5t-135 -183t-50 -275.5zM1903 836.5q0 -236.5 -155 -439t-384 -320.5t-454.5 -118t-413 103.5t-291 288t-103.5 421t155 440
t384 321.5t454.5 118t414 -104.5t291 -289t102.5 -421zM1238 2183q40 0 79 25l125 78l90 -150l-516 -317q-102 104 -158.5 145t-93.5 41t-84 -27l-123 -75l-90 149l516 318q102 -103 158.5 -145t96.5 -42z" />
    <glyph glyph-name="Odieresis" unicode="&#xd6;" horiz-adv-x="2004" 
d="M584 851q0 -159 51 -302t156.5 -229.5t257.5 -86.5q102 0 187 67t135 183.5t50 276t-51 303t-155.5 228.5t-258.5 85q-102 0 -187 -66.5t-135 -183t-50 -275.5zM1903 836.5q0 -236.5 -155 -439t-384 -320.5t-454.5 -118t-413 103.5t-291 288t-103.5 421t155 440
t384 321.5t454.5 118t414 -104.5t291 -289t102.5 -421zM1626 2088.5q0 -74.5 -43 -129t-107.5 -87.5t-140 -33t-136 59.5t-60.5 135t43 131t107.5 88.5t141 33t136 -61.5t59.5 -136zM868 2088.5q0 -74.5 -43 -129t-107.5 -87.5t-140 -33t-136 59.5t-60.5 135t43 131
t107.5 88.5t141.5 33t136 -61.5t59 -136z" />
    <glyph glyph-name="multiply" unicode="&#xd7;" horiz-adv-x="1103" 
d="M1022 291l-119 -119l-352 352l-352 -352l-119 119l352 352l-352 352l119 119l352 -352l352 352l119 -119l-352 -352z" />
    <glyph glyph-name="Oslash" unicode="&#xd8;" horiz-adv-x="2004" 
d="M1425 728q0 273 -106 441l-502 -870q100 -68 234 -68l2 -4q102 0 187 66.5t135 183.5t50 251zM584 864h2q0 -264 106 -432l504 873q-100 70 -221 69.5t-206 -67t-135 -183t-50 -260.5zM1903 834.5q0 -234.5 -155 -437t-384 -320.5t-434 -118q-156 0 -289 43l-190 -330
l-150 86l180 314q-180 104 -279.5 285.5t-99.5 416t155 438t384 321.5t412.5 118t314.5 -43l188 327l150 -86l-180 -311v-2q178 -102 277.5 -284.5t99.5 -417z" />
    <glyph glyph-name="Ugrave" unicode="&#xd9;" horiz-adv-x="1839" 
d="M1624 635q0 -215 -109.5 -368.5t-271.5 -230.5t-342 -77t-343 81t-254 223.5t-91 320.5v807l-233 55l81 164h787v-146l-195 -151v-672q0 -193 102.5 -300.5t311.5 -107.5q80 0 159 46.5t131 134.5t52 207v739l-254 86l82 164h582v-146l-195 -151v-678zM1014 1860
l-578 294l60 132l438 38l219 -401z" />
    <glyph glyph-name="Uacute" unicode="&#xda;" horiz-adv-x="1839" 
d="M1624 635q0 -215 -109.5 -368.5t-271.5 -230.5t-342 -77t-343 81t-254 223.5t-91 320.5v807l-233 55l81 164h787v-146l-195 -151v-672q0 -193 102.5 -300.5t311.5 -107.5q80 0 159 46.5t131 134.5t52 207v739l-254 86l82 164h582v-146l-195 -151v-678zM1458 2154
l-577 -294l-140 63l220 401l438 -38z" />
    <glyph glyph-name="Ucircumflex" unicode="&#xdb;" horiz-adv-x="1839" 
d="M1624 635q0 -215 -109.5 -368.5t-271.5 -230.5t-342 -77t-343 81t-254 223.5t-91 320.5v807l-233 55l81 164h787v-146l-195 -151v-672q0 -193 102.5 -300.5t311.5 -107.5q80 0 159 46.5t131 134.5t52 207v739l-254 86l82 164h582v-146l-195 -151v-678zM1448 1890
l-438 -39l-125 232l-383 -236l-90 150l518 319l577 -295z" />
    <glyph glyph-name="Udieresis" unicode="&#xdc;" horiz-adv-x="1839" 
d="M1624 635q0 -215 -109.5 -368.5t-271.5 -230.5t-342 -77t-343 81t-254 223.5t-91 320.5v807l-233 55l81 164h787v-146l-195 -151v-672q0 -193 102.5 -300.5t311.5 -107.5q80 0 159 46.5t131 134.5t52 207v739l-254 86l82 164h582v-146l-195 -151v-678zM1081 2033.5
q0 75.5 43 131t107.5 88.5t141.5 33t136.5 -61.5t59.5 -136t-43 -129t-107.5 -87.5t-140.5 -33t-136.5 59.5t-60.5 135zM324 2033.5q0 75.5 43 131t107.5 88.5t141 33t136 -61.5t59.5 -136t-43 -129t-107.5 -87.5t-140.5 -33t-136 59.5t-60 135z" />
    <glyph glyph-name="Yacute" unicode="&#xdd;" horiz-adv-x="1787" 
d="M494 -4v145l192 152v217l-563 868l-146 66l41 164h746v-146l-133 -102l342 -520l334 456l-285 150l82 164h684v-146l-234 -184l-448 -627v-436l235 -57l-81 -164h-766zM1417 2154l-577 -294l-140 63l220 401l438 -38z" />
    <glyph glyph-name="Thorn" unicode="&#xde;" horiz-adv-x="1595" 
d="M1575 832q0 -118 -112 -230q-113 -114 -281 -178t-326 -55l-86 49l82 164h82q74 0 116 53t42 154t-60 170t-154 69q-96 0 -165 -47v-754l235 -61l-82 -164h-786v145l192 168v1069l-233 62l82 164h786v-146l-194 -170v-69l331 16q156 0 277 -53q121 -54 187 -146t67 -210z
" />
    <glyph glyph-name="germandbls" unicode="&#xdf;" horiz-adv-x="1718" 
d="M852 1554q-150 0 -150 -247v-1307h-591v145l182 144v596h-242v166h242v157q0 158 113 296q114 138 282 221t324 83q82 0 196 -52t196 -132q83 -80 83 -157t-38 -135q-37 -58 -105 -129t-99 -116t-31 -109t50 -119q50 -56 160 -142t172 -161t62 -168t-77 -187
q-77 -93 -191 -157t-204 -64t-209 17t-168 38v377h160q41 -88 103 -138t108 -49q82 0 84 58q0 33 -38 69t-142 118q-104 81 -179 163q-74 82 -74 169t30 142q30 56 83 124t77 110q47 83 -5 212q-29 68 -74 116t-90 48z" />
    <glyph glyph-name="agrave" unicode="&#xe0;" horiz-adv-x="1415" 
d="M479 397.5q0 -35.5 31.5 -57.5t105.5 -22.5t193 69.5v80h-311q-19 -34 -19 -69.5zM80 326q0 168 184 307h545q-6 90 -61.5 136t-139.5 46q-141 0 -413 -86l-62 139l281 226q113 39 270 39q254 0 395.5 -112t141.5 -327v-458l182 -72l-82 -164h-512v178l-231 -182
q-41 -16 -103 -16q-209 0 -302 101t-93 245zM733 1362l-577 295l59 131l438 39l219 -402z" />
    <glyph glyph-name="aacute" unicode="&#xe1;" horiz-adv-x="1415" 
d="M479 397.5q0 -35.5 31.5 -57.5t105.5 -22.5t193 69.5v80h-311q-19 -34 -19 -69.5zM80 326q0 168 184 307h545q-6 90 -61.5 136t-139.5 46q-141 0 -413 -86l-62 139l281 226q113 39 270 39q254 0 395.5 -112t141.5 -327v-458l182 -72l-82 -164h-512v178l-231 -182
q-41 -16 -103 -16q-209 0 -302 101t-93 245zM1178 1657l-578 -295l-139 63l219 402l438 -39z" />
    <glyph glyph-name="acircumflex" unicode="&#xe2;" horiz-adv-x="1415" 
d="M479 397.5q0 -35.5 31.5 -57.5t105.5 -22.5t193 69.5v80h-311q-19 -34 -19 -69.5zM80 326q0 168 184 307h545q-6 90 -61.5 136t-139.5 46q-141 0 -413 -86l-62 139l281 226q113 39 270 39q254 0 395.5 -112t141.5 -327v-458l182 -72l-82 -164h-512v178l-231 -182
q-41 -16 -103 -16q-209 0 -302 101t-93 245zM1167 1393l-438 -39l-125 231l-383 -235l-90 149l518 320l578 -295z" />
    <glyph glyph-name="atilde" unicode="&#xe3;" horiz-adv-x="1415" 
d="M479 397.5q0 -35.5 31.5 -57.5t105.5 -22.5t193 69.5v80h-311q-19 -34 -19 -69.5zM80 326q0 168 184 307h545q-6 90 -61.5 136t-139.5 46q-141 0 -413 -86l-62 139l281 226q113 39 270 39q254 0 395.5 -112t141.5 -327v-458l182 -72l-82 -164h-512v178l-231 -182
q-41 -16 -103 -16q-209 0 -302 101t-93 245zM900 1686q40 0 79 24l125 78l90 -150l-516 -317q-102 104 -158.5 145t-93.5 41t-84 -26l-123 -76l-90 149l516 318q103 -103 159 -144.5t96 -41.5z" />
    <glyph glyph-name="adieresis" unicode="&#xe4;" horiz-adv-x="1415" 
d="M479 397.5q0 -35.5 31.5 -57.5t105.5 -22.5t193 69.5v80h-311q-19 -34 -19 -69.5zM80 326q0 168 184 307h545q-6 90 -61.5 136t-139.5 46q-141 0 -413 -86l-62 139l281 226q113 39 270 39q254 0 395.5 -112t141.5 -327v-458l182 -72l-82 -164h-512v178l-231 -182
q-41 -16 -103 -16q-209 0 -302 101t-93 245zM758 1535.5q0 71.5 41 124t101.5 84.5t133 32t129 -57.5t56.5 -129t-41 -124t-102.5 -83t-133.5 -30.5t-128 56t-56 127.5zM123 1535.5q0 71.5 41 124t101.5 84.5t133 32t129 -57.5t56.5 -129t-41 -124t-102.5 -83t-133 -30.5
t-128 56t-56.5 127.5z" />
    <glyph glyph-name="aring" unicode="&#xe5;" horiz-adv-x="1415" 
d="M479 397.5q0 -35.5 31.5 -57.5t105.5 -22.5t193 69.5v80h-311q-19 -34 -19 -69.5zM80 326q0 168 184 307h545q-6 90 -61.5 136t-139.5 46q-141 0 -413 -86l-62 139l281 226q113 39 270 39q254 0 395.5 -112t141.5 -327v-458l182 -72l-82 -164h-512v178l-231 -182
q-41 -16 -103 -16q-209 0 -302 101t-93 245zM622.5 1677q-71.5 0 -71.5 -63t42 -105.5t114 -42.5t71 66q0 63 -42 104t-113.5 41zM1044 1600.5q0 -68.5 -70.5 -136t-176 -108.5t-198.5 -41t-163.5 29.5t-110.5 80t-40 119t70.5 136t176 108.5t199.5 41t164 -30t109.5 -80
t39.5 -118.5z" />
    <glyph glyph-name="ae" unicode="&#xe6;" horiz-adv-x="1978" 
d="M479 385q0 -45 38 -78t106 -33l-2 -2q80 0 182 35q-29 78 -35 158h-270q-19 -35 -19 -80zM1315 856h-2q-129 0 -135 -213h299q-11 109 -49 161t-113 52zM82 326q0 168 184 307h504q-6 90 -56 136t-126 46q-135 0 -393 -86l-62 139l281 226q102 39 250 39q258 0 387 -132
q190 132 374 132v-3q219 1 338 -169t113 -484h-684q23 -94 75 -148t132 -55q139 0 413 107l62 -139l-281 -226q-131 -39 -281 -39q-274 0 -423 183l-207 -164q-82 -16 -205 -16q-209 0 -302 101t-93 245z" />
    <glyph glyph-name="ccedilla" unicode="&#xe7;" horiz-adv-x="1337" 
d="M666 858q-61 0 -98.5 -62.5t-37.5 -193.5t62.5 -228.5t190.5 -97.5t403 107l61 -139l-246 -199q-57 -59 -180 -166h-2q111 -59 151 -106t40 -109q0 -94 -117 -144t-358 -61v146q59 20 83.5 43.5t24.5 61.5t-23.5 69t-89.5 76q98 82 148 125h-25q-160 0 -285.5 70.5
t-196.5 194.5t-71 281.5t102.5 299t257 224.5t277.5 83t260.5 -24t198.5 -52v-418h-160q-160 219 -370 219z" />
    <glyph glyph-name="egrave" unicode="&#xe8;" horiz-adv-x="1374" 
d="M694.5 858q-80.5 0 -119 -52t-43.5 -161h338q-10 109 -52.5 161t-123 52zM774 276q145 0 434 107l62 -139l-281 -226q-139 -39 -316.5 -38.5t-303 71t-196.5 194.5t-71 281.5t108.5 299t272 224t316.5 83.5q227 0 352 -170t119 -484h-723q25 -94 82 -148.5t145 -54.5z
M768 1362l-578 295l60 131l438 39l219 -402z" />
    <glyph glyph-name="eacute" unicode="&#xe9;" horiz-adv-x="1374" 
d="M694.5 858q-80.5 0 -119 -52t-43.5 -161h338q-10 109 -52.5 161t-123 52zM774 276q145 0 434 107l62 -139l-281 -226q-139 -39 -316.5 -38.5t-303 71t-196.5 194.5t-71 281.5t108.5 299t272 224t316.5 83.5q227 0 352 -170t119 -484h-723q25 -94 82 -148.5t145 -54.5z
M1212 1657l-577 -295l-139 63l219 402l438 -39z" />
    <glyph glyph-name="ecircumflex" unicode="&#xea;" horiz-adv-x="1374" 
d="M694.5 858q-80.5 0 -119 -52t-43.5 -161h338q-10 109 -52.5 161t-123 52zM774 276q145 0 434 107l62 -139l-281 -226q-139 -39 -316.5 -38.5t-303 71t-196.5 194.5t-71 281.5t108.5 299t272 224t316.5 83.5q227 0 352 -170t119 -484h-723q25 -94 82 -148.5t145 -54.5z
M1202 1393l-438 -39l-125 231l-383 -235l-90 149l518 320l578 -295z" />
    <glyph glyph-name="edieresis" unicode="&#xeb;" horiz-adv-x="1374" 
d="M694.5 858q-80.5 0 -119 -52t-43.5 -161h338q-10 109 -52.5 161t-123 52zM774 276q145 0 434 107l62 -139l-281 -226q-139 -39 -316.5 -38.5t-303 71t-196.5 194.5t-71 281.5t108.5 299t272 224t316.5 83.5q227 0 352 -170t119 -484h-723q25 -94 82 -148.5t145 -54.5z
M793 1535.5q0 71.5 40.5 124t101 84.5t133.5 32t129 -57.5t56 -129t-41 -124t-102 -83t-133 -30.5t-128 56t-56 127.5zM158 1535.5q0 71.5 41 124t101 84.5t133 32t129 -57.5t56 -129t-40.5 -124t-102 -83t-133.5 -30.5t-128 56t-56 127.5z" />
    <glyph glyph-name="igrave" unicode="&#xec;" horiz-adv-x="858" 
d="M72 0v145l182 160v400l-182 118v146l432 182h160v-930l184 -57l-82 -164h-694zM498 1362l-578 295l60 131l438 39l219 -402z" />
    <glyph glyph-name="iacute" unicode="&#xed;" horiz-adv-x="858" 
d="M72 0v145l182 160v400l-182 118v146l432 182h160v-930l184 -57l-82 -164h-694zM942 1657l-577 -295l-140 63l219 402l439 -39z" />
    <glyph glyph-name="icircumflex" unicode="&#xee;" horiz-adv-x="858" 
d="M72 0v145l182 160v400l-182 118v146l432 182h160v-930l184 -57l-82 -164h-694zM932 1393l-438 -39l-125 231l-383 -235l-90 149l518 320l577 -295z" />
    <glyph glyph-name="idieresis" unicode="&#xef;" horiz-adv-x="858" 
d="M72 0v145l182 160v400l-182 118v146l432 182h160v-930l184 -57l-82 -164h-694zM983 1589.5q0 -71.5 -41 -124t-102.5 -83t-133 -30.5t-128 56t-56.5 127.5t41 124t101.5 84.5t133 32t129 -57.5t56.5 -129zM71.5 1352q-71.5 0 -128 56t-56.5 127.5t41 124t101.5 84.5
t133 32t129 -57.5t56.5 -129t-41 -124t-102.5 -83t-133 -30.5z" />
    <glyph glyph-name="eth" unicode="&#xf0;" horiz-adv-x="1374" 
d="M637 860q-150 0 -150 -239q0 -169 66 -267t176 -98v-2q84 0 122 78t38 238t-37 290h-215zM626 -18q-174 0 -302 70t-203 194q-74 123 -74 270q0 146 98 286t256 231t324 100q-80 113 -190 202l-418 -223l-39 76l379 203q-180 121 -414 176v145l406 96q201 -82 380 -219
l412 219l41 -75l-381 -203l-4 2q203 -176 320 -394t117 -420t-101 -368q-100 -168 -267 -268q-166 -100 -340 -100z" />
    <glyph glyph-name="ntilde" unicode="&#xf1;" horiz-adv-x="1554" 
d="M950 2v633q0 88 -25.5 125t-101 37t-159.5 -43v-533l184 -57l-82 -164h-694v145l182 160v400l-182 118v146l473 182l86 -221l231 186q55 16 133 17q168 0 266.5 -85t98.5 -231v-596l184 -55l-82 -164h-512zM992 1686q40 0 79 24l125 78l90 -150l-516 -317
q-102 104 -158.5 145t-93.5 41t-84 -26l-123 -76l-90 149l516 318q103 -103 159 -144.5t96 -41.5z" />
    <glyph glyph-name="ograve" unicode="&#xf2;" horiz-adv-x="1456" 
d="M774 254q137 0 137 262q0 140 -60 241t-169 101q-137 0 -137 -240q0 -160 60.5 -262t168.5 -102zM1354 585.5q0 -157.5 -108.5 -299t-272.5 -224t-321 -82.5t-282.5 70.5t-196.5 194.5t-71 281.5t108.5 299t272.5 224.5t321 83t282.5 -71t196.5 -195t71 -281.5zM797 1362
l-578 295l60 131l438 39l219 -402z" />
    <glyph glyph-name="oacute" unicode="&#xf3;" horiz-adv-x="1456" 
d="M774 254q137 0 137 262q0 140 -60 241t-169 101q-137 0 -137 -240q0 -160 60.5 -262t168.5 -102zM1354 585.5q0 -157.5 -108.5 -299t-272.5 -224t-321 -82.5t-282.5 70.5t-196.5 194.5t-71 281.5t108.5 299t272.5 224.5t321 83t282.5 -71t196.5 -195t71 -281.5z
M1241 1657l-577 -295l-140 63l219 402l439 -39z" />
    <glyph glyph-name="ocircumflex" unicode="&#xf4;" horiz-adv-x="1456" 
d="M774 254q137 0 137 262q0 140 -60 241t-169 101q-137 0 -137 -240q0 -160 60.5 -262t168.5 -102zM1354 585.5q0 -157.5 -108.5 -299t-272.5 -224t-321 -82.5t-282.5 70.5t-196.5 194.5t-71 281.5t108.5 299t272.5 224.5t321 83t282.5 -71t196.5 -195t71 -281.5z
M1231 1393l-438 -39l-125 231l-383 -235l-90 149l518 320l577 -295z" />
    <glyph glyph-name="otilde" unicode="&#xf5;" horiz-adv-x="1456" 
d="M774 254q137 0 137 262q0 140 -60 241t-169 101q-137 0 -137 -240q0 -160 60.5 -262t168.5 -102zM1354 585.5q0 -157.5 -108.5 -299t-272.5 -224t-321 -82.5t-282.5 70.5t-196.5 194.5t-71 281.5t108.5 299t272.5 224.5t321 83t282.5 -71t196.5 -195t71 -281.5zM964 1686
q40 0 78 24l125 78l90 -150l-516 -317q-102 104 -158.5 145t-93.5 41t-83 -26l-123 -76l-90 149l516 318q102 -103 158.5 -144.5t96.5 -41.5z" />
    <glyph glyph-name="odieresis" unicode="&#xf6;" horiz-adv-x="1456" 
d="M774 254q137 0 137 262q0 140 -60 241t-169 101q-137 0 -137 -240q0 -160 60.5 -262t168.5 -102zM1354 585.5q0 -157.5 -108.5 -299t-272.5 -224t-321 -82.5t-282.5 70.5t-196.5 194.5t-71 281.5t108.5 299t272.5 224.5t321 83t282.5 -71t196.5 -195t71 -281.5z
M1282 1589.5q0 -71.5 -41 -124t-102.5 -83t-133 -30.5t-128 56t-56.5 127.5t41 124t101.5 84.5t133 32t129 -57.5t56.5 -129zM647 1589.5q0 -71.5 -41 -124t-102.5 -83t-133 -30.5t-128 56t-56.5 127.5t41 124t101.5 84.5t133.5 32t129 -57.5t56 -129z" />
    <glyph glyph-name="divide" unicode="&#xf7;" horiz-adv-x="1136" 
d="M82 727h973v-166h-973v166zM840 244q0 -80 -48 -138q-48 -57 -120 -92q-72 -34 -156 -34t-152 63t-67 143q0 80 48 137q48 58 120 93q73 34 157 34t151 -63t67 -143zM840 1102q0 -146 -168 -230q-72 -34 -156 -34t-152 63t-67 143q0 80 48 137q48 58 120 93q73 34 157 34
t151 -63t67 -143z" />
    <glyph glyph-name="oslash" unicode="&#xf8;" horiz-adv-x="1456" 
d="M913 485.5q0 106.5 -22 186.5l-221 -383q49 -33 110.5 -33t97 61.5t35.5 168zM684 860q-137 0 -137 -239q-1 -95 22 -175l222 381q-49 33 -107 33zM1358 582.5q0 -154.5 -108.5 -296t-272.5 -224t-318 -82.5q-82 0 -155 18l-185 -317l-143 81l174 301q-115 72 -180.5 192
t-65.5 274.5t109 296t272.5 224.5t317.5 83q82 0 151 -19l185 320l143 -82l-172 -301q117 -72 182.5 -193t65.5 -275.5z" />
    <glyph glyph-name="ugrave" unicode="&#xf9;" horiz-adv-x="1495" 
d="M891 0v154l-199 -160q-55 -16 -133 -17q-168 0 -266 85t-98 231v407l-183 105v145l432 183h160v-656q0 -88 25.5 -125t101.5 -37t160 43v342l-182 105v145l432 183h159v-912l185 -57l-82 -164h-512zM836 1362l-578 295l59 131l439 39l219 -402z" />
    <glyph glyph-name="uacute" unicode="&#xfa;" horiz-adv-x="1495" 
d="M891 0v154l-199 -160q-55 -16 -133 -17q-168 0 -266 85t-98 231v407l-183 105v145l432 183h160v-656q0 -88 25.5 -125t101.5 -37t160 43v342l-182 105v145l432 183h159v-912l185 -57l-82 -164h-512zM1280 1657l-578 -295l-139 63l219 402l439 -39z" />
    <glyph glyph-name="ucircumflex" unicode="&#xfb;" horiz-adv-x="1495" 
d="M891 0v154l-199 -160q-55 -16 -133 -17q-168 0 -266 85t-98 231v407l-183 105v145l432 183h160v-656q0 -88 25.5 -125t101.5 -37t160 43v342l-182 105v145l432 183h159v-912l185 -57l-82 -164h-512zM1270 1393l-439 -39l-124 231l-383 -235l-91 149l519 320l577 -295z
" />
    <glyph glyph-name="udieresis" unicode="&#xfc;" horiz-adv-x="1495" 
d="M891 0v154l-199 -160q-55 -16 -133 -17q-168 0 -266 85t-98 231v407l-183 105v145l432 183h160v-656q0 -88 25.5 -125t101.5 -37t160 43v342l-182 105v145l432 183h159v-912l185 -57l-82 -164h-512zM860 1535.5q0 71.5 41 124t101.5 84.5t133 32t129 -57.5t56.5 -129
t-41 -124t-102.5 -83t-133 -30.5t-128 56t-56.5 127.5zM225 1535.5q0 71.5 41 124t101.5 84.5t133 32t129 -57.5t56.5 -129t-41 -124t-102.5 -83t-133 -30.5t-128 56t-56.5 127.5z" />
    <glyph glyph-name="yacute" unicode="&#xfd;" horiz-adv-x="1370" 
d="M1329 1112v-145l-530 -967l-514 -541l-160 123q143 180 203.5 310.5t74.5 289.5l-217 531l-206 121v145l514 172l77 -309l209 -504l221 414l-305 196l82 164h551zM1188 1657l-578 -295l-139 63l219 402l438 -39z" />
    <glyph glyph-name="thorn" unicode="&#xfe;" horiz-adv-x="1546" 
d="M621 455q0 -85 63 -143t178 -58q150 0 150 242q0 133 -45 217t-136 84h-2q-110 0 -208 -45v-297zM31 -520v145l182 160v1556l-182 119v146l432 182h160v-834l200 162q66 16 150 17q135 0 243 -71t167 -195q61 -123 61 -281t-109 -299t-273 -225t-317 -82h-2
q-65 -1 -120 30v-286l327 -80l-82 -164h-837z" />
    <glyph glyph-name="ydieresis" unicode="&#xff;" horiz-adv-x="1370" 
d="M1329 1112v-145l-530 -967l-514 -541l-160 123q143 180 203.5 310.5t74.5 289.5l-217 531l-206 121v145l514 172l77 -309l209 -504l221 414l-305 196l82 164h551zM768 1535.5q0 71.5 41 124t101.5 84.5t133 32t129 -57.5t56.5 -129t-41 -124t-102.5 -83t-133 -30.5
t-128 56t-56.5 127.5zM133 1535.5q0 71.5 41 124t101.5 84.5t133 32t129 -57.5t56.5 -129t-41 -124t-102.5 -83t-133 -30.5t-128 56t-56.5 127.5z" />
    <glyph glyph-name="Amacron" unicode="&#x100;" horiz-adv-x="1931" 
d="M858 1274l-219 -549h442zM1022 0v145l244 127l-105 258h-598l-84 -208l287 -158l-82 -164h-684v145l240 179l491 1220l438 105l570 -1389l213 -96l-82 -164h-848zM401 2165h1102v-195h-1102v195z" />
    <glyph glyph-name="amacron" unicode="&#x101;" horiz-adv-x="1415" 
d="M479 397.5q0 -35.5 31.5 -57.5t105.5 -22.5t193 69.5v80h-311q-19 -34 -19 -69.5zM80 326q0 168 184 307h545q-6 90 -61.5 136t-139.5 46q-141 0 -413 -86l-62 139l281 226q113 39 270 39q254 0 395.5 -112t141.5 -327v-458l182 -72l-82 -164h-512v178l-231 -182
q-41 -16 -103 -16q-209 0 -302 101t-93 245zM156 1667h1020v-166h-1020v166z" />
    <glyph glyph-name="Abreve" unicode="&#x102;" horiz-adv-x="1931" 
d="M858 1274l-219 -549h442zM1022 0v145l244 127l-105 258h-598l-84 -208l287 -158l-82 -164h-684v145l240 179l491 1220l438 105l570 -1389l213 -96l-82 -164h-848zM922.5 1810q-136.5 0 -276.5 64.5t-210 171.5l352 278q23 -100 81.5 -159.5t158 -59.5t129.5 99l346 118
q-28 -143 -116.5 -259.5t-208 -184.5t-256 -68z" />
    <glyph glyph-name="abreve" unicode="&#x103;" horiz-adv-x="1415" 
d="M479 397.5q0 -35.5 31.5 -57.5t105.5 -22.5t193 69.5v80h-311q-19 -34 -19 -69.5zM80 326q0 168 184 307h545q-6 90 -61.5 136t-139.5 46q-141 0 -413 -86l-62 139l281 226q113 39 270 39q254 0 395.5 -112t141.5 -327v-458l182 -72l-82 -164h-512v178l-231 -182
q-41 -16 -103 -16q-209 0 -302 101t-93 245zM635.5 1313q-136.5 0 -276.5 64.5t-209 170.5l352 279q23 -100 81 -159.5t157.5 -59.5t129.5 98l347 119q-29 -144 -117 -260.5t-208 -184t-256.5 -67.5z" />
    <glyph glyph-name="Aogonek" unicode="&#x104;" horiz-adv-x="1931" 
d="M858 1274l-219 -549h442zM1802 -190q0 -68 101 -68v-160l-154 -123q-168 23 -257 85.5t-89 156.5q0 59 16 88l262 211h-659v145l244 127l-105 258h-598l-84 -208l287 -158l-82 -164h-684v145l240 179l491 1220l438 105l570 -1389l213 -96l-82 -164q-68 -129 -68 -190z
" />
    <glyph glyph-name="aogonek" unicode="&#x105;" horiz-adv-x="1415" 
d="M479 397.5q0 -35.5 31.5 -57.5t105.5 -22.5t193 69.5v80h-311q-19 -34 -19 -69.5zM1253 -190q0 -68 101 -68v-160l-154 -123q-168 23 -257 85.5t-89 156.5q0 59 16 88l263 211h-324v178l-231 -182q-41 -16 -103 -16q-209 0 -302 101t-93 245q0 168 184 307h545
q-6 90 -61.5 136t-139.5 46q-141 0 -413 -86l-62 139l281 226q113 39 270 39q254 0 395.5 -112t141.5 -327v-458l184 -72l-82 -164q-68 -129 -68 -190h-2z" />
    <glyph glyph-name="Cacute" unicode="&#x106;" horiz-adv-x="1734" 
d="M946 1376q-100 0 -183 -66.5t-131 -183t-48 -269.5t49 -287t149.5 -214t247.5 -80q195 0 549 173l94 -152l-377 -293q-152 -45 -386.5 -45t-418.5 104.5t-286.5 288t-102.5 420t153 440t379 321.5t431 118q127 0 295 -31t246 -66v-458h-263q-147 280 -397 280zM1444 2154
l-578 -294l-139 63l219 401l438 -38z" />
    <glyph glyph-name="cacute" unicode="&#x107;" horiz-adv-x="1337" 
d="M532 602q0 -131 62.5 -228.5t190.5 -97.5t403 107l61 -139l-280 -226q-131 -39 -302.5 -38.5t-297 71t-196.5 194.5t-71 281.5t102.5 299t257 224.5t277.5 83t260.5 -24t198.5 -52v-418h-160q-160 219 -370 219q-61 0 -98.5 -62.5t-37.5 -193.5zM1202 1657l-577 -295
l-140 63l220 402l438 -39z" />
    <glyph glyph-name="Cdotaccent" unicode="&#x10a;" horiz-adv-x="1734" 
d="M946 1376q-100 0 -183 -66.5t-131 -183t-48 -269.5t49 -287t149.5 -214t247.5 -80q195 0 549 173l94 -152l-377 -293q-152 -45 -386.5 -45t-418.5 104.5t-286.5 288t-102.5 420t153 440t379 321.5t431 118q127 0 295 -31t246 -66v-458h-263q-147 280 -397 280zM1198 2062
q0 -80 -48 -137t-120 -92t-155.5 -35t-151.5 63.5t-68 142.5t48.5 137.5t120 93t156.5 34.5t151.5 -63.5t66.5 -143.5z" />
    <glyph glyph-name="cdotaccent" unicode="&#x10b;" horiz-adv-x="1337" 
d="M532 602q0 -131 62.5 -228.5t190.5 -97.5t403 107l61 -139l-280 -226q-131 -39 -302.5 -38.5t-297 71t-196.5 194.5t-71 281.5t102.5 299t257 224.5t277.5 83t260.5 -24t198.5 -52v-418h-160q-160 219 -370 219q-61 0 -98.5 -62.5t-37.5 -193.5zM956 1564.5
q0 -80.5 -48 -137.5t-119.5 -92t-155.5 -35t-151.5 63.5t-67.5 143t48 137.5t119.5 93t156.5 35t151.5 -63.5t66.5 -144z" />
    <glyph glyph-name="Ccaron" unicode="&#x10c;" horiz-adv-x="1734" 
d="M946 1376q-100 0 -183 -66.5t-131 -183t-48 -269.5t49 -287t149.5 -214t247.5 -80q195 0 549 173l94 -152l-377 -293q-152 -45 -386.5 -45t-418.5 104.5t-286.5 288t-102.5 420t153 440t379 321.5t431 118q127 0 295 -31t246 -66v-458h-263q-147 280 -397 280zM948 1860
l-577 294l59 132l438 38l125 -231l383 236l90 -150z" />
    <glyph glyph-name="ccaron" unicode="&#x10d;" horiz-adv-x="1337" 
d="M532 602q0 -131 62.5 -228.5t190.5 -97.5t403 107l61 -139l-280 -226q-131 -39 -302.5 -38.5t-297 71t-196.5 194.5t-71 281.5t102.5 299t257 224.5t277.5 83t260.5 -24t198.5 -52v-418h-160q-160 219 -370 219q-61 0 -98.5 -62.5t-37.5 -193.5zM707 1362l-578 295
l59 131l439 39l125 -232l383 236l90 -150z" />
    <glyph glyph-name="Dcaron" unicode="&#x10e;" horiz-adv-x="1923" 
d="M1339 758.5q0 170.5 -54 323.5t-165.5 244t-275.5 91q-68 0 -127 -35v-1157q88 -33 201.5 -32.5t211 72t153.5 197.5t56 296.5zM1821 837q0 -230 -152.5 -428t-379 -313.5t-431.5 -115.5q-90 0 -182 10q-147 10 -232 10h-362v145l192 152v1079l-233 70l82 164h319
q186 0 342 10t220 10q241 0 426.5 -101.5t288 -281.5t102.5 -410zM887 1860l-578 294l60 132l438 38l125 -231l383 236l90 -150z" />
    <glyph glyph-name="dcaron" unicode="&#x10f;" horiz-adv-x="1525" 
d="M682 858q-150 0 -150 -242q0 -133 46 -217t135 -84h2q111 0 209 45v345q-12 69 -74 111t-168 42zM922 0v156l-199 -160q-66 -16 -150 -16q-135 0 -243 70t-167 195q-61 123 -61 281t109 299t273 225t317 83q63 0 121 -29v237l-183 119v146l432 182h160v-1567l185 -57
l-82 -164h-512zM1907 1788v-381l-224 -238l-161 123q25 74 37 140l-119 79v146l309 131h158z" />
    <glyph glyph-name="Dcroat" unicode="&#x110;" horiz-adv-x="1923" 
d="M1339 758.5q0 170.5 -54 323.5t-165.5 244t-275.5 91q-68 0 -127 -35v-493h387v-195h-387v-469q88 -33 201.5 -32.5t211 72t153.5 197.5t56 296.5zM1821 837q0 -230 -152.5 -428t-379 -313.5t-431.5 -115.5q-90 0 -182 10q-147 10 -232 10h-362v145l192 152v397h-274v195
h274v487l-233 70l82 164h319q186 0 342 10t220 10q241 0 426.5 -101.5t288 -281.5t102.5 -410z" />
    <glyph glyph-name="dcroat" unicode="&#x111;" horiz-adv-x="1525" 
d="M682 856q-150 0 -150 -242q0 -133 46 -217t135 -84h2q111 0 209 45v344q-12 68 -74 111t-168 43zM922 -2v156l-199 -160q-66 -16 -150 -17q-135 0 -243 71t-167 195q-61 123 -61 281t109 299t273 225t317 82q63 0 121 -28v219h-416v166h416v217l249 104h160v-321h195
v-166l-195 -2v-1100l185 -57l-82 -164h-512z" />
    <glyph glyph-name="Emacron" unicode="&#x112;" horiz-adv-x="1687" 
d="M82 0v145l192 152v1085l-233 64l82 164h1272l170 37v-553l-144 -62l-258 383h-448v-495h198l150 210h145v-581l-164 -82l-137 258h-192v-530h430l297 423l143 -61v-594l-170 37h-1333zM324 2165h1101v-195h-1101v195z" />
    <glyph glyph-name="emacron" unicode="&#x113;" horiz-adv-x="1374" 
d="M694.5 858q-80.5 0 -119 -52t-43.5 -161h338q-10 109 -52.5 161t-123 52zM774 276q145 0 434 107l62 -139l-281 -226q-139 -39 -316.5 -38.5t-303 71t-196.5 194.5t-71 281.5t108.5 299t272 224t316.5 83.5q227 0 352 -170t119 -484h-723q25 -94 82 -148.5t145 -54.5z
M190 1667h1020v-166h-1020v166z" />
    <glyph glyph-name="Edotaccent" unicode="&#x116;" horiz-adv-x="1687" 
d="M82 0v145l192 152v1085l-233 64l82 164h1272l170 37v-553l-144 -62l-258 383h-448v-495h198l150 210h145v-581l-164 -82l-137 258h-192v-530h430l297 423l143 -61v-594l-170 37h-1333zM1141 2062q0 -80 -48.5 -137t-120 -92t-155 -35t-151.5 63.5t-68 142.5t48 137.5
t120 93t157 34.5t151.5 -63.5t66.5 -143.5z" />
    <glyph glyph-name="edotaccent" unicode="&#x117;" horiz-adv-x="1374" 
d="M694.5 858q-80.5 0 -119 -52t-43.5 -161h338q-10 109 -52.5 161t-123 52zM774 276q145 0 434 107l62 -139l-281 -226q-139 -39 -316.5 -38.5t-303 71t-196.5 194.5t-71 281.5t108.5 299t272 224t316.5 83.5q227 0 352 -170t119 -484h-723q25 -94 82 -148.5t145 -54.5z
M967 1564.5q0 -80.5 -48.5 -137.5t-120 -92t-155.5 -35t-151.5 63.5t-67.5 143t48 137.5t120 93t157 35t151.5 -63.5t66.5 -144z" />
    <glyph glyph-name="Eogonek" unicode="&#x118;" horiz-adv-x="1687" 
d="M1419 -190q0 -68 101 -68v-160l-154 -123q-168 23 -257 85.5t-89 156.5q0 59 16 88l262 211h-1216v145l192 152v1085l-233 64l82 164h1272l170 37v-553l-144 -62l-258 383h-448v-495h198l150 210h145v-581l-164 -82l-137 258h-192v-530h430l297 423l143 -61v-594l-106 23
q-60 -119 -60 -176z" />
    <glyph glyph-name="eogonek" unicode="&#x119;" horiz-adv-x="1374" 
d="M696.5 858q-80.5 0 -119 -52t-42.5 -161h337q-10 109 -52.5 161t-123 52zM776 276q145 0 434 107l62 -139l-250 -201q-160 -133 -160 -227q0 -41 37 -57.5t125 -16.5v-160l-154 -123q-164 23 -255 84.5t-91 153.5q0 55 17 92l196 193q-29 -2 -82 -2q-160 0 -285.5 70.5
t-196.5 194.5t-71 281.5t108.5 299t272.5 224.5t318 83q227 0 352 -170t119 -484h-723q25 -94 82 -148.5t145 -54.5z" />
    <glyph glyph-name="Ecaron" unicode="&#x11a;" horiz-adv-x="1687" 
d="M82 0v145l192 152v1085l-233 64l82 164h1272l170 37v-553l-144 -62l-258 383h-448v-495h198l150 210h145v-581l-164 -82l-137 258h-192v-530h430l297 423l143 -61v-594l-170 37h-1333zM891 1860l-578 294l60 132l438 38l125 -231l383 236l90 -150z" />
    <glyph glyph-name="ecaron" unicode="&#x11b;" horiz-adv-x="1374" 
d="M694.5 858q-80.5 0 -119 -52t-43.5 -161h338q-10 109 -52.5 161t-123 52zM774 276q145 0 434 107l62 -139l-281 -226q-139 -39 -316.5 -38.5t-303 71t-196.5 194.5t-71 281.5t108.5 299t272 224t316.5 83.5q227 0 352 -170t119 -484h-723q25 -94 82 -148.5t145 -54.5z
M717 1362l-578 295l60 131l438 39l125 -232l383 236l90 -150z" />
    <glyph glyph-name="Gbreve" unicode="&#x11e;" horiz-adv-x="1966" 
d="M584 853q0 -159 55 -301t170 -228t283 -86h63q80 0 125 4v350l-336 76l82 163h889v-145l-195 -170v-135l56 -143l-377 -232q-169 -45 -424.5 -45t-454 104.5t-308.5 288t-110 420t163 440t403.5 321.5t457.5 118q135 0 316.5 -31t265.5 -66v-540h-262q-162 362 -438 362
q-117 0 -214.5 -66.5t-153.5 -183t-56 -275.5zM994 1810q-136 0 -276 64.5t-210 171.5l352 278q23 -100 81 -159.5t158 -59.5t130 99l346 118q-29 -143 -117 -259.5t-208 -184.5t-256 -68z" />
    <glyph glyph-name="gbreve" unicode="&#x11f;" horiz-adv-x="1310" 
d="M665.5 584q98.5 0 98.5 92q0 86 -56.5 135t-154.5 49t-98 -88q0 -82 56 -135t154.5 -53zM1202 -130q0 -69 -84 -168t-208 -172t-249.5 -73t-306 39t-301.5 78v397h160q90 -131 184.5 -199.5t214.5 -68.5q59 0 98.5 19.5t39.5 41.5q0 43 -49.5 77t-157 83t-168 92
t-60.5 97.5t82 105.5t195 90q-18 -2 -55 -2q-133 0 -245 50.5t-176.5 134t-64.5 190.5t92.5 213t237.5 172t307 66t297 -82h346l4 -164h-196q25 -55 24 -117q0 -121 -103.5 -234.5t-260.5 -177.5q-53 -66 -54 -125q0 -27 40 -52t154 -79t188.5 -108.5t74.5 -123.5z
M594.5 1313q-136.5 0 -276.5 64.5t-209 170.5l352 279q23 -100 81 -159.5t157.5 -59.5t129.5 98l347 119q-29 -144 -117 -260.5t-208 -184t-256.5 -67.5z" />
    <glyph glyph-name="Gdotaccent" unicode="&#x120;" horiz-adv-x="1966" 
d="M584 853q0 -159 55 -301t170 -228t283 -86h63q80 0 125 4v350l-336 76l82 163h889v-145l-195 -170v-135l56 -143l-377 -232q-169 -45 -424.5 -45t-454 104.5t-308.5 288t-110 420t163 440t403.5 321.5t457.5 118q135 0 316.5 -31t265.5 -66v-540h-262q-162 362 -438 362
q-117 0 -214.5 -66.5t-153.5 -183t-56 -275.5zM1290 2062q0 -80 -48 -137t-119.5 -92t-155.5 -35t-151.5 63.5t-67.5 142.5t48 137.5t119.5 93t156.5 34.5t151.5 -63.5t66.5 -143.5z" />
    <glyph glyph-name="gdotaccent" unicode="&#x121;" horiz-adv-x="1310" 
d="M665.5 584q98.5 0 98.5 92q0 86 -56.5 135t-154.5 49t-98 -88q0 -82 56 -135t154.5 -53zM1202 -130q0 -69 -84 -168t-208 -172t-249.5 -73t-306 39t-301.5 78v397h160q90 -131 184.5 -199.5t214.5 -68.5q59 0 98.5 19.5t39.5 41.5q0 43 -49.5 77t-157 83t-168 92
t-60.5 97.5t82 105.5t195 90q-18 -2 -55 -2q-133 0 -245 50.5t-176.5 134t-64.5 190.5t92.5 213t237.5 172t307 66t297 -82h346l4 -164h-196q25 -55 24 -117q0 -121 -103.5 -234.5t-260.5 -177.5q-53 -66 -54 -125q0 -27 40 -52t154 -79t188.5 -108.5t74.5 -123.5z
M891 1564.5q0 -80.5 -48 -137.5t-120 -92t-155.5 -35t-151.5 63.5t-68 143t48 137.5t120 93t157 35t151.5 -63.5t66.5 -144z" />
    <glyph glyph-name="Gcommaaccent" unicode="&#x122;" horiz-adv-x="1966" 
d="M584 853q0 -159 55 -301t170 -228t283 -86h63q80 0 125 4v350l-336 76l82 163h889v-145l-195 -170v-135l56 -143l-377 -232q-169 -45 -424.5 -45t-454 104.5t-308.5 288t-110 420t163 440t403.5 321.5t457.5 118q135 0 316.5 -31t265.5 -66v-540h-262q-162 362 -438 362
q-117 0 -214.5 -66.5t-153.5 -183t-56 -275.5zM1343 -170v-145l-262 -308h-221l64 193l-193 96l82 164h530z" />
    <glyph glyph-name="gcommaaccent" unicode="&#x123;" horiz-adv-x="1310" 
d="M665.5 584q98.5 0 98.5 92q0 86 -56.5 135t-154.5 49t-98 -88q0 -82 56 -135t154.5 -53zM1202 -130q0 -69 -84 -168t-208 -172t-249.5 -73t-306 39t-301.5 78v397h160q90 -131 184.5 -199.5t214.5 -68.5q59 0 98.5 19.5t39.5 41.5q0 43 -49.5 77t-157 83t-168 92
t-60.5 97.5t82 105.5t195 90q-18 -2 -55 -2q-133 0 -245 50.5t-176.5 134t-64.5 190.5t92.5 213t237.5 172t307 66t297 -82h346l4 -164h-196q25 -55 24 -117q0 -121 -103.5 -234.5t-260.5 -177.5q-53 -66 -54 -125q0 -27 40 -52t154 -79t188.5 -108.5t74.5 -123.5zM326 1438
v145l262 307h221l-64 -192l193 -96l-82 -164h-530z" />
    <glyph glyph-name="Hbar" unicode="&#x126;" horiz-adv-x="2056" 
d="M715 1053v-154h624v154h-624zM1147 0v145l192 168v392h-624v-480l235 -61l-82 -164h-786v145l192 168v740h-274v194h274v137l-233 62l82 164h786v-146l-194 -170v-47h624v137l-233 62l82 164h786v-146l-194 -170v-47h274v-194h-274v-828l235 -61l-82 -164h-786z" />
    <glyph glyph-name="hbar" unicode="&#x127;" horiz-adv-x="1513" 
d="M909 2v633q0 88 -25.5 125t-101 37t-159.5 -43v-533l184 -57l-82 -164h-694v145l182 160v1016h-213v166h213v217l250 104h160v-321h397v-166h-397v-365l198 160q55 16 133 17q168 0 266.5 -85t98.5 -231v-596l184 -55l-82 -164h-512z" />
    <glyph glyph-name="Imacron" unicode="&#x12a;" horiz-adv-x="991" 
d="M82 0v145l192 168v1069l-233 62l82 164h786v-146l-194 -170v-1067l235 -61l-82 -164h-786zM-55 2165h1102v-195h-1102v195z" />
    <glyph glyph-name="imacron" unicode="&#x12b;" horiz-adv-x="858" 
d="M72 0v145l182 160v400l-182 118v146l432 182h160v-930l184 -57l-82 -164h-694zM-80 1667h1020v-166h-1020v166z" />
    <glyph glyph-name="Iogonek" unicode="&#x12e;" horiz-adv-x="991" 
d="M901 -258v-160l-153 -123q-168 23 -257.5 85.5t-89.5 156.5q0 59 17 88l262 211h-598v145l192 168v1069l-233 62l82 164h786v-146l-194 -170v-1067l235 -61l-82 -164q-68 -129 -67 -190q0 -68 100 -68z" />
    <glyph glyph-name="iogonek" unicode="&#x12f;" horiz-adv-x="858" 
d="M698 -190q0 -68 101 -68v-160l-154 -123q-168 23 -257 85.5t-89 156.5q0 59 16 88l263 211h-506v145l182 160v400l-182 118v146l432 182h160v-930l184 -57l-82 -164q-68 -129 -68 -190zM154 1506.5q0 79.5 48 137.5t119.5 93t156.5 35t151.5 -63.5t66.5 -144t-48 -137.5
t-119.5 -92t-155.5 -35t-151.5 63.5t-67.5 143z" />
    <glyph glyph-name="Idotaccent" unicode="&#x130;" horiz-adv-x="991" 
d="M82 0v145l192 168v1069l-233 62l82 164h786v-146l-194 -170v-1067l235 -61l-82 -164h-786zM762 2062q0 -80 -48 -137t-120 -92t-155.5 -35t-151.5 63.5t-68 142.5t48 137.5t120 93t157 34.5t151.5 -63.5t66.5 -143.5z" />
    <glyph glyph-name="dotlessi" unicode="&#x131;" horiz-adv-x="858" 
d="M72 0v145l182 160v400l-182 118v146l432 182h160v-930l184 -57l-82 -164h-694z" />
    <glyph glyph-name="Kcommaaccent" unicode="&#x136;" horiz-adv-x="1904" 
d="M1837 1612v-146l-629 -555l455 -647l217 -98l-82 -164h-473l-553 807l569 504l-239 135l82 164h653zM82 2v145l192 168v1069l-233 62l82 164h786v-146l-194 -170v-1067l235 -61l-82 -164h-786zM1313 -170v-145l-262 -308h-222l64 193l-193 96l82 164h531z" />
    <glyph glyph-name="kcommaaccent" unicode="&#x137;" horiz-adv-x="1554" 
d="M1491 1112v-145l-393 -314l239 -409l209 -80l-82 -164h-469l-303 553l344 264l-280 131l82 164h653zM31 0v145l182 160v1036l-182 119v146l432 182h160v-1567l184 -57l-82 -164h-694zM1128 -170v-145l-262 -308h-221l64 193l-193 96l82 164h530z" />
    <glyph glyph-name="Lacute" unicode="&#x139;" horiz-adv-x="1646" 
d="M82 -2v145l192 152v1096l-233 55l82 164h786v-146l-194 -151v-1118h422l325 464l144 -61v-637l-170 37h-1354zM1032 2154l-577 -294l-140 63l220 401l438 -38z" />
    <glyph glyph-name="lacute" unicode="&#x13a;" horiz-adv-x="817" 
d="M31 0v145l182 160v1036l-182 119v146l432 182h160v-1567l184 -57l-82 -164h-694zM922 2230l-578 -295l-139 64l219 401l438 -39z" />
    <glyph glyph-name="Lcommaaccent" unicode="&#x13b;" horiz-adv-x="1646" 
d="M82 -2v145l192 152v1096l-233 55l82 164h786v-146l-194 -151v-1118h422l325 464l144 -61v-637l-170 37h-1354zM1163 -170v-145l-262 -308h-221l63 193l-192 96l82 164h530z" />
    <glyph glyph-name="lcommaaccent" unicode="&#x13c;" horiz-adv-x="817" 
d="M31 0v145l182 160v1036l-182 119v146l432 182h160v-1567l184 -57l-82 -164h-694zM709 -170v-145l-263 -308h-221l64 193l-193 96l82 164h531z" />
    <glyph glyph-name="Lcaron" unicode="&#x13d;" horiz-adv-x="1646" 
d="M82 -2v145l192 152v1096l-233 55l82 164h786v-146l-194 -151v-1118h422l325 464l144 -61v-637l-170 37h-1354zM1536 1610v-381l-223 -238l-162 123q25 74 37 139l-119 80v146l309 131h158z" />
    <glyph glyph-name="lcaron" unicode="&#x13e;" horiz-adv-x="817" 
d="M31 0v145l182 160v1036l-182 119v146l432 182h160v-1567l184 -57l-82 -164h-694zM1198 1788v-381l-223 -238l-162 123q25 74 37 140l-119 79v146l309 131h158z" />
    <glyph glyph-name="Ldot" unicode="&#x13f;" horiz-adv-x="1646" 
d="M82 -2v145l192 152v1096l-233 55l82 164h786v-146l-194 -151v-1118h422l325 464l144 -61v-637l-170 37h-1354zM1518 1083q0 -80 -48.5 -137t-120 -92t-155.5 -35t-151.5 63.5t-67.5 142.5t48 137.5t119.5 93t156.5 34.5t152 -63.5t67 -143.5z" />
    <glyph glyph-name="ldot" unicode="&#x140;" horiz-adv-x="1181" 
d="M31 0v145l182 160v1036l-182 119v146l432 182h160v-1567l184 -57l-82 -164h-694zM1276 880.5q0 -80.5 -48 -137.5t-120 -92t-155.5 -35t-151.5 63.5t-68 143t48 137.5t120 92.5t157 34.5t151.5 -63t66.5 -143.5z" />
    <glyph glyph-name="Lslash" unicode="&#x141;" horiz-adv-x="1605" 
d="M82 -2v145l192 152v242l-274 -218v117l274 217v738l-233 55l82 164h786v-146l-194 -151v-400l424 334v-117l-424 -333v-602h422l325 464l144 -61v-637l-170 37h-1354z" />
    <glyph glyph-name="lslash" unicode="&#x142;" horiz-adv-x="817" 
d="M31 0v145l182 160v395l-295 -251v194l295 262v436l-182 119v146l432 182h160v-639l276 248v-215l-276 -246v-715l184 -57l-82 -164h-694z" />
    <glyph glyph-name="Nacute" unicode="&#x143;" horiz-adv-x="1871" 
d="M1657 2h-215l-953 1014v-742l338 -110l-82 -164h-663v145l192 168v1000l-233 133l82 164h391l928 -985v712l-336 109l82 164h663v-144l-194 -170v-1294zM1458 2154l-577 -294l-140 63l220 401l438 -38z" />
    <glyph glyph-name="nacute" unicode="&#x144;" horiz-adv-x="1554" 
d="M950 2v633q0 88 -25.5 125t-101 37t-159.5 -43v-533l184 -57l-82 -164h-694v145l182 160v400l-182 118v146l473 182l86 -221l231 186q55 16 133 17q168 0 266.5 -85t98.5 -231v-596l184 -55l-82 -164h-512zM1270 1657l-578 -295l-139 63l219 402l438 -39z" />
    <glyph glyph-name="Ncommaaccent" unicode="&#x145;" horiz-adv-x="1871" 
d="M1657 2h-215l-953 1014v-742l338 -110l-82 -164h-663v145l192 168v1000l-233 133l82 164h391l928 -985v712l-336 109l82 164h663v-144l-194 -170v-1294zM1245 -170v-145l-262 -308h-221l63 193l-192 96l82 164h530z" />
    <glyph glyph-name="ncommaaccent" unicode="&#x146;" horiz-adv-x="1554" 
d="M950 2v633q0 88 -25.5 125t-101 37t-159.5 -43v-533l184 -57l-82 -164h-694v145l182 160v400l-182 118v146l473 182l86 -221l231 186q55 16 133 17q168 0 266.5 -85t98.5 -231v-596l184 -55l-82 -164h-512zM1139 -170v-145l-262 -308h-222l64 193l-193 96l82 164h531z
" />
    <glyph glyph-name="Ncaron" unicode="&#x147;" horiz-adv-x="1871" 
d="M1657 2h-215l-953 1014v-742l338 -110l-82 -164h-663v145l192 168v1000l-233 133l82 164h391l928 -985v712l-336 109l82 164h663v-144l-194 -170v-1294zM963 1860l-578 294l59 132l439 38l125 -231l383 236l90 -150z" />
    <glyph glyph-name="ncaron" unicode="&#x148;" horiz-adv-x="1554" 
d="M950 2v633q0 88 -25.5 125t-101 37t-159.5 -43v-533l184 -57l-82 -164h-694v145l182 160v400l-182 118v146l473 182l86 -221l231 186q55 16 133 17q168 0 266.5 -85t98.5 -231v-596l184 -55l-82 -164h-512zM774 1362l-577 295l59 131l438 39l125 -232l383 236l90 -150z
" />
    <glyph glyph-name="Eng" unicode="&#x14a;" horiz-adv-x="1871" 
d="M1657 205q0 -188 18 -244l-506 -500l-159 123q220 236 266 394q24 82 20 180l-807 858v-742l338 -110l-82 -164h-663v145l192 168v1000l-233 133l82 164h391l928 -985v712l-336 109l82 164h663v-146l-194 -168v-1091z" />
    <glyph glyph-name="eng" unicode="&#x14b;" horiz-adv-x="1542" 
d="M1360 205q0 -188 18 -244l-475 -500l-160 123q123 145 165 247.5t42 254.5v549q0 88 -25.5 125t-101 37t-159.5 -43v-533l184 -57l-82 -164h-694v145l182 160v400l-182 118v146l473 182l86 -221l231 186q55 16 133 17q168 0 266.5 -85t98.5 -231v-612z" />
    <glyph glyph-name="Omacron" unicode="&#x14c;" horiz-adv-x="2004" 
d="M584 851q0 -159 51 -302t156.5 -229.5t257.5 -86.5q102 0 187 67t135 183.5t50 276t-51 303t-155.5 228.5t-258.5 85q-102 0 -187 -66.5t-135 -183t-50 -275.5zM1903 836.5q0 -236.5 -155 -439t-384 -320.5t-454.5 -118t-413 103.5t-291 288t-103.5 421t155 440
t384 321.5t454.5 118t414 -104.5t291 -289t102.5 -421zM453 2165h1101v-195h-1101v195z" />
    <glyph glyph-name="omacron" unicode="&#x14d;" horiz-adv-x="1456" 
d="M774 254q137 0 137 262q0 140 -60 241t-169 101q-137 0 -137 -240q0 -160 60.5 -262t168.5 -102zM1354 585.5q0 -157.5 -108.5 -299t-272.5 -224t-321 -82.5t-282.5 70.5t-196.5 194.5t-71 281.5t108.5 299t272.5 224.5t321 83t282.5 -71t196.5 -195t71 -281.5zM219 1667
h1020v-166h-1020v166z" />
    <glyph glyph-name="Ohungarumlaut" unicode="&#x150;" horiz-adv-x="2004" 
d="M584 851q0 -159 51 -302t156.5 -229.5t257.5 -86.5q102 0 187 67t135 183.5t50 276t-51 303t-155.5 228.5t-258.5 85q-102 0 -187 -66.5t-135 -183t-50 -275.5zM1903 836.5q0 -236.5 -155 -439t-384 -320.5t-454.5 -118t-413 103.5t-291 288t-103.5 421t155 440
t384 321.5t454.5 118t414 -104.5t291 -289t102.5 -421zM1782 2154l-434 -294l-140 63l138 401l376 -38zM1085 2154l-434 -294l-139 63l137 401l377 -38z" />
    <glyph glyph-name="ohungarumlaut" unicode="&#x151;" horiz-adv-x="1456" 
d="M774 254q137 0 137 262q0 140 -60 241t-169 101q-137 0 -137 -240q0 -160 60.5 -262t168.5 -102zM1354 585.5q0 -157.5 -108.5 -299t-272.5 -224t-321 -82.5t-282.5 70.5t-196.5 194.5t-71 281.5t108.5 299t272.5 224.5t321 83t282.5 -71t196.5 -195t71 -281.5z
M1548 1657l-495 -295l-140 63l158 402l418 -39zM893 1657l-496 -295l-139 63l158 402l418 -39z" />
    <glyph glyph-name="OE" unicode="&#x152;" horiz-adv-x="2539" 
d="M1079 193q68 0 127 34v1157q-88 33 -202 33q-114 1 -210 -71q-98 -72 -154 -198t-56 -297t54 -324t166 -243t275 -91zM1481 0q-186 0 -342 -10t-219 -10q-242 0 -427 101t-288 281t-103 410t153 429q153 197 379 313t431 116q90 0 182 -10q150 -10 232 -10h768l170 37
v-553l-144 -62l-258 383h-366v-495h123l163 210h146v-581l-164 -82l-152 258h-116v-530h348l297 423l143 -61v-594l-170 37h-786z" />
    <glyph glyph-name="oe" unicode="&#x153;" horiz-adv-x="2093" 
d="M1425 858h-2q-127 0 -135 -213h299q-10 109 -48 161t-114 52zM750 254q116 0 116 262q0 140 -55 241t-154 101q-117 0 -117 -260q0 -140 56 -242q55 -102 154 -102zM100 526q0 158 106 299t265 225q160 84 307 83q217 0 352 -154q198 152 412 153q213 1 332 -169
t113 -484h-684q49 -201 206 -203q139 0 414 107l62 -139l-281 -226q-131 -39 -313 -38q-220 0 -365 153q-90 -72 -194 -113t-199 -40q-154 0 -275 70t-189 195q-69 123 -69 281z" />
    <glyph glyph-name="Racute" unicode="&#x154;" horiz-adv-x="1781" 
d="M936 868q92 0 145.5 66.5t53.5 193.5t-69 208t-202 81q-80 0 -149 -47v-1143l235 -61l-82 -164h-786v145l192 168v1069l-233 62l82 164h401q172 0 317.5 10t202.5 10q168 0 298.5 -56t202 -154.5t71.5 -229.5t-122 -250t-304 -186l182 -49l236 -453l194 -88l-82 -164
h-483l-360 696l-86 49l61 123h84zM1372 2154l-577 -294l-140 63l219 401l439 -38z" />
    <glyph glyph-name="racute" unicode="&#x155;" horiz-adv-x="1226" 
d="M72 0v145l182 160v400l-182 118v146l473 182l82 -213l174 178q37 16 92 17q133 0 223 -55.5t123 -153.5l-231 -291h-160q0 88 -16.5 125t-65.5 37t-102 -37v-514l327 -80l-82 -164h-837zM1188 1657l-578 -295l-139 63l219 402l438 -39z" />
    <glyph glyph-name="Rcommaaccent" unicode="&#x156;" horiz-adv-x="1781" 
d="M936 868q92 0 145.5 66.5t53.5 193.5t-69 208t-202 81q-80 0 -149 -47v-1143l235 -61l-82 -164h-786v145l192 168v1069l-233 62l82 164h401q172 0 317.5 10t202.5 10q168 0 298.5 -56t202 -154.5t71.5 -229.5t-122 -250t-304 -186l182 -49l236 -453l194 -88l-82 -164
h-483l-360 696l-86 49l61 123h84zM1262 -170v-145l-263 -308h-221l64 193l-193 96l82 164h531z" />
    <glyph glyph-name="rcommaaccent" unicode="&#x157;" horiz-adv-x="1226" 
d="M72 0v145l182 160v400l-182 118v146l473 182l82 -213l174 178q37 16 92 17q133 0 223 -55.5t123 -153.5l-231 -291h-160q0 88 -16.5 125t-65.5 37t-102 -37v-514l327 -80l-82 -164h-837zM766 -170v-145l-262 -308h-221l63 193l-192 96l82 164h530z" />
    <glyph glyph-name="Rcaron" unicode="&#x158;" horiz-adv-x="1781" 
d="M936 868q92 0 145.5 66.5t53.5 193.5t-69 208t-202 81q-80 0 -149 -47v-1143l235 -61l-82 -164h-786v145l192 168v1069l-233 62l82 164h401q172 0 317.5 10t202.5 10q168 0 298.5 -56t202 -154.5t71.5 -229.5t-122 -250t-304 -186l182 -49l236 -453l194 -88l-82 -164
h-483l-360 696l-86 49l61 123h84zM877 1860l-578 294l59 132l439 38l125 -231l383 236l90 -150z" />
    <glyph glyph-name="rcaron" unicode="&#x159;" horiz-adv-x="1226" 
d="M72 0v145l182 160v400l-182 118v146l473 182l82 -213l174 178q37 16 92 17q133 0 223 -55.5t123 -153.5l-231 -291h-160q0 88 -16.5 125t-65.5 37t-102 -37v-514l327 -80l-82 -164h-837zM692 1362l-577 295l59 131l438 39l125 -232l383 236l90 -150z" />
    <glyph glyph-name="Sacute" unicode="&#x15a;" horiz-adv-x="1433" 
d="M82 1150q0 103 99.5 221t242.5 199t276 81t327 -31t284 -66v-479h-262q-76 164 -171.5 257t-197.5 93q-61 0 -96 -38.5t-35 -102.5t48 -122t121 -106t208.5 -126t227 -140.5t155 -146.5t63.5 -186.5t-105.5 -220t-257 -198.5t-290 -81t-347 30.5t-300.5 65.5v479h262
q82 -166 190.5 -258t218.5 -92q74 0 118 41t44 99.5t-47 114t-116.5 102.5t-207 126.5t-229.5 144t-157.5 151t-65.5 189.5zM1208 2154l-577 -294l-139 63l219 401l438 -38z" />
    <glyph glyph-name="sacute" unicode="&#x15b;" horiz-adv-x="1144" 
d="M756 836.5q-72 50.5 -138.5 50.5t-66.5 -62q0 -29 48 -64.5t179.5 -111t219 -149.5t87.5 -157t-77.5 -166t-190 -140t-219.5 -57t-270.5 23.5t-235.5 51.5v377h160q57 -96 141 -151.5t166 -55.5q31 0 50.5 16.5t19.5 43t-46 60.5t-177.5 110.5t-221.5 152.5t-90 159
t76 167t185.5 141.5t212 57.5t252 -24t216.5 -52v-357h-159q-49 86 -121 136.5zM1106 1657l-578 -295l-139 63l219 402l439 -39z" />
    <glyph glyph-name="Scedilla" unicode="&#x15e;" horiz-adv-x="1433" 
d="M1014 -336q0 -94 -117 -144t-358 -61v146q59 20 83.5 43.5t24.5 61.5t-23.5 69t-88.5 76l122 104q-154 8 -329.5 36t-255.5 58v479h262q82 -166 190.5 -258t218.5 -92q74 0 118 41t44 99.5t-47 114t-116.5 102.5t-207 126.5t-229.5 144t-157.5 151t-65.5 189.5t99.5 221
t242.5 199t276 81t327 -31t284 -66v-479h-262q-76 164 -171.5 257t-197.5 93q-61 0 -96 -38.5t-35 -102.5t48 -122t121 -106t208.5 -126t227 -140.5t155 -146.5t63.5 -186l2 -2q0 -109 -117.5 -233t-275.5 -199q-63 -63 -158 -144q111 -59 151 -106t40 -109z" />
    <glyph glyph-name="scedilla" unicode="&#x15f;" horiz-adv-x="1144" 
d="M756 836.5q-72 50.5 -138.5 50.5t-66.5 -62q0 -29 48 -64.5t179.5 -111t219 -149.5t87.5 -164q0 -57 -49 -121.5t-129 -122.5q-84 -92 -223 -211q111 -59 150.5 -106t39.5 -109q0 -94 -116.5 -144t-358.5 -61v146q59 20 84 43.5t25 61.5t-23.5 69t-89.5 76q98 82 148 125
q-121 6 -256 27.5t-195 45.5v377h160q57 -96 141 -151.5t166 -55.5q31 0 50.5 16.5t19.5 43.5t-46 60.5t-177.5 110t-221.5 152.5t-90 159t76 167t185.5 141.5t212 57.5t252 -24t216.5 -52v-357h-159q-49 86 -121 136.5z" />
    <glyph glyph-name="Scaron" unicode="&#x160;" horiz-adv-x="1433" 
d="M82 1150q0 103 99.5 221t242.5 199t276 81t327 -31t284 -66v-479h-262q-76 164 -171.5 257t-197.5 93q-61 0 -96 -38.5t-35 -102.5t48 -122t121 -106t208.5 -126t227 -140.5t155 -146.5t63.5 -186.5t-105.5 -220t-257 -198.5t-290 -81t-347 30.5t-300.5 65.5v479h262
q82 -166 190.5 -258t218.5 -92q74 0 118 41t44 99.5t-47 114t-116.5 102.5t-207 126.5t-229.5 144t-157.5 151t-65.5 189.5zM713 1860l-578 294l60 132l438 38l125 -231l383 236l90 -150z" />
    <glyph glyph-name="scaron" unicode="&#x161;" horiz-adv-x="1144" 
d="M756 836.5q-72 50.5 -138.5 50.5t-66.5 -62q0 -29 48 -64.5t179.5 -111t219 -149.5t87.5 -157t-77.5 -166t-190 -140t-219.5 -57t-270.5 23.5t-235.5 51.5v377h160q57 -96 141 -151.5t166 -55.5q31 0 50.5 16.5t19.5 43t-46 60.5t-177.5 110.5t-221.5 152.5t-90 159
t76 167t185.5 141.5t212 57.5t252 -24t216.5 -52v-357h-159q-49 86 -121 136.5zM610 1362l-577 295l59 131l438 39l125 -232l383 236l90 -150z" />
    <glyph glyph-name="uni0162" unicode="&#x162;" horiz-adv-x="1744" 
d="M1090 1417v-1157l112 -65l123 -29l-82 -164h-162q-45 -43 -135 -121q111 -59 151 -106t40 -109q0 -94 -117 -144t-358 -61v146q59 20 83.5 43.5t24.5 61.5t-23.5 69t-89.5 76q115 94 170 143h-370v145l192 152v1118h-147l-297 -424l-144 62v594l170 -37h1282l170 39v-594
l-143 -62l-297 424h-153z" />
    <glyph glyph-name="uni0163" unicode="&#x163;" horiz-adv-x="1054" 
d="M883 -336q0 -94 -117 -144t-358 -61v146q59 20 83.5 43.5t24.5 61.5t-23.5 69t-89.5 76l152 129q-172 14 -252 103t-80 259v541h-221v125l471 493h160v-452h368v-166h-368v-504q0 -125 160 -125q27 0 38 2l3 -2q53 6 139 41l61 -139l-207 -164h-6q-66 -61 -129 -117
q111 -59 151 -106t40 -109z" />
    <glyph glyph-name="Tcaron" unicode="&#x164;" horiz-adv-x="1744" 
d="M1090 1415v-1196l235 -55l-82 -164h-786v145l192 152v1118h-147l-297 -424l-144 62v594l170 -37h1282l170 37v-594l-143 -62l-297 424h-153zM889 1860l-578 294l60 132l438 38l125 -231l383 236l90 -150z" />
    <glyph glyph-name="tcaron" unicode="&#x165;" horiz-adv-x="1054" 
d="M791 256q75 0 182 43l61 -139l-207 -164q-84 -16 -196 -16q-213 0 -311.5 89t-98.5 275v541h-221v125l471 493h160v-452h368v-166h-368v-504q0 -125 160 -125zM1206 1788v-381l-223 -238l-162 123q25 74 37 140l-119 79v146l310 131h157z" />
    <glyph glyph-name="Tbar" unicode="&#x166;" horiz-adv-x="1744" 
d="M1090 1415v-516h395v-194h-395v-486l235 -55l-82 -164h-786v145l192 152v408h-389v194h389v516h-147l-297 -424l-144 62v594l170 -37h1282l170 37v-594l-143 -62l-297 424h-153z" />
    <glyph glyph-name="tbar" unicode="&#x167;" horiz-adv-x="1054" 
d="M791 256q75 0 182 43l61 -139l-207 -164q-84 -16 -196 -16q-213 0 -311.5 89t-98.5 275v541h-221v125l471 493h160v-452h368v-166h-368v-504q0 -125 160 -125z" />
    <glyph glyph-name="Umacron" unicode="&#x16a;" horiz-adv-x="1839" 
d="M1624 635q0 -215 -109.5 -368.5t-271.5 -230.5t-342 -77t-343 81t-254 223.5t-91 320.5v807l-233 55l81 164h787v-146l-195 -151v-672q0 -193 102.5 -300.5t311.5 -107.5q80 0 159 46.5t131 134.5t52 207v739l-254 86l82 164h582v-146l-195 -151v-678zM395 2165h1102
v-195h-1102v195z" />
    <glyph glyph-name="umacron" unicode="&#x16b;" horiz-adv-x="1495" 
d="M891 0v154l-199 -160q-55 -16 -133 -17q-168 0 -266 85t-98 231v407l-183 105v145l432 183h160v-656q0 -88 25.5 -125t101.5 -37t160 43v342l-182 105v145l432 183h159v-912l185 -57l-82 -164h-512zM258 1667h1020v-166h-1020v166z" />
    <glyph glyph-name="Uring" unicode="&#x16e;" horiz-adv-x="1839" 
d="M1624 635q0 -215 -109.5 -368.5t-271.5 -230.5t-342 -77t-343 81t-254 223.5t-91 320.5v807l-233 55l81 164h787v-146l-195 -151v-672q0 -193 102.5 -300.5t311.5 -107.5q80 0 159 46.5t131 134.5t52 207v739l-254 86l82 164h582v-146l-195 -151v-678zM903 2175
q-72 0 -72 -63.5t42 -105.5t114 -42t72 64.5t-42 105.5t-114 41zM1325 2098q0 -69 -70.5 -136.5t-176 -108.5t-199 -41t-164 30t-110.5 80t-40 119t71 136.5t176.5 108.5t199.5 41t163.5 -30t109.5 -80t40 -119z" />
    <glyph glyph-name="uring" unicode="&#x16f;" horiz-adv-x="1495" 
d="M891 0v154l-199 -160q-55 -16 -133 -17q-168 0 -266 85t-98 231v407l-183 105v145l432 183h160v-656q0 -88 25.5 -125t101.5 -37t160 43v342l-182 105v145l432 183h159v-912l185 -57l-82 -164h-512zM725 1677q-72 0 -72 -63t42 -105.5t114 -42.5t72 64.5t-42 105.5
t-114 41zM1147 1600.5q0 -68.5 -70.5 -136t-176 -108.5t-199 -41t-164 29.5t-110.5 80t-40 119t70.5 136t176 108.5t200 41t164 -30t109.5 -80t40 -118.5z" />
    <glyph glyph-name="Uhungarumlaut" unicode="&#x170;" horiz-adv-x="1839" 
d="M1624 635q0 -215 -109.5 -368.5t-271.5 -230.5t-342 -77t-343 81t-254 223.5t-91 320.5v807l-233 55l81 164h787v-146l-195 -151v-672q0 -193 102.5 -300.5t311.5 -107.5q80 0 159 46.5t131 134.5t52 207v739l-254 86l82 164h582v-146l-195 -151v-678zM1724 2154
l-434 -294l-139 63l137 401l377 -38zM1028 2154l-434 -294l-139 63l137 401l377 -38z" />
    <glyph glyph-name="uhungarumlaut" unicode="&#x171;" horiz-adv-x="1495" 
d="M891 0v154l-199 -160q-55 -16 -133 -17q-168 0 -266 85t-98 231v407l-183 105v145l432 183h160v-656q0 -88 25.5 -125t101.5 -37t160 43v342l-182 105v145l432 183h159v-912l185 -57l-82 -164h-512zM1587 1657l-495 -295l-140 63l158 402l418 -39zM932 1657l-496 -295
l-139 63l158 402l417 -39z" />
    <glyph glyph-name="Uogonek" unicode="&#x172;" horiz-adv-x="1839" 
d="M1624 633q0 -270 -184 -459q-250 -272 -250 -358q0 -41 37 -57.5t125 -16.5v-160l-154 -123q-164 23 -255 84.5t-91 153.5q0 55 16 92l191 184q-63 -14 -131 -14q-207 0 -370 81t-254 223.5t-91 320.5v807l-233 55l81 164h787v-146l-195 -151v-672q0 -193 102.5 -300.5
t311.5 -107.5q80 0 159 46.5t131 134.5t52 207v739l-254 86l82 164h582v-148l-195 -151v-678z" />
    <glyph glyph-name="uogonek" unicode="&#x173;" horiz-adv-x="1495" 
d="M1335 -190q0 -68 101 -68v-160l-154 -123q-168 23 -257 85.5t-89 156.5q0 59 16 88l262 211h-323v154l-199 -160q-55 -16 -133 -17q-168 0 -266 85t-98 231v407l-183 105v145l432 183h160v-656q0 -88 25.5 -125t101.5 -37t160 43v342l-182 105v145l432 183h159v-912
l185 -57l-82 -164q-68 -129 -68 -190z" />
    <glyph glyph-name="Wcircumflex" unicode="&#x174;" horiz-adv-x="2729" 
d="M786 1612v-146l-141 -102l393 -1012l205 682l-117 322l-184 90l82 164h786v-146l-217 -121l349 -997l323 936l-301 164l82 164h684v-144l-227 -168l-432 -1230l-439 -105l-268 737l-184 -632l-439 -105l-551 1389l-210 96l81 164h725zM1925 1890l-438 -39l-125 232
l-383 -236l-90 150l518 319l578 -295z" />
    <glyph glyph-name="wcircumflex" unicode="&#x175;" horiz-adv-x="2025" 
d="M1985 965l-490 -967h-319l-162 391l-215 -391h-320l-293 713l-206 120v146l514 172l77 -309l209 -504l144 272l-43 105l-207 121v145l514 172l78 -309l207 -496l192 399l-313 203l82 164l551 -2v-145zM1505 1393l-438 -39l-125 231l-383 -235l-90 149l518 320l578 -295z
" />
    <glyph glyph-name="Ycircumflex" unicode="&#x176;" horiz-adv-x="1787" 
d="M494 -4v145l192 152v217l-563 868l-146 66l41 164h746v-146l-133 -102l342 -520l334 456l-285 150l82 164h684v-146l-234 -184l-448 -627v-436l235 -57l-81 -164h-766zM1407 1890l-438 -39l-125 232l-383 -236l-90 150l518 319l577 -295z" />
    <glyph glyph-name="ycircumflex" unicode="&#x177;" horiz-adv-x="1370" 
d="M1329 1112v-145l-530 -967l-514 -541l-160 123q143 180 203.5 310.5t74.5 289.5l-217 531l-206 121v145l514 172l77 -309l209 -504l221 414l-305 196l82 164h551zM1178 1393l-439 -39l-125 231l-383 -235l-90 149l518 320l578 -295z" />
    <glyph glyph-name="Ydieresis" unicode="&#x178;" horiz-adv-x="1787" 
d="M494 -4v145l192 152v217l-563 868l-146 66l41 164h746v-146l-133 -102l342 -520l334 456l-285 150l82 164h684v-146l-234 -184l-448 -627v-436l235 -57l-81 -164h-766zM1040 2033.5q0 75.5 43 131t107.5 88.5t141.5 33t136.5 -61.5t59.5 -136t-43 -129t-107.5 -87.5
t-140.5 -33t-136.5 59.5t-60.5 135zM283 2033.5q0 75.5 43 131t107.5 88.5t141 33t136 -61.5t59.5 -136t-43 -129t-107.5 -87.5t-140.5 -33t-136 59.5t-60 135z" />
    <glyph glyph-name="Zacute" unicode="&#x179;" horiz-adv-x="1617" 
d="M57 0v195l967 1220h-510l-248 -403l-143 61v574l170 -37h1255v-195l-968 -1220h528l274 444l144 -61v-615l-170 37h-1299zM1321 2154l-578 -294l-139 63l219 401l439 -38z" />
    <glyph glyph-name="zacute" unicode="&#x17a;" horiz-adv-x="1363" 
d="M125 0v160l580 542h-345l-77 -167l-144 40v574l195 -37h907v-160l-577 -542h337l82 188l144 -41v-594l-195 37h-907zM1210 1657l-577 -295l-139 63l219 402l438 -39z" />
    <glyph glyph-name="Zdotaccent" unicode="&#x17b;" horiz-adv-x="1617" 
d="M57 0v195l967 1220h-510l-248 -403l-143 61v574l170 -37h1255v-195l-968 -1220h528l274 444l144 -61v-615l-170 37h-1299zM1075 2062q0 -80 -48 -137t-119.5 -92t-155.5 -35t-152 63.5t-68 142.5t48.5 137.5t120 93t156.5 34.5t151.5 -63.5t66.5 -143.5z" />
    <glyph glyph-name="zdotaccent" unicode="&#x17c;" horiz-adv-x="1363" 
d="M125 0v160l580 542h-345l-77 -167l-144 40v574l195 -37h907v-160l-577 -542h337l82 188l144 -41v-594l-195 37h-907zM965 1564.5q0 -80.5 -48.5 -137.5t-120 -92t-155.5 -35t-151.5 63.5t-67.5 143t48 137.5t120 93t156.5 35t151.5 -63.5t67 -144z" />
    <glyph glyph-name="Zcaron" unicode="&#x17d;" horiz-adv-x="1617" 
d="M57 0v195l967 1220h-510l-248 -403l-143 61v574l170 -37h1255v-195l-968 -1220h528l274 444l144 -61v-615l-170 37h-1299zM825 1860l-577 294l59 132l438 38l125 -231l383 236l90 -150z" />
    <glyph glyph-name="zcaron" unicode="&#x17e;" horiz-adv-x="1363" 
d="M125 0v160l580 542h-345l-77 -167l-144 40v574l195 -37h907v-160l-577 -542h337l82 188l144 -41v-594l-195 37h-907zM715 1362l-578 295l60 131l438 39l125 -232l383 236l90 -150z" />
    <glyph glyph-name="longs" unicode="&#x17f;" horiz-adv-x="1060" 
d="M1225 1335h-160q-49 95 -121 151t-140 56t-104 -52t-36 -147v-1099l327 -80l-82 -164h-837v145l182 160v580h-203v166h203v145q0 164 100 305t248 224t287 83q80 1 184 -23t152 -52v-398z" />
    <glyph glyph-name="florin" unicode="&#x192;" horiz-adv-x="1349" 
d="M727 203q0 -190 18 -244l-475 -500l-159 123q123 146 165 248t41 254v592h-317l84 166h233v196q1 164 101 305t248 225t286 83q80 0 184 -24t152 -52v-397h-160q-49 96 -120 151q-72 55 -140 55t-105 -52q-36 -52 -36 -146v-344h479l-84 -166h-395v-473z" />
    <glyph glyph-name="Scommaaccent" unicode="&#x218;" horiz-adv-x="1433" 
d="M82 1150q0 103 99.5 221t242.5 199t276 81t327 -31t284 -66v-479h-262q-76 164 -171.5 257t-197.5 93q-61 0 -96 -38.5t-35 -102.5t48 -122t121 -106t208.5 -126t227 -140.5t155 -146.5t63.5 -186.5t-105.5 -220t-257 -198.5t-290 -81t-347 30.5t-300.5 65.5v479h262
q82 -166 190.5 -258t218.5 -92q74 0 118 41t44 99.5t-47 114t-116.5 102.5t-207 126.5t-229.5 144t-157.5 151t-65.5 189.5zM1026 -170v-145l-262 -308h-221l63 193l-192 96l82 164h530z" />
    <glyph glyph-name="scommaaccent" unicode="&#x219;" horiz-adv-x="1144" 
d="M756 836.5q-72 50.5 -138.5 50.5t-66.5 -62q0 -29 48 -64.5t179.5 -111t219 -149.5t87.5 -157t-77.5 -166t-190 -140t-219.5 -57t-270.5 23.5t-235.5 51.5v377h160q57 -96 141 -151.5t166 -55.5q31 0 50.5 16.5t19.5 43t-46 60.5t-177.5 110.5t-221.5 152.5t-90 159
t76 167t185.5 141.5t212 57.5t252 -24t216.5 -52v-357h-159q-49 86 -121 136.5zM889 -170v-145l-262 -308h-221l63 193l-193 96l82 164h531z" />
    <glyph glyph-name="uni021A" unicode="&#x21a;" horiz-adv-x="1744" 
d="M1090 1415v-1196l235 -55l-82 -164h-786v145l192 152v1118h-147l-297 -424l-144 62v594l170 -37h1282l170 37v-594l-143 -62l-297 424h-153zM1151 -170v-145l-262 -308h-221l63 193l-192 96l82 164h530z" />
    <glyph glyph-name="uni021B" unicode="&#x21b;" horiz-adv-x="1054" 
d="M791 256q75 0 182 43l61 -139l-207 -164q-84 -16 -196 -16q-213 0 -311.5 89t-98.5 275v541h-221v125l471 493h160v-452h368v-166h-368v-504q0 -125 160 -125zM897 -170v-145l-262 -308h-221l63 193l-192 96l82 164h530z" />
    <glyph glyph-name="dotlessj" unicode="&#x237;" horiz-adv-x="798" 
d="M616 203q0 -185 19 -244l-475 -500l-160 123q123 145 165 247.5t42 254.5v664l-182 126v146l432 131h159v-948z" />
    <glyph glyph-name="uni02BC" unicode="&#x2bc;" horiz-adv-x="1679" 
d="M768 995h-160l-250 97l263 538h159l250 -96z" />
    <glyph glyph-name="circumflex" unicode="&#x2c6;" horiz-adv-x="1163" 
d="M1083 1393l-438 -39l-125 231l-383 -235l-90 149l518 320l578 -295z" />
    <glyph glyph-name="caron" unicode="&#x2c7;" horiz-adv-x="1163" 
d="M598 1362l-578 295l60 131l438 39l125 -232l383 236l90 -150z" />
    <glyph glyph-name="breve" unicode="&#x2d8;" horiz-adv-x="1001" 
d="M576 1608q100 0 131 98l346 119q-29 -143 -117 -260t-208 -185q-241 -137 -532 -3q-140 65 -210 171l352 279q23 -99 81 -159q57 -60 157 -60z" />
    <glyph glyph-name="dotaccent" unicode="&#x2d9;" horiz-adv-x="665" 
d="M280 1300q-84 0 -151 64q-68 64 -68 142q1 80 49 138t120 93t156 35q85 0 152 -64q66 -64 66 -144t-48 -137t-120 -92t-156 -35z" />
    <glyph glyph-name="ring" unicode="&#x2da;" horiz-adv-x="841" 
d="M380 1677q-71 0 -73 -63q0 -64 42 -106t114 -42t72 64t-42 106q-42 41 -113 41zM801 1600q0 -68 -71 -136t-176 -108q-104 -40 -198 -41q-94 0 -165 30q-71 29 -111 79t-39 119q0 69 71 137t176 108q105 41 199 41t164 -30t110 -80q40 -51 40 -119z" />
    <glyph glyph-name="ogonek" unicode="&#x2db;" horiz-adv-x="913" 
d="M610 -190q0 -68 101 -68v-160l-154 -123q-168 23 -257 85t-89 157q0 59 16 88l314 252l137 -41q-68 -129 -68 -190z" />
    <glyph glyph-name="tilde" unicode="&#x2dc;" horiz-adv-x="1116" 
d="M320 1507q-38 0 -84 -26l-123 -76l-90 149l516 318q102 -103 158 -145q57 -41 97 -41t78 24l125 78l90 -150l-516 -317q-102 104 -158 145q-55 41 -93 41z" />
    <glyph glyph-name="hungarumlaut" unicode="&#x2dd;" horiz-adv-x="1208" 
d="M1321 1657l-496 -295l-139 63l158 402l418 -39zM666 1657l-496 -295l-139 63l157 402l418 -39z" />
    <glyph glyph-name="uni0326" unicode="&#x326;" horiz-adv-x="0" 
d="M-145 -170v-145l-263 -308h-221l64 193l-193 96l82 164h531z" />
    <glyph glyph-name="Delta" unicode="&#x394;" horiz-adv-x="1792" 
d="M772 1276l-432 -1081h870zM1710 0h-1628v147l563 1399l438 105l627 -1530v-121z" />
    <glyph glyph-name="Omega" unicode="&#x3a9;" horiz-adv-x="2025" 
d="M1083 2v727q97 4 181 40t131 94t47 128q0 170 -121 279t-354 108q-105 0 -193 -36t-139 -96t-51 -132q0 -143 92 -253t266 -132v-727h-629l-170 -37v512l144 62l248 -342h49v299q-219 63 -351 201q-131 139 -131 313t156 321t387 233t459 87q228 0 420 -74
q190 -74 294 -203t105 -288q0 -160 -136 -296t-345 -225v-370h49l248 344l143 -62v-512l-170 37h-629z" />
    <glyph glyph-name="mu" unicode="&#x3bc;" horiz-adv-x="1445" 
d="M856 -20v174l-199 -160q-47 -12 -88 -14v-109q-2 -53 32 -122t87 -128l-369 -141h-159v1261q0 55 -33 123t-86 127l369 142h159v-656q0 -88 26 -125q25 -37 101 -37t160 43v383q0 55 -33 123t-86 127l369 142h160v-762q-1 -55 32 -123t86 -127l-368 -141h-160z" />
    <glyph glyph-name="pi" unicode="&#x3c0;" horiz-adv-x="1609" 
d="M373 700q-134 0 -267 -79l-106 241l315 250h1233v-412h-209v-329q0 -53 33 -122t86 -128l-328 -141h-159v720h-209v-700h-488v141q53 59 86 128t33 122v309h-20z" />
    <glyph glyph-name="uni0900" unicode="&#x900;" horiz-adv-x="0" 
d="M-573 2412q0 70 -59.5 102t-192.5 32t-236.5 -68t-169.5 -180l-74 -107l-368 203q31 115 129 205t249.5 141t344.5 51t385 -67.5t313 -174t121 -218.5q0 -47 -12 -93l-103 -133l-342 189q15 48 15 118zM-1096 2318h160l250 -96v-324h-160l-250 97v323z" />
    <glyph glyph-name="candraBindudeva" unicode="&#x901;" horiz-adv-x="0" 
d="M-1139 2290q0 -70 59.5 -101.5t192.5 -31.5t236.5 67.5t169.5 179.5l73 107l369 -203q-31 -115 -129 -205t-249.5 -141t-344.5 -51t-385 67.5t-313 174t-121 219.5q0 47 12 92l103 133l342 -189q-15 -48 -15 -118zM-616 2384h-160l-250 96v324h160l250 -97v-323z" />
    <glyph glyph-name="anusvaradeva" unicode="&#x902;" horiz-adv-x="0" 
d="M-82 1956h-160l-250 96v324h160l250 -97v-323z" />
    <glyph glyph-name="visargadeva" unicode="&#x903;" horiz-adv-x="573" 
d="M492 123h-160l-250 96v324h160l250 -97v-323zM492 696h-160l-250 97v323h160l250 -96v-324zM705 1262h-828l-358 188v160h827l359 -189v-159z" />
    <glyph glyph-name="uni0904" unicode="&#x904;" horiz-adv-x="2299" 
d="M1765 608q-105 -67 -245 -67q-58 0 -111 4q-20 -72 -99 -139.5t-188.5 -109.5t-213 -42t-222.5 16l-567 299l102 133l129 -65q143 -72 348 -72q142 0 234 74q41 33 41 73t-49.5 84t-169.5 103v160q55 29 87.5 78t32.5 98t-17 66.5t-58 17.5q-74 0 -151 -58.5t-136 -158.5
l-358 188v160q76 74 228.5 125t302 51t297.5 -73.5t240.5 -192.5t92.5 -244q0 -70 -45 -135.5t-125 -116.5l24 -12q98 -43 150 -43q119 0 240.5 97.5t205.5 256.5v99h-36l-359 188v160h391l-176 141q-145 117 -262 160t-221.5 43t-237 -26.5t-241.5 -26.5q-197 0 -372 69.5
t-357 220.5l-343 283l113 125l182 -148q252 -202 484 -202q104 0 241 26.5t238 26.5q197 0 371 -69.5t358 -221.5l492 -401h168l358 -189v-164h-381v-1282h-160l-352 185l102 133v315z" />
    <glyph glyph-name="adeva" unicode="&#x905;" horiz-adv-x="2299" 
d="M1765 608q-105 -67 -245 -67q-58 0 -111 4q-20 -72 -99 -139.5t-188.5 -109.5t-213 -42t-222.5 16l-567 299l102 133l129 -65q143 -72 348 -72q142 0 234 74q41 33 41 73t-49.5 84t-169.5 103v160q55 29 87.5 78t32.5 98t-17 66.5t-58 17.5q-74 0 -151 -58.5t-136 -158.5
l-358 188v160q76 74 228.5 125t302 51t297.5 -73.5t240.5 -192.5t92.5 -244q0 -70 -45 -135.5t-125 -116.5l24 -12q98 -43 150 -43q119 0 240.5 97.5t205.5 256.5v99h-36l-359 188v160h828l358 -189v-164h-381v-1282h-160l-352 185l102 133v315z" />
    <glyph glyph-name="aadeva" unicode="&#x906;" horiz-adv-x="3035" 
d="M1765 608q-105 -67 -245 -67q-58 0 -111 4q-20 -72 -99 -139.5t-188.5 -109.5t-213 -42t-222.5 16l-567 299l102 133l129 -65q143 -72 348 -72q142 0 234 74q41 33 41 73t-49.5 84t-169.5 103v160q55 29 87.5 78t32.5 98t-17 66.5t-58 17.5q-74 0 -151 -58.5t-136 -158.5
l-358 188v160q76 74 228.5 125t302 51t297.5 -73.5t240.5 -192.5t92.5 -244q0 -70 -45 -135.5t-125 -116.5l24 -12q98 -43 150 -43q119 0 240.5 97.5t205.5 256.5v99h-36l-359 188v160h1563l358 -189v-164h-381v-1282h-160l-352 185l103 133v964h-326v-1282h-160l-352 185
l102 133v315z" />
    <glyph glyph-name="ideva" unicode="&#x907;" horiz-adv-x="1697" 
d="M791 742q0 -30 8 -48q117 31 202 31q150 0 317 -72.5t280.5 -179t113.5 -201.5q0 -70 -95 -134t-253 -107t-336 -49l164 -86q175 -93 453 -93q70 0 131 13l321 -168v-160q-100 -27 -206.5 -27t-222.5 33t-215 80t-279 143l-762 404q-164 84 -261.5 200.5t-97.5 243.5
q0 72 36 119t106 47q100 0 199.5 -101.5t172.5 -269.5q156 -70 318 -69.5t264 30t102 76.5q0 23 -23.5 41.5t-51.5 18.5q-51 0 -93 -68q-252 39 -416.5 120t-240.5 178t-76 179.5t56.5 150.5t144.5 112.5t178 44.5h332v88h-1016l-362 188v160h2052l362 -189v-159h-627v-437
h-585q-37 0 -65.5 -26.5t-28.5 -56.5z" />
    <glyph glyph-name="iideva" unicode="&#x908;" horiz-adv-x="1697" 
d="M791 742q0 -30 8 -48q117 31 202 31q150 0 317 -72.5t280.5 -179t113.5 -201.5q0 -70 -95 -134t-253 -107t-336 -49l164 -86q175 -93 453 -93q70 0 131 13l321 -168v-160q-100 -27 -206.5 -27t-222.5 33t-215 80t-279 143l-762 404q-164 84 -261.5 200.5t-97.5 243.5
q0 72 36 119t106 47q100 0 199.5 -101.5t172.5 -269.5q156 -70 318 -69.5t264 30t102 76.5q0 23 -23.5 41.5t-51.5 18.5q-51 0 -93 -68q-252 39 -416.5 120t-240.5 178t-76 179.5t56.5 150.5t144.5 112.5t178 44.5h332v88h-1016l-362 188v160h1402l-399 323q-14 80 -14 168
q0 152 67.5 280t202.5 203.5t330 75.5q94 0 203 -18l303 -244l-62 -139q-176 86 -318 86t-213 -90t-71 -242q0 -215 158 -340l80 -63h383l362 -189v-159h-627v-437h-585q-37 0 -65.5 -26.5t-28.5 -56.5z" />
    <glyph glyph-name="udeva" unicode="&#x909;" horiz-adv-x="1431" 
d="M1044 1004q0 -131 -100 -240q211 -86 337 -187.5t126 -185.5t-95 -181t-232.5 -163.5t-249 -66.5t-220.5 16l-567 299l102 133l129 -66q138 -71 338 -71t306 87q46 38 46.5 84t-33.5 78.5t-140.5 78t-372.5 141.5v160q82 35 132 95t50 120q0 127 -84 127h-450l-363 188
v160h1520l362 -189l2 -161h-641q98 -125 98 -256z" />
    <glyph glyph-name="uudeva" unicode="&#x90a;" horiz-adv-x="2412" 
d="M1042 1004q0 -131 -100 -240l90 -37q106 141 174 214t169.5 123t246.5 50t302 -69.5t262.5 -188.5t105.5 -257t-92.5 -241.5t-247.5 -142.5l-342 188v160q63 -12 118 -12t88 44t33 124q0 125 -82 125t-145 -56.5t-132 -146.5t-120 -152q37 -51 37 -102q0 -80 -95 -177
t-232.5 -163.5t-249 -66.5t-220.5 16l-567 299l102 133l129 -66q138 -71 338 -71t306 87q46 38 46.5 84t-33.5 78.5t-140.5 78t-372.5 141.5v160q82 35 132 95t50 120q0 127 -84 127h-450l-363 188v160h2687l360 -189v-159l-1806 -2q98 -125 98 -256z" />
    <glyph glyph-name="rvocalicdeva" unicode="&#x90b;" horiz-adv-x="3145" 
d="M1884 225q0 162 123 281l-12 61h-13q-104 0 -231 41v-628h-160l-352 184l102 133v125q-176 -113 -436 -234l-358 189v160q293 98 508 202q-90 49 -183 49q-211 0 -481 -167l-321 167v160q223 96 334.5 130t221.5 34t228.5 -40t273.5 -165l97 -76q63 37 116 74v357h-1321
l-358 188v160h3453l363 -189v-159l-1729 -2v-426q27 -2 98.5 -2.5t157.5 51.5q45 135 150.5 220t220.5 85t249 -45t227 -118t93 -151q0 -98 -146.5 -170.5t-361.5 -107.5q25 -88 129 -158v-159q-66 12 -119.5 12t-86.5 -51.5t-33 -145.5q0 -166 81.5 -166t154.5 102.5
t126 280.5l342 -188v-160q-117 -172 -227.5 -238.5t-252.5 -66.5t-299 74.5t-262.5 202.5t-105.5 290z" />
    <glyph glyph-name="lvocalicdeva" unicode="&#x90c;" horiz-adv-x="2082" 
d="M1962 598q0 -72 -50 -134.5t-157 -153.5t-165 -166.5t-58 -183.5t84 -107q59 0 115.5 68.5t101.5 191.5l342 -189v-160q-90 -80 -177 -110.5t-209 -30.5t-277.5 74t-258 190.5t-102.5 239.5q0 84 50 152.5t157 173.5q100 94 151.5 163.5t51.5 149.5q0 115 -91.5 115
t-166 -78t-166.5 -221l-64 -95l-260 144v160l25 30q-35 20 -76 21q-86 0 -143.5 -66.5t-57.5 -165t38 -170t120 -137.5l184 -147l-102 -133l-668 540q-14 55 -14 139t55 183.5t166 163t293 63.5t364 -102q80 70 183 92v160h-1157l-361 188v160h2398l361 -189v-159l-832 -2
v-218q162 -70 267.5 -188.5t105.5 -255.5z" />
    <glyph glyph-name="ecandradeva" unicode="&#x90d;" horiz-adv-x="1466" 
d="M954 956q0 102 -30 308h-295q-53 -260 -53.5 -465.5t47 -306.5t153.5 -154l201 -107q256 -135 356.5 -330.5t108.5 -439.5h-160l-250 97q0 199 -62.5 360.5t-197.5 233.5l-262 139q-199 106 -271.5 232t-72.5 299t61 440h-202l-363 188v160h1698l362 -189v-157h-426
q70 -248 70 -422q0 -341 -176 -465l-342 188v160q106 67 106 231zM752 2290q0 -70 59 -101.5t192 -31.5t236.5 67.5t169.5 179.5l74 107l368 -203q-31 -115 -129 -205t-249.5 -141t-344 -51t-385 67.5t-313.5 174t-121 219.5q0 47 13 92l102 133l342 -189q-14 -48 -14 -118z
" />
    <glyph glyph-name="eshortdeva" unicode="&#x90e;" horiz-adv-x="1466" 
d="M954 956q0 102 -30 308h-295q-53 -260 -53.5 -465.5t47 -306.5t153.5 -154l201 -107q256 -135 356.5 -330.5t108.5 -439.5h-160l-250 97q0 199 -62.5 360.5t-197.5 233.5l-262 139q-199 106 -271.5 232t-72.5 299t61 440h-202l-363 188v160h1190l-176 141
q-145 117 -262 160t-221.5 43t-237 -26.5t-242.5 -26.5q-197 0 -372 69.5t-357 220.5l-342 283l113 125l182 -148q251 -202 483 -202q104 0 241.5 26.5t238.5 26.5q197 0 370.5 -69.5t358.5 -221.5l491 -401h240l362 -189v-157h-426q70 -248 70 -422q0 -341 -176 -465
l-342 188v160q106 67 106 231z" />
    <glyph glyph-name="edeva" unicode="&#x90f;" horiz-adv-x="1466" 
d="M954 956q0 102 -30 308h-295q-53 -260 -53.5 -465.5t47 -306.5t153.5 -154l201 -107q256 -135 356.5 -330.5t108.5 -439.5h-160l-250 97q0 199 -62.5 360.5t-197.5 233.5l-262 139q-199 106 -271.5 232t-72.5 299t61 440h-202l-363 188v160h1698l362 -189v-157h-426
q70 -248 70 -422q0 -341 -176 -465l-342 188v160q106 67 106 231z" />
    <glyph glyph-name="aideva" unicode="&#x910;" horiz-adv-x="1466" 
d="M954 956q0 102 -30 308h-295q-53 -260 -53.5 -465.5t47 -306.5t153.5 -154l201 -107q256 -135 356.5 -330.5t108.5 -439.5h-160l-250 97q0 199 -62.5 360.5t-197.5 233.5l-262 139q-199 106 -271.5 232t-72.5 299t61 440h-202l-363 188v160h1188l-334 266
q-147 117 -263 160t-228.5 43t-198.5 -27l-358 189v159q133 27 300 27q345 0 701 -291l651 -526h240l362 -189v-157h-426q70 -248 70 -422q0 -341 -176 -465l-342 188v160q106 67 106 231z" />
    <glyph glyph-name="ocandradeva" unicode="&#x911;" horiz-adv-x="3035" 
d="M1765 608q-105 -67 -245 -67q-58 0 -111 4q-20 -72 -99 -139.5t-188.5 -109.5t-213 -42t-222.5 16l-567 299l102 133l129 -65q143 -72 348 -72q142 0 234 74q41 33 41 73t-49.5 84t-169.5 103v160q55 29 87.5 78t32.5 98t-17 66.5t-58 17.5q-74 0 -151 -58.5t-136 -158.5
l-358 188v160q76 74 228.5 125t302 51t297.5 -73.5t240.5 -192.5t92.5 -244q0 -70 -45 -135.5t-125 -116.5l24 -12q98 -43 150 -43q119 0 240.5 97.5t205.5 256.5v99h-36l-359 188v160h1540l23 -4l358 -189v-160h-381v-1282h-160l-352 185l103 133v964h-326v-1282h-160
l-352 185l102 133v315zM2773 1911q-193 0 -385.5 67.5t-313 174t-120.5 219.5q0 47 12 92l102 133l342 -189q-14 -49 -14 -118.5t59.5 -101t192.5 -31.5t236.5 67.5t169.5 179.5l73 107l369 -203q-31 -115 -129 -205t-249.5 -141t-344.5 -51z" />
    <glyph glyph-name="oshortdeva" unicode="&#x912;" horiz-adv-x="3035" 
d="M1765 608q-105 -67 -245 -67q-58 0 -111 4q-20 -72 -99 -139.5t-188.5 -109.5t-213 -42t-222.5 16l-567 299l102 133l129 -65q143 -72 348 -72q142 0 234 74q41 33 41 73t-49.5 84t-169.5 103v160q55 29 87.5 78t32.5 98t-17 66.5t-58 17.5q-74 0 -151 -58.5t-136 -158.5
l-358 188v160q76 74 228.5 125t302 51t297.5 -73.5t240.5 -192.5t92.5 -244q0 -70 -45 -135.5t-125 -116.5l24 -12q98 -43 150 -43q119 0 240.5 97.5t205.5 256.5v99h-36l-359 188v160h1127l-177 141q-145 117 -261.5 160t-221 43t-238 -26.5t-241.5 -26.5q-197 0 -372 69.5
t-357 220.5l-342 283l112 125l183 -148q251 -202 483 -202q104 0 242 26.5t237 26.5q197 0 371 -69.5t358 -221.5l492 -401h168l358 -189v-164h-381v-1282h-160l-352 185l103 133v964h-326v-1282h-160l-352 185l102 133v315z" />
    <glyph glyph-name="odeva" unicode="&#x913;" horiz-adv-x="3035" 
d="M1765 608q-105 -67 -245 -67q-58 0 -111 4q-20 -72 -99 -139.5t-188.5 -109.5t-213 -42t-222.5 16l-567 299l102 133l129 -65q143 -72 348 -72q142 0 234 74q41 33 41 73t-49.5 84t-169.5 103v160q55 29 87.5 78t32.5 98t-17 66.5t-58 17.5q-74 0 -151 -58.5t-136 -158.5
l-358 188v160q76 74 228.5 125t302 51t297.5 -73.5t240.5 -192.5t92.5 -244q0 -70 -45 -135.5t-125 -116.5l24 -12q98 -43 150 -43q119 0 240.5 97.5t205.5 256.5v99h-36l-359 188v160h1124l-333 266q-147 117 -263 160t-228.5 43t-199.5 -27l-358 189v159q133 27 300 27
q344 0 702 -291l651 -526h168l358 -189v-164h-381v-1282h-160l-352 185l103 133v964h-326v-1282h-160l-352 185l102 133v315z" />
    <glyph glyph-name="audeva" unicode="&#x914;" horiz-adv-x="3035" 
d="M1765 608q-105 -67 -245 -67q-58 0 -111 4q-20 -72 -99 -139.5t-188.5 -109.5t-213 -42t-222.5 16l-567 299l102 133l129 -65q143 -72 348 -72q142 0 234 74q41 33 41 73t-49.5 84t-169.5 103v160q55 29 87.5 78t32.5 98t-17 66.5t-58 17.5q-74 0 -151 -58.5t-136 -158.5
l-358 188v160q76 74 228.5 125t302 51t297.5 -73.5t240.5 -192.5t92.5 -244q0 -70 -45 -135.5t-125 -116.5l24 -12q98 -43 150 -43q119 0 240.5 97.5t205.5 256.5v99h-36l-359 188v160h774l-108 86q-145 117 -262 159.5t-229.5 42.5t-198.5 -26l-359 188v160q133 27 301 27
q344 0 701 -291l424 -346h256l-633 504q-145 117 -262 159.5t-229.5 42.5t-198.5 -26l-359 188v160q353 72 641 -44q174 -70 361 -220l958 -772l344 -181v-164h-381v-1282h-160l-352 185l103 133v964h-326v-1282h-160l-352 185l102 133v315z" />
    <glyph glyph-name="kadeva" unicode="&#x915;" horiz-adv-x="2205" 
d="M1413 1110q145 0 302 -69.5t262.5 -188.5t105.5 -257t-92.5 -241.5t-247.5 -142.5l-342 188v160q66 -12 112 -12q78 0 121 54t47 155q0 125 -84 125q-68 -2 -119 -52.5t-108 -132.5t-65 -90v-626h-160l-352 184l59 78q-41 -4 -64 -4q-145 0 -301.5 69.5t-262 188
t-105.5 257t92 242t248 142.5l342 -189v-160q-63 12 -127 12.5t-107 -54t-47 -154.5q0 -125 84 -125q72 2 127 58.5t123 156.5l37 53l6 6v521h-874l-361 188v160h2521l361 -189v-159l-1239 -2v-160q55 10 108 10z" />
    <glyph glyph-name="khadeva" unicode="&#x916;" horiz-adv-x="2736" 
d="M1096 719q0 -133 -65.5 -245t-170.5 -169l473 -252l-102 -133l-756 402q-137 68 -239.5 175t-102.5 194t73 130t196 43t270 -37q6 47 6 99q0 166 -64 336h-548l-363 188v160h2931l358 -189v-159h-381v-1282h-160l-352 184l76 98q-61 -12 -137 -12q-154 0 -321 68.5
t-278.5 184t-111.5 253t92 241t248 142.5l342 -189v-159q-63 12 -127 12t-108.5 -55.5t-44.5 -133.5q0 -146 124 -145q76 0 136.5 53t152.5 174l60 76v492h-1258q152 -243 152 -545z" />
    <glyph glyph-name="gadeva" unicode="&#x917;" horiz-adv-x="1841" 
d="M1716 1262v-1282h-160l-352 184l103 133v965h-326v-627q0 -88 -56.5 -176t-138 -143.5t-162.5 -55.5t-200 78t-205 186.5t-86 190.5q0 150 250 149q80 0 188 -22v420h-546l-363 188v160h2077l358 -189v-159h-381z" />
    <glyph glyph-name="ghadeva" unicode="&#x918;" horiz-adv-x="1980" 
d="M1444 1262h-574v-82q-59 14 -133.5 14t-131 -32t-56.5 -89t49 -106q55 20 121 30l362 -188v-160q-49 10 -113.5 10t-117.5 -31.5t-79 -78.5t-26 -88q0 -92 138 -92q172 0 300 77.5t261 231.5v584zM1853 1262v-1282h-159l-348 182q-121 -39 -289.5 -39t-349.5 70.5
t-291.5 183t-110.5 235.5t101 230q-131 57 -214 143t-83 197q0 43 12 80h-133l-363 188v160h2253l358 -189l-2 -159h-381z" />
    <glyph glyph-name="ngadeva" unicode="&#x919;" horiz-adv-x="1964" 
d="M1989 653h-160l-250 97v323h160l250 -96v-324zM2322 1260h-913v-437h-586q-37 0 -65.5 -26.5t-28.5 -56.5t8 -48q117 31 203 31q150 0 316.5 -72.5t280.5 -179t114 -201.5q0 -72 -101.5 -139.5t-268.5 -109t-322.5 -41.5t-243.5 16l-709 573l109 129l305 -245
q201 -162 453 -162q125 0 221 29.5t96 76.5q0 23 -23.5 41.5t-52.5 18.5q-51 0 -92 -68q-190 41 -360 124t-271.5 181.5t-101.5 176.5t56 146t144.5 112.5t178.5 44.5h331v88h-995l-362 188v160h2318l362 -191v-159z" />
    <glyph glyph-name="cadeva" unicode="&#x91a;" horiz-adv-x="2045" 
d="M2302 1260h-381v-1283h-160l-352 185l76 98q-61 -12 -137 -12q-154 0 -321 68.5t-278.5 184t-111.5 251.5q0 25 2 36h-248l-360 189v160h946l342 -189v-160q-66 12 -128.5 12.5t-107.5 -55t-45 -133.5q0 -146 125 -145q76 0 136.5 53t152.5 174l59 76v492h-1488l-361 188
v160h2282l358 -191v-159z" />
    <glyph glyph-name="chadeva" unicode="&#x91b;" horiz-adv-x="2326" 
d="M1671 678q0 -166 90 -166q18 0 37 6q41 78 41 166t-19.5 153.5t-56.5 65.5l-2 2q-37 0 -63.5 -64.5t-26.5 -162.5zM786.5 977q-69.5 0 -131 -25.5t-61.5 -70.5q0 -27 24 -45q61 16 125 16l363 -188v-160q-63 10 -148 10t-136.5 -41t-51.5 -102.5t66.5 -104.5t193.5 -43
q369 0 580 113q-164 72 -271.5 195.5t-107.5 258t77.5 228.5t200.5 129v110h-854l260 -135v-159q-59 14 -128.5 14zM2281 506q0 -260 -251.5 -393t-681.5 -133q-283 0 -515.5 65.5t-368.5 184t-136 274.5q0 102 63 188q-109 55 -174 141.5t-65 194.5q0 160 100 234h-264
l-363 188v160h2534l362 -189v-159h-602v-181q158 -90 260 -248.5t102 -326.5z" />
    <glyph glyph-name="jadeva" unicode="&#x91c;" horiz-adv-x="1861" 
d="M1737 1262v-1282h-160l-352 184l102 133v219h-293l53 -43q15 -55 15 -135t-61.5 -167t-169 -139t-253.5 -52t-260 38l-280 226l61 139q246 -106 367 -107q70 0 112 46t41.5 118t-37 147t-106.5 132l-14 12l102 133h723v398h-1302l-363 188v160h2097l359 -189v-159h-381z
" />
    <glyph glyph-name="jhadeva" unicode="&#x91d;" horiz-adv-x="2371" 
d="M1835 1262h-367v-437h-585q-37 0 -66 -26.5t-29 -56.5t9 -48q117 31 207.5 31t205.5 -33q59 -14 185 -14l-2 -2q114 0 241 107.5t201 265.5v213zM2247 1264v-1282h-160l-352 184l102 133v186q-88 -55 -186 -67q61 -78 61 -147t-95 -133t-253 -107t-336 -49l164 -86
q175 -93 453 -93q70 0 131 13l321 -168v-160q-100 -27 -206.5 -27t-222.5 33t-215 80t-279 143l-762 404q-164 84 -261.5 200.5t-97.5 243.5q0 72 36 119t106 47q100 0 199.5 -101.5t172.5 -269.5q156 -70 318 -69.5t264 30t102 76.5q0 23 -23.5 41.5t-51.5 18.5
q-51 0 -93 -68q-252 39 -416.5 120t-240.5 178t-76 179.5t56.5 150.5t144.5 112.5t178 44.5h332v88h-1016l-362 188v160h2586l359 -189v-157h-381z" />
    <glyph glyph-name="nyadeva" unicode="&#x91e;" horiz-adv-x="1882" 
d="M1759 1262v-1282h-160l-352 184l103 133v199q-43 -4 -136 -9q-57 -123 -197 -198.5t-313.5 -75.5t-285.5 39l-281 225l62 139q246 -106 367.5 -106t184 61.5t62.5 142.5q0 152 -94 152q-51 0 -97.5 -55t-80.5 -154l-342 189v160q72 53 184.5 94t212 41t217 -41
t217.5 -114t156 -165q94 61 162 158v283h-1325l-361 188v160h2118l358 -189l2 -159h-381z" />
    <glyph glyph-name="ttadeva" unicode="&#x91f;" horiz-adv-x="1681" 
d="M569 422.5q0 -97.5 58.5 -153.5t171 -56t223.5 72.5t233 232.5l342 -188v-160q-106 -86 -270 -138t-349 -52t-384 95t-323 245.5t-124 290t76 246t203 171t268 64.5h25v170h-715l-342 188v160h2015l342 -189v-159h-891v-519h-254q-88 0 -157.5 -40.5t-108.5 -111.5
t-39 -168.5z" />
    <glyph glyph-name="tthadeva" unicode="&#x920;" horiz-adv-x="1812" 
d="M1128 743h-254q-133 0 -219 -85t-86 -246q0 -86 58.5 -142.5t156.5 -56.5q211 0 324.5 113.5t114.5 310.5q-1 125 -95 180v-74zM1665 467q0 -131 -88 -244.5t-241.5 -178t-351.5 -64.5t-394.5 95t-319.5 247.5t-123 295t80 248t207 166t260 60.5h25v170h-715l-342 188
v160h2146l342 -189v-159h-1022v-185q150 -55 272 -149t193.5 -212t71.5 -249z" />
    <glyph glyph-name="ddadeva" unicode="&#x921;" horiz-adv-x="1697" 
d="M729 740q0 -30 8 -48q117 31 203 31q150 0 316.5 -72.5t280.5 -179t114 -201.5q0 -72 -101.5 -139.5t-268.5 -109t-322.5 -41.5t-243.5 16l-709 573l109 129l305 -245q201 -162 453 -162q125 0 221 29.5t96 76.5q0 23 -23.5 41.5t-52.5 18.5q-51 0 -92 -68
q-190 41 -360 124t-271.5 181.5t-101.5 176.5t56 146t144.5 112.5t178.5 44.5h331v88h-995l-362 188v160h1953l363 -189v-159h-549v-437h-586v-2q-37 0 -65.5 -26.5t-28.5 -56.5z" />
    <glyph glyph-name="ddhadeva" unicode="&#x922;" horiz-adv-x="1619" 
d="M1079 299q0 -61 82 -61q14 0 39 4q4 20 4 50.5t-16.5 60.5t-42.5 30v2q-27 0 -46.5 -25.5t-19.5 -60.5zM518 550q0 -91 66.5 -178t175 -147.5t227.5 -74.5q-147 70 -248.5 173t-101.5 189q0 168 233 168q147 0 323.5 -80t298.5 -193.5t122 -212.5t-114 -156.5t-348 -57.5
t-468.5 101t-376 268t-141.5 356q0 104 57.5 193t153.5 141.5t209 52.5h291v170h-873l-342 188v160h1954l342 -189v-159h-672v-519h-483q-139 0 -212 -51t-73 -142z" />
    <glyph glyph-name="nnadeva" unicode="&#x923;" horiz-adv-x="2105" 
d="M575 1262v-463q0 -152 117 -152q35 0 76 25.5t69.5 75t32.5 114.5v400h-295zM1980 1262v-1282h-159l-353 184l103 133v965h-291v-484q-2 -88 -63.5 -176t-164 -144.5t-232.5 -56.5t-286.5 63.5t-262 173.5t-105.5 236v388h-141l-363 188v160h2341l358 -189v-159h-381z
" />
    <glyph glyph-name="tadeva" unicode="&#x924;" horiz-adv-x="1536" 
d="M164 428q0 436 500 436h337v398h-981l-358 188v160h1772l358 -189v-159h-381v-1282h-160l-352 184l102 133v219h-198q-197 0 -197 -176q0 -66 29 -108t98 -78l109 -60l-103 -133l-561 295q-14 72 -14 172z" />
    <glyph glyph-name="thadeva" unicode="&#x925;" horiz-adv-x="1878" 
d="M621 1130q0 263 -60 263v2q-31 0 -48 -45t-17 -117q0 -129 84 -129q23 0 41 6v20zM1751 1260v-1283h-160l-352 185l102 133v51q-190 -90 -450 -90q-164 0 -341 66.5t-314.5 165t-182.5 188.5l103 133q14 -2 30 -2q193 0 312 86q-184 57 -313.5 176t-129.5 260
q0 80 52.5 153.5t140.5 120t206.5 46.5t266 -83t246 -224.5t98.5 -314.5t-143.5 -300t-382.5 -164q66 -61 197 -61t221 34.5t179 113.5t207 222v390h-36l-359 188v160h828l358 -189l-2 -161h-381z" />
    <glyph glyph-name="dadeva" unicode="&#x926;" horiz-adv-x="1599" 
d="M856 424q0 205 152 205q113 0 247 -62.5t227 -160t93 -197.5q0 -66 -58.5 -122t-162.5 -85l360 -190l-102 -134l-592 314q-231 31 -427 140.5t-311.5 269t-115.5 331.5q0 90 60.5 173t157.5 134.5t202 51.5h209v170h-791l-342 188v160h1933l342 -189v-159h-733v-519h-401
l2 2q-146 0 -215.5 -61t-69.5 -162.5t64.5 -170t169.5 -68.5q55 0 114 20q-12 61 -12 121z" />
    <glyph glyph-name="dhadeva" unicode="&#x927;" horiz-adv-x="2205" 
d="M891 651q0 -149 266 -149q217 0 353 120q68 60 161 169v471h-37l-358 188v160h827l359 -189v-159h-381v-1282h-160l-352 184l102 133v22q-126 -63 -339.5 -63t-425.5 77t-334.5 201.5t-122.5 253t83 216.5q-385 219 -385 481q0 150 115 237.5t288 87.5t327.5 -55
t253 -143t98.5 -178q0 -61 -49.5 -110.5t-136.5 -78t-195 -28.5q-20 0 -29 2l-129 106v160q33 -12 52 -12t31.5 11t12.5 27q0 43 -64 43t-98 -43t-34 -121q0 -164 141 -276q66 16 133 16l363 -188v-160q-53 10 -140.5 10.5t-141.5 -37.5t-54 -104z" />
    <glyph glyph-name="nadeva" unicode="&#x928;" horiz-adv-x="1648" 
d="M1524 1262v-1282h-160l-352 184l102 133v219h-260q-37 -104 -106.5 -180t-145.5 -76t-189.5 79t-196.5 187.5t-83 189.5t105.5 114.5t353.5 33.5h522v398h-1089l-363 188v160h1884l359 -189v-159h-381z" />
    <glyph glyph-name="nnnadeva" unicode="&#x929;" horiz-adv-x="1648" 
d="M1524 1262v-1282h-160l-352 184l102 133v219h-260q-37 -104 -106.5 -180t-145.5 -76t-189.5 79t-196.5 187.5t-83 189.5t105.5 114.5t353.5 33.5h522v398h-1089l-363 188v160h1884l359 -189v-159h-381zM809 -453h-160l-250 97v323h160l250 -96v-324z" />
    <glyph glyph-name="padeva" unicode="&#x92a;" horiz-adv-x="1490" 
d="M578 1264v-422q0 -193 116 -193q57 0 103.5 50.5t117.5 160.5l43 66v338h-380zM1749 1262h-381v-1282h-160l-352 184l102 133v117q-55 -12 -122 -13q-145 0 -302 70t-262.5 188.5t-105.5 255.5v347h-141l-363 188v160h1727l360 -189v-159z" />
    <glyph glyph-name="uni092B" unicode="&#x92b;" horiz-adv-x="2267" 
d="M958 1262h-380v-422q0 -193 116 -193v2q58 0 104 50.5t117 160.5l43 66v336zM1479 1112q145 0 301.5 -69.5t262 -188.5t105.5 -257t-92 -241.5t-248 -142.5l-342 188v160q66 -12 120 -12t87 44t33 124q0 125 -84 125q-57 0 -104.5 -46t-122.5 -153l-27 -37v-626h-160
l-352 184l102 133v117q-55 -12 -122 -13q-145 0 -302 70t-262.5 188.5t-105.5 255.5v347h-141l-363 188v160h2601l342 -189v-159h-1237v-160q55 10 111 10z" />
    <glyph glyph-name="uni092C" unicode="&#x92c;" horiz-adv-x="1533" 
d="M659.5 465q67.5 0 143.5 70l-242 196q-35 -53 -35 -141h-2q0 -58 34 -91.5t101.5 -33.5zM1790 1260h-381v-1283h-160l-352 185l76 98q-61 -12 -137 -12q-154 0 -321 68.5t-278.5 184t-111.5 253t92 241t248 142.5l342 -189v-160q-20 4 -57 9l165 -133l84 106v492h-976
l-361 188v160h1770l358 -191v-159z" />
    <glyph glyph-name="bhadeva" unicode="&#x92d;" horiz-adv-x="1800" 
d="M528 1217q0 111 -11 145.5t-41 34.5t-51.5 -31t-21.5 -79q0 -99 84 -99v2q23 0 41 6v21zM1675 1264v-1282h-159l-353 184l103 133v219h-365q-37 -104 -106.5 -180t-135.5 -76q-94 0 -218 78t-213 186.5t-89 186.5t90 112.5t299 38.5v84q-137 20 -268 87t-215 166
t-84 206.5t95.5 175.5t240.5 68t294.5 -72t248 -195.5t98.5 -267.5v-252h328v398h-37l-359 188v160h828l358 -189v-157h-381z" />
    <glyph glyph-name="madeva" unicode="&#x92e;" horiz-adv-x="1855" 
d="M1321 1262h-389v-398h389v398zM1731 1262v-1282h-160l-352 184l102 133v219h-426q-37 -104 -106.5 -180t-135.5 -76q-94 0 -218 78t-213 186.5t-89 186.5t90 112.5t299 38.5v400h-497l-363 188v160h2091l358 -189v-159h-380z" />
    <glyph glyph-name="uni092F" unicode="&#x92f;" horiz-adv-x="1605" 
d="M1071 1264h-405q86 -139 86 -289q0 -106 -68 -190.5t-186 -131.5q35 -94 146.5 -94t232 81t194.5 196v428zM1481 1262v-1282h-160l-352 184l102 133v68q-121 -51 -272.5 -51.5t-306 68.5t-278.5 168t-165 181l103 133q70 16 113.5 81t43.5 165t-14 152h-158l-362 188v160
h1728l359 -189v-159h-381z" />
    <glyph glyph-name="radeva" unicode="&#x930;" horiz-adv-x="1181" 
d="M1096 719q0 -133 -65.5 -245t-170.5 -169l473 -252l-102 -133l-756 402q-137 68 -239.5 175t-102.5 194t73 130t196 43t270 -37q6 47 6 99q0 166 -64 336h-548l-363 188v160h1454l363 -189v-157h-576q152 -243 152 -545z" />
    <glyph glyph-name="rradeva" unicode="&#x931;" horiz-adv-x="1181" 
d="M1096 719q0 -133 -65.5 -245t-170.5 -169l473 -252l-102 -133l-756 402q-137 68 -239.5 175t-102.5 194t73 130t196 43t270 -37q6 47 6 99q0 166 -64 336h-548l-363 188v160h1454l363 -189v-157h-576q152 -243 152 -545zM803 -453h-160l-250 97v323h160l250 -96v-324z
" />
    <glyph glyph-name="uni0932" unicode="&#x932;" horiz-adv-x="2025" 
d="M1896 1260v-1283h-159l-353 185l103 133v176q-104 -53 -262 -115l-342 189v160l55 18q-10 63 -35.5 90t-73.5 27q-82 0 -136 -64t-54 -162t46 -161.5t151 -116.5l208 -111l-75 -149l-758 403q-14 91 -14 191t52 203.5t162.5 170t264.5 66.5t296 -68.5t249 -187.5
q193 113 270 213v195h-1471l-358 188v160h2261l358 -189l-4 -161h-381z" />
    <glyph glyph-name="lladeva" unicode="&#x933;" horiz-adv-x="2205" 
d="M1507 549q176 0 176 209q0 70 -21.5 101.5t-68.5 31.5t-89 -32t-87 -89t-143 -197l-37 -51q-74 -106 -128 -168q-124 -141 -314 -141q-147 0 -305 71.5t-263.5 193.5t-105.5 259t91 241.5t249 143.5l342 -188v-160q-66 12 -105 12q-86 0 -131 -53t-45 -139t21.5 -118
t75.5 -32t104.5 53.5t140.5 190.5l47 72q106 160 183 239.5t188 108.5v154h-1259l-361 188v160h2521l361 -189v-159l-852 2v-201q170 -70 281.5 -197t111.5 -266t-91 -243.5t-249 -143.5l-342 188v160q66 -12 104 -12z" />
    <glyph glyph-name="llladeva" unicode="&#x934;" horiz-adv-x="2205" 
d="M1507 549q176 0 176 209q0 70 -21.5 101.5t-68.5 31.5t-89 -32t-87 -89t-143 -197l-37 -51q-74 -106 -128 -168q-124 -141 -314 -141q-147 0 -305 71.5t-263.5 193.5t-105.5 259t91 241.5t249 143.5l342 -188v-160q-66 12 -105 12q-86 0 -131 -53t-45 -139t21.5 -118
t75.5 -32t104.5 53.5t140.5 190.5l47 72q106 160 183 239.5t188 108.5v154h-1259l-361 188v160h2521l361 -189v-159l-852 2v-201q170 -70 281.5 -197t111.5 -266t-91 -243.5t-249 -143.5l-342 188v160q66 -12 104 -12zM1346 -373h-160l-250 97v323h160l250 -96v-324z" />
    <glyph glyph-name="vadeva" unicode="&#x935;" horiz-adv-x="1533" 
d="M1790 1260h-381v-1283h-160l-352 185l76 98q-61 -12 -137 -12q-154 0 -321 68.5t-278.5 184t-111.5 253t92 241t248 142.5l342 -189v-160q-66 12 -128.5 12.5t-107.5 -55t-45 -133.5q0 -146 125 -145q76 0 136.5 53t152.5 174l59 76v492h-976l-361 188v160h1770l358 -191
v-159z" />
    <glyph glyph-name="shadeva" unicode="&#x936;" horiz-adv-x="2025" 
d="M596 1286q0 -98 84 -98q27 0 51 12q-6 123 -20.5 160t-43 37t-50 -31t-21.5 -80zM1898 1264v-1282h-159l-353 184l103 133v965h-37l-358 188v160h827l358 -189v-159h-381zM745 260q-104 0 -240 78t-233.5 185.5t-97.5 183.5q0 157 289 157q119 0 250 -24q14 55 18 108
q-137 18 -271 85t-219 167t-85 207.5t95 175.5t244.5 68t299 -84t249 -254t99.5 -416l-2 2q0 -225 -70 -381l293 -156l-102 -133l-279 148q-105 -117 -238 -117z" />
    <glyph glyph-name="ssadeva" unicode="&#x937;" horiz-adv-x="1490" 
d="M578 840q0 -193 116 -193v2q49 0 90 39t93 115l-299 241v-204zM578 1262v-2l380 -308v310h-380zM1749 1262h-381v-1282h-160l-352 184l102 133v117q-55 -12 -122 -13q-145 0 -302 70t-262.5 188.5t-105.5 255.5v347h-141l-363 188v160h1727l360 -189v-159z" />
    <glyph glyph-name="sadeva" unicode="&#x938;" horiz-adv-x="1998" 
d="M1462 1262h-520q113 -176 143 -398q82 -33 146.5 -33t118 26t112.5 93v312zM2253 1262h-381v-1282h-160l-352 184l102 133v190q-43 -10 -112.5 -10t-139.5 31l-127 100q-23 -100 -82 -180t-141 -123l473 -252l-102 -133l-756 402q-137 68 -239.5 175t-102.5 194t73 130
t196 43t270 -37q6 47 6 99q0 166 -64 336h-548l-363 188v160h2193l357 -189v-159z" />
    <glyph glyph-name="hadeva" unicode="&#x939;" horiz-adv-x="1394" 
d="M733 784q-104 0 -104 -84q0 -51 35 -86q152 -14 306 -87.5t254.5 -179t100.5 -198t-43 -158t-143 -141.5l-359 189v160q57 29 80 53t23 59t-29 56.5t-78 21.5q-94 0 -156.5 -71.5t-63.5 -160t24.5 -135.5t87 -92t184.5 -110l428 -228l-102 -133l-1051 553q-14 82 -14 150
q0 147 62.5 253.5t178.5 157.5l-155 82q-14 55 -15 119q0 178 99.5 268.5t322.5 90.5h86v129h-545l-342 188v160h1504l342 -189v-159h-549v-478h-369z" />
    <glyph glyph-name="uni093A" unicode="&#x93a;" horiz-adv-x="0" 
d="M-123 1430h-160l-249 96v901h159l250 -96v-901z" />
    <glyph glyph-name="uni093B" unicode="&#x93b;" 
d="M610 1262v-1282h-159l-353 184l103 133v965h-37l-359 188v160h396v817h159l250 -96v-721h23l358 -189v-159h-381z" />
    <glyph glyph-name="nuktadeva" unicode="&#x93c;" horiz-adv-x="0" 
d="M-82 -492h-160l-250 97v323h160l250 -96v-324z" />
    <glyph glyph-name="avagrahadeva" unicode="&#x93d;" horiz-adv-x="1570" 
d="M772 1102q0 -70 90 -143t248 -172t237 -154q189 -132 189 -232t-95 -197q-95 -98 -243 -160t-263 -62q-116 0 -196 14l-708 573l108 129l305 -245q94 -76 198 -119t178 -43q144 0 235 91q39 40 39 81q0 67 -87 139t-244 176t-239 165q-194 142 -194 257q0 82 94 179
t231 164t254 67h611l358 -189v-159l-846 4q-64 0 -124 -24t-98 -62t-38 -78z" />
    <glyph glyph-name="uni093E" unicode="&#x93e;" 
d="M610 1262v-1282h-159l-353 184l103 133v965h-37l-359 188v160h828l358 -189v-159h-381z" />
    <glyph glyph-name="uni093F" unicode="&#x93f;" 
d="M195 1610q-224 206 -224 399q0 92 70 151.5t192 59.5l3 2q276 0 493 -151.5t408 -479.5l-136 -112q-96 184 -228 289.5t-249.5 105.5t-117.5 -100q0 -70 57 -162h149v-164l13 -12h-15v-1456h-159l-353 184l103 133v965h-164l-232 188v160h390z" />
    <glyph glyph-name="uni0940" unicode="&#x940;" 
d="M-12.5 1803.5q-106.5 68.5 -212 68.5t-105.5 -104q0 -51 36 -120t99 -137v99h379q-90 125 -196.5 193.5zM610 1262v-1282h-159l-353 184l103 133v965h-37l-332 174h-137q-225 139 -341 290.5t-116 263t69.5 171t192.5 59.5q272 0 487.5 -147.5t401.5 -462.5h244l358 -189
v-159h-381z" />
    <glyph glyph-name="uvowelsigndeva" unicode="&#x941;" horiz-adv-x="0" 
d="M-504 -479q-99 0 -178 -189l-342 189v160q61 31 162.5 52t183.5 21q139 0 288.5 -67.5t249 -180t99.5 -241.5q0 -84 -90 -185.5t-220 -172t-247 -70.5t-207 16l-569 301l102 133l96 -49q172 -90 404 -90q94 0 177 38t134 98.5t51 114.5t-26.5 88t-67.5 34z" />
    <glyph glyph-name="uuvowelsigndeva" unicode="&#x942;" horiz-adv-x="0" 
d="M-571 -557q-94 0 -177 -38t-134.5 -98.5t-51.5 -114.5t26.5 -88t71.5 -34t91.5 50.5t82.5 138.5l343 -189v-160q-61 -31 -163 -52t-184 -21q-139 0 -288.5 67.5t-249 180t-99.5 241.5q0 84 90.5 185.5t220.5 172t246.5 70.5t206.5 -16l570 -301l-103 -133l-96 49
q-172 90 -403 90z" />
    <glyph glyph-name="rvocalicvowelsigndeva" unicode="&#x943;" horiz-adv-x="0" 
d="M-698 -961q114 0 254 240l342 -188v-160q-70 -37 -182.5 -65.5t-230 -28.5t-272.5 69.5t-257.5 187.5t-102.5 253t94.5 248.5t235.5 191.5l342 -188v-160q-150 0 -231.5 -74t-81.5 -190q0 -63 23.5 -99.5t66.5 -36.5z" />
    <glyph glyph-name="rrvocalicvowelsigndeva" unicode="&#x944;" horiz-adv-x="0" 
d="M-285.5 -1411q-179.5 0 -349.5 63.5t-275.5 170t-105.5 224.5t137 212q-211 97 -211 224.5t119 197t283 94.5l362 -189v-159q-59 14 -124.5 14t-121 -20.5t-55.5 -55.5q0 -27 13 -47l239 -94v-160q-104 0 -169.5 -49t-69.5 -129q0 -29 24.5 -50.5t59.5 -21.5
q111 4 208 197l342 -189v-159q-126 -74 -305.5 -74z" />
    <glyph glyph-name="ecandravowelsigndeva" unicode="&#x945;" horiz-adv-x="0" 
d="M-1139 2290q0 -70 59.5 -101.5t192.5 -31.5t236.5 67.5t169.5 179.5l73 107l369 -203q-31 -115 -129 -205t-249.5 -141t-344.5 -51t-385 67.5t-313 174t-121 219.5q0 47 12 92l103 133l342 -189q-15 -48 -15 -118z" />
    <glyph glyph-name="eshortvowelsigndeva" unicode="&#x946;" horiz-adv-x="0" 
d="M-2030 2249q104 0 241.5 26.5t238.5 26.5q197 0 370.5 -69.5t358.5 -221.5l516 -422l-127 -112l-342 274q-145 117 -262 160t-221.5 43t-237 -26.5t-242.5 -26.5q-197 0 -372 69.5t-357 220.5l-342 283l113 125l182 -148q253 -202 483 -202z" />
    <glyph glyph-name="evowelsigndeva" unicode="&#x947;" horiz-adv-x="0" 
d="M-741.5 2079q-112.5 0 -198.5 -27l-358 189v159q133 27 300 27q345 0 701 -291l676 -547l-107 -129l-522 416q-147 117 -263 160t-228.5 43z" />
    <glyph glyph-name="aivowelsigndeva" unicode="&#x948;" horiz-adv-x="0" 
d="M-1052.5 1898q-112.5 0 -198.5 -26l-359 188v160q133 27 301 27q344 0 701 -291l477 -389l-107 -129l-323 258q-145 117 -262 159.5t-229.5 42.5zM-1052.5 2316q-112.5 0 -198.5 -26l-359 188v160q353 72 641 -44q174 -70 361 -220l987 -795l-107 -129l-833 664
q-145 117 -262 159.5t-229.5 42.5z" />
    <glyph glyph-name="ocandravowelsigndeva" unicode="&#x949;" 
d="M610 1262v-1282h-159l-353 184l103 133v965h-37l-359 188v160h828l358 -189v-159h-381zM96 2290q0 -70 59.5 -101.5t192.5 -31.5t236.5 67.5t169.5 179.5l73 107l369 -203q-31 -115 -129 -205t-249.5 -141t-344.5 -51t-385 67.5t-313 174t-121 219.5q0 47 12 92l103 133
l342 -189q-15 -48 -15 -118z" />
    <glyph glyph-name="uni094A" unicode="&#x94a;" 
d="M610 1262v-1282h-159l-353 184l103 133v965h-37l-359 188v160h392l-177 141q-145 117 -261.5 160t-221 43t-237 -26.5t-242.5 -26.5q-197 0 -372 69.5t-357 220.5l-342 283l112 125l183 -148q251 -202 483 -202q104 0 242 26.5t237 26.5q197 0 371 -69.5t358 -221.5
l492 -401h168l358 -189v-159h-381z" />
    <glyph glyph-name="ovowelsigndeva" unicode="&#x94b;" 
d="M610 1262v-1282h-159l-353 184l103 133v965h-37l-359 188v160h390l-334 266q-147 117 -263 160t-228.5 43t-198.5 -27l-359 189v159q132 27 300 27q343 0 702 -291l651 -526h168l358 -189v-159h-381z" />
    <glyph glyph-name="uni094C" unicode="&#x94c;" 
d="M610 1262v-1282h-159l-353 184l103 133v965h-37l-359 188v160h39l-108 86q-145 117 -262 159.5t-229.5 42.5t-198.5 -26l-359 188v160q133 27 301 27q344 0 701 -291l424 -346h256l-633 504q-145 117 -262 159.5t-229.5 42.5t-198.5 -26l-359 188v160q353 72 641 -44
q174 -70 361 -220l958 -772l344 -181v-159h-381z" />
    <glyph glyph-name="viramadeva" unicode="&#x94d;" horiz-adv-x="0" 
d="M-102 -745l-781 413l103 133l780 -413z" />
    <glyph glyph-name="uni094E" unicode="&#x94e;" 
d="M610 1262v-1282h-159l-353 184l103 133v1313h432l358 -189v-159h-381z" />
    <glyph glyph-name="uni094F" unicode="&#x94f;" 
d="M612 1260v-1283h-159l-353 185l103 133v965h-37l-359 188v160h392l-176 141q-145 117 -262 160t-221.5 43t-239.5 -27t-240 -27q-197 0 -372 70t-357 221l-342 283l113 125l182 -148q251 -202 483 -202q104 0 242 26.5t237 26.5q197 0 371 -69.5t358 -221.5l424 -346
q23 55 23 116.5t-40 102.5t-124 99t-128 106.5t-44 120.5q0 186 258 311l342 -188v-160q-84 -23 -121 -55.5t-37 -81.5t37 -83t121 -83t131 -96.5t47 -117t-63 -132.5l190 -101l2 -161h-381z" />
    <glyph glyph-name="omdeva" unicode="&#x950;" horiz-adv-x="2707" 
d="M2839 791q0 -144 -75 -264q-75 -121 -209 -197t-302 -76l-342 188v160q74 -8 166 -8q171 0 245 84t74 224t-38 193q-38 54 -108 54t-114 -25q-43 -24 -101 -94t-172 -228t-191 -238q-77 -79 -152 -111q16 -33 16 -62q0 -92 -96 -188q-96 -97 -244 -159t-262 -62
q-115 0 -195 14l-708 573l108 129l305 -245q90 -74 196 -118t183 -44q151 0 234 94q37 43 37 87t-30 78q-51 58 -353 210v160q182 83 182 266q0 137 -100 137q-70 0 -148 -59t-135 -158l-358 188v160q74 72 226 124t304 52q150 0 304 -86t250 -222q97 -136 97 -278
q0 -90 -40 -175t-111 -148l49 -25q43 12 89 62t150 209q104 158 199 263t185 147t214 42q197 0 375 -91t287 -242t109 -295zM868 2218q0 47 13 92l102 133l342 -188q-14 -49 -14 -119t59 -102t192 -31q133 0 237 68q103 68 169 180l74 106l368 -203q-31 -114 -129 -204
q-97 -90 -249 -142t-344 -51q-192 0 -385 68t-314 174t-121 219zM1423 2650h160l250 -96v-324h-160l-250 97v323z" />
    <glyph glyph-name="udattadeva" unicode="&#x951;" horiz-adv-x="0" 
d="M-123 1839h-160l-249 96v901h159l250 -96v-901z" />
    <glyph glyph-name="anudattadeva" unicode="&#x952;" horiz-adv-x="0" 
d="M225 -461h-1444l-237 189v159h1444l237 -188v-160z" />
    <glyph glyph-name="gravedeva" unicode="&#x953;" horiz-adv-x="0" 
d="M-367 1847l-780 414l103 133l780 -414z" />
    <glyph glyph-name="acutedeva" unicode="&#x954;" horiz-adv-x="0" 
d="M84 2175q-137 -115 -318.5 -213t-488.5 -236l-358 189v160q535 229 807 448l358 -188v-160z" />
    <glyph glyph-name="uni0955" unicode="&#x955;" horiz-adv-x="0" 
d="M203 1808h-1444l-238 189v160h1444l238 -189v-160zM-944 2656q0 -70 59.5 -101.5t192 -31.5t236.5 67.5t169 180.5l74 106l369 -202q-31 -115 -129.5 -205t-250 -141.5t-344 -51.5t-385 68t-313 174.5t-120.5 218.5q0 47 12 92l102 133l342 -188q-14 -49 -14 -119z" />
    <glyph glyph-name="uni0956" unicode="&#x956;" horiz-adv-x="0" 
d="M-735 -244q88 0 177 45t161 121l358 -188v-160q-92 -53 -264 -84t-329 -31t-271 39l-281 226l62 139q255 -107 387 -107z" />
    <glyph glyph-name="uni0957" unicode="&#x957;" horiz-adv-x="0" 
d="M-735 -244q88 0 177 45t161 121l358 -188v-160q-92 -53 -264 -84t-329 -31t-271 39l-281 226l62 139q255 -107 387 -107zM-735 -756q88 0 177 45t161 121l358 -188v-160q-92 -53 -264 -84t-329 -31t-271 39l-281 226l62 139q255 -107 387 -107z" />
    <glyph glyph-name="qadeva" unicode="&#x958;" horiz-adv-x="2205" 
d="M1413 1110q145 0 302 -69.5t262.5 -188.5t105.5 -257t-92.5 -241.5t-247.5 -142.5l-342 188v160q66 -12 112 -12q78 0 121 54t47 155q0 125 -84 125q-68 -2 -119 -52.5t-108 -132.5t-65 -90v-626h-160l-352 184l59 78q-41 -4 -64 -4q-145 0 -301.5 69.5t-262 188
t-105.5 257t92 242t248 142.5l342 -189v-160q-63 12 -127 12.5t-107 -54t-47 -154.5q0 -125 84 -125q72 2 127 58.5t123 156.5l37 53l6 6v521h-874l-361 188v160h2521l361 -189v-159l-1239 -2v-160q55 10 108 10zM649 -352h-160l-249 96v324h159l250 -97v-323z" />
    <glyph glyph-name="khhadeva" unicode="&#x959;" horiz-adv-x="2736" 
d="M1096 719q0 -133 -65.5 -245t-170.5 -169l473 -252l-102 -133l-756 402q-137 68 -239.5 175t-102.5 194t73 130t196 43t270 -37q6 47 6 99q0 166 -64 336h-548l-363 188v160h2931l358 -189v-159h-381v-1282h-160l-352 184l76 98q-61 -12 -137 -12q-154 0 -321 68.5
t-278.5 184t-111.5 253t92 241t248 142.5l342 -189v-159q-63 12 -127 12t-108.5 -55.5t-44.5 -133.5q0 -146 124 -145q76 0 136.5 53t152.5 174l60 76v492h-1258q152 -243 152 -545zM639 -453h-160l-250 97v323h160l250 -96v-324z" />
    <glyph glyph-name="ghhadeva" unicode="&#x95a;" horiz-adv-x="1841" 
d="M1716 1262v-1282h-160l-352 184l103 133v965h-326v-627q0 -88 -56.5 -176t-138 -143.5t-162.5 -55.5t-200 78t-205 186.5t-86 190.5q0 150 250 149q80 0 188 -22v420h-546l-363 188v160h2077l358 -189v-159h-381zM809 -453h-160l-250 97v323h160l250 -96v-324z" />
    <glyph glyph-name="zadeva" unicode="&#x95b;" horiz-adv-x="1861" 
d="M1737 1262v-1282h-160l-352 184l102 133v219h-293l53 -43q15 -55 15 -135t-61.5 -167t-169 -139t-253.5 -52t-260 38l-280 226l61 139q246 -106 367 -107q70 0 112 46t41.5 118t-37 147t-106.5 132l-14 12l102 133h723v398h-1302l-363 188v160h2097l359 -189v-159h-381z
M819 -666h-160l-249 97v323h159l250 -96v-324z" />
    <glyph glyph-name="dddhadeva" unicode="&#x95c;" horiz-adv-x="1697" 
d="M729 740q0 -30 8 -48q117 31 203 31q150 0 316.5 -72.5t280.5 -179t114 -201.5q0 -72 -101.5 -139.5t-268.5 -109t-322.5 -41.5t-243.5 16l-709 573l109 129l305 -245q201 -162 453 -162q125 0 221 29.5t96 76.5q0 23 -23.5 41.5t-52.5 18.5q-51 0 -92 -68
q-190 41 -360 124t-271.5 181.5t-101.5 176.5t56 146t144.5 112.5t178.5 44.5h331v88h-995l-362 188v160h1953l363 -189v-159h-549v-437h-586v-2q-37 0 -65.5 -26.5t-28.5 -56.5zM401 -371h-159l-250 97v323h160l249 -96v-324z" />
    <glyph glyph-name="rhadeva" unicode="&#x95d;" horiz-adv-x="1619" 
d="M1079 299q0 -61 82 -61q14 0 39 4q4 20 4 50.5t-16.5 60.5t-42.5 30v2q-27 0 -46.5 -25.5t-19.5 -60.5zM518 550q0 -91 66.5 -178t175 -147.5t227.5 -74.5q-147 70 -248.5 173t-101.5 189q0 168 233 168q147 0 323.5 -80t298.5 -193.5t122 -212.5t-114 -156.5t-348 -57.5
t-468.5 101t-376 268t-141.5 356q0 104 57.5 193t153.5 141.5t209 52.5h291v170h-873l-342 188v160h1954l342 -189v-159h-672v-519h-483q-139 0 -212 -51t-73 -142zM586 -453h-160l-250 97v323h160l250 -96v-324z" />
    <glyph glyph-name="fadeva" unicode="&#x95e;" horiz-adv-x="2267" 
d="M958 1262h-380v-422q0 -193 116 -193v2q58 0 104 50.5t117 160.5l43 66v336zM1479 1112q145 0 301.5 -69.5t262 -188.5t105.5 -257t-92 -241.5t-248 -142.5l-342 188v160q66 -12 120 -12t87 44t33 124q0 125 -84 125q-57 0 -104.5 -46t-122.5 -153l-27 -37v-626h-160
l-352 184l102 133v117q-55 -12 -122 -13q-145 0 -302 70t-262.5 188.5t-105.5 255.5v347h-141l-363 188v160h2601l342 -189v-159h-1237v-160q55 10 111 10zM682 -207h-160l-250 96v324h160l250 -96v-324z" />
    <glyph glyph-name="yyadeva" unicode="&#x95f;" horiz-adv-x="1605" 
d="M1071 1264h-405q86 -139 86 -289q0 -106 -68 -190.5t-186 -131.5q35 -94 146.5 -94t232 81t194.5 196v428zM1481 1262v-1282h-160l-352 184l102 133v68q-121 -51 -272.5 -51.5t-306 68.5t-278.5 168t-165 181l103 133q70 16 113.5 81t43.5 165t-14 152h-158l-362 188v160
h1728l359 -189v-159h-381zM682 -309h-160l-250 96v324h160l250 -97v-323z" />
    <glyph glyph-name="rrvocalicdeva" unicode="&#x960;" horiz-adv-x="3145" 
d="M1962 264q0 90 70 156q-25 72 -37 147h-13q-104 0 -231 41v-628h-160l-352 184l102 133v125q-176 -113 -436 -234l-358 189v160q293 98 508 202q-90 49 -183 49q-211 0 -481 -167l-321 167v160q223 96 334.5 130t221.5 34t228.5 -40t273.5 -165l97 -76q63 37 116 74v357
h-1321l-358 188v160h3453l363 -189v-159l-1727 2v-426q27 -2 98.5 -2t157.5 51q45 135 150.5 220t220.5 85t249 -45t227 -118t93 -150q0 -98 -146.5 -171t-361.5 -108q20 -80 107 -143l180 -95v-159q-59 14 -125 14t-121 -20.5t-55 -55.5q0 -25 12 -47l240 -94v-160
q-104 0 -170 -49t-70 -129q0 -29 24.5 -50.5t59.5 -21.5q112 4 209 197l342 -188v-160q-126 -74 -305.5 -74t-349.5 63.5t-275.5 170t-105.5 224.5t137 212q-211 97 -211 229z" />
    <glyph glyph-name="llvocalicdeva" unicode="&#x961;" horiz-adv-x="2082" 
d="M1221 -117q0 135 139 254q-133 84 -133 187q0 53 38 96t119.5 105.5t129 117.5t47.5 117q0 120 -95 121q-88 0 -161.5 -78t-151 -195.5t-80.5 -120.5l-260 144v160l25 30q-35 20 -76 21q-86 0 -143.5 -66.5t-57.5 -165t38 -170t120 -137.5l184 -147l-102 -133l-668 540
q-14 55 -14 139t55 183.5t166 163t293 63.5t364 -102q80 70 183 92v160h-1157l-361 188v160h2398l361 -189v-159l-830 -2v-218q162 -70 267.5 -189.5t105.5 -264.5q0 -51 -36 -96.5t-103.5 -103.5t-100 -98t-32.5 -86t38.5 -80t131.5 -83v-160q-102 0 -170 -49t-68 -121
q0 -80 84 -80q45 0 84 44t82 132l342 -188v-160q-104 -53 -273 -53t-340 62.5t-276.5 171t-105.5 243.5z" />
    <glyph glyph-name="lvocalicvowelsigndeva" unicode="&#x962;" horiz-adv-x="0" 
d="M-561 -1264q103 0 178 209l340 -188v-160q-72 -53 -184.5 -94t-227 -41t-264 62.5t-249 166t-99.5 219.5q0 86 47 145.5t120.5 118t104.5 93.5t31 88.5t-36 91t-89 37.5q-92 0 -169 -100.5t-130 -282.5l-342 188v160l6 6q-16 2 -45 2q-117 0 -179 -61.5t-62 -146.5
t40.5 -152.5t129.5 -136.5l184 -148l-103 -133l-667 541q-14 55 -15 116q0 117 58.5 212.5t161 150.5t231.5 55q203 0 422 -116q136 116 304.5 116t337.5 -69.5t281.5 -187.5t112.5 -253q0 -98 -50 -162.5t-123.5 -121t-101.5 -86t-28 -62.5q0 -76 74 -76z" />
    <glyph glyph-name="llvocalicvowelsigndeva" unicode="&#x963;" horiz-adv-x="0" 
d="M-387.5 -1794q-179.5 0 -349.5 63.5t-275.5 170t-105.5 240.5t133 251q-78 92 -78 186q0 55 45 90t120.5 71t106.5 58.5t31 59.5t-35.5 63.5t-89.5 26.5q-104 0 -192 -101.5t-148 -281.5l-342 188v160l6 6h-6q-117 0 -179 -61.5t-62 -146.5t41 -152.5t129 -136.5
l184 -148l-102 -133l-668 541q-14 55 -14 116q0 117 58 212.5t160.5 150.5t231.5 55q197 0 404 -108q139 108 314 108t344 -69.5t281.5 -187.5t112.5 -253q0 -55 -44 -89t-120 -67.5t-107.5 -56t-31.5 -55.5t39 -64.5t117 -72.5v-160q-88 0 -143.5 -39t-55.5 -98
q0 -29 24.5 -50.5t59.5 -21.5q90 0 168 156l344 -187v-159q-126 -74 -305.5 -74z" />
    <glyph glyph-name="dandadeva" unicode="&#x964;" horiz-adv-x="1392" 
d="M901 -20h-160l-352 184l103 133v1333h159l250 -131v-1519z" />
    <glyph glyph-name="dbldandadeva" unicode="&#x965;" horiz-adv-x="2111" 
d="M1620 -20h-160l-352 184l102 133v1333h160l250 -131v-1519zM901 -20h-160l-352 184l103 133v1333h159l250 -131v-1519z" />
    <glyph glyph-name="zerodeva" unicode="&#x966;" horiz-adv-x="1583" 
d="M647 684q0 -104 38 -160q39 -55 105 -55t106 73q40 74 40 178t-38 159t-104 55t-107 -73q-40 -73 -40 -177zM918 223q-142 0 -313 75t-286 204t-114 282q0 111 56 201q57 90 159 142q102 53 244 53t314 -75q171 -75 286 -204t114 -283q0 -110 -56 -200t-158 -142
q-104 -52 -246 -53z" />
    <glyph glyph-name="onedeva" unicode="&#x967;" horiz-adv-x="1310" 
d="M537 1372q-25 0 -42 -46t-18 -109l-2 -3q2 -135 84 -135q33 0 47 6q-9 287 -69 287zM35 1308q0 96 49 167t133 113t182 42v-2q173 0 316 -97t226 -265t83 -356t-45 -480q-45 -293 -84 -453h-160l-250 97q84 381 115 770q-147 20 -277 93t-209 174t-79 197z" />
    <glyph glyph-name="twodeva" unicode="&#x968;" horiz-adv-x="1574" 
d="M806 1321q-62 0 -138 -59q-78 -59 -136 -158l-358 188v160q74 72 226 124t304 52q150 0 304 -85t250 -221t98 -278q0 -142 -68 -296t-176 -279l627 -504l-117 -123l-631 510q-131 -104 -245 -104t-242 72q-129 72 -219 174q-90 104 -90 181t71 118q72 41 203 41t289 -50
q159 194 157 394q1 76 -23 110t-86 33z" />
    <glyph glyph-name="threedeva" unicode="&#x969;" horiz-adv-x="1740" 
d="M1599 387v-4q0 -80 -88 -177t-216 -164q-129 -67 -213 -67t-162 11l428 -344l-117 -123l-795 641q-126 82 -200 186t-74 215q0 72 36 119t105 47q127 0 213 -125t105 -326q87 -28 161 -28t163 32t150 79q60 49 60 99t-20 83t-88 79t-234 140v160q84 36 133 102t49 147
q-1 81 -23 117t-86 37q-64 0 -138 -59q-76 -59 -136 -158l-358 188v160q84 80 238 128t298 48t296 -86t251 -218q98 -132 99 -259q0 -222 -158 -350q150 -80 236 -167t85 -163z" />
    <glyph glyph-name="fourdeva" unicode="&#x96a;" horiz-adv-x="1740" 
d="M1090 487q0 173 -166 291l-50 -45q-112 -102 -154 -171t-42 -146q0 -166 158 -166v2q108 0 181 72t73 163zM1532 342q0 -102 -67 -185t-185 -130t-289 -47q-172 0 -353 80t-292 210q-111 131 -110 277q0 205 219 407l77 70l-65 41q-317 199 -317 512q0 47 12 98l102 133
l342 -188q-14 -49 -14 -133q0 -209 86 -330l207 189q151 136 151 241q0 53 -24 115l73 106l369 -202q39 -76 39 -156q0 -152 -143 -283l-308 -280l160 -105q330 -219 330 -440z" />
    <glyph glyph-name="fivedeva" unicode="&#x96b;" horiz-adv-x="1708" 
d="M387 406q0 74 79 116q80 42 204 41q124 0 258 -24q14 158 14 376q-41 -4 -65 -4q-145 0 -303 65q-158 66 -262 174q-105 108 -105 234v244h160l249 -96v-223q0 -152 117 -152q45 0 95 26q50 27 85 75t35 114v256h160l250 -96v-651q0 -373 -72 -598l580 -467l-115 -125
l-537 434q-88 -135 -225 -148q-109 0 -252 74t-247 177q-103 104 -103 178z" />
    <glyph glyph-name="sixdeva" unicode="&#x96c;" horiz-adv-x="1986" 
d="M262 798q0 142 103 251q-96 51 -157 136q-60 85 -60 207t81 190q82 69 222 69q45 0 98 -4l362 -189v-160q-142 34 -260 -6q-61 -20 -61 -55q0 -63 88 -63l362 -189v-160q-63 11 -148 11t-136 -48t-51 -105q0 -58 47 -98t98 -40q135 -1 226 73t163 203q-33 125 -33 240
t41 187t118 71q77 0 180 -90t175 -219t72 -239t-152 -234l666 -537l-115 -125l-694 561q-263 -139 -504 -139q-166 1 -337 65q-170 64 -282 179t-112 257z" />
    <glyph glyph-name="sevendeva" unicode="&#x96d;" horiz-adv-x="2146" 
d="M1503 977q0 250 -63 250q-27 0 -44 -45t-18 -113q0 -133 84 -133q29 0 41 4v37zM1946 774q0 -204 -104 -392t-286 -296q-180 -109 -395 -109q-262 0 -487 150q-224 151 -358 403t-134 568t144 575l102 133l342 -188q-84 -248 -115 -418t-31 -410t100 -390
q98 -148 284 -148t305 118t166 332q-143 25 -267 97t-200 170q-74 98 -74 192t49 167t134 115t188 42l-2 -2q172 0 318 -94q145 -94 233 -253q88 -158 88 -362z" />
    <glyph glyph-name="eightdeva" unicode="&#x96e;" horiz-adv-x="1781" 
d="M702 991q0 -151 208 -226q89 -32 250 -73t263 -79q102 -37 174 -109t72 -189t-60 -201t-167 -153l-342 189v159q59 0 93 31t34 79t-68 80t-246 84t-315 110t-238 171q-100 113 -100 287q0 55 16 111h-108l-363 188v160h1598l362 -189v-159h-778q-121 0 -203 -73t-82 -198
z" />
    <glyph glyph-name="ninedeva" unicode="&#x96f;" horiz-adv-x="1576" 
d="M800 1376q-134 0 -132 -164q0 -82 43 -146q43 -66 101 -106t159 -94l47 -24v-160q-63 10 -141 10t-153 -41t-120 -107t-45 -121q0 -56 34 -86t91 -30q191 0 412 260l364 -186v-160q-326 -240 -610 -239q-166 0 -337 70t-283 199q-112 128 -111 288q0 127 80 228t215 171
q-188 166 -189 340q0 100 65 181q66 81 180 127t255 46t276 -55t221 -143t85 -179q1 -61 -49 -110t-137 -78t-195 -29q-20 0 -29 2l-129 107v160q62 -21 79 -6q17 16 17 32q0 43 -64 43z" />
    <glyph glyph-name="abbreviationsigndeva" unicode="&#x970;" horiz-adv-x="1296" 
d="M565 750q0 -138 78 -138q43 0 66 46t22 118q0 139 -78 137q-42 0 -65 -46t-23 -117zM772 367q-127 1 -284 65t-261 174t-104 240q0 86 49 158t137 114t215 42t284 -65t261 -175t105 -240q0 -86 -50 -158q-105 -155 -352 -155z" />
    <glyph glyph-name="uni0971" unicode="&#x971;" horiz-adv-x="1361" 
d="M911 1231h-159l-250 96v324h160l249 -97v-323z" />
    <glyph glyph-name="uni0972" unicode="&#x972;" horiz-adv-x="2299" 
d="M1765 608q-105 -67 -245 -67q-58 0 -111 4q-20 -72 -99 -139.5t-188.5 -109.5t-213 -42t-222.5 16l-567 299l102 133l129 -65q143 -72 348 -72q142 0 234 74q41 33 41 73t-49.5 84t-169.5 103v160q55 29 87.5 78t32.5 98t-17 66.5t-58 17.5q-74 0 -151 -58.5t-136 -158.5
l-358 188v160q76 74 228.5 125t302 51t297.5 -73.5t240.5 -192.5t92.5 -244q0 -70 -45 -135.5t-125 -116.5l24 -12q98 -43 150 -43q119 0 240.5 97.5t205.5 256.5v99h-36l-359 188v160h828l358 -189v-164h-381v-1282h-160l-352 185l102 133v315zM1661 2290
q0 -70 59.5 -101.5t192.5 -31.5t236.5 67.5t168.5 179.5l74 107l369 -203q-31 -115 -129.5 -205t-250 -141t-344 -51t-385 67.5t-313 174t-120.5 219.5q0 47 12 92l102 133l342 -189q-14 -48 -14 -118z" />
    <glyph glyph-name="uni0973" unicode="&#x973;" horiz-adv-x="2299" 
d="M1765 608q-105 -67 -245 -67q-58 0 -111 4q-20 -72 -99 -139.5t-188.5 -109.5t-213 -42t-222.5 16l-567 299l102 133l129 -65q143 -72 348 -72q142 0 234 74q41 33 41 73t-49.5 84t-169.5 103v160q55 29 87.5 78t32.5 98t-17 66.5t-58 17.5q-74 0 -151 -58.5t-136 -158.5
l-358 188v160q76 74 228.5 125t302 51t297.5 -73.5t240.5 -192.5t92.5 -244q0 -70 -45 -135.5t-125 -116.5l24 -12q98 -43 150 -43q119 0 240.5 97.5t205.5 256.5v99h-36l-359 188v160h828l358 -189v-164h-381v-1282h-160l-352 185l102 133v315zM2175 1839h-160l-250 96v901
h160l250 -96v-901z" />
    <glyph glyph-name="uni0974" unicode="&#x974;" horiz-adv-x="3035" 
d="M1765 608q-105 -67 -245 -67q-58 0 -111 4q-20 -72 -99 -139.5t-188.5 -109.5t-213 -42t-222.5 16l-567 299l102 133l129 -65q143 -72 348 -72q142 0 234 74q41 33 41 73t-49.5 84t-169.5 103v160q55 29 87.5 78t32.5 98t-17 66.5t-58 17.5q-74 0 -151 -58.5t-136 -158.5
l-358 188v160q76 74 228.5 125t302 51t297.5 -73.5t240.5 -192.5t92.5 -244q0 -70 -45 -135.5t-125 -116.5l24 -12q98 -43 150 -43q119 0 240.5 97.5t205.5 256.5v99h-36l-359 188v160h1131v817h159l250 -96v-721h23l358 -189v-164h-381v-1282h-160l-352 185l103 133v964
h-326v-1282h-160l-352 185l102 133v315z" />
    <glyph glyph-name="uni0975" unicode="&#x975;" horiz-adv-x="3035" 
d="M1767 606q-105 -67 -245 -67q-58 0 -111 4q-20 -72 -99 -139.5t-188.5 -109.5t-213 -42t-222.5 16l-567 299l102 133l129 -65q143 -72 348 -72q142 0 234 74q41 33 41 73q0 81 -219 187v160q55 29 88 78t33 98t-17.5 66.5t-58.5 17.5q-74 0 -151 -58.5t-136 -158.5
l-358 188v160q76 74 228.5 125t302 51t298 -73.5t240.5 -192.5t92 -244q0 -70 -45 -135.5t-125 -116.5l24 -12q98 -43 150 -43q119 0 240.5 97t205.5 257v99h-36l-359 188v160h1127l-177 141q-145 117 -261.5 160t-221 43t-239.5 -27t-240 -27q-197 0 -372 70t-357 221
l-342 283l112 125l183 -148q251 -202 483 -202q104 0 242 26.5t237 26.5q197 0 371 -69.5t358 -221.5l424 -346q23 55 23 116.5t-40 102.5t-124 99t-128 106.5t-44 120.5q0 186 258 311l342 -188v-160q-84 -23 -121 -55.5t-37 -81.5t37 -83t121 -83t131 -96.5t47 -117
t-63 -132.5l190 -101l2 -166h-381v-1282h-159l-353 185l103 133v964h-326v-1282h-160l-352 185l102 133v315z" />
    <glyph glyph-name="uni0976" unicode="&#x976;" horiz-adv-x="2299" 
d="M1765 608q-105 -67 -245 -67q-58 0 -111 4q-20 -72 -99 -139.5t-188.5 -109.5t-213 -42t-222.5 16l-567 299l102 133l129 -65q143 -72 348 -72q142 0 234 74q41 33 41 73t-49.5 84t-169.5 103v160q55 29 87.5 78t32.5 98t-17 66.5t-58 17.5q-74 0 -151 -58.5t-136 -158.5
l-358 188v160q76 74 228.5 125t302 51t297.5 -73.5t240.5 -192.5t92.5 -244q0 -70 -45 -135.5t-125 -116.5l24 -12q98 -43 150 -43q119 0 240.5 97.5t205.5 256.5v99h-36l-359 188v160h828l358 -189v-164h-381v-1282h-160l-352 185l102 133v315zM1565.5 -541
q-156.5 0 -271.5 39l-280 226l61 139q255 -107 387 -107q88 0 177.5 45t160.5 121l359 -188v-160q-92 -53 -264.5 -84t-329 -31z" />
    <glyph glyph-name="uni0977" unicode="&#x977;" horiz-adv-x="2299" 
d="M1462 -760q88 0 177.5 45t160.5 121l359 -188v-160q-92 -53 -264.5 -84t-329 -31t-271.5 39l-280 225l61 140q255 -107 387 -107zM1565.5 -545q-156.5 0 -271.5 39l-280 225l61 140q255 -107 387 -107q88 0 177.5 45t160.5 121l359 -188v-160q-92 -53 -264.5 -84
t-329 -31zM1765 608q-105 -67 -245 -67q-58 0 -111 4q-20 -72 -99 -139.5t-188.5 -109.5t-213 -42t-222.5 16l-567 299l102 133l129 -65q143 -72 348 -72q142 0 234 74q41 33 41 73t-49.5 84t-169.5 103v160q55 29 87.5 78t32.5 98t-17 66.5t-58 17.5q-74 0 -151 -58.5
t-136 -158.5l-358 188v160q76 74 228.5 125t302 51t297.5 -73.5t240.5 -192.5t92.5 -244q0 -70 -45 -135.5t-125 -116.5l24 -12q98 -43 150 -43q119 0 240.5 97.5t205.5 256.5v99h-36l-359 188v160h828l358 -189v-164h-381v-1282h-160l-352 185l102 133v315z" />
    <glyph glyph-name="uni0979" unicode="&#x979;" horiz-adv-x="1861" 
d="M1737 1262v-1282h-160l-352 184l102 133v219h-293l53 -43q15 -55 15 -135t-61.5 -167t-169 -139t-253.5 -52t-260 38l-280 226l61 139q246 -106 367 -107q70 0 112 46t41.5 118t-37 147t-106.5 132l-14 12l102 133h723v398h-1302l-363 188v160h2097l359 -189v-159h-381z
M326 -463h-160l-250 96v324h160l250 -96v-324zM836 -735h-160l-250 96v324h160l250 -97v-323zM1329 -463h-160l-249 96v324h159l250 -96v-324z" />
    <glyph glyph-name="uni097B" unicode="&#x97b;" horiz-adv-x="1882" 
d="M1757 1262v-1723h-1444l-237 189v159h1272v1375h-367v-627q0 -88 -56.5 -176t-138 -143.5t-162.5 -55.5t-200 78t-205 186.5t-86 190.5q0 150 250 149q80 0 188 -22v420h-546l-363 188v160h2118l358 -189v-159h-381z" />
    <glyph glyph-name="uni097C" unicode="&#x97c;" horiz-adv-x="1861" 
d="M1737 1262v-1723h-1383l-237 189v159h1210v629h-293l53 -43q15 -55 15 -135t-61.5 -167t-169 -139t-253.5 -52t-260 38l-280 226l61 139q246 -106 367 -107q70 0 112 46t41.5 118t-37 147t-106.5 132l-14 12l102 133h723v398h-1302l-363 188v160h2097l359 -189v-159h-381
z" />
    <glyph glyph-name="uni097D" unicode="&#x97d;" horiz-adv-x="1886" 
d="M1657 1012q0 -142 -80 -247t-207 -165t-260 -61h-25v-559h-159l-250 96v811h254q121 1 203 73q81 72 81 188q-1 229 -280 228q-162 0 -257 -87t-95 -234l-74 -107l-369 203q0 143 88 257t242 178t351 64t394 -95t320 -247q123 -154 123 -296z" />
    <glyph glyph-name="uni097E" unicode="&#x97e;" horiz-adv-x="1697" 
d="M729 740q0 -30 8 -48q117 31 203 31q150 0 316.5 -72.5t280.5 -179t114 -201.5q0 -72 -101.5 -139.5t-268.5 -109t-322.5 -41.5t-243.5 16l-709 573l109 129l305 -245q201 -162 453 -162q125 0 221 29.5t96 76.5q0 23 -23.5 41.5t-52.5 18.5q-51 0 -92 -68
q-190 41 -360 124t-271.5 181.5t-101.5 176.5t56 146t144.5 112.5t178.5 44.5h331v88h-995l-362 188v160h1953l363 -189v-159h-549v-437h-586v-2q-37 0 -65.5 -26.5t-28.5 -56.5zM1737 -461h-1444l-238 189v159h1444l238 -188v-160z" />
    <glyph glyph-name="uni097F" unicode="&#x97f;" horiz-adv-x="1574" 
d="M661.5 467q67.5 0 143.5 70l-242 196q-35 -53 -35 -141h-2q0 -57 34 -91t101.5 -34zM1452 1262v-1723h-993l-238 189v159h821v396q-88 -35 -223 -35t-302 68.5t-278.5 184t-111.5 253t92 241t248 142.5l342 -189v-160q-20 4 -57 9l166 -133q82 106 106 137l16 -8v469
h-1017l-361 188v160h1811l358 -189l2 -159h-381z" />
    <glyph glyph-name="uni0FD5" unicode="&#xfd5;" horiz-adv-x="2633" 
d="M1563 979h721v-999h-160l-250 96v555h-311v-631h-1153v100l96 248h647v283h-723v999h160l250 -96v-555h313v631h1153v-99l-96 -249h-647v-283z" />
    <glyph glyph-name="uni0FD6" unicode="&#xfd6;" horiz-adv-x="2633" 
d="M1153 979v283h-647l-96 249v99h1153v-631h313v555l250 96h160v-999h-723v-283h647l96 -248v-100h-1153v631h-311v-555l-250 -96h-160v999h721z" />
    <glyph glyph-name="uni0FD7" unicode="&#xfd7;" horiz-adv-x="2633" 
d="M1563 979h721v-999h-160l-250 96v555h-311v-631h-1153v100l52 135l-41 24v80l70 102l160 -93h100l64 93l159 -93h179v283h-177v-48l-70 -103l-161 94v57h-93v-48l-70 -103l-161 94v80l9 14v962h160l250 -96v-555h313v631h1153v-99l-96 -249h-647v-283z" />
    <glyph glyph-name="uni0FD8" unicode="&#xfd8;" horiz-adv-x="2633" 
d="M1153 979v283h-647l-96 249v99h1153v-631h313v555l250 96h160v-999h-723v-283h647l96 -248v-100h-1153v631h-311v-555l-250 -96h-160v253l-117 -68l-70 102v80l161 94l26 -38v146l-117 -69l-70 103v80l161 94l26 -39v261h721z" />
    <glyph glyph-name="Wgrave" unicode="&#x1e80;" horiz-adv-x="2729" 
d="M786 1612v-146l-141 -102l393 -1012l205 682l-117 322l-184 90l82 164h786v-146l-217 -121l349 -997l323 936l-301 164l82 164h684v-144l-227 -168l-432 -1230l-439 -105l-268 737l-184 -632l-439 -105l-551 1389l-210 96l81 164h725zM1491 1860l-578 294l60 132l438 38
l219 -401z" />
    <glyph glyph-name="wgrave" unicode="&#x1e81;" horiz-adv-x="2025" 
d="M1985 965l-490 -967h-319l-162 391l-215 -391h-320l-293 713l-206 120v146l514 172l77 -309l209 -504l144 272l-43 105l-207 121v145l514 172l78 -309l207 -496l192 399l-313 203l82 164l551 -2v-145zM1071 1362l-577 295l59 131l438 39l219 -402z" />
    <glyph glyph-name="Wacute" unicode="&#x1e82;" horiz-adv-x="2729" 
d="M786 1612v-146l-141 -102l393 -1012l205 682l-117 322l-184 90l82 164h786v-146l-217 -121l349 -997l323 936l-301 164l82 164h684v-144l-227 -168l-432 -1230l-439 -105l-268 737l-184 -632l-439 -105l-551 1389l-210 96l81 164h725zM1935 2154l-577 -294l-139 63
l219 401l438 -38z" />
    <glyph glyph-name="wacute" unicode="&#x1e83;" horiz-adv-x="2025" 
d="M1985 965l-490 -967h-319l-162 391l-215 -391h-320l-293 713l-206 120v146l514 172l77 -309l209 -504l144 272l-43 105l-207 121v145l514 172l78 -309l207 -496l192 399l-313 203l82 164l551 -2v-145zM1516 1657l-578 -295l-139 63l219 402l438 -39z" />
    <glyph glyph-name="Wdieresis" unicode="&#x1e84;" horiz-adv-x="2729" 
d="M786 1612v-146l-141 -102l393 -1012l205 682l-117 322l-184 90l82 164h786v-146l-217 -121l349 -997l323 936l-301 164l82 164h684v-144l-227 -168l-432 -1230l-439 -105l-268 737l-184 -632l-439 -105l-551 1389l-210 96l81 164h725zM1559 2033.5q0 75.5 43 131
t107.5 88.5t141 33t136 -61.5t59.5 -136t-43 -129t-107.5 -87.5t-140.5 -33t-136 59.5t-60 135zM801 2033.5q0 75.5 43 131t107.5 88.5t141 33t136 -61.5t59.5 -136t-43 -129t-107.5 -87.5t-140 -33t-136 59.5t-60.5 135z" />
    <glyph glyph-name="wdieresis" unicode="&#x1e85;" horiz-adv-x="2025" 
d="M1985 965l-490 -967h-319l-162 391l-215 -391h-320l-293 713l-206 120v146l514 172l77 -309l209 -504l144 272l-43 105l-207 121v145l514 172l78 -309l207 -496l192 399l-313 203l82 164l551 -2v-145zM1096 1535.5q0 71.5 41 124t101 84.5t133 32t129 -57.5t56 -129
t-40.5 -124t-102 -83t-133.5 -30.5t-128 56t-56 127.5zM461 1535.5q0 71.5 41 124t101.5 84.5t133 32t129 -57.5t56.5 -129t-41 -124t-102.5 -83t-133.5 -30.5t-128 56t-56 127.5z" />
    <glyph glyph-name="uni1E9E" unicode="&#x1e9e;" horiz-adv-x="1943" 
d="M1882 1065v-160l-534 -495h292l82 188l144 -41v-594l-195 37h-866v160l534 495h-518v160l516 440q-55 15 -165 59t-192 68q-84 24 -160 23q-76 0 -111 -39t-35 -100v-1266h-633v145l192 168v838q-1 102 99 220t243 199t259 81q116 -1 419 -21q302 -20 629 -20v-160
l-477 -385h477z" />
    <glyph glyph-name="Ygrave" unicode="&#x1ef2;" horiz-adv-x="1787" 
d="M494 -4v145l192 152v217l-563 868l-146 66l41 164h746v-146l-133 -102l342 -520l334 456l-285 150l82 164h684v-146l-234 -184l-448 -627v-436l235 -57l-81 -164h-766zM973 1860l-578 294l60 132l438 38l219 -401z" />
    <glyph glyph-name="ygrave" unicode="&#x1ef3;" horiz-adv-x="1370" 
d="M1329 1112v-145l-530 -967l-514 -541l-160 123q143 180 203.5 310.5t74.5 289.5l-217 531l-206 121v145l514 172l77 -309l209 -504l221 414l-305 196l82 164h551zM743 1362l-577 295l59 131l439 39l219 -402z" />
    <glyph glyph-name="zerowidthspace" unicode="&#x200b;" horiz-adv-x="0" 
 />
    <glyph glyph-name="uni200C" unicode="&#x200c;" horiz-adv-x="0" 
 />
    <glyph glyph-name="uni200D" unicode="&#x200d;" horiz-adv-x="0" 
 />
    <glyph glyph-name="endash" unicode="&#x2013;" horiz-adv-x="1554" 
d="M82 727h1391v-166h-1391v166z" />
    <glyph glyph-name="emdash" unicode="&#x2014;" horiz-adv-x="2168" 
d="M82 727h2005v-166h-2005v166z" />
    <glyph glyph-name="quoteleft" unicode="&#x2018;" horiz-adv-x="757" 
d="M566 1411q-44 -76 -62 -158l186 -120v-146l-473 -182l-156 407l476 500l159 -123q-86 -102 -130 -178z" />
    <glyph glyph-name="quoteright" unicode="&#x2019;" horiz-adv-x="757" 
d="M221 801l-160 123q86 102 130 178t63 158l-186 120v146l473 182l155 -408z" />
    <glyph glyph-name="quotesinglbase" unicode="&#x201a;" horiz-adv-x="757" 
d="M221 -541l-160 123q86 102 130 178t63 158l-186 121v145l473 183l155 -408z" />
    <glyph glyph-name="quotedblleft" unicode="&#x201c;" horiz-adv-x="1454" 
d="M1097 1411q-44 -76 -63 -158l187 -120v-146l-473 -182l-156 407l475 500l160 -123q-86 -102 -130 -178zM400 1411q-44 -76 -62 -158l186 -120v-146l-473 -182l-155 407l475 500l159 -123q-86 -102 -130 -178z" />
    <glyph glyph-name="quotedblright" unicode="&#x201d;" horiz-adv-x="1454" 
d="M918 801l-160 123q86 102 130 178t62 158l-186 120v146l473 182l156 -408zM221 801l-160 123q86 102 130 178t63 158l-186 120v146l473 182l155 -408z" />
    <glyph glyph-name="quotedblbase" unicode="&#x201e;" horiz-adv-x="1454" 
d="M918 -541l-160 123q86 102 130 178t62 158l-186 121v145l473 183l156 -408zM221 -541l-160 123q86 102 130 178t63 158l-186 121v145l473 183l155 -408z" />
    <glyph glyph-name="dagger" unicode="&#x2020;" horiz-adv-x="1343" 
d="M1214 854h-227l-49 98l-184 58l149 -383l-174 -1129l-55 -41l-56 41l-163 963l145 540l-330 -153l-247 98l110 309h227l50 -98l194 -59l-65 336l-127 55v227l350 111l98 -248l-110 -465l325 150l250 -101z" />
    <glyph glyph-name="daggerdbl" unicode="&#x2021;" horiz-adv-x="1353" 
d="M1223 29h-228l-49 98l-194 59l65 -336l127 -55v-227l-350 -111l-98 248l110 465l-325 -150l-248 99l110 309h228l49 -98l178 -56l-143 283l143 442l-328 -151l-247 98l110 309h227l50 -98l194 -59l-65 336l-127 55v227l350 111l98 -248l-110 -465l325 150l248 -99
l-111 -309h-227l-49 98l-178 56l143 -285l-143 -440l327 151l248 -98z" />
    <glyph glyph-name="bullet" unicode="&#x2022;" horiz-adv-x="1376" 
d="M450 94q-134 0 -242 58t-169 159q-61 100 -61 227t94 243q96 116 240 186q144 69 281 69t243 -58t166 -160t60 -228q0 -127 -95 -243q-95 -117 -239 -185t-278 -68z" />
    <glyph glyph-name="ellipsis" unicode="&#x2026;" horiz-adv-x="2877" 
d="M763 387q67 -63 67 -143t-49 -138q-47 -57 -119 -92q-72 -34 -156 -34t-152 63t-68 143t49 137q48 58 120 93q73 34 157 34t151 -63zM1167 186q0 80 48 137q48 58 120 93q72 34 157 34t152 -63q66 -63 66 -143t-48 -138q-48 -57 -120 -92t-139 -34q-100 0 -168 63
t-68 143zM2591 244q0 -80 -48 -138q-48 -57 -120 -92t-139 -34q-100 0 -168 63t-68 143t48 137q48 58 120 93q72 34 156 34t152 -63q67 -63 67 -143z" />
    <glyph glyph-name="perthousand" unicode="&#x2030;" horiz-adv-x="3647" 
d="M3211 131q0 121 -65 199q-66 78 -189 78q-180 -1 -180 -191q0 -121 66 -199t188 -77q180 0 180 190zM1898 131q0 121 -65 199q-66 78 -188 78q-181 -1 -181 -191q0 -121 66 -199t188 -77q180 0 180 190zM3566 195q0 -119 -100 -225t-246 -166q-148 -62 -292 -62t-260 53
t-181 145t-65 213q0 120 100 225q98 104 246 166t290 62t260 -53q116 -53 182 -146t66 -212zM2253 195q1 -119 -99 -225t-247 -166q-147 -62 -291 -62t-260 53t-182 145q-64 92 -64 213q0 120 99 225q99 104 247 166t290 62t259 -53t183 -146t65 -212zM690 1143
q180 0 180 190q0 121 -65 199q-66 78 -189 78q-180 -1 -180 -191q0 -121 66 -199t188 -77zM213 -184l-107 118l2014 1815l110 -117zM1225 1397q1 -119 -99 -225t-247 -166q-147 -62 -291 -62t-260 53t-182 145q-64 92 -64 213q0 120 99 225q99 104 247 166t290 62t259 -53
t183 -146t65 -212z" />
    <glyph glyph-name="minute" unicode="&#x2032;" horiz-adv-x="1021" 
d="M940 1479l-698 -518l-140 63l340 625l439 -39z" />
    <glyph glyph-name="second" unicode="&#x2033;" horiz-adv-x="1718" 
d="M940 1479l-698 -518l-140 63l340 625l439 -39zM1636 1479l-698 -518l-139 63l340 625l438 -39z" />
    <glyph glyph-name="uni2034" unicode="&#x2034;" horiz-adv-x="2414" 
d="M940 1479l-698 -518l-140 63l340 625l439 -39zM1636 1479l-698 -518l-139 63l340 625l438 -39zM2333 1479l-699 -518l-139 63l340 625l438 -39z" />
    <glyph glyph-name="guilsinglleft" unicode="&#x2039;" horiz-adv-x="940" 
d="M838 162l-144 -123l-633 520l633 520l144 -123l-252 -356z" />
    <glyph glyph-name="guilsinglright" unicode="&#x203a;" horiz-adv-x="940" 
d="M246 37l-144 123l252 356l-252 438l144 123l633 -520z" />
    <glyph glyph-name="asterism" unicode="&#x2042;" horiz-adv-x="3272" 
d="M2922 -270l-59 -240l-260 -47l-74 127l115 164l-145 250l34 20zM2490 -12l-43 -475l-237 -68l-170 201l71 127l199 -17l146 250zM2454 55v-41l-433 -198l-178 172l90 248h146l86 -181h289zM2540 10v41l432 199l178 -170l-90 -250h-146l-86 180h-288zM2503 80l43 473
l237 70l170 -203l-71 -127l-199 16l-146 -250zM2494 82l-34 -21l-389 275l59 239l260 48l74 -127l-113 -164zM2048 1182l-59 -240l-260 -47l-74 127l114 164l-145 250l35 20zM1616 1440l-43 -475l-238 -68l-170 201l72 127l199 -17l145 250zM1579 1507v-41l-432 -198
l-178 172l90 248h145l86 -181h289zM1665 1462v41l432 199l178 -170l-90 -250h-145l-86 180h-289zM1628 1532l43 473l238 70l170 -203l-72 -127l-199 16l-145 -250zM1620 1534l-35 -21l-389 275l59 240l261 47l73 -127l-112 -164zM1202 -270l-59 -240l-260 -47l-74 127
l115 164l-146 250l35 20zM770 -12l-43 -475l-238 -68l-170 201l72 127l199 -17l145 250zM733 55v-41l-432 -198l-178 172l90 248h145l86 -181h289zM819 10v41l432 199l179 -170l-91 -250h-145l-86 180h-289zM782 80l43 473l238 70l170 -203l-72 -127l-198 16l-146 -250z
M774 82l-35 -21l-389 275l60 239l260 48l73 -127l-112 -164z" />
    <glyph glyph-name="fraction" unicode="&#x2044;" horiz-adv-x="507" 
d="M-313 -412l-142 74l1272 2394l144 -71z" />
    <glyph glyph-name="uni2051" unicode="&#x2051;" horiz-adv-x="1429" 
d="M1141 1182l-60 -240l-260 -47l-73 127l114 164l-145 250l35 20zM709 1440l-43 -475l-238 -68l-170 201l72 127l198 -17l146 250zM672 1507v-41l-432 -198l-179 172l91 248h145l86 -181h289zM758 1462v41l432 199l178 -170l-90 -250h-145l-86 180h-289zM721 1532l43 473
l237 70l170 -203l-71 -127l-199 16l-145 -250zM713 1534l-35 -21l-389 275l59 240l260 47l74 -127l-113 -164zM1141 -270l-60 -240l-260 -47l-73 127l114 164l-145 250l35 20zM709 -12l-43 -475l-238 -68l-170 201l72 127l198 -17l146 250zM672 55v-41l-432 -198l-179 172
l91 248h145l86 -181h289zM758 10v41l432 199l178 -170l-90 -250h-145l-86 180h-289zM721 80l43 473l237 70l170 -203l-71 -127l-199 16l-145 -250zM713 82l-35 -21l-389 275l59 239l260 48l74 -127l-113 -164z" />
    <glyph glyph-name="uni2055" unicode="&#x2055;" horiz-adv-x="1521" 
d="M798 1241q175 0 175 -135q0 -68 -35 -168t-109 -274q105 138 163 208q132 160 212 160t142 -106q38 -70 38 -125q-1 -105 -226 -148q-97 -18 -293 -42q194 -24 294 -43q227 -43 227 -156q0 -49 -38 -115q-115 -200 -285 -22q-82 85 -232 284q76 -182 111 -280t35 -167
t-41 -102t-133 -33q-176 0 -176 136q1 69 33 161t112 281q-152 -199 -234 -284t-152 -85q-71 0 -130 107q-39 70 -39 125q-1 55 63 92t161 55t288 41q-185 23 -285 42t-164 55q-64 35 -65 91q0 56 41 126q61 106 132 106q70 0 152 -84t229 -281q-79 189 -113 283t-33 162
q0 135 175 135zM743 608h2l29 -49h57l29 49l-1 3q-1 0 -3 -1l-29 49h-56q1 -1 1 -2z" />
    <glyph glyph-name="uni2057" unicode="&#x2057;" horiz-adv-x="3110" 
d="M940 1479l-698 -518l-140 63l340 625l439 -39zM1636 1479l-698 -518l-139 63l340 625l438 -39zM2333 1479l-699 -518l-139 63l340 625l438 -39zM3029 1479l-698 -518l-140 63l340 625l439 -39z" />
    <glyph glyph-name="zerosuperior" unicode="&#x2070;" horiz-adv-x="1347" 
d="M711 1034q180 0 180 191q0 121 -66 199t-188 77q-180 0 -180 -190q-1 -121 65 -199t189 -78zM608 836q-144 0 -260 53t-182 145q-64 92 -64 212t100 225t246 167q148 62 290 62t259 -53t183 -147t66 -212q0 -119 -100 -224q-98 -104 -246 -166t-292 -62z" />
    <glyph glyph-name="foursuperior" unicode="&#x2074;" horiz-adv-x="1214" 
d="M668 1067v332l-318 -332h318zM995 889v-260l-327 -86v346h-607v121l607 632l327 84v-659h250l-57 -178h-193z" />
    <glyph glyph-name="fivesuperior" unicode="&#x2075;" horiz-adv-x="1064" 
d="M942 942q0 -121 -119 -209t-294 -146t-418 -116l-41 147q398 93 473 165q39 38 39 89t-35 87q-69 71 -436 161l129 566h460l64 131l135 -29v-416l-176 25h-393l-11 -49h3q462 -121 567 -251q53 -67 53 -155z" />
    <glyph glyph-name="sixsuperior" unicode="&#x2076;" horiz-adv-x="1226" 
d="M686 1034q137 0 137 162q0 123 -70 208q-71 85 -173 128l102 143q131 0 245 -53q115 -53 183 -147q68 -95 68 -203t-87 -208t-225 -164t-279 -64q-142 0 -256 58t-177 160q-64 102 -64 248q0 144 72 276q149 272 792 538l72 -138q-311 -159 -446 -310
q-136 -151 -136 -302q0 -152 62 -242t180 -90z" />
    <glyph glyph-name="sevensuperior" unicode="&#x2077;" horiz-adv-x="1105" 
d="M1087 1686v-160l-704 -1055l-174 51l588 877h-463l-68 -144l-143 41v416l184 -26h780z" />
    <glyph glyph-name="eightsuperior" unicode="&#x2078;" horiz-adv-x="1216" 
d="M819 1143q0 55 -44 103t-107 86t-174 93q-54 -57 -72 -98q-48 -107 16 -205q35 -53 94 -85t125 -31v2q74 0 118 40t44 95zM487 1824q0 -97 205 -212q39 57 49 92q11 35 11 88t-42 96t-108 43l2 -2q-117 2 -117 -105zM1171 1222q0 -90 -87 -179t-212 -150t-225 -62
q-174 -1 -311 45t-213 124t-76 164t73 160t238 179q-224 129 -224 269q0 76 81 154q82 78 200 133q117 55 231 55t215 -36t157 -96t55 -129q-4 -63 -55 -132t-184 -175l-3 -6q166 -84 253 -156t87 -162z" />
    <glyph glyph-name="ninesuperior" unicode="&#x2079;" horiz-adv-x="1206" 
d="M823 1176q0 146 -62 235q-62 90 -181 90q-135 0 -136 -162q0 -123 71 -207t173 -128l-133 -146q-119 12 -225 66t-173 143t-67 197t87 208t223 164q136 63 280 63t257 -58q114 -58 177 -160q64 -102 64 -242q0 -141 -71 -263q-146 -252 -777 -505l-72 137
q305 150 435 286t130 282z" />
    <glyph glyph-name="zeroinferior" unicode="&#x2080;" horiz-adv-x="1347" 
d="M891 213q0 121 -66 199t-188 77q-180 0 -180 -190q-1 -121 65 -199t189 -77q180 0 180 190zM608 -176q-144 0 -260 53t-182 145q-64 92 -64 212t100 226t246 166q148 62 290 62t259 -53t183 -147t66 -212t-100 -224q-98 -106 -246 -166q-148 -62 -292 -62z" />
    <glyph glyph-name="oneinferior" unicode="&#x2081;" horiz-adv-x="813" 
d="M98 -160v123l160 109v428l-192 41l65 135h612v-123l-157 -109v-430l190 -39l-65 -135h-613z" />
    <glyph glyph-name="twoinferior" unicode="&#x2082;" horiz-adv-x="1161" 
d="M86 -162v144q354 231 422 312q39 46 39 79t-27 50t-67 17q-113 0 -332 -75l-49 139l225 158q80 27 201 26q209 0 335 -62t125 -165q0 -53 -98 -139t-299 -195h301l70 141l143 -41v-415l-184 26h-805z" />
    <glyph glyph-name="threeinferior" unicode="&#x2083;" horiz-adv-x="935" 
d="M514 -106q0 111 -219 176v114q151 80 149 186q0 52 -32 80t-92 28t-242 -75l-49 117l225 158q53 12 138 12q84 0 188 -31t164 -83t61 -115q-15 -136 -276 -259q179 -45 263 -102t82 -139q0 -153 -190 -273t-608 -227l-41 148q195 55 296 96t142 84t41 105z" />
    <glyph glyph-name="fourinferior" unicode="&#x2084;" horiz-adv-x="1214" 
d="M668 55v332l-318 -332h318zM995 -123v-260l-327 -86v346h-607v121l607 633l327 84v-660h250l-57 -178h-193z" />
    <glyph glyph-name="fiveinferior" unicode="&#x2085;" horiz-adv-x="1064" 
d="M942 -70q0 -121 -119 -209t-294 -146t-418 -116l-41 148q400 94 473 165q39 38 39 89t-35 87q-69 71 -436 161l129 565h460l64 131l135 -29v-416l-176 25h-393l-11 -49h3q462 -121 567 -251q53 -67 53 -155z" />
    <glyph glyph-name="sixinferior" unicode="&#x2086;" horiz-adv-x="1226" 
d="M686 23q137 0 137 161q0 123 -70 208q-71 85 -173 128l102 144q131 0 245 -54q115 -54 183 -147q68 -95 68 -203t-87 -208t-225 -164t-279 -64q-142 0 -256 58t-177 160q-64 102 -64 248q0 144 72 276q149 272 792 538l72 -137q-311 -160 -446 -311q-136 -151 -136 -302
t62 -241t180 -90z" />
    <glyph glyph-name="seveninferior" unicode="&#x2087;" horiz-adv-x="1105" 
d="M1087 674v-160l-704 -1055l-174 52l588 876h-463l-68 -143l-143 41v415l184 -26h780z" />
    <glyph glyph-name="eightinferior" unicode="&#x2088;" horiz-adv-x="1216" 
d="M819 131q0 97 -151 190q-63 38 -174 93q-54 -56 -72 -98t-18 -97t34 -108q35 -53 94 -85t125 -32v2q74 0 118 40t44 95zM487 812q-1 -54 53 -104q54 -52 152 -108q39 57 49 92q34 117 -31 185q-42 43 -108 43l2 -2q-117 0 -117 -106zM1171 211q0 -90 -87 -179
q-87 -88 -212 -150t-225 -62q-174 0 -311 45t-213 124t-76 164t73 159t238 180q-224 129 -224 268q0 76 81 154q82 78 200 134q117 54 231 54t215 -36t157 -95t55 -129q-4 -63 -55 -132t-184 -175l-3 -7q166 -83 253 -155t87 -162z" />
    <glyph glyph-name="nineinferior" unicode="&#x2089;" horiz-adv-x="1206" 
d="M823 164q0 146 -62 235q-62 90 -181 90q-135 0 -136 -161q0 -123 71 -208t173 -128l-133 -146q-119 12 -225 66t-173 143t-67 197t87 208t223 164t280 64t257 -58q114 -58 177 -160q64 -102 64 -242t-71 -263q-146 -252 -777 -506l-72 138q305 149 435 285t130 282z" />
    <glyph glyph-name="Euro" unicode="&#x20ac;" horiz-adv-x="1898" 
d="M745 877v-13q0 -76 13 -147h459l-84 -166h-330q53 -127 151 -201t238 -74q197 0 551 173l94 -156l-377 -293q-152 -45 -367 -45t-379 74t-273 209q-110 135 -150 311h-291l84 166h184v49q0 51 11 113h-277l84 165h240q74 174 225 313q152 138 334 215q183 77 327 77
t312 -31t245 -66v-458h-262q-148 282 -397 280q-117 0 -210 -90t-132 -240h602l-84 -165h-541z" />
    <glyph glyph-name="uni20B9" unicode="&#x20b9;" horiz-adv-x="1433" 
d="M446 909q82 0 134 47q51 47 61 138h-621l84 166h525q-25 86 -90 135q-66 49 -166 49h-353l84 166h1289l-84 -166h-369q141 -72 176 -184h277l-84 -166h-206q-52 -120 -203 -210t-329 -124l439 -115l161 -399l183 -82l-82 -164h-484l-180 436q-63 168 -156 238t-253 69
h-176l83 166h340z" />
    <glyph glyph-name="uni2113" unicode="&#x2113;" horiz-adv-x="1361" 
d="M770 1565v2q-45 -1 -77 -53t-31 -142v-401q199 205 198 381q0 66 -26 140t-64 73zM821 258q76 0 183 43l61 -139l-207 -164q-84 -16 -196 -16q-213 0 -312 89q-98 89 -98 275v195l-178 -109l-74 141l252 164v533q0 141 105 266t265 199t308 73q63 0 152 -52t155 -132
t66 -160q1 -206 -177 -404t-464 -378v-301q0 -125 159 -125v2z" />
    <glyph glyph-name="uni2116" unicode="&#x2116;" horiz-adv-x="3325" 
d="M3285 168l-84 -166h-1288l84 166h1288zM1913 352l84 166h1288l-84 -166h-1288zM2558 1432q-125 -2 -125 -208q0 -110 54 -193t153 -83q123 0 123 195q-1 127 -55 208t-150 81zM1851 1612v-146l-194 -170v-1294h-215l-953 1014v-742l338 -110l-82 -164h-663v145l192 168
v1000l-233 133l82 164h391l928 -985v712l-336 109l82 166h663zM2036 1164q0 126 98 239t246 179t287 67q140 1 254 -57q113 -58 177 -156t64 -224t-98 -239t-246 -179t-288 -67q-140 0 -254 56q-114 55 -177 155t-63 226z" />
    <glyph glyph-name="uni2117" unicode="&#x2117;" horiz-adv-x="2127" 
d="M1507 998q0 -68 -39 -132q-38 -64 -118 -104t-197 -39l-86 49l47 94q76 0 76 121q0 47 -28 79t-66 32t-60 -19v-461l187 -77l-62 -123h-504v125l91 98v399l-111 47l41 144h270q90 0 160 6t94 6v-2q90 0 160 -34t108 -88t37 -121zM1688 760q0 166 -74 312
q-74 148 -224 237q-151 88 -372 88q-154 0 -286 -70q-132 -71 -212 -191t-80 -285t74 -312t224 -237q151 -89 372 -89q154 0 286 70q132 71 212 191t80 286zM968 -41q-240 0 -443 103q-203 104 -313 288t-110 421t165 441t409 321t484 117t443 -104t313 -288t110 -422
q0 -236 -166 -439q-164 -203 -408 -321t-484 -117z" />
    <glyph glyph-name="trademark" unicode="&#x2122;" horiz-adv-x="2095" 
d="M1602 967v98l75 49v291l-188 -438h-135l-215 434v-299l96 -29l-41 -106h-281v98l97 61v347l-117 30l41 107h409l144 -320l131 320h416v-99l-97 -59v-358l117 -21l-41 -106h-411zM596 1491v-397l119 -21l-41 -106h-434v98l96 61v365h-31l-151 -188l-93 45v278l95 -16h622
l94 16v-278l-92 -45l-149 188h-35z" />
    <glyph glyph-name="Ohm" unicode="&#x2126;" horiz-adv-x="2025" 
d="M1083 2v727q97 4 181 40t131 94t47 128q0 170 -121 279t-354 108q-105 0 -193 -36t-139 -96t-51 -132q0 -143 92 -253t266 -132v-727h-629l-170 -37v512l144 62l248 -342h49v299q-219 63 -351 201q-131 139 -131 313t156 321t387 233t459 87q228 0 420 -74
q190 -74 294 -203t105 -288q0 -160 -136 -296t-345 -225v-370h49l248 344l143 -62v-512l-170 37h-629z" />
    <glyph glyph-name="estimated" unicode="&#x212e;" horiz-adv-x="1996" 
d="M996 1425q-249 0 -390 -122v-414h785v416h-2q-144 120 -393 120zM1016 -41q-292 0 -496 102q-202 101 -310 293t-108 452t109 449q109 191 311 293t475 102t477 -102t312 -292t108 -449v-113h-1288v-391q141 -119 401 -119t384 116q61 58 120 159h320
q-125 -244 -324 -372t-491 -128z" />
    <glyph glyph-name="uni2153" unicode="&#x2153;" horiz-adv-x="2318" 
d="M115 852v123l159 108v428l-192 41l65 136h613v-123l-158 -109v-430l191 -39l-66 -135h-612zM561 -412l-141 74l1272 2394l143 -71zM1677 184q150 80 150 186q0 52 -33 80q-32 28 -92 28t-242 -75l-49 117l225 158q52 12 138 12t189 -31t164 -82q60 -52 60 -116
q-15 -135 -275 -259q178 -45 262 -102t83 -139q-1 -153 -191 -273t-608 -227l-41 148q195 55 296 96t142 84t41 105q0 111 -219 176v114z" />
    <glyph glyph-name="uni2154" unicode="&#x2154;" horiz-adv-x="2605" 
d="M86 850v143q352 230 422 313q39 46 39 79t-27 50t-67 17q-113 0 -332 -76l-49 140l225 157q80 27 201 27q209 0 335 -62t125 -165q0 -53 -98 -139t-299 -195h301l70 141l143 -41v-416l-184 27h-805zM848 -412l-141 74l1271 2394l144 -71zM1964 184q150 80 150 186
q0 52 -33 80t-93 28t-241 -75l-49 117l225 158q53 12 138 12t189 -31t164 -82q60 -52 60 -116q-15 -136 -276 -259q178 -45 262 -102t84 -139q0 -153 -190 -273t-609 -227l-41 148q195 55 296 96t142 84t41 105q0 111 -219 176v114z" />
    <glyph glyph-name="oneeighth" unicode="&#x215b;" horiz-adv-x="2598" 
d="M115 852v123l159 108v428l-192 41l65 136h613v-123l-158 -109v-430l191 -39l-66 -135h-612zM561 -412l-141 74l1272 2394l143 -71zM2202 131q0 97 -152 190q-63 38 -174 93q-54 -56 -72 -98t-18 -97t35 -108t94 -85t125 -32v2q74 0 118 40t44 95zM1870 812q0 -54 53 -104
q53 -52 152 -108q39 57 49 92t10 88q0 52 -42 96t-107 44l2 -2q-117 0 -117 -106zM2554 211q0 -90 -87 -179q-87 -88 -212 -150t-225 -62q-174 0 -312 45t-213 124t-75 164t72 159t239 180q-106 61 -166 126q-59 66 -59 142t82 154t199 134q117 54 231 54t216 -36t156 -95
q55 -59 56 -129q-4 -63 -56 -132t-184 -175l-2 -7q166 -83 253 -155t87 -162z" />
    </font>
</defs>
</svg>
