<?xml version="1.0" standalone="no"?>
<!DOCTYPE svg PUBLIC "-//W3C//DTD SVG 1.1//EN" "http://www.w3.org/Graphics/SVG/1.1/DTD/svg11.dtd" >
<svg xmlns="http://www.w3.org/2000/svg">
<metadata>
Created by FontPrep 20130207 at Sat Dec 19 14:53:56 2015
 By Martin Campillo
Copyright (c) 2014 by Claus Eggers Srensen (es@forthehearts.net).
</metadata>
<defs>
<font id="8e1467ca125570b0a474d8ecf4dbeea2" horiz-adv-x='1024' >
  <font-face 
    font-family="InknutAntiqua-Light"
    font-weight="300"
    font-stretch="normal"
    units-per-em="2048"
    panose-1="0 0 4 0 0 0 0 0 0 0"
    ascent="1638"
    descent="-410"
    x-height="1087"
    cap-height="1608"
    bbox="-2949 -1724 4628 3172"
    underline-thickness="79"
    underline-position="-287"
    unicode-range="U+0020-FB02"
  />
<missing-glyph horiz-adv-x="2859" 
d="M1452 391q-51 -1 -94 -25t-72 -66t-29 -100t40 -102q39 -45 91 -45q103 0 166 91q29 42 29 100t-40 102q-40 45 -91 45zM1424 1376q-90 0 -171 -16l-202 -158l61 -78q134 78 206 78t132 -30t97 -76q38 -46 38 -86q0 -38 -29 -66q-28 -28 -100 -81q-72 -52 -115 -98
q-43 -45 -43 -109t62 -140l215 107v63q-48 56 -46 90q3 33 32 61q29 29 101 81t113 98q42 46 41 103q0 59 -64 119t-151 99t-177 39zM1430 -473l-1307 1237l1307 1233l1306 -1233z" />
    <glyph glyph-name="IJ" unicode="IJ" horiz-adv-x="1738" 
d="M129 -4v53l193 150v1261l-211 76l34 72h603v-54l-195 -149v-1258l213 -79l-35 -72h-602zM1436 203q0 -188 18 -244l-379 -500l-67 54q115 147 154.5 249.5t39.5 251.5v1442l-252 82l37 72h643v-54l-194 -151v-1202z" />
    <glyph glyph-name="ij" unicode="ij" horiz-adv-x="1562" 
d="M1319 203q0 -188 18 -244l-383 -500l-67 54q123 145 165 247.5t42 253.5v799l-183 127v53l340 131h68v-921zM119 0v53l182 142v622l-182 129v53l340 125h67v-979l185 -73l-37 -72h-555zM236 1557.5q0 54.5 25.5 93.5t65.5 62.5t86.5 23.5t82.5 -43t36 -97.5t-25.5 -94.5
t-65.5 -63.5t-86 -23.5t-82.5 44t-36.5 98.5zM1030 1561.5q0 54.5 25.5 93.5t65.5 62.5t87 23.5t83 -43t36 -97.5t-25.5 -94.5t-65.5 -63.5t-86 -23.5t-83 44t-37 98.5z" />
    <glyph glyph-name="fi" unicode="fi" horiz-adv-x="1574" 
d="M522 1303v-279h414l309 100h68v-979l184 -73l-37 -72h-373v823l-167 127h-398v-788l283 -90l-37 -72h-653v53l182 142v755h-246v74h246v186q0 158 84 296t213 220q128 82 238 82t239 -30t174 -56q74 -43 74 -135q0 -45 -26 -85q-25 -40 -65 -64t-77 -23q-78 0 -112 74
q-35 73 -71 105t-91 43t-156 12q-199 0 -199 -346z" />
    <glyph glyph-name="fl" unicode="fl" horiz-adv-x="1574" 
d="M1087 0v1542q-45 47 -132 77t-164 30q-115 -1 -192 -93t-77 -253v-279h375v-74h-375v-788l283 -90l-37 -72h-653v53l182 142v755h-246v74h246v186q0 158 99 296t249 220t276 82t318 -20h74v-1643l184 -73l-37 -72h-373z" />
    <glyph glyph-name="f_adieresis.liga" unicode="f&#xe4;" horiz-adv-x="2150" 
d="M1683 477h-368q-53 -63 -53 -145t40.5 -140.5t106.5 -58.5q127 0 274 121v223zM1024 272q0 148 207 279h452v149q0 137 -71.5 192.5t-197.5 55.5t-300 -162l-61 70l297 236q80 14 186 14q178 0 275.5 -89t97.5 -257v-617l184 -71l-35 -72h-375v178l-231 -182
q-41 -16 -102 -16q-172 0 -249 86t-77 206zM1636 1567q0 64 50.5 111.5t102.5 47.5t85 -40.5t33 -104.5t-50.5 -112t-102.5 -48t-85 41t-33 105zM899 1024v-74h-377v-788l283 -90l-37 -72h-653v53l182 142v755h-246v74h246v186q0 158 94 296.5t236.5 220t258.5 81.5
t236.5 -29.5t167.5 -58.5q74 -43 74 -135q0 -63 -49 -113.5t-95 -50.5t-73 18.5t-51 73.5t-58 85t-90.5 40.5t-163.5 10.5q-262 0 -262 -346v-279h377z" />
    <glyph glyph-name="f_b.liga" unicode="fb" horiz-adv-x="2279" 
d="M1645 137q241 0 241 340q0 197 -61 333t-172 136q-80 0 -155 -32t-185 -132v-405q12 -104 97 -171t235 -67v-2zM1087 0v1542q-45 47 -132 77t-164 30q-115 -1 -192 -93t-77 -253v-279h375v-74h-375v-788l283 -90l-37 -72h-653v53l182 142v755h-246v74h246v186
q0 158 99 296t249 220t276 82t318 -20l-2 -8l8 8h68v-920l280 222q67 16 167 16t187 -71t136 -191t49 -272t-94 -290t-236 -220t-276 -82q-173 0 -287 145l-84 -125h-68z" />
    <glyph glyph-name="f_eth.liga" unicode="f&#xf0;" horiz-adv-x="2240" 
d="M1849 568q0 204 -63 382h-279q-242 0 -241 -342q0 -139 42 -244q88 -219 291 -221l-2 2q252 1 252 423zM2085 718q0 -202 -84 -368q-84 -168 -223 -268q-138 -100 -282 -100q-283 0 -414 258q-60 121 -60 267q0 145 88 285t229 228t287 88q41 0 90 -6q-92 172 -239 307
l-351 -217l-45 74l326 200q-55 43 -117 80q-133 62 -216 80q-84 18 -192 18t-187 -48q-79 -50 -126 -142t-47 -211v-219h359v-74h-359v-788l283 -90l-37 -72h-653v53l182 142v755h-246v74h246v96q0 176 103 336q102 160 274 256t360 96h187q209 -59 395 -215l348 215l45 -73
l-323 -199q180 -172 290 -394t109 -424z" />
    <glyph glyph-name="f_f.liga" unicode="ff" horiz-adv-x="1665" 
d="M1085 1210q0 137 66 265q-74 51 -176 81t-203 31q-100 0 -176 -92t-76 -254v-217h565v186zM1630 1808q53 0 122 -9t99 -19v-305h-67q-53 80 -127 127t-150 47q-197 0 -196 -346v-279h372v-74h-372v-790l280 -88l-35 -72h-471v950h-565v-788l283 -90l-37 -72h-653v53
l182 142v755h-246v74h246v125q0 158 98 296q99 138 247 220t288 82q82 0 187 -23t188 -57q158 141 327 141z" />
    <glyph glyph-name="f_f_adieresis.liga" unicode="ff&#xe4;" horiz-adv-x="2938" 
d="M2472 479h-371q-51 -61 -51 -144t40 -141.5t105 -58.5q130 0 277 121v223zM1810 274q0 145 209 279h453v149q0 137 -72.5 192.5t-198.5 55.5t-300 -162l-62 70l297 236q80 14 186 14q178 0 276.5 -89t98.5 -257v-617l185 -71l-37 -72h-373v178l-231 -182
q-41 -16 -103 -16q-172 0 -250 86t-78 206zM1085 1212q0 135 72 258q-72 55 -176 86t-207 31t-178.5 -92t-75.5 -254v-217h375l190 2v186zM2423 1556q0 52 24.5 88.5t60.5 59t78 22.5t75.5 -41t33.5 -93t-24.5 -89t-60.5 -59.5t-79 -22.5t-75.5 41.5t-32.5 93.5zM1696 1808
q94 0 215 -29.5t164 -55.5q79 -48 79 -138q0 -63 -50 -113.5t-95 -50.5t-71.5 17.5t-51.5 73.5t-59.5 86t-91 40.5t-162.5 10.5q-260 0 -260 -346l-2 -279h375v-74h-375v-790l280 -88l-35 -72h-471v950h-565v-788l283 -90l-37 -72h-653v53l182 142v755h-246v74h246v125
q0 158 98.5 296t246.5 220t288 82q86 0 197.5 -25.5t195.5 -62.5q187 149 375 149z" />
    <glyph glyph-name="f_f_b.liga" unicode="ffb" horiz-adv-x="3067" 
d="M2429 137q240 0 242 340q1 199 -61 334t-173 135q-80 0 -155 -32t-185 -132v-405q12 -104 97 -171t235 -67v-2zM1083 1210q0 133 76 258q-72 55 -178 87t-208 32q-101 0 -177 -92t-76 -254v-217h563v186zM1327 1657q189 151 405 151q104 0 296 -20l-3 -8l9 8h67v-920
l281 222q64 16 164 16t187 -71t136 -191t49 -272t-94 -290t-236 -220t-276 -82q-170 0 -284 145l-84 -125h-68v1542q-45 47 -132 77t-165 30q-115 -1 -191 -93t-75 -253v-279h373v-74h-373v-790l280 -88l-34 -72h-472v950h-565v-788l283 -90l-37 -72h-653v53l182 142v755
h-246v74h246v125q0 158 98 296q99 138 247 220t288 82q88 0 200 -27t197 -63z" />
    <glyph glyph-name="f_f_eth.liga" unicode="ff&#xf0;" horiz-adv-x="3028" 
d="M2292 944q-242 0 -242 -342q0 -138 42 -244t117 -163t175 -58l-2 2q250 1 252 423q0 204 -64 382h-278zM1083 1073q0 193 109 365q-70 68 -186 108t-226 39q-108 0 -184 -92t-76 -254v-217h563v51zM1825 1808h184q209 -59 395 -215l349 215l47 -73l-328 -201l-2 -2
q182 -172 292 -393t110 -423t-85 -369q-84 -167 -223 -267q-138 -100 -282 -100t-248 68t-165 190q-61 121 -61 267q0 145 88 285t230 228t287 88q41 0 90 -6q-92 172 -240 307l-350 -217l-43 74l325 200q-57 45 -122 86q-129 58 -212 76t-223 18t-233 -120
q-92 -121 -92 -350v-150h356v-74h-356v-790l280 -88l-34 -72h-472v950h-565v-788l283 -90l-37 -72h-653v53l182 142v755h-246v74h246v125q0 158 98 296q99 138 247 220t267 82t249 -34t210 -77q210 172 457 172z" />
    <glyph glyph-name="f_f_h.liga" unicode="ffh" horiz-adv-x="3041" 
d="M1085 1210q0 133 76 258q-72 55 -178 87t-208 32q-101 0 -177 -92t-76 -254v-217h563v186zM1327 1657q189 151 405 151q104 0 296 -20h73v-930l293 232q43 16 111 16q137 0 216 -85t79 -230v-646l184 -73l-35 -72h-375v698q0 117 -37 162t-119 45q-82 1 -152 -25
t-165 -104v-631l185 -73l-37 -72h-373v1542q-45 47 -132 77t-165 30q-115 -1 -191 -93t-75 -253v-279h373v-74h-373v-790l280 -88l-34 -72h-472v950h-565v-788l283 -90l-37 -72h-653v53l182 142v755h-246v74h246v125q0 158 98 296q99 138 247 220t288 82q88 0 200 -27
t197 -63z" />
    <glyph glyph-name="f_f_i.liga" unicode="ffi" horiz-adv-x="2365" 
d="M1085 1210q0 137 66 265q-74 51 -176 81t-203 31q-100 0 -176 -92t-76 -254v-217h565v186zM2109 1587q-1 -45 -27 -85t-66 -64t-75 -23q-81 0 -114 80q-33 67 -70 99t-92 43t-156 12q-197 0 -196 -346v-279h411l310 100h67v-979l183 -73l-37 -72h-373v823l-168 127h-395
v-790l280 -88l-35 -72h-471v950h-565v-788l283 -90l-37 -72h-653v53l182 142v755h-246v74h246v125q0 158 98 296q99 138 247 220t288 82q82 0 187 -23t188 -57q160 143 329 141q98 0 228 -30t171 -54q78 -46 78 -137z" />
    <glyph glyph-name="f_f_idieresis.liga" unicode="ff&#xef;" horiz-adv-x="2418" 
d="M1085 1210q0 137 66 265q-74 51 -176 81t-203 31q-100 0 -176 -92t-76 -254v-217h565v186zM2417 1581q-1 -64 -51 -112t-102 -48t-85 41t-33 105q0 63 50 111t102 48t86 -40q33 -41 33 -105zM1876 1591q0 -74 -50 -122t-104 -48t-90 46q-34 45 -30 97t-16 68t-77 17
q-197 0 -196 -346v-279h465l309 100h67l-2 -979l185 -73l-35 -72h-557v53l182 142v628l-168 127h-448v-790l280 -88l-35 -72h-471v950h-565v-788l283 -90l-37 -72h-653v53l182 142v755h-246v74h246v125q0 158 98 296q99 138 247 220t288 82q82 0 187 -23t188 -57
q160 143 329 141q38 0 96 -22t103 -71q45 -50 45 -124z" />
    <glyph glyph-name="f_f_igrave.liga" unicode="ff&#xec;" horiz-adv-x="2365" 
d="M1085 1210q0 137 66 265q-74 51 -176 81t-203 31q-100 0 -176 -92t-76 -254v-217h565v186zM1313 1024h411l310 100h67v-979l183 -73l-37 -72h-373v823l-168 127h-395v-790l280 -88l-35 -72h-471v950h-565v-788l283 -90l-37 -72h-653v53l182 142v755h-246v74h246v125
q0 158 98 296q99 138 247 220t288 82q82 0 187 -23t188 -57q160 143 329 141l223 19l220 -402l-74 -39q-147 142 -265 202t-227 61q-197 0 -196 -346v-279z" />
    <glyph glyph-name="f_f_iogonek.liga" unicode="ff&#x12f;" horiz-adv-x="2365" 
d="M1085 1210q0 137 66 265q-74 51 -176 81t-203 31q-100 0 -176 -92t-76 -254v-217h565v186zM2109 1587q-1 -45 -27 -85t-66 -64t-75 -23q-81 0 -114 80q-33 67 -70 99t-92 43t-156 12q-197 0 -196 -346v-279h411l310 100h67v-979l185 -73l-39 -70l2 -2q-99 -84 -143 -141
t-44 -105q0 -74 95 -90v-67l-172 -138q-160 68 -160 228q0 45 16 82l293 231h-260v823l-168 127h-395v-790l280 -88l-35 -72h-471v950h-565v-788l283 -90l-37 -72h-653v53l182 142v755h-246v74h246v125q0 158 98 296q99 138 247 220t288 82q82 0 187 -23t188 -57
q160 143 329 141q98 0 228 -30t171 -54q78 -46 78 -137z" />
    <glyph glyph-name="f_f_j.liga" unicode="ffj" horiz-adv-x="2342" 
d="M1085 1210q0 137 66 265q-74 51 -176 81t-203 31q-100 0 -176 -92t-76 -254v-217h565v186zM2099 203q0 -193 19 -244l-383 -500l-68 54q123 145 165 247t42 254v809l-168 127h-395v-790l280 -88l-35 -72h-471v950h-565v-788l283 -90l-37 -72h-653v53l182 142v755h-246v74
h246v125q0 158 98 296q99 138 247 220t288 82q82 0 187 -23t188 -57q160 143 329 141q98 0 228 -30t171 -54q78 -46 78 -137q-1 -45 -27 -85t-66 -64t-75 -23q-81 0 -114 80q-33 67 -70 99t-92 43t-156 12q-197 0 -196 -346v-279h411l310 100h67v-921h-2z" />
    <glyph glyph-name="f_f_k.liga" unicode="ffk" horiz-adv-x="3012" 
d="M2922 1085v-53l-487 -411l361 -480l182 -69l-37 -72h-330l-395 539l387 329l-186 146l37 71h468zM1085 1210q0 133 76 258q-72 55 -178 87t-208 32q-101 0 -177 -92t-76 -254v-217h563v186zM1327 1657q189 151 405 151q104 0 296 -20h73v-1643l185 -73l-37 -72h-373v1542
q-45 47 -132 77t-165 30q-115 -1 -191 -93t-75 -253v-279h373v-74h-373v-790l280 -88l-34 -72h-472v950h-565v-788l283 -90l-37 -72h-653v53l182 142v755h-246v74h246v125q0 158 98 296q99 138 247 220t288 82q88 0 200 -27t197 -63z" />
    <glyph glyph-name="f_f_kcommaaccent.liga" unicode="ff&#x137;" horiz-adv-x="3012" 
d="M2922 1085v-53l-487 -411l361 -480l182 -69l-37 -72h-330l-395 539l387 329l-186 146l37 71h468zM1085 1210q0 133 76 258q-72 55 -178 87t-208 32q-101 0 -177 -92t-76 -254v-217h563v186zM1327 1657q189 151 405 151q104 0 296 -20h73v-1643l185 -73l-37 -72h-373v1542
q-45 47 -132 77t-165 30q-115 -1 -191 -93t-75 -253v-279h373v-74h-373v-790l280 -88l-34 -72h-472v950h-565v-788l283 -90l-37 -72h-653v53l182 142v755h-246v74h246v125q0 158 98 296q99 138 247 220t288 82q88 0 200 -27t197 -63zM2650 -170v-53l-260 -400h-66l52 263
l-154 118l35 72h393z" />
    <glyph glyph-name="f_f_l.liga" unicode="ffl" horiz-adv-x="2365" 
d="M1085 1210q0 133 76 258q-72 55 -178 87t-208 32q-101 0 -177 -92t-76 -254v-217h563v186zM1327 1657q189 151 405 151q104 0 296 -20h73v-1643l185 -73l-37 -72h-373v1542q-45 47 -132 77t-165 30q-115 -1 -191 -93t-75 -253v-279h373v-74h-373v-790l280 -88l-34 -72
h-472v950h-565v-788l283 -90l-37 -72h-653v53l182 142v755h-246v74h246v125q0 158 98 296q99 138 247 220t288 82q88 0 200 -27t197 -63z" />
    <glyph glyph-name="f_f_lcaron.liga" unicode="ff&#x13e;" horiz-adv-x="2365" 
d="M1085 1210q0 133 76 258q-72 55 -178 87t-208 32q-101 0 -177 -92t-76 -254v-217h563v186zM1327 1657q189 151 405 151q104 0 296 -20h73v-1643l185 -73l-37 -72h-373v1542q-45 47 -132 77t-165 30q-115 -1 -191 -93t-75 -253v-279h373v-74h-373v-790l280 -88l-34 -72
h-472v950h-565v-788l283 -90l-37 -72h-653v53l182 142v755h-246v74h246v125q0 158 98 296q99 138 247 220t288 82q88 0 200 -27t197 -63zM2370 1534q0 20 -5 49l-73 68v53l219 84h67v-297l-247 -322l-68 54q107 164 107 311z" />
    <glyph glyph-name="f_f_lcommaaccent.liga" unicode="ff&#x13c;" horiz-adv-x="2365" 
d="M1085 1210q0 133 76 258q-72 55 -178 87t-208 32q-101 0 -177 -92t-76 -254v-217h563v186zM1327 1657q189 151 405 151q104 0 296 -20h73v-1643l185 -73l-37 -72h-373v1542q-45 47 -132 77t-165 30q-115 -1 -191 -93t-75 -253v-279h373v-74h-373v-790l280 -88l-34 -72
h-472v950h-565v-788l283 -90l-37 -72h-653v53l182 142v755h-246v74h246v125q0 158 98 296q99 138 247 220t288 82q88 0 200 -27t197 -63zM2263 -170v-53l-260 -400h-66l52 263l-154 118l35 72h393z" />
    <glyph glyph-name="f_f_odieresis.liga" unicode="ff&#xf6;" horiz-adv-x="2971" 
d="M2576 483q0 199 -86 332t-247 133q-244 0 -244 -342q0 -199 86 -332t250 -133q241 0 241 342zM2822 574q0 -152 -94 -290t-236 -220t-275 -82q-132 0 -238 69q-105 70 -164 191q-59 120 -59 272t93 291q95 139 237 221t276 82t237 -71t163 -191t60 -272zM1085 1212
q0 135 72 258q-72 55 -176 86t-207 31q-102 0 -178 -92t-76 -254v-217h375l190 2v186zM2423 1556q0 97 85 148q36 22 78 22t75 -40q34 -40 34 -94q0 -97 -85 -148q-36 -23 -78 -23t-76 41q-33 42 -33 94zM1686 1024v-74h-375v-790l280 -88l-35 -72h-471v950h-565v-788
l283 -90l-37 -72h-653v53l182 142v755h-246v74h246v125q0 158 98 296q99 138 247 220t288 82q86 0 198 -26t195 -62q187 149 375 149q94 0 215 -30t164 -55q79 -48 79 -138q0 -63 -50 -113t-95 -51t-72 17t-51 74t-59 86t-91 40t-163 11q-260 0 -260 -346l-2 -279h375z" />
    <glyph glyph-name="f_h.liga" unicode="fh" horiz-adv-x="2250" 
d="M1786 0v698q0 117 -37 162t-119 45q-82 1 -152 -25t-165 -104v-631l184 -73l-37 -72h-373v1542q-45 47 -132 77t-164 30q-115 -1 -192 -93t-77 -253v-279h375v-74h-375v-788l283 -90l-37 -72h-653v53l182 142v755h-246v74h246v186q0 158 99 296t249 220t276 82t318 -20
h74v-930l293 232q43 16 110 16q135 0 215 -85t80 -230v-646l184 -73l-36 -72h-373z" />
    <glyph glyph-name="f_idieresis.liga" unicode="f&#xef;" horiz-adv-x="1630" 
d="M1630 1592q0 -97 -85 -148q-35 -23 -77 -23t-76 41q-34 42 -34 94q0 97 85 148q37 23 79 23t75 -41q33 -42 33 -94zM522 1303v-279h467l309 100h68v-979l184 -73l-34 -72h-558v53l183 142v628l-168 127h-451v-788l283 -90l-37 -72h-653v53l182 142v755h-246v74h246v186
q0 158 84 296t213 220t250 82q39 0 96 -22t102 -71q45 -51 45 -113q0 -107 -85 -158q-36 -23 -80 -23t-79 46q-36 46 -32 112q2 5 2 25q0 43 -92 45q-199 0 -199 -346z" />
    <glyph glyph-name="f_igrave.liga" unicode="f&#xec;" horiz-adv-x="1574" 
d="M522 1303v-279h414l309 100h68v-979l184 -73l-37 -72h-373v823l-167 127h-398v-788l283 -90l-37 -72h-653v53l182 142v755h-246v74h246v186q0 158 84 296t213 220t250 82l223 19l219 -402l-76 -39q-147 142 -264 202t-225 61q-199 0 -199 -346z" />
    <glyph glyph-name="f_iogonek.liga" unicode="f&#x12f;" horiz-adv-x="1574" 
d="M522 1303v-279h414l309 100h68v-979l184 -73l-37 -70l2 -2q-100 -84 -143 -141t-43 -105q0 -75 94 -90v-67l-172 -138q-160 68 -160 228q0 45 17 82l293 231h-261v823l-167 127h-398v-788l283 -90l-37 -72h-653v53l182 142v755h-246v74h246v186q0 158 84 296t213 220
q128 82 238 82t239 -30t174 -56q74 -43 74 -135q0 -45 -26 -85q-25 -40 -65 -64t-77 -23q-78 0 -112 74q-35 73 -71 105t-91 43t-156 12q-199 0 -199 -346z" />
    <glyph glyph-name="f_j.liga" unicode="fj" horiz-adv-x="1554" 
d="M1313 203q0 -190 18 -244l-383 -500l-67 54q123 145 165 247t41 254v809l-167 127h-398v-788l283 -90l-37 -72h-653v53l182 142v755h-246v74h246v186q0 158 84 296t213 220q128 82 238 82t239 -30t174 -56q74 -43 74 -135q0 -45 -26 -85q-25 -40 -65 -64t-77 -23
q-78 0 -112 74q-35 73 -71 105t-91 43t-156 12q-199 0 -199 -346v-279h414l309 100h68v-921z" />
    <glyph glyph-name="f_k.liga" unicode="fk" horiz-adv-x="2224" 
d="M2134 1085v-53l-485 -411l362 -480l178 -69l-35 -72h-331l-396 539l388 329l-185 146l35 71h469zM1087 0v1542q-45 47 -132 77t-164 30q-115 -1 -192 -93t-77 -253v-279h375v-74h-375v-788l283 -90l-37 -72h-653v53l182 142v755h-246v74h246v186q0 158 99 296t249 220
t276 82t318 -20h74v-1643l184 -73l-37 -72h-373z" />
    <glyph glyph-name="f_kcommaaccent.liga" unicode="f&#x137;" horiz-adv-x="2224" 
d="M2134 1085v-53l-485 -411l362 -480l178 -69l-35 -72h-331l-396 539l388 329l-185 146l35 71h469zM1087 0v1542q-45 47 -132 77t-164 30q-115 -1 -192 -93t-77 -253v-279h375v-74h-375v-788l283 -90l-37 -72h-653v53l182 142v755h-246v74h246v186q0 158 99 296t249 220
t276 82t318 -20h74v-1643l184 -73l-37 -72h-373zM1860 -170v-53l-261 -400h-65l51 263l-153 118l34 72h394z" />
    <glyph glyph-name="f_lcaron.liga" unicode="f&#x13e;" horiz-adv-x="1574" 
d="M1087 0v1542q-45 47 -132 77t-164 30q-115 -1 -192 -93t-77 -253v-279h375v-74h-375v-788l283 -90l-37 -72h-653v53l182 142v755h-246v74h246v186q0 158 99 296t249 220t276 82t318 -20h74v-1643l184 -73l-37 -72h-373zM1579 1534q0 20 -4 49l-74 68v53l219 84h68v-297
l-248 -322l-67 54q106 162 106 311z" />
    <glyph glyph-name="f_lcommaaccent.liga" unicode="f&#x13c;" horiz-adv-x="1574" 
d="M1087 0v1542q-45 47 -132 77t-164 30q-115 -1 -192 -93t-77 -253v-279h375v-74h-375v-788l283 -90l-37 -72h-653v53l182 142v755h-246v74h246v186q0 158 99 296t249 220t276 82t318 -20h74v-1643l184 -73l-37 -72h-373zM1450 -170v-53l-260 -400h-66l52 263l-154 118
l35 72h393z" />
    <glyph glyph-name="f_odieresis.liga" unicode="f&#xf6;" horiz-adv-x="2183" 
d="M1790 481q0 199 -86 332t-250 133q-242 0 -242 -342q0 -199 86 -332t248 -133q244 0 244 342zM967 512q0 152 94 291t236 221q141 82 275 82t238 -71t164 -191t60 -272t-94 -290t-237 -220t-275 -82t-237 70t-165 190q-59 120 -59 272zM1636 1567q0 63 50 111t103 48
q52 0 85 -40t33 -105q0 -64 -50 -112q-51 -48 -103 -48t-85 41t-33 105zM899 1024v-74h-377v-788l283 -90l-37 -72h-653v53l182 142v755h-246v74h246v186q0 158 94 296q95 138 237 220t258 82t236 -30q121 -30 168 -58q74 -43 74 -135q0 -63 -49 -113t-95 -51q-46 1 -72 19
q-28 18 -52 73t-58 85q-35 30 -91 40t-163 11q-262 0 -262 -346v-279h377z" />
    <glyph glyph-name="longs_t.liga" unicode="&#x17f;t" horiz-adv-x="1763" 
d="M1102 342v606h-221v78l241 287q-59 125 -155.5 199.5t-194.5 74.5t-174 -92t-76 -254v-1079l283 -90l-37 -72h-653v53l182 142v755h-246v74h246v125q0 158 98.5 296t247 220t287.5 82q61 0 141 -40t150.5 -103.5t105.5 -126.5v-453h369v-74h-369v-639q0 -170 160 -170
q43 0 83 18.5t99 69.5l62 -71l-207 -164q-43 -16 -105 -17q-166 0 -241.5 89.5t-75.5 275.5z" />
    <glyph glyph-name="longs_b.liga" unicode="&#x17f;b" horiz-adv-x="2281" 
d="M1888 477q0 197 -61 333t-172 136q-80 0 -155 -33t-185 -133v-368q0 -117 86 -195t248 -78l-2 -2q241 0 241 340zM1087 0v1542q-45 47 -132 77t-164 30q-115 -1 -192 -93t-77 -253v-1141l283 -90l-37 -72h-653v53l182 142v755h-246v74h246v186q0 158 99 296t249 220
t276 82t318 -20h74v-922l282 224q66 16 160 16h2q107 0 194 -71t136 -191t49 -272t-94 -290t-236 -220t-276 -82q-174 0 -289 147l-86 -127h-68z" />
    <glyph glyph-name="longs_h.liga" unicode="&#x17f;h" horiz-adv-x="2250" 
d="M1786 0v698q0 117 -37 162t-119 45q-82 1 -152 -25t-165 -104v-631l184 -73l-37 -72h-373v1542q-45 47 -132 77t-164 30q-115 -1 -192 -93t-77 -253v-1141l283 -90l-37 -72h-653v53l182 142v755h-246v74h246v186q0 158 99 296t249 220t276 82t318 -20h74v-930l293 232
q43 16 110 16q135 0 215 -85t80 -230v-646l184 -73l-36 -72h-373z" />
    <glyph glyph-name="longs_i.liga" unicode="&#x17f;i" horiz-adv-x="1574" 
d="M1087 0v817l-182 129v53l340 125h68v-979l184 -73l-37 -72h-373zM522 1303v-1141l283 -90l-37 -72h-653v53l182 142v755h-246v74h246v186q0 158 84 296t213 220q128 82 238 82t239 -30t174 -56q74 -43 74 -135q0 -45 -26 -85q-25 -40 -65 -64t-77 -23q-78 0 -112 74
q-35 73 -71 105t-91 43t-156 12q-199 0 -199 -346z" />
    <glyph glyph-name="longs_k.liga" unicode="&#x17f;k" horiz-adv-x="2220" 
d="M2132 1087v-53l-485 -411l362 -482l178 -67l-35 -72h-331l-396 539l387 329l-184 146l35 71h469zM1087 0v1542q-45 47 -132 77t-164 30q-115 -1 -192 -93t-77 -253v-1141l283 -90l-37 -72h-653v53l182 142v755h-246v74h246v186q0 158 99 296t249 220t276 82t318 -20h74
v-1643l184 -73l-37 -72h-373z" />
    <glyph glyph-name="longs_l.liga" unicode="&#x17f;l" horiz-adv-x="1574" 
d="M1087 0v1542q-45 47 -132 77t-164 30q-115 -1 -192 -93t-77 -253v-1141l283 -90l-37 -72h-653v53l182 142v755h-246v74h246v186q0 158 99 296t249 220t276 82t318 -20h74v-1643l184 -73l-37 -72h-373z" />
    <glyph glyph-name="longs_longs.liga" unicode="&#x17f;&#x17f;" horiz-adv-x="1665" 
d="M1630 1808q53 0 122 -9t99 -19v-305h-67q-53 80 -127 127t-150 47q-197 0 -196 -346v-1143l280 -88l-35 -72h-471v950h-247v74h247v186q0 137 66 265q-74 51 -176 81t-203 31q-100 0 -176 -92t-76 -254v-1079l283 -90l-37 -72h-653v53l182 142v755h-246v74h246v125
q0 158 98 296q99 138 247 220t288 82q82 0 187 -23t188 -57q158 141 327 141z" />
    <glyph glyph-name="longs_longs_i.liga" unicode="&#x17f;&#x17f;i" horiz-adv-x="2365" 
d="M1874 -2v817l-182 129v53l340 125h67v-979l185 -73l-37 -72h-373zM2109 1587q-1 -45 -27 -85t-66 -64t-75 -23q-81 0 -114 80q-33 67 -70 99t-92 43t-156 12q-197 0 -196 -346l-2 -1143l280 -88l-35 -72h-471v950h-247v74h247v186q0 137 66 265q-74 51 -176 81t-203 31
q-100 0 -176 -92t-76 -254v-1079l283 -90l-37 -72h-653v53l182 142v755h-246v74h246v125q0 158 98 296q99 138 247 220t288 82q82 0 187 -23t188 -57q160 143 329 141q98 0 228 -30t171 -54q78 -46 78 -137z" />
    <glyph glyph-name="longs_longs_l.liga" unicode="&#x17f;&#x17f;l" horiz-adv-x="2365" 
d="M1327 1657q189 151 405 151q104 0 296 -20h73v-1643l183 -73l-37 -72h-373v1542q-45 47 -132 77t-165 30q-115 -1 -191 -93t-75 -253v-1143l280 -88l-35 -72h-471v950h-247v74h247v186q0 133 76 258q-72 55 -178 87t-208 32q-101 0 -177 -92t-76 -254v-1079l283 -90
l-37 -72h-653v53l182 142v755h-246v74h246v125q0 158 98 296q99 138 247 220t288 82q88 0 200 -27t197 -63z" />
    <glyph glyph-name=".notdef" horiz-adv-x="2859" 
d="M1452 391q-51 -1 -94 -25t-72 -66t-29 -100t40 -102q39 -45 91 -45q103 0 166 91q29 42 29 100t-40 102q-40 45 -91 45zM1424 1376q-90 0 -171 -16l-202 -158l61 -78q134 78 206 78t132 -30t97 -76q38 -46 38 -86q0 -38 -29 -66q-28 -28 -100 -81q-72 -52 -115 -98
q-43 -45 -43 -109t62 -140l215 107v63q-48 56 -46 90q3 33 32 61q29 29 101 81t113 98q42 46 41 103q0 59 -64 119t-151 99t-177 39zM1430 -473l-1307 1237l1307 1233l1306 -1233z" />
    <glyph glyph-name=".null" horiz-adv-x="0" 
 />
    <glyph glyph-name="nonmarkingreturn" horiz-adv-x="681" 
 />
    <glyph glyph-name="space" unicode=" " horiz-adv-x="581" 
 />
    <glyph glyph-name="exclam" unicode="!" horiz-adv-x="716" 
d="M498 161q0 -54 -27 -94t-67 -64q-40 -23 -86 -23t-82 43q-37 43 -37 97q0 101 92 158q39 24 86 24t84 -44q37 -43 37 -97zM297 483l-121 979v54l264 94h68l-105 -1127h-106z" />
    <glyph glyph-name="quotedbl" unicode="&#x22;" horiz-adv-x="933" 
d="M246 909l-123 570v53l205 78h67l-69 -699zM664 909l-123 570v53l204 78h68l-70 -699z" />
    <glyph glyph-name="numbersign" unicode="#" horiz-adv-x="1597" 
d="M727 709l-195 -338h332l195 338h-332zM958 371h332l-47 -82h-332l-178 -309l-69 40l155 269h-332l-178 -309l-69 40l155 269h-329l47 82h329l195 338h-332l49 82h330l182 315l70 -41l-158 -274h332l182 315l70 -41l-158 -274h330l-49 -82h-332z" />
    <glyph glyph-name="dollar" unicode="$" horiz-adv-x="1433" 
d="M1049 373q0 77 -78 143t-226 141v-567h3q89 0 158 39t106 103t37 141zM414 1241q0 -74 59 -135t170 -123v533q-105 -12 -167 -88t-62 -187zM743 -410h-100v371q-129 10 -270 37t-207 55v387h55q186 -283 422 -338v607q-150 76 -244 134q-95 58 -159 136t-64 172t73 204
q73 109 183 191t211 101v372h100v-370q125 -6 267 -34t211 -61v-387h-56q-193 307 -424 346v-583l66 -33q154 -76 248 -134q225 -139 225 -306h2q0 -102 -88 -219t-216 -198t-235 -83v-367z" />
    <glyph glyph-name="percent" unicode="%" horiz-adv-x="2189" 
d="M301 1430q0 -140 85 -236t247 -96q262 0 262 245q0 141 -87 237t-249 95q-258 1 -258 -245zM538 963q-122 0 -222 52t-154 144q-56 92 -56 206t86 217q86 102 215 164q128 62 251 62t222 -53t154 -143q56 -90 56 -205t-86 -218t-216 -165q-128 -62 -250 -61zM345 -284
l-64 45l1627 2177l66 -43zM1296 231q0 -141 85 -237t247 -96q262 0 262 247q0 141 -87 237t-249 95q-258 0 -258 -246zM2085 209q0 -115 -86 -218t-215 -165t-251 -62t-221 52t-155 145q-55 92 -55 206t86 217q86 102 214 164t251 62t222 -53t155 -143t55 -205z" />
    <glyph glyph-name="ampersand" unicode="&#x26;" horiz-adv-x="2557" 
d="M657 1032q-258 0 -258 -396q1 -202 95 -347t272 -146q70 0 152 35t215 141l645 506q-78 19 -182 65t-155 61q-50 15 -115 15t-126 -24q-61 -25 -137 -90q-36 -157 -252 -313q-90 -66 -260 -179l-37 72q170 109 231 210q61 102 61 194t-46 144q-47 52 -103 52zM1878 -16
q-108 0 -198 49q-91 49 -142 132t-51 174t35 171l-652 -514q-90 -14 -228 -14t-250 74t-175 205q-63 130 -63 294t100 311q100 148 253 236t294 88q59 0 114 -35t95 -88t53 -102q86 100 199 162q113 63 204 63t151 -22t146 -66t152 -66q138 -48 253 2q54 25 92 69
q38 43 38 107t-76 136t-209 127v53l217 88q63 -66 130 -178t67 -201q0 -88 -81 -193q-82 -104 -190 -176t-172 -72t-118 7q-139 -101 -137 -369q-1 -129 69 -213t201 -84l4 4q114 0 315 174l62 -69l-320 -250q-74 -14 -182 -14z" />
    <glyph glyph-name="quotesingle" unicode="'" horiz-adv-x="518" 
d="M246 909l-123 570v53l205 78h67l-69 -699z" />
    <glyph glyph-name="parenleft" unicode="(" horiz-adv-x="1060" 
d="M406 820q0 -370 129 -685t387 -495l-48 -70q-220 84 -382 249t-252 397t-90 511q0 725 733 1225l41 -70q-246 -184 -382 -438t-136 -624z" />
    <glyph glyph-name="parenright" unicode=")" horiz-adv-x="1060" 
d="M655 702q0 370 -129 684q-129 315 -387 496l47 70q219 -84 382 -249t253 -397t90 -511q0 -725 -733 -1225l-41 70q246 184 382 438t136 624z" />
    <glyph glyph-name="asterisk" unicode="*" horiz-adv-x="1429" 
d="M1081 532l-295 13l-26 47l162 82l-205 352l35 21l274 -197zM709 1030l-33 -336l-248 -207l-135 261l24 47l152 -99l205 353zM758 1053v41l307 139l303 -111l-160 -250h-53l12 181h-409zM672 1098v-41l-307 -139l-304 112l160 248h53l-12 -180h410zM713 1124l-35 -20
l-275 196l-55 318l295 -12l27 -47l-160 -82zM721 1122l35 336l245 207l136 -262l-25 -47l-151 100l-205 -354z" />
    <glyph glyph-name="plus" unicode="+" horiz-adv-x="1075" 
d="M573 594v-418h-73v418h-418v74h418v417h73v-417h418v-74h-418z" />
    <glyph glyph-name="comma" unicode="," horiz-adv-x="757" 
d="M176 -541l-67 54q109 129 152 221q44 92 52 207l-157 92v53l333 170l70 -297z" />
    <glyph glyph-name="hyphen" unicode="-" horiz-adv-x="1050" 
d="M879 709v-52l-82 -104h-625v51l82 105h625z" />
    <glyph glyph-name="period" unicode="." horiz-adv-x="698" 
d="M498 161q0 -102 -91 -158q-40 -23 -86 -23t-83 43t-37 97q0 103 91 158q40 24 87 24t83 -44q36 -43 36 -97z" />
    <glyph glyph-name="slash" unicode="/" horiz-adv-x="727" 
d="M141 -285l-94 17l537 2199l98 -18z" />
    <glyph glyph-name="zero" unicode="0" horiz-adv-x="1525" 
d="M393 645q0 -137 46 -252q45 -115 139 -183t231 -69q326 0 326 381q0 137 -46 252q-47 116 -141 184t-231 68q-324 0 -324 -381zM686 -20q-152 0 -274 74t-193 205q-69 130 -69 294t106 311q106 148 268 236t314 88t277 -76q124 -76 194 -206q69 -130 69 -293t-108 -310
t-269 -235q-163 -88 -315 -88z" />
    <glyph glyph-name="one" unicode="1" horiz-adv-x="1007" 
d="M193 0v53l198 156v809l-217 78l37 71h604v-53l-199 -156v-808l218 -78l-37 -72h-604z" />
    <glyph glyph-name="two" unicode="2" horiz-adv-x="1183" 
d="M90 0v53q485 405 588 564q53 83 53 155q0 112 -77 184q-76 72 -200 72t-298 -160l-62 70l297 236q47 14 153 14t210 -38t161 -106t58 -155q0 -203 -537 -662h522l64 164l51 -18v-410l-102 37h-881z" />
    <glyph glyph-name="three" unicode="3" horiz-adv-x="1146" 
d="M993 172q0 -219 -210 -388t-672 -325l-27 88q272 99 412 177t197 158q56 80 57 194q0 55 -23 99t-81 93t-171 123v41q115 143 152 210t37 130q0 114 -65 184t-167 70q-129 0 -311 -160l-62 70l297 235q39 16 80 17q127 0 236 -41t172 -110t63 -148q-6 -72 -52 -151
t-155 -197q169 -117 231 -198t62 -171z" />
    <glyph glyph-name="four" unicode="4" horiz-adv-x="1419" 
d="M819 266v656l-524 -656h524zM1044 131v-448l-225 -121v569h-758v53l758 922l225 121v-961h314l-72 -135h-242z" />
    <glyph glyph-name="five" unicode="5" horiz-adv-x="1282" 
d="M764 68q0 98 -47 164t-178 148q-131 81 -394 202l129 585h596l62 162l51 -16v-410l-102 37h-582l-39 -180v-2q565 -263 685 -414q62 -78 63 -166q0 -184 -127 -319t-311 -225t-439 -175l-29 88q283 107 423 187t190 157q49 79 49 177z" />
    <glyph glyph-name="six" unicode="6" horiz-adv-x="1484" 
d="M829 141q263 0 263 342q0 185 -125 317t-320 193l60 82q178 -1 321 -65t225 -179t82 -256t-92 -280t-236 -227t-295 -88t-270 82q-120 82 -186 226t-66 348t79 394q79 192 287 384t585 394l43 -73q-396 -264 -573 -516t-177 -512q0 -336 177 -489q89 -77 218 -77z" />
    <glyph glyph-name="seven" unicode="7" horiz-adv-x="1347" 
d="M1212 1167v-67l-813 -1641l-90 41l719 1438h-772l-59 -139l-52 18v387l103 -37h964z" />
    <glyph glyph-name="eight" unicode="8" horiz-adv-x="1484" 
d="M1102 426q0 80 -52 148t-128 120q-76 53 -209 133l-95 58q-173 -137 -206 -226q-16 -43 -17 -94q-1 -117 57 -221t152 -168t201 -63l2 2q88 0 155 44q68 43 104 115t36 152zM500 1422q0 -110 89 -196t257 -186q96 117 123 174t27 139t-37 158q-36 76 -99 120
q-62 45 -148 45t-149 -72t-63 -182zM1339 514q0 -106 -90 -232q-90 -128 -219 -215t-235 -87q-185 0 -331 64t-230 176q-82 112 -82 232t87 222q87 104 293 264q-130 90 -202 183t-72 201t84 220q84 113 205 191q121 77 237 77t217 -50t159 -136t59 -184q-7 -92 -67 -190
t-222 -259h2q129 -78 213 -141q84 -62 139 -146t55 -190z" />
    <glyph glyph-name="nine" unicode="9" horiz-adv-x="1484" 
d="M653 1026q-260 0 -260 -342q0 -186 118 -317t302 -193l-57 -82q-172 0 -310 65t-218 179q-79 114 -78 254q0 141 91 281q91 141 236 229t295 88t270 -75q119 -75 186 -203t66 -281q0 -227 -80 -415t-287 -374q-208 -186 -585 -381l-45 74q397 258 575 503t179 492
q0 298 -179 430q-90 68 -219 68z" />
    <glyph glyph-name="colon" unicode=":" horiz-adv-x="698" 
d="M498 966q0 -104 -91 -158q-40 -24 -86 -24t-83 43t-37 97q0 105 91 158q40 24 87 24t83 -43t36 -97zM498 161q0 -102 -91 -158q-40 -23 -86 -23t-83 43t-37 97q0 103 91 158q40 24 87 24t83 -44q36 -43 36 -97z" />
    <glyph glyph-name="semicolon" unicode=";" horiz-adv-x="757" 
d="M176 -541l-67 54q109 129 152 221q44 92 52 207l-157 92v53l333 170l70 -297zM498 966q0 -104 -91 -158q-40 -24 -86 -24t-83 43t-37 97q0 105 91 158q40 24 87 24t83 -43t36 -97z" />
    <glyph glyph-name="less" unicode="&#x3c;" horiz-adv-x="958" 
d="M668 172l-607 459l744 504l63 -58l-540 -366l569 -430z" />
    <glyph glyph-name="equal" unicode="=" horiz-adv-x="1073" 
d="M82 852h909v-74h-909v74zM82 483h909v-73h-909v73z" />
    <glyph glyph-name="greater" unicode="&#x3e;" horiz-adv-x="958" 
d="M154 129l-62 57l539 363l-570 432l230 109l606 -459z" />
    <glyph glyph-name="question" unicode="?" horiz-adv-x="976" 
d="M549 161q0 -101 -93 -158q-40 -23 -86 -23t-83 43t-37 97q0 101 92 158q39 24 86 24t84 -44q37 -43 37 -97zM457 862q0 -84 80 -168v-53l-205 -96q-80 96 -80 209q0 70 55 129t147 127t132 107q39 38 39 83t-50 118q-49 73 -124 125q-76 52 -156 52t-211 -80l-61 70
l194 149q80 16 193 17q70 -1 171 -53t174 -132t73 -158t-59 -142q-57 -62 -149 -130t-128 -105q-36 -36 -35 -69z" />
    <glyph glyph-name="at" unicode="@" horiz-adv-x="2709" 
d="M1036 608q0 -200 84 -336t238 -137q64 1 121 19t131 71v484q-12 104 -98 172t-234 67q-242 0 -242 -340zM1835 100q481 102 481 554q0 224 -102 422q-102 196 -316 314t-511 118q-298 0 -521 -116t-348 -324t-125 -472t94 -490t292 -380t491 -195l-35 -72
q-352 -2 -596 128q-244 131 -367 365q-122 234 -122 557t207 591t521 419t611 150v2q315 0 558 -120q243 -121 378 -333t135 -481q0 -190 -105 -351t-273 -262t-347 -122h-225v148l-191 -152q-66 -16 -179 -16t-221 70t-168 192q-60 120 -60 272t96 290t240 220t288 82
t252 -129l100 151h68v-1030z" />
    <glyph glyph-name="A" unicode="A" horiz-adv-x="1763" 
d="M813 1417l-324 -737h629zM1130 0v53l185 152l-164 395h-696l-181 -412l369 -116l-35 -72h-614v53l186 148l590 1343l184 105l602 -1448l205 -129l-37 -72h-594z" />
    <glyph glyph-name="B" unicode="B" horiz-adv-x="1613" 
d="M1223 397q-1 165 -97 265t-286 106q-14 -2 -39 -2h-250v-594q139 -55 315 -55t266 77q91 77 91 203zM788 1505q-133 0 -237 -82v-542h307q133 -1 208 65t75 184h2q0 165 -89 270t-266 105zM851 -23q-119 0 -218 11q-164 10 -254 10h-250v53l193 152v1263l-211 72l34 72
h232q185 0 345 10t226 10q134 0 236 -53t157 -144t55 -199t-72 -202q-73 -94 -187 -162l-2 -4q157 -42 250 -150t93 -242t-100 -248q-102 -114 -255 -182t-272 -67z" />
    <glyph glyph-name="C" unicode="C" horiz-adv-x="1673" 
d="M1468 1165h-55q-193 326 -512 326q-141 0 -256 -81t-180.5 -223.5t-65.5 -334t63.5 -362.5t196 -273t326.5 -102q170 0 494 274l57 -92l-377 -293q-123 -45 -311.5 -45t-352 104.5t-254.5 288t-91 420t137 440t342 321.5t391 118q104 0 244.5 -31t203.5 -66v-389z" />
    <glyph glyph-name="D" unicode="D" horiz-adv-x="1808" 
d="M1411 760.5q0 193.5 -66.5 368t-203.5 277.5t-340 103q-135 0 -248 -79v-1254q133 -55 317 -55l2 2q152 0 275 81t193.5 222t70.5 334.5zM1659 835q0 -230 -134 -428t-333 -314t-379 -116q-96 0 -192 11q-160 10 -246 10h-246v53l193 152v1265l-211 70l34 72h228
q193 0 356.5 10t228.5 10v-2q207 0 367 -101.5t247 -281.5t87 -410z" />
    <glyph glyph-name="E" unicode="E" horiz-adv-x="1665" 
d="M129 0v53l193 152v1259l-211 74l34 72h1180l102 37v-461l-51 -15l-241 359h-582v-668h338l149 268h54v-626l-72 -37l-127 315h-342v-702h573l271 401l51 -16v-502l-102 37h-1217z" />
    <glyph glyph-name="F" unicode="F" horiz-adv-x="1583" 
d="M553 1530v-668h338l149 268h54v-552l-72 -37l-123 241h-346v-620l311 -90l-37 -72h-698v53l193 152v1259l-211 74l34 72h1180l102 37v-461l-51 -15l-241 359h-582z" />
    <glyph glyph-name="G" unicode="G" horiz-adv-x="1851" 
d="M150 771.5q0 236.5 143 440t357 321.5t407 118q115 0 267.5 -31t221.5 -66v-378h-53q-211 315 -555 315q-152 0 -274.5 -81t-193.5 -223.5t-71 -333t69 -360t208 -271t346 -101.5q10 0 64 -1q119 -2 241 58v492l-313 90l35 71h704v-53l-194 -149v-312l55 -81l-377 -232
q-130 -45 -341.5 -45t-383.5 104.5t-267 288t-95 420z" />
    <glyph glyph-name="H" unicode="H" horiz-adv-x="1941" 
d="M1194 -4v53l192 150v559h-833v-615l213 -75l-35 -72h-602v53l193 150v1261l-211 76l34 72h603v-54l-195 -149v-565h833v620l-210 76l34 72h602v-54l-194 -149v-1258l213 -79l-35 -72h-602z" />
    <glyph glyph-name="I" unicode="I" horiz-adv-x="876" 
d="M129 -4v53l193 150v1261l-211 76l34 72h603v-54l-195 -149v-1258l213 -79l-35 -72h-602z" />
    <glyph glyph-name="J" unicode="J" horiz-adv-x="864" 
d="M559 203q0 -191 19 -244l-379 -500l-68 54q115 147 155 249.5t40 251.5v1442l-252 82l37 72h643v-54l-195 -151v-1202z" />
    <glyph glyph-name="K" unicode="K" horiz-adv-x="1742" 
d="M1651 1608v-54l-752 -655l576 -711l241 -118l-35 -72h-358l-645 807l635 553l-236 178l35 72h539zM129 -2v53l193 150v1261l-211 76l34 72h603v-54l-195 -149v-1262l213 -75l-35 -72h-602z" />
    <glyph glyph-name="L" unicode="L" horiz-adv-x="1601" 
d="M129 0v53l193 152v1257l-211 76l34 72h603v-54l-195 -151v-1325h543l297 442l51 -16v-543l-103 37h-1212z" />
    <glyph glyph-name="M" unicode="M" horiz-adv-x="2179" 
d="M1430 -6v53l192 152v1163l-553 -1366h-100l-549 1382v-1198l213 -112l-35 -72h-469v53l193 152v1214l-211 121l34 72h418l520 -1317l523 1317h444v-54l-195 -151v-1256l213 -81l-36 -72h-602z" />
    <glyph glyph-name="N" unicode="N" horiz-adv-x="1779" 
d="M1495 0h-98l-977 1257v-1077l201 -108l-37 -72h-455v53l193 150v1222l-211 113l34 72h299l953 -1227v1047l-199 108l37 72h455v-54l-195 -149v-1407z" />
    <glyph glyph-name="O" unicode="O" horiz-adv-x="1890" 
d="M399 852.5q0 -191.5 64.5 -361t198 -271t329.5 -101.5q139 0 254 81t180.5 223t65.5 334.5t-64.5 361.5t-197.5 270.5t-330 101.5q-139 0 -254 -81t-180.5 -223.5t-65.5 -334zM1741 836.5q0 -236.5 -137.5 -439t-341 -320.5t-403.5 -118t-363.5 104.5t-254.5 288t-91 420
t137 440t340.5 321.5t403.5 118t365 -104.5t255 -289t90 -421z" />
    <glyph glyph-name="P" unicode="P" horiz-adv-x="1591" 
d="M1202 1065q0 193 -98 317t-287 123q-145 0 -264 -84v-1261l311 -90l-37 -72h-698v53l193 152v1265l-211 70l34 72h217q203 0 373 10t240 10q141 0 250 -60t169 -166t60 -240q0 -136 -102 -262t-261 -198t-315 -63l-98 72l37 71h176l-2 -4q143 0 228 76t85 209z" />
    <glyph glyph-name="Q" unicode="Q" horiz-adv-x="1890" 
d="M993 117q92 0 181 39q143 66 230 223.5t87 364t-64.5 375.5t-197.5 270.5t-330 101.5q-139 0 -254 -81t-180.5 -223.5t-65.5 -320.5l2 -2q0 -205 64.5 -375t198 -271t329.5 -101zM1739 -541q-74 0 -229.5 159t-364.5 400q-141 -59 -273 -59q-213 0 -376.5 104.5
t-254.5 288t-91 420t137 440t340.5 321.5t403.5 118t365 -104.5t255 -289t90 -419t-133 -435t-336 -321.5q511 -389 577 -389h277l37 -82q-307 -152 -424 -152z" />
    <glyph glyph-name="R" unicode="R" horiz-adv-x="1640" 
d="M819 850q145 0 229.5 70.5t84.5 195.5q0 166 -92.5 276.5t-270.5 110.5q-119 0 -217 -69v-1291l213 -75l-35 -72h-602v53l193 150v1263l-211 74l34 72h217q186 0 344 10t224 10q133 0 237.5 -55t161.5 -148.5t57 -200.5t-65.5 -201.5t-168.5 -163t-218 -103.5l129 -45
l328 -518l245 -127l-34 -72h-369l-463 731l-96 72l26 53h119z" />
    <glyph glyph-name="S" unicode="S" horiz-adv-x="1433" 
d="M174 1154q0 99 84 217t206 199t235.5 81t278.5 -31t241 -66v-387h-56q-102 168 -225 259.5t-253 91.5t-201.5 -77t-71.5 -199t185 -232q79 -47 223.5 -120t237.5 -129t157.5 -133t64.5 -175t-90 -216t-220 -199t-249 -81t-299 30.5t-258 65.5v387h55q109 -168 245 -259
t279 -91q90 0 159 39t105.5 103.5t36.5 132t-51 124t-126.5 100.5t-222.5 118.5t-242 132t-161.5 136.5t-66.5 178z" />
    <glyph glyph-name="T" unicode="T" horiz-adv-x="1699" 
d="M963 1530v-1383l213 -75l-37 -72h-602v53l192 152v1325h-254l-270 -400l-51 15v502l102 -37h1188l102 37v-502l-51 -15l-270 400h-262z" />
    <glyph glyph-name="U" unicode="U" horiz-adv-x="1839" 
d="M1579 635q0 -215 -102.5 -368.5t-254 -230.5t-313 -77t-303 81t-221.5 223.5t-80 320.5v878l-211 76l37 72h602v-54l-194 -151v-717q0 -270 131 -419.5t397 -149.5q98 0 193.5 64.5t157 189.5t61.5 295v759l-209 111l37 72h467v-54l-195 -151v-770z" />
    <glyph glyph-name="V" unicode="V" horiz-adv-x="1769" 
d="M631 1610v-54l-185 -151l504 -1212l539 1228l-369 117l35 72h614l-2 -54l-186 -147l-590 -1343l-184 -105l-602 1448l-205 129l37 72h594z" />
    <glyph glyph-name="W" unicode="W" horiz-adv-x="2412" 
d="M580 1608v-54l-150 -114l430 -1223l318 877l-109 325l-190 119l34 72h580v-54l-176 -145l383 -1188l434 1198l-373 117l37 72h615v-56l-175 -137l-497 -1354l-185 -104l-333 995l-320 -891l-184 -104l-522 1454l-195 123l37 72h541z" />
    <glyph glyph-name="X" unicode="X" horiz-adv-x="1783" 
d="M1073 -2v53l162 129l-399 512l-445 -508l305 -112l-34 -72h-615v53l221 131l512 578l-497 647l-213 129l34 72h607v-54l-160 -133l395 -503l408 503l-310 115l37 72h615v-54l-207 -122l-485 -586l489 -637l221 -141l-37 -72h-604z" />
    <glyph glyph-name="Y" unicode="Y" horiz-adv-x="1626" 
d="M494 0v53l192 152v385l-520 844l-166 104l41 72h608v-54l-196 -151l417 -686l439 694l-332 125l35 72h614v-54l-162 -94l-542 -860v-455l213 -75l-37 -72h-604z" />
    <glyph glyph-name="Z" unicode="Z" horiz-adv-x="1617" 
d="M152 0v80l1032 1450h-658l-260 -379l-51 14v482l102 -37h1139v-80l-1030 -1450h672l286 422l52 -17v-522l-103 37h-1181z" />
    <glyph glyph-name="bracketleft" unicode="[" horiz-adv-x="890" 
d="M481 -348h297v-82h-522v2384h522v-82h-297v-2220z" />
    <glyph glyph-name="backslash" unicode="\" horiz-adv-x="727" 
d="M586 -285l-541 2198l98 18l537 -2199z" />
    <glyph glyph-name="bracketright" unicode="]" horiz-adv-x="890" 
d="M410 1872h-297v82h522v-2384h-522v82h297v2220z" />
    <glyph glyph-name="asciicircum" unicode="^" horiz-adv-x="1204" 
d="M1100 578h-209l-334 692l-371 -692h-82v51l404 749l184 105l408 -834v-71z" />
    <glyph glyph-name="underscore" unicode="_" horiz-adv-x="1009" 
d="M82 -197h846v-73h-846v73z" />
    <glyph glyph-name="grave" unicode="`" horiz-adv-x="778" 
d="M571 1386l-436 363l37 39l254 39l219 -402z" />
    <glyph glyph-name="a" unicode="a" horiz-adv-x="1253" 
d="M367 333.5q0 -83.5 39.5 -142t105.5 -58.5q129 0 276 121v223h-368q-53 -60 -53 -143.5zM129 272q0 147 207 279h452v149q0 137 -72.5 192.5t-198.5 55.5t-300 -162l-61 70l297 236q80 14 188 14q176 0 274.5 -89t98.5 -257v-617l184 -71l-37 -72h-373v178l-231 -182
q-41 -16 -102 -16q-172 0 -249 86t-77 206z" />
    <glyph glyph-name="b" unicode="b" horiz-adv-x="1433" 
d="M1040 479q0 197 -61 333t-172 136q-80 0 -155 -32t-185 -134v-368q0 -117 86 -195t248 -78l-2 -2q241 0 241 340zM240 0v1481l-183 129v53l340 125h68v-922l283 224q66 16 159 16l2 2q107 0 194 -71t136 -191t49 -272t-94 -290t-236 -220t-276 -82q-175 0 -289 145
l-86 -127h-67z" />
    <glyph glyph-name="c" unicode="c" horiz-adv-x="1245" 
d="M1061 727h-68q-82 102 -186.5 160.5t-214.5 58.5q-197 0 -197 -342q0 -199 86 -332t248 -133q115 0 322 174l61 -69l-321 -250q-76 -14 -194 -14t-223.5 69.5t-164.5 190t-59 272.5t87 291t220 221t258 82q82 0 189.5 -23.5t156.5 -52.5v-303z" />
    <glyph glyph-name="d" unicode="d" horiz-adv-x="1433" 
d="M395 604q0 -199 84 -335t240 -136l-2 2q64 1 121 19t131 71v482q-13 104 -99 172t-233 67q-242 0 -242 -342zM969 0v147l-191 -151q-66 -16 -179 -16t-221 70t-168 190t-60 272t94 291t236 221t268 82t221 -70v445l-183 129v53l340 125h68v-1643l184 -73l-37 -72h-372z
" />
    <glyph glyph-name="e" unicode="e" horiz-adv-x="1310" 
d="M637 946q-230 0 -240 -315h496q-19 117 -39 177q-44 138 -217 138zM595.5 -20q-116.5 0 -222 69.5t-164.5 190t-59 272.5t94 291t236.5 221t275.5 82q188 0 293.5 -151.5t107.5 -397.5h-760q10 -182 95.5 -300t227.5 -118t380 219l61 -71l-373 -293q-76 -14 -192.5 -14z
" />
    <glyph glyph-name="f" unicode="f" horiz-adv-x="878" 
d="M1065 1475h-68q-51 80 -125 127t-149 47q-197 0 -197 -346v-279h373v-74h-373v-790l281 -88l-35 -72h-653v53l182 142v755h-250v74h250v186q0 158 84 296t212 220t249 82q53 0 122 -9t97 -19v-305z" />
    <glyph glyph-name="g" unicode="g" horiz-adv-x="1310" 
d="M553 948q-197 0 -197 -190q0 -129 82 -209t213 -80q199 0 199 193q0 127 -82 206.5t-215 79.5zM623 215q0 -35 52 -63.5t184.5 -79.5t210 -98.5t77.5 -112.5t-79 -161.5t-194.5 -167.5t-225.5 -71t-263.5 39t-255.5 78v305h68q119 -143 240.5 -217t275.5 -74q57 0 104 24
t74 60.5t27 69.5q0 55 -69 98t-201 97.5t-194.5 92.5t-62.5 88t63.5 101t149.5 90q-33 -6 -67 -6q-104 0 -192.5 47t-138.5 127t-50 183.5t75.5 208t196.5 169t254 64.5t238 -82h319l-2 -72h-248q63 -86 63.5 -186t-51 -187t-137.5 -154t-188 -95q-53 -53 -53 -115z" />
    <glyph glyph-name="h" unicode="h" horiz-adv-x="1421" 
d="M956 -2v698q0 117 -36.5 162t-118.5 45t-150.5 -25.5t-165.5 -103.5v-631l185 -73l-37 -72h-555v53l182 142v1288l-182 129v53l340 125h67v-928l291 230q43 16 109 16q137 0 217 -85t80 -230v-646l184 -75l-37 -72h-373z" />
    <glyph glyph-name="i" unicode="i" horiz-adv-x="788" 
d="M119 0v53l182 142v622l-182 129v53l340 125h67v-979l185 -73l-37 -72h-555zM532 1596.5q0 -54.5 -25.5 -94.5t-65.5 -63.5t-85.5 -23.5t-82.5 44t-37 98.5t25.5 93.5t65.5 62.5t87 23.5t82.5 -43t35.5 -97.5z" />
    <glyph glyph-name="j" unicode="j" horiz-adv-x="774" 
d="M530 203q0 -185 19 -244l-383 -500l-68 54q123 145 165 247.5t42 253.5v799l-182 127v53l340 131h67v-921zM539 1600.5q0 -54.5 -26 -94.5t-65.5 -63.5t-85.5 -23.5t-83 44t-37 98.5t25.5 93.5t65.5 62.5t87 23.5t83 -43t36 -97.5z" />
    <glyph glyph-name="k" unicode="k" horiz-adv-x="1392" 
d="M1305 1085v-53l-486 -411l363 -482l178 -67l-35 -72h-332l-395 539l387 329l-184 146l35 71h469zM78 -2v53l182 142v1288l-182 129v53l340 125h67v-1645l185 -73l-37 -72h-555z" />
    <glyph glyph-name="l" unicode="l" horiz-adv-x="747" 
d="M78 -2v53l182 142v1288l-182 129v53l340 125h67v-1643l185 -75l-37 -72h-555z" />
    <glyph glyph-name="m" unicode="m" horiz-adv-x="2123" 
d="M1655 0v692q0 119 -37 166t-117 47q-79 1 -145 -25t-154 -102v-633l187 -73l-35 -72h-377v692q0 119 -37 166t-117 47q-79 1 -145 -25t-154 -102v-633l187 -73l-37 -72h-557v53l182 142v602l-182 104v53l334 172l63 -268l277 234q45 16 112 16q121 0 199 -66t96 -182
l275 230q43 16 112 16q137 0 217 -85t80 -230v-646l182 -73l-34 -72h-375z" />
    <glyph glyph-name="n" unicode="n" horiz-adv-x="1462" 
d="M997 -2v698q0 117 -36.5 162t-119 45t-150.5 -25.5t-165 -103.5v-631l185 -73l-37 -72h-555v53l182 142v602l-182 104v53l334 172l65 -272l299 238q43 16 109 16q137 0 217 -85t80 -230v-646l184 -75l-37 -72h-373z" />
    <glyph glyph-name="o" unicode="o" horiz-adv-x="1363" 
d="M393 604q0 -199 86 -332t250 -133q242 0 242 342q0 199 -86 332t-248 133q-244 0 -244 -342zM1217 571.5q0 -151.5 -94.5 -290t-237 -220t-274.5 -81.5t-237.5 69.5t-164.5 190t-59 272.5t94 291t236.5 221t275.5 82t237.5 -70.5t164 -191.5t59.5 -272.5z" />
    <glyph glyph-name="p" unicode="p" horiz-adv-x="1495" 
d="M860 137q240 0 242 340q0 189 -62 319t-172 130l-2 -2q-79 0 -154 -32t-186 -134v-348q0 -117 86 -195t248 -78zM119 -522v53l182 141v1123l-182 104v53l334 172l65 -272l301 238q66 16 161 16t182 -71t136 -191q50 -120 50 -272t-94 -290t-237 -220q-142 -82 -276 -82
v-3q-121 0 -215 70v-409l281 -89l-35 -71h-653z" />
    <glyph glyph-name="q" unicode="q" horiz-adv-x="1433" 
d="M395 606q0 -201 84 -337t240 -136q62 1 119 19t131 71v484q-13 104 -99 172t-233 67q-242 0 -242 -340zM774 1106q144 0 252 -129l100 151h68v-1503l180 -74l-35 -71h-651v53l281 154v460l-191 -151q-66 -16 -179 -16t-221 70t-168 192q-60 120 -60 272t96 290t240 220
t288 82z" />
    <glyph glyph-name="r" unicode="r" horiz-adv-x="1042" 
d="M745 903q-49 0 -100 -24.5t-119 -98.5v-622l281 -88l-35 -72h-653v53l182 142v602l-182 104v53l334 172l61 -258l217 224q45 16 117 16l-2 -2q57 0 104 -35t76 -96l-125 -156h-67q-15 86 -89 86z" />
    <glyph glyph-name="s" unicode="s" horiz-adv-x="1144" 
d="M197 740.5q0 83.5 60 167t147.5 141t170 57.5t203.5 -23.5t176 -52.5v-311h-67q-70 131 -157 204.5t-168 73.5t-122 -36.5t-41 -97.5t66.5 -111t189.5 -112t187 -100q152 -91 151 -204q0 -76 -63.5 -159t-153.5 -140t-177 -57t-222 24.5t-193 50.5v307h68
q72 -131 173 -202.5t188.5 -71.5t132.5 37t45 93t-64.5 104.5t-213.5 124t-232.5 143t-83.5 151z" />
    <glyph glyph-name="t" unicode="t" horiz-adv-x="919" 
d="M575 -20q-166 0 -241.5 89t-75.5 275v606h-221v78l379 449h67v-453h369v-74h-369v-639q0 -170 160 -170q43 0 83 18.5t99 69.5l62 -69l-207 -164q-43 -16 -105 -16z" />
    <glyph glyph-name="u" unicode="u" horiz-adv-x="1423" 
d="M934 0v221l-266 -225q-43 -16 -111 -16q-137 0 -216 85t-79 230v500l-182 106v53l340 172h67v-739q0 -117 36 -162t115 -45t143.5 25.5t152.5 101.5v488l-182 106v53l340 172h67v-981l184 -73l-34 -72h-375z" />
    <glyph glyph-name="v" unicode="v" horiz-adv-x="1257" 
d="M1178 1085v-53l-516 -1032h-136l-325 791l-187 108v53l330 172l78 -309l254 -625l299 625l-268 199l34 71h437z" />
    <glyph glyph-name="w" unicode="w" horiz-adv-x="1818" 
d="M1741 1085v-53l-453 -1032h-135l-221 537l-268 -537h-136l-325 791l-187 108v53l330 172l78 -309l254 -622l209 454l-60 144l-186 108v53l330 172l78 -309l247 -606l252 598l-282 207l37 71h438z" />
    <glyph glyph-name="x" unicode="x" horiz-adv-x="1247" 
d="M39 -2v53l471 455l-301 393l-176 115l35 71h286l322 -430l227 215l-190 146l35 71h444v-53l-463 -448l309 -402l179 -112l-37 -72h-287l-330 436l-235 -221l190 -145l-37 -72h-442z" />
    <glyph glyph-name="y" unicode="y" horiz-adv-x="1257" 
d="M1174 1034l-517 -1032l-415 -541l-68 54q119 125 180.5 219t86 190t22.5 230l-262 637l-187 108v53l330 172l78 -309l254 -625l299 625l-268 199l34 71l433 2v-53z" />
    <glyph glyph-name="z" unicode="z" horiz-adv-x="1236" 
d="M145 0v68l699 792h-537l-82 -145l-51 18v389l102 -37h816v-67l-693 -793h525l88 166l51 -18v-410l-102 37h-816z" />
    <glyph glyph-name="braceleft" unicode="{" horiz-adv-x="1015" 
d="M471 92v262q0 332 -190 332h-93q-12 -2 -36 -2l-5 2h-65v160h65l5 2q25 0 36 -2h93q190 0 190 332v262q0 158 82 296t205 222l43 -70q-104 -59 -105 -319v-293q0 -158 -83 -294t-210 -218q127 -82 210 -218t83 -294v-289q1 -260 105 -319l-43 -70q-123 84 -205 222
t-82 296z" />
    <glyph glyph-name="bar" unicode="|" horiz-adv-x="763" 
d="M432 -410h-100v2429h100v-2429z" />
    <glyph glyph-name="braceright" unicode="}" horiz-adv-x="1015" 
d="M545 1432v-263q0 -332 190 -331h92q12 2 37 2l4 -2h66v-160h-66l-4 -2q-25 0 -37 2h-92q-190 0 -190 -332v-262q0 -158 -82 -296t-205 -222l-43 69q104 59 104 320v293q0 158 83 294t210 218q-127 82 -210 218t-83 294v289q0 260 -104 319l43 70q123 -84 205 -222
t82 -296z" />
    <glyph glyph-name="asciitilde" unicode="~" horiz-adv-x="1245" 
d="M334 637q-84 0 -172 -137l-51 75q49 105 129 183t148 78t128 -27q62 -27 144 -78t138 -77t113 -25q82 0 172 137l52 -76q-49 -108 -129 -184t-149 -76t-130 27t-143 78t-138 77t-112 25z" />
    <glyph glyph-name="uni00A0" unicode="&#xa0;" horiz-adv-x="581" 
 />
    <glyph glyph-name="exclamdown" unicode="&#xa1;" horiz-adv-x="718" 
d="M543 -426l-264 -94h-68l106 1124h105l121 -977v-53zM349 784q-46 0 -83 43t-37 97q0 103 94 158q40 24 86 24t83 -44q36 -44 36 -98t-26 -94q-60 -86 -153 -86z" />
    <glyph glyph-name="cent" unicode="&#xa2;" horiz-adv-x="1245" 
d="M616 946h-24q-197 0 -197 -342q1 -159 57 -280t164 -164v786zM717 -410h-101v390h-6q-131 0 -236 70t-165 190q-59 121 -59 262t67 266q68 125 176 211q109 86 223 115v440h101v-428q82 0 188 -24t156 -52v-303h-68q-117 150 -276 199v-787h12q115 0 322 174l61 -69
l-321 -250q-49 -8 -74 -10v-394z" />
    <glyph glyph-name="sterling" unicode="&#xa3;" horiz-adv-x="1476" 
d="M88 0v68l258 270v385h-323l38 74h285v256q0 158 88 296t220 220t257 82q85 0 191 -24t155 -52v-303h-67q-80 102 -184 160t-218 59q-217 0 -217 -340v-354h410l-39 -74h-371v-94q0 -98 -50 -208t-136 -194h803l63 164l52 -18v-410l-103 37h-1112z" />
    <glyph glyph-name="currency" unicode="&#xa4;" horiz-adv-x="1843" 
d="M1339 748q0 219 -116 359q-117 140 -346 140q-101 0 -187 -50t-136 -136t-50 -208t51 -235q51 -112 155 -180t259 -67q100 0 185 50t135 136t50 191zM850 207q-211 0 -358 112l-287 -286l-55 55l282 283q-153 157 -152 395q1 237 201 420l-331 334l55 55l338 -338
q102 78 223 123t227 45q209 0 359 -117l286 287l56 -55l-285 -283q152 -156 152 -397l2 4q-2 -228 -203 -418l336 -336l-56 -55l-342 340q-102 -78 -222 -123t-226 -45z" />
    <glyph glyph-name="yen" unicode="&#xa5;" horiz-adv-x="1626" 
d="M922 406h555l-37 -74h-518v-185l213 -75l-37 -72h-604v53l192 152v127h-551l37 74h514v184l-14 24h-537l37 74h453l-459 746l-166 104l41 72h608v-54l-196 -151l417 -686l439 694l-332 125l35 72h614v-54l-164 -94l-485 -774h500l-37 -74h-510l-8 -12v-196z" />
    <glyph glyph-name="brokenbar" unicode="&#xa6;" horiz-adv-x="763" 
d="M332 -410v949h100v-949h-100zM332 1071v948h100v-948h-100z" />
    <glyph glyph-name="section" unicode="&#xa7;" horiz-adv-x="1357" 
d="M664 1542q-74 0 -160 -58t-144 -146t-59 -179q0 -92 50 -202q51 -111 147 -267t141 -252t45 -184t-53 -158t-178 -137q82 -16 243 -16q72 0 158 58t145 144t59 178t-48 200t-144 259q-96 150 -143 252t-47 194t52 162q52 69 179 136q-82 16 -243 16zM934 1415
q-70 0 -72 -164q0 -94 42 -182t120 -211q78 -122 117 -192q94 -168 94 -332q0 -100 -89 -218t-218 -200t-249 -82t-300 31t-258 65v346h67q38 -94 98 -150t111 -56t80 47t29 127t-42 168t-134 232t-144 260t-53 232q0 116 84 235q84 118 205 199q122 81 234 81t276 -31
t237 -66v-346h-67q-29 100 -74 154t-94 53z" />
    <glyph glyph-name="dieresis" unicode="&#xa8;" horiz-adv-x="1230" 
d="M217 1491q0 52 23 90t59 61q36 22 79 22t75 -41q33 -41 33 -93q1 -99 -83 -151q-35 -23 -77 -23t-76 42q-33 41 -33 93zM977 1530q0 -52 -23 -90t-59 -61t-78 -23t-75 42q-34 41 -34 93q-1 99 83 151q36 22 79 22t75 -41t32 -93z" />
    <glyph glyph-name="copyright" unicode="&#xa9;" horiz-adv-x="2048" 
d="M950 1118q-110 0 -110 -260q0 -138 65 -241q66 -103 187 -103q88 0 241 113l62 -70l-240 -192q-245 -45 -380 43q-89 58 -139 157q-50 98 -50 223t76 241q76 117 190 185t225 68q66 0 148 -24t118 -52v-313h-67q-60 105 -148 165t-178 60zM1071 121q174 0 313 81t220 222
q80 142 80 334t-77 361t-236 269t-392 101q-174 0 -314 -80q-139 -80 -219 -222t-80 -334q0 -193 78 -361q76 -168 235 -270t392 -101zM934 -41q-220 0 -404 104q-184 103 -285 287t-101 421t150 441q151 204 376 321q224 117 446 117t405 -104t283 -288t100 -422
q0 -236 -150 -439q-151 -203 -375 -321q-225 -118 -445 -117z" />
    <glyph glyph-name="ordfeminine" unicode="&#xaa;" horiz-adv-x="1093" 
d="M328 887q0 -63 34 -106.5t90 -43.5q110 -1 235 90v168h-314q-45 -45 -45 -108zM126 841q0 110 176 209h385v112q0 103 -62 144.5t-169 41.5t-255 -121l-52 52l252 177q68 11 160 10q150 0 233.5 -66.5t83.5 -192.5v-463l157 -53l-32 -54h-316v134l-197 -137
q-35 -12 -87 -12q-146 0 -211.5 64.5t-65.5 154.5z" />
    <glyph glyph-name="guillemotleft" unicode="&#xab;" horiz-adv-x="1341" 
d="M1112 215l-63 -43l-385 373l385 373l63 -41l-135 -285zM676 98l-62 -43l-505 490l505 491l62 -43l-260 -403z" />
    <glyph glyph-name="logicalnot" unicode="&#xac;" horiz-adv-x="1183" 
d="M993 174h-73v420h-838v74h909v-35h2v-459z" />
    <glyph glyph-name="softhyphen" unicode="&#xad;" horiz-adv-x="1050" 
d="M879 709v-52l-82 -104h-625v51l82 105h625z" />
    <glyph glyph-name="registered" unicode="&#xae;" horiz-adv-x="2058" 
d="M991 1145q-27 0 -49 -12v-273q49 -16 111 -16q61 0 99 34t38 97v2q0 76 -50 122t-149 46zM940 369h-365v57l136 115v583l-156 54l41 73h141q121 -1 245 11t171 12q127 0 204 -62t77 -154q0 -93 -98 -175t-222 -119l191 -64l90 -184l151 -72l-41 -75h-297l-139 282
q-39 76 -98 92l-31 7v-381zM1688 758q0 192 -77 361t-235 269t-393 101q-174 0 -313 -81t-219 -222t-80 -332q1 -190 77 -360t235 -272t392 -101q175 0 315 80t219 222q79 143 79 335zM938 -41q-220 0 -402 103q-182 104 -284 288t-102 421t150 441t375 321q223 117 445 117
t405 -104t284 -288t101 -422q0 -236 -150 -439q-151 -203 -376 -321q-226 -118 -446 -117z" />
    <glyph glyph-name="macron" unicode="&#xaf;" horiz-adv-x="1228" 
d="M205 1622h835v-84h-835v84z" />
    <glyph glyph-name="degree" unicode="&#xb0;" horiz-adv-x="882" 
d="M242 1531q0 -65 24 -115t68 -82t106 -32t112 47q50 46 50 108q0 61 -24 111t-67 83q-45 33 -109 33t-112 -45q-48 -44 -48 -108zM756 1540q0 -110 -58 -191t-150 -126q-91 -45 -202 -45q-110 0 -184 80t-74 190q0 108 57 189t149 126t185 45q127 1 202 -79
q75 -79 75 -189z" />
    <glyph glyph-name="plusminus" unicode="&#xb1;" horiz-adv-x="1073" 
d="M573 594v-418h-73v418h-418v74h418v417h73v-417h418v-74h-418zM82 -66h909v-73h-909v73z" />
    <glyph glyph-name="twosuperior" unicode="&#xb2;" horiz-adv-x="987" 
d="M88 852v53q400 281 475 383q43 57 43 116q0 60 -62 104t-162 44t-241 -108l-49 65l238 164q43 10 96 10q166 0 267 -58t102 -150q0 -141 -406 -465h383l53 118l49 -16v-287l-92 27h-694z" />
    <glyph glyph-name="threesuperior" unicode="&#xb3;" horiz-adv-x="958" 
d="M803 971q0 -154 -168 -273t-539 -227l-22 84q219 66 332 116q114 50 158 103q44 54 44 118t-43 103t-176 107v51q90 98 120 145t30 105q1 59 -51 101t-146 42t-236 -110l-49 69l236 164q27 12 96 12q69 -1 157 -29t137 -76q50 -48 50 -103q-4 -49 -40 -105t-122 -139h-4
q136 -82 186 -138t50 -120z" />
    <glyph glyph-name="acute" unicode="&#xb4;" horiz-adv-x="778" 
d="M725 1749l-434 -363l-76 39l219 402l254 -39z" />
    <glyph glyph-name="uni00B5" unicode="&#xb5;" horiz-adv-x="1423" 
d="M948 -20v241l-268 -225q-42 -16 -94 -16t-86 6v-115q-2 -53 32 -122t86 -128l-276 -141h-68v1255q2 53 -31 122q-34 69 -87 128l276 141h68v-739q0 -117 37 -162t116 -45t143 26t152 101v428q0 55 -33 123t-86 127l277 141h68v-755q-1 -55 32 -123t86 -127l-276 -141h-68
z" />
    <glyph glyph-name="paragraph" unicode="&#xb6;" horiz-adv-x="1697" 
d="M1276 -522v2130h295v-54l-195 -149v-1780l211 -76l-35 -71h-276zM1030 1610h45v-2130h-362v53l262 203v926q-172 -2 -289 -12t-174 -9q-117 0 -208 60q-91 61 -141 165t-50 240t86 257q86 122 214 195q128 72 227 72t181 -10q137 -10 209 -10z" />
    <glyph glyph-name="periodcentered" unicode="&#xb7;" horiz-adv-x="698" 
d="M498 568q0 -104 -91 -157q-40 -24 -86 -24t-83 43q-37 44 -37 98q0 105 91 157q40 24 87 24t83 -43q36 -44 36 -98z" />
    <glyph glyph-name="cedilla" unicode="&#xb8;" horiz-adv-x="1228" 
d="M838 -334q0 -96 -94 -146t-289 -61v54q201 66 200 190q0 45 -30 83q-31 38 -105 81q193 158 311 248l50 -41q-137 -104 -213 -166h2q96 -80 132 -131t36 -111z" />
    <glyph glyph-name="onesuperior" unicode="&#xb9;" horiz-adv-x="874" 
d="M188 850v59l160 109v524l-174 55l29 70h483v-57l-158 -109v-526l172 -53l-28 -72h-484z" />
    <glyph glyph-name="ordmasculine" unicode="&#xba;" horiz-adv-x="1204" 
d="M351 1090q0 -149 73 -249t212 -100q206 0 206 257q0 149 -73.5 249t-210.5 100q-207 0 -207 -257zM1050 1065.5q0 -113.5 -80 -217.5t-201 -165t-233 -61t-202 52t-140.5 142.5t-50.5 204t80.5 218t201.5 166t234 61.5t201.5 -53t139 -143.5t50.5 -204z" />
    <glyph glyph-name="guillemotright" unicode="&#xbb;" horiz-adv-x="1341" 
d="M293 170l-62 43l134 285l-134 376l62 41l387 -372zM727 53l-61 43l260 404l-260 493l61 41l508 -489z" />
    <glyph glyph-name="onequarter" unicode="&#xbc;" horiz-adv-x="2131" 
d="M188 850v59l160 109v524l-174 55l29 70h483v-57l-158 -109v-526l172 -53l-28 -72h-484zM504 -391l-70 35l1272 2394l72 -33zM1640 23v438l-399 -438h399zM1821 -90v-293l-181 -86v379h-606v55l606 647l181 84v-673h250l-58 -113h-192z" />
    <glyph glyph-name="onehalf" unicode="&#xbd;" horiz-adv-x="2283" 
d="M188 850v59l160 109v524l-174 55l29 70h483v-57l-158 -109v-526l172 -53l-28 -72h-484zM504 -391l-70 35l1272 2394l72 -33zM1386 -160v54q400 281 476 382q43 57 43 116q-1 59 -63 104t-162 45t-240 -109l-49 66l237 164q43 10 96 10q166 0 268 -58t101 -151
q0 -141 -405 -465h383l53 119l49 -17v-286l-92 26h-695z" />
    <glyph glyph-name="threequarters" unicode="&#xbe;" horiz-adv-x="2215" 
d="M803 971q0 -154 -168 -273t-539 -227l-22 84q219 66 332 116q114 50 158 103q44 54 44 118t-43 103t-176 107v51q90 98 120 145t30 105q1 59 -51 101t-146 42t-236 -110l-49 69l236 164q27 12 96 12q69 -1 157 -29t137 -76q50 -48 50 -103q-4 -49 -40 -105t-122 -139h-4
q136 -82 186 -138t50 -120zM588 -391l-70 35l1272 2394l72 -33zM1724 23v438l-399 -438h399zM1905 -90v-293l-181 -86v379h-606v55l606 647l181 84v-673h249l-57 -113h-192z" />
    <glyph glyph-name="questiondown" unicode="&#xbf;" horiz-adv-x="813" 
d="M582 358q0 -72 -56 -131t-149 -127q-92 -68 -131 -107q-39 -38 -39 -83t49 -118t126 -125t157 -52t211 80l61 -70l-195 -149q-80 -16 -192 -17q-70 1 -171 53t-174 132t-73 158t58 142q58 62 150 130q91 68 127 105q36 36 36 69q0 84 -80 168v53l205 96q80 -92 80 -207z
M584 964q0 -101 -94 -156q-40 -24 -86 -24t-82 43q-37 43 -37 97q0 103 92 158q39 24 86 24t84 -44t37 -98z" />
    <glyph glyph-name="Agrave" unicode="&#xc0;" horiz-adv-x="1763" 
d="M813 1417l-324 -737h629zM1130 0v53l185 152l-164 395h-696l-181 -412l369 -116l-35 -72h-614v53l186 148l590 1343l184 105l602 -1448l205 -129l-37 -72h-594zM924 1913l-437 362l37 39l254 39l219 -401z" />
    <glyph glyph-name="Aacute" unicode="&#xc1;" horiz-adv-x="1763" 
d="M813 1417l-324 -737h629zM1130 0v53l185 152l-164 395h-696l-181 -412l369 -116l-35 -72h-614v53l186 148l590 1343l184 105l602 -1448l205 -129l-37 -72h-594zM1280 2275l-434 -362l-76 39l219 401l254 -39z" />
    <glyph glyph-name="Acircumflex" unicode="&#xc2;" horiz-adv-x="1763" 
d="M813 1417l-324 -737h629zM1130 0v53l185 152l-164 395h-696l-181 -412l369 -116l-35 -72h-614v53l186 148l590 1343l184 105l602 -1448l205 -129l-37 -72h-594zM1292 1919l-231 -39l-256 279l-313 -258l-58 69l445 363l450 -375z" />
    <glyph glyph-name="Atilde" unicode="&#xc3;" horiz-adv-x="1763" 
d="M813 1417l-324 -737h629zM1130 0v53l185 152l-164 395h-696l-181 -412l369 -116l-35 -72h-614v53l186 148l590 1343l184 105l602 -1448l205 -129l-37 -72h-594zM1051 2177q74 0 133 45l63 51l58 -69l-306 -252q-143 147 -282 147q-78 0 -142 -49l-59 -45l-57 70l307 252
q148 -150 285 -150z" />
    <glyph glyph-name="Adieresis" unicode="&#xc4;" horiz-adv-x="1763" 
d="M813 1417l-324 -737h629zM1130 0v53l185 152l-164 395h-696l-181 -412l369 -116l-35 -72h-614v53l186 148l590 1343l184 105l602 -1448l205 -129l-37 -72h-594zM1057 2081q0 51 23.5 89t59.5 60.5t77.5 22.5t74.5 -41t33 -93.5t-23.5 -89t-59.5 -59t-78 -22.5t-74.5 41
t-32.5 92zM438 2081q0 51 23.5 89t59.5 60.5t78 22.5t75 -41t33 -93.5t-24 -89t-59.5 -59t-77.5 -22.5t-75 41t-33 92z" />
    <glyph glyph-name="Aring" unicode="&#xc5;" horiz-adv-x="1763" 
d="M813 1417l-324 -737h629zM1130 0v53l185 152l-164 395h-696l-181 -412l369 -116l-35 -72h-614v53l186 148l590 1343l184 105l602 -1448l205 -129l-37 -72h-594zM935.5 1948q106.5 0 106.5 88q0 94 -54 154.5t-159.5 60.5t-105.5 -88q0 -94 53 -154.5t159.5 -60.5z
M1169 2140q0 -76 -55 -138.5t-139 -100t-170 -37.5t-148.5 58t-62.5 134t55.5 138.5t139 100.5t171 38t148.5 -58.5t61 -134.5z" />
    <glyph glyph-name="AE" unicode="&#xc6;" horiz-adv-x="2244" 
d="M961 862v565l-326 -565h326zM768 0v53l193 152v577h-373l-340 -587l338 -123l-37 -72h-555v53l139 111l733 1282l-266 92l37 72h1268l102 37v-461l-51 -15l-242 359h-522v-668h281l147 268h53v-626l-71 -37l-125 315h-285v-702h514l270 401l52 -16v-502l-103 37h-1157z
" />
    <glyph glyph-name="Ccedilla" unicode="&#xc7;" horiz-adv-x="1673" 
d="M1092 -334q0 -96 -93.5 -146t-289.5 -61v54q201 66 200 190q0 45 -30.5 83t-104.5 81l115 92h-19q-211 0 -374.5 104.5t-254.5 288t-91 420t137 440t342 321.5t391 118q104 0 244.5 -31t203.5 -66v-389h-55q-193 326 -512 326q-141 0 -256 -81t-180.5 -223.5t-65.5 -334
t63.5 -362.5t196 -273t326.5 -102q170 0 494 274l57 -92l-377 -293v4q-78 -31 -164 -41l-71 -59q96 -80 132 -131t36 -111z" />
    <glyph glyph-name="Egrave" unicode="&#xc8;" horiz-adv-x="1665" 
d="M129 0v53l193 152v1259l-211 74l34 72h1180l102 37v-461l-51 -15l-241 359h-582v-668h338l149 268h54v-626l-72 -37l-127 315h-342v-702h573l271 401l51 -16v-502l-102 37h-1217zM870 1913l-436 362l37 39l254 39l219 -401z" />
    <glyph glyph-name="Eacute" unicode="&#xc9;" horiz-adv-x="1665" 
d="M129 0v53l193 152v1259l-211 74l34 72h1180l102 37v-461l-51 -15l-241 359h-582v-668h338l149 268h54v-626l-72 -37l-127 315h-342v-702h573l271 401l51 -16v-502l-102 37h-1217zM1227 2275l-434 -362l-76 39l219 401l254 -39z" />
    <glyph glyph-name="Ecircumflex" unicode="&#xca;" horiz-adv-x="1665" 
d="M129 0v53l193 152v1259l-211 74l34 72h1180l102 37v-461l-51 -15l-241 359h-582v-668h338l149 268h54v-626l-72 -37l-127 315h-342v-702h573l271 401l51 -16v-502l-102 37h-1217zM1239 1919l-231 -39l-256 279l-314 -258l-57 69l444 363l451 -375z" />
    <glyph glyph-name="Edieresis" unicode="&#xcb;" horiz-adv-x="1665" 
d="M129 0v53l193 152v1259l-211 74l34 72h1180l102 37v-461l-51 -15l-241 359h-582v-668h338l149 268h54v-626l-72 -37l-127 315h-342v-702h573l271 401l51 -16v-502l-102 37h-1217zM1004 2081q0 51 23.5 89t59 60.5t77.5 22.5t75 -41t33 -93.5t-23.5 -89t-59.5 -59
t-78 -22.5t-74.5 41t-32.5 92zM385 2081q0 51 23.5 89t59.5 60.5t78 22.5t74.5 -41t32.5 -93.5t-23.5 -89t-59 -59t-77.5 -22.5t-75 41t-33 92z" />
    <glyph glyph-name="Igrave" unicode="&#xcc;" horiz-adv-x="876" 
d="M129 -4v53l193 150v1261l-211 76l34 72h603v-54l-195 -149v-1258l213 -79l-35 -72h-602zM479 1913l-436 362l37 39l254 39l219 -401z" />
    <glyph glyph-name="Iacute" unicode="&#xcd;" horiz-adv-x="876" 
d="M129 -4v53l193 150v1261l-211 76l34 72h603v-54l-195 -149v-1258l213 -79l-35 -72h-602zM836 2275l-435 -362l-75 39l219 401l254 -39z" />
    <glyph glyph-name="Icircumflex" unicode="&#xce;" horiz-adv-x="876" 
d="M129 -4v53l193 150v1261l-211 76l34 72h603v-54l-195 -149v-1258l213 -79l-35 -72h-602zM848 1919l-232 -39l-256 279l-313 -258l-57 69l444 363l451 -375z" />
    <glyph glyph-name="Idieresis" unicode="&#xcf;" horiz-adv-x="876" 
d="M129 -4v53l193 150v1261l-211 76l34 72h603v-54l-195 -149v-1258l213 -79l-35 -72h-602zM316 2034q0 -52 -23.5 -90t-59.5 -61t-77.5 -23t-75 41.5t-33.5 93t23 90t59.5 61t79 22.5t75 -41t32.5 -93zM807 2034q0 -52 -23 -90t-59 -61t-78 -23t-75.5 41.5t-33.5 93
t23.5 90t59.5 61t78.5 22.5t75 -41t32.5 -93z" />
    <glyph glyph-name="Eth" unicode="&#xd0;" horiz-adv-x="1808" 
d="M1411 760.5q0 193.5 -66.5 368t-203.5 277.5t-340 103q-135 0 -248 -79v-1254q133 -55 317 -55l2 2q152 0 275 81t193.5 222t70.5 334.5zM1659 835q0 -230 -134 -428t-333 -314t-379 -116q-96 0 -192 11q-160 10 -246 10h-246v53l193 152v1265l-211 70l34 72h228
q193 0 356.5 10t228.5 10v-2q207 0 367 -101.5t247 -281.5t87 -410zM53 -72h-114v9h114v-9z" />
    <glyph glyph-name="Ntilde" unicode="&#xd1;" horiz-adv-x="1779" 
d="M1495 0h-98l-977 1257v-1077l201 -108l-37 -72h-455v53l193 150v1222l-211 113l34 72h299l953 -1227v1047l-199 108l37 72h455v-54l-195 -149v-1407zM1057 2177q74 0 133 45l63 51l58 -69l-305 -252q-143 147 -283 147q-78 0 -141 -49l-60 -45l-57 70l307 252
q148 -150 285 -150z" />
    <glyph glyph-name="Ograve" unicode="&#xd2;" horiz-adv-x="1890" 
d="M399 852.5q0 -191.5 64.5 -361t198 -271t329.5 -101.5q139 0 254 81t180.5 223t65.5 334.5t-64.5 361.5t-197.5 270.5t-330 101.5q-139 0 -254 -81t-180.5 -223.5t-65.5 -334zM1741 836.5q0 -236.5 -137.5 -439t-341 -320.5t-403.5 -118t-363.5 104.5t-254.5 288t-91 420
t137 440t340.5 321.5t403.5 118t365 -104.5t255 -289t90 -421zM987 1913l-436 362l37 39l254 39l219 -401z" />
    <glyph glyph-name="Oacute" unicode="&#xd3;" horiz-adv-x="1890" 
d="M399 852.5q0 -191.5 64.5 -361t198 -271t329.5 -101.5q139 0 254 81t180.5 223t65.5 334.5t-64.5 361.5t-197.5 270.5t-330 101.5q-139 0 -254 -81t-180.5 -223.5t-65.5 -334zM1741 836.5q0 -236.5 -137.5 -439t-341 -320.5t-403.5 -118t-363.5 104.5t-254.5 288t-91 420
t137 440t340.5 321.5t403.5 118t365 -104.5t255 -289t90 -421zM1343 2275l-434 -362l-75 39l219 401l254 -39z" />
    <glyph glyph-name="Ocircumflex" unicode="&#xd4;" horiz-adv-x="1890" 
d="M399 852.5q0 -191.5 64.5 -361t198 -271t329.5 -101.5q139 0 254 81t180.5 223t65.5 334.5t-64.5 361.5t-197.5 270.5t-330 101.5q-139 0 -254 -81t-180.5 -223.5t-65.5 -334zM1741 836.5q0 -236.5 -137.5 -439t-341 -320.5t-403.5 -118t-363.5 104.5t-254.5 288t-91 420
t137 440t340.5 321.5t403.5 118t365 -104.5t255 -289t90 -421zM1356 1919l-232 -39l-256 279l-313 -258l-57 69l444 363l451 -375z" />
    <glyph glyph-name="Otilde" unicode="&#xd5;" horiz-adv-x="1890" 
d="M399 852.5q0 -191.5 64.5 -361t198 -271t329.5 -101.5q139 0 254 81t180.5 223t65.5 334.5t-64.5 361.5t-197.5 270.5t-330 101.5q-139 0 -254 -81t-180.5 -223.5t-65.5 -334zM1741 836.5q0 -236.5 -137.5 -439t-341 -320.5t-403.5 -118t-363.5 104.5t-254.5 288t-91 420
t137 440t340.5 321.5t403.5 118t365 -104.5t255 -289t90 -421zM1114 2177q74 0 133 45l64 51l57 -69l-305 -252q-143 147 -283 147q-78 0 -141 -49l-59 -45l-58 70l307 252q148 -150 285 -150z" />
    <glyph glyph-name="Odieresis" unicode="&#xd6;" horiz-adv-x="1890" 
d="M399 852.5q0 -191.5 64.5 -361t198 -271t329.5 -101.5q139 0 254 81t180.5 223t65.5 334.5t-64.5 361.5t-197.5 270.5t-330 101.5q-139 0 -254 -81t-180.5 -223.5t-65.5 -334zM1741 836.5q0 -236.5 -137.5 -439t-341 -320.5t-403.5 -118t-363.5 104.5t-254.5 288t-91 420
t137 440t340.5 321.5t403.5 118t365 -104.5t255 -289t90 -421zM1389 2118.5q0 -52.5 -24 -89t-59.5 -59t-77.5 -22.5t-75 41t-33 92t23.5 89t59.5 60.5t78 22.5t75 -41t33 -93.5zM770 2118.5q0 -52.5 -23.5 -89t-59.5 -59t-78 -22.5t-74.5 41t-32.5 92t23.5 89t59.5 60.5
t78 22.5t74.5 -41t32.5 -93.5z" />
    <glyph glyph-name="multiply" unicode="&#xd7;" horiz-adv-x="1034" 
d="M952 248l-51 -53l-385 385l-385 -385l-51 53l383 383l-383 383l51 51l385 -383l385 383l51 -51l-383 -383z" />
    <glyph glyph-name="Oslash" unicode="&#xd8;" horiz-adv-x="1890" 
d="M1493 744q0 380 -195 585l-639 -1106q141 -104 334 -104q140 0 254.5 81t180 223t65.5 321zM399 866h2q0 -178 49.5 -330.5t145.5 -254.5l639 1105q-141 104 -336 105q-139 0 -254 -81t-180.5 -223.5t-65.5 -320.5zM1741 831.5q0 -233.5 -137.5 -436t-341 -320.5
t-387 -118t-330.5 76l-195 -338l-69 41l194 338q-156 104 -242 284.5t-86 414t137.5 437t341 321.5t387 118t330.5 -76l197 340l70 -41l-196 -339q155 -104 241 -286t86 -415.5z" />
    <glyph glyph-name="Ugrave" unicode="&#xd9;" horiz-adv-x="1839" 
d="M1579 635q0 -215 -102.5 -368.5t-254 -230.5t-313 -77t-303 81t-221.5 223.5t-80 320.5v878l-211 76l37 72h602v-54l-194 -151v-717q0 -270 131 -419.5t397 -149.5q98 0 193.5 64.5t157 189.5t61.5 295v759l-209 111l37 72h467v-54l-195 -151v-770zM987 1913l-436 362
l37 39l254 39l219 -401z" />
    <glyph glyph-name="Uacute" unicode="&#xda;" horiz-adv-x="1839" 
d="M1579 635q0 -215 -102.5 -368.5t-254 -230.5t-313 -77t-303 81t-221.5 223.5t-80 320.5v878l-211 76l37 72h602v-54l-194 -151v-717q0 -270 131 -419.5t397 -149.5q98 0 193.5 64.5t157 189.5t61.5 295v759l-209 111l37 72h467v-54l-195 -151v-770zM1343 2275l-434 -362
l-75 39l219 401l254 -39z" />
    <glyph glyph-name="Ucircumflex" unicode="&#xdb;" horiz-adv-x="1839" 
d="M1579 635q0 -215 -102.5 -368.5t-254 -230.5t-313 -77t-303 81t-221.5 223.5t-80 320.5v878l-211 76l37 72h602v-54l-194 -151v-717q0 -270 131 -419.5t397 -149.5q98 0 193.5 64.5t157 189.5t61.5 295v759l-209 111l37 72h467v-54l-195 -151v-770zM1356 1919l-232 -39
l-256 279l-313 -258l-57 69l444 363l451 -375z" />
    <glyph glyph-name="Udieresis" unicode="&#xdc;" horiz-adv-x="1839" 
d="M1579 635q0 -215 -102.5 -368.5t-254 -230.5t-313 -77t-303 81t-221.5 223.5t-80 320.5v878l-211 76l37 72h602v-54l-194 -151v-717q0 -270 131 -419.5t397 -149.5q98 0 193.5 64.5t157 189.5t61.5 295v759l-209 111l37 72h467v-54l-195 -151v-770zM1120 2081
q0 51 23.5 89t59.5 60.5t78 22.5t75 -41t33 -93.5t-24 -89t-59.5 -59t-77.5 -22.5t-75 41t-33 92zM502 2081q0 51 23.5 89t59.5 60.5t77.5 22.5t74.5 -41t33 -93.5t-23.5 -89t-59.5 -59t-78 -22.5t-74.5 41t-32.5 92z" />
    <glyph glyph-name="Yacute" unicode="&#xdd;" horiz-adv-x="1626" 
d="M494 0v53l192 152v385l-520 844l-166 104l41 72h608v-54l-196 -151l417 -686l439 694l-332 125l35 72h614v-54l-162 -94l-542 -860v-455l213 -75l-37 -72h-604zM1210 2275l-434 -362l-76 39l220 401l254 -39z" />
    <glyph glyph-name="Thorn" unicode="&#xde;" horiz-adv-x="1595" 
d="M1458 832q0 -118 -104 -230q-104 -114 -264 -178t-316 -55l-98 73l37 72h176q147 0 232 59t85 166q0 169 -98 275t-291 106q-145 0 -264 -84v-893l213 -75l-35 -72h-602v53l193 150v1261l-211 76l34 72h603v-54l-195 -149v-178q88 2 220 10t202 8l-2 -4q143 0 254 -53
q111 -54 171 -146t60 -210z" />
    <glyph glyph-name="germandbls" unicode="&#xdf;" horiz-adv-x="1581" 
d="M518 1307v-1307h-407v53l182 144v753h-242v74h242v184q0 158 83 297t208 221t243 82q74 0 175 -52q100 -52 174 -132t74 -160t-44 -140q-43 -60 -122 -136q-78 -76 -112 -121t-34 -109t55 -118q55 -56 157 -124t154 -112q126 -105 126 -227q0 -82 -56 -176
q-56 -93 -136 -157q-82 -64 -158 -64t-195 17t-168 38v307h67q56 -118 144 -186t174 -68q51 0 84 51t33 121q1 70 -55 125t-156 123t-154 114q-129 108 -129 236q0 76 45 139t125 141t115 125q35 46 34 97q0 51 -50 120q-50 70 -127 118t-152 49q-197 0 -197 -340z" />
    <glyph glyph-name="agrave" unicode="&#xe0;" horiz-adv-x="1253" 
d="M367 333.5q0 -83.5 39.5 -142t105.5 -58.5q129 0 276 121v223h-368q-53 -60 -53 -143.5zM129 272q0 147 207 279h452v149q0 137 -72.5 192.5t-198.5 55.5t-300 -162l-61 70l297 236q80 14 188 14q176 0 274.5 -89t98.5 -257v-617l184 -71l-37 -72h-373v178l-231 -182
q-41 -16 -102 -16q-172 0 -249 86t-77 206zM647 1386l-436 363l37 39l254 39l219 -402z" />
    <glyph glyph-name="aacute" unicode="&#xe1;" horiz-adv-x="1253" 
d="M367 333.5q0 -83.5 39.5 -142t105.5 -58.5q129 0 276 121v223h-368q-53 -60 -53 -143.5zM129 272q0 147 207 279h452v149q0 137 -72.5 192.5t-198.5 55.5t-300 -162l-61 70l297 236q80 14 188 14q176 0 274.5 -89t98.5 -257v-617l184 -71l-37 -72h-373v178l-231 -182
q-41 -16 -102 -16q-172 0 -249 86t-77 206zM1004 1749l-435 -363l-75 39l219 402l254 -39z" />
    <glyph glyph-name="acircumflex" unicode="&#xe2;" horiz-adv-x="1253" 
d="M367 333.5q0 -83.5 39.5 -142t105.5 -58.5q129 0 276 121v223h-368q-53 -60 -53 -143.5zM129 272q0 147 207 279h452v149q0 137 -72.5 192.5t-198.5 55.5t-300 -162l-61 70l297 236q80 14 188 14q176 0 274.5 -89t98.5 -257v-617l184 -71l-37 -72h-373v178l-231 -182
q-41 -16 -102 -16q-172 0 -249 86t-77 206zM1016 1393l-232 -39l-256 278l-313 -258l-57 70l444 362l451 -374z" />
    <glyph glyph-name="atilde" unicode="&#xe3;" horiz-adv-x="1253" 
d="M367 333.5q0 -83.5 39.5 -142t105.5 -58.5q129 0 276 121v223h-368q-53 -60 -53 -143.5zM129 272q0 147 207 279h452v149q0 137 -72.5 192.5t-198.5 55.5t-300 -162l-61 70l297 236q80 14 188 14q176 0 274.5 -89t98.5 -257v-617l184 -71l-37 -72h-373v178l-231 -182
q-41 -16 -102 -16q-172 0 -249 86t-77 206zM774 1651q74 0 133 45l64 51l57 -70l-305 -252q-143 147 -283 148q-78 0 -141 -49l-59 -45l-58 69l307 252q148 -149 285 -149z" />
    <glyph glyph-name="adieresis" unicode="&#xe4;" horiz-adv-x="1253" 
d="M367 333.5q0 -83.5 39.5 -142t105.5 -58.5q129 0 276 121v223h-368q-53 -60 -53 -143.5zM129 272q0 147 207 279h452v149q0 137 -72.5 192.5t-198.5 55.5t-300 -162l-61 70l297 236q80 14 188 14q176 0 274.5 -89t98.5 -257v-617l184 -71l-37 -72h-373v178l-231 -182
q-41 -16 -102 -16q-172 0 -249 86t-77 206zM739 1553.5q0 52.5 24.5 90t60.5 60t78 22.5t75 -39.5t33 -92t-23.5 -91.5t-59.5 -61.5t-78 -22.5t-76 41t-34 93.5zM197 1553.5q0 52.5 24.5 90t60 60t77.5 22.5t75 -39.5t33 -92t-23.5 -91.5t-59.5 -61.5t-78 -22.5t-75.5 41
t-33.5 93.5z" />
    <glyph glyph-name="aring" unicode="&#xe5;" horiz-adv-x="1253" 
d="M367 333.5q0 -83.5 39.5 -142t105.5 -58.5q129 0 276 121v223h-368q-53 -60 -53 -143.5zM129 272q0 147 207 279h452v149q0 137 -72.5 192.5t-198.5 55.5t-300 -162l-61 70l297 236q80 14 188 14q176 0 274.5 -89t98.5 -257v-617l184 -71l-37 -72h-373v178l-231 -182
q-41 -16 -102 -16q-172 0 -249 86t-77 206zM659.5 1421q106.5 0 106.5 88q0 94 -54.5 154.5t-160 60.5t-105.5 -88q0 -94 53.5 -154.5t160 -60.5zM893 1614q0 -76 -55.5 -138.5t-139.5 -100.5t-170 -38t-148.5 58.5t-62.5 134.5t55.5 138.5t139.5 100t171 37.5t148.5 -58
t61.5 -134z" />
    <glyph glyph-name="ae" unicode="&#xe6;" horiz-adv-x="1863" 
d="M367 333q0 -83 45 -139t110 -56t131 29q66 30 154 114q-37 94 -39 194h-348q-53 -59 -53 -142zM1016 629h434q-18 123 -34 180q-35 133 -179 135q-211 0 -221 -315zM641 1106q242 0 322 -176q86 82 190 129t201 47q170 0 264 -152t94 -397h-696q10 -180 89 -299t214 -119
l-2 -2q121 1 330 187l61 -70l-328 -262q-78 -14 -184 -14t-199 56q-92 58 -151 159l-236 -199q-63 -16 -157 -17q-172 0 -249 86t-77 207q0 147 207 275h434v155q0 136 -67 192t-189 56t-297 -162l-61 70l297 236q82 14 190 14z" />
    <glyph glyph-name="ccedilla" unicode="&#xe7;" horiz-adv-x="1245" 
d="M854 -334q0 -96 -93 -146t-290 -61v54q201 66 201 190q0 45 -31 83t-104 81l141 115q-25 -2 -68 -2q-131 0 -236.5 69.5t-164.5 190t-59 272.5t87 291t220 221t258 82q82 0 189.5 -23.5t156.5 -52.5v-303h-68q-82 102 -186.5 160.5t-214.5 58.5q-197 0 -197 -342
q0 -199 86 -332t248 -133q115 0 322 174l61 -69l-217 -170h4q-137 -105 -213 -166q96 -80 132 -131t36 -111z" />
    <glyph glyph-name="egrave" unicode="&#xe8;" horiz-adv-x="1310" 
d="M637 946q-230 0 -240 -315h496q-19 117 -39 177q-44 138 -217 138zM595.5 -20q-116.5 0 -222 69.5t-164.5 190t-59 272.5t94 291t236.5 221t275.5 82q188 0 293.5 -151.5t107.5 -397.5h-760q10 -182 95.5 -300t227.5 -118t380 219l61 -71l-373 -293q-76 -14 -192.5 -14z
M696 1386l-436 363l37 39l254 39l219 -402z" />
    <glyph glyph-name="eacute" unicode="&#xe9;" horiz-adv-x="1310" 
d="M637 946q-230 0 -240 -315h496q-19 117 -39 177q-44 138 -217 138zM595.5 -20q-116.5 0 -222 69.5t-164.5 190t-59 272.5t94 291t236.5 221t275.5 82q188 0 293.5 -151.5t107.5 -397.5h-760q10 -182 95.5 -300t227.5 -118t380 219l61 -71l-373 -293q-76 -14 -192.5 -14z
M1053 1749l-435 -363l-75 39l219 402l254 -39z" />
    <glyph glyph-name="ecircumflex" unicode="&#xea;" horiz-adv-x="1310" 
d="M637 946q-230 0 -240 -315h496q-19 117 -39 177q-44 138 -217 138zM595.5 -20q-116.5 0 -222 69.5t-164.5 190t-59 272.5t94 291t236.5 221t275.5 82q188 0 293.5 -151.5t107.5 -397.5h-760q10 -182 95.5 -300t227.5 -118t380 219l61 -71l-373 -293q-76 -14 -192.5 -14z
M1065 1393l-231 -39l-256 278l-314 -258l-57 70l444 362l451 -374z" />
    <glyph glyph-name="edieresis" unicode="&#xeb;" horiz-adv-x="1310" 
d="M637 946q-230 0 -240 -315h496q-19 117 -39 177q-44 138 -217 138zM595.5 -20q-116.5 0 -222 69.5t-164.5 190t-59 272.5t94 291t236.5 221t275.5 82q188 0 293.5 -151.5t107.5 -397.5h-760q10 -182 95.5 -300t227.5 -118t380 219l61 -71l-373 -293q-76 -14 -192.5 -14z
M788 1553.5q0 52.5 25 90t60.5 60t77.5 22.5t75 -39.5t33 -92t-23.5 -91.5t-59.5 -61.5t-78 -22.5t-76 41t-34 93.5zM246 1553.5q0 52.5 24.5 90t60.5 60t77.5 22.5t74.5 -39.5t33 -92t-23.5 -91.5t-59.5 -61.5t-78 -22.5t-75.5 41t-33.5 93.5z" />
    <glyph glyph-name="igrave" unicode="&#xec;" horiz-adv-x="788" 
d="M119 0v53l182 142v622l-182 129v53l340 125h67v-979l185 -73l-37 -72h-555zM424 1386l-436 363l37 39l254 39l219 -402z" />
    <glyph glyph-name="iacute" unicode="&#xed;" horiz-adv-x="788" 
d="M119 0v53l182 142v622l-182 129v53l340 125h67v-979l185 -73l-37 -72h-555zM782 1749l-434 -363l-76 39l220 402l253 -39z" />
    <glyph glyph-name="icircumflex" unicode="&#xee;" horiz-adv-x="788" 
d="M119 0v53l182 142v622l-182 129v53l340 125h67v-979l185 -73l-37 -72h-555zM793 1393l-232 -39l-256 278l-313 -258l-58 70l445 362l450 -374z" />
    <glyph glyph-name="idieresis" unicode="&#xef;" horiz-adv-x="788" 
d="M119 0v53l182 142v622l-182 129v53l340 125h67v-979l185 -73l-37 -72h-555zM788 1594.5q0 -52.5 -23.5 -91.5t-59 -61.5t-77.5 -22.5t-76 41t-34 93.5t24.5 90t60.5 60t78 22.5t74.5 -39.5t32.5 -92zM85 1419q-42 0 -76 41t-34 93.5t25 90t60.5 60t77.5 22.5t75 -39.5
t33 -92t-23.5 -91.5t-59.5 -61.5t-78 -22.5z" />
    <glyph glyph-name="eth" unicode="&#xf0;" horiz-adv-x="1374" 
d="M985 562q0 204 -63 382h-279q-242 0 -242 -342q0 -138 42 -244t117 -163t175 -58l-2 2q252 1 252 423zM1221 716q0 -202 -84 -369q-83 -167 -223 -267t-284 -100t-247 68q-104 68 -165 190q-60 121 -60 267q0 145 88 285t229 228t287 88q41 0 90 -6q-92 172 -240 307
l-350 -217l-45 74l326 200q-186 145 -406 205v53l217 86q209 -59 396 -215l348 215l47 -73l-328 -201l2 -2q182 -172 292 -393t110 -423z" />
    <glyph glyph-name="ntilde" unicode="&#xf1;" horiz-adv-x="1462" 
d="M997 -2v698q0 117 -36.5 162t-119 45t-150.5 -25.5t-165 -103.5v-631l185 -73l-37 -72h-555v53l182 142v602l-182 104v53l334 172l65 -272l299 238q43 16 109 16q137 0 217 -85t80 -230v-646l184 -75l-37 -72h-373zM881 1651q74 0 133 45l63 51l58 -70l-306 -252
q-143 147 -282 148q-78 0 -141 -49l-60 -45l-57 69l307 252q148 -149 285 -149z" />
    <glyph glyph-name="ograve" unicode="&#xf2;" horiz-adv-x="1363" 
d="M393 604q0 -199 86 -332t250 -133q242 0 242 342q0 199 -86 332t-248 133q-244 0 -244 -342zM1217 571.5q0 -151.5 -94.5 -290t-237 -220t-274.5 -81.5t-237.5 69.5t-164.5 190t-59 272.5t94 291t236.5 221t275.5 82t237.5 -70.5t164 -191.5t59.5 -272.5zM725 1386
l-436 363l37 39l254 39l219 -402z" />
    <glyph glyph-name="oacute" unicode="&#xf3;" horiz-adv-x="1363" 
d="M393 604q0 -199 86 -332t250 -133q242 0 242 342q0 199 -86 332t-248 133q-244 0 -244 -342zM1217 571.5q0 -151.5 -94.5 -290t-237 -220t-274.5 -81.5t-237.5 69.5t-164.5 190t-59 272.5t94 291t236.5 221t275.5 82t237.5 -70.5t164 -191.5t59.5 -272.5zM1081 1749
l-434 -363l-76 39l220 402l253 -39z" />
    <glyph glyph-name="ocircumflex" unicode="&#xf4;" horiz-adv-x="1363" 
d="M393 604q0 -199 86 -332t250 -133q242 0 242 342q0 199 -86 332t-248 133q-244 0 -244 -342zM1217 571.5q0 -151.5 -94.5 -290t-237 -220t-274.5 -81.5t-237.5 69.5t-164.5 190t-59 272.5t94 291t236.5 221t275.5 82t237.5 -70.5t164 -191.5t59.5 -272.5zM1094 1393
l-232 -39l-256 278l-313 -258l-57 70l444 362l450 -374z" />
    <glyph glyph-name="otilde" unicode="&#xf5;" horiz-adv-x="1363" 
d="M393 604q0 -199 86 -332t250 -133q242 0 242 342q0 199 -86 332t-248 133q-244 0 -244 -342zM1217 571.5q0 -151.5 -94.5 -290t-237 -220t-274.5 -81.5t-237.5 69.5t-164.5 190t-59 272.5t94 291t236.5 221t275.5 82t237.5 -70.5t164 -191.5t59.5 -272.5zM852 1651
q74 0 133 45l64 51l57 -70l-305 -252q-143 147 -283 148q-78 0 -141 -49l-60 -45l-57 69l307 252q148 -149 285 -149z" />
    <glyph glyph-name="odieresis" unicode="&#xf6;" horiz-adv-x="1363" 
d="M393 604q0 -199 86 -332t250 -133q242 0 242 342q0 199 -86 332t-248 133q-244 0 -244 -342zM1217 571.5q0 -151.5 -94.5 -290t-237 -220t-274.5 -81.5t-237.5 69.5t-164.5 190t-59 272.5t94 291t236.5 221t275.5 82t237.5 -70.5t164 -191.5t59.5 -272.5zM1087 1594.5
q0 -52.5 -23.5 -91.5t-59 -61.5t-77.5 -22.5t-76 41t-34 93.5t24.5 90t60.5 60t78 22.5t74.5 -39.5t32.5 -92zM545 1594.5q0 -52.5 -23.5 -91.5t-59.5 -61.5t-78 -22.5t-76 41t-34 93.5t25 90t60.5 60t77.5 22.5t75 -39.5t33 -92z" />
    <glyph glyph-name="divide" unicode="&#xf7;" horiz-adv-x="1073" 
d="M82 668h909v-74h-909v74zM684 259q0 -102 -91 -158q-40 -23 -86 -23t-83 43t-37 97q0 102 91 158q40 24 87 24t83 -44q36 -43 36 -97zM684 1042q0 -104 -91 -158q-40 -24 -86 -24t-83 43t-37 97q0 104 91 158q40 24 87 24t83 -43t36 -97z" />
    <glyph glyph-name="oslash" unicode="&#xf8;" horiz-adv-x="1363" 
d="M967 481q0 207 -88 336l-349 -606q81 -71 195 -72q242 0 242 342zM637 946q-244 0 -244 -342h-2q0 -203 88 -334l350 604q-82 72 -192 72zM1217 571.5q0 -149.5 -94.5 -288t-237 -220t-259 -81.5t-202.5 41l-184 -320l-66 39l184 319q-98 70 -153 188t-55 266.5t94 287.5
t236.5 221t258 82t201.5 -41l182 317l66 -36l-182 -318q98 -70 154.5 -188.5t56.5 -268z" />
    <glyph glyph-name="ugrave" unicode="&#xf9;" horiz-adv-x="1423" 
d="M934 0v221l-266 -225q-43 -16 -111 -16q-137 0 -216 85t-79 230v500l-182 106v53l340 172h67v-739q0 -117 36 -162t115 -45t143.5 25.5t152.5 101.5v488l-182 106v53l340 172h67v-981l184 -73l-34 -72h-375zM764 1386l-436 363l37 39l253 39l220 -402z" />
    <glyph glyph-name="uacute" unicode="&#xfa;" horiz-adv-x="1423" 
d="M934 0v221l-266 -225q-43 -16 -111 -16q-137 0 -216 85t-79 230v500l-182 106v53l340 172h67v-739q0 -117 36 -162t115 -45t143.5 25.5t152.5 101.5v488l-182 106v53l340 172h67v-981l184 -73l-34 -72h-375zM1120 1749l-434 -363l-76 39l219 402l254 -39z" />
    <glyph glyph-name="ucircumflex" unicode="&#xfb;" horiz-adv-x="1423" 
d="M934 0v221l-266 -225q-43 -16 -111 -16q-137 0 -216 85t-79 230v500l-182 106v53l340 172h67v-739q0 -117 36 -162t115 -45t143.5 25.5t152.5 101.5v488l-182 106v53l340 172h67v-981l184 -73l-34 -72h-375zM1133 1393l-232 -39l-256 278l-313 -258l-58 70l445 362
l450 -374z" />
    <glyph glyph-name="udieresis" unicode="&#xfc;" horiz-adv-x="1423" 
d="M934 0v221l-266 -225q-43 -16 -111 -16q-137 0 -216 85t-79 230v500l-182 106v53l340 172h67v-739q0 -117 36 -162t115 -45t143.5 25.5t152.5 101.5v488l-182 106v53l340 172h67v-981l184 -73l-34 -72h-375zM856 1553.5q0 52.5 24.5 90t60.5 60t78 22.5t74.5 -39.5
t32.5 -92t-23.5 -91.5t-59 -61.5t-77.5 -22.5t-76 41t-34 93.5zM313 1553.5q0 52.5 24.5 90t60.5 60t78 22.5t75 -39.5t33 -92t-23.5 -91.5t-59.5 -61.5t-78 -22.5t-76 41t-34 93.5z" />
    <glyph glyph-name="yacute" unicode="&#xfd;" horiz-adv-x="1257" 
d="M1174 1034l-517 -1032l-415 -541l-68 54q119 125 180.5 219t86 190t22.5 230l-262 637l-187 108v53l330 172l78 -309l254 -625l299 625l-268 199l34 71l433 2v-53zM1004 1749l-435 -363l-75 39l219 402l254 -39z" />
    <glyph glyph-name="thorn" unicode="&#xfe;" horiz-adv-x="1452" 
d="M1057 477q-1 199 -61 335t-171 136h-2q-79 0 -154 -32t-186 -132v-422q17 -100 103 -162t229 -63q242 0 242 340zM78 -522v53l182 141v1809l-182 129v53l340 125h67v-920l281 222q66 16 165 16t186 -71t136 -191t49 -272t-94 -290t-236 -220t-276 -82v-3q-115 0 -211 68
v-407l281 -89l-35 -71h-653z" />
    <glyph glyph-name="ydieresis" unicode="&#xff;" horiz-adv-x="1257" 
d="M1174 1034l-517 -1032l-415 -541l-68 54q119 125 180.5 219t86 190t22.5 230l-262 637l-187 108v53l330 172l78 -309l254 -625l299 625l-268 199l34 71l433 2v-53zM741 1553.5q0 52.5 25 90t60.5 60t77.5 22.5t75 -39.5t33 -92t-23.5 -91.5t-59.5 -61.5t-78 -22.5t-76 41
t-34 93.5zM199 1553.5q0 52.5 24.5 90t60 60t77.5 22.5t75 -39.5t33 -92t-23.5 -91.5t-59.5 -61.5t-78 -22.5t-75.5 41t-33.5 93.5z" />
    <glyph glyph-name="Amacron" unicode="&#x100;" horiz-adv-x="1763" 
d="M813 1417l-324 -737h629zM1130 0v53l185 152l-164 395h-696l-181 -412l369 -116l-35 -72h-614v53l186 148l590 1343l184 105l602 -1448l205 -129l-37 -72h-594zM424 2148h917v-71h-917v71z" />
    <glyph glyph-name="amacron" unicode="&#x101;" horiz-adv-x="1253" 
d="M367 333.5q0 -83.5 39.5 -142t105.5 -58.5q129 0 276 121v223h-368q-53 -60 -53 -143.5zM129 272q0 147 207 279h452v149q0 137 -72.5 192.5t-198.5 55.5t-300 -162l-61 70l297 236q80 14 188 14q176 0 274.5 -89t98.5 -257v-617l184 -71l-37 -72h-373v178l-231 -182
q-41 -16 -102 -16q-172 0 -249 86t-77 206zM188 1622h836v-84h-836v84z" />
    <glyph glyph-name="Abreve" unicode="&#x102;" horiz-adv-x="1763" 
d="M813 1417l-324 -737h629zM1130 0v53l185 152l-164 395h-696l-181 -412l369 -116l-35 -72h-614v53l186 148l590 1343l184 105l602 -1448l205 -129l-37 -72h-594zM860 1972q-105 0 -212 46t-159 149l179 143q57 -133 119.5 -184t131.5 -51t111.5 35.5t40.5 84.5l217 115
q4 -67 -60.5 -147t-163.5 -135.5t-204 -55.5z" />
    <glyph glyph-name="abreve" unicode="&#x103;" horiz-adv-x="1253" 
d="M367 333.5q0 -83.5 39.5 -142t105.5 -58.5q129 0 276 121v223h-368q-53 -60 -53 -143.5zM129 272q0 147 207 279h452v149q0 137 -72.5 192.5t-198.5 55.5t-300 -162l-61 70l297 236q80 14 188 14q176 0 274.5 -89t98.5 -257v-617l184 -71l-37 -72h-373v178l-231 -182
q-41 -16 -102 -16q-172 0 -249 86t-77 206zM583.5 1446q-104.5 0 -212 46t-158.5 148l178 144q57 -133 119.5 -184.5t131.5 -51.5t112 36t41 85l217 115q4 -68 -60.5 -148t-164 -135t-204 -55z" />
    <glyph glyph-name="Aogonek" unicode="&#x104;" horiz-adv-x="1763" 
d="M813 1417l-324 -737h629zM1307 -313q0 45 16 82l293 231h-486v53l185 152l-164 395h-696l-181 -412l369 -116l-35 -72h-614v53l186 148l590 1343l184 105l602 -1448l205 -129l-35 -68l5 -4q-100 -84 -143.5 -141.5t-43.5 -104.5q0 -75 94 -90v-67l-172 -138
q-159 68 -159 228z" />
    <glyph glyph-name="aogonek" unicode="&#x105;" horiz-adv-x="1253" 
d="M367 333.5q0 -83.5 39.5 -142t105.5 -58.5q129 0 276 121v223h-368q-53 -60 -53 -143.5zM129 272q0 147 207 279h452v149q0 137 -72.5 192.5t-198.5 55.5t-300 -162l-61 70l297 236q80 14 188 14q176 0 274.5 -89t98.5 -257v-617l184 -71l-37 -70l2 -2
q-100 -84 -143 -141.5t-43 -104.5q0 -75 94 -90v-67l-172 -138q-160 68 -160 228q0 45 17 82l293 231h-261v178l-231 -182q-41 -16 -102 -16q-172 0 -249 86t-77 206z" />
    <glyph glyph-name="Cacute" unicode="&#x106;" horiz-adv-x="1673" 
d="M1468 1165h-55q-193 326 -512 326q-141 0 -256 -81t-180.5 -223.5t-65.5 -334t63.5 -362.5t196 -273t326.5 -102q170 0 494 274l57 -92l-377 -293q-123 -45 -311.5 -45t-352 104.5t-254.5 288t-91 420t137 440t342 321.5t391 118q104 0 244.5 -31t203.5 -66v-389z
M1284 2275l-434 -362l-76 39l219 401l254 -39z" />
    <glyph glyph-name="cacute" unicode="&#x107;" horiz-adv-x="1245" 
d="M1061 727h-68q-82 102 -186.5 160.5t-214.5 58.5q-197 0 -197 -342q0 -199 86 -332t248 -133q115 0 322 174l61 -69l-321 -250q-76 -14 -194 -14t-223.5 69.5t-164.5 190t-59 272.5t87 291t220 221t258 82q82 0 189.5 -23.5t156.5 -52.5v-303zM1042 1749l-434 -363
l-76 39l220 402l254 -39z" />
    <glyph glyph-name="Cdotaccent" unicode="&#x10a;" horiz-adv-x="1673" 
d="M1468 1165h-55q-193 326 -512 326q-141 0 -256 -81t-180.5 -223.5t-65.5 -334t63.5 -362.5t196 -273t326.5 -102q170 0 494 274l57 -92l-377 -293q-123 -45 -311.5 -45t-352 104.5t-254.5 288t-91 420t137 440t342 321.5t391 118q104 0 244.5 -31t203.5 -66v-389z
M1034 2123q0 -54 -25.5 -94t-65.5 -63.5t-86 -23.5t-83 44t-37 98t25.5 93t65.5 62.5t87.5 23.5t83 -43t35.5 -97z" />
    <glyph glyph-name="cdotaccent" unicode="&#x10b;" horiz-adv-x="1245" 
d="M1061 727h-68q-82 102 -186.5 160.5t-214.5 58.5q-197 0 -197 -342q0 -199 86 -332t248 -133q115 0 322 174l61 -69l-321 -250q-76 -14 -194 -14t-223.5 69.5t-164.5 190t-59 272.5t87 291t220 221t258 82q82 0 189.5 -23.5t156.5 -52.5v-303zM793 1596.5
q0 -54.5 -26 -94.5t-65.5 -63.5t-85.5 -23.5t-83 44t-37 98.5t25.5 93.5t65.5 62.5t87 23.5t83 -43t36 -97.5z" />
    <glyph glyph-name="Ccaron" unicode="&#x10c;" horiz-adv-x="1673" 
d="M1468 1165h-55q-193 326 -512 326q-141 0 -256 -81t-180.5 -223.5t-65.5 -334t63.5 -362.5t196 -273t326.5 -102q170 0 494 274l57 -92l-377 -293q-123 -45 -311.5 -45t-352 104.5t-254.5 288t-91 420t137 440t342 321.5t391 118q104 0 244.5 -31t203.5 -66v-389z
M891 1901l-451 374l37 39l232 39l256 -278l313 258l57 -70z" />
    <glyph glyph-name="ccaron" unicode="&#x10d;" horiz-adv-x="1245" 
d="M1061 727h-68q-82 102 -186.5 160.5t-214.5 58.5q-197 0 -197 -342q0 -199 86 -332t248 -133q115 0 322 174l61 -69l-321 -250q-76 -14 -194 -14t-223.5 69.5t-164.5 190t-59 272.5t87 291t220 221t258 82q82 0 189.5 -23.5t156.5 -52.5v-303zM649 1374l-450 375l37 39
l231 39l256 -279l313 258l58 -69z" />
    <glyph glyph-name="Dcaron" unicode="&#x10e;" horiz-adv-x="1808" 
d="M1411 760.5q0 193.5 -66.5 368t-203.5 277.5t-340 103q-135 0 -248 -79v-1254q133 -55 317 -55l2 2q152 0 275 81t193.5 222t70.5 334.5zM1659 835q0 -230 -134 -428t-333 -314t-379 -116q-96 0 -192 11q-160 10 -246 10h-246v53l193 152v1265l-211 70l34 72h228
q193 0 356.5 10t228.5 10v-2q207 0 367 -101.5t247 -281.5t87 -410zM829 1901l-450 374l37 39l231 39l256 -278l314 258l57 -70z" />
    <glyph glyph-name="dcaron" unicode="&#x10f;" horiz-adv-x="1433" 
d="M395 604q0 -199 84 -335t240 -136l-2 2q64 1 121 19t131 71v482q-13 104 -99 172t-233 67q-242 0 -242 -342zM969 0v147l-191 -151q-66 -16 -179 -16t-221 70t-168 190t-60 272t94 291t236 221t268 82t221 -70v445l-183 129v53l340 125h68v-1643l184 -73l-37 -72h-372z
M1669 1788v-297l-248 -322l-67 54q108 165 106 311q0 20 -4 49l-74 68v53l220 84h67z" />
    <glyph glyph-name="Dcroat" unicode="&#x110;" horiz-adv-x="1808" 
d="M1411 758.5q0 193.5 -66.5 367.5t-203.5 277.5t-340 103.5q-135 0 -248 -80v-579h12v-8h-12v-664q133 -55 317 -55h2q152 0 275 81t193.5 222t70.5 334.5zM1659 835q0 -230 -134 -428t-333 -314t-379 -116q-96 0 -192 11q-160 10 -246 10h-246v53l193 152v1265l-211 70
l34 72h228q193 0 356.5 10t228.5 10v-2q207 0 367 -101.5t247 -281.5t87 -410z" />
    <glyph glyph-name="dcroat" unicode="&#x111;" horiz-adv-x="1433" 
d="M395 604q0 -199 84 -335t240 -136l-2 2q64 1 121 19t131 71v482q-13 104 -99 172t-233 67q-242 0 -242 -342zM969 0v147l-191 -151q-66 -16 -179 -16t-221 70t-168 190t-60 272t94 291t236 221t268 82t221 -70v355h-371v73h371v308l157 57h68v-365h240v-73h-240v-1246
l184 -73l-37 -72h-372z" />
    <glyph glyph-name="Emacron" unicode="&#x112;" horiz-adv-x="1665" 
d="M129 0v53l193 152v1259l-211 74l34 72h1180l102 37v-461l-51 -15l-241 359h-582v-668h338l149 268h54v-626l-72 -37l-127 315h-342v-702h573l271 401l51 -16v-502l-102 37h-1217zM371 2148h917v-71h-917v71z" />
    <glyph glyph-name="emacron" unicode="&#x113;" horiz-adv-x="1310" 
d="M637 946q-230 0 -240 -315h496q-19 117 -39 177q-44 138 -217 138zM595.5 -20q-116.5 0 -222 69.5t-164.5 190t-59 272.5t94 291t236.5 221t275.5 82q188 0 293.5 -151.5t107.5 -397.5h-760q10 -182 95.5 -300t227.5 -118t380 219l61 -71l-373 -293q-76 -14 -192.5 -14z
M238 1622h835v-84h-835v84z" />
    <glyph glyph-name="Edotaccent" unicode="&#x116;" horiz-adv-x="1665" 
d="M129 0v53l193 152v1259l-211 74l34 72h1180l102 37v-461l-51 -15l-241 359h-582v-668h338l149 268h54v-626l-72 -37l-127 315h-342v-702h573l271 401l51 -16v-502l-102 37h-1217zM977 2123q0 -54 -25.5 -94t-65.5 -63.5t-86 -23.5t-83 44t-37 98t25.5 93t65.5 62.5
t87 23.5t83 -43t36 -97z" />
    <glyph glyph-name="edotaccent" unicode="&#x117;" horiz-adv-x="1310" 
d="M637 946q-230 0 -240 -315h496q-19 117 -39 177q-44 138 -217 138zM595.5 -20q-116.5 0 -222 69.5t-164.5 190t-59 272.5t94 291t236.5 221t275.5 82q188 0 293.5 -151.5t107.5 -397.5h-760q10 -182 95.5 -300t227.5 -118t380 219l61 -71l-373 -293q-76 -14 -192.5 -14z
M803 1596.5q0 -54.5 -25.5 -94.5t-65.5 -63.5t-86 -23.5t-83 44t-37 98.5t25.5 93.5t65.5 62.5t87 23.5t83 -43t36 -97.5z" />
    <glyph glyph-name="Eogonek" unicode="&#x118;" horiz-adv-x="1665" 
d="M1018 -313q0 45 16 82l293 231h-1198v53l193 152v1259l-211 74l34 72h1180l102 37v-461l-51 -15l-241 359h-582v-668h338l149 268h54v-626l-72 -37l-127 315h-342v-702h573l271 401l51 -16v-502l-35 12q-84 -74 -121 -125t-37 -96q0 -75 95 -90v-67l-172 -138
q-160 68 -160 228z" />
    <glyph glyph-name="eogonek" unicode="&#x119;" horiz-adv-x="1310" 
d="M637 946q-230 0 -240 -315h496q-19 117 -39 177q-44 138 -217 138zM559 -541q-113 58 -113 197q0 68 17 113l217 213q-25 -2 -70 -2q-131 0 -236.5 69.5t-164.5 190t-59 272.5t94 291t236.5 221t275.5 82q188 0 293.5 -151.5t107.5 -397.5h-760q10 -182 95.5 -300
t227.5 -118t380 219l61 -71l-370 -293q-86 -78 -116 -133.5t-30 -106.5q0 -75 86 -90v-67z" />
    <glyph glyph-name="Ecaron" unicode="&#x11a;" horiz-adv-x="1665" 
d="M129 0v53l193 152v1259l-211 74l34 72h1180l102 37v-461l-51 -15l-241 359h-582v-668h338l149 268h54v-626l-72 -37l-127 315h-342v-702h573l271 401l51 -16v-502l-102 37h-1217zM834 1901l-451 374l37 39l231 39l256 -278l314 258l57 -70z" />
    <glyph glyph-name="ecaron" unicode="&#x11b;" horiz-adv-x="1310" 
d="M637 946q-230 0 -240 -315h496q-19 117 -39 177q-44 138 -217 138zM595.5 -20q-116.5 0 -222 69.5t-164.5 190t-59 272.5t94 291t236.5 221t275.5 82q188 0 293.5 -151.5t107.5 -397.5h-760q10 -182 95.5 -300t227.5 -118t380 219l61 -71l-373 -293q-76 -14 -192.5 -14z
M659 1374l-450 375l37 39l231 39l256 -279l314 258l57 -69z" />
    <glyph glyph-name="Gbreve" unicode="&#x11e;" horiz-adv-x="1851" 
d="M150 771.5q0 236.5 143 440t357 321.5t407 118q115 0 267.5 -31t221.5 -66v-378h-53q-211 315 -555 315q-152 0 -274.5 -81t-193.5 -223.5t-71 -333t69 -360t208 -271t346 -101.5q10 0 64 -1q119 -2 241 58v492l-313 90l35 71h704v-53l-194 -149v-312l55 -81l-377 -232
q-130 -45 -341.5 -45t-383.5 104.5t-267 288t-95 420zM931.5 1972q-104.5 0 -212 46t-158.5 149l178 143q57 -133 120 -184t131.5 -51t111.5 35.5t41 84.5l217 115q4 -67 -60.5 -147t-164 -135.5t-204 -55.5z" />
    <glyph glyph-name="gbreve" unicode="&#x11f;" horiz-adv-x="1310" 
d="M553 948q-197 0 -197 -190q0 -129 82 -209t213 -80q199 0 199 193q0 127 -82 206.5t-215 79.5zM623 215q0 -35 52 -63.5t184.5 -79.5t210 -98.5t77.5 -112.5t-79 -161.5t-194.5 -167.5t-225.5 -71t-263.5 39t-255.5 78v305h68q119 -143 240.5 -217t275.5 -74q57 0 104 24
t74 60.5t27 69.5q0 55 -69 98t-201 97.5t-194.5 92.5t-62.5 88t63.5 101t149.5 90q-33 -6 -67 -6q-104 0 -192.5 47t-138.5 127t-50 183.5t75.5 208t196.5 169t254 64.5t238 -82h319l-2 -72h-248q63 -86 63.5 -186t-51 -187t-137.5 -154t-188 -95q-53 -53 -53 -115z
M602 1446q-105 0 -212 46t-159 148l179 144q57 -133 119.5 -184.5t131 -51.5t111.5 36t41 85l217 115q4 -68 -60.5 -148t-163.5 -135t-204 -55z" />
    <glyph glyph-name="Gdotaccent" unicode="&#x120;" horiz-adv-x="1851" 
d="M150 771.5q0 236.5 143 440t357 321.5t407 118q115 0 267.5 -31t221.5 -66v-378h-53q-211 315 -555 315q-152 0 -274.5 -81t-193.5 -223.5t-71 -333t69 -360t208 -271t346 -101.5q10 0 64 -1q119 -2 241 58v492l-313 90l35 71h704v-53l-194 -149v-312l55 -81l-377 -232
q-130 -45 -341.5 -45t-383.5 104.5t-267 288t-95 420zM1104 2123q0 -54 -25.5 -94t-65.5 -63.5t-86 -23.5t-83 44t-37 98t25.5 93t65.5 62.5t87 23.5t83 -43t36 -97z" />
    <glyph glyph-name="gdotaccent" unicode="&#x121;" horiz-adv-x="1310" 
d="M553 948q-197 0 -197 -190q0 -129 82 -209t213 -80q199 0 199 193q0 127 -82 206.5t-215 79.5zM623 215q0 -35 52 -63.5t184.5 -79.5t210 -98.5t77.5 -112.5t-79 -161.5t-194.5 -167.5t-225.5 -71t-263.5 39t-255.5 78v305h68q119 -143 240.5 -217t275.5 -74q57 0 104 24
t74 60.5t27 69.5q0 55 -69 98t-201 97.5t-194.5 92.5t-62.5 88t63.5 101t149.5 90q-33 -6 -67 -6q-104 0 -192.5 47t-138.5 127t-50 183.5t75.5 208t196.5 169t254 64.5t238 -82h319l-2 -72h-248q63 -86 63.5 -186t-51 -187t-137.5 -154t-188 -95q-53 -53 -53 -115z
M772 1596.5q0 -54.5 -25.5 -94.5t-65.5 -63.5t-86 -23.5t-83 44t-37 98.5t25.5 93.5t65.5 62.5t87 23.5t83 -43t36 -97.5z" />
    <glyph glyph-name="Gcommaaccent" unicode="&#x122;" horiz-adv-x="1851" 
d="M150 771.5q0 236.5 143 440t357 321.5t407 118q115 0 267.5 -31t221.5 -66v-378h-53q-211 315 -555 315q-152 0 -274.5 -81t-193.5 -223.5t-71 -333t69 -360t208 -271t346 -101.5q10 0 64 -1q119 -2 241 58v492l-313 90l35 71h704v-53l-194 -149v-312l55 -81l-377 -232
q-130 -45 -341.5 -45t-383.5 104.5t-267 288t-95 420zM1217 -170v-53l-261 -400h-65l51 263l-154 118l35 72h394z" />
    <glyph glyph-name="gcommaaccent" unicode="&#x123;" horiz-adv-x="1310" 
d="M553 948q-197 0 -197 -190q0 -129 82 -209t213 -80q199 0 199 193q0 127 -82 206.5t-215 79.5zM623 215q0 -35 52 -63.5t184.5 -79.5t210 -98.5t77.5 -112.5t-79 -161.5t-194.5 -167.5t-225.5 -71t-263.5 39t-255.5 78v305h68q119 -143 240.5 -217t275.5 -74q57 0 104 24
t74 60.5t27 69.5q0 55 -69 98t-201 97.5t-194.5 92.5t-62.5 88t63.5 101t149.5 90q-33 -6 -67 -6q-104 0 -192.5 47t-138.5 127t-50 183.5t75.5 208t196.5 169t254 64.5t238 -82h319l-2 -72h-248q63 -86 63.5 -186t-51 -187t-137.5 -154t-188 -95q-53 -53 -53 -115z
M408 1438v53l260 399h65l-51 -262l154 -119l-35 -71h-393z" />
    <glyph glyph-name="Hbar" unicode="&#x126;" horiz-adv-x="1941" 
d="M553 1133v-291h833v291h-833zM1194 0v53l192 150v559h-833v-615l213 -75l-35 -72h-602v53l193 150v930h-322v79h322v250l-211 76l34 72h603v-54l-195 -149v-195h833v250l-210 76l34 72h602v-54l-194 -149v-195h324v-79h-324v-986l213 -75l-35 -72h-602z" />
    <glyph glyph-name="hbar" unicode="&#x127;" horiz-adv-x="1421" 
d="M956 0v698q0 117 -36.5 162t-118.5 45t-150.5 -25.5t-165.5 -103.5v-631l185 -73l-37 -72h-555v53l182 142v1196h-260v73h260v287l158 78h67v-365h351v-73h-351v-531l291 230q43 16 109 16q137 0 217 -85t80 -230v-646l184 -73l-37 -72h-373z" />
    <glyph glyph-name="Imacron" unicode="&#x12a;" horiz-adv-x="876" 
d="M129 -4v53l193 150v1261l-211 76l34 72h603v-54l-195 -149v-1258l213 -79l-35 -72h-602zM-20 2148h917v-71h-917v71z" />
    <glyph glyph-name="imacron" unicode="&#x12b;" horiz-adv-x="788" 
d="M119 0v53l182 142v622l-182 129v53l340 125h67v-979l185 -73l-37 -72h-555zM-35 1622h836v-84h-836v84z" />
    <glyph glyph-name="Iogonek" unicode="&#x12e;" horiz-adv-x="876" 
d="M307 -317q0 45 17 81l292 232h-487v53l193 150v1261l-211 76l34 72h603v-54l-195 -149v-1258l213 -79l-35 -72q-100 -84 -143 -141.5t-43 -104.5q0 -75 94 -90v-68l-172 -137q-160 68 -160 228z" />
    <glyph glyph-name="iogonek" unicode="&#x12f;" horiz-adv-x="788" 
d="M250 -313q0 45 16 82l293 231h-440v53l182 142v622l-182 129v53l340 125h67v-979l185 -73l-37 -72q-100 -84 -143.5 -141.5t-43.5 -104.5q0 -75 95 -90v-67l-172 -138q-160 68 -160 228zM236 1557.5q0 54.5 25.5 93.5t65.5 62.5t86.5 23.5t82.5 -43t36 -97.5t-25.5 -94.5
t-65.5 -63.5t-86 -23.5t-82.5 44t-36.5 98.5z" />
    <glyph glyph-name="Idotaccent" unicode="&#x130;" horiz-adv-x="876" 
d="M129 -4v53l193 150v1261l-211 76l34 72h603v-54l-195 -149v-1258l213 -79l-35 -72h-602zM586 2123q0 -54 -25.5 -94t-65.5 -63.5t-86 -23.5t-83 44t-37 98t25.5 93t65.5 62.5t87 23.5t83 -43t36 -97z" />
    <glyph glyph-name="dotlessi" unicode="&#x131;" horiz-adv-x="788" 
d="M119 0v53l182 142v622l-182 129v53l340 125h67v-979l185 -73l-37 -72h-555z" />
    <glyph glyph-name="Kcommaaccent" unicode="&#x136;" horiz-adv-x="1742" 
d="M1651 1608v-54l-752 -655l576 -711l241 -118l-35 -72h-358l-645 807l635 553l-236 178l35 72h539zM129 -2v53l193 150v1261l-211 76l34 72h603v-54l-195 -149v-1262l213 -75l-35 -72h-602zM1161 -170v-53l-260 -400h-65l51 263l-154 118l35 72h393z" />
    <glyph glyph-name="kcommaaccent" unicode="&#x137;" horiz-adv-x="1392" 
d="M1305 1085v-53l-486 -411l363 -482l178 -67l-35 -72h-332l-395 539l387 329l-184 146l35 71h469zM78 -2v53l182 142v1288l-182 129v53l340 125h67v-1645l185 -73l-37 -72h-555zM954 -170v-53l-260 -400h-65l51 263l-154 118l35 72h393z" />
    <glyph glyph-name="Lacute" unicode="&#x139;" horiz-adv-x="1601" 
d="M129 0v53l193 152v1257l-211 76l34 72h603v-54l-195 -151v-1325h543l297 442l51 -16v-543l-103 37h-1212zM872 2275l-434 -362l-76 39l220 401l254 -39z" />
    <glyph glyph-name="lacute" unicode="&#x13a;" horiz-adv-x="747" 
d="M78 -2v53l182 142v1288l-182 129v53l340 125h67v-1643l185 -75l-37 -72h-555zM762 2351l-434 -362l-76 39l219 401l254 -39z" />
    <glyph glyph-name="Lcommaaccent" unicode="&#x13b;" horiz-adv-x="1601" 
d="M129 0v53l193 152v1257l-211 76l34 72h603v-54l-195 -151v-1325h543l297 442l51 -16v-543l-103 37h-1212zM1036 -170v-53l-260 -400h-65l51 263l-154 118l35 72h393z" />
    <glyph glyph-name="lcommaaccent" unicode="&#x13c;" horiz-adv-x="747" 
d="M78 -2v53l182 142v1288l-182 129v53l340 125h67v-1643l185 -75l-37 -72h-555zM604 -170v-53l-260 -400h-65l51 263l-154 118l35 72h393z" />
    <glyph glyph-name="Lcaron" unicode="&#x13d;" horiz-adv-x="1601" 
d="M129 0v53l193 152v1257l-211 76l34 72h603v-54l-195 -151v-1325h543l297 442l51 -16v-543l-103 37h-1212zM975 1356q0 20 -4 49l-74 68v53l219 84h68v-297l-248 -322l-68 53q107 164 107 312z" />
    <glyph glyph-name="lcaron" unicode="&#x13e;" horiz-adv-x="747" 
d="M78 -2v53l182 142v1288l-182 129v53l340 125h67v-1643l185 -75l-37 -72h-555zM752 1534q0 20 -4 49l-74 68v53l219 84h68v-297l-248 -322l-68 54q107 164 107 311z" />
    <glyph glyph-name="Ldot" unicode="&#x13f;" horiz-adv-x="1601" 
d="M129 0v53l193 152v1257l-211 76l34 72h603v-54l-195 -151v-1325h543l297 442l51 -16v-543l-103 37h-1212zM1411 1070q0 -54 -25.5 -94t-65.5 -63.5t-86 -23.5t-83 43t-37 97t25.5 94t65.5 63.5t87 23.5t83 -43t36 -97z" />
    <glyph glyph-name="ldot" unicode="&#x140;" horiz-adv-x="1019" 
d="M78 -2v53l182 142v1288l-182 129v53l340 125h67v-1643l185 -75l-37 -72h-555zM1022 867.5q0 -54.5 -25.5 -94.5t-65.5 -63.5t-86 -23.5t-83 43t-37 97.5t25.5 94.5t65.5 63.5t87 23.5t83 -43t36 -97.5z" />
    <glyph glyph-name="Lslash" unicode="&#x141;" horiz-adv-x="1605" 
d="M129 -4v53l193 152v372l-322 -254v117l322 254v770l-211 76l34 72h603v-54l-195 -151v-619l586 463v-117l-586 -462v-588h543l297 442l51 -16v-547l-103 37h-1212z" />
    <glyph glyph-name="lslash" unicode="&#x142;" horiz-adv-x="724" 
d="M78 -2v53l182 142v655l-297 -313v106l297 326v514l-182 129v53l340 125h67v-698l277 307v-127l-277 -305v-822l185 -73l-37 -72h-555z" />
    <glyph glyph-name="Nacute" unicode="&#x143;" horiz-adv-x="1779" 
d="M1495 0h-98l-977 1257v-1077l201 -108l-37 -72h-455v53l193 150v1222l-211 113l34 72h299l953 -1227v1047l-199 108l37 72h455v-54l-195 -149v-1407zM1286 2275l-434 -362l-76 39l219 401l254 -39z" />
    <glyph glyph-name="nacute" unicode="&#x144;" horiz-adv-x="1462" 
d="M997 -2v698q0 117 -36.5 162t-119 45t-150.5 -25.5t-165 -103.5v-631l185 -73l-37 -72h-555v53l182 142v602l-182 104v53l334 172l65 -272l299 238q43 16 109 16q137 0 217 -85t80 -230v-646l184 -75l-37 -72h-373zM1110 1749l-434 -363l-76 39l219 402l254 -39z" />
    <glyph glyph-name="Ncommaaccent" unicode="&#x145;" horiz-adv-x="1779" 
d="M1495 0h-98l-977 1257v-1077l201 -108l-37 -72h-455v53l193 150v1222l-211 113l34 72h299l953 -1227v1047l-199 108l37 72h455v-54l-195 -149v-1407zM1128 -170v-53l-260 -400h-65l51 263l-154 118l35 72h393z" />
    <glyph glyph-name="ncommaaccent" unicode="&#x146;" horiz-adv-x="1462" 
d="M997 -2v698q0 117 -36.5 162t-119 45t-150.5 -25.5t-165 -103.5v-631l185 -73l-37 -72h-555v53l182 142v602l-182 104v53l334 172l65 -272l299 238q43 16 109 16q137 0 217 -85t80 -230v-646l184 -75l-37 -72h-373zM1034 -170v-53l-260 -400h-65l51 263l-154 118l35 72
h393z" />
    <glyph glyph-name="Ncaron" unicode="&#x147;" horiz-adv-x="1779" 
d="M1495 0h-98l-977 1257v-1077l201 -108l-37 -72h-455v53l193 150v1222l-211 113l34 72h299l953 -1227v1047l-199 108l37 72h455v-54l-195 -149v-1407zM893 1901l-451 374l37 39l232 39l256 -278l313 258l57 -70z" />
    <glyph glyph-name="ncaron" unicode="&#x148;" horiz-adv-x="1462" 
d="M997 -2v698q0 117 -36.5 162t-119 45t-150.5 -25.5t-165 -103.5v-631l185 -73l-37 -72h-555v53l182 142v602l-182 104v53l334 172l65 -272l299 238q43 16 109 16q137 0 217 -85t80 -230v-646l184 -75l-37 -72h-373zM717 1374l-451 375l37 39l232 39l256 -279l313 258
l57 -69z" />
    <glyph glyph-name="Eng" unicode="&#x14a;" horiz-adv-x="1779" 
d="M1495 203q0 -188 18 -244l-378 -500l-68 54q220 283 253 415q17 68 15 150l-915 1179v-1077l201 -108l-37 -72h-455v53l193 150v1222l-211 113l34 72h299l953 -1227v1047l-199 108l37 72h455v-54l-195 -149v-1204z" />
    <glyph glyph-name="eng" unicode="&#x14b;" horiz-adv-x="1464" 
d="M1223 201q0 -188 18 -244l-383 -500l-67 54q123 145 164.5 247.5t41.5 253.5v684q0 117 -36.5 162t-119 45t-150.5 -25.5t-165 -103.5v-631l185 -73l-37 -72h-555v53l182 142v602l-182 104v53l334 172l65 -272l299 238q43 16 109 16q137 0 217 -85t80 -230v-590z" />
    <glyph glyph-name="Omacron" unicode="&#x14c;" horiz-adv-x="1890" 
d="M399 852.5q0 -191.5 64.5 -361t198 -271t329.5 -101.5q139 0 254 81t180.5 223t65.5 334.5t-64.5 361.5t-197.5 270.5t-330 101.5q-139 0 -254 -81t-180.5 -223.5t-65.5 -334zM1741 836.5q0 -236.5 -137.5 -439t-341 -320.5t-403.5 -118t-363.5 104.5t-254.5 288t-91 420
t137 440t340.5 321.5t403.5 118t365 -104.5t255 -289t90 -421zM487 2148h918v-71h-918v71z" />
    <glyph glyph-name="omacron" unicode="&#x14d;" horiz-adv-x="1363" 
d="M393 604q0 -199 86 -332t250 -133q242 0 242 342q0 199 -86 332t-248 133q-244 0 -244 -342zM1217 571.5q0 -151.5 -94.5 -290t-237 -220t-274.5 -81.5t-237.5 69.5t-164.5 190t-59 272.5t94 291t236.5 221t275.5 82t237.5 -70.5t164 -191.5t59.5 -272.5zM266 1622h836
v-84h-836v84z" />
    <glyph glyph-name="Ohungarumlaut" unicode="&#x150;" horiz-adv-x="1890" 
d="M399 852.5q0 -191.5 64.5 -361t198 -271t329.5 -101.5q139 0 254 81t180.5 223t65.5 334.5t-64.5 361.5t-197.5 270.5t-330 101.5q-139 0 -254 -81t-180.5 -223.5t-65.5 -334zM1741 836.5q0 -236.5 -137.5 -439t-341 -320.5t-403.5 -118t-363.5 104.5t-254.5 288t-91 420
t137 440t340.5 321.5t403.5 118t365 -104.5t255 -289t90 -421zM1159 1876l-37 84l189 444l274 -94l-2 -51zM532 1876l-36 84l186 444l276 -94l-4 -51z" />
    <glyph glyph-name="ohungarumlaut" unicode="&#x151;" horiz-adv-x="1363" 
d="M393 604q0 -199 86 -332t250 -133q242 0 242 342q0 199 -86 332t-248 133q-244 0 -244 -342zM1217 571.5q0 -151.5 -94.5 -290t-237 -220t-274.5 -81.5t-237.5 69.5t-164.5 190t-59 272.5t94 291t236.5 221t275.5 82t237.5 -70.5t164 -191.5t59.5 -272.5zM1239 1749
l-354 -363l-74 39l152 402l239 -39zM743 1749l-352 -363l-74 39l150 402l242 -39z" />
    <glyph glyph-name="OE" unicode="&#x152;" horiz-adv-x="2539" 
d="M916 1487q-160 0 -273 -81t-179 -222t-65 -318v-2q1 -211 62 -385t188 -277t316 -104q131 0 243 80v1254q-132 55 -292 55zM1389 0q-193 0 -357 -10t-227 -10q-195 0 -343 101t-231 281q-81 180 -81 410t125 429q127 197 315 313t360 116q94 0 191 -10q160 -10 245 -10
h814l102 37v-461l-51 -15l-242 359h-567v-668h325l146 268h53v-626l-72 -37l-125 315h-327v-702h559l270 401l51 -16v-502l-102 37h-831z" />
    <glyph glyph-name="oe" unicode="&#x153;" horiz-adv-x="1978" 
d="M1133 629h432q-18 123 -34 180q-36 135 -181 135l2 -2q-207 0 -219 -301v-12zM881 504v24q-10 180 -85 297t-206 117q-199 0 -199 -342q0 -197 76 -331t215 -134v2q195 1 201 318q-2 16 -2 49zM700 1104q229 0 351 -205q91 95 203 151t216 56q170 0 264 -152t95 -397
h-694v-18q12 -174 90 -287t209 -113l-2 -4q120 1 329 187l62 -70l-328 -262q-241 -42 -377 40q-90 54 -149 150q-86 -94 -195 -148q-110 -54 -220 -54t-205 69q-95 70 -148 191q-53 120 -53 272t86 291t218 221t248 82z" />
    <glyph glyph-name="Racute" unicode="&#x154;" horiz-adv-x="1640" 
d="M819 850q145 0 229.5 70.5t84.5 195.5q0 166 -92.5 276.5t-270.5 110.5q-119 0 -217 -69v-1291l213 -75l-35 -72h-602v53l193 150v1263l-211 74l34 72h217q186 0 344 10t224 10q133 0 237.5 -55t161.5 -148.5t57 -200.5t-65.5 -201.5t-168.5 -163t-218 -103.5l129 -45
l328 -518l245 -127l-34 -72h-369l-463 731l-96 72l26 53h119zM1165 2275l-434 -362l-76 39l219 401l254 -39z" />
    <glyph glyph-name="racute" unicode="&#x155;" horiz-adv-x="1042" 
d="M745 903q-49 0 -100 -24.5t-119 -98.5v-622l281 -88l-35 -72h-653v53l182 142v602l-182 104v53l334 172l61 -258l217 224q45 16 117 16l-2 -2q57 0 104 -35t76 -96l-125 -156h-67q-15 86 -89 86zM936 1749l-434 -363l-76 39l219 402l254 -39z" />
    <glyph glyph-name="Rcommaaccent" unicode="&#x156;" horiz-adv-x="1640" 
d="M819 850q145 0 229.5 70.5t84.5 195.5q0 166 -92.5 276.5t-270.5 110.5q-119 0 -217 -69v-1291l213 -75l-35 -72h-602v53l193 150v1263l-211 74l34 72h217q186 0 344 10t224 10q133 0 237.5 -55t161.5 -148.5t57 -200.5t-65.5 -201.5t-168.5 -163t-218 -103.5l129 -45
l328 -518l245 -127l-34 -72h-369l-463 731l-96 72l26 53h119zM1135 -170v-53l-261 -400h-65l51 263l-153 118l34 72h394z" />
    <glyph glyph-name="rcommaaccent" unicode="&#x157;" horiz-adv-x="1042" 
d="M745 903q-49 0 -100 -24.5t-119 -98.5v-622l281 -88l-35 -72h-653v53l182 142v602l-182 104v53l334 172l61 -258l217 224q45 16 117 16l-2 -2q57 0 104 -35t76 -96l-125 -156h-67q-15 86 -89 86zM662 -170v-53l-261 -400h-65l51 263l-154 118l35 72h394z" />
    <glyph glyph-name="Rcaron" unicode="&#x158;" horiz-adv-x="1640" 
d="M819 850q145 0 229.5 70.5t84.5 195.5q0 166 -92.5 276.5t-270.5 110.5q-119 0 -217 -69v-1291l213 -75l-35 -72h-602v53l193 150v1263l-211 74l34 72h217q186 0 344 10t224 10q133 0 237.5 -55t161.5 -148.5t57 -200.5t-65.5 -201.5t-168.5 -163t-218 -103.5l129 -45
l328 -518l245 -127l-34 -72h-369l-463 731l-96 72l26 53h119zM772 1901l-450 374l36 39l232 39l256 -278l313 258l58 -70z" />
    <glyph glyph-name="rcaron" unicode="&#x159;" horiz-adv-x="1042" 
d="M745 903q-49 0 -100 -24.5t-119 -98.5v-622l281 -88l-35 -72h-653v53l182 142v602l-182 104v53l334 172l61 -258l217 224q45 16 117 16l-2 -2q57 0 104 -35t76 -96l-125 -156h-67q-15 86 -89 86zM541 1374l-451 375l37 39l231 39l256 -279l314 258l57 -69z" />
    <glyph glyph-name="Sacute" unicode="&#x15a;" horiz-adv-x="1433" 
d="M174 1154q0 99 84 217t206 199t235.5 81t278.5 -31t241 -66v-387h-56q-102 168 -225 259.5t-253 91.5t-201.5 -77t-71.5 -199t185 -232q79 -47 223.5 -120t237.5 -129t157.5 -133t64.5 -175t-90 -216t-220 -199t-249 -81t-299 30.5t-258 65.5v387h55q109 -168 245 -259
t279 -91q90 0 159 39t105.5 103.5t36.5 132t-51 124t-126.5 100.5t-222.5 118.5t-242 132t-161.5 136.5t-66.5 178zM1094 2275l-435 -362l-75 39l219 401l254 -39z" />
    <glyph glyph-name="sacute" unicode="&#x15b;" horiz-adv-x="1144" 
d="M197 740.5q0 83.5 60 167t147.5 141t170 57.5t203.5 -23.5t176 -52.5v-311h-67q-70 131 -157 204.5t-168 73.5t-122 -36.5t-41 -97.5t66.5 -111t189.5 -112t187 -100q152 -91 151 -204q0 -76 -63.5 -159t-153.5 -140t-177 -57t-222 24.5t-193 50.5v307h68
q72 -131 173 -202.5t188.5 -71.5t132.5 37t45 93t-64.5 104.5t-213.5 124t-232.5 143t-83.5 151zM991 1749l-434 -363l-76 39l219 402l254 -39z" />
    <glyph glyph-name="Scedilla" unicode="&#x15e;" horiz-adv-x="1433" 
d="M905 -336q0 -96 -93 -146t-290 -61v54q201 66 201 190q0 45 -30.5 83t-104.5 81l112 92q-135 4 -299.5 33.5t-236.5 62.5v387h55q109 -168 245 -259t279 -91q90 0 159 39t105.5 103.5t36.5 132t-51 124t-126.5 100.5t-222.5 118.5t-242 132t-161.5 136.5t-66.5 178
t84 217t206 199t235.5 81t278.5 -31t241 -66v-387h-56q-102 168 -225 259.5t-253 91.5t-201.5 -77t-71.5 -199t185 -232q79 -47 223.5 -120t237.5 -129t157.5 -133t64.5 -171v-4q0 -91 -71.5 -195t-181 -185t-214.5 -108l-76 -59q96 -80 132 -131t36 -111z" />
    <glyph glyph-name="scedilla" unicode="&#x15f;" horiz-adv-x="1144" 
d="M776 -332q0 -96 -93 -146t-290 -61v54q201 66 201 190q0 45 -31 83t-104 81l139 113q-100 2 -229 24.5t-185 48.5v307h68q72 -131 173 -202.5t188.5 -71.5t132.5 37t45 93t-64.5 104.5t-213.5 124t-232.5 143t-83.5 151t60 167t147.5 141t170 57.5t203.5 -23.5t176 -52.5
v-311h-67q-70 131 -157 204.5t-168 73.5t-122 -36.5t-41 -97.5t66.5 -111t189.5 -112t187 -100q152 -91 151 -204l2 4q0 -82 -73.5 -173t-171.5 -142q-80 -63 -142 -115q96 -80 132 -131t36 -111z" />
    <glyph glyph-name="Scaron" unicode="&#x160;" horiz-adv-x="1433" 
d="M174 1154q0 99 84 217t206 199t235.5 81t278.5 -31t241 -66v-387h-56q-102 168 -225 259.5t-253 91.5t-201.5 -77t-71.5 -199t185 -232q79 -47 223.5 -120t237.5 -129t157.5 -133t64.5 -175t-90 -216t-220 -199t-249 -81t-299 30.5t-258 65.5v387h55q109 -168 245 -259
t279 -91q90 0 159 39t105.5 103.5t36.5 132t-51 124t-126.5 100.5t-222.5 118.5t-242 132t-161.5 136.5t-66.5 178zM700 1901l-450 374l37 39l231 39l256 -278l313 258l58 -70z" />
    <glyph glyph-name="scaron" unicode="&#x161;" horiz-adv-x="1144" 
d="M197 740.5q0 83.5 60 167t147.5 141t170 57.5t203.5 -23.5t176 -52.5v-311h-67q-70 131 -157 204.5t-168 73.5t-122 -36.5t-41 -97.5t66.5 -111t189.5 -112t187 -100q152 -91 151 -204q0 -76 -63.5 -159t-153.5 -140t-177 -57t-222 24.5t-193 50.5v307h68
q72 -131 173 -202.5t188.5 -71.5t132.5 37t45 93t-64.5 104.5t-213.5 124t-232.5 143t-83.5 151zM598 1374l-451 375l37 39l232 39l256 -279l313 258l57 -69z" />
    <glyph glyph-name="uni0162" unicode="&#x162;" horiz-adv-x="1699" 
d="M961 1530v-1383l213 -75l-37 -72h-146l-117 -92q96 -80 132 -131t36 -111q0 -96 -93 -146t-290 -61v54q201 66 201 190q0 45 -30.5 83t-104.5 81l166 133h-354v53l192 152v1325h-254l-270 -400l-51 15v502l102 -37h1188l100 37v-502l-51 -15l-270 400h-262z" />
    <glyph glyph-name="uni0163" unicode="&#x163;" horiz-adv-x="919" 
d="M741 -334q0 -96 -93 -146t-290 -61v54q201 66 201 190q0 45 -30.5 83t-104.5 81l139 113q-158 2 -231.5 91t-73.5 273v606h-221v78l379 449h67v-453h369v-74h-369v-639q0 -170 160 -170q43 0 83 18.5t99 69.5l62 -69l-105 -84l4 -2q-137 -105 -213 -166q96 -80 132 -131
t36 -111z" />
    <glyph glyph-name="Tcaron" unicode="&#x164;" horiz-adv-x="1699" 
d="M963 1530v-1383l213 -75l-37 -72h-602v53l192 152v1325h-254l-270 -400l-51 15v502l102 -37h1188l102 37v-502l-51 -15l-270 400h-262zM854 1901l-451 374l37 39l232 39l256 -278l313 258l57 -70z" />
    <glyph glyph-name="tcaron" unicode="&#x165;" horiz-adv-x="919" 
d="M575 -20q-166 0 -241.5 89t-75.5 275v606h-221v78l379 449h67v-453h369v-74h-369v-639q0 -170 160 -170q43 0 83 18.5t99 69.5l62 -69l-207 -164q-43 -16 -105 -16zM752 1534q0 20 -4 49l-74 68v53l219 84h68v-297l-248 -322l-68 54q107 164 107 311z" />
    <glyph glyph-name="Tbar" unicode="&#x166;" horiz-adv-x="1699" 
d="M963 1530v-688h389v-80h-389v-615l213 -75l-37 -72h-602v53l192 152v557h-381v80h381v688h-254l-270 -400l-51 15v502l102 -37h1188l102 37v-502l-51 -15l-270 400h-262z" />
    <glyph glyph-name="tbar" unicode="&#x167;" horiz-adv-x="919" 
d="M575 -20q-166 0 -241.5 89t-75.5 275v606h-221v78l379 449h67v-453h369v-74h-369v-639q0 -170 160 -170q43 0 83 18.5t99 69.5l62 -69l-207 -164q-43 -16 -105 -16z" />
    <glyph glyph-name="Umacron" unicode="&#x16a;" horiz-adv-x="1839" 
d="M1579 635q0 -215 -102.5 -368.5t-254 -230.5t-313 -77t-303 81t-221.5 223.5t-80 320.5v878l-211 76l37 72h602v-54l-194 -151v-717q0 -270 131 -419.5t397 -149.5q98 0 193.5 64.5t157 189.5t61.5 295v759l-209 111l37 72h467v-54l-195 -151v-770zM487 2148h918v-71
h-918v71z" />
    <glyph glyph-name="umacron" unicode="&#x16b;" horiz-adv-x="1423" 
d="M934 0v221l-266 -225q-43 -16 -111 -16q-137 0 -216 85t-79 230v500l-182 106v53l340 172h67v-739q0 -117 36 -162t115 -45t143.5 25.5t152.5 101.5v488l-182 106v53l340 172h67v-981l184 -73l-34 -72h-375zM305 1622h836v-84h-836v84z" />
    <glyph glyph-name="Uring" unicode="&#x16e;" horiz-adv-x="1839" 
d="M1579 635q0 -215 -102.5 -368.5t-254 -230.5t-313 -77t-303 81t-221.5 223.5t-80 320.5v878l-211 76l37 72h602v-54l-194 -151v-717q0 -270 131 -419.5t397 -149.5q98 0 193.5 64.5t157 189.5t61.5 295v759l-209 111l37 72h467v-54l-195 -151v-770zM999.5 1948
q106.5 0 106.5 88q0 94 -54.5 154.5t-160 60.5t-105.5 -88q0 -94 53.5 -154.5t160 -60.5zM1233 2140q0 -76 -55.5 -138.5t-139.5 -100t-170 -37.5t-148.5 58t-62.5 134t55.5 138.5t139.5 100.5t171 38t148.5 -58.5t61.5 -134.5z" />
    <glyph glyph-name="uring" unicode="&#x16f;" horiz-adv-x="1423" 
d="M934 0v221l-266 -225q-43 -16 -111 -16q-137 0 -216 85t-79 230v500l-182 106v53l340 172h67v-739q0 -117 36 -162t115 -45t143.5 25.5t152.5 101.5v488l-182 106v53l340 172h67v-981l184 -73l-34 -72h-375zM776.5 1421q106.5 0 106.5 88q0 94 -54.5 154.5t-160 60.5
t-105.5 -88q0 -94 53.5 -154.5t160 -60.5zM1010 1614q0 -76 -55.5 -138.5t-139.5 -100.5t-170 -38t-148.5 58.5t-62.5 134.5t55.5 138.5t139.5 100t171 37.5t148.5 -58t61.5 -134z" />
    <glyph glyph-name="Uhungarumlaut" unicode="&#x170;" horiz-adv-x="1839" 
d="M1579 635q0 -215 -102.5 -368.5t-254 -230.5t-313 -77t-303 81t-221.5 223.5t-80 320.5v878l-211 76l37 72h602v-54l-194 -151v-717q0 -270 131 -419.5t397 -149.5q98 0 193.5 64.5t157 189.5t61.5 295v759l-209 111l37 72h467v-54l-195 -151v-770zM1159 1876l-37 84
l189 444l274 -94l-2 -51zM532 1876l-36 84l186 444l276 -94l-4 -51z" />
    <glyph glyph-name="uhungarumlaut" unicode="&#x171;" horiz-adv-x="1423" 
d="M934 0v221l-266 -225q-43 -16 -111 -16q-137 0 -216 85t-79 230v500l-182 106v53l340 172h67v-739q0 -117 36 -162t115 -45t143.5 25.5t152.5 101.5v488l-182 106v53l340 172h67v-981l184 -73l-34 -72h-375zM1278 1749l-354 -363l-74 39l151 402l240 -39zM782 1749
l-352 -363l-74 39l150 402l242 -39z" />
    <glyph glyph-name="Uogonek" unicode="&#x172;" horiz-adv-x="1839" 
d="M1122 -223q0 -90 109 -113v-67l-172 -138q-74 29 -117 80t-43 118t16 112l220 227q-106 -37 -207 -37q-180 0 -321.5 81t-221.5 223.5t-80 320.5v878l-211 76l37 72h602v-54l-194 -151v-717q0 -270 131 -419.5t397 -149.5q98 0 193.5 64.5t157 189.5t61.5 295v759
l-209 111l37 72h467l2 -54l-195 -151v-770q0 -311 -217 -502q-154 -162 -198 -234.5t-44 -121.5z" />
    <glyph glyph-name="uogonek" unicode="&#x173;" horiz-adv-x="1423" 
d="M885 -313q0 45 16 82l293 231h-260v221l-266 -225q-43 -16 -111 -16q-137 0 -216 85t-79 230v500l-182 106v53l340 172h67v-739q0 -117 36 -162t115 -45t143.5 25.5t152.5 101.5v488l-182 106v53l340 172h67v-981l184 -73l-34 -72q-100 -84 -143.5 -141.5t-43.5 -104.5
q0 -75 95 -90v-67l-173 -138q-159 68 -159 228z" />
    <glyph glyph-name="Wcircumflex" unicode="&#x174;" horiz-adv-x="2412" 
d="M580 1608v-54l-150 -114l430 -1223l318 877l-109 325l-190 119l34 72h580v-54l-176 -145l383 -1188l434 1198l-373 117l37 72h615v-56l-175 -137l-497 -1354l-185 -104l-333 995l-320 -891l-184 -104l-522 1454l-195 123l37 72h541zM1671 1919l-231 -39l-256 279
l-314 -258l-57 69l444 363l451 -375z" />
    <glyph glyph-name="wcircumflex" unicode="&#x175;" horiz-adv-x="1818" 
d="M1741 1085v-53l-453 -1032h-135l-221 537l-268 -537h-136l-325 791l-187 108v53l330 172l78 -309l254 -622l209 454l-60 144l-186 108v53l330 172l78 -309l247 -606l252 598l-282 207l37 71h438zM1321 1393l-231 -39l-256 278l-314 -258l-57 70l444 362l451 -374z" />
    <glyph glyph-name="Ycircumflex" unicode="&#x176;" horiz-adv-x="1626" 
d="M494 0v53l192 152v385l-520 844l-166 104l41 72h608v-54l-196 -151l417 -686l439 694l-332 125l35 72h614v-54l-162 -94l-542 -860v-455l213 -75l-37 -72h-604zM1223 1919l-232 -39l-256 279l-313 -258l-57 69l444 363l451 -375z" />
    <glyph glyph-name="ycircumflex" unicode="&#x177;" horiz-adv-x="1257" 
d="M1174 1034l-517 -1032l-415 -541l-68 54q119 125 180.5 219t86 190t22.5 230l-262 637l-187 108v53l330 172l78 -309l254 -625l299 625l-268 199l34 71l433 2v-53zM1016 1393l-232 -39l-256 278l-313 -258l-57 70l444 362l451 -374z" />
    <glyph glyph-name="Ydieresis" unicode="&#x178;" horiz-adv-x="1626" 
d="M494 0v53l192 152v385l-520 844l-166 104l41 72h608v-54l-196 -151l417 -686l439 694l-332 125l35 72h614v-54l-162 -94l-542 -860v-455l213 -75l-37 -72h-604zM987 2081q0 51 23.5 89t59.5 60.5t78 22.5t74.5 -41t32.5 -93.5t-23.5 -89t-59 -59t-77.5 -22.5t-75 41
t-33 92zM369 2081q0 51 23.5 89t59 60.5t77.5 22.5t75 -41t33 -93.5t-23.5 -89t-59.5 -59t-78 -22.5t-74.5 41t-32.5 92z" />
    <glyph glyph-name="Zacute" unicode="&#x179;" horiz-adv-x="1617" 
d="M152 0v80l1032 1450h-658l-260 -379l-51 14v482l102 -37h1139v-80l-1030 -1450h672l286 422l52 -17v-522l-103 37h-1181zM1206 2275l-434 -362l-76 39l219 401l254 -39z" />
    <glyph glyph-name="zacute" unicode="&#x17a;" horiz-adv-x="1236" 
d="M145 0v68l699 792h-537l-82 -145l-51 18v389l102 -37h816v-67l-693 -793h525l88 166l51 -18v-410l-102 37h-816zM1026 1749l-434 -363l-76 39l219 402l254 -39z" />
    <glyph glyph-name="Zdotaccent" unicode="&#x17b;" horiz-adv-x="1617" 
d="M152 0v80l1032 1450h-658l-260 -379l-51 14v482l102 -37h1139v-80l-1030 -1450h672l286 422l52 -17v-522l-103 37h-1181zM956 2123q0 -54 -25.5 -94t-65.5 -63.5t-86 -23.5t-83 44t-37 98t26 93t66 62.5t87 23.5t82.5 -43t35.5 -97z" />
    <glyph glyph-name="zdotaccent" unicode="&#x17c;" horiz-adv-x="1236" 
d="M145 0v68l699 792h-537l-82 -145l-51 18v389l102 -37h816v-67l-693 -793h525l88 166l51 -18v-410l-102 37h-816zM778 1596.5q0 -54.5 -25.5 -94.5t-65.5 -63.5t-86 -23.5t-83 44t-37 98.5t25.5 93.5t65.5 62.5t87.5 23.5t83 -43t35.5 -97.5z" />
    <glyph glyph-name="Zcaron" unicode="&#x17d;" horiz-adv-x="1617" 
d="M152 0v80l1032 1450h-658l-260 -379l-51 14v482l102 -37h1139v-80l-1030 -1450h672l286 422l52 -17v-522l-103 37h-1181zM813 1901l-451 374l37 39l232 39l256 -278l313 258l57 -70z" />
    <glyph glyph-name="zcaron" unicode="&#x17e;" horiz-adv-x="1236" 
d="M145 0v68l699 792h-537l-82 -145l-51 18v389l102 -37h816v-67l-693 -793h525l88 166l51 -18v-410l-102 37h-816zM633 1374l-451 375l37 39l232 39l256 -279l313 258l57 -69z" />
    <glyph glyph-name="longs" unicode="&#x17f;" horiz-adv-x="878" 
d="M1065 1475h-68q-51 80 -125 127t-149 47q-197 0 -197 -346v-1143l281 -88l-35 -72h-653v53l182 142v755h-250v74h250v186q0 158 84 296t212 220t249 82q53 0 122 -9t97 -19v-305z" />
    <glyph glyph-name="florin" unicode="&#x192;" horiz-adv-x="1257" 
d="M563 203q0 -193 19 -244l-383 -500l-68 54q123 145 165 247t42 254v709h-315l38 74h277v256q0 158 84 296t212 220t249 82q53 1 122 -9t99 -20v-305h-68q-51 80 -125 127t-149 47q-199 0 -199 -346v-348h551l-37 -74h-514v-520z" />
    <glyph glyph-name="Scommaaccent" unicode="&#x218;" horiz-adv-x="1433" 
d="M174 1154q0 99 84 217t206 199t235.5 81t278.5 -31t241 -66v-387h-56q-102 168 -225 259.5t-253 91.5t-201.5 -77t-71.5 -199t185 -232q79 -47 223.5 -120t237.5 -129t157.5 -133t64.5 -175t-90 -216t-220 -199t-249 -81t-299 30.5t-258 65.5v387h55q109 -168 245 -259
t279 -91q90 0 159 39t105.5 103.5t36.5 132t-51 124t-126.5 100.5t-222.5 118.5t-242 132t-161.5 136.5t-66.5 178zM930 -170v-53l-260 -400h-66l51 263l-153 118l35 72h393z" />
    <glyph glyph-name="scommaaccent" unicode="&#x219;" horiz-adv-x="1144" 
d="M197 740.5q0 83.5 60 167t147.5 141t170 57.5t203.5 -23.5t176 -52.5v-311h-67q-70 131 -157 204.5t-168 73.5t-122 -36.5t-41 -97.5t66.5 -111t189.5 -112t187 -100q152 -91 151 -204q0 -76 -63.5 -159t-153.5 -140t-177 -57t-222 24.5t-193 50.5v307h68
q72 -131 173 -202.5t188.5 -71.5t132.5 37t45 93t-64.5 104.5t-213.5 124t-232.5 143t-83.5 151zM801 -170v-53l-260 -400h-66l51 263l-153 118l35 72h393z" />
    <glyph glyph-name="uni021A" unicode="&#x21a;" horiz-adv-x="1699" 
d="M963 1530v-1383l213 -75l-37 -72h-602v53l192 152v1325h-254l-270 -400l-51 15v502l102 -37h1188l102 37v-502l-51 -15l-270 400h-262zM1069 -170v-53l-260 -400h-66l52 263l-154 118l35 72h393z" />
    <glyph glyph-name="uni021B" unicode="&#x21b;" horiz-adv-x="919" 
d="M575 -20q-166 0 -241.5 89t-75.5 275v606h-221v78l379 449h67v-453h369v-74h-369v-639q0 -170 160 -170q43 0 83 18.5t99 69.5l62 -69l-207 -164q-43 -16 -105 -16zM766 -170v-53l-260 -400h-66l52 263l-154 118l35 72h393z" />
    <glyph glyph-name="dotlessj" unicode="&#x237;" horiz-adv-x="774" 
d="M530 203q0 -185 19 -244l-383 -500l-68 54q123 145 165 247.5t42 253.5v799l-182 127v53l340 131h67v-921z" />
    <glyph glyph-name="uni02BC" unicode="&#x2bc;" horiz-adv-x="1126" 
d="M446 1051h-67l-158 79l264 523h68l158 -80z" />
    <glyph glyph-name="circumflex" unicode="&#x2c6;" horiz-adv-x="1163" 
d="M991 1393l-231 -39l-256 278l-314 -258l-57 70l445 362l450 -374z" />
    <glyph glyph-name="caron" unicode="&#x2c7;" horiz-adv-x="1163" 
d="M586 1374l-451 375l37 39l231 39l256 -279l314 258l57 -69z" />
    <glyph glyph-name="breve" unicode="&#x2d8;" horiz-adv-x="1001" 
d="M479 1446q-105 0 -213 46t-157 148l178 144q57 -132 119 -184t132 -52t112 36t40 85l217 115q5 -68 -60 -148t-164 -135t-204 -55z" />
    <glyph glyph-name="dotaccent" unicode="&#x2d9;" horiz-adv-x="698" 
d="M498 1596q0 -104 -91 -157q-40 -24 -86 -24t-83 44q-37 45 -37 99q0 103 91 155q40 24 87 24t83 -43q36 -44 36 -98z" />
    <glyph glyph-name="ring" unicode="&#x2da;" horiz-adv-x="841" 
d="M262 1636q0 -94 53 -154t152 -61q55 0 85 23t30 65q0 95 -54 155t-160 60t-106 -88zM344 1337q-86 1 -148 59t-62 134t54 138q56 62 140 100t171 38t148 -58t61 -134t-54 -138q-56 -62 -140 -100t-170 -39z" />
    <glyph glyph-name="ogonek" unicode="&#x2db;" horiz-adv-x="651" 
d="M119 -313q0 45 16 82l361 284l47 -53q-101 -84 -144 -141t-43 -105q0 -74 95 -90v-67l-172 -138q-160 68 -160 228z" />
    <glyph glyph-name="tilde" unicode="&#x2dc;" horiz-adv-x="1116" 
d="M727 1651q74 0 133 45l64 51l57 -70l-305 -252q-143 147 -283 148q-78 0 -141 -49l-59 -45l-58 69l307 252q148 -149 285 -149z" />
    <glyph glyph-name="hungarumlaut" unicode="&#x2dd;" horiz-adv-x="1208" 
d="M1057 1749l-355 -363l-73 39l151 402l240 -39zM561 1749l-352 -363l-74 39l150 402l241 -39z" />
    <glyph glyph-name="uni0326" unicode="&#x326;" horiz-adv-x="0" 
d="M-188 -170v-53l-261 -400h-65l51 263l-153 118l34 72h394z" />
    <glyph glyph-name="Delta" unicode="&#x394;" horiz-adv-x="1773" 
d="M827 1417l-585 -1337h1142zM1622 0h-1493v53l657 1491l185 105l651 -1571v-78z" />
    <glyph glyph-name="Omega" unicode="&#x3a9;" horiz-adv-x="1888" 
d="M1014 -2v520q134 4 242 60t170 152q62 94 62 230t-64 260q-66 124 -198 196t-300 73q-323 0 -461 -208q-66 -97 -66 -216q0 -207 120 -359t353 -188v-520h-579l-103 -37v375l52 14l276 -272h158v295q-154 31 -274 115t-186 207q-67 124 -66 272q0 184 137 341
q137 156 341 248t402 92t364 -79q165 -80 255 -218t90 -292t-74 -275t-195 -212t-258 -144v-348h156l279 270l51 -14v-375l-103 37h-581z" />
    <glyph glyph-name="mu" unicode="&#x3bc;" horiz-adv-x="1423" 
d="M948 -20v241l-268 -225q-42 -16 -94 -16t-86 6v-115q-2 -53 32 -122t86 -128l-276 -141h-68v1255q2 53 -31 122q-34 69 -87 128l276 141h68v-739q0 -117 37 -162t116 -45t143 26t152 101v428q0 55 -33 123t-86 127l277 141h68v-755q-1 -55 32 -123t86 -127l-276 -141h-68
z" />
    <glyph glyph-name="pi" unicode="&#x3c0;" horiz-adv-x="1609" 
d="M1198 348q0 -53 33 -121t86 -129l-236 -118h-67v878h-344v-858h-303v53q53 59 86 127t32 123v555h-112q-131 0 -318 -80l-55 58l315 249h1164v-227h-281v-510z" />
    <glyph glyph-name="uni0900" unicode="&#x900;" horiz-adv-x="0" 
d="M-319 2322q0 181 -302 181q-178 0 -289.5 -92.5t-136.5 -258.5l-79 -65l-164 162q16 117 92 212t196.5 150t273.5 55t306.5 -61t249.5 -159.5t96 -191.5t-16 -171l-62 -68l-182 172q17 82 17 135zM-762 2253h68l157 -80v-272h-67l-158 79v273z" />
    <glyph glyph-name="candraBindudeva" unicode="&#x901;" horiz-adv-x="0" 
d="M-985 2255q0 -180 301 -180q178 0 289.5 92t136.5 258l80 65l164 -161q-16 -117 -92 -212.5t-197 -150.5t-273.5 -55t-306 61.5t-250 159.5t-96.5 191.5t17 170.5l61 68l182 -172q-16 -82 -16 -135zM-545 2324h-67l-158 80v273h68l157 -80v-273z" />
    <glyph glyph-name="anusvaradeva" unicode="&#x902;" horiz-adv-x="0" 
d="M-152 1954h-67l-158 80v272h68l157 -80v-272z" />
    <glyph glyph-name="visargadeva" unicode="&#x903;" horiz-adv-x="528" 
d="M377 193h-68l-157 79v273h67l158 -80v-272zM377 788h-68l-157 80v273h67l158 -80v-273zM512 1423h-653l-117 119v68h653l117 -119v-68z" />
    <glyph glyph-name="uni0904" unicode="&#x904;" horiz-adv-x="2048" 
d="M860 1333q0 129 -116 129q-60 0 -158.5 -50t-200.5 -136l-117 121v67q194 166 353 166q98 0 206.5 -65.5t182 -163.5t73.5 -184.5t-55 -167t-149 -131.5q55 -37 98 -74q150 -107 264.5 -107t210.5 61.5t225 213.5v411h-372l-117 119v68h491l-338 295q-149 133 -356 133
q-79 0 -223 -25q-288 -64 -474 19q-100 45 -251 176l-330 280l60 72l303 -258q147 -131 354 -131q93 0 220.5 25.5t252.5 25.5t226.5 -46t250.5 -177l449 -389h284l117 -119l-2 -68h-321v-1443h-68l-217 206l59 68v436q-129 -104 -299 -104q-123 0 -239 55q10 -27 10 -49
q2 -74 -52.5 -146.5t-142.5 -118.5t-181 -46t-146 16l-439 412l62 71l110 -102q207 -188 357 -189q96 4 155.5 53.5t59.5 127.5q0 120 -307 317v68q237 103 237 278z" />
    <glyph glyph-name="adeva" unicode="&#x905;" horiz-adv-x="2048" 
d="M860 1333q0 129 -116 129q-60 0 -158.5 -50t-200.5 -136l-117 121v67q194 166 353 166q98 0 206.5 -65.5t182 -163.5t73.5 -184.5t-55 -167t-149 -131.5q55 -37 98 -74q150 -107 264.5 -107t210.5 61.5t225 213.5v411h-372l-117 119v68h919l117 -119l-2 -68h-321v-1443
h-68l-217 206l59 68v436q-129 -104 -299 -104q-123 0 -239 55q10 -27 10 -49q2 -74 -52.5 -146.5t-142.5 -118.5t-181 -46t-146 16l-439 412l62 71l110 -102q207 -188 357 -189q96 4 155.5 53.5t59.5 127.5q0 120 -307 317v68q237 103 237 278z" />
    <glyph glyph-name="aadeva" unicode="&#x906;" horiz-adv-x="2713" 
d="M860 1333q0 129 -116 129q-60 0 -158.5 -50t-200.5 -136l-117 121v67q194 166 353 166q98 0 206.5 -65.5t182 -163.5t73.5 -184.5t-55 -167t-149 -131.5q55 -37 98 -74q150 -107 264.5 -107t210.5 61.5t225 213.5v411h-372l-117 119v68h1583l117 -119l-2 -68h-322v-1443
h-67l-218 206l60 68v1169h-438v-1443h-68l-217 206l59 68v436q-129 -104 -299 -104q-123 0 -239 55q10 -27 10 -49q2 -74 -52.5 -146.5t-142.5 -118.5t-181 -46t-146 16l-439 412l62 71l110 -102q207 -188 357 -189q96 4 155.5 53.5t59.5 127.5q0 120 -307 317v68
q237 103 237 278z" />
    <glyph glyph-name="ideva" unicode="&#x907;" horiz-adv-x="1431" 
d="M162 471q0 70 26.5 100.5t63.5 30.5q66 0 134.5 -79t145.5 -277q94 -59 213 -59.5t217.5 41.5t162 106.5t63.5 119t-43 96.5t-88 42q-104 0 -266 -90q-90 8 -205 86t-195 181t-80 184t47.5 144.5t128 100.5t175.5 37h329v188h-928l-116 119v68h1675l117 -119v-68h-522
v-374h-433q-108 0 -184 -57.5t-76 -141.5q0 -43 30 -74t112 -74q162 113 259 113t210.5 -72.5t188.5 -181t75 -209.5q0 -76 -96.5 -164t-237.5 -147t-241.5 -59t-184.5 22l225 -215q156 -145 350 -145q98 0 242 28l121 -121v-67q-123 -25 -233 -25q-110 1 -182 19
q-142 36 -322 207l-543 514l2 2q-137 137 -137 270z" />
    <glyph glyph-name="iideva" unicode="&#x908;" horiz-adv-x="1431" 
d="M162 471q0 70 26.5 100.5t63.5 30.5q66 0 134.5 -79t145.5 -277q94 -59 213 -59.5t217.5 41.5t162 106.5t63.5 119t-43 96.5t-88 42q-104 0 -266 -90q-90 8 -205 86t-195 181t-80 184t47.5 144.5t128 100.5t175.5 37h329v188h-928l-116 119v68h1071l-359 311
q-16 82 -16 202.5t60.5 224t169 159t223 55.5t198.5 -14l316 -248l-62 -72q-111 82 -198.5 119t-175.5 37q-129 0 -208 -91t-79 -245q0 -205 160 -342l112 -96h463l117 -119v-68h-522v-374h-433q-108 0 -184 -57.5t-76 -141.5q0 -43 30 -74t112 -74q162 113 259 113
t210.5 -72.5t188.5 -181t75 -209.5q0 -76 -96.5 -164t-237.5 -147t-241.5 -59t-184.5 22l225 -215q156 -145 350 -145q98 0 242 28l121 -121v-67q-123 -25 -233 -25q-110 1 -182 19q-142 36 -322 207l-543 514l2 2q-137 137 -137 270z" />
    <glyph glyph-name="udeva" unicode="&#x909;" horiz-adv-x="1212" 
d="M1004 1133q0 -106 -68 -187.5t-182 -116.5q502 -297 501 -532q0 -72 -66.5 -146.5t-167.5 -122.5t-203.5 -48t-168.5 16l-577 536l59 72l240 -219q223 -199 396 -199q155 0 235 111q36 49 36 106t-53 123q-97 121 -526 363v67q68 12 138.5 58.5t116.5 107t46 109.5
q0 142 -86 192h-682l-117 119v68h1364l117 -119v-68h-496q144 -140 144 -290z" />
    <glyph glyph-name="uudeva" unicode="&#x90a;" horiz-adv-x="2142" 
d="M1006 1135q0 -106 -68 -187.5t-182 -116.5q53 -31 98 -61q39 48 83 106q43 58 103 116q138 136 359 136q119 0 246 -65.5t210.5 -175t83.5 -215t-54 -179t-149.5 -114.5t-213.5 -39l-119 119v67q35 -6 65 -6q109 0 168.5 66.5t59.5 165.5q0 225 -174 225t-308 -127
q-60 -57 -159 -168l-31 -35q231 -188 231 -350q0 -72 -66.5 -146.5t-167.5 -122.5t-203.5 -48t-168.5 16l-577 536l59 72l240 -219q223 -199 396 -199q155 0 235 111q36 49 36 106t-53 123q-97 121 -526 363v67q68 12 138.5 58.5t116.5 107t46 109.5q0 142 -86 192h-682
l-117 119v68h2249l114 -119v-68l-1376 2q144 -138 144 -290z" />
    <glyph glyph-name="rvocalicdeva" unicode="&#x90b;" horiz-adv-x="2476" 
d="M528 1104q84 0 144.5 -25.5t163.5 -113.5l75 -64l109 90v432h-1022l-117 119v68h2605l117 -119v-68h-1360v-460q25 -2 113 -2t196 32q20 88 66.5 159t102 108.5t113 37.5t140 -42t141 -103t58.5 -124t-87 -101.5t-276 -75.5q14 -78 88 -166h7l118 -119v-67q-23 4 -67 4
q-109 0 -167 -64.5t-58 -160.5q0 -222 176 -222q84 0 169 75t156 198l119 -119v-68q-55 -117 -130 -177t-194.5 -60t-246.5 64.5t-210 173t-83 231.5q0 76 43 142.5t119 109.5q-51 63 -78 121q-57 -4 -129 -4.5t-199 32.5v-796h-67l-218 206l60 68v448q-287 -219 -520 -348
l-117 119v68q203 109 455 303l-19 16q-87 76 -155.5 76t-130.5 -24.5t-129.5 -71.5t-202.5 -150l-121 121v68q299 225 450 225z" />
    <glyph glyph-name="lvocalicdeva" unicode="&#x90c;" horiz-adv-x="1857" 
d="M559 1128q168 0 326 -110q45 51 93 78.5t124 29.5v297h-1082l-116 119v68h1933l117 -119v-68h-627v-348q137 -63 231.5 -175t94.5 -224q0 -47 -38 -93t-129 -126t-145.5 -148.5t-54.5 -154.5q0 -170 124 -170t249 241l141 -119v-67q-99 -211 -264 -211
q-115 0 -229.5 63.5t-188.5 159.5t-74 178.5t48.5 145.5t138.5 148t132 139.5t42 124t-46 127t-134 57.5t-145.5 -52.5t-121.5 -146.5l-26 -41l-127 125v37q-31 84 -130 84t-160.5 -73t-61.5 -156t35.5 -145t123.5 -138l174 -150l-61 -69l-500 434q-16 59 -16 140t47 154
t127 113.5t176 40.5z" />
    <glyph glyph-name="ecandradeva" unicode="&#x90d;" horiz-adv-x="1228" 
d="M1184 936q0 -155 -60.5 -261t-171.5 -151l-118 119v70q59 53 80.5 118.5t21.5 196.5t-18 397h-431q-61 -303 -61 -464t47 -283.5t160 -222.5l305 -279q224 -212 272 -446q24 -114 21 -269h-68l-157 80l2 58q0 379 -244 610l-313 287q-107 102 -161 166q-110 129 -110 273
t78 488h-223l-131 119v68h1384l117 -119v-68h-293q72 -332 72 -487zM670 2255q0 -180 301 -180q178 0 289.5 92t136.5 258l80 65l163 -161q-16 -117 -91.5 -212.5t-196.5 -150.5t-274 -55t-306.5 61.5t-249.5 159.5t-96 191.5t16 170.5l62 68l182 -172q-16 -82 -16 -135z
" />
    <glyph glyph-name="eshortdeva" unicode="&#x90e;" horiz-adv-x="1228" 
d="M1184 936q0 -155 -60.5 -261t-171.5 -151l-118 119v70q59 53 80.5 118.5t21.5 196.5t-18 397h-431q-61 -303 -61 -464t47 -283.5t160 -222.5l305 -279q224 -212 272 -446q24 -114 21 -269h-68l-157 80l2 58q0 379 -244 610l-313 287q-107 102 -161 166q-110 129 -110 273
t78 488h-223l-131 119v68h999l-338 295q-149 133 -356 133q-79 0 -223 -25q-288 -64 -474 19q-100 45 -251 176l-330 280l59 72l303 -258q147 -131 355 -131q91 0 223 24q125 27 249.5 27t226.5 -46t251 -177l449 -389h241l117 -119v-68h-293q72 -332 72 -487z" />
    <glyph glyph-name="edeva" unicode="&#x90f;" horiz-adv-x="1228" 
d="M1184 936q0 -155 -60.5 -261t-171.5 -151l-118 119v70q59 53 80.5 118.5t21.5 196.5t-18 397h-431q-61 -303 -61 -464t47 -283.5t160 -222.5l305 -279q224 -212 272 -446q24 -114 21 -269h-68l-157 80l2 58q0 379 -244 610l-313 287q-107 102 -161 166q-110 129 -110 273
t78 488h-223l-131 119v68h1384l117 -119v-68h-293q72 -332 72 -487z" />
    <glyph glyph-name="aideva" unicode="&#x910;" horiz-adv-x="1228" 
d="M1184 936q0 -155 -60.5 -261t-171.5 -151l-118 119v70q59 53 80.5 118.5t21.5 196.5t-18 397h-431q-61 -303 -61 -464t47 -283.5t160 -222.5l305 -279q224 -212 272 -446q24 -114 21 -269h-68l-157 80l2 58q0 379 -244 610l-313 287q-107 102 -161 166q-110 129 -110 273
t78 488h-223l-131 119v68h999l-440 381q-146 131 -354 131q-96 0 -224 -27l-116 121v68q291 60 473 -22q102 -46 254 -177l551 -475h241l117 -119v-68h-293q72 -332 72 -487z" />
    <glyph glyph-name="ocandradeva" unicode="&#x911;" horiz-adv-x="2713" 
d="M860 1333q0 129 -116 129q-60 0 -158.5 -50t-200.5 -136l-117 121v67q194 166 353 166q98 0 206.5 -65.5t182 -163.5t73.5 -184.5t-55 -167t-149 -131.5q55 -37 98 -74q150 -107 264.5 -107t210.5 61.5t225 213.5v411h-372l-117 119v68h1581l117 -119v-68h-322v-1443h-67
l-218 206l60 68v1169h-438v-1443h-68l-217 206l59 68v436q-129 -104 -299 -104q-123 0 -239 55q10 -27 10 -49q2 -74 -52.5 -146.5t-142.5 -118.5t-181 -46t-146 16l-439 412l62 71l110 -102q207 -188 357 -189q96 4 155.5 53.5t59.5 127.5q0 120 -307 317v68
q237 103 237 278zM2410 2075q178 0 290 92t136 258l80 65l164 -161q-16 -117 -92 -212.5t-196.5 -150.5t-273.5 -55t-306.5 61.5t-249.5 159.5t-96 191.5t16 170.5l62 68l182 -172q-16 -82 -17 -135q0 -180 301 -180z" />
    <glyph glyph-name="oshortdeva" unicode="&#x912;" horiz-adv-x="2713" 
d="M860 1333q0 129 -116 129q-60 0 -158.5 -50t-200.5 -136l-117 121v67q194 166 353 166q98 0 206.5 -65.5t182 -163.5t73.5 -184.5t-55 -167t-149 -131.5q55 -37 98 -74q150 -107 264.5 -107t210.5 61.5t225 213.5v411h-372l-117 119v68h1155l-338 295q-149 133 -356 133
q-78 0 -224 -25q-287 -64 -473 19q-100 45 -252 176l-329 280l61 72l301 -258q147 -131 354 -131q92 0 224 24q125 27 249.5 27t226 -46t251.5 -177l448 -389h285l117 -119l-2 -68h-322v-1443h-67l-218 206l60 68v1169h-438v-1443h-68l-217 206l59 68v436
q-129 -104 -299 -104q-123 0 -239 55q10 -27 10 -49q2 -74 -52.5 -146.5t-142.5 -118.5t-181 -46t-146 16l-439 412l62 71l110 -102q207 -188 357 -189q96 4 155.5 53.5t59.5 127.5q0 120 -307 317v68q237 103 237 278z" />
    <glyph glyph-name="odeva" unicode="&#x913;" horiz-adv-x="2713" 
d="M860 1333q0 129 -116 129q-60 0 -158.5 -50t-200.5 -136l-117 121v67q194 166 353 166q98 0 206.5 -65.5t182 -163.5t73.5 -184.5t-55 -167t-149 -131.5q55 -37 98 -74q150 -107 264.5 -107t210.5 61.5t225 213.5v411h-372l-117 119v68h1155l-440 381q-146 131 -355 131
q-92 0 -223 -27l-117 121v68q290 61 474 -22q102 -46 253 -177l551 -475h285l117 -119l-2 -68h-322v-1443h-67l-218 206l60 68v1169h-438v-1443h-68l-217 206l59 68v436q-129 -104 -299 -104q-123 0 -239 55q10 -27 10 -49q2 -74 -52.5 -146.5t-142.5 -118.5t-181 -46
t-146 16l-439 412l62 71l110 -102q207 -188 357 -189q96 4 155.5 53.5t59.5 127.5q0 120 -307 317v68q237 103 237 278z" />
    <glyph glyph-name="audeva" unicode="&#x914;" horiz-adv-x="2713" 
d="M860 1333q0 129 -116 129q-60 0 -158.5 -50t-200.5 -136l-117 121v67q194 166 353 166q98 0 206.5 -65.5t182 -163.5t73.5 -184.5t-55 -167t-149 -131.5q55 -37 98 -74q150 -107 264.5 -107t210.5 61.5t225 213.5v411h-372l-117 119v68h921l-286 248q-151 131 -357 131
q-94 0 -221 -27l-117 119v67q119 25 246 25t228.5 -45t252.5 -176l398 -342h278l-708 614q-146 131 -357 131q-94 0 -221 -26l-117 118v68q121 25 248 25t228.5 -45.5t250.5 -176.5l822 -708h94l117 -119l-2 -68h-322v-1443h-67l-218 206l60 68v1169h-438v-1443h-68
l-217 206l59 68v436q-129 -104 -299 -104q-123 0 -239 55q10 -27 10 -49q2 -74 -52.5 -146.5t-142.5 -118.5t-181 -46t-146 16l-439 412l62 71l110 -102q207 -188 357 -189q96 4 155.5 53.5t59.5 127.5q0 120 -307 317v68q237 103 237 278z" />
    <glyph glyph-name="kadeva" unicode="&#x915;" horiz-adv-x="2113" 
d="M451 717q0 -228 176 -228q113 0 195 96q34 40 79 107l37 53l6 7v671h-924l-116 119v68h2189l117 -119v-68l-1043 2v-360q84 63 202 63t245 -65.5t211 -175t84 -215t-55.5 -178t-150.5 -114.5t-214 -40l-119 119v67q33 -6 68 -6q104 0 162.5 65.5t58.5 159.5
q0 228 -176 228q-114 1 -198 -97q-34 -40 -81 -110l-30 -47l-7 -12v-727h-67l-217 206l59 68v143q-84 -63 -202 -63t-244.5 65.5t-209.5 175t-83 215t54 179t149.5 114.5t214.5 39l118 -118v-68q-35 6 -67 6q-104 0 -162.5 -65.5t-58.5 -159.5z" />
    <glyph glyph-name="khadeva" unicode="&#x916;" horiz-adv-x="2156" 
d="M2009 1421v-1444h-67l-218 207l60 68v154q-84 -72 -206 -72t-248 65.5t-209 174t-83 215t54.5 180t150.5 114.5t215 39l117 -118v-68q-31 6 -66 6q-104 0 -162.5 -65.5t-58.5 -159.5q0 -227 172 -228q123 -1 217 121q43 56 107 158v655h-1153q147 -252 147 -512
q0 -109 -38 -198.5t-95 -148t-115 -75.5l508 -473l-63 -69l-692 647q-61 57 -102.5 120.5t-41.5 108.5q0 100 150 101q94 0 217 -39q12 68 12 160t-24.5 198.5t-65.5 179.5h-506l-129 119v68h2421l117 -119v-70h-322z" />
    <glyph glyph-name="gadeva" unicode="&#x917;" horiz-adv-x="1540" 
d="M1395 1423v-1443h-68l-217 206l59 68v1169h-440v-645q0 -61 -40 -130.5t-97 -117.5q-56 -48 -112 -47.5t-140 60t-144.5 142.5t-60.5 146q0 35 51.5 64t132.5 29t185 -25v524h-596l-119 119v68h1810l117 -119v-68h-321z" />
    <glyph glyph-name="ghadeva" unicode="&#x918;" horiz-adv-x="1720" 
d="M559 537q0 -195 266 -195q171 0 311 126q62 56 162 163l52 53v737h-707l84 -86v-67q-55 14 -131 13t-132 -52t-56 -113q0 -115 180 -192q113 35 246 32l116 -118v-68q-23 2 -69 2q-160 -2 -241 -64.5t-81 -170.5zM164 1194q0 168 198 229h-360l-117 119v68h1895l116 -119
v-68h-321v-1443h-68l-217 206l60 68v106q-174 -174 -394 -174q-152 0 -301 61.5t-244.5 164t-95.5 219.5q0 142 148 235q-127 45 -213 133t-86 195z" />
    <glyph glyph-name="ngadeva" unicode="&#x919;" horiz-adv-x="1671" 
d="M1673 793h-67l-158 79v273h68l157 -80v-272zM2017 1421h-794v-374h-428q-111 0 -185.5 -57.5t-74.5 -141.5q0 -43 29.5 -74t111.5 -74q162 113 258 113t209.5 -72.5t189.5 -181t76 -209.5q0 -76 -100.5 -164t-248 -147t-252 -59t-218.5 16l-578 498l62 69l286 -244
q152 -133 392 -133q102 0 205.5 42t170 106.5t66.5 119t-42 96.5t-89 42q-104 0 -264 -90q-98 8 -212 85t-191 181t-77 185t47.5 144.5t128 100.5t175.5 37h329v188h-1091l-117 119v68h2112l114 -121v-68z" />
    <glyph glyph-name="cadeva" unicode="&#x91a;" horiz-adv-x="1675" 
d="M1528 1423v-1443h-68l-217 206l60 68v154q-84 -72 -206 -72t-248 65.5t-209 174t-83 233.5q0 68 35 127h-387l-117 119v67h891l117 -118v-68q-31 6 -66 6q-104 0 -162.5 -65.5t-58.5 -159.5q0 -227 172 -228q123 -1 217 121q43 56 107 158v655h-1332l-114 119v68h1876
l116 -119l-2 -68h-321z" />
    <glyph glyph-name="chadeva" unicode="&#x91b;" horiz-adv-x="1998" 
d="M1712 659q0 353 -131 353q-49 0 -75.5 -86t-26.5 -230.5t59 -144.5q98 0 172 108h2zM625 356q0 -223 315 -223q219 0 392 75t274 195q-88 10 -175.5 66.5t-142.5 146t-55 199t49 202.5t129 130v276h-1409l-117 119v68h2251l115 -119v-68l-617 -4v-289q84 -41 158 -124.5
t119 -196.5t45 -250.5t-121 -275.5t-326.5 -222t-447.5 -84q-158 0 -316.5 66t-262 174.5t-103.5 231t80 221.5q-119 49 -198 132t-79 166t54.5 147.5t149.5 103t212 38.5l31 -2l116 -118v-68q-55 14 -110 14q-100 0 -154.5 -52t-54.5 -124q0 -109 113 -162q129 96 309 97
q35 0 53 -2l115 -119v-68q-20 4 -66 4q-158 0 -241.5 -86t-83.5 -215z" />
    <glyph glyph-name="jadeva" unicode="&#x91c;" horiz-adv-x="1675" 
d="M1530 1423v-1443h-68l-217 206l60 68v483h-676l428 -372q18 -47 18 -118t-49 -133.5t-136 -98t-195 -35.5t-187 14l-434 340l61 69q195 -158 296 -211t193 -53t148.5 50.5t56.5 140.5q0 43 -37.5 110.5t-123.5 143.5l-316 272l62 68h891v499h-1285l-116 119v68h1831
l116 -119v-68h-321z" />
    <glyph glyph-name="jhadeva" unicode="&#x91d;" horiz-adv-x="2076" 
d="M1702 1423h-490v-374h-428q-109 0 -184.5 -57.5t-75.5 -141.5q0 -43 30 -74t112 -74q162 113 252 113q63 0 133 -29q51 -12 140 -12t144.5 16.5t133 73t233.5 193.5v366zM162 471q0 70 26.5 100.5t63.5 30.5q66 0 134.5 -79t145.5 -277q94 -59 213 -59.5t217.5 41.5
t162 106.5t63.5 119t-43 96.5t-88 42q-104 0 -266 -90q-90 8 -205 86t-195 181t-80 184t47.5 144.5t128 100.5t175.5 37h329v188h-928l-116 119v68h2189l117 -119l-2 -66h-322v-1443h-67l-217 206l59 68v516q-106 -92 -184 -119.5t-207 -27.5q-27 0 -41 2q127 -142 127 -275
q0 -76 -96.5 -164t-237.5 -147t-241.5 -59t-184.5 22l225 -215q156 -145 350 -145q98 0 242 28l121 -121v-67q-123 -25 -233 -25q-110 1 -182 19q-142 36 -322 207l-543 514l2 2q-137 137 -137 270z" />
    <glyph glyph-name="nyadeva" unicode="&#x91e;" horiz-adv-x="1603" 
d="M184 1061q156 100 302 100q83 0 185.5 -51t181.5 -138t114 -194q49 23 106 74t160 160v411h-1213l-116 119v68h1759l117 -119l-2 -68h-322v-1443h-67l-218 206l60 68v461q-70 -61 -122 -84t-126 -25q-10 -88 -65.5 -160.5t-145.5 -116.5t-180.5 -44t-136.5 14l-320 250
l62 69q176 -152 280 -151q131 2 197.5 85t66.5 234q0 92 -41 152.5t-114 65.5q-160 0 -283 -130l-119 119v68z" />
    <glyph glyph-name="ttadeva" unicode="&#x91f;" horiz-adv-x="1398" 
d="M463 510q0 -172 86 -269.5t216 -97.5t239.5 65.5t234.5 217.5l119 -119v-67q-231 -260 -479 -260q-154 0 -308.5 88t-254 231t-99.5 282.5t61.5 252t164 182t221.5 69.5h114v338h-755l-119 119v68h1540l119 -119v-68h-559v-526h-218q-147 0 -235 -107.5t-88 -279.5z" />
    <glyph glyph-name="tthadeva" unicode="&#x920;" horiz-adv-x="1648" 
d="M1004 877h-68l-41 20h-109q-147 0 -235 -108.5t-88 -285.5t89 -268.5t236 -91.5q182 0 292 127t110 344v2q0 273 -186 334v-73zM1436 500.5q0 -132.5 -70 -256t-193.5 -194t-282.5 -70.5t-316.5 88t-257 229t-99.5 280.5t60.5 255t163 184t223.5 68.5h114v338h-755
l-119 119v68h1722l119 -119v-68h-741v-346q120 -51 218.5 -139t156 -196.5t57.5 -241z" />
    <glyph glyph-name="ddadeva" unicode="&#x921;" horiz-adv-x="1427" 
d="M535 848q0 -43 29.5 -74t111.5 -74q162 113 258 113t209.5 -72.5t189.5 -181t76 -209.5q0 -76 -100.5 -164t-248 -147t-252 -59t-218.5 16l-578 498l62 69l286 -244q152 -133 392 -133q102 0 205.5 42t170 106.5t66.5 119t-42 96.5t-89 42q-104 0 -264 -90q-98 8 -212 85
t-191 181t-77 185t47.5 144.5t128 100.5t175.5 37h329v188h-1091l-117 119v68h1710l117 -119v-68h-393v-374h-428l-2 -2q-111 0 -185.5 -57.5t-74.5 -141.5z" />
    <glyph glyph-name="ddhadeva" unicode="&#x922;" horiz-adv-x="1404" 
d="M971 326q0 -99 67 -99q43 0 86 33q18 35 18.5 87t-22 96t-57.5 44t-63.5 -48t-28.5 -113zM727 434q0 90 62.5 146.5t166 56.5t199.5 -56.5t154.5 -149.5t58.5 -205t-98.5 -179t-285 -67t-366.5 92t-289.5 242.5t-109.5 318.5q0 121 59.5 225.5t161 165.5t217.5 61h127
v338h-761l-119 119v68h1548l119 -119v-68h-561v-526h-234v-2q-149 0 -239.5 -100.5t-90.5 -266.5t106.5 -259t303.5 -101q-129 112 -129 266z" />
    <glyph glyph-name="nnadeva" unicode="&#x923;" horiz-adv-x="1785" 
d="M408 1423v-538q0 -209 147 -209q159 0 245 124q44 64 44 158v465h-436zM1640 1423v-1443h-67l-217 206l59 68v1169h-346v-497q0 -100 -55.5 -193.5t-145.5 -152t-197.5 -58.5t-222 59.5t-190.5 159t-76 211.5v471h-162l-116 119v68h1941l117 -119v-68h-322z" />
    <glyph glyph-name="tadeva" unicode="&#x924;" horiz-adv-x="1333" 
d="M594 737q-203 1 -203 -195q0 -92 31 -158.5t125 -152.5l223 -200l-63 -70l-543 504q-16 53 -17 123q0 168 92.5 252t268.5 84h455v499h-932l-127 119v68h1489l116 -119v-68h-321v-1443h-68l-217 206l60 68v483h-369z" />
    <glyph glyph-name="thadeva" unicode="&#x925;" horiz-adv-x="1566" 
d="M369 1274q0 -156 84 -156q89 1 155 103q-8 278 -86 278q-72 0 -112.5 -64.5t-40.5 -160.5zM266 805q216 0 299 158q-100 2 -203.5 58t-170 149.5t-66.5 184.5t46 154.5t120 101.5t159.5 38t181 -84t158 -222.5t62.5 -267t-56.5 -217t-156.5 -147t-231 -72.5
q70 -131 333 -131q158 0 279 112q55 50 139 140l37 39v624h-152l-116 119v68h698l117 -119l2 -68h-322v-1443h-67l-217 206l59 68v223q-135 -125 -336 -125q-150 0 -312.5 60.5t-274 151.5t-115.5 177l59 68q20 -4 47 -4z" />
    <glyph glyph-name="dadeva" unicode="&#x926;" horiz-adv-x="1361" 
d="M444 563q0 -180 71 -274t192 -94q45 0 94 12q-23 102 -23 158q0 131 115 131q78 0 163 -56.5t143 -140.5t58 -151.5t-43 -109.5t-116 -54l338 -318l-64 -67l-409 385q-201 16 -372 111t-271.5 243.5t-100.5 316.5q0 111 61.5 210.5t163 159.5t213.5 60h138v338h-772
l-119 119v68h1505l119 -119v-68h-508v-526h-244l-2 2q-92 0 -167 -42t-119 -118.5t-44 -175.5z" />
    <glyph glyph-name="dhadeva" unicode="&#x927;" horiz-adv-x="1687" 
d="M778 1577q0 68 -91 68t-150.5 -70t-59.5 -174t45 -170t156 -129q102 45 229 45l111 -96v-68q-49 4 -64 4q-111 0 -172 -69.5t-61 -169t38 -137.5t105.5 -38t121.5 20.5t127 82t204 194.5v553h-152l-116 119v68h698l117 -119v-68h-322v-1443h-67l-218 206l60 68v315
q-94 -86 -170 -118.5t-180.5 -32.5t-222 60.5t-192.5 155.5t-75 202.5t94 193.5q-158 84 -248 208t-90 260t84 223t213.5 87t240 -48t181 -122.5t70.5 -151.5t-71.5 -129t-166.5 -52q-14 0 -55 4l-137 106v68q29 -14 74.5 -14.5t78.5 30.5t33 78z" />
    <glyph glyph-name="nadeva" unicode="&#x928;" horiz-adv-x="1333" 
d="M1186 1423v-1443h-68l-217 206l60 68v483h-299q-14 -59 -52.5 -118.5t-84.5 -97.5t-92 -38t-119.5 66.5t-127 157t-53.5 149.5q0 39 67.5 53.5t254.5 14.5h508v499h-1045l-129 119v68h1604l116 -119l-2 -68h-321z" />
    <glyph glyph-name="nnnadeva" unicode="&#x929;" horiz-adv-x="1333" 
d="M1186 1423v-1443h-68l-217 206l60 68v483h-299q-14 -59 -52.5 -118.5t-84.5 -97.5t-92 -38t-119.5 66.5t-127 157t-53.5 149.5q0 39 67.5 53.5t254.5 14.5h508v499h-1045l-129 119v68h1604l116 -119l-2 -68h-321zM590 -145h-68l-157 79v273h67l158 -80v-272z" />
    <glyph glyph-name="padeva" unicode="&#x92a;" horiz-adv-x="1306" 
d="M410 1423v-497q0 -250 192 -250q127 0 224 122q44 56 112 158v467h-528zM1485 1423h-322v-1443h-67l-217 206l59 68v344q-88 -76 -213 -76t-251 65.5t-209 174t-83 231.5v430h-162l-116 119v68h1462l119 -119v-68z" />
    <glyph glyph-name="uni092B" unicode="&#x92b;" horiz-adv-x="2107" 
d="M936 1423h-528v-497q0 -250 192 -250q127 0 224 122q44 56 112 158v467zM1659 750q0 225 -176 225q-126 0 -215 -118q-39 -52 -105 -157v-720h-67l-217 206l59 68v344q-88 -76 -213 -76t-251 65.5t-209 174t-83 231.5v430h-162l-116 119v68h2181l119 -119v-68h-1043v-358
q82 61 201 61t246 -65.5t211 -175t84 -215t-54.5 -178t-150.5 -114.5t-213 -40l-119 119v67q33 -6 66 -6q109 0 168 66.5t59 165.5z" />
    <glyph glyph-name="uni092C" unicode="&#x92c;" horiz-adv-x="1300" 
d="M764 551l-313 264q-18 -45 -19 -98q0 -227 172 -228q88 1 160 62zM1153 1423v-1443h-68l-217 206l60 68v154q-84 -72 -206 -72t-248 65.5t-209 174t-83 214.5t54.5 180t150.5 115t215 39l117 -118v-68q-31 6 -66 6q-90 0 -149 -53l323 -273q33 41 103 150v655h-910
l-116 119v68h1456l117 -119l-2 -68h-322z" />
    <glyph glyph-name="bhadeva" unicode="&#x92d;" horiz-adv-x="1521" 
d="M423 1243q60 0 107 47q-6 209 -65 209q-49 0 -77 -46t-28 -116l2 -2q1 -92 61 -92zM1376 1423v-1443h-67l-217 206l59 68v483h-416q-25 -90 -94.5 -172t-127.5 -82t-136 63.5t-133.5 152.5t-55.5 157q0 27 31 41q60 27 309 27h2v168q-96 4 -193 51t-159.5 123.5
t-62.5 167t63.5 154t172 63.5t201.5 -67.5t148.5 -181.5t55.5 -245v-233h395v499h-152l-116 119v68h698l117 -119v-68h-322z" />
    <glyph glyph-name="madeva" unicode="&#x92e;" horiz-adv-x="1574" 
d="M1206 1423h-501v-499h495l6 -6v505zM1432 1423v-1443h-68l-217 206l59 68v483h-524q-25 -90 -94.5 -172t-127.5 -82t-137 63.5t-134.5 152.5t-55.5 157q0 27 31 41q60 27 311 27h2v499h-563l-125 119v68h1845l117 -119l2 -68h-321z" />
    <glyph glyph-name="uni092F" unicode="&#x92f;" horiz-adv-x="1486" 
d="M727 1108q0 -127 -92 -223.5t-238 -116.5q51 -131 217 -131q168 1 296 107q58 48 151 141l53 53l-2 487h-526q141 -145 141 -317zM1661 1423h-322v-1443h-67l-217 206l59 68v367q-76 -68 -164 -104t-213 -36t-250 56.5t-215 144.5t-114 174l61 68q109 16 187.5 103
t78.5 214t-63 182h-453l-116 119v68h1691l117 -119v-68z" />
    <glyph glyph-name="radeva" unicode="&#x930;" horiz-adv-x="880" 
d="M778 911q0 -109 -38 -198.5t-95 -148t-115 -75.5l508 -473l-63 -69l-692 647q-61 57 -102.5 120.5t-41.5 108.5q0 100 150 101q94 0 217 -39q12 68 12 160t-24.5 198.5t-65.5 179.5h-506l-129 119v68h1122l129 -119v-68h-413q147 -252 147 -512z" />
    <glyph glyph-name="rradeva" unicode="&#x931;" horiz-adv-x="880" 
d="M778 911q0 -109 -38 -198.5t-95 -148t-115 -75.5l508 -473l-63 -69l-692 647q-61 57 -102.5 120.5t-41.5 108.5q0 100 150 101q94 0 217 -39q12 68 12 160t-24.5 198.5t-65.5 179.5h-506l-129 119v68h1122l129 -119v-68h-413q147 -252 147 -512zM453 -145h-68l-158 79
v273h68l158 -80v-272z" />
    <glyph glyph-name="uni0932" unicode="&#x932;" horiz-adv-x="1744" 
d="M655 977q-93 0 -155 -71.5t-62 -157t29 -144.5t115 -139l170 -160l-66 -65l-475 450q-16 55 -16 136t48 151t129 110.5t196.5 40.5t258 -81.5t211.5 -204.5q168 98 336 241v340h-1354l-116 119v68h1900l117 -119v-68h-322v-1443h-67l-217 206l59 68v543
q-219 -169 -463 -267l-118 121v68q41 16 61 26q-16 121 -61 176.5t-138 55.5z" />
    <glyph glyph-name="lladeva" unicode="&#x933;" horiz-adv-x="2113" 
d="M453 719q0 -225 176 -225q76 0 132 36.5t88 79.5t68.5 99.5t56 88t51.5 85t71 104.5q90 117 223 135v301h-1299l-116 119v68h2189l117 -119v-68h-664v-333q150 -55 256.5 -175t106.5 -262q0 -102 -61.5 -176t-159 -110.5t-176 -36.5t-142.5 14l-131 125v84
q92 -39 200.5 -39t165 65.5t56.5 163.5q0 226 -176 226q-118 0 -199 -102q-35 -44 -82 -119l-47 -72q-20 -29 -65 -99.5t-87 -120.5q-99 -118 -262 -118q-119 0 -245.5 65.5t-210.5 174t-84 222t62.5 186.5t160.5 108.5t181 35.5t136 -12l131 -125v-84q-92 39 -199 39
t-164.5 -66.5t-57.5 -162.5z" />
    <glyph glyph-name="llladeva" unicode="&#x934;" horiz-adv-x="2113" 
d="M453 719q0 -225 176 -225q76 0 132 36.5t88 79.5t68.5 99.5t56 88t51.5 85t71 104.5q90 117 223 135v301h-1299l-116 119v68h2189l117 -119v-68h-664v-333q150 -55 256.5 -175t106.5 -262q0 -102 -61.5 -176t-159 -110.5t-176 -36.5t-142.5 14l-131 125v84
q92 -39 200.5 -39t165 65.5t56.5 163.5q0 226 -176 226q-118 0 -199 -102q-35 -44 -82 -119l-47 -72q-20 -29 -65 -99.5t-87 -120.5q-99 -118 -262 -118q-119 0 -245.5 65.5t-210.5 174t-84 222t62.5 186.5t160.5 108.5t181 35.5t136 -12l131 -125v-84q-92 39 -199 39
t-164.5 -66.5t-57.5 -162.5zM1182 -156h-68l-158 80v273h68l158 -80v-273z" />
    <glyph glyph-name="vadeva" unicode="&#x935;" horiz-adv-x="1300" 
d="M1155 1421v-1444h-68l-217 207l60 68v154q-84 -72 -206 -72t-248 65.5t-209 174t-83 215t54.5 180t150.5 114.5t215 39l117 -118v-68q-31 6 -66 6q-104 0 -162.5 -65.5t-58.5 -159.5q0 -227 172 -228q123 -1 217 121q43 56 107 158v655h-910l-116 119v68h1456l117 -119
v-70h-322z" />
    <glyph glyph-name="shadeva" unicode="&#x936;" horiz-adv-x="1656" 
d="M494 1339q0 -92 62 -92t110 47q-14 207 -66.5 207t-80 -46t-27.5 -116h2zM1513 1425v-1443h-67l-217 206l59 68v1169h-151l-117 119v68h698l117 -119v-68h-322zM260 819q0 107 148 107q94 0 217 -39q43 77 43 205q-96 2 -194.5 49t-163 124.5t-64.5 168t62.5 154
t173 63.5t205.5 -74t151.5 -214t56.5 -331l2 2q0 -206 -78 -368l287 -246l-64 -68l-270 232q-74 -100 -153 -100.5t-161.5 59t-140 141.5t-57.5 135z" />
    <glyph glyph-name="ssadeva" unicode="&#x937;" horiz-adv-x="1306" 
d="M410 926q0 -250 192 -250q82 0 143.5 45t126.5 139l-462 406v-340zM410 1423v-2l528 -463v465h-528zM1485 1423h-322v-1443h-67l-217 206l59 68v344q-88 -76 -213 -76t-251 65.5t-209 174t-83 231.5v430h-162l-116 119v68h1462l119 -119v-68z" />
    <glyph glyph-name="sadeva" unicode="&#x938;" horiz-adv-x="1648" 
d="M1004.5 909q111.5 0 275.5 119v399h-647q141 -236 147 -485q113 -33 224.5 -33zM1827 1425h-322v-1443h-67l-217 206l59 68v500q-137 -72 -252 -72q-57 0 -104 14l-154 121q-23 -127 -93.5 -217t-146.5 -113l508 -473l-63 -69l-692 647q-61 57 -102.5 120.5t-41.5 108.5
q0 100 150 101q94 0 217 -39q12 68 12 160t-24.5 198.5t-65.5 179.5h-506l-129 119v68h1915l119 -117v-68z" />
    <glyph glyph-name="hadeva" unicode="&#x939;" horiz-adv-x="1157" 
d="M487 823.5q0 -77.5 45 -151.5h31q143 0 284.5 -61.5t232.5 -161t91 -193.5t-62 -170t-157 -111l-116 119v68q90 63 90 176q0 178 -211 178q-137 0 -212 -66.5t-75 -191.5q0 -158 174 -328l434 -403l-61 -68l-776 734q-14 51 -15 114q0 121 58.5 211t167.5 129l-154 141
q-16 36 -16 108.5t49 136t129 101t168 37.5h129v252h-572l-118 119v68h1189l119 -119v-68h-393v-438h-248l4 2q-98 0 -153.5 -43t-55.5 -120.5z" />
    <glyph glyph-name="uni093A" unicode="&#x93a;" horiz-adv-x="0" 
d="M-123 1462h-67l-158 80v766h67l158 -82v-764z" />
    <glyph glyph-name="uni093B" unicode="&#x93b;" 
d="M518 1423v-1443h-67l-218 206l60 68v1169h-152l-116 119v68h268v698h67l158 -82v-616h205l117 -119v-68h-322z" />
    <glyph glyph-name="nuktadeva" unicode="&#x93c;" horiz-adv-x="0" 
d="M-152 -457h-67l-158 80v273h68l157 -80v-273z" />
    <glyph glyph-name="avagrahadeva" unicode="&#x93d;" horiz-adv-x="1251" 
d="M1559 1423h-672q-55 0 -125 -37t-119 -95t-49 -129t79 -164q79 -92 241 -242t251 -254q88 -104 88 -190q1 -86 -65 -160q-66 -76 -170 -124t-202 -48t-169 16l-581 502l59 71l240 -207q172 -152 350 -151q79 0 145 29q66 30 107 78t41 113t-75 152t-241 243t-254 262
t-88 190t66 159t167 124t201 49h658l117 -119v-68z" />
    <glyph glyph-name="uni093E" unicode="&#x93e;" 
d="M518 1423v-1443h-67l-218 206l60 68v1169h-152l-116 119v68h698l117 -119v-68h-322z" />
    <glyph glyph-name="uni093F" unicode="&#x93f;" 
d="M930 1516q-290 489 -516 489q-108 0 -109 -104q0 -123 127 -291h86v-1630h-67l-218 206l60 68v1169h-135l-133 119v68h262q-213 188 -213 362q0 98 73.5 157.5t193.5 59.5q121 0 225 -58q202 -112 431 -542z" />
    <glyph glyph-name="uni0940" unicode="&#x940;" 
d="M518 1423v-1443h-67l-218 206l60 68v1169h-152l-116 119v68h268q-133 209 -247 302t-220 93q-98 0 -98 -102q0 -76 54 -180.5t144 -194.5h-114q-160 115 -237 230.5t-77 214t73 157.5t193 59q174 0 323 -132t321 -447h315l117 -119v-68h-322z" />
    <glyph glyph-name="uvowelsigndeva" unicode="&#x941;" horiz-adv-x="0" 
d="M-119 -689q0 -99 -68.5 -179t-174 -124t-205.5 -44t-164 16l-502 469l64 68l184 -168q100 -94 188 -136t204 -42t191.5 72.5t77.5 193.5q0 63 -32 108t-86 45q-122 0 -205 -61l-119 119v67q84 39 193.5 39t214 -68.5t172 -172t67.5 -202.5z" />
    <glyph glyph-name="uuvowelsigndeva" unicode="&#x942;" horiz-adv-x="0" 
d="M-699.5 -453q-115.5 0 -191.5 -72.5t-78 -193.5q0 -63 32 -108t87 -45q127 0 205 61l119 -119v-67q-84 -39 -193.5 -39t-214 68.5t-172.5 172t-68 202.5t69 179t175.5 124t204 44t164.5 -16l502 -469l-62 -70l-186 170q-100 94 -188.5 136t-204 42z" />
    <glyph glyph-name="rvocalicvowelsigndeva" unicode="&#x943;" horiz-adv-x="0" 
d="M-510 -420q-113 0 -172 -77.5t-59 -204.5q0 -178 123 -179q61 0 146 38t136 100l119 -121v-68q-163 -104 -279 -104t-225.5 66.5t-181.5 173t-72 228.5t101.5 216t244.5 119l119 -119v-68z" />
    <glyph glyph-name="rrvocalicvowelsigndeva" unicode="&#x944;" horiz-adv-x="0" 
d="M-305 -1227q-125 0 -250 51.5t-204 130t-79 158.5q0 106 133 178q-147 93 -147 205.5t118 184t331 69.5l114 -121v-67q-51 14 -110 14q-111 0 -171.5 -52t-62.5 -124q0 -37 25 -70q115 35 252 33l112 -104v-68q-172 -2 -269 -50t-97 -138q0 -84 182 -84q82 0 163 41
t138 110l117 -121v-67q-125 -109 -295 -109z" />
    <glyph glyph-name="ecandravowelsigndeva" unicode="&#x945;" horiz-adv-x="0" 
d="M-985 2255q0 -180 301 -180q178 0 289.5 92t136.5 258l80 65l164 -161q-16 -117 -92 -212.5t-197 -150.5t-273.5 -55t-306 61.5t-250 159.5t-96.5 191.5t17 170.5l61 68l182 -172q-16 -82 -16 -135z" />
    <glyph glyph-name="eshortvowelsigndeva" unicode="&#x946;" horiz-adv-x="0" 
d="M-1850 2171q116 0 243.5 25.5t252.5 25.5t226.5 -46t250.5 -177l474 -410l-60 -73l-446 389q-149 133 -357 133q-86 0 -223 -25q-291 -63 -473 19q-100 45 -252 176l-330 280l60 72l303 -258q146 -131 331 -131z" />
    <glyph glyph-name="evowelsigndeva" unicode="&#x947;" horiz-adv-x="0" 
d="M-634 2122q-102 0 -230 -27l-117 121v68q293 61 474 -22q101 -46 253 -177l576 -496l-62 -71l-547 473q-146 131 -347 131z" />
    <glyph glyph-name="aivowelsigndeva" unicode="&#x948;" horiz-adv-x="0" 
d="M-962.5 2173q126.5 0 228 -45t253.5 -176l454 -391l-61 -72l-426 369q-151 131 -349 131q-101 0 -229 -27l-116 119v67q119 25 245.5 25zM-862 2355q-102 0 -230 -26l-116 118v68q119 25 246.5 25t229 -45.5t251.5 -176.5l872 -753l-61 -72l-844 731q-146 131 -348 131z
" />
    <glyph glyph-name="ocandravowelsigndeva" unicode="&#x949;" 
d="M518 1423v-1443h-67l-218 206l60 68v1169h-152l-116 119v68h698l117 -119v-68h-322zM61 2255q0 -180 301 -180q178 0 290 92t136 258l80 65l164 -161q-16 -117 -92 -212.5t-196.5 -150.5t-273.5 -55t-306.5 61.5t-249.5 159.5t-96 191.5t16 170.5l62 68l182 -172
q-17 -82 -17 -135z" />
    <glyph glyph-name="uni094A" unicode="&#x94a;" 
d="M518 1423v-1443h-67l-218 206l60 68v1169h-152l-116 119v68h270l-338 295q-149 133 -356 133q-86 0 -224 -25q-291 -63 -473 19q-100 45 -252 176l-329 280l59 72l303 -258q147 -131 354 -131q92 0 224 24q125 27 249.5 27t225 -45t252.5 -178l448 -389h285l117 -119v-68
h-322z" />
    <glyph glyph-name="ovowelsigndeva" unicode="&#x94b;" 
d="M518 1423v-1443h-67l-218 206l60 68v1169h-152l-116 119v68h270l-440 381q-146 131 -357 131q-94 0 -221 -27l-117 121v68q290 61 474 -22q102 -46 253 -177l551 -475h285l117 -119v-68h-322z" />
    <glyph glyph-name="uni094C" unicode="&#x94c;" 
d="M518 1423v-1443h-67l-218 206l60 68v1169h-152l-116 119v68h34l-286 248q-151 131 -355 131q-92 0 -223 -27l-117 119v67q119 25 246 25t229.5 -46t251.5 -175l398 -342h280l-710 614q-146 131 -355 131q-92 0 -223 -26l-117 118v68q119 25 247 25t229.5 -45.5
t250.5 -176.5l822 -708h96l117 -119v-68h-322z" />
    <glyph glyph-name="viramadeva" unicode="&#x94d;" horiz-adv-x="0" 
d="M-63 -799l-506 482l61 69l508 -481z" />
    <glyph glyph-name="uni094E" unicode="&#x94e;" 
d="M518 1423v-1443h-67l-218 206l60 68v1356h430l117 -119v-68h-322z" />
    <glyph glyph-name="uni094F" unicode="&#x94f;" 
d="M518 1427v-1443h-67l-218 206l60 68v1169h-152l-116 119v68h264l-338 295q-149 133 -357 133q-96 0 -222 -26t-249.5 -25.5t-224 45.5t-252.5 176l-329 280l59 72l303 -258q147 -131 354 -131q97 0 223 26t250.5 25.5t225 -45.5t252.5 -178l446 -387q143 41 143 137
q0 59 -46 97t-131 79t-132 72q-112 74 -112 188q0 72 62 137.5t159 98.5l119 -119v-68q-39 -4 -68 -37.5t-29 -81.5t51.5 -85t157 -84t159.5 -88t54 -117t-80 -150l103 -104v-64h-322z" />
    <glyph glyph-name="omdeva" unicode="&#x950;" horiz-adv-x="2394" 
d="M1149 1132q0 -92 -72 -172t-166 -120q96 -63 191 -144q70 8 128 64t164 225q106 168 180 262t140 129t160 35l-4 4q158 0 304 -82t238 -213t91 -267q0 -137 -65 -243q-64 -106 -174 -166t-241 -61l-118 119v67q31 -6 59 -6q86 0 153 50q67 49 105 139t37 222
q0 132 -67 210q-67 80 -189 80q-76 0 -131 -28t-115 -98q-59 -70 -150 -216t-147 -222t-105 -110q-48 -34 -110 -41q107 -131 107 -225t-65 -170t-168 -124t-203 -48t-171 16l-581 502l61 71l238 -206q180 -152 325 -152q88 0 162 28q74 29 116 77t42 106t-46 120t-155 143
t-303 204v67q78 16 148 64t111 115q42 65 42 131t-43 108q-44 42 -112 41q-68 0 -168 -38t-197 -101l-117 121v67q194 166 353 166q111 0 235 -82t209 -204q84 -122 84 -214zM1419 1921q178 0 290 92t136 258l80 66l164 -162q-16 -117 -92 -212t-197 -151t-273 -54
q-152 0 -306 61t-250 159q-97 98 -97 192t17 171l61 67l183 -172q-16 -82 -17 -135q0 -180 301 -180zM1335 2523h68l158 -80v-272h-68l-158 80v272z" />
    <glyph glyph-name="udattadeva" unicode="&#x951;" horiz-adv-x="0" 
d="M-123 1872h-67l-158 80v766h67l158 -82v-764z" />
    <glyph glyph-name="anudattadeva" unicode="&#x952;" horiz-adv-x="0" 
d="M225 -324h-1124l-145 121v68h1124l145 -121v-68z" />
    <glyph glyph-name="gravedeva" unicode="&#x953;" horiz-adv-x="0" 
d="M-596 1724l-506 482l62 69l508 -481z" />
    <glyph glyph-name="acutedeva" unicode="&#x954;" horiz-adv-x="0" 
d="M-197 2277q-145 -125 -333.5 -261t-341.5 -222l-117 119v67q150 80 334 213.5t342 270.5l116 -119v-68z" />
    <glyph glyph-name="uni0955" unicode="&#x955;" horiz-adv-x="0" 
d="M20 1808h-1122l-147 119v68h1124l145 -119v-68zM-989 2441q0 -180 299 -180q178 0 289.5 92t136.5 258l82 66l164 -162q-18 -117 -94 -212t-197 -150.5t-273.5 -55.5t-306 61.5t-250 160t-96.5 193.5t18 169l60 67l184 -172q-16 -78 -16 -135z" />
    <glyph glyph-name="uni0956" unicode="&#x956;" horiz-adv-x="0" 
d="M-721 -324q244 0 481 144l115 -119v-68q-121 -80 -246 -127t-220 -47t-195 15l-320 250l62 69q164 -117 323 -117z" />
    <glyph glyph-name="uni0957" unicode="&#x957;" horiz-adv-x="0" 
d="M-721 -324q244 0 481 144l115 -119v-68q-121 -80 -246 -127t-220 -47t-195 15l-320 250l62 69q164 -117 323 -117zM-591 -961q-95 0 -195 15l-320 250l62 69q163 -116 323 -116q245 0 481 143l115 -119v-67q-121 -80 -246 -127.5t-220 -47.5z" />
    <glyph glyph-name="qadeva" unicode="&#x958;" horiz-adv-x="2113" 
d="M451 717q0 -228 176 -228q113 0 195 96q34 40 79 107l37 53l6 7v671h-924l-116 119v68h2189l117 -119v-68l-1043 2v-360q84 63 202 63t245 -65.5t211 -175t84 -215t-55.5 -178t-150.5 -114.5t-214 -40l-119 119v67q33 -6 68 -6q104 0 162.5 65.5t58.5 159.5
q0 228 -176 228q-114 1 -198 -97q-34 -40 -81 -110l-30 -47l-7 -12v-727h-67l-217 206l59 68v143q-84 -63 -202 -63t-244.5 65.5t-209.5 175t-83 215t54 179t149.5 114.5t214.5 39l118 -118v-68q-35 6 -67 6q-104 0 -162.5 -65.5t-58.5 -159.5zM510 -158h-68l-157 80v273h67
l158 -80v-273z" />
    <glyph glyph-name="khhadeva" unicode="&#x959;" horiz-adv-x="2156" 
d="M2009 1421v-1444h-67l-218 207l60 68v154q-84 -72 -206 -72t-248 65.5t-209 174t-83 215t54.5 180t150.5 114.5t215 39l117 -118v-68q-31 6 -66 6q-104 0 -162.5 -65.5t-58.5 -159.5q0 -227 172 -228q123 -1 217 121q43 56 107 158v655h-1153q147 -252 147 -512
q0 -109 -38 -198.5t-95 -148t-115 -75.5l508 -473l-63 -69l-692 647q-61 57 -102.5 120.5t-41.5 108.5q0 100 150 101q94 0 217 -39q12 68 12 160t-24.5 198.5t-65.5 179.5h-506l-129 119v68h2421l117 -119v-70h-322zM336 -145h-68l-157 79v273h67l158 -80v-272z" />
    <glyph glyph-name="ghhadeva" unicode="&#x95a;" horiz-adv-x="1540" 
d="M1395 1423v-1443h-68l-217 206l59 68v1169h-440v-645q0 -61 -40 -130.5t-97 -117.5q-56 -48 -112 -47.5t-140 60t-144.5 142.5t-60.5 146q0 35 51.5 64t132.5 29t185 -25v524h-596l-119 119v68h1810l117 -119v-68h-321zM590 -145h-68l-157 79v273h67l158 -80v-272z" />
    <glyph glyph-name="zadeva" unicode="&#x95b;" horiz-adv-x="1675" 
d="M1530 1423v-1443h-68l-217 206l60 68v483h-676l428 -372q18 -47 18 -118t-49 -133.5t-136 -98t-195 -35.5t-187 14l-434 340l61 69q195 -158 296 -211t193 -53t148.5 50.5t56.5 140.5q0 43 -37.5 110.5t-123.5 143.5l-316 272l62 68h891v499h-1285l-116 119v68h1831
l116 -119v-68h-321zM793 -612h-68l-158 80v272h68l158 -80v-272z" />
    <glyph glyph-name="dddhadeva" unicode="&#x95c;" horiz-adv-x="1427" 
d="M535 848q0 -43 29.5 -74t111.5 -74q162 113 258 113t209.5 -72.5t189.5 -181t76 -209.5q0 -76 -100.5 -164t-248 -147t-252 -59t-218.5 16l-578 498l62 69l286 -244q152 -133 392 -133q102 0 205.5 42t170 106.5t66.5 119t-42 96.5t-89 42q-104 0 -264 -90q-98 8 -212 85
t-191 181t-77 185t47.5 144.5t128 100.5t175.5 37h329v188h-1091l-117 119v68h1710l117 -119v-68h-393v-374h-428l-2 -2q-111 0 -185.5 -57.5t-74.5 -141.5zM287 -340h-68l-158 80v272h68l158 -80v-272z" />
    <glyph glyph-name="rhadeva" unicode="&#x95d;" horiz-adv-x="1404" 
d="M971 326q0 -99 67 -99q43 0 86 33q18 35 18.5 87t-22 96t-57.5 44t-63.5 -48t-28.5 -113zM727 434q0 90 62.5 146.5t166 56.5t199.5 -56.5t154.5 -149.5t58.5 -205t-98.5 -179t-285 -67t-366.5 92t-289.5 242.5t-109.5 318.5q0 121 59.5 225.5t161 165.5t217.5 61h127
v338h-761l-119 119v68h1548l119 -119v-68h-561v-526h-234v-2q-149 0 -239.5 -100.5t-90.5 -266.5t106.5 -259t303.5 -101q-129 112 -129 266zM494 -422h-68l-158 80v272h68l158 -80v-272z" />
    <glyph glyph-name="fadeva" unicode="&#x95e;" horiz-adv-x="2107" 
d="M936 1423h-528v-497q0 -250 192 -250q127 0 224 122q44 56 112 158v467zM1659 750q0 225 -176 225q-126 0 -215 -118q-39 -52 -105 -157v-720h-67l-217 206l59 68v344q-88 -76 -213 -76t-251 65.5t-209 174t-83 231.5v430h-162l-116 119v68h2181l119 -119v-68h-1043v-358
q82 61 201 61t246 -65.5t211 -175t84 -215t-54.5 -178t-150.5 -114.5t-213 -40l-119 119v67q33 -6 66 -6q109 0 168 66.5t59 165.5zM586 -88h-68l-158 80v272h68l158 -80v-272z" />
    <glyph glyph-name="yyadeva" unicode="&#x95f;" horiz-adv-x="1486" 
d="M727 1108q0 -127 -92 -223.5t-238 -116.5q51 -131 217 -131q168 1 296 107q58 48 151 141l53 53l-2 487h-526q141 -145 141 -317zM1661 1423h-322v-1443h-67l-217 206l59 68v367q-76 -68 -164 -104t-213 -36t-250 56.5t-215 144.5t-114 174l61 68q109 16 187.5 103
t78.5 214t-63 182h-453l-116 119v68h1691l117 -119v-68zM586 -123h-68l-158 80v272h68l158 -79v-273z" />
    <glyph glyph-name="rrvocalicdeva" unicode="&#x960;" horiz-adv-x="2476" 
d="M2351 -166q-127 -108 -319 -108q-98 0 -223.5 51t-204 131t-78.5 160q0 104 135 178q-150 92 -150 206t127 187q-41 53 -67 109q-57 -4 -129 -4.5t-199 32.5v-796h-67l-218 206l60 68v448q-287 -219 -520 -348l-117 119v68q203 109 455 303l-19 16q-87 76 -155.5 76
t-130.5 -24.5t-129.5 -71.5t-202.5 -150l-121 121v68q299 225 450 225q84 0 144.5 -25.5t163.5 -113.5l75 -64l109 90v432h-1022l-117 119v68h2605l117 -119v-68h-1321l-39 -4v-461q25 -2 113 -2t196 33q20 88 66.5 159t102 108.5t113 37.5t140 -42t141 -103.5t58.5 -124
t-87 -101t-276 -75.5q10 -70 76 -150q23 2 72 2l117 -118v-68q-55 14 -111 14q-111 0 -171 -52t-62 -126q0 -37 24 -69q115 35 248 32l115 -104v-68q-174 -2 -270.5 -49t-96.5 -135t180 -88q84 2 165 43t136 111l119 -121v-68z" />
    <glyph glyph-name="llvocalicdeva" unicode="&#x961;" horiz-adv-x="1857" 
d="M559 1128q168 0 326 -110q45 51 93 78.5t124 29.5v297h-1082l-116 119v68h1933l117 -119v-68l-625 -2v-348q137 -63 231.5 -175t94.5 -228t-114 -206q-46 -36 -127 -86t-121 -88t-40 -82t29 -79q86 12 174 10l109 -96v-68l-52 2q-145 0 -230 -44t-85 -113q0 -94 177 -94
t311 155l118 -119v-67q-125 -111 -309 -111q-121 0 -243 51.5t-200.5 130t-78.5 146.5q0 136 198 194q-137 94 -137 201q0 59 39 97t115 84t118 78q99 77 99 204q0 86 -46 143.5t-134 57.5t-144.5 -51.5t-117.5 -143.5l-31 -45l-127 125v68q-43 53 -136 53t-154.5 -73
t-61.5 -156t35.5 -145t123.5 -138l174 -150l-61 -69l-500 434q-16 59 -16 140t47 154t127 113.5t176 40.5z" />
    <glyph glyph-name="lvocalicvowelsigndeva" unicode="&#x962;" horiz-adv-x="0" 
d="M-133 -1401q-156 -100 -303 -100q-84 0 -189.5 59.5t-174 158.5t-68.5 195.5t48 148.5t148.5 119.5t149.5 120t49 129.5t-40 128t-116 51t-160.5 -75t-156.5 -198l-119 119v68l6 12q-82 35 -170 35t-143 -60.5t-55 -138.5t33.5 -140t123.5 -140l174 -150l-61 -69
l-500 436q-16 57 -16 139t41 153.5t112.5 113.5t176 42t180.5 -36.5t147 -112.5q49 74 114.5 111.5t173.5 37.5t227.5 -64.5t196.5 -174t77 -234.5q0 -76 -49.5 -127t-148.5 -118t-148.5 -120t-49.5 -119t25 -104t66 -38q163 0 280 126l119 -116v-68z" />
    <glyph glyph-name="llvocalicvowelsigndeva" unicode="&#x963;" horiz-adv-x="0" 
d="M-397 -1724q-127 0 -252 51t-204 130t-79 147q0 127 182 188q-119 100 -118 227q0 59 50 102t148 97.5t147.5 97.5t49.5 113.5t-40 122t-116 51.5t-158.5 -75t-152.5 -198l-119 121v68l6 12q-84 37 -174 37t-145 -60.5t-55 -138.5t33.5 -140.5t123.5 -139.5l174 -150
l-61 -69l-500 436q-16 57 -16 139t41 153.5t112.5 113.5t177 42t181.5 -38t147 -115q47 76 111.5 114.5t172.5 38.5t227.5 -64.5t196.5 -174t77 -234.5q0 -55 -49.5 -95t-149.5 -93t-148.5 -92t-48.5 -87.5t35 -87.5q76 6 141 5l111 -97v-67q-164 0 -256 -38t-92 -108
q0 -86 180 -86q78 0 152.5 37t130.5 98l119 -118v-68q-124 -108 -293 -108z" />
    <glyph glyph-name="dandadeva" unicode="&#x964;" horiz-adv-x="1208" 
d="M717 -20h-68l-217 206l60 68v1376h67l158 -149v-1501z" />
    <glyph glyph-name="dbldandadeva" unicode="&#x965;" horiz-adv-x="1720" 
d="M1229 -20h-68l-217 206l60 68v1376h67l158 -149v-1501zM717 -20h-68l-217 206l60 68v1376h67l158 -149v-1501z" />
    <glyph glyph-name="zerodeva" unicode="&#x966;" horiz-adv-x="1302" 
d="M426 726q0 -110 45 -165t126 -55q164 0 241 137q39 71 39 183q1 112 -45 167t-127 55t-141 -33q-60 -34 -99 -106q-39 -73 -39 -183zM1120 726q0 -112 -52 -196t-144 -131t-208 -47t-242 70t-209 182t-83 224t52 196t144 131t208 47t242 -69q126 -70 209 -183t83 -224z
" />
    <glyph glyph-name="onedeva" unicode="&#x967;" horiz-adv-x="1103" 
d="M326 1241q0 -143 94 -143q79 -2 147 114q-14 266 -110 267q-55 0 -93 -70t-38 -168zM788 951q0 -189 -43 -488t-83 -483h-68l-158 79q100 498 127 891q-23 -6 -49 -6q-100 0 -202 60t-169 156q-65 96 -65 180t42 148t112 104q70 38 149 38h2q115 0 208 -89t145 -245
t52 -345z" />
    <glyph glyph-name="twodeva" unicode="&#x968;" horiz-adv-x="1282" 
d="M537 1630q109 0 233 -82t210 -202q85 -120 85 -224t-70 -241t-170 -246l576 -485l-60 -68l-581 489q-109 -96 -185 -96q-75 1 -161 59t-148 140q-61 82 -61 143q0 86 192 86q115 0 238 -41q186 201 186 398q0 72 -43 114q-44 42 -112 41q-68 0 -169 -39t-194 -100
l-117 121v67q195 166 351 166z" />
    <glyph glyph-name="threedeva" unicode="&#x969;" horiz-adv-x="1456" 
d="M853 -18q-79 0 -138 12l413 -350l-61 -70l-668 563q-98 74 -156 163q-59 89 -59 166q0 78 27 108t65 30q80 0 136 -82t98 -295q90 -55 191 -55t183 32t125 85q44 53 44 113q0 120 -186 276q-99 84 -279 213v67q68 12 138 60t115 112q46 63 46 127t-37 112t-118 48
t-172 -40t-191 -99l-117 121v67q197 166 331 166t259 -83t207 -206q81 -123 81 -222t-63 -177t-174 -113q375 -292 377 -532q0 -71 -67 -146t-169 -123t-181 -48z" />
    <glyph glyph-name="fourdeva" unicode="&#x96a;" horiz-adv-x="1419" 
d="M471 365q0 -119 46 -177t155 -57q108 0 182 71t74 183h-2q0 194 -238 475l-92 -112q-125 -153 -125 -383zM1174 310q0 -84 -54 -160q-54 -78 -146 -124q-91 -46 -211 -46t-248 70t-208 184q-80 112 -80 231q0 80 41 161t142 199l155 183l-155 188q-98 119 -142 210
q-43 91 -43 177t17 158l61 67l184 -172q-18 -115 -18 -147q0 -209 162 -395l4 -4l125 145q119 137 156 236q38 99 38 227q0 27 -6 45l80 65l164 -161v-45q0 -101 -68 -206t-247 -311l-121 -145l35 -43q188 -209 263 -301q76 -92 98 -147t22 -139z" />
    <glyph glyph-name="fivedeva" unicode="&#x96b;" horiz-adv-x="1501" 
d="M461 330q0 30 53 52q113 46 373 -5q46 331 49 672q-82 -39 -182 -39t-214 59t-190 159t-76 214v188h68l158 -80v-178q0 -209 145 -209q113 1 199 61t86 179v227h67l133 -67l25 4v-596q0 -469 -86 -748l573 -485l-59 -70l-547 461q-68 -152 -143 -152q-80 -1 -182 59
t-176 144t-74 150z" />
    <glyph glyph-name="sixdeva" unicode="&#x96c;" horiz-adv-x="1572" 
d="M1176 539q-233 -166 -438 -166q-105 1 -235 67t-217 176t-87 230q0 80 50 152t140 122q-106 51 -171 123q-64 72 -64 145t54 132t150 95t213 36l31 -2l117 -119v-68q-55 14 -133 14t-132 -45t-54 -105t58 -95q60 -35 234 -41h25l117 -119v-67q-20 2 -66 2
q-160 0 -243 -70t-83 -182q0 -178 191 -179q127 0 226 43t163 109q-47 135 -47 264q0 195 84 195q61 0 143 -62t140 -147q58 -86 59 -152q0 -92 -152 -227l596 -504l-61 -69z" />
    <glyph glyph-name="sevendeva" unicode="&#x96d;" horiz-adv-x="1892" 
d="M1260 907q71 0 145 115q-10 266 -105 266q-57 0 -97 -68t-40 -163q0 -150 94 -150h3zM428 797q0 -297 113 -477t327 -181q214 0 351 162t174 457q-25 -4 -39 -4q-100 0 -202 60t-167 154t-65 179q0 83 42 149t112 106t147 40q115 0 214 -86t156 -232t57 -346t-87 -390
q-88 -190 -241 -299q-154 -109 -354 -109t-384 137t-290 365t-108 456q0 228 49 417t144 386l59 67l185 -172q-113 -250 -153 -450t-40 -389z" />
    <glyph glyph-name="eightdeva" unicode="&#x96e;" horiz-adv-x="1435" 
d="M184 1121q0 163 101 302h-283l-129 119v68h1380l129 -119v-68h-628q-148 1 -237 -110t-89 -293q0 -102 54 -168t135 -102t227 -85q146 -47 238 -93t159 -131q66 -85 66 -222q0 -90 -66 -160t-147 -98l-119 119v67q88 59 88 168q0 132 -165 209q-72 33 -216 84
q-144 52 -248 104t-177 149t-73 260z" />
    <glyph glyph-name="ninedeva" unicode="&#x96f;" horiz-adv-x="1392" 
d="M862 772q-208 0 -328 -93t-120 -257q0 -106 62 -179t155 -73q172 0 289 70t206 174l117 -123v-68q-86 -94 -229 -170t-263 -76t-251 83q-131 82 -218 218t-87 264t90 226t237 150q-116 80 -188 188t-72 208q0 194 157 276q75 40 179 40t212 -47t174 -124t67 -153
q0 -76 -74 -128q-74 -51 -178 -52l-41 4l-137 107v68q29 -15 75 -15t79 31q32 31 32 82q0 63 -89 63q-88 0 -150 -62t-62 -148q0 -180 168 -304q43 6 83 6t56 -2l115 -118v-68q-8 2 -66 2z" />
    <glyph glyph-name="abbreviationsigndeva" unicode="&#x970;" horiz-adv-x="1153" 
d="M717 956q0 142 -101 142q-72 -1 -126 -60t-54 -189t101 -130q72 0 126 59t54 178zM963 860q0 -182 -158 -258q-74 -37 -169 -37q-94 1 -200 57t-175 149t-69 185q1 182 157 258q73 37 169 37t202 -56q105 -56 174 -149q69 -94 69 -186z" />
    <glyph glyph-name="uni0971" unicode="&#x971;" horiz-adv-x="948" 
d="M705 1298h-68l-158 80v273h68l158 -80v-273z" />
    <glyph glyph-name="uni0972" unicode="&#x972;" horiz-adv-x="2048" 
d="M860 1333q0 129 -116 129q-60 0 -158.5 -50t-200.5 -136l-117 121v67q194 166 353 166q98 0 206.5 -65.5t182 -163.5t73.5 -184.5t-55 -167t-149 -131.5q55 -37 98 -74q150 -107 264.5 -107t210.5 61.5t225 213.5v411h-372l-117 119v68h919l117 -119l-2 -68h-321v-1443
h-68l-217 206l59 68v436q-129 -104 -299 -104q-123 0 -239 55q10 -27 10 -49q2 -74 -52.5 -146.5t-142.5 -118.5t-181 -46t-146 16l-439 412l62 71l110 -102q207 -188 357 -189q96 4 155.5 53.5t59.5 127.5q0 120 -307 317v68q237 103 237 278zM1446 2255q0 -180 301 -180
q178 0 289.5 92t136.5 258l80 65l164 -161q-16 -117 -92 -212.5t-197 -150.5t-273.5 -55t-306 61.5t-250 159.5t-96.5 191.5t17 170.5l61 68l182 -172q-16 -82 -16 -135z" />
    <glyph glyph-name="uni0973" unicode="&#x973;" horiz-adv-x="2048" 
d="M860 1333q0 129 -116 129q-60 0 -158.5 -50t-200.5 -136l-117 121v67q194 166 353 166q98 0 206.5 -65.5t182 -163.5t73.5 -184.5t-55 -167t-149 -131.5q55 -37 98 -74q150 -107 264.5 -107t210.5 61.5t225 213.5v411h-372l-117 119v68h919l117 -119l-2 -68h-321v-1443
h-68l-217 206l59 68v436q-129 -104 -299 -104q-123 0 -239 55q10 -27 10 -49q2 -74 -52.5 -146.5t-142.5 -118.5t-181 -46t-146 16l-439 412l62 71l110 -102q207 -188 357 -189q96 4 155.5 53.5t59.5 127.5q0 120 -307 317v68q237 103 237 278zM1903 1872h-68l-158 80v766
h68l158 -82v-764z" />
    <glyph glyph-name="uni0974" unicode="&#x974;" horiz-adv-x="2713" 
d="M860 1333q0 129 -116 129q-60 0 -158.5 -50t-200.5 -136l-117 121v67q194 166 353 166q98 0 206.5 -65.5t182 -163.5t73.5 -184.5t-55 -167t-149 -131.5q55 -37 98 -74q150 -107 264.5 -107t210.5 61.5t225 213.5v411h-372l-117 119v68h1153v698h67l158 -82v-616h205
l117 -119l-2 -68h-322v-1443h-67l-218 206l60 68v1169h-438v-1443h-68l-217 206l59 68v436q-129 -104 -299 -104q-123 0 -239 55q10 -27 10 -49q2 -74 -52.5 -146.5t-142.5 -118.5t-181 -46t-146 16l-439 412l62 71l110 -102q207 -188 357 -189q96 4 155.5 53.5t59.5 127.5
q0 120 -307 317v68q237 103 237 278z" />
    <glyph glyph-name="uni0975" unicode="&#x975;" horiz-adv-x="2713" 
d="M860 1337q0 129 -116 129q-60 0 -158.5 -50t-200.5 -136l-117 121v67q194 166 353 166q98 0 206.5 -65.5t182 -163.5t73.5 -184t-55 -167t-149 -132q55 -37 98 -74q150 -107 264.5 -107t210.5 61.5t225 213.5v411h-372l-117 119v68h1149l-338 295q-149 133 -357 133
q-88 0 -223 -25q-287 -64 -473 19q-100 45 -252 176l-329 280l61 72l301 -258q147 -131 354 -131q97 0 223 26t250.5 25.5t226 -46.5t251.5 -177l446 -387q143 41 143 137q0 59 -46 97t-131 79t-132 72q-112 74 -112 188q0 72 62 137.5t159 98.5l119 -119v-68
q-39 -4 -68 -37.5t-29 -81.5t51.5 -85t157 -84t159.5 -88t54 -117t-80 -150l103 -104l-2 -64h-322v-1443h-67l-218 206l60 68v1169h-438v-1443h-68l-217 206l59 68v436q-129 -104 -299 -104q-123 0 -239 55q10 -27 10 -49q2 -74 -52.5 -146.5t-142.5 -118.5t-181 -46
t-146 16l-439 412l62 71l110 -102q207 -188 357 -188q96 4 155.5 53t59.5 127q0 120 -307 317v68q237 103 237 278z" />
    <glyph glyph-name="uni0976" unicode="&#x976;" horiz-adv-x="2048" 
d="M860 1333q0 129 -116 129q-60 0 -158.5 -50t-200.5 -136l-117 121v67q194 166 353 166q98 0 206.5 -65.5t182 -163.5t73.5 -184.5t-55 -167t-149 -131.5q55 -37 98 -74q150 -107 264.5 -107t210.5 61.5t225 213.5v411h-372l-117 119v68h919l117 -119l-2 -68h-321v-1443
h-68l-217 206l59 68v436q-129 -104 -299 -104q-123 0 -239 55q10 -27 10 -49q2 -74 -52.5 -146.5t-142.5 -118.5t-181 -46t-146 16l-439 412l62 71l110 -102q207 -188 357 -189q96 4 155.5 53.5t59.5 127.5q0 120 -307 317v68q237 103 237 278zM1363 -541q-95 0 -196 15
l-319 250l61 69q164 -117 324 -117q244 0 481 144l115 -119v-68q-121 -80 -246 -127t-220 -47z" />
    <glyph glyph-name="uni0977" unicode="&#x977;" horiz-adv-x="2048" 
d="M1231 -743q243 0 481 143l115 -119v-67q-121 -80 -246 -127.5t-220 -47.5t-196 15l-319 250l61 69q163 -116 324 -116zM1361 -541q-95 0 -196 15l-319 250l61 69q164 -117 324 -117q242 0 481 144l115 -119v-68q-121 -80 -246 -127t-220 -47zM860 1333q0 129 -116 129
q-60 0 -158.5 -50t-200.5 -136l-117 121v67q194 166 353 166q98 0 206.5 -65.5t182 -163.5t73.5 -184.5t-55 -167t-149 -131.5q55 -37 98 -74q150 -107 264.5 -107t210.5 61.5t225 213.5v411h-372l-117 119v68h919l117 -119l-2 -68h-321v-1443h-68l-217 206l59 68v436
q-129 -104 -299 -104q-123 0 -239 55q10 -27 10 -49q2 -74 -52.5 -146.5t-142.5 -118.5t-181 -46t-146 16l-439 412l62 71l110 -102q207 -188 357 -189q96 4 155.5 53.5t59.5 127.5q0 120 -307 317v68q237 103 237 278z" />
    <glyph glyph-name="uni0979" unicode="&#x979;" horiz-adv-x="1583" 
d="M1530 1423v-1443h-68l-217 206l60 68v483h-676l428 -372q18 -47 18 -118t-49 -133.5t-136 -98t-195 -35.5t-187 14l-434 340l61 69q195 -158 296 -211t193 -53t148.5 50.5t56.5 140.5q0 43 -37.5 110.5t-123.5 143.5l-316 272l62 68h891v499h-1285l-116 119v68h1831
l116 -119v-68h-321zM348 -451h-67l-158 80v273h67l158 -80v-273zM721 -748h-68l-157 80v273h67l158 -80v-273zM1030 -451h-67l-158 80v273h67l158 -80v-273z" />
    <glyph glyph-name="uni097B" unicode="&#x97b;" horiz-adv-x="1482" 
d="M1337 1423v-1747h-1122l-145 121v68h1042v1558h-383v-645q0 -61 -40 -130.5t-97 -117.5q-56 -48 -112 -47.5t-140 60t-144.5 142.5t-60.5 146q0 35 51.5 64t132.5 29t185 -25v524h-596l-119 119v68h1753l117 -119v-68h-322z" />
    <glyph glyph-name="uni097C" unicode="&#x97c;" horiz-adv-x="1716" 
d="M1571 1423v-1747h-1292l-146 121v68h1213v872h-717l428 -372q18 -47 18 -118t-49 -133.5t-136 -98t-195 -35.5t-187 14l-434 340l61 69q195 -158 296 -211t193 -53t148.5 50.5t56.5 140.5q0 43 -37.5 110.5t-123.5 143.5l-316 272l62 68h932v499h-1326l-116 119v68h1872
l116 -119v-68h-321z" />
    <glyph glyph-name="uni097D" unicode="&#x97d;" horiz-adv-x="1511" 
d="M1282 1053q0 -139 -60 -255t-164 -185t-224 -68h-115v-565h-68l-157 79v695h67l41 -21h109q149 0 237 110t88 291t-78 269t-252 88t-287 -129q-112 -129 -112 -350l-80 -66l-164 162q0 154 70 278t193 194q124 71 282 71t317 -88q159 -87 258 -229t99 -281z" />
    <glyph glyph-name="uni097E" unicode="&#x97e;" horiz-adv-x="1427" 
d="M535 848q0 -43 29.5 -74t111.5 -74q162 113 258 113t209.5 -72.5t189.5 -181t76 -209.5q0 -76 -100.5 -164t-248 -147t-252 -59t-218.5 16l-578 498l62 69l286 -244q152 -133 392 -133q102 0 205.5 42t170 106.5t66.5 119t-42 96.5t-89 42q-104 0 -264 -90q-98 8 -212 85
t-191 181t-77 185t47.5 144.5t128 100.5t175.5 37h329v188h-1091l-117 119v68h1710l117 -119v-68h-393v-374h-428l-2 -2q-111 0 -185.5 -57.5t-74.5 -141.5zM1516 -324h-1125l-145 121v68h1124l146 -121v-68z" />
    <glyph glyph-name="uni097F" unicode="&#x97f;" horiz-adv-x="1296" 
d="M606 492q88 0 160 61l-313 264q-18 -45 -19 -98q0 -227 172 -227zM1473 1425h-322v-1747h-811l-145 121v68h731v539q-86 -70 -205 -70t-245 65.5t-209 174t-83 215t54.5 180t150.5 114.5t215 39l117 -118v-68q-31 6 -66 6q-90 0 -149 -53l323 -273q20 27 97 144v661h-906
l-116 119v68h1452l117 -117v-68z" />
    <glyph glyph-name="uni0FD5" unicode="&#xfd5;" horiz-adv-x="2287" 
d="M1354 897h700v-917h-67l-158 79v650h-475v-709h-944v76l79 110h639v523h-698v921h68l157 -80v-653h473v713h949v-76l-82 -111h-641v-526z" />
    <glyph glyph-name="uni0FD6" unicode="&#xfd6;" horiz-adv-x="2287" 
d="M1133 897v526h-641l-82 111v76h948v-713h473v653l158 80h67v-921h-698v-523h639l80 -110v-76h-944v709h-476v-650l-157 -79h-68v917h701z" />
    <glyph glyph-name="uni0FD7" unicode="&#xfd7;" horiz-adv-x="2287" 
d="M1743 498v-68l-152 -184l-143 149v68l154 182zM887 246l-144 149v68l154 182l141 -147v-68zM1602 1358l141 -148v-67l-152 -182l-143 147v68zM743 1108v68l154 182l141 -148v-67l-151 -182zM1354 1423v-526h700v-917h-67l-158 79v650h-475v-709h-944v76l79 110h639v523
h-698v921h68l157 -80v-653h473v713h949v-76l-82 -111h-641z" />
    <glyph glyph-name="uni0FD8" unicode="&#xfd8;" horiz-adv-x="2287" 
d="M1589 647l152 -184v-68l-142 -147l-153 182v68zM1036 463v-68l-141 -147l-154 182v68l144 149zM1446 1143v67l143 150l152 -184v-68l-142 -147zM895 961l-154 182v67l144 150l151 -184v-68zM2077 0h-944v709h-474v-650l-157 -79h-68v917h699v526h-641l-80 111v76h946
v-713h473v653l158 80h67v-921h-698v-523h639l80 -110v-76z" />
    <glyph glyph-name="Wgrave" unicode="&#x1e80;" horiz-adv-x="2412" 
d="M580 1608v-54l-150 -114l430 -1223l318 877l-109 325l-190 119l34 72h580v-54l-176 -145l383 -1188l434 1198l-373 117l37 72h615v-56l-175 -137l-497 -1354l-185 -104l-333 995l-320 -891l-184 -104l-522 1454l-195 123l37 72h541zM1303 1913l-437 362l37 39l254 39
l219 -401z" />
    <glyph glyph-name="wgrave" unicode="&#x1e81;" horiz-adv-x="1818" 
d="M1741 1085v-53l-453 -1032h-135l-221 537l-268 -537h-136l-325 791l-187 108v53l330 172l78 -309l254 -622l209 454l-60 144l-186 108v53l330 172l78 -309l247 -606l252 598l-282 207l37 71h438zM952 1386l-436 363l37 39l254 39l219 -402z" />
    <glyph glyph-name="Wacute" unicode="&#x1e82;" horiz-adv-x="2412" 
d="M580 1608v-54l-150 -114l430 -1223l318 877l-109 325l-190 119l34 72h580v-54l-176 -145l383 -1188l434 1198l-373 117l37 72h615v-56l-175 -137l-497 -1354l-185 -104l-333 995l-320 -891l-184 -104l-522 1454l-195 123l37 72h541zM1659 2275l-434 -362l-76 39l219 401
l254 -39z" />
    <glyph glyph-name="wacute" unicode="&#x1e83;" horiz-adv-x="1818" 
d="M1741 1085v-53l-453 -1032h-135l-221 537l-268 -537h-136l-325 791l-187 108v53l330 172l78 -309l254 -622l209 454l-60 144l-186 108v53l330 172l78 -309l247 -606l252 598l-282 207l37 71h438zM1309 1749l-435 -363l-75 39l219 402l254 -39z" />
    <glyph glyph-name="Wdieresis" unicode="&#x1e84;" horiz-adv-x="2412" 
d="M580 1608v-54l-150 -114l430 -1223l318 877l-109 325l-190 119l34 72h580v-54l-176 -145l383 -1188l434 1198l-373 117l37 72h615v-56l-175 -137l-497 -1354l-185 -104l-333 995l-320 -891l-184 -104l-522 1454l-195 123l37 72h541zM1436 2081q0 51 23.5 89t59 60.5
t77.5 22.5t75 -41t33 -93.5t-23.5 -89t-59.5 -59t-78 -22.5t-74.5 41t-32.5 92zM817 2081q0 51 23.5 89t59.5 60.5t78 22.5t74.5 -41t32.5 -93.5t-23.5 -89t-59 -59t-77.5 -22.5t-75 41t-33 92z" />
    <glyph glyph-name="wdieresis" unicode="&#x1e85;" horiz-adv-x="1818" 
d="M1741 1085v-53l-453 -1032h-135l-221 537l-268 -537h-136l-325 791l-187 108v53l330 172l78 -309l254 -622l209 454l-60 144l-186 108v53l330 172l78 -309l247 -606l252 598l-282 207l37 71h438zM1047 1553.5q0 52.5 24.5 90t60 60t77.5 22.5t75 -39.5t33 -92
t-23.5 -91.5t-59.5 -61.5t-78 -22.5t-75.5 41t-33.5 93.5zM504 1553.5q0 52.5 24.5 90t60.5 60t77.5 22.5t74.5 -39.5t33 -92t-23.5 -91.5t-59.5 -61.5t-78 -22.5t-75.5 41t-33.5 93.5z" />
    <glyph glyph-name="uni1E9E" unicode="&#x1e9e;" horiz-adv-x="1820" 
d="M1657 952v-67l-672 -660h504l88 166l51 -18v-410l-102 37h-819v68l675 659h-598v68l576 583q-94 28 -183 58q-229 76 -362 76q-133 -2 -206 -78t-72 -201v-1233h-426v53l192 150v948q0 102 84 220t206 199q123 81 239 81q116 -1 368 -21t457 -20v-51l-576 -607h576z" />
    <glyph glyph-name="Ygrave" unicode="&#x1ef2;" horiz-adv-x="1626" 
d="M494 0v53l192 152v385l-520 844l-166 104l41 72h608v-54l-196 -151l417 -686l439 694l-332 125l35 72h614v-54l-162 -94l-542 -860v-455l213 -75l-37 -72h-604zM854 1913l-436 362l37 39l254 39l219 -401z" />
    <glyph glyph-name="ygrave" unicode="&#x1ef3;" horiz-adv-x="1257" 
d="M1174 1034l-517 -1032l-415 -541l-68 54q119 125 180.5 219t86 190t22.5 230l-262 637l-187 108v53l330 172l78 -309l254 -625l299 625l-268 199l34 71l433 2v-53zM647 1386l-436 363l37 39l254 39l219 -402z" />
    <glyph glyph-name="zerowidthspace" unicode="&#x200b;" horiz-adv-x="0" 
 />
    <glyph glyph-name="uni200C" unicode="&#x200c;" horiz-adv-x="0" 
 />
    <glyph glyph-name="uni200D" unicode="&#x200d;" horiz-adv-x="0" 
 />
    <glyph glyph-name="endash" unicode="&#x2013;" horiz-adv-x="1462" 
d="M82 668h1298v-74h-1298v74z" />
    <glyph glyph-name="emdash" unicode="&#x2014;" horiz-adv-x="2123" 
d="M82 668h1960v-74h-1960v74z" />
    <glyph glyph-name="quoteleft" unicode="&#x2018;" horiz-adv-x="741" 
d="M482 1413q-44 -92 -52 -209l156 -88v-53l-334 -170l-68 297l383 500l68 -54v-2q-109 -129 -153 -221z" />
    <glyph glyph-name="quoteright" unicode="&#x2019;" horiz-adv-x="757" 
d="M176 893l-67 53q109 129 152 221q44 92 52 209l-157 90v54l333 170l70 -297z" />
    <glyph glyph-name="quotesinglbase" unicode="&#x201a;" horiz-adv-x="741" 
d="M176 -541l-67 54q109 129 152 221q44 92 52 207l-157 92v53l333 170l70 -297z" />
    <glyph glyph-name="quotedblleft" unicode="&#x201c;" horiz-adv-x="1253" 
d="M1015 1413q-44 -92 -52 -209l155 -88v-53l-334 -170l-67 297l383 500l67 -54v-2q-108 -129 -152 -221zM503 1413q-44 -92 -52 -209l155 -88v-53l-334 -170l-67 297l383 500l67 -54v-2q-108 -129 -152 -221z" />
    <glyph glyph-name="quotedblright" unicode="&#x201d;" horiz-adv-x="1269" 
d="M688 893l-67 53q109 129 152 221q44 92 52 209l-157 90v54l333 170l70 -297zM176 893l-67 53q109 129 152 221q44 92 52 209l-157 90v54l333 170l70 -297z" />
    <glyph glyph-name="quotedblbase" unicode="&#x201e;" horiz-adv-x="1253" 
d="M688 -541l-67 54q109 129 152 221q44 92 52 207l-157 92v53l333 170l70 -297zM176 -541l-67 54q109 129 152 221q44 92 52 207l-157 92v53l333 170l70 -297z" />
    <glyph glyph-name="dagger" unicode="&#x2020;" horiz-adv-x="1343" 
d="M1120 856h-43l-69 117l-289 53l112 -399l-126 -1129l-33 -41l-33 41l-117 963l107 553l-269 -119l-292 121l155 239h43l68 -114l293 -56l-103 451l-112 68v43l350 180l76 -318l-111 -407l256 117l295 -123z" />
    <glyph glyph-name="daggerdbl" unicode="&#x2021;" horiz-adv-x="1353" 
d="M1130 25h-43l-67 114l-293 56l102 -449l113 -68v-43l-350 -180l-76 318l111 407l-256 -117l-293 123l155 240h43l70 -117l287 -53l-109 301l105 457l-267 -119l-292 121l155 239h43l68 -114l293 -56l-103 451l-112 68v43l350 180l76 -318l-111 -407l256 117l295 -123
l-158 -240h-43l-69 117l-287 53l108 -301l-104 -457l266 119l295 -123z" />
    <glyph glyph-name="bullet" unicode="&#x2022;" horiz-adv-x="974" 
d="M807 590q0 -108 -52 -188q-52 -79 -131 -126t-153 -47q-113 0 -185 86q-72 85 -73 195q0 110 52 189t131 126t153 47q114 0 186 -87t72 -195z" />
    <glyph glyph-name="ellipsis" unicode="&#x2026;" horiz-adv-x="2541" 
d="M608 161q0 -54 -26 -94t-65 -64q-40 -23 -86 -23t-83 43t-37 97q0 102 91 158q40 24 87 24t83 -44q36 -43 36 -97zM1419 161q1 -54 -25 -94t-66 -64q-40 -23 -86 -23t-83 43t-37 97q0 102 91 158q40 24 87 24t83 -44q36 -43 36 -97zM2230 161q0 -54 -26 -94t-65 -64
q-40 -23 -86 -23t-83 43t-37 97q0 102 91 158q40 24 87 24t83 -44q36 -43 36 -97z" />
    <glyph glyph-name="perthousand" unicode="&#x2030;" horiz-adv-x="3407" 
d="M301 1430q0 -140 85 -236t247 -96q262 0 262 245q0 141 -87 237t-249 95q-258 1 -258 -245zM538 963q-122 0 -222 52t-154 144q-56 92 -56 206t86 217q86 102 215 164q128 62 251 62t222 -53t154 -143q56 -90 56 -205t-86 -218t-216 -165q-128 -62 -250 -61zM345 -284
l-64 45l1627 2177l66 -43zM1296 231q0 -141 85 -237t247 -96q262 0 262 247q0 141 -87 237t-249 95q-258 0 -258 -246zM2085 209q0 -115 -86 -218t-215 -165t-251 -62t-221 52t-155 145q-55 92 -55 206t86 217q86 102 214 164t251 62t222 -53t155 -143t55 -205zM2515 229
q0 -141 85 -237t247 -96q262 0 262 247q0 141 -87 237t-249 95q-258 0 -258 -246zM3303 207q0 -115 -86 -218t-215 -165q-258 -123 -472 -9q-99 52 -154 144q-56 92 -56 206t86 217q86 102 214 164t252 62t222 -53q99 -53 154 -143t55 -205z" />
    <glyph glyph-name="minute" unicode="&#x2032;" horiz-adv-x="768" 
d="M711 1571l-557 -586l-74 39l340 625l254 -39z" />
    <glyph glyph-name="second" unicode="&#x2033;" horiz-adv-x="1257" 
d="M711 1571l-557 -586l-74 39l340 625l254 -39zM1200 1571l-557 -586l-74 39l340 625l254 -39z" />
    <glyph glyph-name="uni2034" unicode="&#x2034;" horiz-adv-x="1746" 
d="M711 1571l-557 -586l-74 39l340 625l254 -39zM1200 1571l-557 -586l-74 39l340 625l254 -39zM1690 1571l-557 -586l-74 39l340 625l254 -39z" />
    <glyph glyph-name="guilsinglleft" unicode="&#x2039;" horiz-adv-x="825" 
d="M676 98l-62 -43l-505 490l505 491l62 -43l-260 -403z" />
    <glyph glyph-name="guilsinglright" unicode="&#x203a;" horiz-adv-x="825" 
d="M211 53l-61 43l260 404l-260 491l61 43l506 -491z" />
    <glyph glyph-name="asterism" unicode="&#x2042;" horiz-adv-x="3272" 
d="M2863 -510l-295 12l-26 47l161 82l-204 353l34 20l275 -197zM2490 -12l-32 -336l-248 -207l-135 260l24 47l152 -98l205 352zM2540 10v41l307 139l303 -110l-160 -250h-53l12 180h-409zM2454 55v-41l-308 -139l-303 113l160 248h53l-12 -181h410zM2494 82l-34 -21
l-275 197l-55 317l295 -12l26 -47l-159 -82zM2503 80l34 336l246 207l135 -263l-24 -47l-152 101l-205 -355zM1989 989l-295 12l-27 48l162 81l-205 353l35 20l274 -196zM1616 1487l-33 -336l-248 -207l-135 260l25 47l151 -98l205 352zM1665 1509v41l307 140l303 -111
l-159 -250h-54l13 180h-410zM1579 1554v-41l-307 -139l-303 113l159 248h54l-13 -181h410zM1620 1581l-35 -20l-274 196l-56 318l295 -13l27 -47l-160 -82zM1628 1579l35 336l246 207l135 -262l-25 -48l-151 101l-205 -354zM1143 -510l-295 12l-27 47l162 82l-205 353l35 20
l274 -197zM770 -12l-33 -336l-248 -207l-135 260l25 47l151 -98l205 352zM819 10v41l307 139l304 -110l-160 -250h-53l12 180h-410zM733 55v-41l-307 -139l-303 113l160 248h53l-12 -181h409zM774 82l-35 -21l-274 197l-55 317l295 -12l26 -47l-160 -82zM782 80l35 336
l246 207l135 -263l-24 -47l-152 101l-205 -355z" />
    <glyph glyph-name="fraction" unicode="&#x2044;" horiz-adv-x="462" 
d="M-371 -391l-69 35l1271 2394l72 -33z" />
    <glyph glyph-name="uni2051" unicode="&#x2051;" horiz-adv-x="1429" 
d="M1081 989l-295 12l-26 48l162 81l-205 353l35 20l274 -196zM709 1487l-33 -336l-248 -207l-135 260l24 47l152 -98l205 352zM758 1509v41l307 140l303 -111l-160 -250h-53l12 180h-409zM672 1554v-41l-307 -139l-304 113l160 248h53l-12 -181h410zM713 1581l-35 -20
l-275 196l-55 318l295 -13l27 -47l-160 -82zM721 1579l35 336l245 207l136 -262l-25 -48l-151 101l-205 -354zM1081 -510l-295 12l-26 47l162 82l-205 353l35 20l274 -197zM709 -12l-33 -336l-248 -207l-135 260l24 47l152 -98l205 352zM758 10v41l307 139l303 -110
l-160 -250h-53l12 180h-409zM672 55v-41l-307 -139l-304 113l160 248h53l-12 -181h410zM713 82l-35 -21l-275 197l-55 317l295 -12l27 -47l-160 -82zM721 80l35 336l245 207l136 -263l-25 -47l-151 101l-205 -355z" />
    <glyph glyph-name="uni2055" unicode="&#x2055;" horiz-adv-x="1546" 
d="M1399 356q0 -27 -19 -57q-33 -55 -85 -55q-53 0 -117 48t-170 146q-88 86 -146 127l29 49q55 -24 203 -71t227 -86q78 -39 78 -101zM942 115q0 -133 -108 -133t-107 137q1 69 23 170t36 163t19 109q-47 -35 -151 -130t-169 -143t-115 -48t-83 55q-18 31 -19 57
q0 64 82 106t212 81t202 67l-133 31q-123 25 -197 47q-178 52 -178 152q0 41 29 90q49 84 115 84t139 -62q72 -62 184 -188l78 -86q-8 61 -43 212t-35 224q-1 133 107 133t108 -135q0 -82 -41 -254q-4 -23 -18 -84t-19 -106q46 35 148 129t169 143t117 49t84 -55
q47 -82 -26 -137q-46 -35 -108 -60t-180 -59t-175 -60l-29 50h-53l-31 -54h6l29 -49l53 2q5 -48 42 -220q36 -172 36 -228z" />
    <glyph glyph-name="uni2057" unicode="&#x2057;" horiz-adv-x="2236" 
d="M711 1571l-557 -586l-74 39l340 625l254 -39zM1200 1571l-557 -586l-74 39l340 625l254 -39zM1690 1571l-557 -586l-74 39l340 625l254 -39zM2177 1571l-557 -586l-74 39l340 625l254 -39z" />
    <glyph glyph-name="zerosuperior" unicode="&#x2070;" horiz-adv-x="1280" 
d="M344 1303q0 -141 85 -237t247 -95q262 0 262 246q0 141 -87 236t-249 95q-258 1 -258 -245zM580 836q-122 0 -220 52q-100 52 -155 144t-55 206t86 217t214 165t251 61q123 0 222 -53t154 -143t55 -205t-85 -218q-85 -102 -215 -164t-252 -62z" />
    <glyph glyph-name="foursuperior" unicode="&#x2074;" horiz-adv-x="1159" 
d="M668 1034v439l-400 -439h400zM848 922v-293l-180 -86v379h-607v55l607 647l180 84v-674h250l-58 -112h-192z" />
    <glyph glyph-name="fivesuperior" unicode="&#x2075;" horiz-adv-x="1101" 
d="M827 975q0 -129 -101 -224q-102 -95 -250 -157t-351 -123l-23 84q225 70 339 123t153 104q39 52 39 118t-38 114q-72 90 -456 241l101 412h465l53 119l51 -19v-286l-92 26h-436l-33 -131q435 -179 531 -285q48 -54 48 -116z" />
    <glyph glyph-name="sixsuperior" unicode="&#x2076;" horiz-adv-x="1267" 
d="M391 1352q0 -170 81 -275q81 -106 235 -106q211 0 211 217q0 131 -100 223t-255 135l43 76q143 0 260 -48t183 -132q65 -84 65 -186t-74 -199t-190 -159t-237 -62q-120 0 -215 58t-148 160t-53 242t64 274q136 279 695 546l35 -72q-318 -182 -459 -352t-141 -340z" />
    <glyph glyph-name="sevensuperior" unicode="&#x2077;" horiz-adv-x="1134" 
d="M999 1667v-68l-649 -1128l-90 31l586 1005h-598l-51 -104l-52 18v271l93 -25h761z" />
    <glyph glyph-name="eightsuperior" unicode="&#x2078;" horiz-adv-x="1259" 
d="M352 1230q0 -66 46 -134t122 -109t160 -41v4q106 1 171 59t65 147t-142 177q-59 37 -145 81t-99 52q-110 -76 -144 -123t-34 -113zM436 1836q0 -73 71 -132t208 -129q76 80 96 121t20 90q0 92 -62 153t-157 62v-2q-74 0 -125 -45t-51 -118zM1108 1223q0 -87 -72 -175
t-175 -150t-189 -62q-147 0 -265 45t-184 124q-65 79 -65 164t66 161t214 190q-94 59 -145 120q-51 62 -51 136t66 152t164 133q179 100 366 19q82 -36 128 -95t46 -130q-6 -67 -49 -137t-160 -186l2 -2q145 -76 224 -148t79 -159z" />
    <glyph glyph-name="ninesuperior" unicode="&#x2079;" horiz-adv-x="1247" 
d="M555 1548q-209 0 -209 -231q0 -119 93 -210t243 -136l-41 -78q-139 0 -252 48t-176 133q-63 84 -63 186t73 200q74 98 191 160q116 62 236 61q120 0 215 -52t149 -142q54 -91 53 -223q0 -132 -65 -263q-138 -277 -697 -530l-35 74q602 335 602 661q0 154 -81 248
q-82 94 -236 94z" />
    <glyph glyph-name="zeroinferior" unicode="&#x2080;" horiz-adv-x="1280" 
d="M344 291q0 -141 85 -237t247 -97q262 0 262 248q0 141 -87 236t-249 96q-258 0 -258 -246zM580 -176q-122 0 -220 52q-100 52 -155 144t-55 206t86 217t214 165t251 61q123 0 222 -53t154 -143t55 -205t-85 -218q-85 -102 -215 -164t-252 -62z" />
    <glyph glyph-name="oneinferior" unicode="&#x2081;" horiz-adv-x="804" 
d="M113 -162v58l159 110v524l-174 56l29 69h483v-57l-157 -109v-526l172 -55l-29 -70h-483z" />
    <glyph glyph-name="twoinferior" unicode="&#x2082;" horiz-adv-x="987" 
d="M88 -160v54q402 282 476 382q42 57 42 116t-62 104t-162 45t-241 -109l-49 66l238 164q43 10 96 10q166 0 267 -58t102 -151q0 -141 -406 -465h383l53 119l49 -17v-286l-92 26h-694z" />
    <glyph glyph-name="threeinferior" unicode="&#x2083;" horiz-adv-x="958" 
d="M803 -41q0 -155 -168 -273t-539 -227l-22 82q219 68 332 118q114 50 158 103q44 52 44 116t-44 104t-175 108v51q90 97 120 145t30 106q1 58 -51 100q-52 43 -146 43t-236 -111l-49 70l236 163q27 13 96 13t157 -29t137 -77q50 -48 50 -103q-4 -49 -40 -105t-122 -139h-4
q136 -82 186 -138t50 -120z" />
    <glyph glyph-name="fourinferior" unicode="&#x2084;" horiz-adv-x="1159" 
d="M668 23v438l-400 -438h400zM848 -90v-293l-180 -86v379h-607v55l607 647l180 84v-673h250l-58 -113h-192z" />
    <glyph glyph-name="fiveinferior" unicode="&#x2085;" horiz-adv-x="1101" 
d="M827 -37q0 -129 -101 -224q-102 -95 -250 -157t-351 -123l-23 82q225 72 339 125q114 52 153 104t39 118t-38 114q-72 89 -456 242l101 411h465l53 119l51 -18v-287l-92 27h-436l-33 -131q437 -180 531 -286q48 -54 48 -116z" />
    <glyph glyph-name="sixinferior" unicode="&#x2086;" horiz-adv-x="1267" 
d="M707 -43q209 0 211 219q0 131 -100 223t-255 136l43 75q143 0 260 -48t183 -132q65 -84 65 -185t-74 -199t-190 -160t-237 -62q-120 0 -215 58t-148 160t-53 242t64 274q136 279 695 546l35 -72q-318 -182 -459 -352t-141 -339t81 -277t235 -107z" />
    <glyph glyph-name="seveninferior" unicode="&#x2087;" horiz-adv-x="1134" 
d="M999 655v-67l-649 -1129l-90 31l586 1006h-598l-51 -105l-52 19v270l93 -25h761z" />
    <glyph glyph-name="eightinferior" unicode="&#x2088;" horiz-adv-x="1259" 
d="M352 218q0 -68 46 -136t122 -109t160 -41v5q106 0 171 59q65 60 65 128t-42 114q-41 46 -100 84q-59 37 -145 81t-99 52q-110 -76 -144 -123t-34 -114zM436 824q0 -73 71 -132t208 -129q76 80 96 121t20 90q0 92 -62 154t-157 61v-2q-74 0 -125 -45t-51 -118zM1108 212
q0 -87 -72 -176q-72 -88 -175 -150t-189 -62q-147 0 -265 45t-184 124q-65 79 -65 164t66 161t214 190q-94 58 -145 120t-51 136t66 152t164 134q97 54 190 54q94 0 176 -36t128 -95t46 -129q-6 -66 -49 -136t-160 -188l2 -2q145 -75 224 -147t79 -159z" />
    <glyph glyph-name="nineinferior" unicode="&#x2089;" horiz-adv-x="1247" 
d="M555 537q-209 0 -209 -232q0 -119 93 -210t243 -136l-41 -78q-139 -2 -252 46t-176 134q-63 85 -63 187t73 201q74 98 191 159q116 61 236 61t215 -52t149 -142q54 -89 53 -223q0 -134 -65 -264q-136 -273 -697 -529l-35 72q602 335 602 663q0 154 -81 248
q-82 94 -236 95z" />
    <glyph glyph-name="Euro" unicode="&#x20ac;" horiz-adv-x="1800" 
d="M274 778q0 60 13 123h-289l39 74h266q53 190 193 345t315 242q176 87 334 87q105 0 245 -31t203 -66v-389h-55q-193 326 -512 326q-125 0 -230 -66q-105 -67 -175 -183t-89 -265h725l-38 -74h-693v-37q0 -86 13 -170h585l-37 -73h-536q51 -227 192 -367t369 -139
q170 0 494 274l55 -94l-377 -293q-123 -45 -301 -45t-330 83q-153 84 -247 234t-121 347h-287l39 73h239q-2 24 -2 84z" />
    <glyph glyph-name="uni20B9" unicode="&#x20b9;" horiz-adv-x="1384" 
d="M455 780q123 0 195 79t71 220v43h-561l37 74h518q-25 154 -114 245t-241 91h-200l37 74h1050l-37 -74h-430q90 -53 142 -140t53 -194h276l-37 -74h-245q-20 -88 -91 -172t-171 -143t-203 -84l311 -74l191 -481l215 -104l-35 -72h-369l-178 436q-78 152 -166 214t-244 63
h-61l39 73h248z" />
    <glyph glyph-name="uni2113" unicode="&#x2113;" horiz-adv-x="1146" 
d="M477 1366v-494q313 264 314 476q0 56 -27 122t-74 113t-98 47t-83 -71q-32 -72 -32 -193zM252 1270q0 141 76 266t191 199q116 74 226 73q45 0 105 -52t102 -132q43 -80 43 -160q0 -334 -518 -714v-439q0 -170 137 -170v-2q89 0 226 88l39 -69l-205 -164
q-43 -16 -105 -17q-165 -1 -241 89t-76 276v358q-191 -107 -215 -127l-37 70l252 164v463z" />
    <glyph glyph-name="uni2116" unicode="&#x2116;" horiz-adv-x="3104" 
d="M2957 0h-1056l38 74h1055zM1905 410l37 73h1050l-37 -73h-1050zM2189 1249q0 -157 78 -265t223 -107q219 0 220 274q0 160 -78 266t-224 107q-219 -1 -219 -275zM1690 1610v-54l-195 -149v-1407h-98l-977 1257v-1077l201 -108l-37 -72h-455v53l193 150v1222l-211 113
l34 72h299l953 -1227v1047l-199 108l37 72h455zM1968 1176q0 122 85 233t213 177t248 65t214 -57t147 -152t53 -218t-84 -233q-85 -111 -212 -177t-247 -64q-120 0 -215 56t-149 152q-53 96 -53 218z" />
    <glyph glyph-name="uni2117" unicode="&#x2117;" horiz-adv-x="2058" 
d="M1071 797q143 0 143 149q0 80 -50 138t-148 59q-25 0 -47 -13v-600l211 -84l-39 -77h-537v57l137 115v583l-157 54l41 73h141q120 -1 244 11t172 12q126 0 204 -79t78 -206q0 -71 -61 -139t-153 -114t-175 -54l-45 35zM1688 758q0 192 -77 361t-235 269t-393 101
q-174 0 -313 -81t-219 -222t-80 -332q1 -190 77 -360t235 -272t392 -101q175 0 315 80t219 222q79 143 79 335zM938 -41q-220 0 -402 103q-182 104 -284 288t-102 421t150 441t375 321q223 117 445 117t405 -104t284 -288t101 -422q0 -236 -150 -439q-151 -203 -376 -321
q-226 -118 -446 -117z" />
    <glyph glyph-name="trademark" unicode="&#x2122;" horiz-adv-x="2209" 
d="M1659 967v41l76 49v358l-203 -448h-105l-208 475v-393l96 -33l-41 -49h-246v41l96 61v455l-116 37l41 49h307l172 -422l192 422h301v-41l-96 -60v-467l117 -26l-41 -49h-342zM643 1548v-508l119 -24l-41 -49h-367v41l97 61v479h-113l-115 -176l-69 23v231l94 -16h600
l94 16v-231l-70 -23l-112 176h-117z" />
    <glyph glyph-name="Ohm" unicode="&#x2126;" horiz-adv-x="1888" 
d="M1014 -2v520q134 4 242 60t170 152q62 94 62 230t-64 260q-66 124 -198 196t-300 73q-323 0 -461 -208q-66 -97 -66 -216q0 -207 120 -359t353 -188v-520h-579l-103 -37v375l52 14l276 -272h158v295q-154 31 -274 115t-186 207q-67 124 -66 272q0 184 137 341
q137 156 341 248t402 92t364 -79q165 -80 255 -218t90 -292t-74 -275t-195 -212t-258 -144v-348h156l279 270l51 -14v-375l-103 37h-581z" />
    <glyph glyph-name="estimated" unicode="&#x212e;" horiz-adv-x="1980" 
d="M489 860h1004v486q-200 192 -503 192q-302 0 -501 -195v-483zM995 -39q-247 0 -439 108q-192 109 -300 301t-106 434q0 242 108 436q108 192 300 300t434 109q242 0 434 -109q191 -110 299 -302t108 -433v-41l-1344 2v-502q198 -190 504 -190q190 0 349 94t241 256h156
q-100 -215 -299 -339t-445 -124z" />
    <glyph glyph-name="uni2153" unicode="&#x2153;" horiz-adv-x="2295" 
d="M188 850v59l160 109v524l-174 55l29 70h483v-57l-158 -109v-526l172 -53l-28 -72h-484zM504 -391l-70 35l1272 2394l72 -33zM2140 -41q0 -155 -168 -273t-538 -227l-23 82q219 68 332 118t158 103q45 52 45 116t-44 104t-176 108v51q90 97 120 145t30 106t-51 100
q-51 43 -145 43t-236 -111l-49 70l235 163q26 13 96 13t157 -29t137 -77t51 -103q-4 -49 -40 -105t-122 -139h-4q135 -82 185 -138t50 -120z" />
    <glyph glyph-name="uni2154" unicode="&#x2154;" horiz-adv-x="2406" 
d="M88 852v53q400 281 475 383q43 57 43 116q0 60 -62 104t-162 44t-241 -108l-49 65l238 164q43 10 96 10q166 0 267 -58t102 -150q0 -141 -406 -465h383l53 118l49 -16v-287l-92 27h-694zM616 -391l-69 35l1272 2394l71 -33zM2251 -41q0 -155 -168 -273t-539 -227l-22 82
q220 68 332 118t157 103q45 52 45 116t-44 104t-175 108v51q90 97 120 145t30 106q1 58 -51 100q-52 43 -146 43t-236 -111l-49 70l236 163q27 13 96 13t157 -29t137 -77q50 -48 50 -103q-4 -49 -40 -105t-122 -139h-4q136 -82 186 -138t50 -120z" />
    <glyph glyph-name="oneeighth" unicode="&#x215b;" horiz-adv-x="2596" 
d="M188 850v59l160 109v524l-174 55l29 70h483v-57l-158 -109v-526l172 -53l-28 -72h-484zM504 -391l-70 35l1272 2394l72 -33zM2253 124q0 68 -41 114q-40 46 -100 84q-60 37 -146 81t-98 52q-109 -76 -144 -123q-34 -47 -34 -114q0 -68 46 -136t122 -109t159 -41v5
q106 0 171 59q65 60 65 128zM1774 824q0 -73 70 -132t208 -129q76 80 96 121t21 90q-1 92 -63 154t-156 61v-2q-74 0 -125 -45t-51 -118zM2445 212q1 -87 -71 -176q-72 -88 -175 -150t-190 -62q-147 0 -265 45t-184 124t-65 164q0 85 66 161t215 190q-94 58 -146 120
t-51 136q0 74 67 152q68 78 164 134q96 54 190 54t175 -36q82 -36 128 -95t46 -129q-6 -66 -49 -136t-160 -188l2 -2q145 -75 224 -147t79 -159z" />
    <glyph glyph-name="threeeighths" unicode="&#x215c;" horiz-adv-x="2680" 
d="M803 971q0 -154 -168 -273t-539 -227l-22 84q219 66 332 116q114 50 158 103q44 54 44 118t-43 103t-176 107v51q90 98 120 145t30 105q1 59 -51 101t-146 42t-236 -110l-49 69l236 164q27 12 96 12q69 -1 157 -29t137 -76q50 -48 50 -103q-4 -49 -40 -105t-122 -139h-4
q136 -82 186 -138t50 -120zM588 -391l-70 35l1272 2394l72 -33zM2337 124q0 68 -41 114q-40 46 -100 84q-60 37 -146 81t-98 52q-109 -76 -144 -123q-34 -47 -34 -114q0 -68 46 -136t122 -109t159 -41v5q106 0 171 59q65 60 65 128zM1858 824q0 -73 70 -132t208 -129
q76 80 96 121t21 90q-1 92 -63 154t-156 61v-2q-74 0 -125 -45t-51 -118zM2529 212q1 -87 -71 -176q-72 -88 -176 -150t-189 -62q-147 0 -265 45t-184 124t-65 164q0 85 66 161t215 190q-94 58 -146 120t-51 136q0 74 67 152q68 78 164 134q96 54 190 54t175 -36
q82 -36 128 -95t46 -129q-6 -66 -49 -136t-160 -188l2 -2q145 -75 224 -147t79 -159z" />
    <glyph glyph-name="fiveeighths" unicode="&#x215d;" horiz-adv-x="2824" 
d="M827 975q0 -129 -101 -224q-102 -95 -250 -157t-351 -123l-23 84q225 70 339 123t153 104q39 52 39 118t-38 114q-72 90 -456 241l101 412h465l53 119l51 -19v-286l-92 26h-436l-33 -131q435 -179 531 -285q48 -54 48 -116zM731 -391l-69 35l1271 2394l72 -33zM1917 218
q0 -68 46 -136t122 -109t160 -41v5q106 0 171 59q64 60 64 128t-41 114t-100 84q-59 37 -145 81t-99 52q-109 -76 -143 -123t-35 -114zM2001 824q0 -73 71 -132t207 -129q76 80 97 121q20 41 20 90q0 92 -62 154t-157 61v-2q-74 0 -125 -45t-51 -118zM2673 212
q0 -87 -72 -176q-72 -88 -175 -150t-190 -62q-147 0 -265 45q-117 45 -183 124t-66 164t66 161t215 190q-94 58 -145 120q-52 62 -52 136t67 152t164 134q97 54 190 54t175 -36t128 -95t46 -129q-6 -66 -49 -136t-160 -188l3 -2q145 -75 224 -147t79 -159z" />
    </font>
</defs>
</svg>
