<?xml version="1.0" standalone="no"?>
<!DOCTYPE svg PUBLIC "-//W3C//DTD SVG 1.1//EN" "http://www.w3.org/Graphics/SVG/1.1/DTD/svg11.dtd" >
<svg xmlns="http://www.w3.org/2000/svg">
<metadata>
Created by FontPrep 20130207 at Sat Dec 19 14:54:10 2015
 By Martin Campillo
Copyright (c) 2014 by Claus Eggers Srensen (es@forthehearts.net).
</metadata>
<defs>
<font id="99679993acff504f32531181523b817e" horiz-adv-x='1024' >
  <font-face 
    font-family="InknutAntiqua-Regular"
    font-weight="400"
    font-stretch="normal"
    units-per-em="2048"
    panose-1="0 0 5 0 0 0 0 0 0 0"
    ascent="1638"
    descent="-410"
    x-height="1087"
    cap-height="1610"
    bbox="-3783 -1733 4710 3207"
    underline-thickness="92"
    underline-position="-268"
    unicode-range="U+0020-FB02"
  />
<missing-glyph horiz-adv-x="2859" 
d="M1452 393q-51 -1 -94 -25t-72 -66t-29 -100t40 -102q39 -45 91 -45q103 0 166 91q29 42 29 100t-40 102q-40 45 -91 45zM1424 1378q-90 0 -171 -16l-202 -158l61 -78q134 78 206 78t132 -30t97 -76q38 -48 38 -86t-29 -66q-28 -28 -100 -81q-72 -52 -115 -98
q-43 -45 -43 -109t62 -140l215 107v63q-48 56 -46 90q3 33 32 61q29 29 101 81t113 98q42 46 41 103q0 59 -64 119t-151 99t-177 39zM1430 -471l-1307 1237l1307 1233l1306 -1233z" />
    <glyph glyph-name="IJ" unicode="IJ" horiz-adv-x="1757" 
d="M123 0v63l192 152v1241l-213 72l41 82h623v-64l-195 -151v-1239l215 -74l-41 -82h-622zM1460 203q0 -191 19 -244l-394 -500l-77 62q117 147 156.5 249.5t39.5 252.5v1425l-254 80l41 82h664v-64l-195 -151v-1192z" />
    <glyph glyph-name="ij" unicode="ij" horiz-adv-x="1572" 
d="M1337 203q0 -185 19 -244l-393 -500l-78 62q123 145 165 247.5t42 254.5v782l-183 127v63l351 131h77v-923zM113 0v63l182 144v598l-182 127v63l350 131h78v-972l184 -72l-41 -82h-571zM1022 1550.5q0 57.5 28.5 99.5t71.5 66.5t94 24.5t91.5 -45t40.5 -102.5t-29 -99.5
t-72 -66.5t-94 -24.5t-91 45t-40 102.5zM225 1550.5q0 57.5 29 99.5t72 66.5t94 24.5t91 -45t40 -102.5t-28.5 -99.5t-71.5 -66.5t-94.5 -24.5t-91.5 45t-40 102.5z" />
    <glyph glyph-name="fi" unicode="fi" horiz-adv-x="1591" 
d="M729 1636q-190 0 -190 -329v-281h401l317 100h78v-972l185 -72l-41 -82h-389v815l-168 127h-383v-772l286 -88l-41 -82h-673v63l182 144v735h-242v84h242v182q0 158 86 297t216 221q129 82 243 82t247 -28t177 -53q81 -48 84 -144q0 -47 -29 -89t-72 -67t-84 -24
q-84 0 -125 84q-32 67 -68 97t-89 41t-150 11z" />
    <glyph glyph-name="fl" unicode="fl" horiz-adv-x="1591" 
d="M1087 0v1522q-47 51 -133 83t-163 31q-109 0 -181 -87t-71 -242v-281h368v-84h-368v-772l286 -88l-41 -82h-673v63l182 144v735h-242v84h242v182q0 158 99 296t249 221t287 83t329 -20h78v-1634l183 -72l-41 -82h-390z" />
    <glyph glyph-name="f_adieresis.liga" unicode="f&#xe4;" horiz-adv-x="2177" 
d="M1284 339q0 -77 39 -131t104 -54q126 -1 269 114v207h-363q-49 -59 -49 -136zM1028 279q0 148 205 280h463v131q0 133 -71 188.5t-195 55.5t-310 -154l-61 78l295 234q82 16 196 16q186 0 289 -91t103 -265v-598l184 -72l-41 -82h-389v178l-232 -182q-41 -16 -102 -16
q-176 0 -255 88t-79 211zM1647 1554q0 54 25.5 93t64.5 62.5t85 23.5t81.5 -43.5t35.5 -97.5t-25.5 -93t-64.5 -62.5t-85 -23.5t-81.5 43.5t-35.5 97.5zM909 1026v-84h-370v-772l286 -88l-41 -82h-673v63l182 144v735h-242v84h242v182q0 158 96 296t240.5 221t260.5 83
t241 -28.5t171 -53.5q84 -46 84 -143q0 -66 -53 -118t-102 -52t-77 18.5t-54 72.5t-60 83t-89.5 39t-159.5 10q-252 0 -252 -329v-281h370z" />
    <glyph glyph-name="f_b.liga" unicode="fb" horiz-adv-x="2297" 
d="M1886 481q0 189 -59 321t-168 132q-78 0 -151 -30t-175 -120v-401q12 -102 95 -167t227 -64q231 -1 231 329zM1087 0v1522q-47 51 -133 83t-163 31q-109 0 -181 -87t-71 -242v-281h368v-84h-368v-772l286 -88l-41 -82h-673v63l182 144v735h-242v84h242v182q0 158 99 296
t249 221t287 83t329 -20h78v-911l273 215q66 16 166 16t189 -71t139 -191t50 -272t-96 -290t-240 -222t-280 -82q-171 0 -285 141l-86 -121h-78z" />
    <glyph glyph-name="f_eth.liga" unicode="f&#xf0;" horiz-adv-x="2252" 
d="M1847 563q0 203 -59 371h-272q-231 0 -232 -330q0 -279 154 -398q73 -56 168 -56q125 0 183 105t58 308zM1018 505q0 145 90 285t233 228t293 88q23 0 80 -4q-92 166 -235 297l-359 -217l-43 73l332 201q-57 45 -129 88q-129 56 -209 74q-79 18 -183 18t-180 -48
t-123 -137q-46 -89 -46 -206v-219h350v-84h-350v-772l286 -88l-41 -82h-673v63l182 144v735h-242v84h242v100q0 178 105 336q104 158 276 252t358 94h211q205 -61 393 -215l357 215l45 -73l-334 -201l-4 -2q184 -172 295 -394t111 -424t-87 -369q-86 -167 -227 -267
q-140 -100 -288 -100t-256 69q-108 70 -169 191t-61 267z" />
    <glyph glyph-name="f_f.liga" unicode="ff" horiz-adv-x="1693" 
d="M1092 1208q0 125 59 248q-72 55 -171 87q-100 32 -198 32t-170 -87t-71 -243v-219h551v182zM1645 1808h2q57 0 130 -11t103 -23v-316h-78q-51 82 -125 130t-149 48q-191 0 -191 -329v-281h369v-84h-369v-772l287 -88l-41 -82h-491v942h-551v-772l286 -88l-41 -82h-673v63
l182 144v735h-242v84h242v121q0 158 99 296t249 221t289 83q82 0 188 -24t191 -58q164 143 334 143z" />
    <glyph glyph-name="f_f_adieresis.liga" unicode="ff&#xe4;" horiz-adv-x="2973" 
d="M2081 339q0 -77 39 -131t104 -54q125 -1 268 114v207h-362q-49 -59 -49 -136zM1825 279q0 150 205 280h462v131q0 133 -70.5 188.5t-195.5 55.5t-309 -154l-62 78l295 234q82 16 197 16q186 0 288.5 -91t102.5 -265v-598l184 -72l-40 -82h-390v178l-231 -182
q-41 -16 -102 -16q-176 0 -255 88t-79 211zM1090 1208q0 125 65 244q-72 57 -172.5 90t-200.5 33t-171.5 -87t-71.5 -243v-219h551v182zM2443 1554q0 54 25.5 93t64.5 62.5t85 23.5t82 -43.5t36 -97.5t-25.5 -93t-64.5 -62.5t-85 -23.5t-82 43.5t-36 97.5zM1325 1657
q185 151 384 151q95 0 220 -28.5t170 -53.5q84 -47 84 -143q0 -66 -52.5 -118t-102.5 -52t-77 18.5t-53 72.5t-61 83t-90 39t-160 10q-252 0 -252 -329v-281h371v-84h-371v-772l287 -88l-41 -82h-491v942h-551v-772l286 -88l-41 -82h-673v63l182 144v735h-242v84h242v121
q0 158 99.5 296t249 221t288.5 83q88 0 199.5 -26.5t195.5 -63.5z" />
    <glyph glyph-name="f_f_b.liga" unicode="ffb" horiz-adv-x="3094" 
d="M2681 483q1 189 -59 321t-168 132q-78 0 -151 -30t-175 -120v-401q12 -102 95 -167t226 -64q232 -1 232 329zM1085 1210q0 123 66 242q-72 57 -173 90t-201 33q-99 0 -171 -87t-71 -243v-219h368l182 2v182zM1329 1655q191 153 417 153q116 0 308 -20h78v-911l272 215
q64 16 164 16t190 -71q89 -71 139 -191t50 -272t-96 -290q-97 -138 -241 -222t-279 -82q-171 0 -285 141l-86 -121h-78v1522q-47 51 -133 83t-164 31q-109 0 -181 -87t-71 -242v-281h369v-84h-369v-772l287 -88l-41 -82h-492v942h-550v-772l286 -88l-41 -82h-673v63l182 144
v735h-242v84h242v121q0 158 99 296t249 221t289 83q88 0 202 -27t199 -65z" />
    <glyph glyph-name="f_f_eth.liga" unicode="ff&#xf0;" horiz-adv-x="3049" 
d="M2646 561q0 203 -59 371h-273q-231 0 -231 -330q0 -135 40 -238q40 -104 113 -160t168 -57q126 1 184 106t58 308zM1087 1081q0 182 95 342q-70 68 -183 109t-217 41t-176 -87t-71 -243v-219h368l184 -2v59zM1829 1808h211q205 -61 393 -215l356 215l45 -73l-333 -201
l-4 -2q183 -172 294 -394t111 -424t-86 -369t-227 -267t-289 -100t-255 69q-108 70 -169 191t-61 267q0 145 90 285t233 228t293 88q23 0 80 -4q-92 166 -236 297l-358 -217l-43 73l332 201q-57 45 -129 88q-129 56 -209 74t-199 18q-152 0 -243 -116t-91 -336v-158h351v-84
h-351v-772l287 -88l-41 -82h-491v942h-551v-772l286 -88l-41 -82h-673v63l182 144v735h-242v84h242v121q0 158 99 296t249 221q149 83 269 83t250 -34t208 -77q210 172 461 172z" />
    <glyph glyph-name="f_f_h.liga" unicode="ffh" horiz-adv-x="3065" 
d="M1085 1212q0 123 66 242q-72 57 -173 90t-201 33q-99 0 -171 -87t-71 -243v-219h368l182 2v182zM1329 1655q191 153 417 153q116 0 308 -20h78v-920l283 224q43 16 112 16q139 0 221 -85t82 -230v-639l181 -70l-41 -82h-390v690q0 113 -34 158q-35 45 -114 45
q-80 0 -146 -25t-158 -96v-620l184 -72l-41 -82h-389v1522q-47 51 -133 83t-164 31q-109 0 -181 -87t-71 -242v-281h369v-84h-369v-772l287 -88l-41 -82h-492v942h-550v-772l286 -88l-41 -82h-673v63l182 144v735h-242v84h242v121q0 158 99 296t249 221t289 83q88 0 202 -27
t199 -65z" />
    <glyph glyph-name="f_f_i.liga" unicode="ffi" horiz-adv-x="2387" 
d="M1092 1208q0 125 59 248q-72 55 -171 87q-100 32 -198 32t-170 -87t-71 -243v-219h551v182zM1526 1636q-191 0 -191 -329v-281h402l317 100h78v-972l186 -72l-41 -82h-389v815l-168 127h-383v-772l287 -88l-41 -82h-491v942h-551v-772l286 -88l-41 -82h-673v63l182 144
v735h-242v84h242v121q0 158 99 296t249 221t289 83q82 0 188 -24t191 -58q164 143 334 143q104 0 237 -28t177 -53q83 -49 83 -144q0 -47 -28 -89t-72 -67q-43 -25 -84 -24q-84 0 -125 84q-33 67 -69 97t-89 41t-149 11z" />
    <glyph glyph-name="f_f_idieresis.liga" unicode="ff&#xef;" horiz-adv-x="2449" 
d="M1092 1208q0 125 59 248q-72 55 -171 87q-100 32 -198 32t-170 -87t-71 -243v-219h551v182zM2466 1592q0 -101 -90 -155q-39 -24 -85 -24t-82 43q-36 44 -36 98q0 101 90 155q39 24 85 24t82 -43q36 -44 36 -98zM1526 1636q-191 0 -191 -329v-281h463l318 100h77l2 -972
l185 -72l-41 -82h-572v63l183 144v608l-168 127h-445v-772l287 -88l-41 -82h-491v942h-551v-772l286 -88l-41 -82h-673v63l182 144v735h-242v84h242v121q0 158 99 296t249 221t289 83q82 0 188 -24t191 -58q164 143 334 143q49 0 110 -22t109 -71t47 -113q0 -110 -90 -165
q-39 -24 -85 -24t-82 43q-36 44 -36 96t-20 68t-72 16z" />
    <glyph glyph-name="f_f_igrave.liga" unicode="ff&#xec;" horiz-adv-x="2387" 
d="M1092 1208q0 125 59 248q-72 55 -171 87q-100 32 -198 32t-170 -87t-71 -243v-219h551v182zM1526 1636q-191 0 -191 -329v-281h402l317 100h78v-972l186 -72l-41 -82h-389v815l-168 127h-383v-772l287 -88l-41 -82h-491v942h-551v-772l286 -88l-41 -82h-673v63l182 144
v735h-242v84h242v121q0 158 99 296t249 221t289 83q82 0 188 -24t191 -58q164 143 334 143l241 19l219 -402l-82 -41q-159 140 -275 196t-222 56z" />
    <glyph glyph-name="f_f_iogonek.liga" unicode="ff&#x12f;" horiz-adv-x="2387" 
d="M1092 1208q0 125 59 248q-72 55 -171 87q-100 32 -198 32t-170 -87t-71 -243v-219h551v182zM1526 1636q-191 0 -191 -329v-281h402l317 100h78v-972l186 -72l-41 -82q-172 -158 -172 -236q0 -42 23 -61q23 -20 72 -31v-78l-170 -135q-180 68 -181 230q0 45 17 82l288 229
h-266v815l-168 127h-383v-772l287 -88l-41 -82h-491v942h-551v-772l286 -88l-41 -82h-673v63l182 144v735h-242v84h242v121q0 158 99 296t249 221t289 83q82 0 188 -24t191 -58q164 143 334 143q104 0 237 -28t177 -53q83 -49 83 -144q0 -47 -28 -89t-72 -67
q-43 -25 -84 -24q-84 0 -125 84q-33 67 -69 97t-89 41t-149 11z" />
    <glyph glyph-name="f_f_j.liga" unicode="ffj" horiz-adv-x="2367" 
d="M1092 1208q0 125 59 248q-72 55 -171 87q-100 32 -198 32t-170 -87t-71 -243v-219h551v182zM2134 203q0 -190 18 -244l-393 -500l-78 62q123 145 165 247t42 255v792l-168 127h-383v-772l287 -88l-41 -82h-491v942h-551v-772l286 -88l-41 -82h-673v63l182 144v735h-242
v84h242v121q0 158 99 296t249 221t289 83q82 0 188 -24t191 -58q164 143 334 143q104 0 237 -28t177 -53q83 -49 83 -144q0 -47 -28 -89t-72 -67q-43 -25 -84 -24q-84 0 -125 84q-33 67 -69 97t-89 41t-149 11q-191 0 -191 -329v-281h402l317 100h78v-923h2z" />
    <glyph glyph-name="f_f_k.liga" unicode="ffk" horiz-adv-x="3045" 
d="M2955 1090v-64l-475 -399l346 -471l185 -72l-41 -82h-347l-385 541l383 321l-196 144l41 82h489zM1085 1210q0 123 66 242q-72 57 -173 90t-201 33q-99 0 -171 -87t-71 -243v-219h368l182 2v182zM1329 1655q191 153 417 153q116 0 308 -20h78l-4 -1634l184 -72l-41 -82
h-389v1522q-47 51 -133 83t-164 31q-109 0 -181 -87t-71 -242v-281h369v-84h-369v-772l287 -88l-41 -82h-492v942h-550v-772l286 -88l-41 -82h-673v63l182 144v735h-242v84h242v121q0 158 99 296t249 221t289 83q88 0 202 -27t199 -65z" />
    <glyph glyph-name="f_f_kcommaaccent.liga" unicode="ff&#x137;" horiz-adv-x="3045" 
d="M2955 1090v-64l-475 -399l346 -471l185 -72l-41 -82h-347l-385 541l383 321l-196 144l41 82h489zM1085 1210q0 123 66 242q-72 57 -173 90t-201 33q-99 0 -171 -87t-71 -243v-219h368l182 2v182zM1329 1655q191 153 417 153q116 0 308 -20h78l-4 -1634l184 -72l-41 -82
h-389v1522q-47 51 -133 83t-164 31q-109 0 -181 -87t-71 -242v-281h369v-84h-369v-772l287 -88l-41 -82h-492v942h-550v-772l286 -88l-41 -82h-673v63l182 144v735h-242v84h242v121q0 158 99 296t249 221t289 83q88 0 202 -27t199 -65zM2677 -170v-63l-260 -390h-82l53 254
l-160 117l41 82h408z" />
    <glyph glyph-name="f_f_l.liga" unicode="ffl" horiz-adv-x="2387" 
d="M1085 1210q0 123 66 242q-72 57 -173 90t-201 33q-99 0 -171 -87t-71 -243v-219h368l182 2v182zM1329 1655q191 153 417 153q116 0 308 -20h78v-1634l180 -72l-41 -82h-389v1522q-47 51 -133 83t-164 31q-109 0 -181 -87t-71 -242v-281h369v-84h-369v-772l287 -88
l-41 -82h-492v942h-550v-772l286 -88l-41 -82h-673v63l182 144v735h-242v84h242v121q0 158 99 296t249 221t289 83q88 0 202 -27t199 -65z" />
    <glyph glyph-name="f_f_lcaron.liga" unicode="ff&#x13e;" horiz-adv-x="2387" 
d="M1085 1210q0 123 66 242q-72 57 -173 90t-201 33q-99 0 -171 -87t-71 -243v-219h368l182 2v182zM1329 1655q191 153 417 153q116 0 308 -20h78v-1634l180 -72l-41 -82h-389v1522q-47 51 -133 83t-164 31q-109 0 -181 -87t-71 -242v-281h369v-84h-369v-772l287 -88
l-41 -82h-492v942h-550v-772l286 -88l-41 -82h-673v63l182 144v735h-242v84h242v121q0 158 99 296t249 221t289 83q88 0 202 -27t199 -65zM2619 1788v-307l-245 -312l-78 62q102 154 100 297q0 25 -2 35l-82 71v64l230 90h77z" />
    <glyph glyph-name="f_f_lcommaaccent.liga" unicode="ff&#x13c;" horiz-adv-x="2387" 
d="M1085 1210q0 123 66 242q-72 57 -173 90t-201 33q-99 0 -171 -87t-71 -243v-219h368l182 2v182zM1329 1655q191 153 417 153q116 0 308 -20h78v-1634l180 -72l-41 -82h-389v1522q-47 51 -133 83t-164 31q-109 0 -181 -87t-71 -242v-281h369v-84h-369v-772l287 -88
l-41 -82h-492v942h-550v-772l286 -88l-41 -82h-673v63l182 144v735h-242v84h242v121q0 158 99 296t249 221t289 83q88 0 202 -27t199 -65zM2290 -170v-63l-260 -390h-82l53 254l-160 117l41 82h408z" />
    <glyph glyph-name="f_f_odieresis.liga" unicode="ff&#xf6;" horiz-adv-x="3000" 
d="M2591 483q0 193 -84 323t-240 130q-231 0 -231 -330q0 -194 84 -324t239 -130q232 -1 232 331zM2857 574q0 -152 -96 -290q-97 -138 -241 -222t-279 -82q-135 0 -243 70t-168 192q-60 120 -60 272t96 290t240 221t280 83t243 -71q108 -71 168 -191t60 -272zM1090 1208
q0 125 65 244q-72 57 -173 90q-100 33 -200 33t-172 -87t-71 -243v-219h551v182zM2443 1554q0 101 90 155q39 24 85 24t82 -43q36 -44 36 -98q0 -102 -90 -155q-39 -24 -85 -24t-82 43q-36 44 -36 98zM1706 1026v-84h-371v-772l287 -88l-41 -82h-491v942h-551v-772l286 -88
l-41 -82h-673v63l182 144v735h-242v84h242v121q0 158 99 296t249 221t289 83q88 0 200 -27t195 -63q185 151 381 151q98 0 223 -28t170 -54q84 -47 84 -143q0 -66 -53 -118q-52 -52 -102 -52q-50 1 -78 19t-52 72q-26 54 -61 83t-90 39t-160 10q-252 0 -252 -329v-281h371z
" />
    <glyph glyph-name="f_h.liga" unicode="fh" horiz-adv-x="2269" 
d="M1786 2v690q0 113 -35 158t-114 45t-145 -25t-159 -96v-620l185 -72l-41 -82h-390v1522q-47 51 -133 83t-163 31q-109 0 -181 -87t-71 -242v-281h368v-84h-368v-772l286 -88l-41 -82h-673v63l182 144v735h-242v84h242v182q0 158 99 296t249 221t287 83t329 -20h78v-920
l283 224q43 16 113 16q139 0 221 -85t82 -230v-639l182 -70l-41 -82h-389z" />
    <glyph glyph-name="f_idieresis.liga" unicode="f&#xef;" horiz-adv-x="1652" 
d="M1667 1592q0 -101 -90 -155q-39 -24 -85 -24t-82 43q-36 44 -36 98q0 101 90 155q39 24 85 24t82 -43q36 -44 36 -98zM729 1636q-190 0 -190 -329v-281h462l318 100h78v-972l184 -72l-41 -82h-571v63l182 144v608l-168 127h-444v-772l286 -88l-41 -82h-673v63l182 144
v735h-242v84h242v182q0 158 86 297t216 221t253 82q49 0 110 -22q60 -22 108 -71t48 -113q0 -111 -90 -165q-39 -24 -85 -24t-82 43q-36 44 -36 96t-19 68t-73 16z" />
    <glyph glyph-name="f_igrave.liga" unicode="f&#xec;" horiz-adv-x="1591" 
d="M729 1636q-190 0 -190 -329v-281h401l317 100h78v-972l185 -72l-41 -82h-389v815l-168 127h-383v-772l286 -88l-41 -82h-673v63l182 144v735h-242v84h242v182q0 158 86 297t216 221t253 82l242 19l219 -402l-82 -41q-160 140 -276 196t-222 56z" />
    <glyph glyph-name="f_iogonek.liga" unicode="f&#x12f;" horiz-adv-x="1591" 
d="M729 1636q-190 0 -190 -329v-281h401l317 100h78v-972l185 -72l-41 -82q-172 -158 -172 -236q1 -42 23 -61q22 -20 71 -31v-78l-170 -135q-180 68 -180 230q0 45 16 82l289 229h-266v815l-168 127h-383v-772l286 -88l-41 -82h-673v63l182 144v735h-242v84h242v182
q0 158 86 297t216 221q129 82 243 82t247 -28t177 -53q81 -48 84 -144q0 -47 -29 -89t-72 -67t-84 -24q-84 0 -125 84q-32 67 -68 97t-89 41t-150 11z" />
    <glyph glyph-name="f_j.liga" unicode="fj" horiz-adv-x="1570" 
d="M1335 203q0 -193 19 -244l-393 -500l-78 62q123 145 165 247t42 255v792l-168 127h-383v-772l286 -88l-41 -82h-673v63l182 144v735h-242v84h242v182q0 158 86 297t216 221q129 82 243 82t247 -28t177 -53q81 -48 84 -144q0 -47 -29 -89t-72 -67t-84 -24q-84 0 -125 84
q-32 67 -68 97t-89 41t-150 11q-190 0 -190 -329v-281h401l317 100h78v-923z" />
    <glyph glyph-name="f_k.liga" unicode="fk" horiz-adv-x="2248" 
d="M2161 1087v-63l-475 -399l346 -471l184 -72l-41 -82h-346l-385 541l383 321l-197 144l41 81h490zM1087 0v1522q-47 51 -133 83t-163 31q-109 0 -181 -87t-71 -242v-281h368v-84h-368v-772l286 -88l-41 -82h-673v63l182 144v735h-242v84h242v182q0 158 99 296t249 221
t287 83t329 -20h78l-2 -1634l185 -72l-41 -82h-390z" />
    <glyph glyph-name="f_kcommaaccent.liga" unicode="f&#x137;" horiz-adv-x="2248" 
d="M2161 1087v-63l-475 -399l346 -471l184 -72l-41 -82h-346l-385 541l383 321l-197 144l41 81h490zM1087 0v1522q-47 51 -133 83t-163 31q-109 0 -181 -87t-71 -242v-281h368v-84h-368v-772l286 -88l-41 -82h-673v63l182 144v735h-242v84h242v182q0 158 99 296t249 221
t287 83t329 -20h78l-2 -1634l185 -72l-41 -82h-390zM1882 -170v-63l-260 -390h-82l53 254l-159 117l41 82h407z" />
    <glyph glyph-name="f_lcaron.liga" unicode="f&#x13e;" horiz-adv-x="1591" 
d="M1087 0v1522q-47 51 -133 83t-163 31q-109 0 -181 -87t-71 -242v-281h368v-84h-368v-772l286 -88l-41 -82h-673v63l182 144v735h-242v84h242v182q0 158 99 296t249 221t287 83t329 -20h78v-1634l183 -72l-41 -82h-390zM1823 1788v-307l-246 -312l-78 62q102 154 100 297
q0 25 -2 35l-81 71v64l229 90h78z" />
    <glyph glyph-name="f_lcommaaccent.liga" unicode="f&#x13c;" horiz-adv-x="1591" 
d="M1087 0v1522q-47 51 -133 83t-163 31q-109 0 -181 -87t-71 -242v-281h368v-84h-368v-772l286 -88l-41 -82h-673v63l182 144v735h-242v84h242v182q0 158 99 296t249 221t287 83t329 -20h78v-1634l183 -72l-41 -82h-390zM1470 -170v-63l-260 -390h-82l54 254l-160 117
l41 82h407z" />
    <glyph glyph-name="f_odieresis.liga" unicode="f&#xf6;" horiz-adv-x="2203" 
d="M1794 483q0 193 -84 323t-240 130q-231 0 -231 -330q0 -194 84 -324t240 -130q231 -1 231 331zM2060 574q0 -152 -96 -290t-240 -222t-280 -82q-135 0 -243 70t-168 192q-60 120 -60 272t96 290q97 138 241 221t279 83t243 -71t168 -191t60 -272zM1822 1733q46 0 82 -43
q36 -44 36 -98q-1 -103 -91 -155q-39 -24 -85 -24t-82 43q-36 44 -36 98t26 93q58 86 150 86zM909 1026v-84h-370v-772l286 -88l-41 -82h-673v63l182 144v735h-242v84h242v182q0 158 96 296q97 138 241 221t260 83t242 -28t171 -54q83 -46 83 -143q0 -66 -53 -118t-102 -52
q-49 1 -77 19t-54 72t-60 83q-35 29 -90 39t-159 10q-252 0 -252 -329v-281h370z" />
    <glyph glyph-name="longs_t.liga" unicode="&#x17f;t" horiz-adv-x="1779" 
d="M1427 -20q-170 0 -248.5 89t-78.5 275v598h-221v84l241 281q-59 123 -152.5 195.5t-189.5 72.5t-167.5 -87t-71.5 -243v-1075l286 -88l-41 -82h-673v63l182 144v735h-242v84h242v121q0 158 99.5 296t249 221t288.5 83q66 0 148.5 -40t156.5 -102.5t111 -125.5v-453h368
v-84h-368v-623q0 -166 159 -165q43 0 83 18t100 66l61 -78l-207 -164q-47 -16 -115 -16z" />
    <glyph glyph-name="longs_b.liga" unicode="&#x17f;b" horiz-adv-x="2299" 
d="M1888 481q0 189 -59 321t-168 132q-78 0 -152 -31t-176 -121v-366q0 -113 84 -189t240 -75q231 -1 231 329zM1087 0v1522q-47 51 -133 83t-163 31q-109 0 -181 -87t-71 -242v-1137l286 -88l-41 -82h-673v63l182 144v735h-242v84h242v182q0 158 99 296t249 221t287 83
t329 -20h78v-914l275 218q66 16 166 16t189 -71t139 -191t50 -272t-96 -290t-240 -222t-280 -82q-171 0 -285 141l-88 -121h-78z" />
    <glyph glyph-name="longs_h.liga" unicode="&#x17f;h" horiz-adv-x="2269" 
d="M1786 2v690q0 113 -35 158t-114 45t-145 -25t-159 -96v-620l185 -72l-41 -82h-390v1522q-47 51 -133 83t-163 31q-109 0 -181 -87t-71 -242v-1137l286 -88l-41 -82h-673v63l182 144v735h-242v84h242v182q0 158 99 296t249 221t287 83t329 -20h78v-920l283 224
q43 16 113 16q139 0 221 -85t82 -230v-639l182 -70l-41 -82h-389z" />
    <glyph glyph-name="longs_i.liga" unicode="&#x17f;i" horiz-adv-x="1591" 
d="M1090 0v805l-183 127v63l350 131h78v-972l185 -72l-41 -82h-389zM729 1636q-190 0 -190 -329v-1137l286 -88l-41 -82h-673v63l182 144v735h-242v84h242v182q0 158 86 297t216 221q129 82 243 82t247 -28t177 -53q81 -48 84 -144q0 -47 -29 -89t-72 -67t-84 -24
q-84 0 -125 84q-32 67 -68 97t-89 41t-150 11z" />
    <glyph glyph-name="longs_k.liga" unicode="&#x17f;k" horiz-adv-x="2246" 
d="M2159 1087v-63l-476 -399l347 -471l184 -72l-41 -82h-346l-385 541l383 321l-197 144l41 81h490zM1087 0v1522q-47 51 -133 83t-163 31q-109 0 -181 -87t-71 -242v-1137l286 -88l-41 -82h-673v63l182 144v735h-242v84h242v182q0 158 99 296t249 221t287 83t329 -20h78
l-2 -1634l185 -72l-41 -82h-390z" />
    <glyph glyph-name="longs_l.liga" unicode="&#x17f;l" horiz-adv-x="1591" 
d="M1087 0v1522q-47 51 -133 83t-163 31q-109 0 -181 -87t-71 -242v-1137l286 -88l-41 -82h-673v63l182 144v735h-242v84h242v182q0 158 99 296t249 221t287 83t329 -20h78v-1634l183 -72l-41 -82h-390z" />
    <glyph glyph-name="longs_longs.liga" unicode="&#x17f;&#x17f;" horiz-adv-x="1693" 
d="M1645 1808h2q57 0 130 -11t103 -23v-316h-78q-51 82 -125 130t-149 48q-191 0 -191 -329v-1137l287 -88l-41 -82h-491v942h-242v84h242v182q0 125 59 248q-72 55 -171 87q-100 32 -198 32t-170 -87t-71 -243v-1075l286 -88l-41 -82h-673v63l182 144v735h-242v84h242v121
q0 158 99 296t249 221t289 83q82 0 188 -24t191 -58q164 143 334 143z" />
    <glyph glyph-name="longs_longs_i.liga" unicode="&#x17f;&#x17f;i" horiz-adv-x="2387" 
d="M1888 0v805l-182 127v63l350 131h78v-972l184 -72l-41 -82h-389zM1526 1636q-191 0 -191 -329l2 -1137l287 -88l-41 -82h-491v942h-242v84h242v182q0 125 59 248q-72 55 -171 87q-100 32 -198 32t-170 -87t-71 -243v-1075l286 -88l-41 -82h-673v63l182 144v735h-242v84
h242v121q0 158 99 296t249 221t289 83q82 0 188 -24t191 -58q164 143 334 143q104 0 237 -28t177 -53q83 -49 83 -144q0 -47 -28 -89t-72 -67q-43 -25 -84 -24q-84 0 -125 84q-33 67 -69 97t-89 41t-149 11z" />
    <glyph glyph-name="longs_longs_l.liga" unicode="&#x17f;&#x17f;l" horiz-adv-x="2387" 
d="M1329 1655q191 153 417 153q116 0 308 -20h78v-1634l180 -70l-41 -82h-389v1522q-47 51 -133 83t-164 31q-109 0 -181 -87t-71 -242v-1137l287 -88l-41 -82h-492v942h-241v84h241v182q0 123 66 242q-72 57 -173 90t-201 33q-99 0 -171 -87t-71 -243v-1075l286 -88
l-41 -82h-673v63l182 144v735h-242v84h242v121q0 158 99 296t249 221t289 83q88 0 202 -27t199 -65z" />
    <glyph glyph-name=".notdef" horiz-adv-x="2859" 
d="M1452 393q-51 -1 -94 -25t-72 -66t-29 -100t40 -102q39 -45 91 -45q103 0 166 91q29 42 29 100t-40 102q-40 45 -91 45zM1424 1378q-90 0 -171 -16l-202 -158l61 -78q134 78 206 78t132 -30t97 -76q38 -48 38 -86t-29 -66q-28 -28 -100 -81q-72 -52 -115 -98
q-43 -45 -43 -109t62 -140l215 107v63q-48 56 -46 90q3 33 32 61q29 29 101 81t113 98q42 46 41 103q0 59 -64 119t-151 99t-177 39zM1430 -471l-1307 1237l1307 1233l1306 -1233z" />
    <glyph glyph-name=".null" horiz-adv-x="0" 
 />
    <glyph glyph-name="nonmarkingreturn" horiz-adv-x="681" 
 />
    <glyph glyph-name="space" unicode=" " horiz-adv-x="571" 
 />
    <glyph glyph-name="exclam" unicode="!" horiz-adv-x="714" 
d="M512 170q0 -106 -100 -166q-43 -24 -94 -24t-92 45q-40 45 -40 102t29 99t72 67t94 25t91 -46q40 -45 40 -102zM289 498l-125 946v63l278 103h78l-108 -1112h-123z" />
    <glyph glyph-name="quotedbl" unicode="&#x22;" horiz-adv-x="1003" 
d="M266 889l-143 567v64l229 90h78l-70 -719zM717 889l-144 567v64l230 90h78l-70 -719z" />
    <glyph glyph-name="numbersign" unicode="#" horiz-adv-x="1597" 
d="M727 705l-188 -328h327l189 328h-328zM967 377h327l-53 -92h-328l-176 -305l-73 43l151 262h-328l-176 -305l-73 43l151 262h-328l54 92h327l189 328h-328l53 92h328l180 311l74 -43l-156 -268h328l180 311l74 -43l-156 -268h328l-53 -92h-328z" />
    <glyph glyph-name="dollar" unicode="$" horiz-adv-x="1433" 
d="M1030 366q0 72 -72 137t-204 136v-539q84 2 146 39t96 97q34 58 34 130zM428 1262q0 -87 55 -147t158 -120v508q-101 -12 -157 -83t-56 -158zM754 -408h-113v371q-131 10 -274 37t-211 55v398h77q175 -281 408 -338v585q-156 80 -250 140t-160 138q-65 79 -65 174t74 204
q74 108 186 190t215 101v372h113v-370q127 -8 268 -36t209 -59v-397h-78q-181 300 -401 344v-565l65 -33q154 -78 248 -136t160 -136t65 -174h2q0 -100 -87 -214t-215 -196t-236 -88v-367z" />
    <glyph glyph-name="percent" unicode="%" horiz-adv-x="2205" 
d="M315 1427q0 -139 83 -232t241 -93q252 0 252 239q0 139 -84 233t-242 93q-250 0 -250 -240zM1104 1405q0 -115 -87 -218t-218 -165t-256 -61q-125 0 -225 52t-158 143t-58 207t87 219q87 102 219 164t256 62q125 0 226 -53q102 -53 158 -144t56 -206zM328 -271l-70 52
l1670 2137l72 -50zM1315 229q0 -139 83 -232t240 -93q252 0 252 239q0 139 -84 233t-241 93q-250 0 -250 -240zM2103 207q0 -115 -87 -218t-218 -165t-256 -62t-225 52t-158 144q-57 91 -57 207t87 219q87 102 218 164t256 62t226 -53t157 -144t57 -206z" />
    <glyph glyph-name="ampersand" unicode="&#x26;" horiz-adv-x="2570" 
d="M664 1016q-252 0 -252 -385q0 -197 94 -338t270 -141q76 -1 166 37t223 145l611 479q-66 17 -166 61t-152 61q-53 17 -118 17q-133 0 -259 -110q-36 -156 -255 -312q-93 -66 -257 -168l-43 82q166 102 226 198t59 184q0 88 -45 139t-102 51zM1475 326q0 84 22 151
l-608 -481q-91 -16 -235 -16t-261 74t-182 206q-66 131 -66 295q1 164 103 311q102 148 257 236t298 88q98 0 176 -72t102 -155q88 100 200 163q181 102 353 43q60 -20 146 -63t147 -65q61 -21 128 -21t119 24t88 64q36 41 36 92q0 76 -78 146t-217 124v64l238 88
q63 -63 132 -178t69 -206t-83 -199q-81 -109 -193 -181t-178 -72t-116 7q-134 -94 -134 -347q0 -131 68 -212t195 -80l2 -2q117 -1 332 167l61 -77l-315 -248q-82 -16 -198 -16t-209 48q-93 50 -146 133t-53 167z" />
    <glyph glyph-name="quotesingle" unicode="'" horiz-adv-x="552" 
d="M266 889l-143 567v64l229 90h78l-70 -719z" />
    <glyph glyph-name="parenleft" unicode="(" horiz-adv-x="1058" 
d="M420 821q0 -367 128 -680t386 -491l-55 -80q-221 84 -387 249t-258 397q-91 232 -91 511q0 725 744 1225l49 -80q-246 -180 -381 -432t-135 -619z" />
    <glyph glyph-name="parenright" unicode=")" horiz-adv-x="1058" 
d="M639 700q0 366 -128 680q-128 313 -386 492l55 80q221 -84 387 -249t257 -397t91 -511q0 -725 -743 -1225l-49 80q246 180 381 432t135 618z" />
    <glyph glyph-name="asterisk" unicode="*" horiz-adv-x="1429" 
d="M1081 532l-290 7l-33 55l157 92l-198 340l35 21l286 -205zM709 1030l-35 -352l-246 -191l-139 254l30 56l156 -90l199 342zM1153 872v181h-395v41l321 145l289 -117l-151 -250h-64zM276 1278v-180h396v-41l-322 -146l-289 119l152 248h63zM713 1124l-35 -20l-287 205
l-43 309l291 -6l33 -56l-156 -90zM721 1122l35 351l245 192l140 -256l-31 -55l-158 90l-196 -342z" />
    <glyph glyph-name="plus" unicode="+" horiz-adv-x="1081" 
d="M582 590v-416h-84v416h-416v84h416v416h84v-416h415v-84h-415z" />
    <glyph glyph-name="comma" unicode="," horiz-adv-x="757" 
d="M180 -543l-78 62q104 125 150 216q45 91 53 204l-160 94v63l351 172l77 -311z" />
    <glyph glyph-name="hyphen" unicode="-" horiz-adv-x="1050" 
d="M887 715v-62l-82 -104h-641v61l82 105h641z" />
    <glyph glyph-name="period" unicode="." horiz-adv-x="694" 
d="M510 170q0 -106 -100 -166q-43 -24 -94 -24t-92 45q-40 45 -40 102t29 99t72 67t94 25t91 -46q40 -45 40 -102z" />
    <glyph glyph-name="slash" unicode="/" horiz-adv-x="727" 
d="M145 -287l-104 21l539 2197l106 -20z" />
    <glyph glyph-name="zero" unicode="0" horiz-adv-x="1538" 
d="M410 647q0 -135 45 -248t136 -181t224 -66q313 0 313 372q0 135 -45 248q-45 114 -136 180t-224 66q-313 0 -313 -371zM1395 614q0 -164 -109 -310q-110 -148 -274 -236t-319 -88t-281 74t-198 206q-71 131 -71 295t109 311q110 148 274 236t320 88t281 -76
q126 -76 197 -206t71 -294z" />
    <glyph glyph-name="one" unicode="1" horiz-adv-x="1011" 
d="M184 0v63l199 156v795l-219 73l41 82h622v-63l-198 -156v-794l219 -74l-41 -82h-623z" />
    <glyph glyph-name="two" unicode="2" horiz-adv-x="1208" 
d="M90 0v63q260 217 396 347t190 211q53 82 53 151q0 106 -74 175q-73 69 -195 69t-306 -154l-62 78l295 234q53 16 165 16t219 -38q108 -38 166 -106t58 -157q0 -199 -526 -641h506l65 166l62 -21v-430l-113 37h-899z" />
    <glyph glyph-name="three" unicode="3" horiz-adv-x="1146" 
d="M1004 172q0 -217 -213 -387t-682 -326l-31 99q268 98 407 173t196 153q56 79 56 192q0 57 -23 101q-24 44 -82 92t-169 118v51q113 135 150 202q38 67 38 132q0 106 -62 175t-173 69t-299 -154l-62 78l295 234q43 16 86 16q129 0 240 -41q110 -41 176 -110t66 -150
q-6 -74 -56 -154t-168 -200q174 -111 242 -190t68 -173z" />
    <glyph glyph-name="four" unicode="4" horiz-adv-x="1429" 
d="M819 270v637l-512 -637h512zM1065 125v-442l-246 -121v563h-758v63l758 920l246 121v-959h313l-71 -145h-242z" />
    <glyph glyph-name="five" unicode="5" horiz-adv-x="1282" 
d="M1026 172q0 -182 -129 -316t-317 -222t-449 -175l-31 99q281 102 421 180t190 153q49 77 49 173t-46 160t-177 143q-131 78 -392 192l131 610h596l66 166l61 -20v-430l-112 37h-580l-35 -168h2q567 -251 690 -409q62 -81 62 -173z" />
    <glyph glyph-name="six" unicode="6" horiz-adv-x="1497" 
d="M451 707q0 -152 43 -278t130 -202t212 -75q252 0 251 331q0 186 -119 317q-120 130 -309 191l64 92q179 1 323 -65t226 -182t82 -257q0 -143 -93 -283t-241 -228t-303 -88q-154 0 -276 82q-121 82 -189 228q-68 144 -68 346t81 394q170 403 884 778l49 -84
q-395 -264 -571 -512t-176 -505z" />
    <glyph glyph-name="seven" unicode="7" horiz-adv-x="1347" 
d="M1225 1169v-77l-822 -1633l-98 45l719 1418h-758l-61 -146l-62 21v409l113 -37h969z" />
    <glyph glyph-name="eight" unicode="8" horiz-adv-x="1499" 
d="M1094 425q0 79 -52 147t-131 123q-78 54 -209 132l-84 52q-126 -106 -166 -171q-40 -66 -40 -162t55 -198t147 -164t184 -61q94 0 160 42q66 41 101 111t35 149zM729 1663v2q-90 0 -151 -69q-62 -70 -62 -176t86 -190t252 -183q90 111 115 167t24 125q0 139 -74 232
q-75 92 -190 92zM1358 514q0 -106 -92 -234t-224 -215t-241 -88q-188 0 -338 65q-150 64 -234 176t-84 230t89 222t298 262q-130 90 -204 184t-74 202t86 220q86 113 210 191q225 141 467 27q105 -50 163 -135t59 -185q-7 -90 -69 -186t-228 -257l2 -2q131 -75 216 -140
q86 -65 142 -148t56 -189z" />
    <glyph glyph-name="nine" unicode="9" horiz-adv-x="1497" 
d="M1313 621q0 -223 -81 -409q-170 -391 -884 -753l-49 84q395 256 571 495t177 486q0 135 -43 248q-42 114 -130 180t-212 66q-252 0 -252 -332q0 -186 114 -316t293 -192l-63 -92q-172 0 -312 66t-219 182q-80 116 -80 257q-1 142 93 282q94 141 242 229t302 88t276 -76
t190 -206t67 -287z" />
    <glyph glyph-name="colon" unicode=":" horiz-adv-x="694" 
d="M510 960q0 -108 -100 -165q-43 -25 -94 -25t-92 45q-40 45 -40 103q0 109 101 165q43 25 94 25t91 -45t40 -103zM510 170q0 -106 -100 -166q-43 -24 -94 -24t-92 45q-40 45 -40 102t29 99t72 67t94 25t91 -46q40 -45 40 -102z" />
    <glyph glyph-name="semicolon" unicode=";" horiz-adv-x="757" 
d="M180 -543l-78 62q104 125 150 216q45 91 53 204l-160 94v63l351 172l77 -311zM510 960q0 -108 -100 -165q-43 -25 -94 -25t-92 45q-40 45 -40 103q0 109 101 165q43 25 94 25t91 -45t40 -103z" />
    <glyph glyph-name="less" unicode="&#x3c;" horiz-adv-x="964" 
d="M672 172l-611 461l746 504l65 -64l-534 -360l565 -426z" />
    <glyph glyph-name="equal" unicode="=" horiz-adv-x="1079" 
d="M82 858h915v-84h-915v84zM82 489h915v-83h-915v83z" />
    <glyph glyph-name="greater" unicode="&#x3e;" horiz-adv-x="964" 
d="M158 129l-66 64l535 360l-566 426l232 115l610 -461z" />
    <glyph glyph-name="question" unicode="?" horiz-adv-x="991" 
d="M248 127q0 108 100 166q42 25 94 25t92 -46q40 -45 40 -102t-30 -99q-28 -42 -71 -67q-43 -24 -94 -24t-91 45t-40 102zM848 1310q0 -76 -56 -138q-56 -60 -148 -128t-129 -104q-36 -35 -36 -68q0 -78 86 -157v-64l-215 -106q-102 102 -102 213q0 70 55 129t147 127
t129 105q37 38 37 81t-47 111q-47 69 -121 117t-152 48q-79 0 -214 -77l-62 78l203 157q82 16 197 17q76 -1 178 -53t176 -132t74 -156z" />
    <glyph glyph-name="at" unicode="@" horiz-adv-x="2742" 
d="M1063 602q0 -192 80 -322t217 -130t256 83v467q-12 102 -95 167t-227 65q-231 0 -231 -330zM1862 111q471 103 471 545q-1 222 -103 416t-315 310t-511 117q-298 0 -522 -115q-222 -116 -347 -320t-125 -466t95 -487t294 -377t493 -193l-41 -82q-360 -2 -609 128
t-374 366q-125 237 -125 559t212 590q213 268 531 419t619 150v-4q322 0 571 -120t386 -333t137 -481q0 -190 -109 -352q-110 -162 -280 -263t-348 -122h-246v147l-191 -151q-66 -16 -179 -16t-221 70q-108 71 -168 192q-60 120 -60 272t96 290q97 138 241 221t290 83
t257 -121l103 143h78v-1015z" />
    <glyph glyph-name="A" unicode="A" horiz-adv-x="1781" 
d="M817 1403l-311 -719h610zM1118 0v63l193 150l-158 379h-688l-168 -387l360 -123l-41 -82h-622v63l192 152l580 1329l213 105l598 -1442l205 -125l-41 -82h-623z" />
    <glyph glyph-name="B" unicode="B" horiz-adv-x="1615" 
d="M807 760h-236v-580q137 -55 324 -55v2q147 0 234 74t88 198q1 160 -93 258t-278 105q-14 -2 -39 -2zM793 1493q-123 0 -222 -70v-542h293q127 0 199 64q71 64 72 181q0 163 -86 265t-256 102zM1493 474q0 -134 -103 -248t-258 -182q-156 -68 -276 -67q-120 0 -219 11
q-164 10 -254 10h-260v63l192 152v1245l-213 70l41 82h238q186 0 346 10t225 10q138 0 242 -53t160 -144t57 -199q0 -108 -71 -200q-71 -94 -185 -164v-4q158 -45 248 -151q90 -107 90 -241z" />
    <glyph glyph-name="C" unicode="C" horiz-adv-x="1679" 
d="M1483 1157h-78q-188 322 -500 322q-135 0 -246.5 -79t-175 -219.5t-63.5 -328t62.5 -353t190.5 -266t309 -100.5t507 262l61 -98l-376 -293q-127 -45 -321 -45t-359.5 104.5t-258 288t-92.5 420t139.5 440t346.5 321.5t395 118q109 0 251 -31t208 -66v-397z" />
    <glyph glyph-name="D" unicode="D" horiz-adv-x="1820" 
d="M1401 758.5q0 191.5 -65.5 362.5t-200 273.5t-332.5 102.5q-125 0 -232 -74v-1243q125 -51 288 -51t284 79t189.5 219t68.5 331.5zM1677 835q0 -230 -136 -428t-338 -314t-386 -116q-94 0 -190 11q-158 10 -244 10h-260v63l192 152v1245l-213 70l41 82h238
q195 0 356.5 10t225.5 10v-2q211 0 373.5 -101.5t251.5 -281.5t89 -410z" />
    <glyph glyph-name="E" unicode="E" horiz-adv-x="1667" 
d="M123 0v63l192 152v1241l-213 72l41 82h1188l111 37v-471l-62 -21l-243 363h-566v-650h322l149 262h64v-622l-82 -41l-129 309h-324v-684h557l273 404l61 -21v-512l-110 37h-1229z" />
    <glyph glyph-name="F" unicode="F" horiz-adv-x="1585" 
d="M573 1518v-650h322l149 262h64v-561l-82 -41l-125 248h-330v-606l318 -88l-41 -82h-725v63l192 152v1241l-213 72l41 82h1188l113 37v-471l-62 -21l-243 363h-566z" />
    <glyph glyph-name="G" unicode="G" horiz-adv-x="1863" 
d="M143 771.5q0 236.5 145.5 440t362.5 321.5t414 118q117 0 272.5 -31t227.5 -66v-397h-78q-205 322 -541 322q-147 0 -268 -79t-189.5 -219.5t-68.5 -328t66.5 -353t203.5 -266t340 -100.5q90 0 149.5 6t141.5 39v484l-315 88l41 81h725v-63l-195 -154v-290l55 -88
l-377 -232q-143 -45 -355 -45t-387 104.5t-272.5 288t-97.5 420z" />
    <glyph glyph-name="H" unicode="H" horiz-adv-x="1953" 
d="M1188 0v63l192 152v541h-809v-600l215 -74l-41 -82h-622v63l192 152v1241l-213 72l41 82h623v-64l-195 -151v-547h809v608l-213 72l41 82h623v-64l-195 -151v-1239l215 -74l-41 -82h-622z" />
    <glyph glyph-name="I" unicode="I" horiz-adv-x="888" 
d="M123 0v63l192 152v1241l-213 72l41 82h623v-64l-195 -151v-1239l215 -74l-41 -82h-622z" />
    <glyph glyph-name="J" unicode="J" horiz-adv-x="868" 
d="M571 203q0 -185 19 -244l-393 -500l-78 62q117 147 156.5 249.5t39.5 252.5v1425l-254 80l41 82h664v-64l-195 -151v-1192z" />
    <glyph glyph-name="K" unicode="K" horiz-adv-x="1761" 
d="M1671 1610v-64l-737 -643l563 -704l238 -117l-41 -82h-371l-635 807l629 549l-238 172l41 82h551zM123 0v63l192 152v1241l-213 72l41 82h623v-64l-195 -151v-1239l215 -74l-41 -82h-622z" />
    <glyph glyph-name="L" unicode="L" horiz-adv-x="1605" 
d="M123 0v63l192 152v1241l-213 72l41 82h623v-64l-195 -151v-1303h529l301 445l61 -21v-553l-110 37h-1229z" />
    <glyph glyph-name="M" unicode="M" horiz-adv-x="2203" 
d="M1438 -2v63l192 152v1133l-547 -1348h-112l-543 1362v-1172l215 -108l-41 -82h-479v63l192 152v1200l-213 115l41 82h445l512 -1286l510 1286h471v-64l-195 -151v-1239l215 -76l-41 -82h-622z" />
    <glyph glyph-name="N" unicode="N" horiz-adv-x="1789" 
d="M1513 -2h-112l-973 1231v-1041l215 -108l-41 -82h-479v63l192 152v1200l-213 115l41 82h310l948 -1200v1011l-213 107l41 82h479v-66l-195 -151v-1395z" />
    <glyph glyph-name="O" unicode="O" horiz-adv-x="1902" 
d="M420 852.5q0 -187.5 63.5 -354t193.5 -267t320 -100.5q135 0 247 79t175.5 219t63.5 328.5t-63.5 355.5t-192.5 266.5t-322 99.5q-135 0 -246.5 -79t-175 -219.5t-63.5 -328zM1759 836.5q0 -236.5 -139 -439t-346 -320.5t-409.5 -118t-369.5 103.5t-259.5 288t-92.5 421
t139.5 440t346.5 321.5t409.5 118t369.5 -104.5t259 -289t92 -421z" />
    <glyph glyph-name="P" unicode="P" horiz-adv-x="1595" 
d="M1198 1069q0 188 -95 308t-278 120q-139 0 -254 -80v-1249l318 -88l-41 -82h-725v63l192 152v1245l-213 70l41 82h238q199 0 367 10t235 10q143 0 255 -60t173 -166t61 -244q0 -136 -104 -263t-266 -199t-318 -63l-96 70l41 81h166l2 -2q139 0 220 76t81 209z" />
    <glyph glyph-name="Q" unicode="Q" horiz-adv-x="1902" 
d="M999 131q135 0 247 79t175.5 219t63.5 328.5t-63.5 355.5t-192.5 266.5t-322 99.5q-135 0 -246.5 -79t-175 -219.5t-63.5 -327.5t63.5 -354t193.5 -267.5t320 -100.5zM1729 -541q-76 0 -233 161t-355 392q-137 -53 -262 -53q-217 0 -384 103.5t-259.5 288t-92.5 421
t139.5 440t346.5 321.5t409.5 118t369.5 -104.5t259 -289t92 -419t-135 -435t-342 -321.5q504 -379 567 -379h277l43 -92q-319 -152 -440 -152z" />
    <glyph glyph-name="R" unicode="R" horiz-adv-x="1656" 
d="M836 854q139 0 220 70.5t81 193.5q0 162 -90.5 269.5t-262.5 107.5q-115 0 -211 -68v-1275l215 -74l-40 -82h-623v63l192 152v1245l-213 70l41 82h238q186 0 342 10t219 10q137 0 244.5 -55t166 -149.5t58.5 -201.5t-63.5 -200.5t-167 -162t-217.5 -103.5l133 -45
l317 -512l244 -121l-41 -82h-381l-451 727l-96 70l31 61h115z" />
    <glyph glyph-name="S" unicode="S" horiz-adv-x="1433" 
d="M164 1154q0 99 86 217t210 199t239.5 81t283.5 -31t246 -66v-397h-78q-100 166 -220 258t-244 92t-192.5 -72.5t-68.5 -192.5t181 -226q77 -45 221.5 -119t238.5 -132q223 -138 223 -308q0 -102 -92 -220t-224 -199t-253 -81t-304.5 30.5t-262.5 65.5v398h77
q104 -166 237.5 -258.5t274.5 -92.5q84 0 149.5 37t100.5 97.5t35 126t-51 121t-128 101.5t-220.5 120.5t-237.5 133t-160.5 138.5t-66.5 179z" />
    <glyph glyph-name="T" unicode="T" horiz-adv-x="1703" 
d="M977 1518v-1362l215 -74l-41 -82h-623v63l193 152v1303h-244l-272 -404l-62 21v512l111 -37h1196l111 37v-512l-62 -21l-272 404h-250z" />
    <glyph glyph-name="U" unicode="U" horiz-adv-x="1839" 
d="M1583 635q0 -215 -103.5 -368.5t-255 -230.5t-315 -77t-308 81t-225.5 223.5t-81 320.5v872l-213 72l41 82h622v-64l-194 -151v-713q0 -260 128 -405.5t388 -145.5q96 0 189.5 62.5t153.5 183.5t60 285v759l-213 107l41 82h480v-64l-195 -151v-760z" />
    <glyph glyph-name="V" unicode="V" horiz-adv-x="1787" 
d="M664 1610v-64l-193 -149l494 -1190l520 1198l-361 123l41 82h623v-64l-193 -151l-579 -1329l-213 -105l-598 1442l-205 125l41 82h623z" />
    <glyph glyph-name="W" unicode="W" horiz-adv-x="2447" 
d="M602 1610v-64l-149 -112l426 -1201l305 852l-111 328l-188 115l41 82h602v-64l-182 -141l380 -1167l422 1167l-364 123l41 82h622v-64l-178 -139l-491 -1341l-213 -105l-326 965l-305 -860l-213 -105l-526 1450l-195 117l41 82h561z" />
    <glyph glyph-name="X" unicode="X" horiz-adv-x="1787" 
d="M1061 0v63l162 125l-389 492l-426 -481l297 -117l-41 -82h-623v63l227 140l502 559l-502 641l-207 125l41 82h623v-64l-162 -125l387 -487l391 475l-299 119l41 82h623v-64l-211 -129l-477 -567l502 -643l204 -125l-41 -82h-622z" />
    <glyph glyph-name="Y" unicode="Y" horiz-adv-x="1644" 
d="M496 0v63l192 152v365l-526 850l-162 98l41 82h623v-64l-191 -147l410 -666l426 666l-328 129l41 82h623v-64l-168 -102l-533 -834v-454l215 -74l-41 -82h-622z" />
    <glyph glyph-name="Z" unicode="Z" horiz-adv-x="1617" 
d="M141 0v92l1026 1426h-643l-258 -383l-61 20v492l110 -37h1151v-92l-1026 -1426h658l286 424l62 -20v-533l-111 37h-1194z" />
    <glyph glyph-name="bracketleft" unicode="[" horiz-adv-x="890" 
d="M492 -338h296v-92h-542v2384h542v-92h-296v-2200z" />
    <glyph glyph-name="backslash" unicode="\" horiz-adv-x="727" 
d="M582 -287l-541 2198l106 20l539 -2197z" />
    <glyph glyph-name="bracketright" unicode="]" horiz-adv-x="890" 
d="M399 1862h-297v92h543v-2384h-543v92h297v2200z" />
    <glyph glyph-name="asciicircum" unicode="^" horiz-adv-x="1222" 
d="M1120 580h-229l-334 675l-364 -675h-91v63l398 737l213 105l407 -823v-82z" />
    <glyph glyph-name="underscore" unicode="_" horiz-adv-x="1019" 
d="M82 -190h856v-84h-856v84z" />
    <glyph glyph-name="grave" unicode="`" horiz-adv-x="778" 
d="M573 1384l-450 355l39 49l274 39l219 -402z" />
    <glyph glyph-name="a" unicode="a" horiz-adv-x="1271" 
d="M379 338.5q0 -76.5 39 -130.5t104 -54q126 -1 269 114v207h-363q-49 -60 -49 -136.5zM123 279q0 150 205 280h463v131q0 133 -71 188.5t-196 55.5t-309 -154l-61 78l295 234q82 16 196 16q186 0 288.5 -91t102.5 -265v-598l185 -72l-41 -82h-389v178l-232 -182
q-41 -16 -102 -16q-176 0 -255 88t-79 211z" />
    <glyph glyph-name="b" unicode="b" horiz-adv-x="1443" 
d="M1034 481q0 189 -59 321t-168 132q-78 0 -152 -31t-176 -121v-366q0 -113 84 -189t240 -75q231 -1 231 329zM233 0v1466l-182 127v64l350 131h78v-914l275 218q66 16 167 16t190 -71t139 -191t50 -272t-96 -290t-240 -222t-280 -82q-171 0 -285 141l-88 -121h-78z" />
    <glyph glyph-name="c" unicode="c" horiz-adv-x="1255" 
d="M600 936q-190 0 -190 -330q0 -193 84 -322.5t239 -129.5q117 0 332 168l61 -78l-315 -248q-82 -16 -207 -16t-232.5 70.5t-168 191t-60.5 272.5t89.5 291t224.5 221t262 82q84 0 195.5 -23.5t160.5 -52.5v-315h-78q-80 102 -183 160.5t-214 58.5z" />
    <glyph glyph-name="d" unicode="d" horiz-adv-x="1443" 
d="M639 936q-231 0 -231 -330q0 -192 80 -322t229 -130q62 0 118 17t126 67v467q-11 103 -95 167t-227 64zM961 0v147l-191 -151q-66 -16 -180 -16t-220 70q-108 70 -168 192q-60 120 -60 272t96 290t240 221t268 83t217 -64v422l-183 127v64l350 131h78v-1634l183 -72
l-41 -82h-389z" />
    <glyph glyph-name="e" unicode="e" horiz-adv-x="1316" 
d="M641 936q-221 0 -231 -303h479q-18 111 -38 169q-46 134 -210 134zM604 -20q-125 0 -232.5 70.5t-168 191t-60.5 272.5t96.5 290t241 221t279.5 83q195 0 302 -153.5t107 -405.5h-757q12 -174 95 -284.5t221 -110.5t384 206l62 -77l-363 -287q-82 -16 -207 -16z" />
    <glyph glyph-name="f" unicode="f" horiz-adv-x="899" 
d="M731 1636q-190 0 -190 -329v-281h368v-84h-368v-772l286 -88l-41 -82h-673v63l182 144v735h-244v84h244v182q0 158 86 297t216 221t253 82q57 0 130 -11t103 -23v-316h-77q-51 82 -125 130t-150 48z" />
    <glyph glyph-name="g" unicode="g" horiz-adv-x="1310" 
d="M655 483q189 0 189 183q0 123 -79 198.5t-208 75.5q-186 0 -186 -178q0 -125 78.5 -202t205.5 -77zM1067 768q0 -96 -51 -183t-137 -152.5t-189 -98.5q-55 -55 -55 -117q0 -35 54 -64.5t180 -78.5t205 -97.5t79 -113.5t-79 -161.5t-195.5 -168.5t-228.5 -72t-268.5 39
t-260.5 78v316h78q115 -141 233.5 -215t267.5 -74q55 0 101.5 22.5t72 56t25.5 64.5q0 55 -63.5 95t-195.5 95.5t-194.5 94.5t-62.5 89t65.5 101t155.5 90q-33 -6 -67 -6q-109 0 -199 48t-142.5 128t-52.5 183.5t78 208t202 169t260 64.5t245 -82h321l2 -80h-241
q57 -82 57 -178z" />
    <glyph glyph-name="h" unicode="h" horiz-adv-x="1431" 
d="M950 0v690q0 113 -34.5 158t-113.5 45t-145.5 -24.5t-156.5 -94.5v-620l184 -72l-41 -82h-571v63l182 144v1259l-182 127v64l350 131h78v-918l280 222q43 16 113 16q139 0 221 -85t82 -230v-639l184 -72l-41 -82h-389z" />
    <glyph glyph-name="i" unicode="i" horiz-adv-x="796" 
d="M113 0v63l182 144v598l-182 127v63l350 131h78v-972l184 -72l-41 -82h-571zM551 1593.5q0 -57.5 -28.5 -99.5t-71.5 -66.5t-94 -24.5t-91.5 45t-40.5 102.5t29 99.5t72 66.5t94 24.5t91 -45t40 -102.5z" />
    <glyph glyph-name="j" unicode="j" horiz-adv-x="776" 
d="M541 203q0 -188 18 -244l-393 -500l-78 62q123 145 165 247.5t42 254.5v782l-182 127v63l350 131h78v-923zM551 1593.5q0 -57.5 -28.5 -99.5t-71.5 -66.5t-94 -24.5t-91.5 45t-40.5 102.5t29 99.5t72 66.5t94 24.5t91 -45t40 -102.5z" />
    <glyph glyph-name="k" unicode="k" horiz-adv-x="1411" 
d="M1325 1087v-63l-475 -399l346 -471l184 -72l-41 -82h-346l-385 541l383 321l-196 144l41 81h489zM72 0v63l182 144v1259l-182 127v64l350 131h78v-1634l184 -72l-41 -82h-571z" />
    <glyph glyph-name="l" unicode="l" horiz-adv-x="755" 
d="M72 0v63l182 144v1259l-182 127v64l350 131h78v-1634l184 -72l-41 -82h-571z" />
    <glyph glyph-name="m" unicode="m" horiz-adv-x="2127" 
d="M1649 0v690q0 113 -35 158q-36 45 -112 45t-138 -24t-145 -93v-622l184 -72l-41 -82h-389v690q0 113 -35 158q-36 45 -112 45t-138 -24t-145 -93v-622l184 -72l-41 -82h-571v63l182 144v579l-182 107v63l350 172l65 -262l273 228q43 16 112 16q119 0 197 -64t98 -178
l267 224q43 16 112 16q139 0 221 -85t82 -230v-639l187 -72l-41 -82h-389z" />
    <glyph glyph-name="n" unicode="n" horiz-adv-x="1472" 
d="M991 -2v690q0 113 -34.5 158t-114 45t-145.5 -24.5t-156 -94.5v-620l184 -72l-41 -82h-571v63l182 144v579l-182 107v63l350 172l67 -266l291 232q43 16 113 16q139 0 221 -85t82 -230v-639l184 -74l-41 -82h-389z" />
    <glyph glyph-name="o" unicode="o" horiz-adv-x="1374" 
d="M410 606q0 -195 84 -324.5t239 -129.5q231 0 232 331q0 193 -84 323t-240 130q-231 0 -231 -330zM1231 573.5q0 -151.5 -96.5 -290t-240.5 -221t-279.5 -82.5t-243 70.5t-168 191t-60.5 272.5t96.5 290t241 221t279.5 83t242.5 -70.5t168 -191.5t60.5 -272.5z" />
    <glyph glyph-name="p" unicode="p" horiz-adv-x="1505" 
d="M541 414q0 -113 84 -189t239 -75q231 0 232 329q0 182 -60 307t-168 125q-77 1 -151 -30t-176 -121v-346zM113 -522v63l182 144v1099l-182 107v63l350 172l67 -266l293 232q65 16 163 16t186 -71t140 -191q50 -120 50 -272t-96 -290t-240 -222t-281 -82v-3
q-110 0 -204 68v-397l286 -88l-41 -82h-673z" />
    <glyph glyph-name="q" unicode="q" horiz-adv-x="1443" 
d="M641 934q-231 0 -231 -330q0 -192 80 -322t229 -130q62 0 118 17t126 67v466q-11 102 -95 167t-227 65zM678 -522v63l285 152v452l-191 -151q-66 -16 -180 -16t-220 70q-108 71 -168 192q-60 120 -60 272t96 290t240 221t291 83t257 -121l102 143h78v-1495l185 -73
l-41 -82h-674z" />
    <glyph glyph-name="r" unicode="r" horiz-adv-x="1062" 
d="M750 891q-101 0 -209 -113v-610l286 -88l-41 -82h-673v63l182 144v579l-182 107v63l350 172l63 -252l213 218q43 16 113 16v-2q137 0 199 -139l-136 -170h-77q-15 94 -88 94z" />
    <glyph glyph-name="s" unicode="s" horiz-adv-x="1144" 
d="M184 757q0 69 61.5 152.5t151.5 141t176 57.5t210 -23.5t180 -52.5v-315h-78q-66 127 -152 197.5t-162.5 70.5t-115.5 -33.5t-39 -91t66.5 -108t186 -110.5t183.5 -99q152 -94 152 -207q0 -76 -65 -159t-158 -140t-182 -57t-227.5 23.5t-197.5 51.5v316h78
q72 -127 170 -198t182.5 -71t126 35t41.5 88.5t-63.5 101.5t-182 109t-184.5 102.5t-112 95.5t-46 123z" />
    <glyph glyph-name="t" unicode="t" horiz-adv-x="933" 
d="M582 -20q-170 0 -249 89t-79 275v598h-221v84l389 453h78v-453h368v-84h-368v-623q0 -166 159 -165q43 0 83 18t100 66l61 -78l-207 -164q-47 -16 -114 -16z" />
    <glyph glyph-name="u" unicode="u" horiz-adv-x="1431" 
d="M930 0v213l-260 -217q-43 -16 -113 -16q-139 0 -221 85t-82 230v489l-182 107v63l350 172h78v-729q0 -113 34.5 -157.5t111 -44.5t138.5 23.5t146 92.5v473l-182 107v63l350 172h78v-972l184 -72l-41 -82h-389z" />
    <glyph glyph-name="v" unicode="v" horiz-adv-x="1269" 
d="M1194 1087v-63l-518 -1024h-156l-319 780l-191 111v63l350 172l78 -309l250 -610l289 600l-272 199l40 81h449z" />
    <glyph glyph-name="w" unicode="w" horiz-adv-x="1841" 
d="M1767 1087v-63l-456 -1024h-156l-213 522l-264 -522h-156l-319 780l-191 111v63l350 172l78 -309l250 -608l201 432l-57 139l-191 111v63l350 172l78 -309l244 -592l246 574l-285 207l41 81h450z" />
    <glyph glyph-name="x" unicode="x" horiz-adv-x="1265" 
d="M39 -2v63l469 447l-297 385l-180 113l41 81h305l317 -423l219 204l-190 138l41 81h448v-63l-460 -438l299 -389l182 -115l-41 -82h-305l-322 430l-227 -213l190 -137l-41 -82h-448z" />
    <glyph glyph-name="y" unicode="y" horiz-adv-x="1269" 
d="M1194 1087v-63l-518 -1024l-426 -541l-78 62q117 125 177.5 219t85 189.5t24.5 226.5l-258 624l-191 111v63l350 172l78 -309l250 -610l289 600l-272 199l40 81h449z" />
    <glyph glyph-name="z" unicode="z" horiz-adv-x="1251" 
d="M143 0v78l688 764h-518l-82 -148l-61 21v409l113 -37h825v-77l-684 -764h508l88 168l61 -21v-430l-112 37h-826z" />
    <glyph glyph-name="braceleft" unicode="{" horiz-adv-x="1015" 
d="M270 844q191 0 191 330v262q0 158 85 296t216 222l49 -80q-104 -59 -104 -309v-293q0 -158 -85 -294t-216 -216q131 -80 216 -216t85 -294v-293q0 -250 104 -309l-49 -80q-131 84 -216 222t-85 296v262q0 330 -191 330h-188v164h188z" />
    <glyph glyph-name="bar" unicode="|" horiz-adv-x="763" 
d="M438 -410h-112v2429h112v-2429z" />
    <glyph glyph-name="braceright" unicode="}" horiz-adv-x="1015" 
d="M745 680q-190 0 -190 -330v-262q0 -158 -85 -296t-216 -222l-49 80q104 59 104 309v293q0 158 85 294t216 216q-131 80 -216 216t-85 294v293q0 250 -104 309l49 80q131 -84 216 -222t85 -296v-262q0 -330 190 -330h189v-164h-189z" />
    <glyph glyph-name="asciitilde" unicode="~" horiz-adv-x="1259" 
d="M338 631q-82 0 -174 -137l-62 77q52 115 134 197t154 82t133 -28q63 -28 149 -81t140 -79t110 -25q82 0 174 137l61 -78q-51 -114 -133 -196t-154 -82t-134 28t-148 80q-86 53 -140 79t-110 26z" />
    <glyph glyph-name="uni00A0" unicode="&#xa0;" horiz-adv-x="571" 
 />
    <glyph glyph-name="exclamdown" unicode="&#xa1;" horiz-adv-x="714" 
d="M551 -418l-279 -102h-77l108 1112h123l125 -946v-64zM537 960q0 -109 -101 -165q-43 -25 -94 -25t-91 45t-40 103q0 108 100 165q43 25 95 25t91 -45q40 -45 40 -103z" />
    <glyph glyph-name="cent" unicode="&#xa2;" horiz-adv-x="1255" 
d="M614 934h-18q-190 0 -190 -330l2 2q0 -151 53 -268t153 -162v758zM725 -412h-113v389q-134 0 -242 71t-168 192t-60 262t68 265q69 124 178 210q110 86 226 115v440h113v-426q85 -2 191 -25t155 -49v-315h-78q-113 147 -268 198v-761h6q117 0 332 168l61 -78l-319 -250
q-43 -10 -82 -12v-394z" />
    <glyph glyph-name="sterling" unicode="&#xa3;" horiz-adv-x="1476" 
d="M86 2v78l248 260v379h-316l43 84h273v250q0 158 89 297t224 221t262 82q84 0 196 -24t161 -52v-315h-78q-80 102 -183 160t-214 59q-211 0 -211 -330v-348h401l-43 -84h-358v-74q0 -96 -50 -205t-131 -192h787l65 166l60 -19v-430l-113 37h-1112z" />
    <glyph glyph-name="currency" unicode="&#xa4;" horiz-adv-x="1839" 
d="M1331 739q0 215 -116 353t-338 137q-99 0 -183 -48t-132 -132t-48 -204t50 -231q50 -110 152 -176t253 -65q98 0 182 48t132 132t48 186zM850 201q-205 0 -354 110l-285 -284l-64 63l281 281q-152 156 -152 388t201 423l-332 331l64 64l338 -338q102 76 221 120t225 44
q207 0 357 -111l284 285l64 -64l-283 -280q148 -156 148 -393l4 -4q-2 -232 -201 -414l334 -334l-64 -63l-342 340q-102 -78 -220 -121t-224 -43z" />
    <glyph glyph-name="yen" unicode="&#xa5;" horiz-adv-x="1644" 
d="M942 414h555l-43 -84h-512v-174l215 -74l-41 -82h-622v63l192 152v115h-553l43 84h510v166l-22 36h-531l43 84h436l-450 730l-162 98l41 82h623v-64l-191 -147l410 -666l426 666l-328 129l41 82h623v-64l-170 -102l-476 -744h498l-43 -84h-508l-4 -6v-196z" />
    <glyph glyph-name="brokenbar" unicode="&#xa6;" horiz-adv-x="763" 
d="M326 -410v949h112v-949h-112zM326 1071v948h112v-948h-112z" />
    <glyph glyph-name="section" unicode="&#xa7;" horiz-adv-x="1382" 
d="M676 1532q-72 0 -156 -57t-140 -141t-56 -176q0 -91 50 -200t145 -263q95 -153 141 -251q98 -208 -6 -342q-52 -68 -177 -133q80 -16 232 -16q71 0 153 57q82 56 140 140q109 156 10 372q-49 106 -148 260q-92 150 -139 250t-47 191t52 159t177 134q-80 16 -231 16z
M133 1136q0 116 86 235q86 118 210 199q123 81 239 81t284 -31t246 -66v-356h-78q-29 102 -72 155q-44 52 -84 52q-76 0 -77 -160q0 -92 42 -180q42 -89 136 -235t144 -258q51 -112 51 -225t-92 -231t-223 -200q-132 -82 -254 -82t-305 31t-263 65v357h78q39 -95 95 -151
t104 -56t78 45q28 45 28 124t-41 164t-135 233t-146 260q-52 114 -51 230z" />
    <glyph glyph-name="dieresis" unicode="&#xa8;" horiz-adv-x="1228" 
d="M490 1522q0 -54 -26 -95q-26 -40 -65 -63q-39 -24 -85 -24t-81 43q-36 43 -36 97q0 104 90 158q39 24 85 24t82 -43t36 -97zM987 1522q1 -54 -25 -95q-26 -40 -65 -63q-39 -24 -85 -24t-82 43t-36 97t26 95q26 40 65 63q39 24 85 24t81 -43q36 -43 36 -97z" />
    <glyph glyph-name="copyright" unicode="&#xa9;" horiz-adv-x="2066" 
d="M965 1106q-109 0 -109 -227q0 -152 62 -251q126 -199 430 7l61 -78l-233 -186q-396 -77 -536 195q-50 97 -50 221t76 239q76 116 192 184t204 68q89 0 174 -24t122 -52v-315h-78q-59 103 -143 161t-172 58zM379 853q0 -189 77 -355t233 -267q157 -100 390 -100
q172 0 312 79q139 79 218 219q79 141 79 329t-76 355t-234 266t-391 100q-172 0 -311 -79t-218 -219t-79 -328zM1923 836q0 -236 -153 -439q-152 -203 -378 -321t-450 -117q-224 0 -408 103q-186 104 -288 288t-102 421t152 441q153 204 379 321q225 117 449 117t409 -104
t287 -288q102 -186 103 -422z" />
    <glyph glyph-name="ordfeminine" unicode="&#xaa;" horiz-adv-x="1107" 
d="M338 890q0 -57 33.5 -97.5t88.5 -40.5q106 0 228 86v155h-308q-42 -46 -42 -103zM121 846q0 113 174 210h393v99q0 100 -60 141t-166 41t-263 -115l-52 59l251 175q70 12 167 12q158 0 245 -68.5t87 -198.5v-449l157 -54l-35 -61h-331v134l-196 -137q-35 -12 -87 -12
q-150 0 -217 66t-67 158z" />
    <glyph glyph-name="guillemotleft" unicode="&#xab;" horiz-adv-x="1370" 
d="M1139 227l-72 -51l-391 371l391 371l72 -52l-131 -274zM694 104l-71 -51l-521 494l521 493l71 -51l-260 -399z" />
    <glyph glyph-name="logicalnot" unicode="&#xac;" horiz-adv-x="1183" 
d="M999 174h-84v416h-833v84h915v-41h2v-459z" />
    <glyph glyph-name="softhyphen" unicode="&#xad;" horiz-adv-x="1050" 
d="M887 715v-62l-82 -104h-641v61l82 105h641z" />
    <glyph glyph-name="registered" unicode="&#xae;" horiz-adv-x="2066" 
d="M999 1135q-29 0 -49 -13v-266q43 -12 103 -12q59 0 95 34t36 97l4 -2q0 72 -48 117t-141 45zM948 373h-366v63l131 113v563l-152 53l41 82h156q136 1 244 11t153 10q127 0 206 -62t79 -152q0 -91 -95 -172t-225 -116l195 -59l86 -185l141 -67l-41 -82h-299l-133 278
q-20 43 -44 68t-77 31v-377zM1688 758q0 188 -76 355t-234 266t-391 100q-172 0 -311 -79t-218 -219t-79 -328q0 -189 77 -355t233 -267q157 -100 390 -100q173 0 312 79t218 219q79 141 79 329zM1923 836q0 -236 -153 -439q-152 -203 -378 -321t-450 -117q-224 0 -408 103
q-186 104 -288 288t-102 421t152 441q153 204 379 321q225 117 449 117t409 -104t287 -288q102 -186 103 -422z" />
    <glyph glyph-name="macron" unicode="&#xaf;" horiz-adv-x="1228" 
d="M195 1626h856v-92h-856v92z" />
    <glyph glyph-name="degree" unicode="&#xb0;" horiz-adv-x="882" 
d="M246 1514q0 -78 53 -145t128 -67t122 46t47 122t-52 142t-129 66t-123 -43t-46 -121zM760 1536q0 -110 -60 -192t-152 -128q-93 -44 -205 -44q-113 0 -187 81t-74 191t59 191t153 127t204 46q112 0 187 -81t75 -191z" />
    <glyph glyph-name="plusminus" unicode="&#xb1;" horiz-adv-x="1079" 
d="M582 590v-416h-84v416h-416v84h416v416h84v-416h415v-84h-415zM82 -63h915v-84h-915v84z" />
    <glyph glyph-name="twosuperior" unicode="&#xb2;" horiz-adv-x="1005" 
d="M90 850v63q387 267 469 375q43 55 43 112q0 56 -59 98t-157 42t-245 -106l-49 73l236 164q47 12 108 12q172 0 276 -58t103 -152q0 -137 -407 -449h376l54 121l61 -21v-301l-102 27h-707z" />
    <glyph glyph-name="threesuperior" unicode="&#xb3;" horiz-adv-x="956" 
d="M811 971q0 -154 -171 -273t-546 -227l-24 90q214 66 326 115t157 101q45 51 45 115t-44 104t-175 104v57q90 92 120 139q29 47 29 104q0 56 -50 98t-138 42t-238 -106l-49 73l236 164q31 12 101 12q70 -1 158 -29t141 -76q52 -48 52 -105q-4 -51 -44 -107t-130 -140
q138 -77 191 -133t53 -122z" />
    <glyph glyph-name="acute" unicode="&#xb4;" horiz-adv-x="778" 
d="M737 1739l-450 -355l-82 41l219 402l274 -39z" />
    <glyph glyph-name="uni00B5" unicode="&#xb5;" horiz-adv-x="1425" 
d="M938 -20v233l-260 -217q-43 -16 -88 -16t-82 4v-113q-2 -53 32 -122t87 -128l-287 -141h-78v1255q2 53 -32 122t-87 128l287 141h78v-729q0 -113 35 -157t111 -45t138 23t146 93v424q0 55 -33 123t-86 127l287 141h78v-755q0 -55 33 -123t86 -127l-287 -141h-78z" />
    <glyph glyph-name="paragraph" unicode="&#xb6;" horiz-adv-x="1703" 
d="M1274 -522v2130h307v-64l-195 -151v-1760l216 -73l-41 -82h-287zM655 1628q82 0 164 -10q139 -10 209 -10h51v-2130h-366v63l254 199v913l-457 -18q-121 0 -213 60q-92 61 -143 167q-52 106 -52 242t87 258q87 123 217 196t249 72v-2z" />
    <glyph glyph-name="periodcentered" unicode="&#xb7;" horiz-adv-x="694" 
d="M510 570q0 -107 -100 -167q-43 -25 -94 -25t-92 46q-40 44 -40 102q0 109 101 166q43 25 94 25t91 -45q40 -44 40 -102z" />
    <glyph glyph-name="cedilla" unicode="&#xb8;" horiz-adv-x="1228" 
d="M846 -332q0 -185 -393 -207v64q190 61 190 180q0 45 -30 81t-103 81l324 266l61 -47q-33 -29 -131 -106l-90 -74q98 -78 135 -129t37 -109z" />
    <glyph glyph-name="onesuperior" unicode="&#xb9;" horiz-adv-x="874" 
d="M180 850v65l160 109v514l-176 53l33 78h497v-65l-157 -109v-516l174 -51l-33 -78h-498z" />
    <glyph glyph-name="ordmasculine" unicode="&#xba;" horiz-adv-x="1210" 
d="M365 1092q0 -146 71 -243.5t204 -97.5q197 0 196 248q0 144 -71 242t-204 98q-196 0 -196 -247zM1063 1067.5q0 -113.5 -82 -217.5t-205 -166t-237.5 -62t-206 53t-143 143.5t-51.5 204t82 217t204.5 166t237.5 62.5t206.5 -53t143 -143.5t51.5 -204z" />
    <glyph glyph-name="guillemotright" unicode="&#xbb;" horiz-adv-x="1370" 
d="M303 174l-72 51l131 275l-131 364l72 51l391 -370zM748 51l-72 51l260 400l-260 485l72 51l520 -493z" />
    <glyph glyph-name="onequarter" unicode="&#xbc;" horiz-adv-x="2138" 
d="M180 850v65l160 109v514l-176 53l33 78h497v-65l-157 -109v-516l174 -51l-33 -78h-498zM510 -393l-78 39l1272 2394l80 -37zM1640 27v426l-389 -426h389zM1837 -94v-289l-197 -86v375h-606v63l606 645l197 84v-671h250l-57 -121h-193z" />
    <glyph glyph-name="onehalf" unicode="&#xbd;" horiz-adv-x="2306" 
d="M180 850v65l160 109v514l-176 53l33 78h497v-65l-157 -109v-516l174 -51l-33 -78h-498zM510 -393l-78 39l1272 2394l80 -37zM1391 -162v64q384 265 469 374q43 55 43 112q1 56 -59 98t-157 42t-245 -106l-49 74l235 163q47 12 109 13q172 0 275 -58t104 -153
q0 -137 -408 -449h377l53 121l62 -20v-301l-103 26h-706z" />
    <glyph glyph-name="threequarters" unicode="&#xbe;" horiz-adv-x="2220" 
d="M811 971q0 -154 -171 -273t-546 -227l-24 90q214 66 326 115t157 101q45 51 45 115t-44 104t-175 104v57q90 92 120 139q29 47 29 104q0 56 -50 98t-138 42t-238 -106l-49 73l236 164q31 12 101 12q70 -1 158 -29t141 -76q52 -48 52 -105q-4 -51 -44 -107t-130 -140
q138 -77 191 -133t53 -122zM592 -393l-78 39l1272 2394l80 -37zM1722 27v426l-389 -426h389zM1919 -94v-289l-197 -86v375h-606v63l606 645l197 84v-671h250l-58 -121h-192z" />
    <glyph glyph-name="questiondown" unicode="&#xbf;" horiz-adv-x="827" 
d="M600 352q0 -70 -55 -129t-147 -127t-129 -105q-38 -38 -38 -81q-1 -43 47 -111q48 -69 122 -117t152 -48q79 0 214 77l61 -78l-202 -157q-81 -16 -177 -16t-198 52t-176 132t-74 156t56 138q56 60 148 128t129 104q36 35 36 68q0 80 -86 157v64l215 106
q102 -102 102 -213zM600 960q0 -108 -100 -165q-43 -25 -94 -25t-92 45q-40 45 -40 103q0 109 101 165q43 25 94 25t91 -45t40 -103z" />
    <glyph glyph-name="Agrave" unicode="&#xc0;" horiz-adv-x="1781" 
d="M817 1403l-311 -719h610zM1118 0v63l193 150l-158 379h-688l-168 -387l360 -123l-41 -82h-622v63l192 152l580 1329l213 105l598 -1442l205 -125l-41 -82h-623zM934 1907l-451 354l39 49l275 39l219 -401z" />
    <glyph glyph-name="Aacute" unicode="&#xc1;" horiz-adv-x="1781" 
d="M817 1403l-311 -719h610zM1118 0v63l193 150l-158 379h-688l-168 -387l360 -123l-41 -82h-622v63l192 152l580 1329l213 105l598 -1442l205 -125l-41 -82h-623zM1300 2261l-450 -354l-82 41l219 401l275 -39z" />
    <glyph glyph-name="Acircumflex" unicode="&#xc2;" horiz-adv-x="1781" 
d="M817 1403l-311 -719h610zM1118 0v63l193 150l-158 379h-688l-168 -387l360 -123l-41 -82h-622v63l192 152l580 1329l213 105l598 -1442l205 -125l-41 -82h-623zM1311 1915l-254 -39l-240 274l-323 -256l-62 78l453 359l465 -367z" />
    <glyph glyph-name="Atilde" unicode="&#xc3;" horiz-adv-x="1781" 
d="M817 1403l-311 -719h610zM1118 0v63l193 150l-158 379h-688l-168 -387l360 -123l-41 -82h-622v63l192 152l580 1329l213 105l598 -1442l205 -125l-41 -82h-623zM1067 2175q66 0 127 45l70 53l61 -78l-330 -260q-150 154 -280 154q-70 0 -133 -47l-66 -49l-61 78l329 260
q150 -156 283 -156z" />
    <glyph glyph-name="Adieresis" unicode="&#xc4;" horiz-adv-x="1781" 
d="M817 1403l-311 -719h610zM1118 0v63l193 150l-158 379h-688l-168 -387l360 -123l-41 -82h-622v63l192 152l580 1329l213 105l598 -1442l205 -125l-41 -82h-623zM1061 2075.5q0 54.5 25.5 93.5t64.5 62.5t85 23.5t82 -43t36 -97.5t-25.5 -93.5t-64.5 -62.5t-85 -23.5
t-82 43t-36 97.5zM426 2075.5q0 54.5 25.5 93.5t64.5 62.5t85 23.5t82 -43t36 -97.5t-25.5 -93.5t-64.5 -62.5t-85 -23.5t-82 43t-36 97.5z" />
    <glyph glyph-name="Aring" unicode="&#xc5;" horiz-adv-x="1781" 
d="M817 1403l-311 -719h610zM1118 0v63l193 150l-158 379h-688l-168 -387l360 -123l-41 -82h-622v63l192 152l580 1329l213 105l598 -1442l205 -125l-41 -82h-623zM837.5 2241q-102.5 0 -102.5 -84q0 -90 52.5 -149.5t154.5 -59.5t102 88t-52 146.5t-154.5 58.5zM1188 2136
q0 -78 -57.5 -140.5t-143.5 -100t-175 -37.5t-154.5 58t-65.5 136t57.5 140.5t143.5 100.5t176 38t154.5 -58.5t64.5 -136.5z" />
    <glyph glyph-name="AE" unicode="&#xc6;" horiz-adv-x="2252" 
d="M961 866v555l-314 -555h314zM768 -2v63l193 152v561h-365l-320 -569l320 -125l-41 -82h-561v63l153 121l703 1256l-264 90l41 82h1290l111 37v-471l-62 -21l-244 363h-503v-650h260l149 262h64v-622l-82 -41l-129 309h-262v-684h495l273 404l61 -21l-2 -514l-111 37
h-1167z" />
    <glyph glyph-name="Ccedilla" unicode="&#xc7;" horiz-adv-x="1679" 
d="M1100 -334q0 -185 -393 -207v64q190 61 190 180q0 45 -29.5 81t-103.5 81l117 94h-7q-215 0 -380.5 104.5t-258 288t-92.5 420t139.5 440t346.5 321.5t395 118q109 0 251 -31t208 -66v-397h-78q-188 322 -500 322q-135 0 -246.5 -79t-175 -219.5t-63.5 -328t62.5 -353
t190.5 -266t309 -100.5t507 262l61 -98l-376 -293h-5q-83 -29 -165 -39l-76 -61q98 -78 135 -129t37 -109z" />
    <glyph glyph-name="Egrave" unicode="&#xc8;" horiz-adv-x="1667" 
d="M123 0v63l192 152v1241l-213 72l41 82h1188l111 37v-471l-62 -21l-243 363h-566v-650h322l149 262h64v-622l-82 -41l-129 309h-324v-684h557l273 404l61 -21v-512l-110 37h-1229zM877 1907l-451 354l39 49l274 39l219 -401z" />
    <glyph glyph-name="Eacute" unicode="&#xc9;" horiz-adv-x="1667" 
d="M123 0v63l192 152v1241l-213 72l41 82h1188l111 37v-471l-62 -21l-243 363h-566v-650h322l149 262h64v-622l-82 -41l-129 309h-324v-684h557l273 404l61 -21v-512l-110 37h-1229zM1243 2261l-450 -354l-82 41l219 401l274 -39z" />
    <glyph glyph-name="Ecircumflex" unicode="&#xca;" horiz-adv-x="1667" 
d="M123 0v63l192 152v1241l-213 72l41 82h1188l111 37v-471l-62 -21l-243 363h-566v-650h322l149 262h64v-622l-82 -41l-129 309h-324v-684h557l273 404l61 -21v-512l-110 37h-1229zM1253 1915l-254 -39l-239 274l-324 -256l-61 78l452 359l465 -367z" />
    <glyph glyph-name="Edieresis" unicode="&#xcb;" horiz-adv-x="1667" 
d="M123 0v63l192 152v1241l-213 72l41 82h1188l111 37v-471l-62 -21l-243 363h-566v-650h322l149 262h64v-622l-82 -41l-129 309h-324v-684h557l273 404l61 -21v-512l-110 37h-1229zM1004 2075.5q0 54.5 25.5 93.5t64.5 62.5t84.5 23.5t81.5 -43t36 -97.5t-25.5 -93.5
t-64.5 -62.5t-85 -23.5t-81.5 43t-35.5 97.5zM369 2075.5q0 54.5 25.5 93.5t64.5 62.5t85 23.5t82 -43t36 -97.5t-26 -93.5t-65 -62.5t-85 -23.5t-81.5 43t-35.5 97.5z" />
    <glyph glyph-name="Igrave" unicode="&#xcc;" horiz-adv-x="888" 
d="M123 0v63l192 152v1241l-213 72l41 82h623v-64l-195 -151v-1239l215 -74l-41 -82h-622zM487 1907l-450 354l39 49l274 39l219 -401z" />
    <glyph glyph-name="Iacute" unicode="&#xcd;" horiz-adv-x="888" 
d="M123 0v63l192 152v1241l-213 72l41 82h623v-64l-195 -151v-1239l215 -74l-41 -82h-622zM854 2261l-451 -354l-81 41l219 401l274 -39z" />
    <glyph glyph-name="Icircumflex" unicode="&#xce;" horiz-adv-x="888" 
d="M123 0v63l192 152v1241l-213 72l41 82h623v-64l-195 -151v-1239l215 -74l-41 -82h-622zM864 1915l-254 -39l-239 274l-324 -256l-61 78l452 359l465 -367z" />
    <glyph glyph-name="Idieresis" unicode="&#xcf;" horiz-adv-x="888" 
d="M123 0v63l192 152v1241l-213 72l41 82h623v-64l-195 -151v-1239l215 -74l-41 -82h-622zM328 2016.5q0 -54.5 -26 -94t-64.5 -63t-84.5 -23.5t-82 43t-36 97.5t25.5 94t64.5 63t85 23.5t82 -43t36 -97.5zM826 2016.5q0 -54.5 -26 -94t-64.5 -63t-84.5 -23.5t-82.5 43
t-36.5 97.5t26 94t64.5 63t85 23.5t82.5 -43t36 -97.5z" />
    <glyph glyph-name="Eth" unicode="&#xd0;" horiz-adv-x="1820" 
d="M1401 758.5q0 191.5 -65.5 362.5t-200 273.5t-332.5 102.5q-125 0 -232 -74v-1243q125 -51 288 -51t284 79t189.5 219t68.5 331.5zM1677 835q0 -230 -136 -428t-338 -314t-386 -116q-94 0 -190 11q-158 10 -244 10h-260v63l192 152v1245l-213 70l41 82h238
q195 0 356.5 10t225.5 10v-2q211 0 373.5 -101.5t251.5 -281.5t89 -410z" />
    <glyph glyph-name="Ntilde" unicode="&#xd1;" horiz-adv-x="1789" 
d="M1513 -2h-112l-973 1231v-1041l215 -108l-41 -82h-479v63l192 152v1200l-213 115l41 82h310l948 -1200v1011l-213 107l41 82h479v-66l-195 -151v-1395zM1071 2175q66 0 127 45l70 53l61 -78l-330 -260q-150 154 -280 154q-70 0 -133 -47l-66 -49l-61 78l329 260
q150 -156 283 -156z" />
    <glyph glyph-name="Ograve" unicode="&#xd2;" horiz-adv-x="1902" 
d="M420 852.5q0 -187.5 63.5 -354t193.5 -267t320 -100.5q135 0 247 79t175.5 219t63.5 328.5t-63.5 355.5t-192.5 266.5t-322 99.5q-135 0 -246.5 -79t-175 -219.5t-63.5 -328zM1759 836.5q0 -236.5 -139 -439t-346 -320.5t-409.5 -118t-369.5 103.5t-259.5 288t-92.5 421
t139.5 440t346.5 321.5t409.5 118t369.5 -104.5t259 -289t92 -421zM995 1907l-450 354l39 49l274 39l219 -401z" />
    <glyph glyph-name="Oacute" unicode="&#xd3;" horiz-adv-x="1902" 
d="M420 852.5q0 -187.5 63.5 -354t193.5 -267t320 -100.5q135 0 247 79t175.5 219t63.5 328.5t-63.5 355.5t-192.5 266.5t-322 99.5q-135 0 -246.5 -79t-175 -219.5t-63.5 -328zM1759 836.5q0 -236.5 -139 -439t-346 -320.5t-409.5 -118t-369.5 103.5t-259.5 288t-92.5 421
t139.5 440t346.5 321.5t409.5 118t369.5 -104.5t259 -289t92 -421zM1362 2261l-451 -354l-82 41l220 401l274 -39z" />
    <glyph glyph-name="Ocircumflex" unicode="&#xd4;" horiz-adv-x="1902" 
d="M420 852.5q0 -187.5 63.5 -354t193.5 -267t320 -100.5q135 0 247 79t175.5 219t63.5 328.5t-63.5 355.5t-192.5 266.5t-322 99.5q-135 0 -246.5 -79t-175 -219.5t-63.5 -328zM1759 836.5q0 -236.5 -139 -439t-346 -320.5t-409.5 -118t-369.5 103.5t-259.5 288t-92.5 421
t139.5 440t346.5 321.5t409.5 118t369.5 -104.5t259 -289t92 -421zM1372 1915l-254 -39l-239 274l-324 -256l-61 78l452 359l465 -367z" />
    <glyph glyph-name="Otilde" unicode="&#xd5;" horiz-adv-x="1902" 
d="M420 852.5q0 -187.5 63.5 -354t193.5 -267t320 -100.5q135 0 247 79t175.5 219t63.5 328.5t-63.5 355.5t-192.5 266.5t-322 99.5q-135 0 -246.5 -79t-175 -219.5t-63.5 -328zM1759 836.5q0 -236.5 -139 -439t-346 -320.5t-409.5 -118t-369.5 103.5t-259.5 288t-92.5 421
t139.5 440t346.5 321.5t409.5 118t369.5 -104.5t259 -289t92 -421zM1128 2175q66 0 127 45l70 53l61 -78l-329 -260q-150 154 -281 154q-70 0 -133 -47l-65 -49l-62 78l330 260q149 -156 282 -156z" />
    <glyph glyph-name="Odieresis" unicode="&#xd6;" horiz-adv-x="1902" 
d="M420 852.5q0 -187.5 63.5 -354t193.5 -267t320 -100.5q135 0 247 79t175.5 219t63.5 328.5t-63.5 355.5t-192.5 266.5t-322 99.5q-135 0 -246.5 -79t-175 -219.5t-63.5 -328zM1759 836.5q0 -236.5 -139 -439t-346 -320.5t-409.5 -118t-369.5 103.5t-259.5 288t-92.5 421
t139.5 440t346.5 321.5t409.5 118t369.5 -104.5t259 -289t92 -421zM1415 2114.5q0 -54.5 -25.5 -93.5t-64.5 -62.5t-85 -23.5t-82 43t-36 97.5t26 93.5t64.5 62.5t84.5 23.5t82 -43t36 -97.5zM780 2114.5q0 -54.5 -25.5 -93.5t-64.5 -62.5t-85 -23.5t-82 43t-36 97.5
t26 93.5t64.5 62.5t85 23.5t82 -43t35.5 -97.5z" />
    <glyph glyph-name="multiply" unicode="&#xd7;" horiz-adv-x="1042" 
d="M961 250l-60 -60l-381 381l-381 -381l-59 60l381 381l-381 381l59 59l381 -381l381 381l60 -59l-381 -381z" />
    <glyph glyph-name="Oslash" unicode="&#xd8;" horiz-adv-x="1902" 
d="M1483 741q0 371 -185 572l-624 -1082q135 -100 323 -100v-2q136 0 247.5 79t175 219t63.5 314zM420 867q0 -173 47 -322.5t139 -249.5l625 1081q-135 100 -326 101q-135 0 -246.5 -79t-175 -218.5t-63.5 -312.5zM1759 831.5q0 -233.5 -139 -436t-346 -320.5t-389 -118
t-328 70l-192 -334l-78 45l192 334q-158 104 -246 284.5t-88 414t139.5 437t346.5 321.5t389 118t328 -70l194 338l78 -45l-195 -336q158 -104 246 -286.5t88 -416z" />
    <glyph glyph-name="Ugrave" unicode="&#xd9;" horiz-adv-x="1839" 
d="M1583 635q0 -215 -103.5 -368.5t-255 -230.5t-315 -77t-308 81t-225.5 223.5t-81 320.5v872l-213 72l41 82h622v-64l-194 -151v-713q0 -260 128 -405.5t388 -145.5q96 0 189.5 62.5t153.5 183.5t60 285v759l-213 107l41 82h480v-64l-195 -151v-760zM989 1907l-450 354
l39 49l274 39l219 -401z" />
    <glyph glyph-name="Uacute" unicode="&#xda;" horiz-adv-x="1839" 
d="M1583 635q0 -215 -103.5 -368.5t-255 -230.5t-315 -77t-308 81t-225.5 223.5t-81 320.5v872l-213 72l41 82h622v-64l-194 -151v-713q0 -260 128 -405.5t388 -145.5q96 0 189.5 62.5t153.5 183.5t60 285v759l-213 107l41 82h480v-64l-195 -151v-760zM1356 2261l-451 -354
l-82 41l219 401l275 -39z" />
    <glyph glyph-name="Ucircumflex" unicode="&#xdb;" horiz-adv-x="1839" 
d="M1583 635q0 -215 -103.5 -368.5t-255 -230.5t-315 -77t-308 81t-225.5 223.5t-81 320.5v872l-213 72l41 82h622v-64l-194 -151v-713q0 -260 128 -405.5t388 -145.5q96 0 189.5 62.5t153.5 183.5t60 285v759l-213 107l41 82h480v-64l-195 -151v-760zM1366 1915l-254 -39
l-240 274l-323 -256l-62 78l453 359l465 -367z" />
    <glyph glyph-name="Udieresis" unicode="&#xdc;" horiz-adv-x="1839" 
d="M1583 635q0 -215 -103.5 -368.5t-255 -230.5t-315 -77t-308 81t-225.5 223.5t-81 320.5v872l-213 72l41 82h622v-64l-194 -151v-713q0 -260 128 -405.5t388 -145.5q96 0 189.5 62.5t153.5 183.5t60 285v759l-213 107l41 82h480v-64l-195 -151v-760zM1116 2075.5
q0 54.5 25.5 93.5t64.5 62.5t85 23.5t82 -43t36 -97.5t-25.5 -93.5t-64.5 -62.5t-85 -23.5t-82 43t-36 97.5zM481 2075.5q0 54.5 25.5 93.5t64.5 62.5t85 23.5t82 -43t36 -97.5t-25.5 -93.5t-64.5 -62.5t-85 -23.5t-82 43t-36 97.5z" />
    <glyph glyph-name="Yacute" unicode="&#xdd;" horiz-adv-x="1644" 
d="M496 0v63l192 152v365l-526 850l-162 98l41 82h623v-64l-191 -147l410 -666l426 666l-328 129l41 82h623v-64l-168 -102l-533 -834v-454l215 -74l-41 -82h-622zM1233 2261l-451 -354l-82 41l220 401l274 -39z" />
    <glyph glyph-name="Thorn" unicode="&#xde;" horiz-adv-x="1595" 
d="M897 522q139 0 220 60t81 163q0 159 -95 263t-278 104q-139 0 -254 -80v-878l215 -74l-41 -82h-622v63l192 152v1241l-213 72l41 82h623v-64l-195 -151v-166l412 18l2 -2q143 0 255 -53q112 -54 173 -146t61 -210t-104 -230q-104 -114 -266 -178t-318 -55l-96 69l41 82
h166z" />
    <glyph glyph-name="germandbls" unicode="&#xdf;" horiz-adv-x="1595" 
d="M729 1636q-190 0 -190 -329v-1307h-428v63l182 144v735h-242v84h242v182q0 158 86 297t216 221t253 82q76 0 178 -52t176 -132t74 -160t-43 -140t-119 -132t-110 -120t-35 -112q0 -64 54 -117q55 -53 155 -123t151 -114q125 -107 125 -229q0 -82 -58 -176
q-58 -93 -142 -157t-162 -64t-197 17t-168 38v315h78q57 -116 141 -182t166 -66q49 0 80 48t31 112q-1 66 -53 118t-152 122t-153 116q-128 111 -128 236q0 76 43 138t119 138t111 122q34 48 34 98t-47 120q-47 68 -121 117t-147 49z" />
    <glyph glyph-name="agrave" unicode="&#xe0;" horiz-adv-x="1271" 
d="M379 338.5q0 -76.5 39 -130.5t104 -54q126 -1 269 114v207h-363q-49 -60 -49 -136.5zM123 279q0 150 205 280h463v131q0 133 -71 188.5t-196 55.5t-309 -154l-61 78l295 234q82 16 196 16q186 0 288.5 -91t102.5 -265v-598l185 -72l-41 -82h-389v178l-232 -182
q-41 -16 -102 -16q-176 0 -255 88t-79 211zM655 1384l-450 355l39 49l274 39l219 -402z" />
    <glyph glyph-name="aacute" unicode="&#xe1;" horiz-adv-x="1271" 
d="M379 338.5q0 -76.5 39 -130.5t104 -54q126 -1 269 114v207h-363q-49 -60 -49 -136.5zM123 279q0 150 205 280h463v131q0 133 -71 188.5t-196 55.5t-309 -154l-61 78l295 234q82 16 196 16q186 0 288.5 -91t102.5 -265v-598l185 -72l-41 -82h-389v178l-232 -182
q-41 -16 -102 -16q-176 0 -255 88t-79 211zM1022 1739l-451 -355l-82 41l220 402l274 -39z" />
    <glyph glyph-name="acircumflex" unicode="&#xe2;" horiz-adv-x="1271" 
d="M379 338.5q0 -76.5 39 -130.5t104 -54q126 -1 269 114v207h-363q-49 -60 -49 -136.5zM123 279q0 150 205 280h463v131q0 133 -71 188.5t-196 55.5t-309 -154l-61 78l295 234q82 16 196 16q186 0 288.5 -91t102.5 -265v-598l185 -72l-41 -82h-389v178l-232 -182
q-41 -16 -102 -16q-176 0 -255 88t-79 211zM1032 1393l-254 -39l-239 274l-324 -256l-61 78l452 358l465 -366z" />
    <glyph glyph-name="atilde" unicode="&#xe3;" horiz-adv-x="1271" 
d="M379 338.5q0 -76.5 39 -130.5t104 -54q126 -1 269 114v207h-363q-49 -60 -49 -136.5zM123 279q0 150 205 280h463v131q0 133 -71 188.5t-196 55.5t-309 -154l-61 78l295 234q82 16 196 16q186 0 288.5 -91t102.5 -265v-598l185 -72l-41 -82h-389v178l-232 -182
q-41 -16 -102 -16q-176 0 -255 88t-79 211zM788 1653q66 0 127 45l70 53l62 -78l-330 -260q-150 154 -281 154q-70 0 -133 -47l-65 -50l-62 78l330 260q149 -155 282 -155z" />
    <glyph glyph-name="adieresis" unicode="&#xe4;" horiz-adv-x="1271" 
d="M379 338.5q0 -76.5 39 -130.5t104 -54q126 -1 269 114v207h-363q-49 -60 -49 -136.5zM123 279q0 150 205 280h463v131q0 133 -71 188.5t-196 55.5t-309 -154l-61 78l295 234q82 16 196 16q186 0 288.5 -91t102.5 -265v-598l185 -72l-41 -82h-389v178l-232 -182
q-41 -16 -102 -16q-176 0 -255 88t-79 211zM741 1553.5q0 54.5 26 93.5t64.5 62.5t84.5 23.5t82 -43t36 -97.5t-25.5 -93.5t-64.5 -62.5t-85 -23.5t-82 43t-36 97.5zM188 1553.5q0 54.5 26 93.5t64.5 62.5t84.5 23.5t82 -43t36 -97.5t-25.5 -93.5t-64.5 -62.5t-85 -23.5
t-82 43t-36 97.5z" />
    <glyph glyph-name="aring" unicode="&#xe5;" horiz-adv-x="1271" 
d="M379 338.5q0 -76.5 39 -130.5t104 -54q126 -1 269 114v207h-363q-49 -60 -49 -136.5zM123 279q0 150 205 280h463v131q0 133 -71 188.5t-196 55.5t-309 -154l-61 78l295 234q82 16 196 16q186 0 288.5 -91t102.5 -265v-598l185 -72l-41 -82h-389v178l-232 -182
q-41 -16 -102 -16q-176 0 -255 88t-79 211zM559.5 1718q-102.5 0 -102.5 -84q0 -90 52 -149.5t154.5 -59.5t102.5 88t-52 146.5t-154.5 58.5zM909 1614q0 -78 -57 -140.5t-143 -100.5t-175 -38t-155 58.5t-66 136.5t57.5 140.5t143.5 100t176 37.5t154.5 -58t64.5 -136z" />
    <glyph glyph-name="ae" unicode="&#xe6;" horiz-adv-x="1875" 
d="M377 339q0 -77 45 -131t119 -54l2 -2q121 0 264 129q-35 92 -41 194h-340q-49 -59 -49 -136zM1243 936q-201 0 -211 -303h418q-16 115 -32 171q-35 132 -175 132zM645 1108q244 0 332 -168q86 78 189 123t198 45q176 0 272 -154t97 -405h-697q12 -171 88 -283t198 -112
q124 0 343 178l61 -78l-323 -258q-82 -16 -195 -16q-112 0 -204 56t-152 154l-231 -194q-66 -16 -164 -16q-176 0 -255 88t-79 211q0 150 205 278h442v133q0 244 -244 244q-127 0 -311 -154l-61 78l295 234q82 16 196 16z" />
    <glyph glyph-name="ccedilla" unicode="&#xe7;" horiz-adv-x="1255" 
d="M600 936q-190 0 -190 -330q0 -193 84 -322.5t239 -129.5q117 0 332 168l61 -78l-428 -340v-2q99 -78 135.5 -129.5t36.5 -108.5q0 -185 -393 -207v64q190 61 191 180q0 45 -30 81t-103 81l141 117h-62q-135 0 -242.5 70.5t-168 191t-60.5 272.5t89.5 291t224.5 221
t262 82q84 0 195.5 -23.5t160.5 -52.5v-315h-78q-80 102 -183 160.5t-214 58.5z" />
    <glyph glyph-name="egrave" unicode="&#xe8;" horiz-adv-x="1316" 
d="M641 936q-221 0 -231 -303h479q-18 111 -38 169q-46 134 -210 134zM604 -20q-125 0 -232.5 70.5t-168 191t-60.5 272.5t96.5 290t241 221t279.5 83q195 0 302 -153.5t107 -405.5h-757q12 -174 95 -284.5t221 -110.5t384 206l62 -77l-363 -287q-82 -16 -207 -16zM702 1384
l-450 355l39 49l274 39l219 -402z" />
    <glyph glyph-name="eacute" unicode="&#xe9;" horiz-adv-x="1316" 
d="M641 936q-221 0 -231 -303h479q-18 111 -38 169q-46 134 -210 134zM604 -20q-125 0 -232.5 70.5t-168 191t-60.5 272.5t96.5 290t241 221t279.5 83q195 0 302 -153.5t107 -405.5h-757q12 -174 95 -284.5t221 -110.5t384 206l62 -77l-363 -287q-82 -16 -207 -16z
M1069 1739l-451 -355l-81 41l219 402l274 -39z" />
    <glyph glyph-name="ecircumflex" unicode="&#xea;" horiz-adv-x="1316" 
d="M641 936q-221 0 -231 -303h479q-18 111 -38 169q-46 134 -210 134zM604 -20q-125 0 -232.5 70.5t-168 191t-60.5 272.5t96.5 290t241 221t279.5 83q195 0 302 -153.5t107 -405.5h-757q12 -174 95 -284.5t221 -110.5t384 206l62 -77l-363 -287q-82 -16 -207 -16z
M1079 1393l-254 -39l-239 274l-324 -256l-61 78l452 358l465 -366z" />
    <glyph glyph-name="edieresis" unicode="&#xeb;" horiz-adv-x="1316" 
d="M641 936q-221 0 -231 -303h479q-18 111 -38 169q-46 134 -210 134zM604 -20q-125 0 -232.5 70.5t-168 191t-60.5 272.5t96.5 290t241 221t279.5 83q195 0 302 -153.5t107 -405.5h-757q12 -174 95 -284.5t221 -110.5t384 206l62 -77l-363 -287q-82 -16 -207 -16z
M788 1553.5q0 54.5 26 93.5t65 62.5t84.5 23.5t81.5 -43t36 -97.5t-25.5 -93.5t-64.5 -62.5t-85 -23.5t-82 43t-36 97.5zM236 1553.5q0 54.5 25.5 93.5t64.5 62.5t84.5 23.5t81.5 -43t36 -97.5t-25.5 -93.5t-64.5 -62.5t-85 -23.5t-81.5 43t-35.5 97.5z" />
    <glyph glyph-name="igrave" unicode="&#xec;" horiz-adv-x="796" 
d="M113 0v63l182 144v598l-182 127v63l350 131h78v-972l184 -72l-41 -82h-571zM432 1384l-450 355l38 49l275 39l219 -402z" />
    <glyph glyph-name="iacute" unicode="&#xed;" horiz-adv-x="796" 
d="M113 0v63l182 144v598l-182 127v63l350 131h78v-972l184 -72l-41 -82h-571zM799 1739l-451 -355l-82 41l219 402l275 -39z" />
    <glyph glyph-name="icircumflex" unicode="&#xee;" horiz-adv-x="796" 
d="M113 0v63l182 144v598l-182 127v63l350 131h78v-972l184 -72l-41 -82h-571zM809 1393l-254 -39l-240 274l-323 -256l-62 78l453 358l465 -366z" />
    <glyph glyph-name="idieresis" unicode="&#xef;" horiz-adv-x="796" 
d="M113 0v63l182 144v598l-182 127v63l350 131h78v-972l184 -72l-41 -82h-571zM811 1592.5q0 -54.5 -25.5 -93.5t-64.5 -62.5t-85 -23.5t-82 43t-36 97.5t25.5 93.5t64.5 62.5t85 23.5t82 -43t36 -97.5zM83 1413q-46 0 -82 43t-36 97.5t25.5 93.5t64.5 62.5t85 23.5t82 -43
t36 -97.5t-25.5 -93.5t-64.5 -62.5t-85 -23.5z" />
    <glyph glyph-name="eth" unicode="&#xf0;" horiz-adv-x="1374" 
d="M639 932q-231 0 -231 -330q0 -280 153 -398q73 -56 168 -57q125 1 183 106t58 308t-59 371h-272zM1229 712q0 -202 -86 -369q-85 -167 -227 -267t-290 -100t-254 69q-108 70 -169 191t-61 267t89 285q89 140 233 228t294 88q23 0 80 -4q-92 166 -236 297l-358 -217
l-43 73l331 201q-182 141 -405 203v63l238 88q205 -61 393 -215l356 215l45 -73l-334 -201l-2 -4q184 -172 295 -394t111 -424z" />
    <glyph glyph-name="ntilde" unicode="&#xf1;" horiz-adv-x="1472" 
d="M991 -2v690q0 113 -34.5 158t-114 45t-145.5 -24.5t-156 -94.5v-620l184 -72l-41 -82h-571v63l182 144v579l-182 107v63l350 172l67 -266l291 232q43 16 113 16q139 0 221 -85t82 -230v-639l184 -74l-41 -82h-389zM893 1653q66 0 127 45l70 53l61 -78l-330 -260
q-150 154 -280 154q-70 0 -133 -47l-66 -50l-61 78l329 260q150 -155 283 -155z" />
    <glyph glyph-name="ograve" unicode="&#xf2;" horiz-adv-x="1374" 
d="M410 606q0 -195 84 -324.5t239 -129.5q231 0 232 331q0 193 -84 323t-240 130q-231 0 -231 -330zM1231 573.5q0 -151.5 -96.5 -290t-240.5 -221t-279.5 -82.5t-243 70.5t-168 191t-60.5 272.5t96.5 290t241 221t279.5 83t242.5 -70.5t168 -191.5t60.5 -272.5zM731 1384
l-450 355l38 49l275 39l219 -402z" />
    <glyph glyph-name="oacute" unicode="&#xf3;" horiz-adv-x="1374" 
d="M410 606q0 -195 84 -324.5t239 -129.5q231 0 232 331q0 193 -84 323t-240 130q-231 0 -231 -330zM1231 573.5q0 -151.5 -96.5 -290t-240.5 -221t-279.5 -82.5t-243 70.5t-168 191t-60.5 272.5t96.5 290t241 221t279.5 83t242.5 -70.5t168 -191.5t60.5 -272.5zM1098 1739
l-451 -355l-82 41l219 402l275 -39z" />
    <glyph glyph-name="ocircumflex" unicode="&#xf4;" horiz-adv-x="1374" 
d="M410 606q0 -195 84 -324.5t239 -129.5q231 0 232 331q0 193 -84 323t-240 130q-231 0 -231 -330zM1231 573.5q0 -151.5 -96.5 -290t-240.5 -221t-279.5 -82.5t-243 70.5t-168 191t-60.5 272.5t96.5 290t241 221t279.5 83t242.5 -70.5t168 -191.5t60.5 -272.5zM1108 1393
l-254 -39l-240 274l-323 -256l-62 78l453 358l465 -366z" />
    <glyph glyph-name="otilde" unicode="&#xf5;" horiz-adv-x="1374" 
d="M410 606q0 -195 84 -324.5t239 -129.5q231 0 232 331q0 193 -84 323t-240 130q-231 0 -231 -330zM1231 573.5q0 -151.5 -96.5 -290t-240.5 -221t-279.5 -82.5t-243 70.5t-168 191t-60.5 272.5t96.5 290t241 221t279.5 83t242.5 -70.5t168 -191.5t60.5 -272.5zM864 1653
q66 0 127 45l70 53l61 -78l-329 -260q-150 154 -281 154q-70 0 -133 -47l-66 -50l-61 78l330 260q149 -155 282 -155z" />
    <glyph glyph-name="odieresis" unicode="&#xf6;" horiz-adv-x="1374" 
d="M410 606q0 -195 84 -324.5t239 -129.5q231 0 232 331q0 193 -84 323t-240 130q-231 0 -231 -330zM1231 573.5q0 -151.5 -96.5 -290t-240.5 -221t-279.5 -82.5t-243 70.5t-168 191t-60.5 272.5t96.5 290t241 221t279.5 83t242.5 -70.5t168 -191.5t60.5 -272.5z
M1110 1592.5q0 -54.5 -25.5 -93.5t-64.5 -62.5t-85 -23.5t-82 43t-36 97.5t25.5 93.5t64.5 62.5t85 23.5t82 -43t36 -97.5zM557 1592.5q0 -54.5 -25.5 -93.5t-64.5 -62.5t-85 -23.5t-82 43t-36 97.5t25.5 93.5t64.5 62.5t85 23.5t82 -43t36 -97.5z" />
    <glyph glyph-name="divide" unicode="&#xf7;" horiz-adv-x="1079" 
d="M82 674h915v-84h-915v84zM377 215q0 106 100 166q43 25 95 25t91 -46q39 -45 39 -102t-28 -99t-72 -67q-43 -24 -94 -24t-91 45t-40 102zM508 858q-51 0 -91 45t-40 103q0 108 100 165q43 25 95 25t91 -45t39 -103t-28 -99q-63 -91 -166 -91z" />
    <glyph glyph-name="oslash" unicode="&#xf8;" horiz-adv-x="1374" 
d="M958 485q0 195 -79 320l-336 -582q78 -68 186 -67l-2 -2q231 -1 231 331zM637 938q-231 0 -231 -328q-1 -192 79 -319l336 581q-78 66 -184 66zM630.5 -18q-114.5 0 -202.5 38l-184 -319l-74 43l184 317q-100 70 -156.5 188t-56.5 267.5t96.5 287.5t241 221t262 83
t199.5 -37l184 318l74 -43l-182 -318q97 -69 153.5 -187t57 -267.5t-96 -288t-241 -221t-259 -82.5z" />
    <glyph glyph-name="ugrave" unicode="&#xf9;" horiz-adv-x="1431" 
d="M930 0v213l-260 -217q-43 -16 -113 -16q-139 0 -221 85t-82 230v489l-182 107v63l350 172h78v-729q0 -113 34.5 -157.5t111 -44.5t138.5 23.5t146 92.5v473l-182 107v63l350 172h78v-972l184 -72l-41 -82h-389zM770 1384l-451 355l39 49l275 39l219 -402z" />
    <glyph glyph-name="uacute" unicode="&#xfa;" horiz-adv-x="1431" 
d="M930 0v213l-260 -217q-43 -16 -113 -16q-139 0 -221 85t-82 230v489l-182 107v63l350 172h78v-729q0 -113 34.5 -157.5t111 -44.5t138.5 23.5t146 92.5v473l-182 107v63l350 172h78v-972l184 -72l-41 -82h-389zM1137 1739l-451 -355l-82 41l219 402l275 -39z" />
    <glyph glyph-name="ucircumflex" unicode="&#xfb;" horiz-adv-x="1431" 
d="M930 0v213l-260 -217q-43 -16 -113 -16q-139 0 -221 85t-82 230v489l-182 107v63l350 172h78v-729q0 -113 34.5 -157.5t111 -44.5t138.5 23.5t146 92.5v473l-182 107v63l350 172h78v-972l184 -72l-41 -82h-389zM1147 1393l-254 -39l-240 274l-323 -256l-62 78l453 358
l465 -366z" />
    <glyph glyph-name="udieresis" unicode="&#xfc;" horiz-adv-x="1431" 
d="M930 0v213l-260 -217q-43 -16 -113 -16q-139 0 -221 85t-82 230v489l-182 107v63l350 172h78v-729q0 -113 34.5 -157.5t111 -44.5t138.5 23.5t146 92.5v473l-182 107v63l350 172h78v-972l184 -72l-41 -82h-389zM856 1553.5q0 54.5 25.5 93.5t64.5 62.5t85 23.5t82 -43
t36 -97.5t-25.5 -93.5t-64.5 -62.5t-85 -23.5t-82 43t-36 97.5zM303 1553.5q0 54.5 25.5 93.5t64.5 62.5t85 23.5t82 -43t36 -97.5t-25.5 -93.5t-64.5 -62.5t-85 -23.5t-82 43t-36 97.5z" />
    <glyph glyph-name="yacute" unicode="&#xfd;" horiz-adv-x="1269" 
d="M1194 1087v-63l-518 -1024l-426 -541l-78 62q117 125 177.5 219t85 189.5t24.5 226.5l-258 624l-191 111v63l350 172l78 -309l250 -610l289 600l-272 199l40 81h449zM1024 1739l-451 -355l-81 41l219 402l274 -39z" />
    <glyph glyph-name="thorn" unicode="&#xfe;" horiz-adv-x="1462" 
d="M827 936q-77 0 -150 -30t-175 -120v-401q12 -102 95 -167t226 -64q231 0 232 329q1 189 -59 321t-169 132zM72 -520v63l182 144v1779l-182 127v64l350 131h78v-911l272 215q66 16 168 16t190 -71t138 -191t51 -272q0 -152 -96 -290q-97 -138 -241 -222t-280 -82l3 2
q-113 0 -205 63v-395l286 -88l-41 -82h-673z" />
    <glyph glyph-name="ydieresis" unicode="&#xff;" horiz-adv-x="1269" 
d="M1194 1087v-63l-518 -1024l-426 -541l-78 62q117 125 177.5 219t85 189.5t24.5 226.5l-258 624l-191 111v63l350 172l78 -309l250 -610l289 600l-272 199l40 81h449zM743 1553.5q0 54.5 26 93.5t64.5 62.5t84.5 23.5t82 -43t36 -97.5t-25.5 -93.5t-64.5 -62.5t-85 -23.5
t-82 43t-36 97.5zM190 1553.5q0 54.5 26 93.5t64.5 62.5t84.5 23.5t82 -43t36 -97.5t-25.5 -93.5t-64.5 -62.5t-85 -23.5t-82 43t-36 97.5z" />
    <glyph glyph-name="Amacron" unicode="&#x100;" horiz-adv-x="1781" 
d="M817 1403l-311 -719h610zM1118 0v63l193 150l-158 379h-688l-168 -387l360 -123l-41 -82h-622v63l192 152l580 1329l213 105l598 -1442l205 -125l-41 -82h-623zM422 2148h938v-84h-938v84z" />
    <glyph glyph-name="amacron" unicode="&#x101;" horiz-adv-x="1271" 
d="M379 338.5q0 -76.5 39 -130.5t104 -54q126 -1 269 114v207h-363q-49 -60 -49 -136.5zM123 279q0 150 205 280h463v131q0 133 -71 188.5t-196 55.5t-309 -154l-61 78l295 234q82 16 196 16q186 0 288.5 -91t102.5 -265v-598l185 -72l-41 -82h-389v178l-232 -182
q-41 -16 -102 -16q-176 0 -255 88t-79 211zM184 1626h856v-92h-856v92z" />
    <glyph glyph-name="Abreve" unicode="&#x102;" horiz-adv-x="1781" 
d="M817 1403l-311 -719h610zM1118 0v63l193 150l-158 379h-688l-168 -387l360 -123l-41 -82h-622v63l192 152l580 1329l213 105l598 -1442l205 -125l-41 -82h-623zM867.5 1954q-107.5 0 -219 47t-165.5 151l199 158q55 -131 116.5 -182t130.5 -51t110.5 34.5t41.5 83.5
l232 115q0 -76 -67.5 -160t-169 -140t-209 -56z" />
    <glyph glyph-name="abreve" unicode="&#x103;" horiz-adv-x="1271" 
d="M379 338.5q0 -76.5 39 -130.5t104 -54q126 -1 269 114v207h-363q-49 -60 -49 -136.5zM123 279q0 150 205 280h463v131q0 133 -71 188.5t-196 55.5t-309 -154l-61 78l295 234q82 16 196 16q186 0 288.5 -91t102.5 -265v-598l185 -72l-41 -82h-389v178l-232 -182
q-41 -16 -102 -16q-176 0 -255 88t-79 211zM588.5 1432q-107.5 0 -219 47t-164.5 151l198 158q55 -131 117 -182.5t130.5 -51.5t110.5 35t42 84l231 115q0 -76 -67.5 -160t-169 -140t-209 -56z" />
    <glyph glyph-name="Aogonek" unicode="&#x104;" horiz-adv-x="1781" 
d="M817 1403l-311 -719h610zM1573 -236q0 -41 22.5 -61t71.5 -31v-78l-170 -135q-180 68 -180 230q0 45 16 82l289 229h-504v63l193 150l-158 379h-688l-168 -387l360 -123l-41 -82h-622v63l192 152l580 1329l213 105l598 -1442l205 -125l-39 -80l2 -2q-172 -157 -172 -236z
" />
    <glyph glyph-name="aogonek" unicode="&#x105;" horiz-adv-x="1271" 
d="M379 338.5q0 -76.5 39 -130.5t104 -54q126 -1 269 114v207h-363q-49 -60 -49 -136.5zM123 279q0 150 205 280h463v131q0 133 -71 188.5t-196 55.5t-309 -154l-61 78l295 234q82 16 196 16q186 0 288.5 -91t102.5 -265v-598l185 -72l-41 -82q-172 -157 -172 -236
q0 -41 22.5 -61t71.5 -31v-78l-170 -135q-180 68 -180 230q0 45 16 82l289 229h-266v178l-232 -182q-41 -16 -102 -16q-176 0 -255 88t-79 211z" />
    <glyph glyph-name="Cacute" unicode="&#x106;" horiz-adv-x="1679" 
d="M1483 1157h-78q-188 322 -500 322q-135 0 -246.5 -79t-175 -219.5t-63.5 -328t62.5 -353t190.5 -266t309 -100.5t507 262l61 -98l-376 -293q-127 -45 -321 -45t-359.5 104.5t-258 288t-92.5 420t139.5 440t346.5 321.5t395 118q109 0 251 -31t208 -66v-397zM1300 2261
l-450 -354l-82 41l219 401l275 -39z" />
    <glyph glyph-name="cacute" unicode="&#x107;" horiz-adv-x="1255" 
d="M600 936q-190 0 -190 -330q0 -193 84 -322.5t239 -129.5q117 0 332 168l61 -78l-315 -248q-82 -16 -207 -16t-232.5 70.5t-168 191t-60.5 272.5t89.5 291t224.5 221t262 82q84 0 195.5 -23.5t160.5 -52.5v-315h-78q-80 102 -183 160.5t-214 58.5zM1059 1739l-451 -355
l-82 41l219 402l275 -39z" />
    <glyph glyph-name="Cdotaccent" unicode="&#x10a;" horiz-adv-x="1679" 
d="M1483 1157h-78q-188 322 -500 322q-135 0 -246.5 -79t-175 -219.5t-63.5 -328t62.5 -353t190.5 -266t309 -100.5t507 262l61 -98l-376 -293q-127 -45 -321 -45t-359.5 104.5t-258 288t-92.5 420t139.5 440t346.5 321.5t395 118q109 0 251 -31t208 -66v-397zM1053 2115.5
q0 -57.5 -29 -99.5t-72 -66.5t-94 -24.5t-91 45t-40 102.5t28.5 99.5t71.5 66.5t94.5 24.5t91.5 -45t40 -102.5z" />
    <glyph glyph-name="cdotaccent" unicode="&#x10b;" horiz-adv-x="1255" 
d="M600 936q-190 0 -190 -330q0 -193 84 -322.5t239 -129.5q117 0 332 168l61 -78l-315 -248q-82 -16 -207 -16t-232.5 70.5t-168 191t-60.5 272.5t89.5 291t224.5 221t262 82q84 0 195.5 -23.5t160.5 -52.5v-315h-78q-80 102 -183 160.5t-214 58.5zM811 1593.5
q0 -57.5 -28.5 -99.5t-71.5 -66.5t-94 -24.5t-91.5 45t-40.5 102.5t29 99.5t72 66.5t94 24.5t91 -45t40 -102.5z" />
    <glyph glyph-name="Ccaron" unicode="&#x10c;" horiz-adv-x="1679" 
d="M1483 1157h-78q-188 322 -500 322q-135 0 -246.5 -79t-175 -219.5t-63.5 -328t62.5 -353t190.5 -266t309 -100.5t507 262l61 -98l-376 -293q-127 -45 -321 -45t-359.5 104.5t-258 288t-92.5 420t139.5 440t346.5 321.5t395 118q109 0 251 -31t208 -66v-397zM897 1894
l-465 367l39 49l254 39l240 -274l323 256l62 -78z" />
    <glyph glyph-name="ccaron" unicode="&#x10d;" horiz-adv-x="1255" 
d="M600 936q-190 0 -190 -330q0 -193 84 -322.5t239 -129.5q117 0 332 168l61 -78l-315 -248q-82 -16 -207 -16t-232.5 70.5t-168 191t-60.5 272.5t89.5 291t224.5 221t262 82q84 0 195.5 -23.5t160.5 -52.5v-315h-78q-80 102 -183 160.5t-214 58.5zM655 1372l-465 367
l39 49l254 39l240 -275l324 256l61 -77z" />
    <glyph glyph-name="Dcaron" unicode="&#x10e;" horiz-adv-x="1820" 
d="M1401 758.5q0 191.5 -65.5 362.5t-200 273.5t-332.5 102.5q-125 0 -232 -74v-1243q125 -51 288 -51t284 79t189.5 219t68.5 331.5zM1677 835q0 -230 -136 -428t-338 -314t-386 -116q-94 0 -190 11q-158 10 -244 10h-260v63l192 152v1245l-213 70l41 82h238
q195 0 356.5 10t225.5 10v-2q211 0 373.5 -101.5t251.5 -281.5t89 -410zM836 1894l-465 367l39 49l254 39l239 -274l324 256l61 -78z" />
    <glyph glyph-name="dcaron" unicode="&#x10f;" horiz-adv-x="1443" 
d="M639 936q-231 0 -231 -330q0 -192 80 -322t229 -130q62 0 118 17t126 67v467q-11 103 -95 167t-227 64zM961 0v147l-191 -151q-66 -16 -180 -16t-220 70q-108 70 -168 192q-60 120 -60 272t96 290t240 221t268 83t217 -64v422l-183 127v64l350 131h78v-1634l183 -72
l-41 -82h-389zM1473 1528q0 25 -3 35l-81 71v64l229 90h78v-307l-246 -312l-78 62q101 153 101 297z" />
    <glyph glyph-name="Dcroat" unicode="&#x110;" horiz-adv-x="1820" 
d="M1401 758.5q0 191.5 -65.5 362.5t-200 273.5t-332.5 102.5q-125 0 -232 -74v-1243q125 -51 288 -51t284 79t189.5 219t68.5 331.5zM1677 835q0 -230 -136 -428t-338 -314t-386 -116q-94 0 -190 11q-158 10 -244 10h-260v63l192 152v1245l-213 70l41 82h238
q195 0 356.5 10t225.5 10v-2q211 0 373.5 -101.5t251.5 -281.5t89 -410z" />
    <glyph glyph-name="dcroat" unicode="&#x111;" horiz-adv-x="1443" 
d="M639 934q-231 0 -231 -330q0 -192 80 -322t229 -130q62 0 118 17t126 67v466q-11 102 -95 167t-227 65zM961 -2v147l-191 -151q-66 -16 -180 -16t-220 70q-108 71 -168 192q-60 120 -60 272t96 290t240 221t268 83t217 -64v340h-375v84h375v297l167 64h78v-361h236v-84
l-238 -2v-1228l185 -72l-41 -82h-389z" />
    <glyph glyph-name="Emacron" unicode="&#x112;" horiz-adv-x="1667" 
d="M123 0v63l192 152v1241l-213 72l41 82h1188l111 37v-471l-62 -21l-243 363h-566v-650h322l149 262h64v-622l-82 -41l-129 309h-324v-684h557l273 404l61 -21v-512l-110 37h-1229zM365 2148h938v-84h-938v84z" />
    <glyph glyph-name="emacron" unicode="&#x113;" horiz-adv-x="1316" 
d="M641 936q-221 0 -231 -303h479q-18 111 -38 169q-46 134 -210 134zM604 -20q-125 0 -232.5 70.5t-168 191t-60.5 272.5t96.5 290t241 221t279.5 83q195 0 302 -153.5t107 -405.5h-757q12 -174 95 -284.5t221 -110.5t384 206l62 -77l-363 -287q-82 -16 -207 -16zM231 1626
h856v-92h-856v92z" />
    <glyph glyph-name="Edotaccent" unicode="&#x116;" horiz-adv-x="1667" 
d="M123 0v63l192 152v1241l-213 72l41 82h1188l111 37v-471l-62 -21l-243 363h-566v-650h322l149 262h64v-622l-82 -41l-129 309h-324v-684h557l273 404l61 -21v-512l-110 37h-1229zM995 2115.5q0 -57.5 -28.5 -99.5t-71.5 -66.5t-94 -24.5t-91 45t-40 102.5t28.5 99.5
t71.5 66.5t94 24.5t91 -45t40 -102.5z" />
    <glyph glyph-name="edotaccent" unicode="&#x117;" horiz-adv-x="1316" 
d="M641 936q-221 0 -231 -303h479q-18 111 -38 169q-46 134 -210 134zM604 -20q-125 0 -232.5 70.5t-168 191t-60.5 272.5t96.5 290t241 221t279.5 83q195 0 302 -153.5t107 -405.5h-757q12 -174 95 -284.5t221 -110.5t384 206l62 -77l-363 -287q-82 -16 -207 -16z
M821 1593.5q0 -57.5 -28.5 -99.5t-71.5 -66.5t-94 -24.5t-91 45t-40 102.5t28.5 99.5t71.5 66.5t94 24.5t91 -45t40 -102.5z" />
    <glyph glyph-name="Eogonek" unicode="&#x118;" horiz-adv-x="1667" 
d="M1274 -240q0 -37 22.5 -57t71.5 -31v-78l-170 -135q-180 68 -180 230q0 45 16 82l289 229h-1200v63l192 152v1241l-213 72l41 82h1188l111 37v-471l-62 -21l-243 363h-566v-650h322l149 262h64v-622l-82 -41l-129 309h-324v-684h557l273 404l61 -21v-514l-41 14
q-147 -136 -147 -215z" />
    <glyph glyph-name="eogonek" unicode="&#x119;" horiz-adv-x="1316" 
d="M643 936q-221 0 -231 -303h479q-17 111 -37 169q-46 134 -211 134zM457 -342q0 70 16 113l215 211q-27 -2 -74 -2q-135 0 -242.5 70.5t-168 191t-60.5 272.5t96.5 290t241 221t279.5 83q195 0 302 -153.5t107 -405.5h-757q12 -174 95 -284.5t221 -110.5t384 206l62 -77
l-361 -287q-141 -132 -141 -230q0 -44 21.5 -64.5t72.5 -29.5v-78l-170 -135q-139 61 -139 199z" />
    <glyph glyph-name="Ecaron" unicode="&#x11a;" horiz-adv-x="1667" 
d="M123 0v63l192 152v1241l-213 72l41 82h1188l111 37v-471l-62 -21l-243 363h-566v-650h322l149 262h64v-622l-82 -41l-129 309h-324v-684h557l273 404l61 -21v-512l-110 37h-1229zM840 1894l-465 367l39 49l254 39l239 -274l324 256l61 -78z" />
    <glyph glyph-name="ecaron" unicode="&#x11b;" horiz-adv-x="1316" 
d="M641 936q-221 0 -231 -303h479q-18 111 -38 169q-46 134 -210 134zM604 -20q-125 0 -232.5 70.5t-168 191t-60.5 272.5t96.5 290t241 221t279.5 83q195 0 302 -153.5t107 -405.5h-757q12 -174 95 -284.5t221 -110.5t384 206l62 -77l-363 -287q-82 -16 -207 -16zM666 1372
l-465 367l39 49l254 39l239 -275l324 256l61 -77z" />
    <glyph glyph-name="Gbreve" unicode="&#x11e;" horiz-adv-x="1863" 
d="M143 771.5q0 236.5 145.5 440t362.5 321.5t414 118q117 0 272.5 -31t227.5 -66v-397h-78q-205 322 -541 322q-147 0 -268 -79t-189.5 -219.5t-68.5 -328t66.5 -353t203.5 -266t340 -100.5q90 0 149.5 6t141.5 39v484l-315 88l41 81h725v-63l-195 -154v-290l55 -88
l-377 -232q-143 -45 -355 -45t-387 104.5t-272.5 288t-97.5 420zM939 1954q-108 0 -219.5 47t-164.5 151l199 158q55 -131 116.5 -182t130 -51t110.5 34.5t42 83.5l231 115q0 -76 -67.5 -160t-168.5 -140t-209 -56z" />
    <glyph glyph-name="gbreve" unicode="&#x11f;" horiz-adv-x="1310" 
d="M655 483q189 0 189 183q0 123 -79 198.5t-208 75.5q-186 0 -186 -178q0 -125 78.5 -202t205.5 -77zM1067 768q0 -96 -51 -183t-137 -152.5t-189 -98.5q-55 -55 -55 -117q0 -35 54 -64.5t180 -78.5t205 -97.5t79 -113.5t-79 -161.5t-195.5 -168.5t-228.5 -72t-268.5 39
t-260.5 78v316h78q115 -141 233.5 -215t267.5 -74q55 0 101.5 22.5t72 56t25.5 64.5q0 55 -63.5 95t-195.5 95.5t-194.5 94.5t-62.5 89t65.5 101t155.5 90q-33 -6 -67 -6q-109 0 -199 48t-142.5 128t-52.5 183.5t78 208t202 169t260 64.5t245 -82h321l2 -80h-241
q57 -82 57 -178zM601 1432q-108 0 -219.5 47t-164.5 151l199 158q55 -131 116.5 -182.5t130.5 -51.5t110.5 35t41.5 84l232 115q0 -76 -68 -160t-169 -140t-209 -56z" />
    <glyph glyph-name="Gdotaccent" unicode="&#x120;" horiz-adv-x="1863" 
d="M143 771.5q0 236.5 145.5 440t362.5 321.5t414 118q117 0 272.5 -31t227.5 -66v-397h-78q-205 322 -541 322q-147 0 -268 -79t-189.5 -219.5t-68.5 -328t66.5 -353t203.5 -266t340 -100.5q90 0 149.5 6t141.5 39v484l-315 88l41 81h725v-63l-195 -154v-290l55 -88
l-377 -232q-143 -45 -355 -45t-387 104.5t-272.5 288t-97.5 420zM1124 2115.5q0 -57.5 -28.5 -99.5t-71.5 -66.5t-94 -24.5t-91 45t-40 102.5t28.5 99.5t71.5 66.5t94 24.5t91 -45t40 -102.5z" />
    <glyph glyph-name="gdotaccent" unicode="&#x121;" horiz-adv-x="1310" 
d="M655 483q189 0 189 183q0 123 -79 198.5t-208 75.5q-186 0 -186 -178q0 -125 78.5 -202t205.5 -77zM1067 768q0 -96 -51 -183t-137 -152.5t-189 -98.5q-55 -55 -55 -117q0 -35 54 -64.5t180 -78.5t205 -97.5t79 -113.5t-79 -161.5t-195.5 -168.5t-228.5 -72t-268.5 39
t-260.5 78v316h78q115 -141 233.5 -215t267.5 -74q55 0 101.5 22.5t72 56t25.5 64.5q0 55 -63.5 95t-195.5 95.5t-194.5 94.5t-62.5 89t65.5 101t155.5 90q-33 -6 -67 -6q-109 0 -199 48t-142.5 128t-52.5 183.5t78 208t202 169t260 64.5t245 -82h321l2 -80h-241
q57 -82 57 -178zM786 1593.5q0 -57.5 -28.5 -99.5t-71.5 -66.5t-94 -24.5t-91 45t-40 102.5t28.5 99.5t71.5 66.5t94.5 24.5t91 -45t39.5 -102.5z" />
    <glyph glyph-name="Gcommaaccent" unicode="&#x122;" horiz-adv-x="1863" 
d="M143 771.5q0 236.5 145.5 440t362.5 321.5t414 118q117 0 272.5 -31t227.5 -66v-397h-78q-205 322 -541 322q-147 0 -268 -79t-189.5 -219.5t-68.5 -328t66.5 -353t203.5 -266t340 -100.5q90 0 149.5 6t141.5 39v484l-315 88l41 81h725v-63l-195 -154v-290l55 -88
l-377 -232q-143 -45 -355 -45t-387 104.5t-272.5 288t-97.5 420zM1229 -170v-63l-260 -390h-82l53 254l-160 117l41 82h408z" />
    <glyph glyph-name="gcommaaccent" unicode="&#x123;" horiz-adv-x="1310" 
d="M655 483q189 0 189 183q0 123 -79 198.5t-208 75.5q-186 0 -186 -178q0 -125 78.5 -202t205.5 -77zM1067 768q0 -96 -51 -183t-137 -152.5t-189 -98.5q-55 -55 -55 -117q0 -35 54 -64.5t180 -78.5t205 -97.5t79 -113.5t-79 -161.5t-195.5 -168.5t-228.5 -72t-268.5 39
t-260.5 78v316h78q115 -141 233.5 -215t267.5 -74q55 0 101.5 22.5t72 56t25.5 64.5q0 55 -63.5 95t-195.5 95.5t-194.5 94.5t-62.5 89t65.5 101t155.5 90q-33 -6 -67 -6q-109 0 -199 48t-142.5 128t-52.5 183.5t78 208t202 169t260 64.5t245 -82h321l2 -80h-241
q57 -82 57 -178zM399 1438v63l260 389h82l-53 -254l160 -116l-41 -82h-408z" />
    <glyph glyph-name="Hbar" unicode="&#x126;" horiz-adv-x="1953" 
d="M571 1124v-276h809v276h-809zM1188 0v63l192 152v541h-809v-600l215 -74l-41 -82h-622v63l192 152v909h-315v93h315v239l-213 72l41 82h623v-64l-195 -151v-178h809v239l-213 72l41 82h623v-64l-195 -151v-178h318v-93h-318v-968l215 -74l-41 -82h-622z" />
    <glyph glyph-name="hbar" unicode="&#x127;" horiz-adv-x="1431" 
d="M950 0v690q0 113 -34.5 158t-113.5 45t-145.5 -24.5t-156.5 -94.5v-620l184 -72l-41 -82h-571v63l182 144v1175h-254v84h254v279l168 82h78v-361h356v-84h-356v-512l280 222q43 16 113 16q139 0 221 -85t82 -230v-639l184 -72l-41 -82h-389z" />
    <glyph glyph-name="Imacron" unicode="&#x12a;" horiz-adv-x="888" 
d="M123 0v63l192 152v1241l-213 72l41 82h623v-64l-195 -151v-1239l215 -74l-41 -82h-622zM-25 2148h938v-84h-938v84z" />
    <glyph glyph-name="imacron" unicode="&#x12b;" horiz-adv-x="796" 
d="M113 0v63l182 144v598l-182 127v63l350 131h78v-972l184 -72l-41 -82h-571zM-39 1626h856v-92h-856v92z" />
    <glyph glyph-name="Iogonek" unicode="&#x12e;" horiz-adv-x="888" 
d="M573 -236q0 -41 22.5 -61t72.5 -31v-78l-170 -135q-180 68 -181 230q0 45 17 82l289 229h-500v63l192 152v1241l-213 72l41 82h623v-64l-195 -151v-1239l215 -74l-41 -82q-172 -157 -172 -236z" />
    <glyph glyph-name="iogonek" unicode="&#x12f;" horiz-adv-x="796" 
d="M512 -236q0 -41 22.5 -61t71.5 -31v-78l-170 -135q-180 68 -180 230q0 45 16 82l289 229h-448v63l182 144v598l-182 127v63l350 131h78v-972l184 -72l-41 -82q-172 -157 -172 -236zM225 1550.5q0 57.5 29 99.5t72 66.5t94 24.5t91 -45t40 -102.5t-28.5 -99.5t-71.5 -66.5
t-94.5 -24.5t-91.5 45t-40 102.5z" />
    <glyph glyph-name="Idotaccent" unicode="&#x130;" horiz-adv-x="888" 
d="M123 0v63l192 152v1241l-213 72l41 82h623v-64l-195 -151v-1239l215 -74l-41 -82h-622zM606 2115.5q0 -57.5 -28.5 -99.5t-71.5 -66.5t-94 -24.5t-91 45t-40 102.5t28.5 99.5t71.5 66.5t94 24.5t91 -45t40 -102.5z" />
    <glyph glyph-name="dotlessi" unicode="&#x131;" horiz-adv-x="796" 
d="M113 0v63l182 144v598l-182 127v63l350 131h78v-972l184 -72l-41 -82h-571z" />
    <glyph glyph-name="Kcommaaccent" unicode="&#x136;" horiz-adv-x="1761" 
d="M1671 1610v-64l-737 -643l563 -704l238 -117l-41 -82h-371l-635 807l629 549l-238 172l41 82h551zM123 0v63l192 152v1241l-213 72l41 82h623v-64l-195 -151v-1239l215 -74l-41 -82h-622zM1178 -170v-63l-260 -390h-82l53 254l-160 117l41 82h408z" />
    <glyph glyph-name="kcommaaccent" unicode="&#x137;" horiz-adv-x="1411" 
d="M1325 1087v-63l-475 -399l346 -471l184 -72l-41 -82h-346l-385 541l383 321l-196 144l41 81h489zM72 0v63l182 144v1259l-182 127v64l350 131h78v-1634l184 -72l-41 -82h-571zM973 -170v-63l-260 -390h-82l53 254l-160 117l41 82h408z" />
    <glyph glyph-name="Lacute" unicode="&#x139;" horiz-adv-x="1605" 
d="M123 0v63l192 152v1241l-213 72l41 82h623v-64l-195 -151v-1303h529l301 445l61 -21v-553l-110 37h-1229zM889 2261l-451 -354l-82 41l219 401l275 -39z" />
    <glyph glyph-name="lacute" unicode="&#x13a;" horiz-adv-x="755" 
d="M72 0v63l182 144v1259l-182 127v64l350 131h78v-1634l184 -72l-41 -82h-571zM778 2337l-450 -355l-82 41l219 402l274 -39z" />
    <glyph glyph-name="Lcommaaccent" unicode="&#x13b;" horiz-adv-x="1605" 
d="M123 0v63l192 152v1241l-213 72l41 82h623v-64l-195 -151v-1303h529l301 445l61 -21v-553l-110 37h-1229zM1049 -170v-63l-261 -390h-81l53 254l-160 117l41 82h408z" />
    <glyph glyph-name="lcommaaccent" unicode="&#x13c;" horiz-adv-x="755" 
d="M72 0v63l182 144v1259l-182 127v64l350 131h78v-1634l184 -72l-41 -82h-571zM614 -170v-63l-260 -390h-82l54 254l-160 117l41 82h407z" />
    <glyph glyph-name="Lcaron" unicode="&#x13d;" horiz-adv-x="1605" 
d="M123 0v63l192 152v1241l-213 72l41 82h623v-64l-195 -151v-1303h529l301 445l61 -21v-553l-110 37h-1229zM999 1350q0 25 -2 34l-82 72v64l230 90h78v-307l-246 -312l-78 62q100 151 100 297z" />
    <glyph glyph-name="lcaron" unicode="&#x13e;" horiz-adv-x="755" 
d="M72 0v63l182 144v1259l-182 127v64l350 131h78v-1634l184 -72l-41 -82h-571zM764 1528q0 25 -2 35l-82 71v64l229 90h78v-307l-246 -312l-77 62q100 151 100 297z" />
    <glyph glyph-name="Ldot" unicode="&#x13f;" horiz-adv-x="1605" 
d="M123 0v63l192 152v1241l-213 72l41 82h623v-64l-195 -151v-1303h529l301 445l61 -21v-553l-110 37h-1229zM1423 1071q0 -57 -28.5 -99t-71.5 -66.5t-94 -24.5t-91 45t-40 102t28.5 99t71.5 67t94 25t91 -45.5t40 -102.5z" />
    <glyph glyph-name="ldot" unicode="&#x140;" horiz-adv-x="1038" 
d="M72 0v63l182 144v1259l-182 127v64l350 131h78v-1634l184 -72l-41 -82h-571zM1051 868.5q0 -57.5 -29 -99.5t-72 -66.5t-94 -24.5t-91 45t-40 102.5t28.5 99.5t71.5 66.5t94.5 24.5t91.5 -45t40 -102.5z" />
    <glyph glyph-name="Lslash" unicode="&#x141;" horiz-adv-x="1605" 
d="M123 -2v63l192 152v356l-315 -250v117l315 250v768l-213 72l41 82h623v-64l-195 -151v-594l568 448v-117l-568 -448v-590h529l301 445l61 -21v-555l-110 37h-1229z" />
    <glyph glyph-name="lslash" unicode="&#x142;" horiz-adv-x="735" 
d="M72 -2v63l182 144v624l-295 -303v117l295 315v508l-182 127v64l350 131h78v-690l276 299v-137l-276 -297v-811l184 -72l-41 -82h-571z" />
    <glyph glyph-name="Nacute" unicode="&#x143;" horiz-adv-x="1789" 
d="M1513 -2h-112l-973 1231v-1041l215 -108l-41 -82h-479v63l192 152v1200l-213 115l41 82h310l948 -1200v1011l-213 107l41 82h479v-66l-195 -151v-1395zM1305 2261l-451 -354l-82 41l219 401l275 -39z" />
    <glyph glyph-name="nacute" unicode="&#x144;" horiz-adv-x="1472" 
d="M991 -2v690q0 113 -34.5 158t-114 45t-145.5 -24.5t-156 -94.5v-620l184 -72l-41 -82h-571v63l182 144v579l-182 107v63l350 172l67 -266l291 232q43 16 113 16q139 0 221 -85t82 -230v-639l184 -74l-41 -82h-389zM1126 1739l-450 -355l-82 41l219 402l274 -39z" />
    <glyph glyph-name="Ncommaaccent" unicode="&#x145;" horiz-adv-x="1789" 
d="M1513 -2h-112l-973 1231v-1041l215 -108l-41 -82h-479v63l192 152v1200l-213 115l41 82h310l948 -1200v1011l-213 107l41 82h479v-66l-195 -151v-1395zM1141 -170v-63l-260 -390h-82l53 254l-160 117l41 82h408z" />
    <glyph glyph-name="ncommaaccent" unicode="&#x146;" horiz-adv-x="1472" 
d="M991 -2v690q0 113 -34.5 158t-114 45t-145.5 -24.5t-156 -94.5v-620l184 -72l-41 -82h-571v63l182 144v579l-182 107v63l350 172l67 -266l291 232q43 16 113 16q139 0 221 -85t82 -230v-639l184 -74l-41 -82h-389zM1044 -170v-63l-260 -390h-82l54 254l-160 117l41 82
h407z" />
    <glyph glyph-name="Ncaron" unicode="&#x147;" horiz-adv-x="1789" 
d="M1513 -2h-112l-973 1231v-1041l215 -108l-41 -82h-479v63l192 152v1200l-213 115l41 82h310l948 -1200v1011l-213 107l41 82h479v-66l-195 -151v-1395zM901 1894l-465 367l39 49l254 39l240 -274l323 256l62 -78z" />
    <glyph glyph-name="ncaron" unicode="&#x148;" horiz-adv-x="1472" 
d="M991 -2v690q0 113 -34.5 158t-114 45t-145.5 -24.5t-156 -94.5v-620l184 -72l-41 -82h-571v63l182 144v579l-182 107v63l350 172l67 -266l291 232q43 16 113 16q139 0 221 -85t82 -230v-639l184 -74l-41 -82h-389zM723 1372l-465 367l39 49l254 39l240 -275l323 256
l62 -77z" />
    <glyph glyph-name="Eng" unicode="&#x14a;" horiz-adv-x="1789" 
d="M1513 201q0 -185 19 -244l-393 -500l-78 62q215 271 253 413q18 68 17 154l-903 1143v-1041l215 -108l-41 -82h-479v63l192 152v1200l-213 115l41 82h310l948 -1200v1011l-213 107l41 82h479v-64l-195 -153v-1192z" />
    <glyph glyph-name="eng" unicode="&#x14b;" horiz-adv-x="1472" 
d="M1237 201q0 -188 18 -244l-393 -500l-78 62q123 145 165 247.5t42 253.5v668q0 113 -34.5 158t-114 45t-145.5 -24.5t-156 -94.5v-620l184 -72l-41 -82h-571v63l182 144v579l-182 107v63l350 172l67 -266l291 232q43 16 113 16q139 0 221 -85t82 -230v-592z" />
    <glyph glyph-name="Omacron" unicode="&#x14c;" horiz-adv-x="1902" 
d="M420 852.5q0 -187.5 63.5 -354t193.5 -267t320 -100.5q135 0 247 79t175.5 219t63.5 328.5t-63.5 355.5t-192.5 266.5t-322 99.5q-135 0 -246.5 -79t-175 -219.5t-63.5 -328zM1759 836.5q0 -236.5 -139 -439t-346 -320.5t-409.5 -118t-369.5 103.5t-259.5 288t-92.5 421
t139.5 440t346.5 321.5t409.5 118t369.5 -104.5t259 -289t92 -421zM483 2148h938v-84h-938v84z" />
    <glyph glyph-name="omacron" unicode="&#x14d;" horiz-adv-x="1374" 
d="M410 606q0 -195 84 -324.5t239 -129.5q231 0 232 331q0 193 -84 323t-240 130q-231 0 -231 -330zM1231 573.5q0 -151.5 -96.5 -290t-240.5 -221t-279.5 -82.5t-243 70.5t-168 191t-60.5 272.5t96.5 290t241 221t279.5 83t242.5 -70.5t168 -191.5t60.5 -272.5zM260 1626
h856v-92h-856v92z" />
    <glyph glyph-name="Ohungarumlaut" unicode="&#x150;" horiz-adv-x="1902" 
d="M420 852.5q0 -187.5 63.5 -354t193.5 -267t320 -100.5q135 0 247 79t175.5 219t63.5 328.5t-63.5 355.5t-192.5 266.5t-322 99.5q-135 0 -246.5 -79t-175 -219.5t-63.5 -328zM1759 836.5q0 -236.5 -139 -439t-346 -320.5t-409.5 -118t-369.5 103.5t-259.5 288t-92.5 421
t139.5 440t346.5 321.5t409.5 118t369.5 -104.5t259 -289t92 -421zM1229 1907l-82 41l151 401l261 -39l38 -49zM594 1907l-82 41l152 401l260 -39l39 -49z" />
    <glyph glyph-name="ohungarumlaut" unicode="&#x151;" horiz-adv-x="1374" 
d="M410 606q0 -195 84 -324.5t239 -129.5q231 0 232 331q0 193 -84 323t-240 130q-231 0 -231 -330zM1231 573.5q0 -151.5 -96.5 -290t-240.5 -221t-279.5 -82.5t-243 70.5t-168 191t-60.5 272.5t96.5 290t241 221t279.5 83t242.5 -70.5t168 -191.5t60.5 -272.5zM1272 1739
l-369 -355l-82 41l152 402l260 -39zM760 1739l-369 -355l-82 41l152 402l260 -39z" />
    <glyph glyph-name="OE" unicode="&#x152;" horiz-adv-x="2539" 
d="M977 111q125 0 231 73v1243q-125 51 -303 52q-135 0 -247 -79t-175 -219t-63 -332t60 -363t186 -273t311 -102zM1399 0q-195 0 -357 -10t-225 -10q-199 0 -353 101t-237 281q-84 180 -84 410t129 429q129 197 323 313t368 116q94 0 190 -10q160 -10 244 -10h807l110 37
v-471l-61 -21l-244 363h-545v-650h301l150 262h63v-622l-82 -41l-129 309h-303v-684h537l272 404l62 -21v-512l-111 37h-825z" />
    <glyph glyph-name="oe" unicode="&#x153;" horiz-adv-x="1990" 
d="M1360 936q-201 0 -211 -303h418q-16 115 -32 171q-35 132 -175 132zM692 152q191 0 191 331q0 193 -74 323t-209 130q-190 0 -190 -330q0 -194 74 -324t208 -130zM1328 -20q-221 0 -351 196q-86 -90 -194 -143q-107 -53 -219 -53t-210 70t-153 192q-55 120 -55 272
t88 291t224 221t252 82q227 0 351 -199q88 91 201 145t217 54q176 0 272 -154t96 -405h-696q12 -172 88 -284q76 -111 200 -111t343 178l61 -78l-323 -258q-82 -16 -192 -16z" />
    <glyph glyph-name="Racute" unicode="&#x154;" horiz-adv-x="1656" 
d="M836 854q139 0 220 70.5t81 193.5q0 162 -90.5 269.5t-262.5 107.5q-115 0 -211 -68v-1275l215 -74l-40 -82h-623v63l192 152v1245l-213 70l41 82h238q186 0 342 10t219 10q137 0 244.5 -55t166 -149.5t58.5 -201.5t-63.5 -200.5t-167 -162t-217.5 -103.5l133 -45
l317 -512l244 -121l-41 -82h-381l-451 727l-96 70l31 61h115zM1188 2261l-451 -354l-82 41l219 401l275 -39z" />
    <glyph glyph-name="racute" unicode="&#x155;" horiz-adv-x="1062" 
d="M750 891q-101 0 -209 -113v-610l286 -88l-41 -82h-673v63l182 144v579l-182 107v63l350 172l63 -252l213 218q43 16 113 16v-2q137 0 199 -139l-136 -170h-77q-15 94 -88 94zM963 1739l-451 -355l-82 41l219 402l275 -39z" />
    <glyph glyph-name="Rcommaaccent" unicode="&#x156;" horiz-adv-x="1656" 
d="M836 854q139 0 220 70.5t81 193.5q0 162 -90.5 269.5t-262.5 107.5q-115 0 -211 -68v-1275l215 -74l-40 -82h-623v63l192 152v1245l-213 70l41 82h238q186 0 342 10t219 10q137 0 244.5 -55t166 -149.5t58.5 -201.5t-63.5 -200.5t-167 -162t-217.5 -103.5l133 -45
l317 -512l244 -121l-41 -82h-381l-451 727l-96 70l31 61h115zM1147 -170v-63l-260 -390h-82l53 254l-160 117l41 82h408z" />
    <glyph glyph-name="rcommaaccent" unicode="&#x157;" horiz-adv-x="1062" 
d="M750 891q-101 0 -209 -113v-610l286 -88l-41 -82h-673v63l182 144v579l-182 107v63l350 172l63 -252l213 218q43 16 113 16v-2q137 0 199 -139l-136 -170h-77q-15 94 -88 94zM672 -170v-63l-260 -390h-82l53 254l-160 117l41 82h408z" />
    <glyph glyph-name="Rcaron" unicode="&#x158;" horiz-adv-x="1656" 
d="M836 854q139 0 220 70.5t81 193.5q0 162 -90.5 269.5t-262.5 107.5q-115 0 -211 -68v-1275l215 -74l-40 -82h-623v63l192 152v1245l-213 70l41 82h238q186 0 342 10t219 10q137 0 244.5 -55t166 -149.5t58.5 -201.5t-63.5 -200.5t-167 -162t-217.5 -103.5l133 -45
l317 -512l244 -121l-41 -82h-381l-451 727l-96 70l31 61h115zM784 1894l-465 367l39 49l254 39l240 -274l324 256l61 -78z" />
    <glyph glyph-name="rcaron" unicode="&#x159;" horiz-adv-x="1062" 
d="M750 891q-101 0 -209 -113v-610l286 -88l-41 -82h-673v63l182 144v579l-182 107v63l350 172l63 -252l213 218q43 16 113 16v-2q137 0 199 -139l-136 -170h-77q-15 94 -88 94zM559 1372l-465 367l39 49l254 39l240 -275l323 256l62 -77z" />
    <glyph glyph-name="Sacute" unicode="&#x15a;" horiz-adv-x="1433" 
d="M164 1154q0 99 86 217t210 199t239.5 81t283.5 -31t246 -66v-397h-78q-100 166 -220 258t-244 92t-192.5 -72.5t-68.5 -192.5t181 -226q77 -45 221.5 -119t238.5 -132q223 -138 223 -308q0 -102 -92 -220t-224 -199t-253 -81t-304.5 30.5t-262.5 65.5v398h77
q104 -166 237.5 -258.5t274.5 -92.5q84 0 149.5 37t100.5 97.5t35 126t-51 121t-128 101.5t-220.5 120.5t-237.5 133t-160.5 138.5t-66.5 179zM1106 2261l-451 -354l-82 41l220 401l274 -39z" />
    <glyph glyph-name="sacute" unicode="&#x15b;" horiz-adv-x="1144" 
d="M184 757q0 69 61.5 152.5t151.5 141t176 57.5t210 -23.5t180 -52.5v-315h-78q-66 127 -152 197.5t-162.5 70.5t-115.5 -33.5t-39 -91t66.5 -108t186 -110.5t183.5 -99q152 -94 152 -207q0 -76 -65 -159t-158 -140t-182 -57t-227.5 23.5t-197.5 51.5v316h78
q72 -127 170 -198t182.5 -71t126 35t41.5 88.5t-63.5 101.5t-182 109t-184.5 102.5t-112 95.5t-46 123zM1004 1739l-451 -355l-82 41l219 402l275 -39z" />
    <glyph glyph-name="Scedilla" unicode="&#x15e;" horiz-adv-x="1433" 
d="M920 -334q0 -185 -394 -207v64q190 61 191 180q0 45 -30 81t-103 81l110 94q-135 4 -301 32.5t-239 61.5v398h77q104 -166 237.5 -258.5t274.5 -92.5q84 0 149.5 37t100.5 97.5t35 125.5t-51 121t-128 102t-220.5 120.5t-237.5 133t-160.5 138.5t-66.5 179t86 217
t210 199t239.5 81t283.5 -31t246 -66v-397h-78q-100 166 -220 258t-244 92t-192.5 -72.5t-68.5 -192.5t181 -226q77 -45 221.5 -119t238.5 -132q223 -138 223 -308l-2 2q0 -88 -69.5 -190.5t-177 -183.5t-212.5 -112l-81 -69q98 -78 135 -129t37 -109z" />
    <glyph glyph-name="scedilla" unicode="&#x15f;" horiz-adv-x="1144" 
d="M786 -334q0 -185 -393 -207v64q190 61 191 180q0 45 -30 81t-103 81l139 115q-104 4 -232.5 26.5t-183.5 48.5v316h78q72 -127 170 -198t182.5 -71t126 35t41.5 88t-64 101q-64 49 -182 110q-118 60 -184 102q-158 99 -158 214q0 74 61.5 157.5t151.5 141t176 57.5
t210 -23.5t180 -52.5v-315h-78q-66 127 -152 197.5t-162.5 70.5t-115.5 -33.5t-39 -91t66.5 -108t186 -110.5t183.5 -99q152 -94 152 -207h2q0 -78 -70 -164t-164 -141l-158 -127q98 -78 135 -129t37 -109z" />
    <glyph glyph-name="Scaron" unicode="&#x160;" horiz-adv-x="1433" 
d="M164 1154q0 99 86 217t210 199t239.5 81t283.5 -31t246 -66v-397h-78q-100 166 -220 258t-244 92t-192.5 -72.5t-68.5 -192.5t181 -226q77 -45 221.5 -119t238.5 -132q223 -138 223 -308q0 -102 -92 -220t-224 -199t-253 -81t-304.5 30.5t-262.5 65.5v398h77
q104 -166 237.5 -258.5t274.5 -92.5q84 0 149.5 37t100.5 97.5t35 126t-51 121t-128 101.5t-220.5 120.5t-237.5 133t-160.5 138.5t-66.5 179zM702 1894l-464 367l38 49l254 39l240 -274l324 256l61 -78z" />
    <glyph glyph-name="scaron" unicode="&#x161;" horiz-adv-x="1144" 
d="M184 757q0 69 61.5 152.5t151.5 141t176 57.5t210 -23.5t180 -52.5v-315h-78q-66 127 -152 197.5t-162.5 70.5t-115.5 -33.5t-39 -91t66.5 -108t186 -110.5t183.5 -99q152 -94 152 -207q0 -76 -65 -159t-158 -140t-182 -57t-227.5 23.5t-197.5 51.5v316h78
q72 -127 170 -198t182.5 -71t126 35t41.5 88.5t-63.5 101.5t-182 109t-184.5 102.5t-112 95.5t-46 123zM600 1372l-465 367l39 49l254 39l240 -275l323 256l62 -77z" />
    <glyph glyph-name="uni0162" unicode="&#x162;" horiz-adv-x="1703" 
d="M977 1518v-1362l215 -74l-41 -82h-150l-118 -96q98 -78 135 -129t37 -109q0 -185 -393 -207v64q190 61 190 180q0 45 -29.5 81t-103.5 81l164 135h-355v63l193 152v1303h-244l-272 -404l-62 21v512l111 -37h1196l111 37v-512l-62 -21l-272 404h-250z" />
    <glyph glyph-name="uni0163" unicode="&#x163;" horiz-adv-x="933" 
d="M758 -332q0 -185 -393 -207v64q190 61 190 180q0 45 -29.5 81t-103.5 81l139 115q-160 4 -233.5 93t-73.5 269v598h-221v84l389 453h78v-453h368v-84h-368v-623q0 -166 159 -165q43 0 83 18t100 66l61 -78l-106 -84q-78 -66 -152 -123q-24 -22 -58 -48q97 -77 134 -128
t37 -109z" />
    <glyph glyph-name="Tcaron" unicode="&#x164;" horiz-adv-x="1703" 
d="M977 1518v-1362l215 -74l-41 -82h-623v63l193 152v1303h-244l-272 -404l-62 21v512l111 -37h1196l111 37v-512l-62 -21l-272 404h-250zM858 1894l-465 367l39 49l254 39l240 -274l323 256l62 -78z" />
    <glyph glyph-name="tcaron" unicode="&#x165;" horiz-adv-x="933" 
d="M582 -20q-170 0 -249 89t-79 275v598h-221v84l389 453h78v-453h368v-84h-368v-623q0 -166 159 -165q43 0 83 18t100 66l61 -78l-207 -164q-47 -16 -114 -16zM764 1528q0 25 -2 35l-82 71v64l229 90h78v-307l-246 -312l-77 62q100 151 100 297z" />
    <glyph glyph-name="Tbar" unicode="&#x166;" horiz-adv-x="1703" 
d="M977 1518v-670h389v-92h-389v-600l215 -74l-41 -82h-623v63l193 152v541h-383v92h383v670h-244l-272 -404l-62 21v512l111 -37h1196l111 37v-512l-62 -21l-272 404h-250z" />
    <glyph glyph-name="tbar" unicode="&#x167;" horiz-adv-x="933" 
d="M582 -20q-170 0 -249 89t-79 275v598h-221v84l389 453h78v-453h368v-84h-368v-623q0 -166 159 -165q43 0 83 18t100 66l61 -78l-207 -164q-47 -16 -114 -16z" />
    <glyph glyph-name="Umacron" unicode="&#x16a;" horiz-adv-x="1839" 
d="M1583 635q0 -215 -103.5 -368.5t-255 -230.5t-315 -77t-308 81t-225.5 223.5t-81 320.5v872l-213 72l41 82h622v-64l-194 -151v-713q0 -260 128 -405.5t388 -145.5q96 0 189.5 62.5t153.5 183.5t60 285v759l-213 107l41 82h480v-64l-195 -151v-760zM477 2148h938v-84
h-938v84z" />
    <glyph glyph-name="umacron" unicode="&#x16b;" horiz-adv-x="1431" 
d="M930 0v213l-260 -217q-43 -16 -113 -16q-139 0 -221 85t-82 230v489l-182 107v63l350 172h78v-729q0 -113 34.5 -157.5t111 -44.5t138.5 23.5t146 92.5v473l-182 107v63l350 172h78v-972l184 -72l-41 -82h-389zM299 1626h856v-92h-856v92z" />
    <glyph glyph-name="Uring" unicode="&#x16e;" horiz-adv-x="1839" 
d="M1583 635q0 -215 -103.5 -368.5t-255 -230.5t-315 -77t-308 81t-225.5 223.5t-81 320.5v872l-213 72l41 82h622v-64l-194 -151v-713q0 -260 128 -405.5t388 -145.5q96 0 189.5 62.5t153.5 183.5t60 285v759l-213 107l41 82h480v-64l-195 -151v-760zM893 2241
q-102 0 -102 -84q0 -90 52 -149.5t154.5 -59.5t102.5 88t-52.5 146.5t-154.5 58.5zM1243 2136q0 -78 -57.5 -140.5t-143.5 -100t-175 -37.5t-154.5 58t-65.5 136t57.5 140.5t143.5 100.5t176 38t154.5 -58.5t64.5 -136.5z" />
    <glyph glyph-name="uring" unicode="&#x16f;" horiz-adv-x="1431" 
d="M930 0v213l-260 -217q-43 -16 -113 -16q-139 0 -221 85t-82 230v489l-182 107v63l350 172h78v-729q0 -113 34.5 -157.5t111 -44.5t138.5 23.5t146 92.5v473l-182 107v63l350 172h78v-972l184 -72l-41 -82h-389zM673.5 1718q-102.5 0 -102.5 -84q0 -90 52.5 -149.5
t155 -59.5t102.5 88t-52.5 146.5t-155 58.5zM1024 1614q0 -78 -57.5 -140.5t-143.5 -100.5t-175 -38t-154.5 58.5t-65.5 136.5t57.5 140.5t143.5 100t176 37.5t154.5 -58t64.5 -136z" />
    <glyph glyph-name="Uhungarumlaut" unicode="&#x170;" horiz-adv-x="1839" 
d="M1583 635q0 -215 -103.5 -368.5t-255 -230.5t-315 -77t-308 81t-225.5 223.5t-81 320.5v872l-213 72l41 82h622v-64l-194 -151v-713q0 -260 128 -405.5t388 -145.5q96 0 189.5 62.5t153.5 183.5t60 285v759l-213 107l41 82h480v-64l-195 -151v-760zM1223 1907l-82 41
l151 401l260 -39l39 -49zM588 1907l-82 41l151 401l261 -39l38 -49z" />
    <glyph glyph-name="uhungarumlaut" unicode="&#x171;" horiz-adv-x="1431" 
d="M930 0v213l-260 -217q-43 -16 -113 -16q-139 0 -221 85t-82 230v489l-182 107v63l350 172h78v-729q0 -113 34.5 -157.5t111 -44.5t138.5 23.5t146 92.5v473l-182 107v63l350 172h78v-972l184 -72l-41 -82h-389zM1311 1739l-369 -355l-82 41l152 402l260 -39zM799 1739
l-369 -355l-82 41l152 402l260 -39z" />
    <glyph glyph-name="Uogonek" unicode="&#x172;" horiz-adv-x="1839" 
d="M893 -342q0 70 16 113l215 223q-104 -35 -196 -35q-182 0 -326.5 81t-225.5 223.5t-81 320.5v872l-213 72l41 82h622v-64l-194 -151v-713q0 -260 128 -405.5t388 -145.5q96 0 189.5 62.5t153.5 183.5t60 285v759l-213 107l41 82h480v-64l-195 -151v-760q0 -302 -205 -492
q-158 -168 -204 -241.5t-46 -120.5t27 -72.5t88 -36.5v-78l-170 -135q-180 61 -180 199z" />
    <glyph glyph-name="uogonek" unicode="&#x173;" horiz-adv-x="1431" 
d="M1147 -236q0 -41 22.5 -61t71.5 -31v-78l-170 -135q-180 68 -180 230q0 45 16 82l289 229h-266v213l-260 -217q-43 -16 -113 -16q-139 0 -221 85t-82 230v489l-182 107v63l350 172h78v-729q0 -113 34.5 -157.5t111 -44.5t138.5 23.5t146 92.5v473l-182 107v63l350 172h78
v-972l184 -72l-41 -82q-172 -157 -172 -236z" />
    <glyph glyph-name="Wcircumflex" unicode="&#x174;" horiz-adv-x="2447" 
d="M602 1610v-64l-149 -112l426 -1201l305 852l-111 328l-188 115l41 82h602v-64l-182 -141l380 -1167l422 1167l-364 123l41 82h622v-64l-178 -139l-491 -1341l-213 -105l-326 965l-305 -860l-213 -105l-526 1450l-195 117l41 82h561zM1700 1915l-254 -39l-240 274
l-323 -256l-62 78l453 359l465 -367z" />
    <glyph glyph-name="wcircumflex" unicode="&#x175;" horiz-adv-x="1841" 
d="M1767 1087v-63l-456 -1024h-156l-213 522l-264 -522h-156l-319 780l-191 111v63l350 172l78 -309l250 -608l201 432l-57 139l-191 111v63l350 172l78 -309l244 -592l246 574l-285 207l41 81h450zM1341 1393l-254 -39l-239 274l-324 -256l-61 78l452 358l465 -366z" />
    <glyph glyph-name="Ycircumflex" unicode="&#x176;" horiz-adv-x="1644" 
d="M496 0v63l192 152v365l-526 850l-162 98l41 82h623v-64l-191 -147l410 -666l426 666l-328 129l41 82h623v-64l-168 -102l-533 -834v-454l215 -74l-41 -82h-622zM1243 1915l-254 -39l-239 274l-324 -256l-61 78l452 359l465 -367z" />
    <glyph glyph-name="ycircumflex" unicode="&#x177;" horiz-adv-x="1269" 
d="M1194 1087v-63l-518 -1024l-426 -541l-78 62q117 125 177.5 219t85 189.5t24.5 226.5l-258 624l-191 111v63l350 172l78 -309l250 -610l289 600l-272 199l40 81h449zM1034 1393l-254 -39l-239 274l-324 -256l-61 78l452 358l465 -366z" />
    <glyph glyph-name="Ydieresis" unicode="&#x178;" horiz-adv-x="1644" 
d="M496 0v63l192 152v365l-526 850l-162 98l41 82h623v-64l-191 -147l410 -666l426 666l-328 129l41 82h623v-64l-168 -102l-533 -834v-454l215 -74l-41 -82h-622zM993 2075.5q0 54.5 25.5 93.5t64.5 62.5t85 23.5t82 -43t36 -97.5t-25.5 -93.5t-64.5 -62.5t-85 -23.5
t-82 43t-36 97.5zM358 2075.5q0 54.5 26 93.5t64.5 62.5t84.5 23.5t82 -43t36 -97.5t-25.5 -93.5t-64.5 -62.5t-85 -23.5t-82 43t-36 97.5z" />
    <glyph glyph-name="Zacute" unicode="&#x179;" horiz-adv-x="1617" 
d="M141 0v92l1026 1426h-643l-258 -383l-61 20v492l110 -37h1151v-92l-1026 -1426h658l286 424l62 -20v-533l-111 37h-1194zM1219 2261l-451 -354l-82 41l219 401l275 -39z" />
    <glyph glyph-name="zacute" unicode="&#x17a;" horiz-adv-x="1251" 
d="M143 0v78l688 764h-518l-82 -148l-61 21v409l113 -37h825v-77l-684 -764h508l88 168l61 -21v-430l-112 37h-826zM1047 1739l-451 -355l-82 41l219 402l275 -39z" />
    <glyph glyph-name="Zdotaccent" unicode="&#x17b;" horiz-adv-x="1617" 
d="M141 0v92l1026 1426h-643l-258 -383l-61 20v492l110 -37h1151v-92l-1026 -1426h658l286 424l62 -20v-533l-111 37h-1194zM971 2115.5q0 -57.5 -29 -99.5t-72 -66.5t-94 -24.5t-91 45t-40 102.5t28.5 99.5t71.5 66.5t94.5 24.5t91.5 -45t40 -102.5z" />
    <glyph glyph-name="zdotaccent" unicode="&#x17c;" horiz-adv-x="1251" 
d="M143 0v78l688 764h-518l-82 -148l-61 21v409l113 -37h825v-77l-684 -764h508l88 168l61 -21v-430l-112 37h-826zM799 1593.5q0 -57.5 -29 -99.5t-72 -66.5t-94 -24.5t-91 45t-40 102.5t28.5 99.5t71.5 66.5t94.5 24.5t91.5 -45t40 -102.5z" />
    <glyph glyph-name="Zcaron" unicode="&#x17d;" horiz-adv-x="1617" 
d="M141 0v92l1026 1426h-643l-258 -383l-61 20v492l110 -37h1151v-92l-1026 -1426h658l286 424l62 -20v-533l-111 37h-1194zM815 1894l-465 367l39 49l254 39l240 -274l323 256l62 -78z" />
    <glyph glyph-name="zcaron" unicode="&#x17e;" horiz-adv-x="1251" 
d="M143 0v78l688 764h-518l-82 -148l-61 21v409l113 -37h825v-77l-684 -764h508l88 168l61 -21v-430l-112 37h-826zM643 1372l-465 367l39 49l254 39l240 -275l323 256l62 -77z" />
    <glyph glyph-name="longs" unicode="&#x17f;" horiz-adv-x="899" 
d="M731 1636q-190 0 -190 -329v-1137l286 -88l-41 -82h-673v63l182 144v735h-244v84h244v182q0 158 86 297t216 221t253 82q57 0 130 -11t103 -23v-316h-77q-51 82 -125 130t-150 48z" />
    <glyph glyph-name="florin" unicode="&#x192;" horiz-adv-x="1267" 
d="M772 1479q-190 0 -190 -330v-348h542l-43 -84h-499v-514q0 -190 18 -244l-393 -500l-78 62q123 145 165 247t42 255v694h-316l43 84h273v250q0 158 86 297t216 221t253 82q57 1 130 -11t103 -24v-316h-77q-51 82 -125 130t-150 49z" />
    <glyph glyph-name="Scommaaccent" unicode="&#x218;" horiz-adv-x="1433" 
d="M164 1154q0 99 86 217t210 199t239.5 81t283.5 -31t246 -66v-397h-78q-100 166 -220 258t-244 92t-192.5 -72.5t-68.5 -192.5t181 -226q77 -45 221.5 -119t238.5 -132q223 -138 223 -308q0 -102 -92 -220t-224 -199t-253 -81t-304.5 30.5t-262.5 65.5v398h77
q104 -166 237.5 -258.5t274.5 -92.5q84 0 149.5 37t100.5 97.5t35 126t-51 121t-128 101.5t-220.5 120.5t-237.5 133t-160.5 138.5t-66.5 179zM940 -170v-63l-260 -390h-82l53 254l-159 117l40 82h408z" />
    <glyph glyph-name="scommaaccent" unicode="&#x219;" horiz-adv-x="1144" 
d="M184 757q0 69 61.5 152.5t151.5 141t176 57.5t210 -23.5t180 -52.5v-315h-78q-66 127 -152 197.5t-162.5 70.5t-115.5 -33.5t-39 -91t66.5 -108t186 -110.5t183.5 -99q152 -94 152 -207q0 -76 -65 -159t-158 -140t-182 -57t-227.5 23.5t-197.5 51.5v316h78
q72 -127 170 -198t182.5 -71t126 35t41.5 88.5t-63.5 101.5t-182 109t-184.5 102.5t-112 95.5t-46 123zM809 -170v-63l-260 -390h-82l53 254l-160 117l41 82h408z" />
    <glyph glyph-name="uni021A" unicode="&#x21a;" horiz-adv-x="1703" 
d="M977 1518v-1362l215 -74l-41 -82h-623v63l193 152v1303h-244l-272 -404l-62 21v512l111 -37h1196l111 37v-512l-62 -21l-272 404h-250zM1077 -170v-63l-260 -390h-82l53 254l-159 117l41 82h407z" />
    <glyph glyph-name="uni021B" unicode="&#x21b;" horiz-adv-x="933" 
d="M582 -20q-170 0 -249 89t-79 275v598h-221v84l389 453h78v-453h368v-84h-368v-623q0 -166 159 -165q43 0 83 18t100 66l61 -78l-207 -164q-47 -16 -114 -16zM780 -170v-63l-260 -390h-82l54 254l-160 117l41 82h407z" />
    <glyph glyph-name="dotlessj" unicode="&#x237;" horiz-adv-x="776" 
d="M541 203q0 -188 18 -244l-393 -500l-78 62q123 145 165 247.5t42 254.5v782l-182 127v63l350 131h78v-923z" />
    <glyph glyph-name="uni02BC" unicode="&#x2bc;" horiz-adv-x="1187" 
d="M481 1044h-78l-167 82l264 525h78l167 -82z" />
    <glyph glyph-name="circumflex" unicode="&#x2c6;" horiz-adv-x="1163" 
d="M1001 1393l-253 -39l-240 274l-324 -256l-61 78l452 358l465 -366z" />
    <glyph glyph-name="caron" unicode="&#x2c7;" horiz-adv-x="1163" 
d="M588 1372l-465 367l39 49l254 39l239 -275l324 256l61 -77z" />
    <glyph glyph-name="breve" unicode="&#x2d8;" horiz-adv-x="1001" 
d="M478 1432q-108 0 -220 47t-164 151l199 158q55 -131 117 -182q62 -52 130 -52t110 35t42 84l232 115q0 -76 -68 -160t-169 -140t-209 -56z" />
    <glyph glyph-name="dotaccent" unicode="&#x2d9;" horiz-adv-x="694" 
d="M510 1594q0 -107 -100 -167q-43 -25 -94 -25t-92 46q-40 44 -40 102q0 109 101 166q43 25 94 25t91 -45q40 -44 40 -102z" />
    <glyph glyph-name="ring" unicode="&#x2da;" horiz-adv-x="841" 
d="M266 1632q0 -88 52 -147t149 -60q53 0 81 23t27 63q0 91 -52 149q-53 58 -155 59t-102 -87zM719 1614q0 -78 -57 -140q-58 -62 -144 -100t-175 -39q-89 1 -155 59t-66 136t58 140t144 100t176 38t154 -58q65 -58 65 -136z" />
    <glyph glyph-name="ogonek" unicode="&#x2db;" horiz-adv-x="679" 
d="M385 -236q0 -42 23 -61q23 -20 71 -31v-78l-170 -135q-180 68 -180 230q0 45 16 82l355 280l57 -51q-172 -158 -172 -236z" />
    <glyph glyph-name="tilde" unicode="&#x2dc;" horiz-adv-x="1116" 
d="M735 1653q66 0 127 45l70 53l61 -78l-329 -260q-150 154 -281 154q-70 0 -133 -47l-66 -50l-61 78l330 260q149 -155 282 -155z" />
    <glyph glyph-name="hungarumlaut" unicode="&#x2dd;" horiz-adv-x="1208" 
d="M1085 1739l-368 -355l-82 41l151 402l261 -39zM573 1739l-368 -355l-82 41l151 402l261 -39z" />
    <glyph glyph-name="uni0326" unicode="&#x326;" horiz-adv-x="0" 
d="M-184 -170v-63l-260 -390h-82l53 254l-160 117l41 82h408z" />
    <glyph glyph-name="Delta" unicode="&#x394;" horiz-adv-x="1775" 
d="M821 1403l-567 -1311h1112zM1632 0h-1509v63l647 1481l213 105l649 -1567v-82z" />
    <glyph glyph-name="Omega" unicode="&#x3a9;" horiz-adv-x="1902" 
d="M1022 0v543q129 4 234 58q226 117 226 367q0 130 -62 250t-192 190t-294 71t-276 -53t-175 -147t-63 -208q0 -201 117 -348t344 -180v-543h-586l-111 -37v389l62 21l272 -281h148v295q-154 33 -272 116t-184 205q-67 122 -67 265q-1 182 139 339t348 248t410 91t368 -79
q167 -79 259 -217t92 -290q-1 -151 -73 -269t-192 -208t-257 -144v-352h147l273 281l61 -21v-389l-110 37h-586z" />
    <glyph glyph-name="mu" unicode="&#x3bc;" horiz-adv-x="1425" 
d="M938 -20v233l-260 -217q-43 -16 -88 -16t-82 4v-113q-2 -53 32 -122t87 -128l-287 -141h-78v1255q2 53 -32 122t-87 128l287 141h78v-729q0 -113 35 -157t111 -45t138 23t146 93v424q0 55 -33 123t-86 127l287 141h78v-755q0 -55 33 -123t86 -127l-287 -141h-78z" />
    <glyph glyph-name="pi" unicode="&#x3c0;" horiz-adv-x="1609" 
d="M1214 350q0 -55 33 -123t86 -127l-246 -120h-77v860h-330v-840h-324v63q53 59 86 127t33 123v527h-102q-135 0 -312 -80l-61 78l315 249h1172v-247h-273v-490z" />
    <glyph glyph-name="uni0900" unicode="&#x900;" horiz-adv-x="0" 
d="M-348 2333q0 176 -293 176q-174 0 -285.5 -90t-140.5 -250l-80 -70l-186 166q18 117 97 212t203 149.5t280.5 54.5t314 -62.5t257 -162t99.5 -189.5t-16 -166l-66 -76l-201 175q17 78 17 133zM-799 2261h78l168 -82v-278h-78l-168 81v279z" />
    <glyph glyph-name="candraBindudeva" unicode="&#x901;" horiz-adv-x="0" 
d="M-1001 2259q0 -176 292 -176q174 0 286 90t140 250l80 69l187 -165q-18 -117 -97.5 -212.5t-203 -149.5t-280.5 -54t-314.5 62.5t-257 161.5t-99.5 189.5t17 165.5l65 76l201 -174q-16 -78 -16 -133zM-551 2331h-78l-168 82v278h78l168 -82v-278z" />
    <glyph glyph-name="anusvaradeva" unicode="&#x902;" horiz-adv-x="0" 
d="M-143 1954h-78l-168 82v278h78l168 -82v-278z" />
    <glyph glyph-name="visargadeva" unicode="&#x903;" horiz-adv-x="532" 
d="M389 184h-78l-168 82v279h78l168 -82v-279zM389 778h-78l-168 82v279h78l168 -82v-279zM532 1405h-671l-144 127v78h672l143 -127v-78z" />
    <glyph glyph-name="uni0904" unicode="&#x904;" horiz-adv-x="2076" 
d="M258 1464q193 168 381 168q94 0 206.5 -66.5t188.5 -167t76 -188.5t-54.5 -167.5t-146.5 -131.5q47 -31 99 -71q138 -95 248 -95t208.5 64.5t223.5 220.5v375h-336l-144 127v78h482l-322 278q-163 140 -371 140q-86 0 -223 -25q-125 -27 -251.5 -27t-236.5 48.5
t-266 181.5l-329 280l65 78l289 -246q167 -139 371 -139q96 0 222 26t254 25.5t237.5 -48.5t263.5 -181l452 -391h273l143 -127v-74h-328v-1425h-78l-231 204l64 74v424q-128 -100 -297 -100q-109 0 -217 45q4 -25 4 -37q2 -74 -55.5 -146.5t-147.5 -119.5t-184 -47t-158 16
l-453 399l66 78l112 -98q201 -176 357 -176q96 4 158.5 53t62.5 116.5t-69.5 139.5t-227.5 170v78q225 99 225 268q0 123 -114 123q-60 0 -155 -50t-194 -138l-143 126v78z" />
    <glyph glyph-name="adeva" unicode="&#x905;" horiz-adv-x="2076" 
d="M258 1464q193 168 381 168q94 0 206.5 -66.5t188.5 -167t76 -188.5t-54.5 -167.5t-146.5 -131.5q47 -31 99 -71q138 -95 248 -95t208.5 64.5t223.5 220.5v375h-336l-144 127v78h910l143 -127v-74h-328v-1425h-78l-231 204l64 74v424q-128 -100 -297 -100q-109 0 -217 45
q4 -25 4 -37q2 -74 -55.5 -146.5t-147.5 -119.5t-184 -47t-158 16l-453 399l66 78l112 -98q201 -176 357 -176q96 4 158.5 53t62.5 116.5t-69.5 139.5t-227.5 170v78q225 99 225 268q0 123 -114 123q-60 0 -155 -50t-194 -138l-143 126v78z" />
    <glyph glyph-name="aadeva" unicode="&#x906;" horiz-adv-x="2748" 
d="M258 1464q193 168 381 168q94 0 206.5 -66.5t188.5 -167t76 -188.5t-54.5 -167.5t-146.5 -131.5q47 -31 99 -71q138 -95 248 -95t208.5 64.5t223.5 220.5v375h-336l-144 127v78h1581l144 -127v-74h-328v-1425h-78l-231 204l63 74v1147h-426v-1425h-78l-231 204l64 74v424
q-128 -100 -297 -100q-109 0 -217 45q4 -25 4 -37q2 -74 -55.5 -146.5t-147.5 -119.5t-184 -47t-158 16l-453 399l66 78l112 -98q201 -176 357 -176q96 4 158.5 53t62.5 116.5t-69.5 139.5t-227.5 170v78q225 99 225 268q0 123 -114 123q-60 0 -155 -50t-194 -138l-143 126
v78z" />
    <glyph glyph-name="ideva" unicode="&#x907;" horiz-adv-x="1460" 
d="M940.5 803q96.5 0 216 -73t199.5 -180.5t80 -207.5q0 -76 -97.5 -162t-242 -143t-275.5 -57q-63 0 -139 16l219 -195q158 -139 371 -139q94 0 219 27l143 -127v-78q-119 -25 -252 -25t-243.5 48.5t-261.5 181.5l-529 467q-92 74 -145 158.5t-53 160.5t27.5 108.5
t68.5 32.5q145 0 291 -358q104 -59 222.5 -59t215 37.5t158 98t61.5 112t-40 91.5t-85 40q-96 0 -246 -89q-109 12 -228.5 89t-199.5 181.5t-80 184.5t48.5 144.5t130 102.5t176.5 38h329v176h-938l-143 127v78h1716l144 -127v-78h-533v-381h-444q-103 0 -172.5 -54.5
t-69.5 -131.5q0 -39 25.5 -71t91.5 -69q168 105 264.5 105z" />
    <glyph glyph-name="iideva" unicode="&#x908;" horiz-adv-x="1460" 
d="M940.5 803q96.5 0 216 -73t199.5 -180.5t80 -207.5q0 -76 -97.5 -162t-242 -143t-275.5 -57q-63 0 -139 16l219 -195q158 -139 371 -139q94 0 219 27l143 -127v-78q-119 -25 -252 -25t-243.5 48.5t-261.5 181.5l-529 467q-92 74 -145 158.5t-53 160.5t27.5 108.5
t68.5 32.5q145 0 291 -358q104 -59 222.5 -59t215 37.5t158 98t61.5 112t-40 91.5t-85 40q-96 0 -246 -89q-109 12 -228.5 89t-199.5 181.5t-80 184.5t48.5 144.5t130 102.5t176.5 38h329v176h-938l-143 127v78h1108l-364 313q-16 80 -16.5 201.5t61 227.5t173 163t230.5 57
t203 -14l315 -248l-61 -78q-113 78 -199 113t-170 35q-131 0 -209 -92.5t-78 -243.5q0 -205 160 -342l107 -92h456l144 -127v-78h-533v-381h-444q-103 0 -172.5 -54.5t-69.5 -131.5q0 -39 25.5 -71t91.5 -69q168 105 264.5 105z" />
    <glyph glyph-name="udeva" unicode="&#x909;" horiz-adv-x="1236" 
d="M1008 1118q0 -102 -61.5 -182t-168.5 -117q494 -283 494 -512q0 -74 -69.5 -150.5t-175 -126.5t-211.5 -50t-171 16l-577 510l65 78l227 -201q212 -184 392 -184q159 0 241 107q37 48 37 104t-51 118q-96 115 -524 346v78q66 12 132 58.5t110 105t44 105.5q0 137 -82 184
h-659l-143 127v78h1380l143 -127v-78h-512q140 -140 140 -287z" />
    <glyph glyph-name="uudeva" unicode="&#x90a;" horiz-adv-x="2172" 
d="M1008 1116q0 -102 -61.5 -182t-168.5 -117l94 -55l43 53q83 109 145 169q141 138 363 138q123 0 253 -65.5t216 -176t86 -235.5q0 -88 -53 -162.5t-146 -117.5t-210 -43l-144 127v77q37 -6 72 -6q102 0 158.5 63.5t56.5 159.5q0 215 -164 215t-290 -122
q-84 -81 -195 -209q209 -172 209 -320q0 -74 -69.5 -150.5t-175 -126.5t-211.5 -50t-171 16l-577 510l65 78l227 -201q212 -184 392 -184q159 0 241 107q37 48 37 104t-51 118q-96 115 -524 346v78q66 12 132 58.5t110 105t44 105.5q0 137 -82 184h-659l-143 127v78h2295
l144 -127v-78l-1428 -2q140 -140 140 -287z" />
    <glyph glyph-name="rvocalicdeva" unicode="&#x90b;" horiz-adv-x="2549" 
d="M679.5 920q-89.5 0 -180.5 -50.5t-276 -187.5l-143 127v78q166 117 273.5 167t192.5 50t151.5 -27.5t174.5 -118.5l78 -65q55 43 105 86v426h-1055l-143 127v78h2699l143 -127v-78h-1388l-8 -2v-483q43 -6 126 -6.5t173 44.5q20 92 68 166t108.5 115t122 41t150.5 -42
t151.5 -105.5t62.5 -129t-95 -108.5t-282 -78q16 -98 140 -215l61 -53v-78q-37 6 -72 6q-102 0 -158.5 -63.5t-56.5 -159.5q0 -215 166 -215q84 0 168 78t154 207l143 -127v-78q-63 -123 -141 -183.5t-201 -60.5t-253 65.5t-216 176t-86 235.5q0 78 41 144.5t115 111.5
q-53 72 -80 148q-53 -4 -86 -4q-106 0 -223 45v-820h-78l-232 205l64 74v412q-264 -199 -510 -332l-144 127v78q215 106 465 290q-99 89 -188.5 89z" />
    <glyph glyph-name="lvocalicdeva" unicode="&#x90c;" horiz-adv-x="1882" 
d="M1110 1405h-1090l-143 127v78h1985l143 -127v-78l-649 2v-334q139 -63 235.5 -176t96.5 -227q0 -51 -39 -97.5t-132 -128t-148.5 -152.5t-55.5 -157q0 -164 119 -164q125 0 245 244l164 -127v-78q-108 -203 -274 -203q-119 0 -238 65t-195.5 164t-76.5 183t48 147.5
t139 149.5t134 142.5t43 126t-44 124t-129 54.5t-144.5 -55.5t-122.5 -153.5l-33 -47l-143 127v65q-33 63 -126 63.5t-153.5 -72.5t-60.5 -158t36 -148.5t124 -137.5l174 -149l-66 -76l-518 447q-16 57 -16 139t48 156.5t132 118.5t186 44q169 0 330 -108q90 103 215 106
v281z" />
    <glyph glyph-name="ecandradeva" unicode="&#x90d;" horiz-adv-x="1255" 
d="M1204 921q0 -153 -58.5 -259.5t-166.5 -153.5l-143 127v78q59 49 80.5 113.5t21.5 190.5t-23 388h-411q-61 -291 -61.5 -460t47 -289.5t159.5 -215.5l293 -260q236 -208 288 -450q26 -116 23 -271h-77l-168 82l2 58q0 383 -246 602l-307 270q-158 139 -218.5 234.5
t-60.5 228.5t76 471h-221l-156 127v78h1419l144 -127v-78h-310q74 -331 74 -484zM680 2259q0 -176 293 -176q174 0 285.5 90t140.5 250l80 69l186 -165q-18 -117 -97 -212.5t-203 -149.5t-280.5 -54t-314.5 62.5t-257 161.5t-99 189.5t16 165.5l66 76l200 -174
q-16 -78 -16 -133z" />
    <glyph glyph-name="eshortdeva" unicode="&#x90e;" horiz-adv-x="1255" 
d="M1204 921q0 -153 -58.5 -259.5t-166.5 -153.5l-143 127v78q59 49 80.5 113.5t21.5 190.5t-23 388h-411q-61 -291 -61.5 -460t47 -289.5t159.5 -215.5l293 -260q236 -208 288 -450q26 -116 23 -271h-77l-168 82l2 58q0 383 -246 602l-307 270q-158 139 -218.5 234.5
t-60.5 228.5t76 471h-221l-156 127v78h1022l-321 278q-163 140 -371 140q-88 0 -218 -26t-257 -26t-236.5 48.5t-265.5 181.5l-330 280l66 78l289 -246q167 -139 370 -139q98 0 223 26t253.5 25.5t238 -48.5t262.5 -181l453 -391h241l144 -127v-78h-310q74 -331 74 -484z
" />
    <glyph glyph-name="edeva" unicode="&#x90f;" horiz-adv-x="1255" 
d="M1204 921q0 -153 -58.5 -259.5t-166.5 -153.5l-143 127v78q59 49 80.5 113.5t21.5 190.5t-23 388h-411q-61 -291 -61.5 -460t47 -289.5t159.5 -215.5l293 -260q236 -208 288 -450q26 -116 23 -271h-77l-168 82l2 58q0 383 -246 602l-307 270q-158 139 -218.5 234.5
t-60.5 228.5t76 471h-221l-156 127v78h1419l144 -127v-78h-310q74 -331 74 -484z" />
    <glyph glyph-name="aideva" unicode="&#x910;" horiz-adv-x="1255" 
d="M1204 921q0 -153 -58.5 -259.5t-166.5 -153.5l-143 127v78q59 49 80.5 113.5t21.5 190.5t-23 388h-411q-61 -291 -61.5 -460t47 -289.5t159.5 -215.5l293 -260q236 -208 288 -450q26 -116 23 -271h-77l-168 82l2 58q0 383 -246 602l-307 270q-158 139 -218.5 234.5
t-60.5 228.5t76 471h-221l-156 127v78h1022l-430 368q-163 140 -371 140q-94 0 -219 -27l-143 127v78q295 62 492 -24q110 -48 266 -181l561 -481h241l144 -127v-78h-310q74 -331 74 -484z" />
    <glyph glyph-name="ocandradeva" unicode="&#x911;" horiz-adv-x="2748" 
d="M258 1464q193 168 381 168q94 0 206.5 -66.5t188.5 -167t76 -188.5t-54.5 -167.5t-146.5 -131.5q47 -31 99 -71q138 -95 248 -95t208.5 64.5t223.5 220.5v375h-336l-144 127v78h1397l184 4l144 -127v-78h-328v-1425h-78l-231 204l63 74v1147h-426v-1425h-78l-231 204
l64 74v424q-128 -100 -297 -100q-109 0 -217 45q4 -25 4 -37q2 -74 -55.5 -146.5t-147.5 -119.5t-184 -47t-158 16l-453 399l66 78l112 -98q201 -176 357 -176q96 4 158.5 53t62.5 116.5t-69.5 139.5t-227.5 170v78q225 99 225 268q0 123 -114 123q-60 0 -155 -50t-194 -138
l-143 126v78zM2435 2083q174 0 285.5 90t140.5 250l80 69l186 -165q-18 -117 -97 -212.5t-203 -149.5t-280.5 -54t-314 62.5t-257 161.5t-99.5 189.5t16 165.5l66 76l201 -174q-16 -78 -17 -133q0 -176 293 -176z" />
    <glyph glyph-name="oshortdeva" unicode="&#x912;" horiz-adv-x="2748" 
d="M258 1464q193 168 381 168q94 0 206.5 -66.5t188.5 -167t76 -188.5t-54.5 -167.5t-146.5 -131.5q47 -31 99 -71q138 -95 248 -95t208.5 64.5t223.5 220.5v375h-336l-144 127v78h1153l-321 278q-163 140 -371 140q-88 0 -218 -26t-257 -26t-236.5 48.5t-265.5 181.5
l-330 280l66 78l289 -246q167 -139 370 -139q97 0 223 26t254 25.5t237.5 -48.5t262.5 -181l453 -391h272l144 -127v-74h-328v-1425h-78l-231 204l63 74v1147h-426v-1425h-78l-231 204l64 74v424q-128 -100 -297 -100q-109 0 -217 45q4 -25 4 -37q2 -74 -55.5 -146.5
t-147.5 -119.5t-184 -47t-158 16l-453 399l66 78l112 -98q201 -176 357 -176q96 4 158.5 53t62.5 116.5t-69.5 139.5t-227.5 170v78q225 99 225 268q0 123 -114 123q-60 0 -155 -50t-194 -138l-143 126v78z" />
    <glyph glyph-name="odeva" unicode="&#x913;" horiz-adv-x="2748" 
d="M258 1464q193 168 381 168q94 0 206.5 -66.5t188.5 -167t76 -188.5t-54.5 -167.5t-146.5 -131.5q47 -31 99 -71q138 -95 248 -95t208.5 64.5t223.5 220.5v375h-336l-144 127v78h1153l-430 368q-163 140 -370 140q-94 0 -220 -27l-143 127v78q298 61 492 -24
q110 -48 266 -181l561 -481h272l144 -127v-74h-328v-1425h-78l-231 204l63 74v1147h-426v-1425h-78l-231 204l64 74v424q-128 -100 -297 -100q-109 0 -217 45q4 -25 4 -37q2 -74 -55.5 -146.5t-147.5 -119.5t-184 -47t-158 16l-453 399l66 78l112 -98q201 -176 357 -176
q96 4 158.5 53t62.5 116.5t-69.5 139.5t-227.5 170v78q225 99 225 268q0 123 -114 123q-60 0 -155 -50t-194 -138l-143 126v78z" />
    <glyph glyph-name="audeva" unicode="&#x914;" horiz-adv-x="2748" 
d="M258 1464q193 168 381 168q94 0 206.5 -66.5t188.5 -167t76 -188.5t-54.5 -167.5t-146.5 -131.5q47 -31 99 -71q138 -95 248 -95t208.5 64.5t223.5 220.5v375h-336l-144 127v78h906l-269 229q-162 139 -370 139q-94 0 -220 -26l-143 127v78q298 63 495 -24
q109 -48 263 -181l399 -342h279l-703 602q-162 139 -370 139q-94 0 -220 -27l-143 127v78q121 25 253.5 25t241.5 -48t263 -182l833 -714h86l144 -127v-74h-328v-1425h-78l-231 204l63 74v1147h-426v-1425h-78l-231 204l64 74v424q-128 -100 -297 -100q-109 0 -217 45
q4 -25 4 -37q2 -74 -55.5 -146.5t-147.5 -119.5t-184 -47t-158 16l-453 399l66 78l112 -98q201 -176 357 -176q96 4 158.5 53t62.5 116.5t-69.5 139.5t-227.5 170v78q225 99 225 268q0 123 -114 123q-60 0 -155 -50t-194 -138l-143 126v78z" />
    <glyph glyph-name="kadeva" unicode="&#x915;" horiz-adv-x="2123" 
d="M459 702q0 -215 166 -215q110 0 193 98q34 40 79 107l35 51l6 7v655h-918l-143 127v78h2226l144 -127v-78l-1069 2v-334q84 53 199.5 53t245.5 -65.5t216 -176t86 -235.5q0 -88 -53 -162.5t-146.5 -117.5t-209.5 -43l-144 127v77q37 -6 72 -6q102 0 158.5 63.5
t56.5 160.5q0 215 -166 215q-111 0 -193 -98q-34 -40 -79 -107l-35 -51l-6 -13v-714h-78l-232 204l64 74v117q-76 -51 -192.5 -51t-246.5 65.5t-216 176t-86 235.5q0 88 53 162.5t146 117.5t210 43l143 -127v-77q-37 6 -71 6q-102 0 -158.5 -63.5t-56.5 -160.5z" />
    <glyph glyph-name="khadeva" unicode="&#x916;" horiz-adv-x="2220" 
d="M-217 1610h2478l147 -129v-78h-327v-1426h-78l-231 205l63 74v129q-86 -63 -208 -63t-252 65.5t-216 176t-86 235.5q0 88 53.5 162.5t146.5 117.5t210 43l143 -127v-77q-37 6 -72 6q-102 0 -158.5 -63.5t-56.5 -160.5q0 -215 166 -215q122 1 216 123q42 54 112 160v635
h-1167q150 -250 149 -518q0 -106 -37 -195.5t-94 -148t-119 -78.5l506 -447l-67 -75l-687 606q-74 59 -126 134t-52 126q0 108 162 108q94 0 223 -36q12 66 13 137q0 217 -86 389h-512l-156 127v78z" />
    <glyph glyph-name="gadeva" unicode="&#x917;" horiz-adv-x="1572" 
d="M1430 1405v-1425h-78l-232 204l64 74v1147h-426v-643q0 -66 -42 -136.5t-102 -118.5t-118 -48t-146 61.5t-151.5 147.5t-63.5 151q0 41 52.5 70t136.5 29t188 -25v512h-592l-145 127v78h1839l143 -127v-78h-327z" />
    <glyph glyph-name="ghadeva" unicode="&#x918;" horiz-adv-x="1748" 
d="M424 1112q0 -106 164 -184q106 35 231 33l144 -127v-78q-25 4 -74 4q-155 -2 -233 -66q-78 -62 -78 -158q0 -192 251 -192q179 0 327 134q66 60 171 171l33 35v719h-692l75 -68v-78q-55 14 -130.5 13.5t-132 -50t-56.5 -108.5zM313 639q0 127 142 225q-127 47 -212 135
t-85 193q0 139 141 213h-299l-143 127v78h1933l143 -127v-78h-327v-1425h-78l-232 204l64 74v78q-175 -158 -389 -158q-156 0 -309.5 62.5t-251 167t-97.5 231.5z" />
    <glyph glyph-name="ngadeva" unicode="&#x919;" horiz-adv-x="1703" 
d="M1712 778h-78l-168 82v279h78l168 -82v-279zM940.5 803q96.5 0 216 -73t199.5 -180.5t80 -207.5q0 -76 -100.5 -162t-250 -143t-261 -57t-220.5 16l-592 506l66 76l289 -244q158 -135 395 -135q102 0 202.5 37.5t165 98t64.5 112t-40 91.5t-85 40q-96 0 -246 -89
q-109 12 -228.5 89t-199.5 181.5t-80 184.5t48.5 144.5t130 102.5t176.5 38h329v176h-1081l-143 127v78h2134l145 -127v-78h-807v-381h-446q-102 0 -172 -54.5t-70 -131.5q0 -39 25.5 -71t91.5 -69q168 105 264.5 105z" />
    <glyph glyph-name="cadeva" unicode="&#x91a;" horiz-adv-x="1716" 
d="M834 702q0 -215 165 -215q123 1 217 123q42 54 111 160v635h-1347l-144 127v78h1921l144 -127v-78h-328v-1425h-78l-231 204l63 74v129q-86 -63 -208 -63t-252 65.5t-216 176t-86 235.5q0 61 29 119h-369l-143 127v77h895l143 -127v-77q-37 6 -71 6q-102 0 -158.5 -63.5
t-56.5 -160.5z" />
    <glyph glyph-name="chadeva" unicode="&#x91b;" horiz-adv-x="2035" 
d="M1563 551q90 0 163 96v19q0 160 -31.5 249t-92.5 89q-47 0 -75 -84t-28 -226.5t64 -142.5zM1993 565q0 -156 -121 -291t-327 -216t-451 -81q-170 0 -338 66t-274.5 175.5t-106.5 231.5t78 222q-119 51 -197 134t-78 169t52.5 150.5t144.5 102.5t207 38l39 -2l143 -127
v-78q-55 14 -132 14t-132.5 -49t-55.5 -117q0 -98 99 -147q127 84 291 84q33 0 49 -2l143 -127v-78q-25 4 -74 4q-152 0 -232 -81q-80 -82 -79 -194q0 -224 309 -223q213 0 383 69t275 181q-92 16 -178.5 74.5t-141.5 148t-55 199t51 202.5t137 130v258h-1421l-143 127v78
h2281l143 -127v-78h-614v-277q86 -45 161 -131t120 -198.5t45 -233.5z" />
    <glyph glyph-name="jadeva" unicode="&#x91c;" horiz-adv-x="1695" 
d="M1552 1405v-1425h-77l-232 204l64 74v455h-635l389 -336q16 -49 16 -121t-50 -136.5t-139 -102t-202 -37.5t-194 16l-418 328l61 77q188 -147 288.5 -197t188.5 -50t143.5 50t55.5 136q0 49 -38 116.5t-122 141.5l-282 244l65 76h873v487h-1287l-143 127v78h1860
l143 -127v-78h-328z" />
    <glyph glyph-name="jhadeva" unicode="&#x91d;" horiz-adv-x="2109" 
d="M918.5 803q72.5 0 146.5 -27q51 -14 145.5 -14t154.5 20.5t137 80t222 194.5v348h-475v-381h-446q-102 0 -172 -54.5t-70 -131.5q0 -39 25.5 -71t91.5 -69q168 105 240.5 105zM1436 342q0 -76 -97.5 -162t-242 -143t-275.5 -57q-63 0 -139 16l219 -195q158 -139 371 -139
q94 0 219 27l143 -127v-78q-119 -25 -252 -25t-243.5 48.5t-261.5 181.5l-529 467q-92 74 -145 158.5t-53 160.5t27.5 108.5t68.5 32.5q145 0 291 -358q104 -59 222.5 -59t215 37.5t158 98t61.5 112t-40 91.5t-85 40q-96 0 -246 -89q-109 12 -228.5 89t-199.5 181.5
t-80 184.5t48.5 144.5t130 102.5t176.5 38h329v176h-938l-143 127v78h2232l144 -127l2 -78h-328v-1425h-78l-231 204l63 74v481q-100 -88 -178 -114.5t-203 -26.5h-24q119 -132 119 -256z" />
    <glyph glyph-name="nyadeva" unicode="&#x91e;" horiz-adv-x="1634" 
d="M1245 1405h-1225l-143 127v78h1798l144 -127l2 -80h-328v-1426h-78l-231 205l63 74v416q-57 -43 -108.5 -60.5t-124.5 -21.5q-12 -86 -70.5 -158t-151 -115t-189.5 -43t-150 17l-316 248l62 77q186 -147 290 -147q129 2 196 83t67 226q0 90 -39 147.5t-112 58.5
t-144.5 -36t-124.5 -100l-144 127v78q61 41 145.5 72.5t167 31.5t187.5 -49t185.5 -135t117.5 -191q90 46 254 226v397z" />
    <glyph glyph-name="ttadeva" unicode="&#x91f;" horiz-adv-x="1429" 
d="M475 501.5q0 -166.5 83 -258t211 -91.5t237.5 66.5t234.5 217.5l143 -127v-78q-231 -252 -491 -251q-160 0 -319.5 89t-262 233t-102.5 283.5t62.5 251t169 180t227.5 68.5h104v320h-752l-143 127v78h1593l144 -127v-78h-596v-524h-221q-146 0 -234 -106.5t-88 -273z" />
    <glyph glyph-name="tthadeva" unicode="&#x920;" horiz-adv-x="1667" 
d="M1018 881h-221q-145 0 -233.5 -106.5t-88.5 -277.5t86 -258t227 -87q186 0 296 125.5t110 338.5q0 257 -176 320v-55zM1460 497.5q0 -131.5 -71.5 -255t-198.5 -193t-290 -69.5t-324.5 89t-264 231t-102.5 281.5t62.5 254t168 182t228.5 67.5h104v320h-752l-143 127v78
h1770l143 -127v-78h-772v-330q123 -51 223 -139t159.5 -197.5t59.5 -241z" />
    <glyph glyph-name="ddadeva" unicode="&#x921;" horiz-adv-x="1458" 
d="M940.5 803q96.5 0 216 -73t199.5 -180.5t80 -207.5q0 -76 -100.5 -162t-250 -143t-261 -57t-220.5 16l-592 506l66 76l289 -244q158 -135 395 -135q102 0 202.5 37.5t165 98t64.5 112t-40 91.5t-85 40q-96 0 -246 -89q-109 12 -228.5 89t-199.5 181.5t-80 184.5
t48.5 144.5t130 102.5t176.5 38h329v176h-1081l-143 127v78h1736l144 -127v-78h-410v-381h-444q-103 0 -172.5 -54.5t-69.5 -131.5q0 -39 25.5 -71t91.5 -69q168 105 264.5 105z" />
    <glyph glyph-name="ddhadeva" unicode="&#x922;" horiz-adv-x="1429" 
d="M985 324q0 -95 70 -95q37 0 75 27q18 35 18.5 86t-21 92.5t-54.5 42t-60.5 -44.5t-27.5 -108zM455 530q0 -160 109.5 -256t301.5 -106q-70 51 -109.5 125t-39.5 156.5t62.5 137t169 54.5t211 -59.5t170 -154.5t65.5 -205t-99.5 -176t-291 -66t-378 93t-300 245.5
t-113.5 322.5q0 119 59.5 221.5t159.5 162.5t217 60h146v320h-775l-143 127v78h1593l144 -127v-78h-574v-524h-262q-147 0 -235 -95.5t-88 -255.5z" />
    <glyph glyph-name="nnadeva" unicode="&#x923;" horiz-adv-x="1820" 
d="M426 1405v-531q0 -203 143 -202q66 0 129.5 29.5t105.5 92t42 154.5v457h-420zM1677 1405v-1425h-78l-231 204l64 74v1147h-340v-496q0 -98 -55.5 -191t-147.5 -151.5t-202 -58.5t-229.5 60.5t-198.5 160.5t-79 215v461h-160l-143 127v78h1985l143 -127v-78h-328z" />
    <glyph glyph-name="tadeva" unicode="&#x924;" horiz-adv-x="1355" 
d="M616 713q-200 0 -200 -193q0 -90 29.5 -153.5t121.5 -143.5l211 -186l-67 -76l-545 481q-16 55 -16 127q0 349 374 349h443v487h-938l-152 127v78h1520l143 -127v-78h-328v-1425h-77l-232 204l64 74v455h-351z" />
    <glyph glyph-name="thadeva" unicode="&#x925;" horiz-adv-x="1601" 
d="M383 1270q0 -154 83 -154t142 88q-9 283 -84 283q-68 0 -105.5 -61.5t-37.5 -155.5h2zM864 342q-152 0 -316.5 60.5t-279 152.5t-123.5 178l66 76q20 -4 45 -4q211 0 303 147q-104 8 -207.5 66.5t-170 152t-66.5 183.5t46 155.5t121.5 103.5t166.5 38t191.5 -84
t167 -222.5t66.5 -269t-57 -221t-160.5 -150t-236.5 -75.5q74 -121 321 -121q171 0 305 126q58 54 166 173v598h-139l-143 127v78h712l144 -127v-78h-328v-1425h-78l-231 204l63 74v203q-146 -119 -348 -119z" />
    <glyph glyph-name="dadeva" unicode="&#x926;" horiz-adv-x="1388" 
d="M453 542.5q0 -157.5 69.5 -248.5t188.5 -91q47 0 96 12q-23 98 -23 154q0 139 119 139q82 0 173 -56.5t152.5 -142.5t61.5 -155.5t-45 -112.5t-125 -57l342 -301l-67 -76l-426 377q-203 18 -377 115.5t-276.5 247t-102.5 317.5q0 109 61.5 207t162 156t212.5 58h146v320
h-775l-143 127v78h1553l143 -127v-78h-533v-524h-264q-141 0 -232 -90.5t-91 -248z" />
    <glyph glyph-name="dhadeva" unicode="&#x927;" horiz-adv-x="1744" 
d="M1602 1401v-1426h-78l-232 205l64 74v281q-92 -80 -167 -110t-187 -30t-241.5 61.5t-209.5 161.5q-80 98 -80 208t94 198q-160 88 -251 212t-91 260t87 223q88 87 222 87t249.5 -49t189 -125t73.5 -154t-75.5 -132t-177.5 -54q-14 0 -52 4l-137 107v78q29 -15 73 -15
t73.5 28t29.5 68t-19.5 55t-62.5 15q-92 0 -150 -68t-57.5 -168t46 -166.5t149.5 -127.5q102 43 219 43l137 -107v-77q-53 4 -69 4q-111 0 -171.5 -65.5t-60.5 -163.5t42 -134.5t116 -36.5t130 21.5t129 83t200 192.5v543h-139l-144 127v78h713l143 -127v-82h-327z" />
    <glyph glyph-name="nadeva" unicode="&#x928;" horiz-adv-x="1368" 
d="M1223 1405v-1425h-78l-232 204l64 74v455h-295q-25 -94 -93.5 -174t-128 -80t-137 67.5t-134 159.5t-56.5 154q0 45 73 61.5t263 16.5h510v487h-1049l-155 127v78h1634l143 -127l-2 -78h-327z" />
    <glyph glyph-name="nnnadeva" unicode="&#x929;" horiz-adv-x="1368" 
d="M1223 1405v-1425h-78l-232 204l64 74v455h-295q-25 -94 -93.5 -174t-128 -80t-137 67.5t-134 159.5t-56.5 154q0 45 73 61.5t263 16.5h510v487h-1049l-155 127v78h1634l143 -127l-2 -78h-327zM614 -180h-77l-168 82v278h77l168 -82v-278z" />
    <glyph glyph-name="padeva" unicode="&#x92a;" horiz-adv-x="1327" 
d="M428 1405v-490q0 -244 184 -243q122 0 216 122q42 54 112 160v451h-512zM1513 1405h-327v-1425h-78l-231 204l63 74v313q-86 -63 -208 -63t-252 65.5t-215 176t-85 235.5v420h-160l-143 127v78h1491l145 -127v-78z" />
    <glyph glyph-name="uni092B" unicode="&#x92b;" horiz-adv-x="2125" 
d="M942 1407h-512v-489q0 -244 184 -244q122 0 216 122q42 54 112 160v451zM1667 748q0 215 -166 215q-120 0 -209 -117q-39 -51 -106 -156v-710h-78l-231 204l63 74v313q-86 -63 -208 -63t-252 65.5t-215 176t-85 235.5v420h-160l-143 127v78h2228l144 -127v-78h-1045
l-16 2v-332q82 51 197.5 51t245.5 -65.5t216 -176t86 -235.5q0 -88 -53 -162.5t-146.5 -117.5t-209.5 -43l-144 127v77q37 -6 72 -6q102 0 158.5 63.5t56.5 160.5z" />
    <glyph glyph-name="uni092C" unicode="&#x92c;" horiz-adv-x="1327" 
d="M449 702q0 -215 165 -215q86 1 158 62l-305 256q-18 -45 -18 -103zM1516 1405h-328v-1425h-78l-231 204l63 74v129q-86 -63 -208 -63t-252 65.5t-216 176t-86 235.5q0 88 53.5 162.5t146.5 117.5t210 43l143 -127v-77q-37 6 -71 6q-80 0 -136 -39l312 -262q41 51 100 145
v635h-918l-143 127v78h1491l148 -127v-78z" />
    <glyph glyph-name="bhadeva" unicode="&#x92d;" horiz-adv-x="1552" 
d="M365 1331q0 -92 63 -92q55 0 102 41q-4 207 -63 207q-47 0 -74.5 -44t-27.5 -112zM1409 1405v-1425h-78l-231 204l63 74v455h-409q-27 -92 -96.5 -173t-130 -81t-143.5 65.5t-142.5 156.5t-59.5 159q0 45 75 61.5t273 16.5v157q-100 6 -200.5 55.5t-166 129t-65.5 172
t66.5 156t179.5 63.5t212 -67.5t159.5 -182.5t60.5 -248v-235h387v487h-139l-143 127v78h712l144 -127v-78h-328z" />
    <glyph glyph-name="madeva" unicode="&#x92e;" horiz-adv-x="1605" 
d="M1217 1405h-490v-487h487l3 -3v490zM1462 1405v-1425h-78l-231 204l64 74v455h-512q-27 -92 -97 -173t-130 -81t-143 65.5t-142.5 156.5t-59.5 159q0 45 75 61.5t273 16.5v487h-555l-151 127v78h1872l143 -127v-78h-328z" />
    <glyph glyph-name="uni092F" unicode="&#x92f;" horiz-adv-x="1499" 
d="M731 1087q0 -125 -89 -218t-232 -119q47 -125 212 -125q164 -1 300 117q60 52 159 153l29 31v475h-512q133 -148 133 -314zM465 1227q0 123 -55 178h-422l-144 127v78h1696l143 -129v-78h-327v-1426h-78l-231 205l63 74v332q-148 -125 -369 -125q-125 0 -253 57.5
t-222 146.5t-121 175l66 76q106 16 180 101t74 208z" />
    <glyph glyph-name="radeva" unicode="&#x930;" horiz-adv-x="913" 
d="M-217 1610h1159l156 -127l2 -80h-434q150 -250 149 -518q0 -106 -37 -195.5t-94 -148t-119 -78.5l506 -447l-67 -75l-687 606q-74 59 -126 134t-52 126q0 108 162 108q94 0 223 -36q12 66 13 137q0 217 -86 389h-512l-156 127v78z" />
    <glyph glyph-name="rradeva" unicode="&#x931;" horiz-adv-x="913" 
d="M-217 1610h1159l156 -127l2 -80h-434q150 -250 149 -518q0 -106 -37 -195.5t-94 -148t-119 -78.5l506 -447l-67 -75l-687 606q-74 59 -126 134t-52 126q0 108 162 108q94 0 223 -36q12 66 13 137q0 217 -86 389h-512l-156 127v78zM492 -180h-78l-168 82v278h78l168 -82
v-278z" />
    <glyph glyph-name="uni0932" unicode="&#x932;" horiz-adv-x="1775" 
d="M1632 1411v-1425h-78l-231 204l63 74v498q-209 -154 -442 -246l-143 127v78l61 24q-14 115 -56 167.5t-132 52.5t-151.5 -72t-61.5 -158t30.5 -145.5t118.5 -136.5l174 -154l-67 -76l-506 447q-16 57 -16 140t48 157.5t133 117.5q84 43 204 43t262.5 -79.5t218.5 -202.5
q174 102 325 235v324h-1366l-143 127v78h1940l143 -127v-72h-328z" />
    <glyph glyph-name="lladeva" unicode="&#x933;" horiz-adv-x="2123" 
d="M457 702q0 -215 166 -215q74 0 128 37t84.5 78t96.5 141l59 95q55 90 95 143q91 121 229 139v285h-1295l-143 127v78h2226l144 -127v-78l-688 -2v-318q152 -57 259 -177t107 -261q0 -102 -62.5 -176t-159.5 -111.5t-176 -37.5t-120 8l-154 131v92q90 -35 193.5 -35
t158 64.5t54.5 162.5q0 216 -166 216q-113 0 -191 -101q-34 -43 -82 -116t-55 -80l-57 -84q-55 -86 -97 -138q-97 -118 -266 -118q-123 0 -253 65.5t-216 176t-86 225t63.5 188.5t162 110.5t202.5 36.5q33 0 91 -8l153 -131v-92q-90 35 -192 35t-157.5 -64.5t-55.5 -163.5z
" />
    <glyph glyph-name="llladeva" unicode="&#x934;" horiz-adv-x="2123" 
d="M457 702q0 -215 166 -215q74 0 128 37t84.5 78t96.5 141l59 95q55 90 95 143q91 121 229 139v285h-1295l-143 127v78h2226l144 -127v-78l-688 -2v-318q152 -57 259 -177t107 -261q0 -102 -62.5 -176t-159.5 -111.5t-176 -37.5t-120 8l-154 131v92q90 -35 193.5 -35
t158 64.5t54.5 162.5q0 216 -166 216q-113 0 -191 -101q-34 -43 -82 -116t-55 -80l-57 -84q-55 -86 -97 -138q-97 -118 -266 -118q-123 0 -253 65.5t-216 176t-86 225t63.5 188.5t162 110.5t202.5 36.5q33 0 91 -8l153 -131v-92q-90 35 -192 35t-157.5 -64.5t-55.5 -163.5z
M1200 -180h-78l-168 82v278h78l168 -82v-278z" />
    <glyph glyph-name="vadeva" unicode="&#x935;" horiz-adv-x="1327" 
d="M444 702q0 -215 166 -215q122 1 216 123q42 54 112 160v635h-918l-143 127v78h1491l145 -127v-78h-327v-1425h-78l-231 204l63 74v129q-86 -63 -208 -63t-252 65.5t-216 176t-86 235.5q0 88 53.5 162.5t146.5 117.5t210 43l143 -127v-77q-37 6 -72 6q-102 0 -158.5 -63.5
t-56.5 -160.5z" />
    <glyph glyph-name="shadeva" unicode="&#x936;" horiz-adv-x="1697" 
d="M504 1329q0 -92 61 -92t109 43q-15 205 -68 205q-47 0 -74.5 -44t-27.5 -112zM1556 1403v-1426h-77l-232 205l64 74v1147h-140l-143 127v78h713l143 -127v-78h-328zM634 459q-83 0 -171 60.5t-150.5 145.5t-62.5 141q0 114 164 114q98 0 221 -39q39 80 41 194
q-100 4 -203.5 53.5t-170 129t-66.5 173t66.5 157t181 63.5t215 -75t162 -218.5t61.5 -339.5l2 -2q0 -207 -78 -371l289 -233l-68 -76l-274 221q-76 -98 -159 -98z" />
    <glyph glyph-name="ssadeva" unicode="&#x937;" horiz-adv-x="1327" 
d="M430 920q0 -244 184 -244h2q82 0 141.5 48t127.5 146l-455 381v-331zM430 1409v-25l510 -430l2 455h-512zM1513 1405h-327v-1425h-78l-231 204l63 74v313q-86 -63 -208 -63t-252 65.5t-215 176t-85 235.5v420h-160l-143 127v78h1491l145 -127v-78z" />
    <glyph glyph-name="sadeva" unicode="&#x938;" horiz-adv-x="1687" 
d="M1009.5 891q73.5 0 140.5 28.5t150 90.5l3 389h-635q133 -225 147 -473q121 -35 194.5 -35zM-217 1610h1946l145 -133v-78h-328v-1426h-78l-231 205l63 74v465q-127 -63 -213 -63.5t-131 16.5l-149 118q-23 -123 -92.5 -211t-149.5 -114l506 -447l-67 -75l-687 606
q-74 59 -126 134t-52 126q0 108 162 108q94 0 223 -36q12 66 13 137q0 217 -86 389h-512l-156 127v78z" />
    <glyph glyph-name="hadeva" unicode="&#x939;" horiz-adv-x="1183" 
d="M498 808q0 -77 43 -142h24q143 0 288.5 -62.5t239 -164t93.5 -196t-59.5 -169t-155.5 -113.5l-144 127v78q92 63 93 168q0 168 -201 168q-133 0 -206 -67.5t-73 -173t46 -182.5t143 -161l432 -383l-66 -76l-807 713q-14 53 -14 119q0 125 60.5 218t171.5 132l-156 133
q-17 38 -17 112.5t48.5 140t130.5 103t176 37.5h125v238h-570l-143 127v78h1225l143 -127v-78h-410v-442h-262l-2 2q-94 0 -145 -40t-51 -117z" />
    <glyph glyph-name="uni093A" unicode="&#x93a;" horiz-adv-x="0" 
d="M-123 1458h-78l-168 82v780h78l168 -82v-780z" />
    <glyph glyph-name="uni093B" unicode="&#x93b;" 
d="M528 1405v-1425h-77l-232 204l64 74v1147h-140l-143 127v78h283v710h77l168 -82v-628h185l143 -127v-78h-328z" />
    <glyph glyph-name="nuktadeva" unicode="&#x93c;" horiz-adv-x="0" 
d="M-143 -461h-78l-168 82v279h78l168 -82v-279z" />
    <glyph glyph-name="avagrahadeva" unicode="&#x93d;" horiz-adv-x="1286" 
d="M1593 1405h-690q-57 0 -126 -35t-115 -91t-48 -126q0 -70 81 -161t243 -232q172 -154 259 -253t87 -185t-69 -164t-177 -128t-206 -50q-97 0 -175 16l-596 510l66 78l246 -211q178 -154 354 -154q75 0 143 29t108 77q40 47 40 111t-76 149t-246 239t-259 256
q-89 104 -89 188t69 162t174 129t208 51h651l143 -127v-78z" />
    <glyph glyph-name="uni093E" unicode="&#x93e;" 
d="M528 1405v-1425h-77l-232 204l64 74v1147h-140l-143 127v78h713l143 -127v-78h-328z" />
    <glyph glyph-name="uni093F" unicode="&#x93f;" 
d="M936 1511q-282 480 -512 480q-111 0 -111 -113t121 -268h94v-1630h-77l-232 204l64 74v1147h-140l-143 127v78h279q-216 194 -216 366q0 98 73 157.5t194 59.5q188 0 346 -138t336 -466z" />
    <glyph glyph-name="uni0940" unicode="&#x940;" 
d="M-180 1991q-101 0 -101 -103q0 -76 55.5 -179t145.5 -191h-123q-166 121 -247.5 239.5t-81.5 217.5t72.5 158.5t193.5 59.5q184 0 340.5 -134t331.5 -449h307l143 -127l-2 -78h-328v-1425h-77l-232 204l64 74v1147h-140l-143 127v78h281q-243 381 -459 381z" />
    <glyph glyph-name="uvowelsigndeva" unicode="&#x941;" horiz-adv-x="0" 
d="M-111 -692.5q0 -100.5 -70.5 -182t-180 -129t-213.5 -47.5t-164 17l-510 450l67 76l176 -156q190 -167 375 -167q137 0 216 72.5t81 191.5q0 61 -31.5 105t-85 44t-108.5 -20.5t-92 -55.5l-144 127v78q92 43 208 43t225.5 -68.5t180 -173t70.5 -205z" />
    <glyph glyph-name="uuvowelsigndeva" unicode="&#x942;" horiz-adv-x="0" 
d="M-711.5 -1051q-115.5 0 -225.5 69t-180.5 173t-70.5 204.5t70.5 182.5t180.5 129t215 47t163 -16l510 -451l-68 -75l-176 155q-100 88 -189 128t-206 40t-196 -72.5t-81 -191.5q0 -61 32 -105.5t85 -44.5t108.5 20.5t92.5 55.5l143 -127v-78q-92 -43 -207.5 -43z" />
    <glyph glyph-name="rvocalicvowelsigndeva" unicode="&#x943;" horiz-adv-x="0" 
d="M-491.5 -1051q-125.5 0 -239 66.5t-188 174.5t-74.5 232.5t100 221t244 125.5l143 -127v-78q-117 0 -179.5 -77t-62.5 -204q0 -172 121 -172q61 0 143.5 41t135.5 107l143 -127v-78q-161 -105 -286.5 -105z" />
    <glyph glyph-name="rrvocalicvowelsigndeva" unicode="&#x944;" horiz-adv-x="0" 
d="M-301 -1245q-131 0 -261 52t-212 135t-82 167q0 108 137 180q-72 43 -115 97.5t-43 109.5q0 115 119 187.5t324 70.5l143 -127v-78q-55 14 -110 15q-106 0 -167 -49.5t-63 -116.5q0 -35 23 -66q98 29 213 29l137 -106v-78q-166 -2 -259 -50.5t-93 -134.5t170 -86
q80 2 157.5 44t132.5 114l144 -127v-78q-124 -104 -295 -104z" />
    <glyph glyph-name="ecandravowelsigndeva" unicode="&#x945;" horiz-adv-x="0" 
d="M-1001 2259q0 -176 292 -176q174 0 286 90t140 250l80 69l187 -165q-18 -117 -97.5 -212.5t-203 -149.5t-280.5 -54t-314.5 62.5t-257 161.5t-99.5 189.5t17 165.5l65 76l201 -174q-16 -78 -16 -133z" />
    <glyph glyph-name="eshortvowelsigndeva" unicode="&#x946;" horiz-adv-x="0" 
d="M-1871 2179q120 0 246 26t254 25.5t237.5 -48.5t263.5 -181l477 -412l-66 -78l-436 377q-163 140 -371 140q-86 0 -223 -25q-125 -27 -251.5 -27t-236.5 48.5t-266 181.5l-329 280l65 78l289 -246q169 -139 347 -139z" />
    <glyph glyph-name="evowelsigndeva" unicode="&#x947;" horiz-adv-x="0" 
d="M-645 2118q-102 0 -227 -27l-144 127v78q296 62 492 -24q110 -48 266 -181l586 -502l-66 -78l-545 467q-163 140 -362 140z" />
    <glyph glyph-name="aivowelsigndeva" unicode="&#x948;" horiz-adv-x="0" 
d="M-884 1978q-102 0 -226 -26l-143 127v78q299 62 495 -24q110 -48 262 -181l457 -391l-65 -78l-416 356q-163 139 -364 139zM-882 2351q-102 0 -228 -27l-143 127v78q121 25 253 25t241.5 -48t262.5 -182l885 -757l-65 -78l-844 723q-162 139 -362 139z" />
    <glyph glyph-name="ocandravowelsigndeva" unicode="&#x949;" 
d="M528 1405v-1425h-77l-232 204l64 74v1147h-140l-143 127v78h713l143 -127v-78h-328zM66 2259q0 -176 292 -176q174 0 286 90t140 250l80 69l187 -165q-18 -117 -97.5 -212.5t-203 -149.5t-280.5 -54t-314.5 62.5t-257 161.5t-99.5 189.5t17 165.5l65 76l201 -174
q-16 -78 -16 -133z" />
    <glyph glyph-name="uni094A" unicode="&#x94a;" 
d="M528 1405v-1425h-77l-232 204l64 74v1147h-140l-143 127v78h285l-322 278q-163 140 -371 140q-86 0 -223 -25q-125 -27 -251.5 -27t-236.5 48.5t-265 181.5l-330 280l65 78l289 -246q167 -139 371 -139q98 0 223 26t253 25.5t237.5 -48.5t263.5 -181l452 -391h273
l143 -127v-78h-328z" />
    <glyph glyph-name="ovowelsigndeva" unicode="&#x94b;" 
d="M528 1405v-1425h-77l-232 204l64 74v1147h-140l-143 127v78h285l-430 368q-163 140 -371 140q-94 0 -219 -27l-144 127v78q296 62 493 -24q110 -48 265 -181l561 -481h273l143 -127v-78h-328z" />
    <glyph glyph-name="uni094C" unicode="&#x94c;" 
d="M528 1405v-1425h-77l-232 204l64 74v1147h-140l-143 127v78h37l-268 229q-162 139 -371 139q-94 0 -219 -26l-144 127v78q299 62 495 -24q110 -48 263 -181l400 -342h278l-702 602q-162 139 -371 139q-94 0 -219 -27l-144 127v78q121 25 253.5 25t242 -48t262.5 -182
l834 -714h86l143 -127v-78h-328z" />
    <glyph glyph-name="viramadeva" unicode="&#x94d;" horiz-adv-x="0" 
d="M-68 -793l-536 474l65 77l539 -475z" />
    <glyph glyph-name="uni094E" unicode="&#x94e;" 
d="M528 1405v-1425h-77l-232 204l64 74v1352h430l143 -127v-78h-328z" />
    <glyph glyph-name="uni094F" unicode="&#x94f;" 
d="M532 1407v-1425h-77l-232 204l64 74v1147h-140l-143 127v78h279l-322 278q-163 140 -371 140q-85 0 -223 -25q-125 -27 -251.5 -27t-236.5 48.5t-265 181.5l-330 280l65 78l289 -246q167 -139 371 -139q96 0 222 26t254 25.5t237.5 -48.5t263.5 -181l448 -387
q123 45 123 141q0 59 -45 97t-129 80t-129 72q-109 73 -109 185q0 74 62.5 141.5t163.5 102.5l143 -127v-78q-43 -6 -72.5 -38.5t-29.5 -81.5t49 -86t150 -83t156.5 -88.5t55.5 -119t-82 -148.5l115 -102l4 -76h-328z" />
    <glyph glyph-name="omdeva" unicode="&#x950;" horiz-adv-x="2428" 
d="M629 1630q115 0 243 -83t213 -206q86 -123 86 -217q1 -94 -69 -175t-164 -124q98 -63 178 -129q68 8 125 64t161 223q104 168 182 263q77 95 146 130t166 35v2q162 0 312 -83t242 -216t94 -269q0 -136 -66 -245t-178 -171t-248 -62l-143 127v77q37 -6 71 -6
q133 1 215 107t82 264q0 312 -243 313q-74 1 -128 -27t-114 -99t-152 -214t-148 -218t-104 -111t-108 -45q94 -119 94 -209t-68 -168t-177 -128q-108 -50 -207 -50t-174 16l-596 510l65 78l246 -211q178 -154 332 -154q85 0 157 28t114 76t42 105q0 58 -44 116
q-81 107 -446 330v78q76 16 142 64t105 112q40 63 40 129t-41 107q-40 41 -108 41t-165 -41t-190 -107l-143 127v78q193 168 371 168zM1141 2105q0 -176 293 -176q174 0 286 90t140 250l79 70l187 -166q-18 -117 -97 -212t-203 -149t-280 -54t-315 62q-158 62 -257 161
q-100 99 -100 189t17 167l65 76l201 -175q-16 -78 -16 -133zM1346 2537h77l168 -81v-279h-78l-167 82v278z" />
    <glyph glyph-name="udattadeva" unicode="&#x951;" horiz-adv-x="0" 
d="M-123 1868h-78l-168 82v780h78l168 -82v-780z" />
    <glyph glyph-name="anudattadeva" unicode="&#x952;" horiz-adv-x="0" 
d="M225 -338h-1159l-156 127v78h1160l155 -127v-78z" />
    <glyph glyph-name="gravedeva" unicode="&#x953;" horiz-adv-x="0" 
d="M-569 1739l-537 473l66 78l538 -475z" />
    <glyph glyph-name="acutedeva" unicode="&#x954;" horiz-adv-x="0" 
d="M-166 2265q-143 -123 -331.5 -255t-358.5 -224l-143 127v78q166 84 351 214t339 265l143 -127v-78z" />
    <glyph glyph-name="uni0955" unicode="&#x955;" horiz-adv-x="0" 
d="M41 1808h-1159l-156 127v78h1159l156 -127v-78zM-985 2466q0 -176 293 -176q174 0 285.5 90t140.5 250l80 69l186 -166q-18 -117 -97 -212t-203 -149t-280.5 -54t-314.5 62.5t-257 161.5t-99 189.5t16 165.5l66 76l200 -174q-16 -78 -16 -133z" />
    <glyph glyph-name="uni0956" unicode="&#x956;" horiz-adv-x="0" 
d="M-599 -541q-105 0 -200 17l-315 248l61 77q175 -116 330 -116q236 0 465 147l143 -127v-78q-117 -76 -248 -122t-236 -46z" />
    <glyph glyph-name="uni0957" unicode="&#x957;" horiz-adv-x="0" 
d="M-599 -541q-105 0 -200 17l-315 248l61 77q175 -116 330 -116q236 0 465 147l143 -127v-78q-117 -76 -248 -122t-236 -46zM-723 -745q236 0 465 147l143 -127v-78q-117 -76 -248 -122t-236 -46t-200 17l-315 247l61 78q175 -116 330 -116z" />
    <glyph glyph-name="qadeva" unicode="&#x958;" horiz-adv-x="2123" 
d="M459 702q0 -215 166 -215q110 0 193 98q34 40 79 107l35 51l6 7v655h-918l-143 127v78h2226l144 -127v-78l-1069 2v-334q84 53 199.5 53t245.5 -65.5t216 -176t86 -235.5q0 -88 -53 -162.5t-146.5 -117.5t-209.5 -43l-144 127v77q37 -6 72 -6q102 0 158.5 63.5
t56.5 160.5q0 215 -166 215q-111 0 -193 -98q-34 -40 -79 -107l-35 -51l-6 -13v-714h-78l-232 204l64 74v117q-76 -51 -192.5 -51t-246.5 65.5t-216 176t-86 235.5q0 88 53 162.5t146 117.5t210 43l143 -127v-77q-37 6 -71 6q-102 0 -158.5 -63.5t-56.5 -160.5zM524 -180
h-78l-167 82v278h77l168 -82v-278z" />
    <glyph glyph-name="khhadeva" unicode="&#x959;" horiz-adv-x="2220" 
d="M-217 1610h2478l147 -129v-78h-327v-1426h-78l-231 205l63 74v129q-86 -63 -208 -63t-252 65.5t-216 176t-86 235.5q0 88 53.5 162.5t146.5 117.5t210 43l143 -127v-77q-37 6 -72 6q-102 0 -158.5 -63.5t-56.5 -160.5q0 -215 166 -215q122 1 216 123q42 54 112 160v635
h-1167q150 -250 149 -518q0 -106 -37 -195.5t-94 -148t-119 -78.5l506 -447l-67 -75l-687 606q-74 59 -126 134t-52 126q0 108 162 108q94 0 223 -36q12 66 13 137q0 217 -86 389h-512l-156 127v78zM369 -180h-78l-168 82v278h78l168 -82v-278z" />
    <glyph glyph-name="ghhadeva" unicode="&#x95a;" horiz-adv-x="1572" 
d="M1430 1405v-1425h-78l-232 204l64 74v1147h-426v-643q0 -66 -42 -136.5t-102 -118.5t-118 -48t-146 61.5t-151.5 147.5t-63.5 151q0 41 52.5 70t136.5 29t188 -25v512h-592l-145 127v78h1839l143 -127v-78h-327zM614 -180h-77l-168 82v278h77l168 -82v-278z" />
    <glyph glyph-name="zadeva" unicode="&#x95b;" horiz-adv-x="1695" 
d="M1552 1405v-1425h-77l-232 204l64 74v455h-635l389 -336q16 -49 16 -121t-50 -136.5t-139 -102t-202 -37.5t-194 16l-418 328l61 77q188 -147 288.5 -197t188.5 -50t143.5 50t55.5 136q0 49 -38 116.5t-122 141.5l-282 244l65 76h873v487h-1287l-143 127v78h1860
l143 -127v-78h-328zM795 -618h-78l-168 81v279h78l168 -82v-278z" />
    <glyph glyph-name="dddhadeva" unicode="&#x95c;" horiz-adv-x="1458" 
d="M940.5 803q96.5 0 216 -73t199.5 -180.5t80 -207.5q0 -76 -100.5 -162t-250 -143t-261 -57t-220.5 16l-592 506l66 76l289 -244q158 -135 395 -135q102 0 202.5 37.5t165 98t64.5 112t-40 91.5t-85 40q-96 0 -246 -89q-109 12 -228.5 89t-199.5 181.5t-80 184.5
t48.5 144.5t130 102.5t176.5 38h329v176h-1081l-143 127v78h1736l144 -127v-78h-410v-381h-444q-103 0 -172.5 -54.5t-69.5 -131.5q0 -39 25.5 -71t91.5 -69q168 105 264.5 105zM299 -344h-78l-168 82v278h78l168 -82v-278z" />
    <glyph glyph-name="rhadeva" unicode="&#x95d;" horiz-adv-x="1429" 
d="M985 324q0 -95 70 -95q37 0 75 27q18 35 18.5 86t-21 92.5t-54.5 42t-60.5 -44.5t-27.5 -108zM455 530q0 -160 109.5 -256t301.5 -106q-70 51 -109.5 125t-39.5 156.5t62.5 137t169 54.5t211 -59.5t170 -154.5t65.5 -205t-99.5 -176t-291 -66t-378 93t-300 245.5
t-113.5 322.5q0 119 59.5 221.5t159.5 162.5t217 60h146v320h-775l-143 127v78h1593l144 -127v-78h-574v-524h-262q-147 0 -235 -95.5t-88 -255.5zM504 -426h-78l-168 82v278h78l168 -81v-279z" />
    <glyph glyph-name="fadeva" unicode="&#x95e;" horiz-adv-x="2125" 
d="M942 1407h-512v-489q0 -244 184 -244q122 0 216 122q42 54 112 160v451zM1667 748q0 215 -166 215q-120 0 -209 -117q-39 -51 -106 -156v-710h-78l-231 204l63 74v313q-86 -63 -208 -63t-252 65.5t-215 176t-85 235.5v420h-160l-143 127v78h2228l144 -127v-78h-1045
l-16 2v-332q82 51 197.5 51t245.5 -65.5t216 -176t86 -235.5q0 -88 -53 -162.5t-146.5 -117.5t-209.5 -43l-144 127v77q37 -6 72 -6q102 0 158.5 63.5t56.5 160.5zM596 -102h-78l-168 82v278h78l168 -82v-278z" />
    <glyph glyph-name="yyadeva" unicode="&#x95f;" horiz-adv-x="1499" 
d="M731 1087q0 -125 -89 -218t-232 -119q47 -125 212 -125q164 -1 300 117q60 52 159 153l29 31v475h-512q133 -148 133 -314zM465 1227q0 123 -55 178h-422l-144 127v78h1696l143 -129v-78h-327v-1426h-78l-231 205l63 74v332q-148 -125 -369 -125q-125 0 -253 57.5
t-222 146.5t-121 175l66 76q106 16 180 101t74 208zM596 -143h-78l-168 82v278h78l168 -82v-278z" />
    <glyph glyph-name="rrvocalicdeva" unicode="&#x960;" horiz-adv-x="2549" 
d="M679.5 920q-89.5 0 -180.5 -50.5t-276 -187.5l-143 127v78q166 117 273.5 167t192.5 50t151.5 -27.5t174.5 -118.5l78 -65q55 43 105 86v426h-1055l-143 127v78h2699l143 -127v-78h-1388l-6 2v-483q43 -6 126 -6t173 45q20 92 68 165.5t108.5 114.5t122 41t150.5 -42
t151.5 -105.5t62.5 -129t-95 -108.5t-282 -78q10 -63 68 -139h55l144 -127v-78q-55 14 -136 14.5t-141.5 -49t-62.5 -116.5q0 -35 22 -66q98 29 213 29l137 -107v-78q-166 -2 -259 -50t-93 -134t170 -86q80 2 158 44t133 114l143 -127v-78q-124 -104 -295 -104
q-131 0 -261 52t-212 135t-82 167q0 107 138 180q-72 43 -115 97.5t-43 109.5q0 117 119 188q-53 74 -78 144q-53 -4 -86 -4q-106 0 -223 45v-820h-78l-232 205l64 74v412q-264 -199 -510 -332l-144 127v78q215 106 465 290q-99 89 -188.5 89z" />
    <glyph glyph-name="llvocalicdeva" unicode="&#x961;" horiz-adv-x="1882" 
d="M1110 1405h-1090l-143 127v78h1985l143 -127v-78l-651 2v-334q139 -63 235.5 -176t96.5 -228.5t-108 -201.5q-44 -35 -122 -85t-118 -87t-40 -79t23 -73q72 10 137 11l137 -107v-78q-160 8 -256 -37t-96 -120q0 -93 166 -93t295 158l143 -127v-78q-125 -104 -303 -104
q-127 0 -255 53t-210 135t-82 152q0 137 195 205q-139 92 -139 196q0 59 38.5 98t113.5 85t116 78q98 75 98 200q0 82 -43 136.5t-129 54.5t-145.5 -55.5t-122.5 -153.5l-33 -47l-143 126v78l6 6q-41 47 -132 47.5t-151.5 -72.5t-60.5 -158t36 -148.5t124 -137.5l174 -149
l-66 -76l-518 447q-16 57 -16 139t48 156.5t132 118.5t186 44q169 0 330 -108q90 103 215 106v281z" />
    <glyph glyph-name="lvocalicvowelsigndeva" unicode="&#x962;" horiz-adv-x="0" 
d="M-121 -1401q-155 -104 -317 -104q-88 0 -197.5 59.5t-181.5 159.5t-72 207t90 182q37 31 119 87.5t129 106.5t47 124.5t-39 123.5t-114.5 49t-159.5 -77.5t-154 -206.5l-143 127v78l6 12q-76 31 -162.5 31t-143 -60.5t-56.5 -139.5t34.5 -141.5t124.5 -140.5l174 -149
l-65 -76l-518 447q-16 57 -16.5 140t42.5 157.5t118 117.5t180.5 43t185.5 -35.5t155 -107.5q105 143 281 143q123 0 248 -65.5t205.5 -176t80.5 -221.5t-90 -186q-37 -31 -118.5 -87.5t-129 -106.5t-47.5 -113t23.5 -99t64.5 -36q74 0 146 36.5t125 100.5l145 -125v-78z
" />
    <glyph glyph-name="llvocalicvowelsigndeva" unicode="&#x963;" horiz-adv-x="0" 
d="M-397 -1733q-131 0 -261 52.5t-212 135.5t-82 167q0 55 47 104t131 82q-117 98 -117 223q0 59 48 101.5t144.5 93.5t144.5 93t48 108.5t-39 115.5t-114.5 49t-159.5 -77.5t-154 -206.5l-143 127v78l6 12q-78 31 -163.5 31t-142.5 -60.5t-57 -139.5t35 -141.5t125 -140.5
l174 -149l-65 -76l-518 446q-16 57 -16.5 140.5t42.5 158t118 117.5t180.5 43t185 -35.5t155.5 -107.5q105 143 281 143q123 0 248 -65.5t205.5 -176t80.5 -235.5q0 -55 -49 -95t-143 -89t-143.5 -88t-49.5 -83.5t25 -74.5q51 6 110 6l138 -106v-78q-154 0 -243 -38
t-89 -108q0 -84 170 -84q74 0 145.5 37t124.5 101l144 -127v-78q-125 -105 -295 -105z" />
    <glyph glyph-name="dandadeva" unicode="&#x964;" horiz-adv-x="1228" 
d="M737 -20h-78l-231 204l64 74v1372h77l168 -147v-1503z" />
    <glyph glyph-name="dbldandadeva" unicode="&#x965;" horiz-adv-x="1763" 
d="M1272 -20h-78l-231 204l63 74v1372h78l168 -147v-1503zM737 -20h-78l-231 204l64 74v1372h77l168 -147v-1503z" />
    <glyph glyph-name="zerodeva" unicode="&#x966;" horiz-adv-x="1333" 
d="M631 502q143 0 215 136q37 71 37 175q0 223 -181 223q-140 0 -215 -138q-37 -71 -36 -173q0 -223 180 -223zM1149 717q0 -115 -53 -199q-52 -84 -146 -132t-213 -48t-249 71t-217 185t-87 227q0 115 54 199t146 132q93 48 212 48t249 -71t217 -185t87 -227z" />
    <glyph glyph-name="onedeva" unicode="&#x967;" horiz-adv-x="1126" 
d="M463 1466q-51 0 -87 -66t-36 -161q0 -143 94 -143l2 2q37 -1 68 21t67 75q-12 272 -108 272zM813 946q0 -188 -43 -483t-84 -483h-78l-168 81q98 485 125 873q-10 -2 -30 -2q-109 0 -217 61t-176 159t-68 184t43 152t115 104t151 38q121 0 219 -90t154 -248t57 -346z" />
    <glyph glyph-name="twodeva" unicode="&#x968;" horiz-adv-x="1314" 
d="M184 1462q194 168 386 168q98 0 226 -82t215 -204t87 -231q0 -110 -70 -248t-172 -249l582 -487l-68 -78l-586 494q-114 -96 -192 -96t-169 60t-156 144t-64 148q0 92 203 92q117 0 243 -41q182 201 182 399q0 72 -39 113q-40 41 -109 41t-167 -41t-188 -107l-144 127v78
z" />
    <glyph glyph-name="threedeva" unicode="&#x969;" horiz-adv-x="1486" 
d="M714 178q96 0 177 32q82 32 128 84t46 112t-41 122q-76 113 -412 346v78q66 12 134 60t110 109q43 62 43 126t-35 111t-106 47q-154 0 -363 -148l-143 127v78q90 76 187 122t177 46q123 0 252 -84t213 -207t84 -225t-63 -181t-172 -116q375 -279 377 -510l2 -2
q0 -73 -70 -150t-175 -127t-184 -50t-139 12l416 -348l-67 -76l-682 573q-100 74 -161 165t-61 169t28 111t69 32q86 0 144 -87t97 -300q94 -51 190 -51z" />
    <glyph glyph-name="fourdeva" unicode="&#x96a;" horiz-adv-x="1454" 
d="M946 395q0 186 -229 451l-90 -103q-133 -150 -133 -368q0 -121 45 -177t152 -56t181 70q74 71 74 183zM227 471q0 82 42 166t145 201l153 174l-151 168q-199 220 -199 394q0 87 16 157l66 75l201 -174q-16 -94 -17 -145q0 -219 158 -391l133 151q115 131 152 225t37 214
q0 31 -9 53l80 69l187 -166q4 -20 4 -57q1 -97 -63 -199t-232 -292l-139 -160l45 -51q180 -195 255 -285t99 -147t22 -141q0 -84 -55 -162t-149 -124t-219 -46t-259 71q-134 72 -219 187q-84 115 -84 235z" />
    <glyph glyph-name="fivedeva" unicode="&#x96b;" horiz-adv-x="1523" 
d="M904 -20q-82 0 -190 61t-185 147t-76 152q0 36 56 60q55 24 153 24t229 -27q42 303 45 635q-78 -33 -176 -33q-98 1 -216 61q-120 60 -199 160t-79 216v194h78l168 -82v-182q0 -203 143 -203q105 1 191 61t86 175v231h78l168 -82v-587q0 -457 -86 -732l575 -483l-68 -78
l-544 459q-68 -147 -151 -147z" />
    <glyph glyph-name="sixdeva" unicode="&#x96c;" horiz-adv-x="1617" 
d="M201 840q0 78 47 150t131 120q-104 51 -168 124q-63 73 -63 150t52 136t144 94t207 35l39 -2l143 -127v-78q-55 14 -131 14t-132 -43t-56 -99t56 -89t222 -39h19l143 -127v-78q-25 4 -74 4q-152 1 -232 -67t-79 -175q0 -174 186 -174q129 0 229 46t160 118
q-43 133 -43 262q0 203 93 203q63 0 147 -64t144 -156q60 -91 61 -161q0 -97 -152 -227l602 -506l-69 -78l-619 520q-240 -164 -450 -164q-110 0 -244 67q-135 67 -224 177t-89 234z" />
    <glyph glyph-name="sevendeva" unicode="&#x96d;" horiz-adv-x="1921" 
d="M1315 1282q-53 0 -91 -66t-38 -157q0 -147 92 -148q69 0 135 97q-6 274 -98 274zM1679 776q0 -200 -90 -388t-246 -299q-156 -110 -342 -109q-223 0 -411 138t-298 369t-110 496q0 365 187 750l65 75l201 -174q-109 -248 -148 -444t-38 -391q1 -293 111 -470t321 -177
t346 156t174 440h-19q-108 0 -216 61t-176 157t-68 183q0 85 43 151t113 106t151 40q121 0 225 -87t164 -235t61 -348z" />
    <glyph glyph-name="eightdeva" unicode="&#x96e;" horiz-adv-x="1474" 
d="M461 1018q0 -100 55 -165t136 -101q80 -36 228 -82q148 -47 243 -91t161 -128t66 -220q0 -93 -66 -163t-149 -105l-144 127v78q92 47 92 166t-161 193q-70 32 -216 82q-146 49 -253 103q-106 54 -183 152q-76 98 -76 254t89 287h-263l-155 127v78h1405l155 -127v-78h-645
l2 2q-145 -1 -233 -107t-88 -282z" />
    <glyph glyph-name="ninedeva" unicode="&#x96f;" horiz-adv-x="1413" 
d="M864 764q-198 0 -316 -93t-118 -251q0 -100 58 -168t149 -68q165 0 279 71t206 175l144 -127v-78q-90 -94 -236 -170q-146 -75 -271 -75q-126 0 -261 82q-134 82 -224 216t-90 281q0 111 90 210t234 153q-113 80 -182 184q-70 104 -70 206q0 196 166 279q80 41 188 41
t220 -49q110 -49 179 -126t69 -156t-79 -131q-78 -52 -188 -52l-39 4l-137 107v78q29 -15 73 -15t74 29t29 76q0 61 -86 61t-144 -60t-59 -147q0 -170 158 -290q61 6 115 4l143 -127v-78q-25 4 -74 4z" />
    <glyph glyph-name="abbreviationsigndeva" unicode="&#x970;" horiz-adv-x="1169" 
d="M719 936q0 141 -98 141q-68 0 -119 -58t-51 -171q0 -143 98 -141q68 0 119 58t51 171zM985 842q0 -182 -161 -261q-75 -38 -174 -38t-210 57q-112 56 -184 152t-72 189q0 183 161 262q75 38 174 38t210 -57q111 -56 183 -152t73 -190z" />
    <glyph glyph-name="uni0971" unicode="&#x971;" horiz-adv-x="993" 
d="M727 1290h-78l-168 82v279h78l168 -82v-279z" />
    <glyph glyph-name="uni0972" unicode="&#x972;" horiz-adv-x="2076" 
d="M258 1464q193 168 381 168q94 0 206.5 -66.5t188.5 -167t76 -188.5t-54.5 -167.5t-146.5 -131.5q47 -31 99 -71q138 -95 248 -95t208.5 64.5t223.5 220.5v375h-336l-144 127v78h910l143 -127v-74h-328v-1425h-78l-231 204l64 74v424q-128 -100 -297 -100q-109 0 -217 45
q4 -25 4 -37q2 -74 -55.5 -146.5t-147.5 -119.5t-184 -47t-158 16l-453 399l66 78l112 -98q201 -176 357 -176q96 4 158.5 53t62.5 116.5t-69.5 139.5t-227.5 170v78q225 99 225 268q0 123 -114 123q-60 0 -155 -50t-194 -138l-143 126v78zM1470 2259q0 -176 293 -176
q174 0 286 90t140 250l80 69l187 -165q-18 -117 -97.5 -212.5t-203 -149.5t-280.5 -54t-314.5 62.5t-257 161.5t-99.5 189.5t17 165.5l65 76l201 -174q-17 -78 -17 -133z" />
    <glyph glyph-name="uni0973" unicode="&#x973;" horiz-adv-x="2076" 
d="M258 1464q193 168 381 168q94 0 206.5 -66.5t188.5 -167t76 -188.5t-54.5 -167.5t-146.5 -131.5q47 -31 99 -71q138 -95 248 -95t208.5 64.5t223.5 220.5v375h-336l-144 127v78h910l143 -127v-74h-328v-1425h-78l-231 204l64 74v424q-128 -100 -297 -100q-109 0 -217 45
q4 -25 4 -37q2 -74 -55.5 -146.5t-147.5 -119.5t-184 -47t-158 16l-453 399l66 78l112 -98q201 -176 357 -176q96 4 158.5 53t62.5 116.5t-69.5 139.5t-227.5 170v78q225 99 225 268q0 123 -114 123q-60 0 -155 -50t-194 -138l-143 126v78zM1933 1868h-78l-167 82v780h77
l168 -82v-780z" />
    <glyph glyph-name="uni0974" unicode="&#x974;" horiz-adv-x="2748" 
d="M258 1464q193 168 381 168q94 0 206.5 -66.5t188.5 -167t76 -188.5t-54.5 -167.5t-146.5 -131.5q47 -31 99 -71q138 -95 248 -95t208.5 64.5t223.5 220.5v375h-336l-144 127v78h1151v710h78l168 -82v-628h184l144 -127v-74h-328v-1425h-78l-231 204l63 74v1147h-426
v-1425h-78l-231 204l64 74v424q-128 -100 -297 -100q-109 0 -217 45q4 -25 4 -37q2 -74 -55.5 -146.5t-147.5 -119.5t-184 -47t-158 16l-453 399l66 78l112 -98q201 -176 357 -176q96 4 158.5 53t62.5 116.5t-69.5 139.5t-227.5 170v78q225 99 225 268q0 123 -114 123
q-60 0 -155 -50t-194 -138l-143 126v78z" />
    <glyph glyph-name="uni0975" unicode="&#x975;" horiz-adv-x="2748" 
d="M262 1466q193 168 381 168q94 0 207 -66.5t188.5 -167t75.5 -188.5t-54 -167.5t-147 -131.5q47 -31 99 -71q136 -94 247.5 -94t209.5 64.5t223 219.5v375h-336l-144 127v78h1147l-321 278q-163 140 -371 140q-88 0 -218 -26t-257 -26t-236.5 48.5t-265.5 181.5l-330 280
l66 78l289 -246q167 -139 370 -139q97 0 223 26t254 25.5t237.5 -48.5t262.5 -181l449 -387q123 45 123 141q0 59 -45 97t-129 80q-86 42 -130 72q-108 73 -108 185q0 74 62.5 141.5t162.5 102.5l144 -127v-78q-43 -6 -73 -38.5t-30 -81.5t49.5 -86t150.5 -83t156.5 -88.5
t55.5 -119t-82 -148.5l115 -102l4 -72h-328v-1425h-78l-231 204l63 74v1147h-426v-1425h-77l-232 204l64 74v424q-128 -100 -297 -100q-109 0 -217 45q4 -25 4 -37q2 -74 -55.5 -146.5t-147.5 -119.5t-182.5 -47t-159.5 16l-453 399l66 78l112 -98q201 -176 357 -176
q96 4 158.5 53t62.5 116.5t-69.5 139.5t-227.5 170v78q225 99 225 268q0 123 -114 123q-60 0 -155 -50t-193 -138l-144 127v77z" />
    <glyph glyph-name="uni0976" unicode="&#x976;" horiz-adv-x="2076" 
d="M258 1464q193 168 381 168q94 0 206.5 -66.5t188.5 -167t76 -188.5t-54.5 -167.5t-146.5 -131.5q47 -31 99 -71q138 -95 248 -95t208.5 64.5t223.5 220.5v375h-336l-144 127v78h910l143 -127v-74h-328v-1425h-78l-231 204l64 74v424q-128 -100 -297 -100q-109 0 -217 45
q4 -25 4 -37q2 -74 -55.5 -146.5t-147.5 -119.5t-184 -47t-158 16l-453 399l66 78l112 -98q201 -176 357 -176q96 4 158.5 53t62.5 116.5t-69.5 139.5t-227.5 170v78q225 99 225 268q0 123 -114 123q-60 0 -155 -50t-194 -138l-143 126v78zM1257 -315q238 0 465 147
l144 -127v-78q-117 -76 -248 -122t-236.5 -46t-199.5 17l-316 248l62 77q175 -116 329 -116z" />
    <glyph glyph-name="uni0977" unicode="&#x977;" horiz-adv-x="2076" 
d="M1257 -741q238 0 465 147l144 -127v-78q-117 -76 -248 -122t-236.5 -46t-199.5 17l-316 248l62 77q175 -116 329 -116zM1257 -311q235 0 465 147l144 -127v-78q-117 -76 -248 -122t-236.5 -46t-199.5 17l-316 248l62 77q175 -116 329 -116zM258 1464q193 168 381 168
q94 0 206.5 -66.5t188.5 -167t76 -188.5t-54.5 -167.5t-146.5 -131.5q47 -31 99 -71q138 -95 248 -95t208.5 64.5t223.5 220.5v375h-336l-144 127v78h910l143 -127v-74h-328v-1425h-78l-231 204l64 74v424q-128 -100 -297 -100q-109 0 -217 45q4 -25 4 -37
q2 -74 -55.5 -146.5t-147.5 -119.5t-184 -47t-158 16l-453 399l66 78l112 -98q201 -176 357 -176q96 4 158.5 53t62.5 116.5t-69.5 139.5t-227.5 170v78q225 99 225 268q0 123 -114 123q-60 0 -155 -50t-194 -138l-143 126v78z" />
    <glyph glyph-name="uni0979" unicode="&#x979;" horiz-adv-x="1613" 
d="M1552 1405v-1425h-77l-232 204l64 74v455h-635l389 -336q16 -49 16 -121t-50 -136.5t-139 -102t-202 -37.5t-194 16l-418 328l61 77q188 -147 288.5 -197t188.5 -50t143.5 50t55.5 136q0 49 -38 116.5t-122 141.5l-282 244l65 76h873v487h-1287l-143 127v78h1860
l143 -127v-78h-328zM346 -453h-78l-168 82v279h78l168 -82v-279zM733 -745h-78l-168 81v279h78l168 -82v-278zM1063 -453h-78l-168 82v279h78l168 -82v-279z" />
    <glyph glyph-name="uni097B" unicode="&#x97b;" horiz-adv-x="1527" 
d="M1384 1405v-1743h-1159l-155 127v78h1069v1538h-381v-643q0 -66 -42 -136.5t-102 -118.5t-118 -48t-146 61.5t-151.5 147.5t-63.5 151q0 41 52.5 70t136.5 29t188 -25v512h-592l-145 127v78h1794l143 -127v-78h-328z" />
    <glyph glyph-name="uni097C" unicode="&#x97c;" horiz-adv-x="1732" 
d="M1589 1405v-1743h-1302l-156 127v78h1212v846h-671l389 -336q16 -49 16 -121t-50 -136.5t-139 -102t-202 -37.5t-194 16l-418 328l61 77q188 -147 288.5 -197t188.5 -50t143.5 50t55.5 136q0 49 -38 116.5t-122 141.5l-282 244l65 76h909v487h-1323l-143 127v78h1897
l143 -127v-78h-328z" />
    <glyph glyph-name="uni097D" unicode="&#x97d;" horiz-adv-x="1552" 
d="M1323 1048q0 -140 -62 -254q-61 -114 -167 -182t-230 -67h-104v-565h-78l-168 81v689h221q145 0 234 106q88 106 88 283q0 340 -314 340q-186 0 -296 -125t-109 -338l-80 -70l-186 166q0 152 71 276q72 124 199 194q128 70 290 69q162 0 324 -89q162 -90 264 -232
t103 -282z" />
    <glyph glyph-name="uni097E" unicode="&#x97e;" horiz-adv-x="1458" 
d="M940.5 803q96.5 0 216 -73t199.5 -180.5t80 -207.5q0 -76 -100.5 -162t-250 -143t-261 -57t-220.5 16l-592 506l66 76l289 -244q158 -135 395 -135q102 0 202.5 37.5t165 98t64.5 112t-40 91.5t-85 40q-96 0 -246 -89q-109 12 -228.5 89t-199.5 181.5t-80 184.5
t48.5 144.5t130 102.5t176.5 38h329v176h-1081l-143 127v78h1736l144 -127v-78h-410v-381h-444q-103 0 -172.5 -54.5t-69.5 -131.5q0 -39 25.5 -71t91.5 -69q168 105 264.5 105zM1540 -338h-1159l-156 127v78h1159l156 -127v-78z" />
    <glyph glyph-name="uni097F" unicode="&#x97f;" horiz-adv-x="1327" 
d="M449 702q0 -215 165 -215q86 1 158 62l-305 256q-18 -45 -18 -103zM1516 1405h-328v-1743h-832l-155 127v78h741v520q-86 -63 -208 -63t-252 65.5t-216 176t-86 235.5q0 88 53.5 162.5t146.5 117.5t210 43l143 -127v-77q-37 6 -71 6q-80 0 -136 -39l312 -262
q41 51 100 145v635h-918l-143 127v78h1491l148 -127v-78z" />
    <glyph glyph-name="uni0FD5" unicode="&#xfd5;" horiz-adv-x="2326" 
d="M1376 905h703v-925h-78l-168 81v639h-457v-700h-966v78l82 127h638v495h-700v930h78l168 -82v-643h454v705h971v-78l-82 -127h-643v-500z" />
    <glyph glyph-name="uni0FD6" unicode="&#xfd6;" horiz-adv-x="2326" 
d="M1135 905v500h-643l-82 127v78h970v-705h455v643l168 82h78v-930h-701v-495h639l82 -127v-78h-966v700h-457v-639l-168 -81h-78v925h703z" />
    <glyph glyph-name="uni0FD7" unicode="&#xfd7;" horiz-adv-x="2326" 
d="M1757 508v-76l-143 -174l-156 143v74l144 176zM907 258l-155 143v74l143 176l156 -143v-76zM1602 1356l155 -144v-75l-143 -174l-156 143v74zM752 1106v74l143 176l156 -144v-75l-144 -174zM1376 1405v-500h703v-925h-78l-168 81v639h-457v-700h-966v78l82 127h638v495
h-700v930h78l168 -82v-643h454v705h971v-78l-82 -127h-643z" />
    <glyph glyph-name="uni0FD8" unicode="&#xfd8;" horiz-adv-x="2326" 
d="M1135 905v500h-643l-82 127v78h970v-340l39 36l144 -175v-74l-155 -144l-28 34v-42h455v643l168 82h78v-930h-701v-99l39 36l144 -175v-74l-155 -144l-28 33v-72h639l82 -127v-78h-966v700h-457v-162l106 99l144 -175v-74l-155 -144l-95 115v-298l-168 -81h-78v925h703z
M629 1088v74l155 144l144 -175v-74l-155 -144z" />
    <glyph glyph-name="Wgrave" unicode="&#x1e80;" horiz-adv-x="2447" 
d="M602 1610v-64l-149 -112l426 -1201l305 852l-111 328l-188 115l41 82h602v-64l-182 -141l380 -1167l422 1167l-364 123l41 82h622v-64l-178 -139l-491 -1341l-213 -105l-326 965l-305 -860l-213 -105l-526 1450l-195 117l41 82h561zM1323 1907l-451 354l39 49l275 39
l219 -401z" />
    <glyph glyph-name="wgrave" unicode="&#x1e81;" horiz-adv-x="1841" 
d="M1767 1087v-63l-456 -1024h-156l-213 522l-264 -522h-156l-319 780l-191 111v63l350 172l78 -309l250 -608l201 432l-57 139l-191 111v63l350 172l78 -309l244 -592l246 574l-285 207l41 81h450zM965 1384l-451 355l39 49l274 39l220 -402z" />
    <glyph glyph-name="Wacute" unicode="&#x1e82;" horiz-adv-x="2447" 
d="M602 1610v-64l-149 -112l426 -1201l305 852l-111 328l-188 115l41 82h602v-64l-182 -141l380 -1167l422 1167l-364 123l41 82h622v-64l-178 -139l-491 -1341l-213 -105l-326 965l-305 -860l-213 -105l-526 1450l-195 117l41 82h561zM1690 2261l-451 -354l-82 41l219 401
l275 -39z" />
    <glyph glyph-name="wacute" unicode="&#x1e83;" horiz-adv-x="1841" 
d="M1767 1087v-63l-456 -1024h-156l-213 522l-264 -522h-156l-319 780l-191 111v63l350 172l78 -309l250 -608l201 432l-57 139l-191 111v63l350 172l78 -309l244 -592l246 574l-285 207l41 81h450zM1331 1739l-450 -355l-82 41l219 402l274 -39z" />
    <glyph glyph-name="Wdieresis" unicode="&#x1e84;" horiz-adv-x="2447" 
d="M602 1610v-64l-149 -112l426 -1201l305 852l-111 328l-188 115l41 82h602v-64l-182 -141l380 -1167l422 1167l-364 123l41 82h622v-64l-178 -139l-491 -1341l-213 -105l-326 965l-305 -860l-213 -105l-526 1450l-195 117l41 82h561zM1450 2075.5q0 54.5 25.5 93.5
t64.5 62.5t85 23.5t82 -43t36 -97.5t-25.5 -93.5t-64.5 -62.5t-85 -23.5t-82 43t-36 97.5zM815 2075.5q0 54.5 25.5 93.5t64.5 62.5t85 23.5t82 -43t36 -97.5t-25.5 -93.5t-64.5 -62.5t-85 -23.5t-82 43t-36 97.5z" />
    <glyph glyph-name="wdieresis" unicode="&#x1e85;" horiz-adv-x="1841" 
d="M1767 1087v-63l-456 -1024h-156l-213 522l-264 -522h-156l-319 780l-191 111v63l350 172l78 -309l250 -608l201 432l-57 139l-191 111v63l350 172l78 -309l244 -592l246 574l-285 207l41 81h450zM1051 1553.5q0 54.5 25.5 93.5t64.5 62.5t85 23.5t81.5 -43t35.5 -97.5
t-25.5 -93.5t-64.5 -62.5t-85 -23.5t-81.5 43t-35.5 97.5zM498 1553.5q0 54.5 25.5 93.5t64.5 62.5t85 23.5t82 -43t36 -97.5t-26 -93.5t-64.5 -62.5t-85 -23.5t-82 43t-35.5 97.5z" />
    <glyph glyph-name="uni1E9E" unicode="&#x1e9e;" horiz-adv-x="1835" 
d="M1679 963v-78l-657 -641h483l88 168l62 -21v-430l-113 37h-825v78l661 641h-590v78l570 569q-49 14 -161 52t-203 61q-262 66 -373 -51q-70 -73 -70 -189v-1237h-449v63l193 152v936q0 102 86 220t210 199q125 81 243 81q118 -1 372 -21q254 -21 475 -20l-2 -66
l-567 -581h567z" />
    <glyph glyph-name="Ygrave" unicode="&#x1ef2;" horiz-adv-x="1644" 
d="M496 0v63l192 152v365l-526 850l-162 98l41 82h623v-64l-191 -147l410 -666l426 666l-328 129l41 82h623v-64l-168 -102l-533 -834v-454l215 -74l-41 -82h-622zM866 1907l-450 354l39 49l274 39l219 -401z" />
    <glyph glyph-name="ygrave" unicode="&#x1ef3;" horiz-adv-x="1269" 
d="M1194 1087v-63l-518 -1024l-426 -541l-78 62q117 125 177.5 219t85 189.5t24.5 226.5l-258 624l-191 111v63l350 172l78 -309l250 -610l289 600l-272 199l40 81h449zM657 1384l-450 355l39 49l274 39l219 -402z" />
    <glyph glyph-name="zerowidthspace" unicode="&#x200b;" horiz-adv-x="0" 
 />
    <glyph glyph-name="uni200C" unicode="&#x200c;" horiz-adv-x="0" 
 />
    <glyph glyph-name="uni200D" unicode="&#x200d;" horiz-adv-x="0" 
 />
    <glyph glyph-name="endash" unicode="&#x2013;" horiz-adv-x="1472" 
d="M82 674h1309v-84h-1309v84z" />
    <glyph glyph-name="emdash" unicode="&#x2014;" horiz-adv-x="2127" 
d="M82 674h1964v-84h-1964v84z" />
    <glyph glyph-name="quoteleft" unicode="&#x2018;" horiz-adv-x="743" 
d="M492 1416q-45 -91 -54 -204l160 -94v-63l-350 -172l-78 309l393 500l77 -61q-103 -124 -148 -215zM640 1631l1 -1v2z" />
    <glyph glyph-name="quoteright" unicode="&#x2019;" horiz-adv-x="757" 
d="M180 881l-78 61q104 125 150 216q45 91 53 204l-160 94v64l351 172l77 -312z" />
    <glyph glyph-name="quotesinglbase" unicode="&#x201a;" horiz-adv-x="743" 
d="M180 -543l-78 62q104 125 150 216q45 91 53 204l-160 94v63l351 172l77 -311z" />
    <glyph glyph-name="quotedblleft" unicode="&#x201c;" horiz-adv-x="1275" 
d="M1024 1416q-45 -91 -53 -204l159 -94v-63l-350 -172l-78 309l394 500l76 -61q-103 -124 -148 -215zM492 1416q-45 -91 -54 -204l160 -94v-63l-350 -172l-78 309l393 500l77 -61q-103 -124 -148 -215zM1174 1632q-1 0 -2 -1l2 -1v2zM640 1631l1 -1v2z" />
    <glyph glyph-name="quotedblright" unicode="&#x201d;" horiz-adv-x="1290" 
d="M713 881l-78 61q104 125 149 216t54 204l-160 94v64l350 172l78 -312zM180 881l-78 61q104 125 150 216q45 91 53 204l-160 94v64l351 172l77 -312z" />
    <glyph glyph-name="quotedblbase" unicode="&#x201e;" horiz-adv-x="1275" 
d="M713 -543l-78 62q104 125 149 216t54 204l-160 94v63l350 172l78 -311zM180 -543l-78 62q104 125 150 216q45 91 53 204l-160 94v63l351 172l77 -311z" />
    <glyph glyph-name="dagger" unicode="&#x2020;" horiz-adv-x="1343" 
d="M1130 856h-63l-66 115l-278 55l117 -397l-133 -1129l-35 -41l-35 41l-123 963l111 553l-275 -125l-289 119l152 247h63l66 -114l283 -58l-99 439l-114 67v64l350 172l78 -309l-111 -416l264 121l289 -119z" />
    <glyph glyph-name="daggerdbl" unicode="&#x2021;" horiz-adv-x="1353" 
d="M1141 27h-64l-65 114l-283 58l98 -439l115 -67v-64l-350 -172l-78 310l111 415l-265 -121l-288 119l151 248h64l65 -115l277 -55l-115 301l111 455l-275 -123l-289 119l152 247h63l66 -114l283 -58l-99 439l-114 67v64l350 172l78 -309l-111 -416l264 121l289 -119
l-152 -248h-63l-66 115l-276 55l115 -301l-111 -455l275 123l288 -119z" />
    <glyph glyph-name="bullet" unicode="&#x2022;" horiz-adv-x="1019" 
d="M836 592q0 -115 -58 -198t-144 -132q-87 -49 -167 -49q-81 0 -145 42t-101 114q-37 71 -37 163t58 176t144 132q87 49 167 49q125 0 204 -91t79 -206z" />
    <glyph glyph-name="ellipsis" unicode="&#x2026;" horiz-adv-x="2578" 
d="M633 170q0 -57 -29 -99t-72 -67q-44 -24 -94 -24t-91 45q-40 45 -40 102t29 99t72 67t94 25t91 -46q40 -45 40 -102zM1452 170q0 -106 -100 -166q-43 -24 -94 -24t-92 45q-40 45 -40 102t29 99t72 67t94 25t91 -46q40 -45 40 -102zM2271 170q-1 -57 -29 -99t-71 -67
q-43 -24 -94 -24t-91 45t-40 102q0 108 100 166q43 25 94 25t91 -46q40 -45 40 -102z" />
    <glyph glyph-name="perthousand" unicode="&#x2030;" horiz-adv-x="3434" 
d="M315 1427q0 -139 83 -232t241 -93q252 0 252 239q0 139 -84 233t-242 93q-250 0 -250 -240zM1104 1405q0 -115 -87 -218t-218 -165t-256 -61q-125 0 -225 52t-158 143t-58 207t87 219q87 102 219 164t256 62q125 0 226 -53q102 -53 158 -144t56 -206zM328 -271l-70 52
l1670 2137l72 -50zM1315 229q0 -139 83 -232t240 -93q252 0 252 239q0 139 -84 233t-241 93q-250 0 -250 -240zM2103 207q0 -115 -87 -218t-218 -165t-256 -62t-225 52t-158 144q-57 91 -57 207t87 219q87 102 218 164t256 62t226 -53t157 -144t57 -206zM2544 227
q0 -139 83 -232t240 -93q252 0 252 239q0 139 -84 233t-242 93q-249 0 -249 -240zM3332 205q0 -115 -87 -218t-218 -165t-256 -62t-225 52t-158 144q-57 91 -57 207t87 219q87 102 218 164t256 62t226 -53q102 -53 158 -144t56 -206z" />
    <glyph glyph-name="minute" unicode="&#x2032;" horiz-adv-x="796" 
d="M735 1561l-571 -578l-82 41l340 625l274 -39z" />
    <glyph glyph-name="second" unicode="&#x2033;" horiz-adv-x="1308" 
d="M735 1561l-571 -578l-82 41l340 625l274 -39zM1247 1561l-571 -578l-82 41l340 625l274 -39z" />
    <glyph glyph-name="uni2034" unicode="&#x2034;" horiz-adv-x="1820" 
d="M735 1561l-571 -578l-82 41l340 625l274 -39zM1247 1561l-571 -578l-82 41l340 625l274 -39zM1759 1561l-571 -578l-82 41l340 625l274 -39z" />
    <glyph glyph-name="guilsinglleft" unicode="&#x2039;" horiz-adv-x="837" 
d="M694 104l-71 -51l-521 494l521 493l71 -51l-260 -399z" />
    <glyph glyph-name="guilsinglright" unicode="&#x203a;" horiz-adv-x="837" 
d="M215 51l-72 51l260 400l-260 485l72 51l520 -493z" />
    <glyph glyph-name="asterism" unicode="&#x2042;" horiz-adv-x="3272" 
d="M2863 -510l-291 6l-32 55l157 93l-198 340l34 20l287 -205zM2490 -12l-34 -353l-246 -190l-139 254l30 55l156 -90l199 342zM2935 -170v180h-395v41l321 146l289 -117l-152 -250h-63zM2058 236v-181h396v-41l-322 -145l-289 119l152 248h63zM2494 82l-34 -21l-287 205
l-43 309l291 -6l33 -55l-156 -90zM2503 80l34 350l246 193l139 -256l-30 -56l-158 90l-197 -342zM1989 983l-291 6l-33 55l158 93l-199 340l35 20l287 -205zM1616 1481l-35 -353l-246 -190l-139 254l31 55l155 -90l199 342zM2060 1323v180h-395v41l322 146l288 -117
l-151 -250h-64zM1184 1729v-181h395v-41l-322 -145l-288 119l151 248h64zM1620 1575l-35 -21l-287 205l-43 309l291 -6l33 -55l-156 -90zM1628 1573l35 350l246 193l139 -256l-31 -56l-157 90l-197 -342zM1143 -510l-291 6l-33 55l158 93l-199 340l35 20l287 -205zM770 -12
l-35 -353l-246 -190l-139 254l31 55l156 -90l198 342zM1214 -170v180h-395v41l322 146l289 -117l-152 -250h-64zM338 236v-181h395v-41l-321 -145l-289 119l151 248h64zM774 82l-35 -21l-286 205l-43 309l290 -6l33 -55l-155 -90zM782 80l35 350l246 193l139 -256l-31 -56
l-157 90l-197 -342z" />
    <glyph glyph-name="fraction" unicode="&#x2044;" horiz-adv-x="466" 
d="M-365 -393l-77 39l1271 2394l80 -37z" />
    <glyph glyph-name="uni2051" unicode="&#x2051;" horiz-adv-x="1429" 
d="M1081 983l-290 6l-33 55l157 93l-198 340l35 20l286 -205zM709 1481l-35 -353l-246 -190l-139 254l30 55l156 -90l199 342zM1153 1323v180h-395v41l321 146l289 -117l-151 -250h-64zM276 1729v-181h396v-41l-322 -145l-289 119l152 248h63zM713 1575l-35 -21l-287 205
l-43 309l291 -6l33 -55l-156 -90zM721 1573l35 350l245 193l140 -256l-31 -56l-158 90l-196 -342zM1081 -510l-290 6l-33 55l157 93l-198 340l35 20l286 -205zM709 -12l-35 -353l-246 -190l-139 254l30 55l156 -90l199 342zM1153 -170v180h-395v41l321 146l289 -117
l-151 -250h-64zM276 236v-181h396v-41l-322 -145l-289 119l152 248h63zM713 82l-35 -21l-287 205l-43 309l291 -6l33 -55l-156 -90zM721 80l35 350l245 193l140 -256l-31 -56l-158 90l-196 -342z" />
    <glyph glyph-name="uni2055" unicode="&#x2055;" horiz-adv-x="1544" 
d="M948 118q0 -69 -25 -104q-26 -34 -88 -34t-90 35q-43 58 -20 179t45 212q23 92 35 153q-68 -55 -137 -125q-113 -104 -178 -152q-137 -101 -203 11q-20 33 -21 63q0 68 87 110t227 82t192 59q-54 20 -198 63t-227 84t-83 104q0 31 21 64q35 59 90 59t124 -52
q69 -51 159 -139t145 -135l-28 -47h1l29 -49l55 2l29 49q55 -20 199 -63t228 -84q83 -41 83 -107q0 -29 -21 -61q-35 -59 -90 -59t-124 52t-181 158q-65 65 -118 111q7 -45 45 -207q38 -163 38 -232zM715 1102q0 137 116 137t113 -137q0 -70 -38 -230t-46 -213
q29 23 133 123q115 104 179 154t118 49q53 0 88 -59q20 -33 21 -64q0 -68 -87 -110q-88 -42 -230 -82q-142 -41 -193 -60l-29 49l-59 -2q-8 59 -47 213t-39 232z" />
    <glyph glyph-name="uni2057" unicode="&#x2057;" horiz-adv-x="2332" 
d="M735 1561l-571 -578l-82 41l340 625l274 -39zM1247 1561l-571 -578l-82 41l340 625l274 -39zM1759 1561l-571 -578l-82 41l340 625l274 -39zM2271 1561l-571 -578l-82 41l340 625l274 -39z" />
    <glyph glyph-name="zerosuperior" unicode="&#x2070;" horiz-adv-x="1288" 
d="M356 1303q0 -139 83 -233t241 -93q252 0 252 240q0 139 -84 232t-242 93q-250 1 -250 -239zM1145 1280q0 -115 -87 -218q-87 -102 -218 -164t-256 -62q-126 0 -226 52t-157 143t-57 207t86 219t218 165t257 61q125 0 226 -53t157 -144t57 -206z" />
    <glyph glyph-name="foursuperior" unicode="&#x2074;" horiz-adv-x="1165" 
d="M668 1038v426l-389 -426h389zM864 918v-289l-196 -86v375h-607v63l607 645l196 84v-672h250l-57 -120h-193z" />
    <glyph glyph-name="fivesuperior" unicode="&#x2075;" horiz-adv-x="1097" 
d="M840 971q0 -127 -104 -221t-255 -156q-152 -62 -358 -123l-25 90q414 125 490 221q39 50 39 114t-37 110q-36 46 -142 101q-106 54 -313 134l105 428h465l53 121l61 -21v-301l-102 27h-432l-29 -125q435 -172 535 -280q49 -55 49 -119z" />
    <glyph glyph-name="sixsuperior" unicode="&#x2076;" horiz-adv-x="1263" 
d="M705 977q202 0 202 211q0 131 -96 222t-246 134l49 84q143 0 258 -49t182 -134q66 -85 66 -187t-74 -201q-74 -97 -194 -159q-119 -62 -242 -62t-220 58t-151 158q-55 100 -55 244q0 142 65 276q134 275 707 544l39 -80q-317 -178 -457 -347t-140 -335t78 -272
q79 -105 229 -105z" />
    <glyph glyph-name="sevensuperior" unicode="&#x2077;" horiz-adv-x="1130" 
d="M1008 1669v-78l-656 -1120l-100 33l586 991h-582l-51 -109l-62 21v287l103 -25h762z" />
    <glyph glyph-name="eightsuperior" unicode="&#x2078;" horiz-adv-x="1255" 
d="M907 1140q0 66 -41 113t-100 84t-168 95l-72 36q-102 -72 -134 -118t-32 -111q0 -67 46 -133t118 -106q74 -40 156 -39v-3q103 1 165 58q62 58 62 124zM825 1790q0 88 -59 147t-152 60v2q-71 0 -120 -43q-50 -43 -50 -113t69 -129t202 -129q72 78 91 117t19 88z
M1118 1229q0 -88 -74 -177q-74 -88 -180 -150t-192 -62q-150 0 -270 45t-188 124t-67 164q0 85 66 161t219 188q-94 59 -147 120q-53 62 -53 136t68 152q69 78 168 133q183 100 374 19q84 -36 131 -95t47 -129q-6 -66 -50 -138t-163 -186l4 2q147 -75 227 -147t80 -160z" />
    <glyph glyph-name="ninesuperior" unicode="&#x2079;" horiz-adv-x="1243" 
d="M268 551q598 323 598 651q0 154 -80 247t-229 93q-199 0 -201 -213q0 -129 91 -220t235 -134l-51 -86q-137 0 -249 49t-175 135q-63 87 -63 189t74 199q75 97 194 159q120 62 242 63q122 0 219 -53t151 -144q54 -90 55 -224q-1 -134 -65 -264q-135 -272 -707 -527z" />
    <glyph glyph-name="zeroinferior" unicode="&#x2080;" horiz-adv-x="1288" 
d="M356 291q0 -139 83 -233t241 -93q252 0 252 240q0 139 -84 232t-242 93q-250 1 -250 -239zM1145 268q0 -115 -87 -218q-87 -102 -218 -164t-256 -62q-126 0 -226 52t-157 143t-57 207t86 219t218 165t257 61q125 0 226 -53t157 -144t57 -206z" />
    <glyph glyph-name="oneinferior" unicode="&#x2081;" horiz-adv-x="804" 
d="M111 -162v66l159 108v514l-176 54l33 77h498v-65l-158 -109v-516l174 -51l-33 -78h-497z" />
    <glyph glyph-name="twoinferior" unicode="&#x2082;" horiz-adv-x="1005" 
d="M90 -162v64q388 268 469 374q43 55 43 112q0 56 -59 98t-157 42t-245 -106l-49 74l236 163q47 12 108 13q172 0 276 -58t103 -153q0 -137 -407 -449h376l54 121l61 -20v-301l-102 26h-707z" />
    <glyph glyph-name="threeinferior" unicode="&#x2083;" horiz-adv-x="956" 
d="M811 -41q0 -155 -171 -273t-546 -227l-24 90q214 66 326 115q112 50 157 102t45 115t-44 103t-175 104v57q90 91 120 139q29 48 29 104t-50 98t-138 42t-238 -106l-49 74l236 163q31 13 101 13t158 -29t141 -77q52 -48 52 -105q-4 -51 -44 -107t-130 -140
q138 -77 191 -133t53 -122z" />
    <glyph glyph-name="fourinferior" unicode="&#x2084;" horiz-adv-x="1165" 
d="M668 27v426l-389 -426h389zM864 -94v-289l-196 -86v375h-607v63l607 645l196 84v-671h250l-57 -121h-193z" />
    <glyph glyph-name="fiveinferior" unicode="&#x2085;" horiz-adv-x="1097" 
d="M840 -41q0 -127 -104 -221t-255 -156q-152 -62 -358 -123l-25 90q415 125 490 222q39 49 39 113t-37 110q-36 46 -142 101q-106 54 -313 134l105 428h465l53 121l61 -20v-301l-102 26h-432l-29 -125q435 -170 535 -280q49 -55 49 -119z" />
    <glyph glyph-name="sixinferior" unicode="&#x2086;" horiz-adv-x="1263" 
d="M907 176q0 131 -96 222t-246 134l49 84q143 0 258 -49t182 -134q66 -85 66 -187t-74 -201q-75 -97 -194 -159t-242 -62t-220 58t-151 158q-55 100 -55 244q0 142 65 276q134 275 707 544l39 -80q-317 -178 -457 -347t-140 -335t78 -271q79 -105 229 -106q202 0 202 211z
" />
    <glyph glyph-name="seveninferior" unicode="&#x2087;" horiz-adv-x="1130" 
d="M1008 657v-77l-656 -1121l-100 33l586 991h-582l-51 -108l-62 20v287l103 -25h762z" />
    <glyph glyph-name="eightinferior" unicode="&#x2088;" horiz-adv-x="1255" 
d="M907 128q0 66 -41 114t-100 84q-59 37 -168 94l-72 37q-102 -72 -134 -118q-32 -45 -32 -111t46 -133t118 -107q74 -40 156 -39v-2q103 0 165 57q62 58 62 124zM825 778q0 88 -59 148t-152 59v2q-71 0 -120 -43q-50 -42 -50 -112t69 -130t202 -129q72 78 91 117t19 88z
M1118 217q0 -88 -74 -177q-74 -88 -180 -150t-192 -62q-150 0 -270 45t-188 124t-67 164q0 85 66 161t219 188q-94 58 -147 120t-53 136t68 153q69 79 168 133t194 54q96 0 180 -36t131 -95t47 -129q-6 -66 -50 -138t-163 -186l4 2q147 -75 227 -147t80 -160z" />
    <glyph glyph-name="nineinferior" unicode="&#x2089;" horiz-adv-x="1243" 
d="M268 -461q598 323 598 651q0 154 -80 247t-229 93q-199 0 -201 -213q0 -129 91 -220t235 -134l-51 -86q-137 0 -249 49t-175 135q-63 87 -63 189t74 200q75 98 194 159q120 62 242 62t219 -53t151 -144q54 -90 55 -224q-1 -134 -65 -264q-135 -270 -707 -527z" />
    <glyph glyph-name="Euro" unicode="&#x20ac;" horiz-adv-x="1810" 
d="M274 782q0 58 13 121h-287l43 84h264q55 188 197 341t317 239t309 86t276 -31t208 -66v-397h-78q-188 322 -500 322q-121 -1 -222 -63t-168 -175t-87 -256h711l-43 -84h-676v-37q0 -84 12 -168h572l-43 -84h-514q51 -217 187 -349t355 -132q174 0 500 262l61 -94
l-376 -293q-127 -45 -308 -45t-335 83q-154 84 -251 232t-126 340h-285l43 84h233q-2 22 -2 80z" />
    <glyph glyph-name="uni20B9" unicode="&#x20b9;" horiz-adv-x="1390" 
d="M453 797q121 1 191 77t69 213v31h-572l43 84h521q-25 144 -111 232t-232 88h-219l43 84h1078l-43 -84h-426q88 -51 140 -134t56 -184h277l-43 -84h-242q-23 -88 -95 -170t-174 -140q-101 -58 -206 -81l328 -78l188 -471l211 -102l-41 -82h-381l-178 436q-76 154 -165 217
t-245 64h-73l43 84h258z" />
    <glyph glyph-name="uni2113" unicode="&#x2113;" horiz-adv-x="1171" 
d="M799 1352q0 54 -26 118t-70 110t-97 46v2q-45 1 -77 -69t-31 -187v-485q301 256 301 465zM252 1272q0 141 79 266t199 199t236 73q46 0 110 -52t109 -132t45 -160q0 -340 -532 -723v-424q0 -166 139 -165v2q84 0 221 84l41 -78l-205 -164q-47 -16 -114 -16
q-170 0 -249 89t-79 275v340q-102 -60 -211 -127l-41 78l252 164v471z" />
    <glyph glyph-name="uni2116" unicode="&#x2116;" horiz-adv-x="3129" 
d="M2984 -2h-1081l43 84h1081zM1905 401l43 84h1077l-43 -84h-1077zM2216 1247q0 -156 75 -260t216 -104q209 0 209 266q0 154 -76 258t-215 104q-209 0 -209 -264zM1708 1608v-64l-195 -151v-1395h-112l-973 1231v-1041l215 -108l-41 -82h-479v63l192 152v1200l-213 115
l41 82h310l948 -1200v1011l-213 107l41 80h479zM2530 1651q122 -1 219 -57t151 -153t55 -219q0 -122 -86 -233t-216 -177t-252 -64q-122 0 -219 56t-151 152q-55 96 -55 218t86 233t216 177t252 67z" />
    <glyph glyph-name="uni2117" unicode="&#x2117;" horiz-adv-x="2066" 
d="M1077 805q137 -1 137 145q0 78 -48 133t-140 56q-27 0 -49 -13v-585l207 -84l-41 -82h-533v63l131 113v563l-151 53l41 82h155q135 1 244 11t154 10h2q127 0 206 -78t78 -201q0 -71 -58 -139t-148 -113t-179 -53l-49 37zM1688 758q0 188 -76 355t-234 266t-391 100
q-172 0 -311 -79t-218 -219t-79 -328q0 -189 77 -355t233 -267q157 -100 390 -100q173 0 312 79t218 219q79 141 79 329zM1923 836q0 -236 -153 -439q-152 -203 -378 -321t-450 -117q-224 0 -408 103q-186 104 -288 288t-102 421t152 441q153 204 379 321q225 117 449 117
t409 -104t287 -288q102 -186 103 -422z" />
    <glyph glyph-name="trademark" unicode="&#x2122;" horiz-adv-x="2197" 
d="M1653 963v47l76 49v352l-201 -446h-109l-209 469v-381l97 -33l-41 -55h-250v47l96 61v443l-117 36l41 56h318l170 -410l184 410h315v-47l-96 -60v-454l117 -29l-41 -55h-350zM637 1542v-495l119 -25l-41 -55h-373v47l96 61v467h-102l-121 -178l-72 25v237l95 -16h602
l94 16v-237l-72 -25l-119 178h-106z" />
    <glyph glyph-name="Ohm" unicode="&#x2126;" horiz-adv-x="1902" 
d="M1022 0v543q129 4 234 58q226 117 226 367q0 130 -62 250t-192 190t-294 71t-276 -53t-175 -147t-63 -208q0 -201 117 -348t344 -180v-543h-586l-111 -37v389l62 21l272 -281h148v295q-154 33 -272 116t-184 205q-67 122 -67 265q-1 182 139 339t348 248t410 91t368 -79
q167 -79 259 -217t92 -290q-1 -151 -73 -269t-192 -208t-257 -144v-352h147l273 281l61 -21v-389l-110 37h-586z" />
    <glyph glyph-name="estimated" unicode="&#x212e;" horiz-adv-x="1982" 
d="M991 1524q-296 0 -489 -187v-475h979v479q-194 183 -490 183zM997 -39q-251 1 -445 107t-302 299t-107 437q0 244 108 438q107 192 301 300t440 107q246 0 440 -108q192 -109 300 -301t107 -435v-49h-1337v-490q197 -180 491 -180q193 0 347 90t235 252h174
q-102 -217 -301 -342t-451 -125z" />
    <glyph glyph-name="uni2153" unicode="&#x2153;" horiz-adv-x="2297" 
d="M180 850v65l160 109v514l-176 53l33 78h497v-65l-157 -109v-516l174 -51l-33 -78h-498zM510 -393l-78 39l1272 2394l80 -37zM2152 -41q0 -155 -171 -273t-545 -227l-25 90q215 66 327 115q112 50 156 102t45 115q0 63 -44 103t-175 104v57q90 91 120 139t30 104t-50 98
t-138 42t-238 -106l-49 74l235 163q32 13 102 13t158 -29t140 -77t53 -105q-4 -51 -44 -107t-131 -140q138 -77 191 -133t53 -122z" />
    <glyph glyph-name="uni2154" unicode="&#x2154;" horiz-adv-x="2428" 
d="M90 850v63q387 267 469 375q43 55 43 112q0 56 -59 98t-157 42t-245 -106l-49 73l236 164q47 12 108 12q172 0 276 -58t103 -152q0 -137 -407 -449h376l54 121l61 -21v-301l-102 27h-707zM641 -393l-78 39l1272 2394l80 -37zM2001 388q0 56 -50 98t-138 42t-238 -106
l-49 74l235 163q31 13 101 13t159 -29t141 -77t52 -105q-4 -51 -44 -107t-131 -140q138 -77 191 -133t54 -122q0 -155 -171 -273t-546 -227l-25 90q215 66 327 115q113 50 157 102t44 115t-44 103t-175 104v57q90 91 120 139t30 104z" />
    <glyph glyph-name="oneeighth" unicode="&#x215b;" horiz-adv-x="2596" 
d="M180 850v65l160 109v514l-176 53l33 78h497v-65l-157 -109v-516l174 -51l-33 -78h-498zM510 -393l-78 39l1272 2394l80 -37zM1702 228q0 -66 45 -133t119 -107t155 -39v-2q103 0 165 57q62 58 62 124q1 111 -141 198q-59 37 -168 94l-71 37q-102 -72 -134 -118
q-32 -45 -32 -111zM1786 832q0 -70 68 -130q69 -59 202 -129q72 78 91 117t20 88q1 88 -59 148t-152 59v2q-72 0 -121 -43q-49 -42 -49 -112zM2460 217q0 -88 -74 -177q-74 -88 -180 -150t-193 -62q-149 0 -269 45t-188 124t-68 164t66 161t220 188q-94 58 -148 120t-53 136
q0 74 68 153q69 79 168 133t195 54t179 -36q84 -36 131 -95t47 -129q-6 -66 -50 -138t-163 -186l4 2q148 -75 228 -147t80 -160z" />
    <glyph glyph-name="threeeighths" unicode="&#x215c;" horiz-adv-x="2678" 
d="M811 971q0 -154 -171 -273t-546 -227l-24 90q214 66 326 115t157 101q45 51 45 115t-44 104t-175 104v57q90 92 120 139q29 47 29 104q0 56 -50 98t-138 42t-238 -106l-49 73l236 164q31 12 101 12q70 -1 158 -29t141 -76q52 -48 52 -105q-4 -51 -44 -107t-130 -140
q138 -77 191 -133t53 -122zM592 -393l-78 39l1272 2394l80 -37zM1784 228q0 -66 45 -133t119 -107t155 -39v-2q103 0 165 57q62 58 62 124q1 111 -141 198q-59 37 -168 94l-71 37q-102 -72 -134 -118q-32 -45 -32 -111zM1868 832q0 -70 68 -130q69 -59 202 -129
q72 78 91 117t20 88q1 88 -59 148t-152 59v2q-72 0 -121 -43q-49 -42 -49 -112zM2542 217q0 -88 -74 -177q-74 -88 -180 -150t-193 -62q-149 0 -269 45t-188 124t-68 164t66 161t219 188q-94 58 -147 120t-53 136t68 153q69 79 168 133t195 54t179 -36q84 -36 131 -95
t47 -129q-6 -66 -50 -138t-163 -186l4 2q148 -75 228 -147t80 -160z" />
    <glyph glyph-name="fiveeighths" unicode="&#x215d;" horiz-adv-x="2820" 
d="M840 971q0 -127 -104 -221t-255 -156q-152 -62 -358 -123l-25 90q414 125 490 221q39 50 39 114t-37 110q-36 46 -142 101q-106 54 -313 134l105 428h465l53 121l61 -21v-301l-102 27h-432l-29 -125q435 -172 535 -280q49 -55 49 -119zM733 -393l-78 39l1272 2394l80 -37
zM1925 228q0 -66 45 -133t119 -107t156 -39v-2q102 0 164 57q63 58 63 124t-41 114t-100 84q-59 37 -168 94l-72 37q-102 -72 -134 -118q-32 -45 -32 -111zM2009 832q0 -70 69 -130t201 -129q72 78 92 117q19 39 19 88q0 88 -59 148t-152 59v2q-72 0 -121 -43
q-49 -42 -49 -112zM2683 217q0 -88 -74 -177q-74 -88 -180 -150t-193 -62q-150 0 -270 45t-186 124q-68 79 -68 164t66 161t219 188q-93 58 -147 120t-54 136t69 153t168 133t194 54t179 -36t131 -95t48 -129q-7 -66 -51 -138t-162 -186l4 2q147 -75 227 -147t80 -160z" />
    </font>
</defs>
</svg>
