<?xml version="1.0" standalone="no"?>
<!DOCTYPE svg PUBLIC "-//W3C//DTD SVG 1.1//EN" "http://www.w3.org/Graphics/SVG/1.1/DTD/svg11.dtd" >
<svg xmlns="http://www.w3.org/2000/svg">
<metadata>
Created by FontPrep 20130207 at Sat Dec 19 14:53:49 2015
 By Martin Campillo
Copyright (c) 2014 by Claus Eggers Srensen (es@forthehearts.net).
</metadata>
<defs>
<font id="a8729864a401c81ea2057b5d6d15dd1e" horiz-adv-x='1024' >
  <font-face 
    font-family="InknutAntiqua-ExtraBold"
    font-weight="800"
    font-stretch="normal"
    units-per-em="2048"
    panose-1="0 0 9 0 0 0 0 0 0 0"
    ascent="1638"
    descent="-410"
    x-height="1108"
    cap-height="1610"
    bbox="-9218 -1778 10676 3434"
    underline-thickness="176"
    underline-position="-143"
    unicode-range="U+0020-FB02"
  />
<missing-glyph horiz-adv-x="2859" 
d="M1452 410q-51 0 -94 -25t-72 -67t-29 -100t40 -102q39 -44 91 -44q105 0 166 91q29 41 29 99t-40 103t-91 45zM1424 1395q-90 0 -171 -17l-202 -157l61 -78q134 78 206 78t132 -30t97 -77q38 -47 38 -85q0 -39 -29 -67q-28 -28 -100 -80t-115 -98t-43 -110t62 -139
l215 106v64q-48 56 -46 90q3 33 32 61t101 80q72 53 113 98q42 46 41 104q0 58 -64 118t-151 100q-87 39 -177 39zM1430 -455l-1307 1237l1307 1233l1306 -1233z" />
    <glyph glyph-name="IJ" unicode="IJ" horiz-adv-x="1873" 
d="M90 0v131l193 166v1102l-230 63l74 148h756v-129l-195 -168v-1100l232 -63l-74 -150h-756zM1628 203q0 -191 19 -244l-486 -500l-145 111q123 145 165 247.5t42 254.5v1327l-273 63l76 148h797v-129l-195 -152v-1126z" />
    <glyph glyph-name="ij" unicode="ij" horiz-adv-x="1640" 
d="M1448 203q0 -188 18 -244l-458 -500l-146 111q123 145 165 247.5t42 254.5v686l-182 127v131l418 131h143v-944zM80 0v131l182 156v436l-182 121v129l416 174h145v-938l184 -59l-73 -150h-672zM975 1494.5q0 75.5 44 130t111.5 87.5t146.5 33t139.5 -60.5t60.5 -136
t-44 -130t-111 -87.5t-144.5 -33t-140 60.5t-62.5 136zM166 1515.5q0 75.5 44 130t111.5 87t146.5 32.5t139.5 -60t60.5 -136t-44 -130.5t-111 -87t-144.5 -32.5t-140 60.5t-62.5 136z" />
    <glyph glyph-name="fi" unicode="fi" horiz-adv-x="1693" 
d="M1108 0v762l-170 133h-297v-666l320 -79l-74 -150h-807v131l182 156v608h-211v152h211v151q0 162 97 303t243 224t284 83t295 -16t215 -45t89 -80t31 -113t-44 -115q-44 -54 -112 -87t-129 -33q-109 0 -199 119q-53 74 -102 98q-48 24 -130 25q-158 0 -159 -224v-290h324
l376 100h146v-938l184 -59l-74 -150h-489z" />
    <glyph glyph-name="fl" unicode="fl" horiz-adv-x="1693" 
d="M897 1808q294 0 479 -20h111v-1579l184 -59l-74 -150h-489v1389q-57 79 -141 125t-163 46t-121 -58t-42 -165v-290h336v-152h-336v-666l320 -79l-74 -150h-807v131l182 156v608h-211v152h211v151q0 162 99 303t249 224t287 83z" />
    <glyph glyph-name="f_adieresis.liga" unicode="f&#xe4;" horiz-adv-x="2353" 
d="M1772 469h-320q-25 -35 -25 -81t34 -73.5t93 -27.5q97 0 218 78v104zM1772 627q0 211 -236 211q-118 0 -373 -99l-61 127l282 228q109 35 258 34q242 0 375 -108.5t133 -314.5v-484l185 -71l-74 -150h-489v178l-232 -182q-41 -16 -102 -16q-203 0 -293 99t-90 238
q0 165 188 301h529v9zM1720 1538q0 68 38 119t94 80.5t124 29.5t120 -54.5t52 -122.5t-37.5 -118.5t-95 -79t-123.5 -28.5t-119 53t-53 121zM977 1047v-152h-336v-666l320 -79l-74 -150h-807v131l182 156v608h-211v152h211v151q0 162 105.5 303t263 224t295.5 83t284 -14
t201 -38t87 -74t32 -104t-37 -103.5t-94.5 -80t-116.5 -30.5q-100 0 -156 84q-41 68 -101.5 90.5t-170.5 22.5q-212 0 -213 -224v-290h336z" />
    <glyph glyph-name="f_b.liga" unicode="fb" horiz-adv-x="2418" 
d="M1909 494q0 152 -48 248t-143 98q-125 0 -231 -62v-332q1 -90 67 -150t189 -60q166 0 166 258zM897 1808q294 0 479 -20h111v-848l215 172q66 16 149 16q132 1 236 -70q105 -71 163 -195q58 -123 58 -279t-106 -297t-268 -225t-316 -82q-154 0 -270 116l-97 -96h-143
v1389q-57 79 -141 125t-163 46t-121 -58t-42 -165v-290h336v-152h-336v-666l320 -79l-74 -150h-807v131l182 156v608h-211v152h211v151q0 162 99 303t249 224t287 83z" />
    <glyph glyph-name="f_eth.liga" unicode="f&#xf0;" horiz-adv-x="2334" 
d="M1599 870q-165 0 -165 -256q0 -174 70 -277t188 -104q92 0 133 83t41 249t-41 305h-226zM1024 513q0 149 99 289t257 230t324 94q-82 125 -197 217l-405 -221l-39 76l371 203q-110 76 -222 120t-163 51t-125 7t-140 -42t-104 -116t-39 -161v-213h301v-152h-301v-666
l320 -79l-74 -150h-807v131l182 156v608h-211v152h211v120q0 187 116 333t292 227t346 81h379q201 -78 381 -219l401 219l43 -75l-373 -203l-2 -2q197 -176 313 -394t116 -420t-98 -369q-97 -167 -259 -267t-331 -100t-294 69q-124 70 -196 194t-72 272z" />
    <glyph glyph-name="f_f.liga" unicode="ff" horiz-adv-x="1875" 
d="M1110 1198q0 72 18 139q-61 78 -139 121q-77 43 -159 43t-134 -58t-53 -165v-229h336l131 -2v151zM2046 1360h-143q-49 94 -122 148t-144 54t-109 -56q-38 -58 -39 -167v-290h338v-152h-338v-666l319 -79l-73 -150h-625v895h-467v-666l320 -79l-74 -150h-807v131l182 156
v608h-211v152h211v90q0 162 106 303t262 224q157 83 300 83q92 0 213 -28t201 -66q88 73 189 113t194 40l2 2q76 1 174 -21t141 -46v-383z" />
    <glyph glyph-name="f_f_adieresis.liga" unicode="ff&#xe4;" horiz-adv-x="3201" 
d="M2619 471h-321q-25 -39 -25 -83q-1 -44 33 -72t92 -27q98 0 221 78v104zM2619 629q0 211 -236 211q-118 0 -372 -99l-61 127l282 228q106 35 256 34q242 0 376 -108.5t134 -314.5v-484l185 -71l-74 -150h-490v178l-231 -182q-41 -16 -102 -16q-203 0 -294 99t-91 238
q0 164 188 302h530v8zM1108 1200q0 68 22 135q-61 76 -141 120t-162 44t-134 -58.5t-52 -164.5v-229h336l131 2v151zM2566 1538q0 68 38 119t95 80.5t125 29.5t120 -54.5t52 -122.5t-38 -118.5t-95 -79t-123 -28.5t-120 53t-54 121zM1358 1647q203 161 437 161
q116 0 262.5 -14t201.5 -38t86 -74t31 -105t-37 -103.5t-94.5 -79t-114.5 -30.5q-98 0 -156 84q-43 68 -104.5 90.5t-171.5 22.5q-212 0 -211 -224v-290h338v-152h-338v-666l319 -79l-73 -150h-625v895h-467v-666l320 -79l-74 -150h-807v131l182 156v608h-211v152h211v90
q0 162 105.5 303t262 224t300.5 83q96 0 222 -30.5t206 -69.5z" />
    <glyph glyph-name="f_f_b.liga" unicode="ffb" horiz-adv-x="3264" 
d="M2757 489q-1 152 -49 249t-140 98q-125 0 -233 -62v-332q1 -90 67 -150t191 -61q164 0 164 258zM1110 1194q0 72 18 139q-61 78 -139 121q-77 43 -159 43t-134 -58t-53 -165v-230h336l131 -2v152zM1743 1808q294 0 479 -20h111v-848l215 172q66 16 151 16l2 -2
q132 1 235 -70q104 -71 162 -195q58 -125 58 -281t-106 -296t-267 -224q-159 -84 -315 -83q-156 0 -273 117l-96 -96h-145v1388q-55 80 -139 126t-163 46t-122 -58t-43 -165v-291h338v-151h-338v-666l319 -80l-73 -149h-625v895h-467v-666l320 -80l-74 -149h-807v131
l182 156v608h-211v151h211v91q0 162 106 303t262 224q157 83 300 83q92 0 215 -28t203 -66q90 73 195 115t200 42z" />
    <glyph glyph-name="f_f_eth.liga" unicode="ff&#xf0;" horiz-adv-x="3180" 
d="M2449 872q-163 0 -163 -256q0 -174 70 -277t186 -103q92 -1 134 82t42 249t-41 305h-228zM1110 1159q0 82 27 168q-61 80 -143 126t-164 46t-134 -58t-53 -165v-229h467v112zM2437 -20q-168 0 -293 70q-124 70 -196 193q-72 124 -72 272q0 149 99 289t257 230t324 94
q-82 125 -197 218l-405 -222l-41 76l371 203q-90 61 -197 105t-164 58t-117 13q-145 0 -231 -88t-86 -244v-200h301v-152h-301v-666l319 -79l-73 -150h-625v895h-467v-666l320 -79l-74 -150h-807v131l182 156v608h-211v152h211v90q0 162 106 303t262 224t278 83t255 -33
t207 -74q109 80 240 124t252 44h379q201 -78 380 -219l402 219l41 -75l-373 -203h2q199 -176 315 -394t116 -420t-99 -369q-98 -167 -260 -267t-330 -100z" />
    <glyph glyph-name="f_f_h.liga" unicode="ffh" horiz-adv-x="3231" 
d="M1108 1196q0 72 18 139q-61 76 -139 120t-160 44t-134 -58t-52 -165v-229h336l131 -3v152zM1743 1808q294 0 479 -20h111v-850l215 174q55 16 129 16q162 0 258 -85t96 -230v-604l184 -59l-75 -150h-488v643q0 92 -27 131q-28 39 -112 39t-180 -57v-549l184 -60l-74 -149
h-489v1388q-55 80 -139 126t-163 46t-122 -58t-43 -165v-291h338v-151h-338v-666l319 -80l-73 -149h-625v895h-467v-666l320 -80l-74 -149h-807v131l182 156v608h-211v151h211v91q0 162 106 303t262 224q157 83 300 83q92 0 215 -28t203 -66q90 73 195 115t200 42z" />
    <glyph glyph-name="f_f_i.liga" unicode="ffi" horiz-adv-x="2539" 
d="M1110 1198q0 72 18 139q-61 78 -139 121q-77 43 -159 43t-134 -58t-53 -165v-229h336l131 -2v151zM1346 1655q187 153 408 153q118 0 275 -16t214 -45t88 -80t31 -113t-45 -115q-45 -54 -111 -87t-127 -33q-113 0 -201 119q-51 74 -101 98q-49 24 -131 25
q-158 0 -159 -224v-290h323l379 100h144v-938l186 -57l-74 -150h-489v762l-170 133h-297v-666l319 -79l-73 -150h-625v895h-467v-666l320 -79l-74 -150h-807v131l182 156v608h-211v152h211v90q0 162 106 303t262 224q157 83 300 83q92 0 213 -28t201 -66z" />
    <glyph glyph-name="f_f_idieresis.liga" unicode="ff&#xef;" horiz-adv-x="2650" 
d="M1110 1200q0 72 18 139q-61 78 -139 121q-77 43 -159 43t-134 -58t-53 -165v-229h336l131 -2v151zM2498 1368q-66 0 -119 53q-52 53 -52 121q0 130 132 200q55 30 123 30t120 -55t52 -123t-37 -118t-95 -79t-124 -29zM1884 4v131l182 156v473l-170 133h-407v-666l319 -79
l-73 -150h-625v895h-467v-666l320 -79l-74 -150h-807v131l182 156v608h-211v152h211v90q0 162 106 303t262 224q157 83 300 83q92 0 213 -28t201 -66q88 73 189 113t194 40q173 0 289 -51t116 -178q0 -57 -38 -107t-95 -80q-57 -28 -111 -28q-107 0 -159 96q-7 10 -25 43
t-32 45t-42 13q-68 1 -106 -57t-39 -167v-290h434l377 100h145l2 -934l185 -59l-74 -150h-672z" />
    <glyph glyph-name="f_f_igrave.liga" unicode="ff&#xec;" horiz-adv-x="2539" 
d="M1110 1198q0 72 18 139q-61 78 -139 121q-77 43 -159 43t-134 -58t-53 -165v-229h336l131 -2v151zM1956 2v762l-170 133h-297v-666l319 -79l-73 -150h-625v895h-467v-666l320 -79l-74 -150h-807v131l182 156v608h-211v152h211v90q0 162 106 303t262 224q157 83 300 83
q92 0 213 -28t201 -66q88 73 189 113t194 40l358 19l219 -402l-129 -59q-240 121 -345 158q-104 37 -186 37q-158 0 -159 -224v-290h323l379 100h144v-938l186 -57l-74 -150h-489z" />
    <glyph glyph-name="f_f_iogonek.liga" unicode="ff&#x12f;" horiz-adv-x="2539" 
d="M1110 1198q0 72 18 139q-61 78 -139 121q-77 43 -159 43t-134 -58t-53 -165v-229h336l131 -2v151zM1346 1655q187 153 408 153q118 0 275 -16t214 -45t88 -80t31 -113t-45 -115q-45 -54 -111 -87t-127 -33q-113 0 -201 119q-51 74 -101 98q-49 24 -131 25
q-158 0 -159 -224v-290h323l379 100h144v-938l184 -59l-74 -150q-88 -135 -88 -201l2 2q0 -35 24 -51t77 -18v-146l-158 -125q-152 25 -233 86t-80 154q0 57 16 86l266 215h-313v762l-170 133h-297v-666l319 -79l-73 -150h-625v895h-467v-666l320 -79l-74 -150h-807v131
l182 156v608h-211v152h211v90q0 162 106 303t262 224q157 83 300 83q92 0 213 -28t201 -66z" />
    <glyph glyph-name="f_f_j.liga" unicode="ffj" horiz-adv-x="2525" 
d="M1110 1198q0 72 18 139q-61 78 -139 121q-77 43 -159 43t-134 -58t-53 -165v-229h336l131 -2v151zM1346 1655q187 153 408 153q118 0 275 -16t214 -45t88 -80t31 -113t-45 -115q-45 -54 -111 -87t-127 -33q-113 0 -201 119q-51 74 -101 98q-49 24 -131 25
q-158 0 -159 -224v-290h323l379 100h144l2 -942q0 -190 18 -244l-459 -500l-145 111q123 146 165 248t42 254v690l-170 133h-297v-666l319 -79l-73 -150h-625v895h-467v-666l320 -79l-74 -150h-807v131l182 156v608h-211v152h211v90q0 162 106 303t262 224q157 83 300 83
q92 0 213 -28t201 -66z" />
    <glyph glyph-name="f_f_k.liga" unicode="ffk" horiz-adv-x="3262" 
d="M3193 1104v-131l-410 -330l258 -418l207 -80l-74 -149h-446l-320 551l353 274l-264 133l73 150h623zM1108 1194q0 72 18 139q-61 76 -139 120t-160 44t-134 -58t-52 -165v-230h336l131 -2v152zM1743 1808q294 0 479 -20h111v-1581l184 -60l-74 -149h-489v1388
q-55 80 -139 126t-163 46t-122 -58t-43 -165v-291h338v-151h-338v-666l319 -80l-73 -149h-625v895h-467v-666l320 -80l-74 -149h-807v131l182 156v608h-211v151h211v91q0 162 106 303t262 224q157 83 300 83q92 0 215 -28t203 -66q90 73 195 115t200 42z" />
    <glyph glyph-name="f_f_kcommaaccent.liga" unicode="ff&#x137;" horiz-adv-x="3262" 
d="M3193 1104v-131l-410 -330l258 -418l207 -80l-74 -149h-446l-320 551l353 274l-264 133l73 150h623zM1108 1194q0 72 18 139q-61 76 -139 120t-160 44t-134 -58t-52 -165v-230h336l131 -2v152zM1743 1808q294 0 479 -20h111v-1581l184 -60l-74 -149h-489v1388
q-55 80 -139 126t-163 46t-122 -58t-43 -165v-291h338v-151h-338v-666l319 -80l-73 -149h-625v895h-467v-666l320 -80l-74 -149h-807v131l182 156v608h-211v151h211v91q0 162 106 303t262 224q157 83 300 83q92 0 215 -28t203 -66q90 73 195 115t200 42zM2863 -170v-131
l-262 -322h-195l62 205l-187 99l76 149h506z" />
    <glyph glyph-name="f_f_l.liga" unicode="ffl" horiz-adv-x="2539" 
d="M1108 1194q0 72 18 139q-61 76 -139 120t-160 44t-134 -58t-52 -165v-230h336l131 -2v152zM1743 1808q294 0 479 -20h111v-1579l184 -62l-74 -149h-489v1388q-55 80 -139 126t-163 46t-122 -58t-43 -165v-291h338v-151h-338v-666l319 -80l-73 -149h-625v895h-467v-666
l320 -80l-74 -149h-807v131l182 156v608h-211v151h211v91q0 162 106 303t262 224q157 83 300 83q92 0 215 -28t203 -66q90 73 195 115t200 42z" />
    <glyph glyph-name="f_f_lcaron.liga" unicode="ff&#x13e;" horiz-adv-x="2539" 
d="M1108 1194q0 72 18 139q-61 76 -139 120t-160 44t-134 -58t-52 -165v-230h336l131 -2v152zM1743 1808q294 0 479 -20h111v-1579l184 -62l-74 -149h-489v1388q-55 80 -139 126t-163 46t-122 -58t-43 -165v-291h338v-151h-338v-666l319 -80l-73 -149h-625v895h-467v-666
l320 -80l-74 -149h-807v131l182 156v608h-211v151h211v91q0 162 106 303t262 224q157 83 300 83q92 0 215 -28t203 -66q90 73 195 115t200 42zM2894 1423l-228 -252l-145 111q37 86 49 172l-114 80v131l294 123l144 2v-367z" />
    <glyph glyph-name="f_f_lcommaaccent.liga" unicode="ff&#x13c;" horiz-adv-x="2539" 
d="M1108 1194q0 72 18 139q-61 76 -139 120t-160 44t-134 -58t-52 -165v-230h336l131 -2v152zM1743 1808q294 0 479 -20h111v-1579l184 -62l-74 -149h-489v1388q-55 80 -139 126t-163 46t-122 -58t-43 -165v-291h338v-151h-338v-666l319 -80l-73 -149h-625v895h-467v-666
l320 -80l-74 -149h-807v131l182 156v608h-211v151h211v91q0 162 106 303t262 224q157 83 300 83q92 0 215 -28t203 -66q90 73 195 115t200 42zM2464 -170v-131l-262 -322h-195l61 205l-186 99l76 149h506z" />
    <glyph glyph-name="f_f_odieresis.liga" unicode="ff&#xf6;" horiz-adv-x="3186" 
d="M2513 238q153 -2 153 278q0 146 -64 252q-65 106 -181 106q-156 0 -156 -256q0 -166 65 -274t183 -106zM3076 584q0 -156 -106 -296t-266 -223t-314 -83q-152 0 -274 70t-192 194q-69 124 -69 280q1 156 107 297t267 225t313 83q152 0 275 -71t191 -195q68 -125 68 -281z
M1108 1200q0 68 22 135q-61 76 -141 120t-162 44t-134 -58t-52 -165v-229h336l131 2v151zM2566 1538q0 68 38 120q38 50 95 80t125 30t120 -55t52 -123t-38 -118t-95 -80q-57 -28 -124 -28t-120 53t-53 121zM1358 1647q204 161 438 161q116 0 261 -14t201 -38t87 -74
t31 -105t-37 -103t-94 -79t-115 -31q-98 0 -156 84q-43 68 -104 90t-171 23q-212 0 -212 -224v-290h338v-152h-338v-666l319 -79l-73 -150h-625v895h-467v-666l320 -79l-74 -150h-807v131l182 156v608h-211v152h211v90q0 162 106 303t262 224q157 83 300 83q96 0 222 -31
t206 -69z" />
    <glyph glyph-name="f_h.liga" unicode="fh" horiz-adv-x="2385" 
d="M897 1808q294 0 479 -20h111v-848l215 172q55 16 129 16q162 0 257 -85t95 -230v-604l187 -59l-74 -150h-490v643q0 92 -27 131q-28 39 -110 39t-182 -55v-549l184 -59l-74 -150h-489v1389q-57 79 -141 125t-163 46t-121 -58t-42 -165v-290h336v-152h-336v-666l320 -79
l-74 -150h-807v131l182 156v608h-211v152h211v151q0 162 99 303t249 224t287 83z" />
    <glyph glyph-name="f_idieresis.liga" unicode="f&#xef;" horiz-adv-x="1802" 
d="M1650 1366q-67 0 -120 54t-53 122q0 130 133 198q56 30 124 30t120 -55t52 -123t-37 -118q-38 -50 -95 -79t-124 -29zM1036 2v131l183 156v473l-170 133h-408v-666l320 -79l-74 -150h-807v131l182 156v608h-211v152h211v151q0 162 97 303t243 224t300 83t270 -51
t116 -178q0 -57 -38 -106t-96 -79t-112 -30q-105 0 -157 96q-7 10 -25 43t-32 45t-42 13q-68 1 -106 -57t-39 -167v-290h434l377 100h145v-936l185 -59l-76 -150h-670z" />
    <glyph glyph-name="f_igrave.liga" unicode="f&#xec;" horiz-adv-x="1693" 
d="M1108 0v762l-170 133h-297v-666l320 -79l-74 -150h-807v131l182 156v608h-211v152h211v151q0 162 97 303t243 224t279 83l358 19l219 -402l-129 -59q-238 121 -344 158q-107 37 -187 37q-158 0 -157 -224v-290h324l376 100h146v-938l184 -59l-74 -150h-489z" />
    <glyph glyph-name="f_iogonek.liga" unicode="f&#x12f;" horiz-adv-x="1693" 
d="M1139 -301q0 57 16 86l266 215h-313v762l-170 133h-297v-666l320 -79l-74 -150h-807v131l182 156v608h-211v152h211v151q0 162 97 303t243 224t284 83t295 -16t215 -45t89 -80t31 -113t-44 -115q-44 -54 -112 -87t-129 -33q-109 0 -199 119q-53 74 -102 98
q-48 24 -130 25q-158 0 -159 -224v-290h324l376 100h146v-938l184 -59l-74 -150q-88 -135 -88 -201q0 -35 24 -51t77 -18v-146l-158 -125q-152 25 -232 86t-81 154z" />
    <glyph glyph-name="f_j.liga" unicode="fj" horiz-adv-x="1679" 
d="M1487 203q0 -190 18 -244l-461 -500l-143 111q123 146 165 248t42 254v690l-170 133h-297v-666l320 -79l-74 -150h-807v131l182 156v608h-211v152h211v151q0 162 97 303t243 224t284 83t295 -16t215 -45t89 -80t31 -113t-44 -115q-44 -54 -112 -87t-129 -33
q-109 0 -199 119q-53 74 -102 98q-48 24 -130 25q-158 0 -159 -224v-290h324l376 100h146v-944z" />
    <glyph glyph-name="f_k.liga" unicode="fk" horiz-adv-x="2414" 
d="M2345 1110v-131l-408 -330l258 -420l205 -77l-73 -150h-447l-317 551l350 274l-264 134l73 149h623zM897 1808q294 0 479 -20h111v-1579l184 -59l-74 -150h-489v1389q-57 79 -141 125t-163 46t-121 -58t-42 -165v-290h336v-152h-336v-666l320 -79l-74 -150h-807v131
l182 156v608h-211v152h211v151q0 162 99 303t249 224t287 83z" />
    <glyph glyph-name="f_kcommaaccent.liga" unicode="f&#x137;" horiz-adv-x="2414" 
d="M2345 1110v-131l-408 -330l258 -420l205 -77l-73 -150h-447l-317 551l350 274l-264 134l73 149h623zM897 1808q294 0 479 -20h111v-1579l184 -59l-74 -150h-489v1389q-57 79 -141 125t-163 46t-121 -58t-42 -165v-290h336v-152h-336v-666l320 -79l-74 -150h-807v131
l182 156v608h-211v152h211v151q0 162 99 303t249 224t287 83zM2040 -170v-131l-262 -322h-195l62 205l-187 99l76 149h506z" />
    <glyph glyph-name="f_lcaron.liga" unicode="f&#x13e;" horiz-adv-x="1693" 
d="M897 1808q294 0 479 -20h111v-1579l184 -59l-74 -150h-489v1389q-57 79 -141 125t-163 46t-121 -58t-42 -165v-290h336v-152h-336v-666l320 -79l-74 -150h-807v131l182 156v608h-211v152h211v151q0 162 99 303t249 224t287 83zM2046 1423l-227 -252l-146 111
q37 86 49 172l-114 80v131l295 123l143 2v-367z" />
    <glyph glyph-name="f_lcommaaccent.liga" unicode="f&#x13c;" horiz-adv-x="1693" 
d="M897 1808q294 0 479 -20h111v-1579l184 -59l-74 -150h-489v1389q-57 79 -141 125t-163 46t-121 -58t-42 -165v-290h336v-152h-336v-666l320 -79l-74 -150h-807v131l182 156v608h-211v152h211v151q0 162 99 303t249 224t287 83zM1614 -170v-131l-262 -322h-195l62 205
l-187 99l76 149h506z" />
    <glyph glyph-name="f_odieresis.liga" unicode="f&#xf6;" horiz-adv-x="2340" 
d="M1665 236q156 -2 156 278q0 146 -65 252t-183 106q-154 0 -154 -256q0 -166 65 -274t181 -106zM1694 1129q152 0 276 -71q123 -71 192 -195q68 -123 68 -279t-106 -297t-267 -225t-313 -82q-152 0 -274 70t-192 194q-68 122 -68 280t106 298t266 224t312 83zM2148 1590
q0 -68 -38 -118t-95 -80q-57 -28 -123 -28t-119 53t-53 121t38 120q38 50 94 80t124 30t120 -55t52 -123zM977 1047v-152h-336v-666l320 -79l-74 -150h-807v131l182 156v608h-211v152h211v151q0 162 106 303t263 224q158 83 296 83t283 -14q144 -14 200 -38t88 -74t32 -104
t-37 -103t-94 -80t-117 -31q-100 0 -156 84q-41 68 -102 90q-60 22 -170 23q-212 0 -213 -224v-290h336z" />
    <glyph glyph-name="longs_t.liga" unicode="&#x17f;t" horiz-adv-x="1888" 
d="M1622 238q82 0 182 49l62 -127l-207 -164q-78 -16 -182 -16q-205 0 -299.5 89t-94.5 275v551h-221v119l240 256q-57 109 -129 169t-150 60t-130 -58.5t-52 -164.5v-1047l320 -79l-74 -150h-807v131l182 156v608h-211v152h211v90q0 162 105.5 303t262 224t300.5 83
q82 0 188.5 -37t200.5 -94t143 -117v-452h369v-152h-369v-526q0 -131 160 -131z" />
    <glyph glyph-name="longs_b.liga" unicode="&#x17f;b" horiz-adv-x="2418" 
d="M1909 494q0 152 -48 248t-141 98q-125 0 -233 -62v-332q1 -90 67 -150t189 -60q166 0 166 258zM897 1808q294 0 479 -20h111v-848l215 172q66 16 149 16q132 1 236 -70q105 -71 163 -195q58 -123 58 -279t-106 -297t-268 -225t-316 -82q-154 0 -270 116l-97 -96h-143
v1389q-57 79 -141 125t-163 46t-121 -58t-42 -165v-1108l320 -79l-74 -150h-807v131l182 156v608h-211v152h211v151q0 162 99 303t249 224t287 83z" />
    <glyph glyph-name="longs_h.liga" unicode="&#x17f;h" horiz-adv-x="2385" 
d="M897 1808q294 0 479 -20h111v-848l215 172q55 16 129 16q162 0 257 -85t95 -230v-604l187 -59l-74 -150h-490v643q0 92 -27 131q-28 39 -110 39t-182 -55v-549l184 -59l-74 -150h-489v1389q-57 79 -141 125t-163 46t-121 -58t-42 -165v-1108l320 -79l-74 -150h-807v131
l182 156v608h-211v152h211v151q0 162 99 303t249 224t287 83z" />
    <glyph glyph-name="longs_i.liga" unicode="&#x17f;i" horiz-adv-x="1693" 
d="M1108 -2v723l-182 121v129l415 174h146v-938l184 -60l-74 -149h-489zM80 0v131l182 156v608h-211v152h211v151q0 162 97 303t243 224t284 83t295 -16t215 -45t89 -80t31 -113t-44 -115q-44 -54 -112 -87t-129 -33q-109 0 -199 119q-53 74 -102 98q-48 24 -130 25
q-158 0 -159 -224v-1108l320 -79l-74 -150h-807z" />
    <glyph glyph-name="longs_k.liga" unicode="&#x17f;k" horiz-adv-x="2414" 
d="M2345 1108v-131l-408 -330l256 -418l207 -79l-73 -150h-447l-317 551l350 274l-264 133l73 150h623zM897 1808q294 0 479 -20h111v-1579l184 -59l-74 -150h-489v1389q-57 79 -141 125t-163 46t-121 -58t-42 -165v-1108l320 -79l-74 -150h-807v131l182 156v608h-211v152
h211v151q0 162 99 303t249 224t287 83z" />
    <glyph glyph-name="longs_l.liga" unicode="&#x17f;l" horiz-adv-x="1693" 
d="M897 1808q294 0 479 -20h111v-1579l184 -59l-74 -150h-489v1389q-57 79 -141 125t-163 46t-121 -58t-42 -165v-1108l320 -79l-74 -150h-807v131l182 156v608h-211v152h211v151q0 162 99 303t249 224t287 83z" />
    <glyph glyph-name="longs_longs.liga" unicode="&#x17f;&#x17f;" horiz-adv-x="1875" 
d="M2046 1358h-143q-49 94 -122 148t-144 54t-109 -56q-38 -58 -39 -167v-1108l319 -79l-73 -150h-625v895h-211v152h211v151q0 72 18 139q-61 78 -139 121q-77 43 -159 43t-134 -58t-53 -165v-1047l320 -79l-74 -150h-807v131l182 156v608h-211v152h211v90q0 162 106 303
t262 224q157 83 300 83q92 0 213 -28t201 -66q88 73 189 113t194 40h2q76 1 174 -21t141 -46v-383z" />
    <glyph glyph-name="longs_longs_i.liga" unicode="&#x17f;&#x17f;i" horiz-adv-x="2539" 
d="M1956 -2v723l-182 121v129l417 174h144v-938l184 -60l-74 -149h-489zM1346 1655q187 153 408 153q118 0 275 -16t214 -45t88 -80t31 -113t-45 -115q-45 -54 -111 -87t-127 -33q-113 0 -201 119q-51 74 -101 98q-49 24 -131 25q-158 0 -159 -224l2 -1108l319 -79l-73 -150
h-625v895h-211v152h211v151q0 72 18 139q-61 78 -139 121q-77 43 -159 43t-134 -58t-53 -165v-1047l320 -79l-74 -150h-807v131l182 156v608h-211v152h211v90q0 162 106 303t262 224q157 83 300 83q92 0 213 -28t201 -66z" />
    <glyph glyph-name="longs_longs_l.liga" unicode="&#x17f;&#x17f;l" horiz-adv-x="2539" 
d="M1743 1808q294 0 479 -20h111v-1579l184 -64l-74 -149h-489v1388q-55 80 -139 126t-163 46t-122 -58t-43 -165v-1108l319 -80l-73 -149h-625v895h-211v151h211v152q0 72 18 139q-61 76 -139 120t-160 44t-134 -58t-52 -165v-1047l320 -80l-74 -149h-807v131l182 156v608
h-211v151h211v91q0 162 106 303t262 224q157 83 300 83q92 0 215 -28t203 -66q90 73 195 115t200 42z" />
    <glyph glyph-name=".notdef" horiz-adv-x="2859" 
d="M1452 410q-51 0 -94 -25t-72 -67t-29 -100t40 -102q39 -44 91 -44q105 0 166 91q29 41 29 99t-40 103t-91 45zM1424 1395q-90 0 -171 -17l-202 -157l61 -78q134 78 206 78t132 -30t97 -77q38 -47 38 -85q0 -39 -29 -67q-28 -28 -100 -80t-115 -98t-43 -110t62 -139
l215 106v64q-48 56 -46 90q3 33 32 61t101 80q72 53 113 98q42 46 41 104q0 58 -64 118t-151 100q-87 39 -177 39zM1430 -455l-1307 1237l1307 1233l1306 -1233z" />
    <glyph glyph-name=".null" horiz-adv-x="0" 
 />
    <glyph glyph-name="nonmarkingreturn" horiz-adv-x="681" 
 />
    <glyph glyph-name="space" unicode=" " horiz-adv-x="571" 
 />
    <glyph glyph-name="exclam" unicode="!" horiz-adv-x="698" 
d="M610 230q0 -76 -44 -130t-112 -88q-68 -32 -144 -32t-139 60q-62 60 -62 134t44 130q45 56 111 89t145 33t140 -60t61 -136zM231 588l-151 743v129l375 150h143l-127 -1022h-240z" />
    <glyph glyph-name="quotedbl" unicode="&#x22;" horiz-adv-x="1452" 
d="M403 754l-280 561v129l393 166h146l-74 -856h-185zM1071 754l-280 561v129l393 166h145l-74 -856h-184z" />
    <glyph glyph-name="numbersign" unicode="#" horiz-adv-x="1597" 
d="M729 682l-151 -262h292l152 262h-293zM1004 420h309l-92 -158h-310l-161 -280l-99 59l127 221h-293l-161 -280l-99 59l127 221h-311l92 158h311l152 262h-311l92 158h309l166 286l98 -59l-131 -227h293l166 286l98 -59l-131 -227h311l-92 -158h-309z" />
    <glyph glyph-name="dollar" unicode="$" horiz-adv-x="1433" 
d="M815 -410h-194v371q-145 10 -303 37t-230 55v465h227q84 -166 198 -258t214 -92t151 47q50 47 50 111q0 110 -166 222q-70 46 -210 126t-230 142q-92 62 -158 148t-66 182q0 97 81 205q81 107 204 189t238 105v374h194v-374q135 -10 273 -37t208 -54v-462h-229
q-78 166 -178 258t-209 92q-72 0 -113 -46t-41 -115t49 -127t122 -106t211 -125t230 -139t156 -144q64 -83 64 -183v-2q0 -93 -84 -198t-212 -186t-247 -106v-375z" />
    <glyph glyph-name="percent" unicode="%" horiz-adv-x="2310" 
d="M414 1421q0 -123 68 -203t198 -81q195 0 194 198q0 123 -69 205q-70 82 -199 82q-192 0 -192 -201zM1202 1400q0 -118 -97 -223t-241 -167t-284 -62q-139 0 -253 53t-177 145q-64 92 -64 211q0 118 96 223q96 106 240 168t284 62t255 -53t178 -146t63 -211zM234 -198
l-102 102l1950 1878l104 -103zM1438 219q0 -123 68 -204t198 -81q195 0 194 199q0 123 -69 205q-70 82 -199 82q-192 0 -192 -201zM2226 198q0 -118 -97 -224t-241 -166q-144 -62 -284 -62q-139 0 -253 53t-177 145q-64 92 -64 211q0 118 96 223q96 106 240 168t284 62
t255 -53t178 -146t63 -211z" />
    <glyph glyph-name="ampersand" unicode="&#x26;" horiz-adv-x="2650" 
d="M846 798q0 64 -35 110t-92 46q-106 0 -158 -72q-51 -73 -51 -236q0 -164 91 -278t241 -114v-4q117 0 259 58t271 161l82 66q86 156 289 268q-109 53 -171 77q-114 44 -242 5q-58 -18 -111 -60q-25 -127 -156 -220t-367 -187l-75 149q133 51 179 109t46 122zM2316 1204
q0 131 -362 240v131l373 94q73 -73 145 -193t72 -224t-92 -230q-92 -127 -217 -212q-124 -85 -191 -85t-121 12q-67 -57 -93 -115t-26 -152t56 -155t155 -61q149 0 432 117l62 -127l-287 -230q-137 -34 -298 -34q-303 1 -443 168q-66 79 -76 176l-387 -310
q-110 -34 -280 -34t-318 76t-230 207q-82 132 -82 301t113 320q113 150 283 238t328 88t254 -68q95 -68 124 -169q220 239 402 237q70 0 129 -17t139 -51t133 -50t127 -16t125 34q51 35 51 94z" />
    <glyph glyph-name="quotesingle" unicode="'" horiz-adv-x="784" 
d="M403 754l-280 561v129l393 166h146l-74 -856h-185z" />
    <glyph glyph-name="parenleft" unicode="(" horiz-adv-x="1042" 
d="M520 820q0 -352 120 -644q120 -293 378 -461l-107 -145q-242 84 -422 249t-279 397t-99 511q0 727 809 1225l100 -146q-248 -166 -374 -400t-126 -586z" />
    <glyph glyph-name="parenright" unicode=")" horiz-adv-x="1042" 
d="M522 701q0 351 -120 645t-377 460l106 146q242 -84 422 -249q179 -165 279 -397t100 -511q0 -727 -809 -1225l-100 145q247 167 373 401t126 585z" />
    <glyph glyph-name="asterisk" unicode="*" horiz-adv-x="1429" 
d="M1122 784l-41 -252l-266 -36l-65 112l122 152l-155 266l35 21zM709 1030l-41 -452l-240 -91l-164 211l64 113l190 -31l156 269zM672 1098v-41l-412 -189l-199 162l103 248h129l69 -180h310zM758 1053v41l411 188l199 -160l-102 -250h-129l-70 181h-309zM713 1124l-35 -20
l-371 262l41 252l266 37l66 -113l-121 -149zM721 1122l41 451l239 92l164 -213l-63 -113l-193 31l-153 -268z" />
    <glyph glyph-name="plus" unicode="+" horiz-adv-x="1126" 
d="M639 567v-405h-152v405h-405v150h405v407h150v-407h407v-150h-405z" />
    <glyph glyph-name="comma" unicode="," horiz-adv-x="757" 
d="M211 -541l-143 111q90 106 135 185t61 165l-182 117v131l450 180l140 -389z" />
    <glyph glyph-name="hyphen" unicode="-" horiz-adv-x="1050" 
d="M936 758v-127l-82 -105h-739v127l82 105h739z" />
    <glyph glyph-name="period" unicode="." horiz-adv-x="671" 
d="M84 174q0 74 44 130t112 89t146 33t138 -60q62 -60 62 -136t-44 -130t-111 -88q-67 -32 -143 -32t-141 60q-63 60 -63 134z" />
    <glyph glyph-name="slash" unicode="/" horiz-adv-x="727" 
d="M176 -295l-168 37l541 2195l170 -34z" />
    <glyph glyph-name="zero" unicode="0" horiz-adv-x="1613" 
d="M520 657q0 -190 86 -314t248 -124q242 0 242 316q0 190 -86 313t-248 123q-242 -1 -242 -314zM1505 626q0 -169 -121 -320q-121 -150 -302 -238t-354 -88t-315 76t-223 207q-80 132 -80 301t121 320q121 150 303 238t355 88q174 0 316 -75q142 -76 221 -208t79 -301z" />
    <glyph glyph-name="one" unicode="1" horiz-adv-x="1044" 
d="M135 0v131l199 156v694l-236 59l74 150h739v-131l-198 -156v-694l235 -59l-74 -150h-739z" />
    <glyph glyph-name="two" unicode="2" horiz-adv-x="1374" 
d="M88 -2v131q475 365 576 504q53 73 53 141t-52 114t-135 46q-141 0 -395 -115l-61 127l282 228q94 34 246 34t278 -40t194 -112t69 -160q0 -181 -455 -515h391l78 182l125 -39v-563l-178 37h-1016z" />
    <glyph glyph-name="three" unicode="3" horiz-adv-x="1146" 
d="M1071 172q0 -219 -233 -389t-746 -324l-47 164q248 88 376 154q128 67 180 135t52 161q1 93 -65 161t-209 131v116q102 76 145 142q43 65 43 147t-45 133q-46 51 -124 51t-304 -114l-61 127l284 227q61 16 119 16q150 0 276 -43t200 -117t73 -163q-10 -97 -90 -185
t-236 -184q216 -71 314 -152t98 -194z" />
    <glyph glyph-name="four" unicode="4" horiz-adv-x="1497" 
d="M819 303v528l-440 -528h440zM1198 92v-409l-379 -121v530h-758v129l758 907l379 121v-946h313l-71 -211h-242z" />
    <glyph glyph-name="five" unicode="5" horiz-adv-x="1282" 
d="M1135 139q1 -174 -145 -302t-359 -212t-508 -166l-47 164q270 83 407 147t187 126t49 140q0 79 -45 133q-88 105 -549 249l154 772h602l77 182l127 -37v-563l-178 37h-549l-16 -86q315 -98 486 -187q171 -88 239 -182t68 -215z" />
    <glyph glyph-name="six" unicode="6" horiz-adv-x="1583" 
d="M561 705q0 -129 36 -240q37 -111 107 -179t168 -67q193 0 193 268q0 185 -93 307t-237 185l99 158q170 0 317 -72t235 -195q88 -124 88 -274t-106 -294t-275 -233t-342 -89t-309 82q-135 83 -213 233t-77 338q0 311 233 602t823 573l84 -149q-397 -250 -564 -475
t-167 -479z" />
    <glyph glyph-name="seven" unicode="7" horiz-adv-x="1347" 
d="M1309 1190v-146l-873 -1585l-153 68l708 1284h-659l-78 -180l-127 37v559l178 -37h1004z" />
    <glyph glyph-name="eight" unicode="8" horiz-adv-x="1589" 
d="M1073 423q0 154 -192 280q-78 52 -232 143q-77 -88 -103 -148t-26 -144q0 -85 46 -171t122 -137t164 -51h2q99 -1 159 69t60 159zM625 1418q1 -87 71 -165t201 -159q55 90 72 139q16 49 16 137t-51 160q-51 74 -132 74t-129 -50q-48 -49 -48 -136zM842 -18
q-213 0 -379 64t-259 176t-93 247q0 101 96 203t315 248q-145 94 -225 190t-80 206t99 224q100 113 242 191q142 77 280 77t262 -50q122 -50 190 -135t68 -185q-6 -90 -74 -184t-247 -244q143 -85 231 -148t149 -149t61 -194q0 -109 -106 -235t-257 -214t-273 -88z" />
    <glyph glyph-name="nine" unicode="9" horiz-adv-x="1583" 
d="M1434 563q0 -191 -92 -369t-320 -364q-229 -186 -631 -371l-82 150q264 160 421 303q294 268 294 563t-142 429q-71 67 -171 67q-190 0 -191 -269q0 -186 91 -307t233 -184l-96 -158q-168 0 -316 72q-148 73 -234 195q-87 122 -87 272t105 295q106 145 276 234t342 89
t308 -82t214 -228t78 -337z" />
    <glyph glyph-name="colon" unicode=":" horiz-adv-x="671" 
d="M288 682q-76 0 -141 60q-63 60 -63 135t44 131t112 88q68 33 129 32q94 0 155 -60q62 -60 62 -136t-44 -130t-111 -87t-143 -33zM84 174q0 74 44 130t112 89t146 33t138 -60q62 -60 62 -136t-44 -130t-111 -88q-67 -32 -143 -32t-141 60q-63 60 -63 134z" />
    <glyph glyph-name="semicolon" unicode=";" horiz-adv-x="757" 
d="M211 -541l-143 111q90 106 135 185t61 165l-182 117v131l450 180l140 -389zM288 682q-76 0 -141 60q-63 60 -63 135t44 131t112 88q68 33 129 32q94 0 155 -60q62 -60 62 -136t-44 -130t-111 -87t-143 -33z" />
    <glyph glyph-name="less" unicode="&#x3c;" horiz-adv-x="1003" 
d="M694 168l-633 475l762 512l82 -102l-495 -332l532 -395z" />
    <glyph glyph-name="equal" unicode="=" horiz-adv-x="1126" 
d="M82 901h962v-149h-962v149zM82 532h962v-149h-962v149z" />
    <glyph glyph-name="greater" unicode="&#x3e;" horiz-adv-x="1003" 
d="M180 131l-84 102l496 334l-531 394l248 155l633 -473z" />
    <glyph glyph-name="question" unicode="?" horiz-adv-x="1087" 
d="M737 230q0 -76 -44 -130q-45 -54 -111 -88q-66 -32 -142 -32t-141 60q-63 60 -63 134t44 130t112 89t145 33q78 0 139 -60t61 -136zM977 1326q0 -66 -53 -120q-52 -54 -140 -114q-88 -62 -120 -92t-33 -58q0 -49 119 -90v-131l-275 -174q-115 55 -181 115t-67 127
q0 69 49 123q48 54 132 118t118 99q34 34 33 66q0 32 -36 71q-36 38 -89 66t-102 28q-100 0 -266 -66l-62 127l266 213q88 16 204 16t232 -52t194 -129t77 -143z" />
    <glyph glyph-name="at" unicode="@" horiz-adv-x="2961" 
d="M1405 874q-166 0 -166 -266q0 -134 55 -226t162 -92t203 46v358q-12 78 -78 129t-176 51zM2443 651q0 219 -102 401q-101 182 -315 290q-214 110 -512 110t-521 -109t-348 -300t-125 -436t100 -459t305 -359q206 -145 511 -182l-74 -148q-412 -2 -692 128t-420 368
q-139 239 -139 565t235 596q236 270 589 423t681 153v2q366 0 647 -121t435 -336t155 -487q0 -193 -129 -357q-128 -164 -320 -266t-366 -125h-379v148l-191 -152q-66 -16 -179 -16t-221 70t-168 192q-60 120 -60 276t96 298t240 228t280 84q184 0 326 -98l112 103h144v-940
q405 102 405 456z" />
    <glyph glyph-name="A" unicode="A" horiz-adv-x="1902" 
d="M852 1300l-238 -583h476zM1040 0v131l234 131l-115 281h-616l-99 -242l301 -151l-73 -150h-674v131l231 172l508 1241l398 105l573 -1399l211 -100l-74 -150h-805z" />
    <glyph glyph-name="B" unicode="B" horiz-adv-x="1632" 
d="M684 723v-487q111 -39 242 -39l-2 -2q110 0 175 57t65 174t-73 203t-214 94h-193zM823 1432q-74 0 -137 -25v-520h209q188 0 188 227q1 144 -65 231t-195 87zM1591 472q-1 -130 -115 -244t-284 -182t-298 -66q-128 0 -226 10q-164 10 -254 10h-326v131l193 152v1122
l-230 57l74 148h287q186 0 346 10t225 10q158 0 277 -53q118 -53 184 -144t66 -197q-1 -206 -228 -362l-2 -2q145 -57 228 -163q83 -107 83 -237z" />
    <glyph glyph-name="C" unicode="C" horiz-adv-x="1724" 
d="M1583 1108h-227q-154 287 -418 287q-106 0 -194.5 -69t-139.5 -189.5t-51 -280.5t51 -300t156.5 -223t278.5 -83t524 188l88 -141l-377 -293q-157 -45 -378.5 -45t-403 104.5t-281.5 288t-100 420t149.5 440t372.5 321.5t424 118q123 0 286.5 -31t239.5 -66v-446z" />
    <glyph glyph-name="D" unicode="D" horiz-adv-x="1904" 
d="M1354 756.5q0 174.5 -56.5 331.5t-172 250.5t-287.5 93.5q-80 0 -150 -41v-1176q94 -35 219 -35l2 -2q123 0 225.5 74t161 202t58.5 302.5zM1794 837q0 -230 -149.5 -428t-371.5 -313.5t-423 -115.5q-90 0 -182 10q-154 10 -236 10h-342v131l193 152v1110l-230 69l74 148
h303q188 0 346 10t219 10q236 0 418 -101.5t281.5 -281.5t99.5 -410z" />
    <glyph glyph-name="E" unicode="E" horiz-adv-x="1683" 
d="M90 0v131l193 152v1114l-230 65l74 148h1255l160 37v-537l-129 -55l-254 379h-471v-525h221l150 221h131v-589l-150 -74l-135 268h-217v-559h453l293 420l129 -53v-580l-160 37h-1313z" />
    <glyph glyph-name="F" unicode="F" horiz-adv-x="1601" 
d="M688 1434v-525h221l150 221h131v-610l-150 -76l-139 291h-213v-512l367 -73l-74 -150h-891v131l193 152v1114l-230 65l74 148h1255l160 37v-537l-129 -55l-262 379h-463z" />
    <glyph glyph-name="G" unicode="G" horiz-adv-x="1947" 
d="M113 769q0 237 158.5 440.5t395 321.5t449.5 118q133 0 309.5 -31t257.5 -66v-514h-227q-170 354 -459 355q-123 0 -224 -69t-159.5 -189.5t-58.5 -284.5t57.5 -311.5t176 -235.5t292.5 -88h73q63 0 134 8v381l-332 80l74 147h858v-129l-192 -170v-165l55 -134l-377 -231
q-161 -45 -410 -45t-442.5 104.5t-301 287.5t-107.5 420z" />
    <glyph glyph-name="H" unicode="H" horiz-adv-x="2037" 
d="M1155 0v131l193 166v418h-660v-502l232 -63l-74 -150h-756v131l193 166v1102l-230 63l74 148h756v-129l-195 -168v-424h660v510l-230 63l74 148h756v-129l-195 -168v-1100l232 -63l-74 -150h-756z" />
    <glyph glyph-name="I" unicode="I" horiz-adv-x="972" 
d="M90 0v131l193 166v1102l-230 63l74 148h756v-129l-195 -168v-1100l232 -63l-74 -150h-756z" />
    <glyph glyph-name="J" unicode="J" horiz-adv-x="901" 
d="M655 203q0 -185 19 -244l-486 -500l-145 111q123 145 165 247.5t42 254.5v1327l-273 63l76 148h797v-129l-195 -152v-1126z" />
    <glyph glyph-name="K" unicode="K" horiz-adv-x="1878" 
d="M1804 1610v-129l-647 -574l475 -657l219 -100l-73 -150h-455l-567 807l579 512l-239 143l73 148h635zM90 0v131l193 166v1102l-230 63l74 148h756v-129l-195 -168v-1100l232 -63l-74 -150h-756z" />
    <glyph glyph-name="L" unicode="L" horiz-adv-x="1638" 
d="M90 -2v131l193 152v1124l-230 57l74 148h756v-129l-195 -152v-1153h440l322 461l129 -53v-623l-160 37h-1329z" />
    <glyph glyph-name="M" unicode="M" horiz-adv-x="2369" 
d="M1487 -2v131l192 152v931l-495 -1214h-197l-510 1233v-995l234 -89l-76 -149h-545v131l193 152v1089l-230 92l74 148h616l455 -1094l444 1094h639v-129l-194 -152v-1122l231 -60l-75 -149h-756z" />
    <glyph glyph-name="N" unicode="N" horiz-adv-x="1857" 
d="M1630 -4h-196l-957 1057v-797l316 -109l-74 -149h-629v131l193 166v1036l-230 131l74 148h375l932 -1026v770l-312 108l74 148h629v-133l-195 -168v-1313z" />
    <glyph glyph-name="O" unicode="O" horiz-adv-x="1986" 
d="M553 851q0 -165 53 -312.5t163 -235.5t269 -88q109 0 199 68.5t143.5 189.5t53.5 285.5t-53.5 313.5t-164 236t-270.5 87q-108 0 -198.5 -69t-142.5 -189.5t-52 -285.5zM1876 836.5q0 -236.5 -152.5 -439t-378 -320.5t-445.5 -118t-403.5 103.5t-284.5 288t-101 421
t151.5 440t376.5 321.5t446.5 118t405.5 -104.5t284.5 -289t100.5 -421z" />
    <glyph glyph-name="P" unicode="P" horiz-adv-x="1628" 
d="M1147 1098q0 143 -74 239t-217 97q-90 0 -168 -56v-1155l367 -73l-74 -150h-891v131l193 152v1110l-230 69l74 148h371q178 0 326 10t208 10q164 0 291 -62t197 -172t70 -251t-116 -272t-291 -205t-341 -66l-86 53l73 148h99q103 0 161 76t58 219z" />
    <glyph glyph-name="Q" unicode="Q" horiz-adv-x="1986" 
d="M1038 215q109 0 199 68.5t143.5 189.5t53.5 285.5t-53.5 313.5t-164 236t-270.5 87q-109 0 -199 -69t-142 -189.5t-52 -285.5t53 -312.5t163 -235.5t269 -88zM1642 -541q-68 0 -213 150.5t-331 372.5q-96 -23 -178 -23q-240 0 -423.5 103.5t-284.5 288t-101 421
t151.5 440t376.5 321.5t446.5 118t405.5 -104.5t284.5 -289t100.5 -419t-148.5 -435t-373.5 -321.5q433 -313 495 -313h277l74 -158q-406 -152 -558 -152z" />
    <glyph glyph-name="R" unicode="R" horiz-adv-x="1759" 
d="M918 868q100 0 158.5 68t58.5 196.5t-73 216t-212 87.5q-88 0 -162 -52v-1169l232 -63l-74 -150h-756v131l193 166v1104l-230 61l74 148h371q174 0 321.5 10t206.5 10q162 0 288 -56t194.5 -153.5t68.5 -228.5t-123 -253t-305 -187l172 -47l250 -463l205 -92l-76 -150
h-463l-377 703l-88 53l55 110h91z" />
    <glyph glyph-name="S" unicode="S" horiz-adv-x="1433" 
d="M98 1151q0 102 96.5 220t236.5 199t269 81t318.5 -31t277.5 -66v-462h-229q-78 166 -178.5 258t-208.5 92q-72 0 -113 -46t-41 -115t49.5 -127t122 -106.5t211 -125t229.5 -138t155.5 -144.5t64.5 -184t-103.5 -219t-251 -199t-284 -81t-339 30.5t-292.5 65.5v465h227
q84 -166 198 -258t214 -92t150.5 47t50.5 111.5t-48.5 120t-118 101.5t-209 126t-231.5 142.5t-157.5 147.5t-65.5 187z" />
    <glyph glyph-name="T" unicode="T" horiz-adv-x="1736" 
d="M1069 1434v-1227l231 -57l-73 -150h-756v131l193 152v1151h-168l-291 -420l-127 55v578l158 -37h1265l160 37v-578l-129 -55l-291 420h-172z" />
    <glyph glyph-name="U" unicode="U" horiz-adv-x="1839" 
d="M1616 635q0 -215 -107.5 -368.5t-268.5 -230.5t-337 -77t-335.5 81t-249 223.5t-89.5 320.5v821l-231 57l76 148h755v-129l-194 -152v-680q0 -207 106.5 -320.5t325.5 -113.5q82 0 165 49t136 143.5t53 221.5v743l-247 90l75 148h561v-129l-194 -152v-694z" />
    <glyph glyph-name="V" unicode="V" horiz-adv-x="1904" 
d="M864 1610v-129l-235 -131l424 -1039l405 998l-301 153l76 148h672v-129l-230 -172l-510 -1243l-395 -105l-575 1401l-211 100l73 148h807z" />
    <glyph glyph-name="W" unicode="W" horiz-adv-x="2676" 
d="M754 1610v-129l-144 -105l402 -1048l221 716l-115 322l-186 96l74 148h751v-129l-211 -123l357 -1032l340 977l-312 159l74 148h672l2 -129l-217 -162l-445 -1253l-395 -105l-279 780l-206 -675l-398 -105l-546 1403l-207 98l73 148h695z" />
    <glyph glyph-name="X" unicode="X" horiz-adv-x="1820" 
d="M999 0v131l160 100l-317 371l-322 -326l236 -126l-74 -150h-672v131l254 174l445 449l-537 616l-158 92l74 148h739v-129l-170 -92l322 -375l289 317l-240 131l74 148h674v-129l-236 -162l-426 -459l557 -641l141 -69l-75 -150h-738z" />
    <glyph glyph-name="Y" unicode="Y" horiz-adv-x="1761" 
d="M496 2v131l192 152v243l-557 867l-147 69l41 148h723v-129l-146 -113l354 -547l351 492l-293 147l76 148h671v-129l-219 -168l-465 -664v-438l232 -59l-74 -150h-739z" />
    <glyph glyph-name="Z" unicode="Z" horiz-adv-x="1617" 
d="M76 0v176l977 1258h-537l-250 -400l-127 56v557l158 -37h1237v-176l-979 -1258h553l276 440l129 -53v-600l-159 37h-1278z" />
    <glyph glyph-name="bracketleft" unicode="[" horiz-adv-x="890" 
d="M559 -272h297v-158h-676v2384h676v-158h-297v-2068z" />
    <glyph glyph-name="backslash" unicode="\" horiz-adv-x="727" 
d="M551 -295l-543 2198l170 34l541 -2195z" />
    <glyph glyph-name="bracketright" unicode="]" horiz-adv-x="890" 
d="M332 1796h-297v158h676v-2384h-676v158h297v2068z" />
    <glyph glyph-name="asciicircum" unicode="^" horiz-adv-x="1343" 
d="M1257 600h-370l-326 590l-325 -590h-150v141l365 660l397 104l409 -760v-145z" />
    <glyph glyph-name="underscore" unicode="_" horiz-adv-x="1087" 
d="M82 -158h924v-149h-924v149z" />
    <glyph glyph-name="grave" unicode="`" horiz-adv-x="778" 
d="M594 1366l-555 307l57 115l408 39l219 -402z" />
    <glyph glyph-name="a" unicode="a" horiz-adv-x="1388" 
d="M807 469h-322q-23 -37 -22.5 -82t34 -72.5t93.5 -27.5q96 0 217 78v104zM807 627q1 211 -235 211q-118 0 -373 -99l-62 127l283 228q109 35 256 34q242 0 376 -108.5t134 -314.5v-484l184 -71l-74 -150h-489v178l-232 -182q-41 -16 -102 -16q-203 0 -293 99t-90 238
q0 166 189 301h528v9z" />
    <glyph glyph-name="b" unicode="b" horiz-adv-x="1511" 
d="M1001 494q0 152 -48 248t-142 98q-125 0 -231 -62v-332q0 -90 66 -150t190 -60q165 0 165 258zM201 0v1364l-183 121v131l416 172h146v-848l215 172q66 16 149 16q132 1 236 -70t162 -195q58 -123 58 -279t-106 -297t-267 -225t-316 -82q-155 0 -271 116l-96 -96h-143z
" />
    <glyph glyph-name="c" unicode="c" horiz-adv-x="1323" 
d="M510 599.5q0 -139.5 66.5 -242.5t196.5 -103t392 117l62 -127l-287 -230q-123 -35 -285 -34.5t-284.5 71t-191 193.5t-68.5 280.5t99 298t249.5 223t271.5 82.5t252 -23.5t193 -51.5v-400h-146q-163 219 -375 219q-68 0 -106.5 -66.5t-38.5 -206z" />
    <glyph glyph-name="d" unicode="d" horiz-adv-x="1511" 
d="M674 870q-164 0 -164 -258q0 -143 52 -236t153 -93l-2 2q119 0 217 49v368q-12 74 -78 121t-178 47zM930 -2v154l-197 -158q-66 -16 -176 -16t-218 70q-108 71 -168 195q-60 125 -60 281t106 296t266 223t310 83q74 0 137 -34v272l-182 121v131l415 172h146v-1579
l184 -62l-74 -149h-489z" />
    <glyph glyph-name="e" unicode="e" horiz-adv-x="1363" 
d="M687 872q-89 0 -131 -56t-46 -173h364q-12 117 -55 173t-132 56zM766 254q145 0 424 125l61 -127l-295 -238q-129 -35 -296 -34.5t-289.5 71t-191 193.5t-68.5 280.5t106.5 298t266 223t309.5 82.5q221 0 342.5 -166.5t117.5 -469.5h-731q23 -109 84.5 -173.5
t159.5 -64.5z" />
    <glyph glyph-name="f" unicode="f" horiz-adv-x="1030" 
d="M1198 1358h-143q-51 94 -123 148t-143 54t-109 -56q-38 -58 -39 -167v-290h336v-152h-336v-666l320 -79l-74 -150h-807v131l182 156v608h-211v152h211v151q0 162 97 303t243 224t279 83q78 1 176 -21t141 -46v-383z" />
    <glyph glyph-name="g" unicode="g" horiz-adv-x="1310" 
d="M653 559q123 0 123 109q0 92 -60.5 146t-160.5 54q-119 0 -119 -104q0 -90 60.5 -147.5t156.5 -57.5zM1143 764q0 -123 -105.5 -237.5t-261.5 -174.5q-55 -66 -55 -123q0 -29 44 -56.5t159.5 -79.5t190.5 -105.5t75 -121t-83 -165.5t-206 -171t-245.5 -73t-299 39
t-293.5 78v381h144q94 -133 193.5 -201.5t224.5 -68.5q63 0 106 23.5t43 60t-52 72.5t-164 86t-172 92t-60 95.5t78.5 104.5t187.5 90q-18 -2 -55 -2q-127 0 -235.5 50.5t-171 133t-62.5 188.5t90 212t231 171.5t299 65.5t285 -81h344v-156h-203q29 -61 29 -127z" />
    <glyph glyph-name="h" unicode="h" horiz-adv-x="1499" 
d="M918 0v643q0 92 -28 131t-109.5 39t-180.5 -55v-549l184 -59l-73 -150h-672v131l182 156v1077l-182 121v131l416 172h145v-848l213 172q55 16 129 16q162 0 258 -85t96 -230v-604l185 -59l-74 -150h-489z" />
    <glyph glyph-name="i" unicode="i" horiz-adv-x="845" 
d="M80 0v131l182 156v436l-182 121v129l416 174h145v-938l184 -59l-73 -150h-672zM668 1569q0 -76 -44 -130.5t-111 -87t-144.5 -32.5t-140 60.5t-62.5 136t44 130t111.5 87t146.5 32.5t139.5 -60t60.5 -136z" />
    <glyph glyph-name="j" unicode="j" horiz-adv-x="794" 
d="M602 203q0 -191 19 -244l-459 -500l-146 111q123 145 165 247.5t42 254.5v686l-182 127v131l418 131h143v-944zM631 1548.5q0 -75.5 -44 -130t-110.5 -87.5t-144.5 -33t-140.5 60.5t-62.5 136t44 130t111.5 87.5t146.5 33t139.5 -60.5t60.5 -136z" />
    <glyph glyph-name="k" unicode="k" horiz-adv-x="1527" 
d="M1458 1108v-131l-407 -328l256 -420l206 -79l-73 -150h-447l-317 551l350 274l-264 133l74 150h622zM39 0v131l182 156v1077l-182 121v131l416 172h145v-1579l184 -59l-73 -150h-672z" />
    <glyph glyph-name="l" unicode="l" horiz-adv-x="804" 
d="M39 0v131l182 156v1077l-182 121v131l416 172h145v-1579l184 -59l-73 -150h-672z" />
    <glyph glyph-name="m" unicode="m" horiz-adv-x="2160" 
d="M1581 6v678q1 74 -23 104t-98 31q-74 0 -160 -55v-555l168 -55l-75 -150h-471v678q0 74 -24 104t-98 31q-74 0 -159 -55v-555l168 -55l-76 -150h-653v131l182 156v430l-182 117v131l450 180l82 -229l238 194q49 16 113 16q121 0 203 -53t116 -147l227 184q49 16 113 16
q156 0 247 -85t91 -230v-604l184 -53l-76 -150h-487z" />
    <glyph glyph-name="n" unicode="n" horiz-adv-x="1540" 
d="M958 2v643q0 92 -27.5 131t-109 39t-180.5 -55v-549l184 -59l-73 -150h-672v131l182 156v430l-182 117v131l450 180l82 -229l242 194q55 16 129 16q162 0 258 -85t96 -230v-604l185 -57l-74 -150h-490z" />
    <glyph glyph-name="o" unicode="o" horiz-adv-x="1441" 
d="M674 872q-154 0 -154 -276q0 -146 64.5 -253t181.5 -107q156 0 156 258q0 166 -64.5 272t-183.5 106zM1331 583.5q0 -155.5 -106.5 -297t-267 -224t-312.5 -82.5t-274.5 70.5t-191 193.5t-68.5 280.5t106.5 298t266 223t312 82.5t275.5 -70.5t191.5 -194.5t68.5 -279.5z
" />
    <glyph glyph-name="p" unicode="p" horiz-adv-x="1572" 
d="M641 449q0 -91 67 -151t189 -60q166 0 166 258q0 143 -48 234t-143 91q-125 0 -231 -61v-311zM80 -518v129l182 158v950l-182 117v131l450 180l82 -229l244 194q66 16 150 16q131 0 235 -70q105 -70 163 -195q58 -123 58 -279t-106 -297t-267 -225t-311 -82v2
q-76 -1 -137 36v-307l320 -82l-74 -147h-807z" />
    <glyph glyph-name="q" unicode="q" horiz-adv-x="1511" 
d="M676 872q-164 0 -164 -270q0 -134 54 -224t162 -90t204 46v358q-12 78 -78 129t-178 51zM614 -520v129l318 139v399l-191 -151q-66 -16 -179 -16t-221 70t-168 192q-60 120 -60 276t96 298q97 142 241 227t279 85q186 0 326 -100l108 100h146v-1452l202 -49l-73 -147
h-824z" />
    <glyph glyph-name="r" unicode="r" horiz-adv-x="1196" 
d="M80 2v131l182 156v430l-182 117v131l450 180l78 -221l180 186q43 16 97 16q121 0 203.5 -52t115.5 -144l-213 -268h-145q-2 82 -19.5 115.5t-71 33.5t-114.5 -49v-533l320 -79l-74 -150h-807z" />
    <glyph glyph-name="s" unicode="s" horiz-adv-x="1144" 
d="M111 776.5q0 69.5 72.5 153.5t179 141t206 57t243.5 -23.5t210 -51.5v-348h-143q-51 94 -126 147t-153 53q-35 0 -54.5 -19.5t-19.5 -54t50.5 -71.5t159.5 -99.5t175 -106.5q160 -107 160 -218q0 -76 -75.5 -159t-185.5 -140t-213.5 -57t-262 23.5t-225.5 51.5v365h143
q59 -102 146 -159.5t173 -57.5q37 0 60.5 19.5t23.5 51t-48 67.5t-156 98t-176 107.5t-116 103t-48 127z" />
    <glyph glyph-name="t" unicode="t" horiz-adv-x="1032" 
d="M766 238q82 0 182 49l62 -127l-207 -164q-78 -16 -180 -16q-207 0 -301.5 89t-94.5 275v551h-221v119l457 485h143v-452h369v-152h-369v-526q0 -131 160 -131z" />
    <glyph glyph-name="u" unicode="u" horiz-adv-x="1482" 
d="M897 0v166l-211 -172q-55 -16 -129 -17q-162 0 -258 85t-96 231v424l-183 104v129l418 180h144v-667q0 -92 27.5 -131t109.5 -39t180 55v369l-182 104v129l416 180h145v-921l182 -59l-76 -150h-487z" />
    <glyph glyph-name="v" unicode="v" horiz-adv-x="1351" 
d="M1305 1108v-131l-529 -977h-289l-297 725l-204 119v131l483 172l78 -309l217 -523l233 447l-299 196l74 150h533z" />
    <glyph glyph-name="w" unicode="w" horiz-adv-x="1990" 
d="M1944 979l-484 -977h-289l-170 418l-225 -418h-289l-297 725l-204 119v131l483 172l78 -309l217 -523l156 299l-46 111l-204 119v131l483 172l78 -309l213 -514l203 430l-310 202l74 150l533 2v-131z" />
    <glyph glyph-name="x" unicode="x" horiz-adv-x="1382" 
d="M43 -4v131l444 391l-260 338l-204 100l73 150h422l289 -385l158 145l-185 92l76 150h481v-131l-442 -389l238 -307l229 -134l-74 -149h-422l-280 391l-166 -151l180 -93l-74 -149h-483z" />
    <glyph glyph-name="y" unicode="y" horiz-adv-x="1351" 
d="M1307 1108v-131l-529 -977l-497 -541l-146 111q150 180 210.5 311t70.5 295l-226 549l-204 119v131l483 172l78 -309l217 -523l233 447l-299 196l74 150h535z" />
    <glyph glyph-name="z" unicode="z" horiz-adv-x="1343" 
d="M127 0v145l606 584h-383l-78 -164l-127 37v543l179 -37h893v-145l-605 -584h375l82 184l129 -37v-563l-180 37h-891z" />
    <glyph glyph-name="braceleft" unicode="{" horiz-adv-x="1015" 
d="M395 88v262q0 152 -50 233t-140 81h-123v196h123q90 0 140 81t50 233v262q0 162 111 299t289 219l84 -146q-104 -51 -105 -243v-293q0 -162 -105 -298t-263 -212q158 -76 263 -212t105 -298v-293q1 -193 105 -244l-84 -145q-178 82 -289 219t-111 299z" />
    <glyph glyph-name="bar" unicode="|" horiz-adv-x="763" 
d="M479 -410h-194v2429h194v-2429z" />
    <glyph glyph-name="braceright" unicode="}" horiz-adv-x="1015" 
d="M621 1436v-262q0 -152 50 -233t140 -81h123v-196h-123q-90 0 -140 -81t-50 -233v-262q0 -162 -111 -299t-289 -219l-84 145q104 51 105 244v293q0 162 105 298t263 212q-158 76 -263 212t-105 298v293q-1 192 -105 243l84 146q178 -82 289 -219t111 -299z" />
    <glyph glyph-name="asciitilde" unicode="~" horiz-adv-x="1359" 
d="M371 592q-90 0 -191 -137l-127 94q61 163 161 279t187 116q86 0 162 -36t175 -98q98 -62 150 -88t101 -26q89 0 191 138l127 -95q-61 -163 -161 -279t-188 -116q-86 0 -162 36t-176 98t-151 88t-98 26z" />
    <glyph glyph-name="uni00A0" unicode="&#xa0;" horiz-adv-x="571" 
 />
    <glyph glyph-name="exclamdown" unicode="&#xa1;" horiz-adv-x="686" 
d="M606 -371l-373 -149h-145l127 1038h240l151 -760v-129zM292 682q-76 0 -139 60t-63 135t44 131t111 88q67 33 128 32q96 0 157 -60q62 -60 62 -136t-44 -130t-112 -87t-144 -33z" />
    <glyph glyph-name="cent" unicode="&#xa2;" horiz-adv-x="1323" 
d="M510 600q0 -140 67 -243t197 -103t391 117l62 -127l-289 -228q-59 -16 -129 -26v-398h-197v390q-145 8 -260 80t-178 191q-63 120 -63 261t72 264q73 123 188 209t241 121v426h197v-408q98 -6 207 -28t160 -45v-400h-146q-163 219 -375 219q-69 0 -107 -66t-38 -206z" />
    <glyph glyph-name="sterling" unicode="&#xa3;" horiz-adv-x="1476" 
d="M86 0v145l186 193v346h-266l76 150h190v206q0 164 100 304t250 224q151 83 271 83q119 0 251 -24t193 -52v-399h-145q-76 102 -173 160t-189 58q-178 1 -179 -255v-305h350l-75 -150h-279q-25 -165 -149 -305h676l77 184l131 -37v-563l-180 37h-1116z" />
    <glyph glyph-name="currency" unicode="&#xa4;" horiz-adv-x="1818" 
d="M1262 741q0 185 -102 305t-296 119q-82 0 -152 -40q-70 -39 -110 -109q-41 -70 -41 -152q-1 -184 101 -303t294 -119q82 0 153 40t112 109t41 150zM970 1403q199 0 345 -84l282 283l113 -109l-274 -272q141 -153 141 -381l2 -2q0 -214 -195 -400l326 -325l-113 -109
l-337 338q-215 -139 -412 -139q-198 0 -344 84l-285 -283l-110 109l270 272q-143 156 -142 376t195 406l-323 324l110 108l338 -335q214 139 413 139z" />
    <glyph glyph-name="yen" unicode="&#xa5;" horiz-adv-x="1761" 
d="M1077 635v-170h551l-78 -150h-473v-104l232 -59l-74 -150h-739v131l192 152v30h-565l78 150h487v63l-70 107h-495l78 151h321l-391 609l-147 69l41 148h723v-129l-146 -113l354 -547l351 492l-293 147l76 148h671v-129l-219 -166l-368 -529h454l-78 -151h-473z" />
    <glyph glyph-name="brokenbar" unicode="&#xa6;" horiz-adv-x="763" 
d="M285 -410v949h194v-949h-194zM285 1071v948h194v-948h-194z" />
    <glyph glyph-name="section" unicode="&#xa7;" horiz-adv-x="1548" 
d="M778 1466q-78 0 -145 -46q-68 -46 -114 -114t-46 -152q0 -82 49 -184q50 -102 146 -254t142 -246t46 -175q0 -82 -48 -141t-165 -117q55 -16 150 -17q55 0 123 46t114 114q47 68 47 150t-50 184q-50 104 -144 248q-93 144 -141 242t-48 182t49 144t164 120
q-51 16 -129 16zM133 1140q0 114 99 231q100 118 244 199t278 81t334 -31t292 -66v-421h-143q-23 100 -58 153q-36 53 -67 53q-59 0 -59 -127q0 -90 42 -173t135 -225t144 -250t51 -219t-104 -229t-256 -200q-153 -82 -291 -82t-342 31t-293 65v424h146q27 -94 65 -150
t72 -56q36 0 60 35q24 37 24 105t-40 149t-134 225t-146 254t-53 224z" />
    <glyph glyph-name="dieresis" unicode="&#xa8;" horiz-adv-x="1220" 
d="M514 1466q0 -69 -38 -118t-95 -79t-123 -30t-121 55t-55 123t38 118t96 80t125 30t120 -55t53 -124zM1048 1466q0 -69 -38 -118t-95 -79t-123 -30t-121 55t-55 123t39 118q38 50 96 80q59 30 125 30t119 -55t53 -124z" />
    <glyph glyph-name="copyright" unicode="&#xa9;" horiz-adv-x="2183" 
d="M1450 846h-145q-45 86 -111 135t-122 49q-109 0 -107 -153q0 -111 46 -186t128 -75q111 0 301 74l61 -129l-188 -149q-110 -35 -293 -35q-115 0 -208 53t-145 145q-53 92 -53 210t79 228q79 109 199 175t216 66t196 -24q101 -24 146 -52v-332zM463 851q0 -169 74 -321
q73 -152 225 -242t375 -89q155 1 289 71t214 195t80 295t-73 321q-74 152 -226 242t-377 90q-155 0 -289 -72q-134 -73 -213 -197t-79 -293zM2040 836q0 -236 -163 -439t-403 -321t-478 -117q-236 0 -435 103q-199 104 -309 288t-109 421q0 237 163 441t403 321t477 117
t437 -104q201 -104 309 -288q108 -186 108 -422z" />
    <glyph glyph-name="ordfeminine" unicode="&#xaa;" horiz-adv-x="1196" 
d="M406 928q0 -76 123 -76q66 0 169 58v79h-273q-19 -27 -19 -61zM698 1107q0 158 -200 158q-101 0 -317 -74l-52 96l240 170q92 26 218 26q205 0 319 -81.5t114 -236.5v-362l157 -54l-63 -112h-416v134l-197 -137q-35 -12 -87 -12q-172 0 -248.5 74.5t-76.5 178.5
q0 124 160 226h449v6z" />
    <glyph glyph-name="guillemotleft" unicode="&#xab;" horiz-adv-x="1552" 
d="M1317 307l-129 -108l-428 358l428 358l129 -108l-109 -209zM811 152l-131 -111l-610 516l610 514l131 -108l-254 -363z" />
    <glyph glyph-name="logicalnot" unicode="&#xac;" horiz-adv-x="1183" 
d="M1044 174h-151v393h-811v150h962v-543z" />
    <glyph glyph-name="softhyphen" unicode="&#xad;" horiz-adv-x="1050" 
d="M936 758v-127l-82 -105h-739v127l82 105h739z" />
    <glyph glyph-name="registered" unicode="&#xae;" horiz-adv-x="2115" 
d="M1032 1108q-16 0 -31 -10v-224q31 -10 66 -10q86 0 86 123q0 53 -32 87t-89 34zM1477 1049q0 -82 -84 -157t-224 -106l215 -45l54 -153l92 -47l-41 -131h-318l-81 262q-26 81 -89 96v-358h-376v112l98 103v428l-119 49l41 133h250l281 12q133 0 217 -58t84 -140z
M1688 760q0 170 -74 321q-74 152 -226 242q-153 90 -376 90q-156 0 -290 -72q-134 -73 -214 -197t-80 -293t74 -321t226 -242t376 -89q156 -1 290 70t214 196t80 295zM2007 836q0 -236 -163 -439q-164 -203 -404 -321t-476 -117q-236 0 -436 103q-198 104 -308 288t-110 421
t162 441t403 321t478 117t437 -104t308 -288q108 -186 109 -422z" />
    <glyph glyph-name="macron" unicode="&#xaf;" horiz-adv-x="1228" 
d="M129 1659h989v-152h-989v152z" />
    <glyph glyph-name="degree" unicode="&#xb0;" horiz-adv-x="882" 
d="M433 1303q130 0 130 133q0 88 -44 148q-45 60 -111 60q-132 1 -129 -131q0 -90 44 -150t110 -60zM793 1524q0 -112 -69 -197q-69 -86 -172 -137q-104 -51 -196 -51t-160 40q-68 39 -108 107q-39 68 -39 158t69 176t172 137t218 51t200 -86t85 -198z" />
    <glyph glyph-name="plusminus" unicode="&#xb1;" horiz-adv-x="1126" 
d="M639 567v-405h-152v405h-405v150h405v407h150v-407h407v-150h-405zM82 -53h962v-150h-962v150z" />
    <glyph glyph-name="twosuperior" unicode="&#xb2;" horiz-adv-x="1132" 
d="M84 848v129q351 231 431 323q40 48 40 86t-33 60t-84 20q-113 0 -315 -82l-49 127l227 160q74 25 182 25q203 0 325 -62t122 -164q0 -55 -98 -145t-302 -207h318l65 137l127 -38v-396l-170 27h-786z" />
    <glyph glyph-name="threesuperior" unicode="&#xb3;" horiz-adv-x="940" 
d="M860 973q0 -154 -186 -274t-596 -226l-39 137q199 58 302 100t145 87t42 105t-52 102t-167 81v105q82 51 116 97q34 47 34 99t-36 82q-35 30 -101 31q-66 0 -242 -80l-49 109l227 160q49 12 132 12t183 -31q101 -31 159 -83t59 -113q-7 -69 -69 -131t-186 -129
q168 -50 246 -106t78 -134z" />
    <glyph glyph-name="acute" unicode="&#xb4;" horiz-adv-x="778" 
d="M821 1673l-555 -307l-127 59l219 402l408 -39z" />
    <glyph glyph-name="uni00B5" unicode="&#xb5;" horiz-adv-x="1441" 
d="M872 739q0 119 -118 250l352 141h145v-759h-2q0 -55 33 -123t86 -127l-354 -141h-144v186l-211 -172q-47 -14 -104 -17v-106q-2 -53 32 -122t87 -128l-352 -141h-146v1259q2 53 -32 122t-87 128l355 141h143v-667q0 -92 28 -131q27 -39 109 -39t180 55v391z" />
    <glyph glyph-name="paragraph" unicode="&#xb6;" horiz-adv-x="1744" 
d="M1264 -520v2130h391v-129l-195 -168v-1620l232 -66l-74 -147h-354zM37 1086q0 140 94 268q95 128 237 202t271 74v2q82 0 164 -10q139 -10 209 -10h100v-2130h-399v129l205 176v836l-424 -21q-134 0 -238 62t-162 173q-57 109 -57 249z" />
    <glyph glyph-name="periodcentered" unicode="&#xb7;" horiz-adv-x="671" 
d="M84 524q0 76 44 130t112 87t146 33t139 -60t61 -135q1 -138 -155 -217q-67 -33 -128 -32q-94 0 -157 59q-62 59 -62 135z" />
    <glyph glyph-name="cedilla" unicode="&#xb8;" horiz-adv-x="1228" 
d="M893 -338q0 -94 -113 -144t-346 -61v129q66 22 94 50t29 69q0 41 -25 73t-90 77q133 113 230 198q96 86 178 180l135 -79q-92 -115 -278 -271v-2q108 -61 147 -109t39 -110z" />
    <glyph glyph-name="onesuperior" unicode="&#xb9;" horiz-adv-x="874" 
d="M127 852v113l160 108v445l-189 43l60 125h590v-113l-158 -109v-446l188 -41l-59 -125h-592z" />
    <glyph glyph-name="ordmasculine" unicode="&#xba;" horiz-adv-x="1257" 
d="M665 814q133 0 133 208q0 110 -55 189.5t-156 79.5q-131 0 -131 -192q0 -124 55 -204.5t154 -80.5zM1146 1074.5q0 -116.5 -90.5 -222.5t-227.5 -168t-266 -62t-233 53t-162.5 145t-58.5 210.5t90.5 223.5t226.5 167t265.5 62t234 -53t163 -146t58.5 -209.5z" />
    <glyph glyph-name="guillemotright" unicode="&#xbb;" horiz-adv-x="1552" 
d="M367 197l-131 108l108 209l-108 291l131 108l428 -358zM872 41l-131 109l254 362l-254 449l131 110l611 -516z" />
    <glyph glyph-name="onequarter" unicode="&#xbc;" horiz-adv-x="2179" 
d="M127 852v113l160 108v445l-189 43l60 125h590v-113l-158 -109v-446l188 -41l-59 -125h-592zM551 -408l-129 66l1272 2396l131 -65zM1640 49v350l-331 -350h331zM1944 -117v-266l-304 -86v352h-606v109l606 637l304 84v-664h249l-57 -166h-192z" />
    <glyph glyph-name="onehalf" unicode="&#xbd;" horiz-adv-x="2449" 
d="M127 852v113l160 108v445l-189 43l60 125h590v-113l-158 -109v-446l188 -41l-59 -125h-592zM551 -408l-129 66l1272 2396l131 -65zM1401 -164v129q353 232 431 324q40 47 40 84t-33 59t-84 23q-113 0 -315 -82l-49 127l227 159q74 25 182 25q203 0 325 -61t122 -164
q-1 -55 -99 -145t-301 -208h318l65 138l127 -39v-395l-170 26h-786z" />
    <glyph glyph-name="threequarters" unicode="&#xbe;" horiz-adv-x="2242" 
d="M860 973q0 -154 -186 -274t-596 -226l-39 137q199 58 302 100t145 87t42 105t-52 102t-167 81v105q82 51 116 97q34 47 34 99t-36 82q-35 30 -101 31q-66 0 -242 -80l-49 109l227 160q49 12 132 12t183 -31q101 -31 159 -83t59 -113q-7 -69 -69 -131t-186 -129
q168 -50 246 -106t78 -134zM616 -408l-129 66l1272 2396l131 -65zM1706 49v350l-332 -350h332zM2009 -117v-266l-303 -86v352h-606v109l606 637l303 84v-664h250l-57 -166h-193z" />
    <glyph glyph-name="questiondown" unicode="&#xbf;" horiz-adv-x="923" 
d="M717 322q0 -70 -49 -122q-50 -54 -132 -118t-116 -100q-34 -35 -33 -67q0 -32 35 -71q35 -38 88 -66t104 -28q98 0 265 66l61 -127l-266 -213q-255 -46 -435 36q-116 52 -194 129t-78 143t53 120q52 54 140 114q88 62 121 92t32 58q0 49 -118 90v131l274 174
q114 -57 181 -114t67 -127zM414 682q-78 0 -141 60q-62 60 -62 135t44 131t112 88q68 33 129 32q94 0 155 -60t61 -136t-43 -130q-44 -54 -111 -87q-66 -33 -144 -33z" />
    <glyph glyph-name="Agrave" unicode="&#xc0;" horiz-adv-x="1902" 
d="M852 1300l-238 -583h476zM1040 0v131l234 131l-115 281h-616l-99 -242l301 -151l-73 -150h-674v131l231 172l508 1241l398 105l573 -1399l211 -100l-74 -150h-805zM1004 1868l-555 307l57 115l407 39l220 -402z" />
    <glyph glyph-name="Aacute" unicode="&#xc1;" horiz-adv-x="1902" 
d="M852 1300l-238 -583h476zM1040 0v131l234 131l-115 281h-616l-99 -242l301 -151l-73 -150h-674v131l231 172l508 1241l398 105l573 -1399l211 -100l-74 -150h-805zM1434 2175l-555 -307l-127 59l219 402l407 -39z" />
    <glyph glyph-name="Acircumflex" unicode="&#xc2;" horiz-adv-x="1902" 
d="M852 1300l-238 -583h476zM1040 0v131l234 131l-115 281h-616l-99 -242l301 -151l-73 -150h-674v131l231 172l508 1241l398 105l573 -1399l211 -100l-74 -150h-805zM1427 1894l-405 -39l-145 240l-373 -240l-84 138l506 325l557 -307z" />
    <glyph glyph-name="Atilde" unicode="&#xc3;" horiz-adv-x="1902" 
d="M852 1300l-238 -583h476zM1040 0v131l234 131l-115 281h-616l-99 -242l301 -151l-73 -150h-674v131l231 172l508 1241l398 105l573 -1399l211 -100l-74 -150h-805zM1162 2181q44 0 89 29l115 74l84 -138l-481 -307q-96 98 -155.5 139t-103.5 41t-92 -28l-110 -72l-86 135
l481 307q96 -96 155.5 -138t103.5 -42z" />
    <glyph glyph-name="Adieresis" unicode="&#xc4;" horiz-adv-x="1902" 
d="M852 1300l-238 -583h476zM1040 0v131l234 131l-115 281h-616l-99 -242l301 -151l-73 -150h-674v131l231 172l508 1241l398 105l573 -1399l211 -100l-74 -150h-805zM1083 2041.5q0 71.5 40 124t100.5 83t131 30.5t126 -57t55.5 -128.5t-40 -123t-100.5 -82t-130 -30.5
t-126 56t-56.5 127.5zM348 2041.5q0 71.5 40 124t100.5 83t131 30.5t126 -57t55.5 -128.5t-40 -123t-100.5 -82t-130 -30.5t-126 56t-56.5 127.5z" />
    <glyph glyph-name="Aring" unicode="&#xc5;" horiz-adv-x="1902" 
d="M852 1300l-238 -583h476zM1040 0v131l234 131l-115 281h-616l-99 -242l301 -151l-73 -150h-674v131l231 172l508 1241l398 105l573 -1399l211 -100l-74 -150h-805zM817 2120q0 -70 44 -115t124 -45q35 0 55.5 18.5t20.5 51.5q0 68 -44 112.5t-124 44.5q-35 0 -55.5 -17.5
t-20.5 -49.5zM1305 2117.5q0 -84.5 -68 -150.5t-171 -106t-213 -40t-194 62.5t-84 146.5t68 150.5t170 106.5t214 40t195 -62.5t83 -147z" />
    <glyph glyph-name="AE" unicode="&#xc6;" horiz-adv-x="2304" 
d="M981 909v496l-231 -496h231zM788 0v131l193 152v452h-311l-213 -454l211 -131l-74 -150h-596v131l235 174l508 1084l-254 73l74 148h1442l160 37v-537l-129 -55l-254 379h-394v-525h144l149 221h131v-589l-149 -74l-135 268h-140v-559h375l293 420l129 -53v-580l-160 37
h-1235z" />
    <glyph glyph-name="Ccedilla" unicode="&#xc7;" horiz-adv-x="1724" 
d="M1186 -334q0 -94 -112.5 -144t-346.5 -61v129q66 23 94.5 50.5t28.5 68.5t-24.5 73t-90.5 77q41 33 123 102q-221 10 -391 116.5t-263 286t-93 412t149.5 436t372.5 321.5t424 118q123 0 286.5 -31t239.5 -66v-446h-227q-154 287 -418 287q-106 0 -194.5 -69
t-139.5 -189.5t-51 -280.5t51 -300t156.5 -223t278.5 -83t524 188l88 -141l-377 -293q-83 -25 -176 -35q-66 -57 -99 -84q109 -61 148 -109t39 -110z" />
    <glyph glyph-name="Egrave" unicode="&#xc8;" horiz-adv-x="1683" 
d="M90 0v131l193 152v1114l-230 65l74 148h1255l160 37v-537l-129 -55l-254 379h-471v-525h221l150 221h131v-589l-150 -74l-135 268h-217v-559h453l293 420l129 -53v-580l-160 37h-1313zM930 1868l-555 307l57 115l408 39l219 -402z" />
    <glyph glyph-name="Eacute" unicode="&#xc9;" horiz-adv-x="1683" 
d="M90 0v131l193 152v1114l-230 65l74 148h1255l160 37v-537l-129 -55l-254 379h-471v-525h221l150 221h131v-589l-150 -74l-135 268h-217v-559h453l293 420l129 -53v-580l-160 37h-1313zM1360 2175l-555 -307l-127 59l219 402l408 -39z" />
    <glyph glyph-name="Ecircumflex" unicode="&#xca;" horiz-adv-x="1683" 
d="M90 0v131l193 152v1114l-230 65l74 148h1255l160 37v-537l-129 -55l-254 379h-471v-525h221l150 221h131v-589l-150 -74l-135 268h-217v-559h453l293 420l129 -53v-580l-160 37h-1313zM1354 1894l-406 -39l-145 240l-373 -240l-84 138l506 325l557 -307z" />
    <glyph glyph-name="Edieresis" unicode="&#xcb;" horiz-adv-x="1683" 
d="M90 0v131l193 152v1114l-230 65l74 148h1255l160 37v-537l-129 -55l-254 379h-471v-525h221l150 221h131v-589l-150 -74l-135 268h-217v-559h453l293 420l129 -53v-580l-160 37h-1313zM1008 2041.5q0 71.5 39.5 124t100 83t131.5 30.5t126 -57t55 -128.5t-40 -123
t-100 -82t-130 -30.5t-126 56t-56 127.5zM272 2041.5q0 71.5 40 124t100.5 83t131 30.5t126 -57t55.5 -128.5t-40 -123t-100.5 -82t-130 -30.5t-126 56t-56.5 127.5z" />
    <glyph glyph-name="Igrave" unicode="&#xcc;" horiz-adv-x="972" 
d="M90 0v131l193 166v1102l-230 63l74 148h756v-129l-195 -168v-1100l232 -63l-74 -150h-756zM549 1868l-555 307l57 115l408 39l219 -402z" />
    <glyph glyph-name="Iacute" unicode="&#xcd;" horiz-adv-x="972" 
d="M90 0v131l193 166v1102l-230 63l74 148h756v-129l-195 -168v-1100l232 -63l-74 -150h-756zM979 2175l-555 -307l-127 59l219 402l408 -39z" />
    <glyph glyph-name="Icircumflex" unicode="&#xce;" horiz-adv-x="972" 
d="M90 0v131l193 166v1102l-230 63l74 148h756v-129l-195 -168v-1100l232 -63l-74 -150h-756zM973 1894l-406 -39l-145 240l-373 -240l-84 138l506 325l557 -307z" />
    <glyph glyph-name="Idieresis" unicode="&#xcf;" horiz-adv-x="972" 
d="M90 0v131l193 166v1102l-230 63l74 148h756v-129l-195 -168v-1100l232 -63l-74 -150h-756zM1014 2093.5q0 -69.5 -38 -119t-95.5 -79t-125 -29.5t-120.5 54t-53 122.5t37.5 119t96 80t126 29.5t120 -54t52.5 -123.5zM135.5 1866q-67.5 0 -121 54t-53.5 122.5t38 119
t96.5 80t126 29.5t119.5 -54t52 -124t-38 -119t-95 -78.5t-124.5 -29.5z" />
    <glyph glyph-name="Eth" unicode="&#xd0;" horiz-adv-x="1904" 
d="M1354 756.5q0 174.5 -56.5 331.5t-172 250.5t-287.5 93.5q-80 0 -150 -41v-510h289v-142h-289v-524q94 -35 219 -35l2 -2q123 0 225.5 74t161 202t58.5 302.5zM1794 837q0 -230 -149.5 -428t-371.5 -313.5t-423 -115.5q-90 0 -182 10q-154 10 -236 10h-342v131l193 152
v456h-174v142h174v512l-230 69l74 148h303q188 0 346 10t219 10q236 0 418 -101.5t281.5 -281.5t99.5 -410z" />
    <glyph glyph-name="Ntilde" unicode="&#xd1;" horiz-adv-x="1857" 
d="M1630 -4h-196l-957 1057v-797l316 -109l-74 -149h-629v131l193 166v1036l-230 131l74 148h375l932 -1026v770l-312 108l74 148h629v-133l-195 -168v-1313zM1158 2181q44 0 89 29l115 74l84 -138l-481 -307q-96 98 -155.5 139t-104 41t-91.5 -28l-110 -72l-86 135l481 307
q96 -96 155.5 -138t103.5 -42z" />
    <glyph glyph-name="Ograve" unicode="&#xd2;" horiz-adv-x="1986" 
d="M553 851q0 -165 53 -312.5t163 -235.5t269 -88q109 0 199 68.5t143.5 189.5t53.5 285.5t-53.5 313.5t-164 236t-270.5 87q-108 0 -198.5 -69t-142.5 -189.5t-52 -285.5zM1876 836.5q0 -236.5 -152.5 -439t-378 -320.5t-445.5 -118t-403.5 103.5t-284.5 288t-101 421
t151.5 440t376.5 321.5t446.5 118t405.5 -104.5t284.5 -289t100.5 -421zM1057 1868l-555 307l57 115l408 39l219 -402z" />
    <glyph glyph-name="Oacute" unicode="&#xd3;" horiz-adv-x="1986" 
d="M553 851q0 -165 53 -312.5t163 -235.5t269 -88q109 0 199 68.5t143.5 189.5t53.5 285.5t-53.5 313.5t-164 236t-270.5 87q-108 0 -198.5 -69t-142.5 -189.5t-52 -285.5zM1876 836.5q0 -236.5 -152.5 -439t-378 -320.5t-445.5 -118t-403.5 103.5t-284.5 288t-101 421
t151.5 440t376.5 321.5t446.5 118t405.5 -104.5t284.5 -289t100.5 -421zM1487 2175l-555 -307l-127 59l219 402l408 -39z" />
    <glyph glyph-name="Ocircumflex" unicode="&#xd4;" horiz-adv-x="1986" 
d="M553 851q0 -165 53 -312.5t163 -235.5t269 -88q109 0 199 68.5t143.5 189.5t53.5 285.5t-53.5 313.5t-164 236t-270.5 87q-108 0 -198.5 -69t-142.5 -189.5t-52 -285.5zM1876 836.5q0 -236.5 -152.5 -439t-378 -320.5t-445.5 -118t-403.5 103.5t-284.5 288t-101 421
t151.5 440t376.5 321.5t446.5 118t405.5 -104.5t284.5 -289t100.5 -421zM1481 1894l-406 -39l-145 240l-373 -240l-84 138l506 325l557 -307z" />
    <glyph glyph-name="Otilde" unicode="&#xd5;" horiz-adv-x="1986" 
d="M553 851q0 -165 53 -312.5t163 -235.5t269 -88q109 0 199 68.5t143.5 189.5t53.5 285.5t-53.5 313.5t-164 236t-270.5 87q-108 0 -198.5 -69t-142.5 -189.5t-52 -285.5zM1876 836.5q0 -236.5 -152.5 -439t-378 -320.5t-445.5 -118t-403.5 103.5t-284.5 288t-101 421
t151.5 440t376.5 321.5t446.5 118t405.5 -104.5t284.5 -289t100.5 -421zM1215.5 2181q44.5 0 89.5 29l114 74l84 -138l-481 -307q-96 98 -155.5 139t-103.5 41t-91 -28l-111 -72l-86 135l481 307q97 -96 156 -138t103.5 -42z" />
    <glyph glyph-name="Odieresis" unicode="&#xd6;" horiz-adv-x="1986" 
d="M553 851q0 -165 53 -312.5t163 -235.5t269 -88q109 0 199 68.5t143.5 189.5t53.5 285.5t-53.5 313.5t-164 236t-270.5 87q-108 0 -198.5 -69t-142.5 -189.5t-52 -285.5zM1876 836.5q0 -236.5 -152.5 -439t-378 -320.5t-445.5 -118t-403.5 103.5t-284.5 288t-101 421
t151.5 440t376.5 321.5t446.5 118t405.5 -104.5t284.5 -289t100.5 -421zM1589 2093.5q0 -71.5 -40 -123t-100 -82t-130 -30.5t-126 56t-56 127.5t40 124t100 83t131 30.5t126 -57t55 -128.5zM854 2093.5q0 -71.5 -40 -123t-100.5 -82t-130 -30.5t-126 56t-56.5 127.5t40 124
t100.5 83t131 30.5t126 -57t55.5 -128.5z" />
    <glyph glyph-name="multiply" unicode="&#xd7;" horiz-adv-x="1091" 
d="M1010 283l-107 -107l-356 356l-357 -356l-108 107l358 358l-358 358l108 107l357 -356l356 356l107 -107l-357 -358z" />
    <glyph glyph-name="Oslash" unicode="&#xd8;" horiz-adv-x="1986" 
d="M1434 734q0 289 -119 466l-527 -913q106 -74 252 -74l-2 -2q109 0 199 68.5t143.5 190.5t53.5 264zM966.5 1395q-124.5 0 -216 -69t-143.5 -189.5t-52 -262.5q0 -291 121 -471l526 914q-111 78 -235.5 78zM1878 834.5q0 -234.5 -152.5 -437t-378 -320.5t-404.5 -118
t-316 47l-191 -330l-135 78l182 318q-176 104 -274 285.5t-98 416t151.5 438t376.5 321.5t406.5 118t318.5 -47l190 327l136 -78l-183 -317h2q174 -104 271.5 -285.5t97.5 -416z" />
    <glyph glyph-name="Ugrave" unicode="&#xd9;" horiz-adv-x="1839" 
d="M1616 635q0 -215 -107.5 -368.5t-268.5 -230.5t-337 -77t-335.5 81t-249 223.5t-89.5 320.5v821l-231 57l76 148h755v-129l-194 -152v-680q0 -207 106.5 -320.5t325.5 -113.5q82 0 165 49t136 143.5t53 221.5v743l-247 90l75 148h561v-129l-194 -152v-694zM1010 1868
l-555 307l57 115l408 39l219 -402z" />
    <glyph glyph-name="Uacute" unicode="&#xda;" horiz-adv-x="1839" 
d="M1616 635q0 -215 -107.5 -368.5t-268.5 -230.5t-337 -77t-335.5 81t-249 223.5t-89.5 320.5v821l-231 57l76 148h755v-129l-194 -152v-680q0 -207 106.5 -320.5t325.5 -113.5q82 0 165 49t136 143.5t53 221.5v743l-247 90l75 148h561v-129l-194 -152v-694zM1440 2175
l-555 -307l-127 59l219 402l407 -39z" />
    <glyph glyph-name="Ucircumflex" unicode="&#xdb;" horiz-adv-x="1839" 
d="M1616 635q0 -215 -107.5 -368.5t-268.5 -230.5t-337 -77t-335.5 81t-249 223.5t-89.5 320.5v821l-231 57l76 148h755v-129l-194 -152v-680q0 -207 106.5 -320.5t325.5 -113.5q82 0 165 49t136 143.5t53 221.5v743l-247 90l75 148h561v-129l-194 -152v-694zM1434 1894
l-406 -39l-145 240l-373 -240l-84 138l506 325l557 -307z" />
    <glyph glyph-name="Udieresis" unicode="&#xdc;" horiz-adv-x="1839" 
d="M1616 635q0 -215 -107.5 -368.5t-268.5 -230.5t-337 -77t-335.5 81t-249 223.5t-89.5 320.5v821l-231 57l76 148h755v-129l-194 -152v-680q0 -207 106.5 -320.5t325.5 -113.5q82 0 165 49t136 143.5t53 221.5v743l-247 90l75 148h561v-129l-194 -152v-694zM1087 2041.5
q0 71.5 40 124t100.5 83t131 30.5t126 -57t55.5 -128.5t-40 -123t-100.5 -82t-130 -30.5t-126 56t-56.5 127.5zM352 2041.5q0 71.5 40 124t100.5 83t131 30.5t126 -57t55.5 -128.5t-40 -123t-100.5 -82t-130 -30.5t-126 56t-56.5 127.5z" />
    <glyph glyph-name="Yacute" unicode="&#xdd;" horiz-adv-x="1761" 
d="M496 2v131l192 152v243l-557 867l-147 69l41 148h723v-129l-146 -113l354 -547l351 492l-293 147l76 148h671v-129l-219 -168l-465 -664v-438l232 -59l-74 -150h-739zM1384 2175l-555 -307l-127 59l220 402l407 -39z" />
    <glyph glyph-name="Thorn" unicode="&#xde;" horiz-adv-x="1595" 
d="M1112 788q0 108 -65 182q-66 75 -191 74q-90 0 -168 -55v-776l232 -63l-74 -150h-756v131l193 166v1102l-230 63l74 148h756v-129l-195 -168v-88l344 16q154 0 274 -53q120 -54 186 -146t64 -210q0 -118 -110 -230q-110 -114 -279 -178q-168 -64 -325 -55l-86 53l73 149
h99q86 1 135 55t49 162z" />
    <glyph glyph-name="germandbls" unicode="&#xdf;" horiz-adv-x="1695" 
d="M829 1571q-157 0 -157 -264v-1307h-561v131l182 143v621h-242v152h242v161q0 158 107 296q108 138 270 221t311 83q80 0 193 -52q114 -52 194 -132t80 -157t-37 -133t-108 -129t-103 -119t-30 -110q0 -64 49 -119t142 -127t142 -116q117 -106 117 -237q0 -82 -75 -176
q-75 -93 -181 -157t-194 -64t-208 17q-118 17 -167 38v364h143q45 -92 111 -144t116 -52q90 0 90 76q0 39 -41 79t-128 107q-87 66 -141 114q-132 117 -132 244q0 72 33 130q33 57 90 127t83 114q51 85 -7 210q-33 69 -83 118t-100 49z" />
    <glyph glyph-name="agrave" unicode="&#xe0;" horiz-adv-x="1388" 
d="M807 469h-322q-23 -37 -22.5 -82t34 -72.5t93.5 -27.5q96 0 217 78v104zM807 627q1 211 -235 211q-118 0 -373 -99l-62 127l283 228q109 35 256 34q242 0 376 -108.5t134 -314.5v-484l184 -71l-74 -150h-489v178l-232 -182q-41 -16 -102 -16q-203 0 -293 99t-90 238
q0 166 189 301h528v9zM719 1366l-555 307l57 115l408 39l219 -402z" />
    <glyph glyph-name="aacute" unicode="&#xe1;" horiz-adv-x="1388" 
d="M807 469h-322q-23 -37 -22.5 -82t34 -72.5t93.5 -27.5q96 0 217 78v104zM807 627q1 211 -235 211q-118 0 -373 -99l-62 127l283 228q109 35 256 34q242 0 376 -108.5t134 -314.5v-484l184 -71l-74 -150h-489v178l-232 -182q-41 -16 -102 -16q-203 0 -293 99t-90 238
q0 166 189 301h528v9zM1149 1673l-555 -307l-127 59l219 402l408 -39z" />
    <glyph glyph-name="acircumflex" unicode="&#xe2;" horiz-adv-x="1388" 
d="M807 469h-322q-23 -37 -22.5 -82t34 -72.5t93.5 -27.5q96 0 217 78v104zM807 627q1 211 -235 211q-118 0 -373 -99l-62 127l283 228q109 35 256 34q242 0 376 -108.5t134 -314.5v-484l184 -71l-74 -150h-489v178l-232 -182q-41 -16 -102 -16q-203 0 -293 99t-90 238
q0 166 189 301h528v9zM1143 1393l-406 -39l-145 239l-373 -239l-84 137l506 326l557 -308z" />
    <glyph glyph-name="atilde" unicode="&#xe3;" horiz-adv-x="1388" 
d="M807 469h-322q-23 -37 -22.5 -82t34 -72.5t93.5 -27.5q96 0 217 78v104zM807 627q1 211 -235 211q-118 0 -373 -99l-62 127l283 228q109 35 256 34q242 0 376 -108.5t134 -314.5v-484l184 -71l-74 -150h-489v178l-232 -182q-41 -16 -102 -16q-203 0 -293 99t-90 238
q0 166 189 301h528v9zM878 1679q44 0 89 29l114 74l84 -137l-481 -308q-96 98 -155.5 139.5t-103.5 41.5t-91 -29l-111 -72l-86 135l481 308q97 -97 156.5 -139t103.5 -42z" />
    <glyph glyph-name="adieresis" unicode="&#xe4;" horiz-adv-x="1388" 
d="M807 469h-322q-23 -37 -22.5 -82t34 -72.5t93.5 -27.5q96 0 217 78v104zM807 627q1 211 -235 211q-118 0 -373 -99l-62 127l283 228q109 35 256 34q242 0 376 -108.5t134 -314.5v-484l184 -71l-74 -150h-489v178l-232 -182q-41 -16 -102 -16q-203 0 -293 99t-90 238
q0 166 189 301h528v9zM752 1541q0 68 37.5 118.5t96 80t126 29.5t120 -54t52.5 -123.5t-38 -119t-95.5 -79t-125 -29.5t-120.5 54.5t-53 122.5zM131 1541q0 68 38 118.5t96.5 80t126 29.5t119.5 -54t52 -123.5t-38 -119t-95 -79t-124.5 -29.5t-121 54.5t-53.5 122.5z" />
    <glyph glyph-name="aring" unicode="&#xe5;" horiz-adv-x="1388" 
d="M807 469h-322q-23 -37 -22.5 -82t34 -72.5t93.5 -27.5q96 0 217 78v104zM807 627q1 211 -235 211q-118 0 -373 -99l-62 127l283 228q109 35 256 34q242 0 376 -108.5t134 -314.5v-484l184 -71l-74 -150h-489v178l-232 -182q-41 -16 -102 -16q-203 0 -293 99t-90 238
q0 166 189 301h528v9zM610 1686q-78 0 -78 -69t44.5 -114t123.5 -45q35 0 55.5 18.5t20.5 51.5q0 68 -44 113t-122 45zM1020 1616q0 -84 -67.5 -150.5t-171 -106.5t-213 -40t-193.5 62.5t-84 146.5t67.5 150.5t170 106.5t214 40t194.5 -62.5t83 -146.5z" />
    <glyph glyph-name="ae" unicode="&#xe6;" horiz-adv-x="1959" 
d="M614 252v-2q93 0 197 45q-31 80 -37 172h-285q-23 -37 -23 -89t40 -89q39 -37 108 -37zM1312 870q-78 0 -115 -56q-36 -56 -40 -173h320q-11 117 -49 173t-116 56zM92 315q0 166 189 301h491v9q0 106 -53 158t-141 53q-133 0 -377 -99l-62 127l283 228q100 35 240 34
q254 0 376 -135q185 139 375 137l4 -2q211 0 326 -167t110 -470h-688q21 -109 77 -173t144 -64q135 0 402 119l61 -127l-288 -232q-123 -35 -267 -35q-265 0 -409 187l-213 -170q-76 -16 -197 -17q-203 -1 -293 99t-90 239z" />
    <glyph glyph-name="ccedilla" unicode="&#xe7;" horiz-adv-x="1323" 
d="M510 599.5q0 -139.5 66.5 -242.5t196.5 -103t392 117l62 -127l-256 -205q-57 -57 -172 -156h-2q108 -61 147 -109t39 -110q0 -94 -112.5 -144t-346.5 -61v129q66 23 94.5 50.5t28.5 68.5t-24.5 73t-90.5 77q88 74 146 123h-31q-154 0 -276.5 70.5t-191 193.5t-68.5 280.5
t99 298t249.5 223t271.5 82.5t252 -23.5t193 -51.5v-400h-146q-163 219 -375 219q-68 0 -106.5 -66.5t-38.5 -206z" />
    <glyph glyph-name="egrave" unicode="&#xe8;" horiz-adv-x="1363" 
d="M687 872q-89 0 -131 -56t-46 -173h364q-12 117 -55 173t-132 56zM766 254q145 0 424 125l61 -127l-295 -238q-129 -35 -296 -34.5t-289.5 71t-191 193.5t-68.5 280.5t106.5 298t266 223t309.5 82.5q221 0 342.5 -166.5t117.5 -469.5h-731q23 -109 84.5 -173.5
t159.5 -64.5zM756 1366l-555 307l57 115l408 39l219 -402z" />
    <glyph glyph-name="eacute" unicode="&#xe9;" horiz-adv-x="1363" 
d="M687 872q-89 0 -131 -56t-46 -173h364q-12 117 -55 173t-132 56zM766 254q145 0 424 125l61 -127l-295 -238q-129 -35 -296 -34.5t-289.5 71t-191 193.5t-68.5 280.5t106.5 298t266 223t309.5 82.5q221 0 342.5 -166.5t117.5 -469.5h-731q23 -109 84.5 -173.5
t159.5 -64.5zM1186 1673l-555 -307l-127 59l219 402l407 -39z" />
    <glyph glyph-name="ecircumflex" unicode="&#xea;" horiz-adv-x="1363" 
d="M687 872q-89 0 -131 -56t-46 -173h364q-12 117 -55 173t-132 56zM766 254q145 0 424 125l61 -127l-295 -238q-129 -35 -296 -34.5t-289.5 71t-191 193.5t-68.5 280.5t106.5 298t266 223t309.5 82.5q221 0 342.5 -166.5t117.5 -469.5h-731q23 -109 84.5 -173.5
t159.5 -64.5zM1180 1393l-406 -39l-145 239l-373 -239l-84 137l506 326l557 -308z" />
    <glyph glyph-name="edieresis" unicode="&#xeb;" horiz-adv-x="1363" 
d="M687 872q-89 0 -131 -56t-46 -173h364q-12 117 -55 173t-132 56zM766 254q145 0 424 125l61 -127l-295 -238q-129 -35 -296 -34.5t-289.5 71t-191 193.5t-68.5 280.5t106.5 298t266 223t309.5 82.5q221 0 342.5 -166.5t117.5 -469.5h-731q23 -109 84.5 -173.5
t159.5 -64.5zM788 1541q0 68 38 118.5t96.5 80t126 29.5t120 -54t52.5 -123.5t-38 -119t-95.5 -79t-125 -29.5t-121 54.5t-53.5 122.5zM168 1541q0 68 38 118.5t96 80t126 29.5t120 -54t52 -123.5t-38 -119t-95 -79t-125 -29.5t-121 54.5t-53 122.5z" />
    <glyph glyph-name="igrave" unicode="&#xec;" horiz-adv-x="845" 
d="M80 0v131l182 156v436l-182 121v129l416 174h145v-938l184 -59l-73 -150h-672zM485 1366l-555 307l58 115l407 39l219 -402z" />
    <glyph glyph-name="iacute" unicode="&#xed;" horiz-adv-x="845" 
d="M80 0v131l182 156v436l-182 121v129l416 174h145v-938l184 -59l-73 -150h-672zM915 1673l-555 -307l-127 59l220 402l407 -39z" />
    <glyph glyph-name="icircumflex" unicode="&#xee;" horiz-adv-x="845" 
d="M80 0v131l182 156v436l-182 121v129l416 174h145v-938l184 -59l-73 -150h-672zM909 1393l-405 -39l-146 239l-372 -239l-84 137l506 326l557 -308z" />
    <glyph glyph-name="idieresis" unicode="&#xef;" horiz-adv-x="845" 
d="M80 0v131l182 156v436l-182 121v129l416 174h145v-938l184 -59l-73 -150h-672zM950 1591.5q0 -69.5 -38 -119t-95 -79t-124.5 -29.5t-121 54.5t-53.5 122.5t38 118.5t96.5 80t126 29.5t119.5 -54t52 -123.5zM71.5 1364q-67.5 0 -120.5 54.5t-53 122.5t37.5 118.5t96 80
t126 29.5t120 -54t52.5 -123.5t-38 -119t-95.5 -79t-125 -29.5z" />
    <glyph glyph-name="eth" unicode="&#xf0;" horiz-adv-x="1374" 
d="M641 872q-164 0 -164 -256q0 -174 70 -277t186 -103q92 -1 134 82t42 249t-41 305h-227zM1315 716q0 -202 -97 -369q-98 -167 -260 -267t-330 -100t-292 70t-197 193q-71 124 -71 272q0 149 99 289t257 230t324 94q-80 121 -199 218l-408 -222l-39 76l371 203
q-180 125 -412 180v131l373 94q201 -78 381 -219l402 219l43 -75l-373 -203q196 -176 312 -394t116 -420z" />
    <glyph glyph-name="ntilde" unicode="&#xf1;" horiz-adv-x="1540" 
d="M958 2v643q0 92 -27.5 131t-109 39t-180.5 -55v-549l184 -59l-73 -150h-672v131l182 156v430l-182 117v131l450 180l82 -229l242 194q55 16 129 16q162 0 258 -85t96 -230v-604l185 -57l-74 -150h-490zM972 1679q44 0 89 29l115 74l84 -137l-482 -308
q-96 98 -155.5 139.5t-103.5 41.5t-91 -29l-111 -72l-86 135l482 308q96 -97 155.5 -139t103.5 -42z" />
    <glyph glyph-name="ograve" unicode="&#xf2;" horiz-adv-x="1441" 
d="M674 872q-154 0 -154 -276q0 -146 64.5 -253t181.5 -107q156 0 156 258q0 166 -64.5 272t-183.5 106zM1331 583.5q0 -155.5 -106.5 -297t-267 -224t-312.5 -82.5t-274.5 70.5t-191 193.5t-68.5 280.5t106.5 298t266 223t312 82.5t275.5 -70.5t191.5 -194.5t68.5 -279.5z
M784 1366l-555 307l58 115l407 39l219 -402z" />
    <glyph glyph-name="oacute" unicode="&#xf3;" horiz-adv-x="1441" 
d="M674 872q-154 0 -154 -276q0 -146 64.5 -253t181.5 -107q156 0 156 258q0 166 -64.5 272t-183.5 106zM1331 583.5q0 -155.5 -106.5 -297t-267 -224t-312.5 -82.5t-274.5 70.5t-191 193.5t-68.5 280.5t106.5 298t266 223t312 82.5t275.5 -70.5t191.5 -194.5t68.5 -279.5z
M1214 1673l-555 -307l-127 59l220 402l407 -39z" />
    <glyph glyph-name="ocircumflex" unicode="&#xf4;" horiz-adv-x="1441" 
d="M674 872q-154 0 -154 -276q0 -146 64.5 -253t181.5 -107q156 0 156 258q0 166 -64.5 272t-183.5 106zM1331 583.5q0 -155.5 -106.5 -297t-267 -224t-312.5 -82.5t-274.5 70.5t-191 193.5t-68.5 280.5t106.5 298t266 223t312 82.5t275.5 -70.5t191.5 -194.5t68.5 -279.5z
M1208 1393l-405 -39l-146 239l-372 -239l-84 137l506 326l557 -308z" />
    <glyph glyph-name="otilde" unicode="&#xf5;" horiz-adv-x="1441" 
d="M674 872q-154 0 -154 -276q0 -146 64.5 -253t181.5 -107q156 0 156 258q0 166 -64.5 272t-183.5 106zM1331 583.5q0 -155.5 -106.5 -297t-267 -224t-312.5 -82.5t-274.5 70.5t-191 193.5t-68.5 280.5t106.5 298t266 223t312 82.5t275.5 -70.5t191.5 -194.5t68.5 -279.5z
M943 1679q44 0 89 29l115 74l84 -137l-481 -308q-96 98 -155.5 139.5t-104 41.5t-91.5 -29l-110 -72l-86 135l481 308q96 -97 155.5 -139t103.5 -42z" />
    <glyph glyph-name="odieresis" unicode="&#xf6;" horiz-adv-x="1441" 
d="M674 872q-154 0 -154 -276q0 -146 64.5 -253t181.5 -107q156 0 156 258q0 166 -64.5 272t-183.5 106zM1331 583.5q0 -155.5 -106.5 -297t-267 -224t-312.5 -82.5t-274.5 70.5t-191 193.5t-68.5 280.5t106.5 298t266 223t312 82.5t275.5 -70.5t191.5 -194.5t68.5 -279.5z
M1249 1591.5q0 -69.5 -37.5 -119t-95 -79t-125 -29.5t-121 54.5t-53.5 122.5t38 118.5t96.5 80t126 29.5t119.5 -54t52 -123.5zM629 1591.5q0 -69.5 -38 -119t-95.5 -79t-125 -29.5t-120.5 54.5t-53 122.5t37.5 118.5t96 80t126 29.5t120 -54t52.5 -123.5z" />
    <glyph glyph-name="divide" unicode="&#xf7;" horiz-adv-x="1126" 
d="M82 717h962v-150h-962v150zM813 246q0 -76 -44 -130t-111 -87q-68 -33 -144 -33t-139 60t-63 135t43 131q44 56 112 88q68 33 129 32q95 0 156 -60t61 -136zM813 1092q0 -139 -155 -218q-68 -32 -144 -32t-139 60t-63 135t43 130q44 55 112 88t146 33t139 -60t61 -136z
" />
    <glyph glyph-name="oslash" unicode="&#xf8;" horiz-adv-x="1441" 
d="M918 489q0 117 -31 205l-244 -422q51 -39 121 -39l-2 -2q156 0 156 258zM670 870q-72 0 -112 -64.5t-40 -185t31 -210.5l244 421q-51 39 -123 39zM1329 581.5q0 -153.5 -106.5 -295t-267 -224t-310.5 -82.5q-80 0 -158 22l-182 -317l-131 73l176 305q-113 72 -176 192
t-63 273.5t106.5 294t266 223t309.5 82.5q82 0 159 -22l185 319l129 -75l-176 -303l-3 -3q113 -71 177.5 -190t64.5 -272.5z" />
    <glyph glyph-name="ugrave" unicode="&#xf9;" horiz-adv-x="1482" 
d="M897 0v166l-211 -172q-55 -16 -129 -17q-162 0 -258 85t-96 231v424l-183 104v129l418 180h144v-667q0 -92 27.5 -131t109.5 -39t180 55v369l-182 104v129l416 180h145v-921l182 -59l-76 -150h-487zM823 1366l-555 307l58 115l407 39l219 -402z" />
    <glyph glyph-name="uacute" unicode="&#xfa;" horiz-adv-x="1482" 
d="M897 0v166l-211 -172q-55 -16 -129 -17q-162 0 -258 85t-96 231v424l-183 104v129l418 180h144v-667q0 -92 27.5 -131t109.5 -39t180 55v369l-182 104v129l416 180h145v-921l182 -59l-76 -150h-487zM1253 1673l-555 -307l-127 59l220 402l407 -39z" />
    <glyph glyph-name="ucircumflex" unicode="&#xfb;" horiz-adv-x="1482" 
d="M897 0v166l-211 -172q-55 -16 -129 -17q-162 0 -258 85t-96 231v424l-183 104v129l418 180h144v-667q0 -92 27.5 -131t109.5 -39t180 55v369l-182 104v129l416 180h145v-921l182 -59l-76 -150h-487zM1247 1393l-405 -39l-146 239l-372 -239l-84 137l505 326l558 -308z
" />
    <glyph glyph-name="udieresis" unicode="&#xfc;" horiz-adv-x="1482" 
d="M897 0v166l-211 -172q-55 -16 -129 -17q-162 0 -258 85t-96 231v424l-183 104v129l418 180h144v-667q0 -92 27.5 -131t109.5 -39t180 55v369l-182 104v129l416 180h145v-921l182 -59l-76 -150h-487zM856 1541q0 68 38 118.5t96.5 80t126 29.5t119.5 -54t52 -123.5
t-38 -119t-95 -79t-124.5 -29.5t-121 54.5t-53.5 122.5zM236 1541q0 68 37.5 118.5t96 80t126 29.5t120 -54t52.5 -123.5t-38 -119t-95.5 -79t-125 -29.5t-120.5 54.5t-53 122.5z" />
    <glyph glyph-name="yacute" unicode="&#xfd;" horiz-adv-x="1351" 
d="M1307 1108v-131l-529 -977l-497 -541l-146 111q150 180 210.5 311t70.5 295l-226 549l-204 119v131l483 172l78 -309l217 -523l233 447l-299 196l74 150h535zM1157 1673l-555 -307l-127 59l219 402l408 -39z" />
    <glyph glyph-name="thorn" unicode="&#xfe;" horiz-adv-x="1529" 
d="M600 449q0 -91 67 -151t189 -60q166 0 166 258q0 143 -48 236t-143 93q-125 0 -231 -59v-317zM39 -520v129l182 158v1597l-182 121v131l416 172h145v-846l213 170q67 16 175 16t212 -70t162 -195q58 -123 59 -279q0 -156 -106 -297t-267 -225t-311 -82v2q-74 -1 -137 34
v-307l320 -82l-74 -147h-807z" />
    <glyph glyph-name="ydieresis" unicode="&#xff;" horiz-adv-x="1351" 
d="M1307 1108v-131l-529 -977l-497 -541l-146 111q150 180 210.5 311t70.5 295l-226 549l-204 119v131l483 172l78 -309l217 -523l233 447l-299 196l74 150h535zM762 1541q0 68 38 118.5t96 80t126 29.5t120 -54t52 -123.5t-38 -119t-95 -79t-125 -29.5t-121 54.5t-53 122.5
zM141 1541q0 68 38 118.5t96.5 80t126 29.5t119.5 -54t52 -123.5t-37.5 -119t-95 -79t-125 -29.5t-121 54.5t-53.5 122.5z" />
    <glyph glyph-name="Amacron" unicode="&#x100;" horiz-adv-x="1902" 
d="M852 1300l-238 -583h476zM1040 0v131l234 131l-115 281h-616l-99 -242l301 -151l-73 -150h-674v131l231 172l508 1241l398 105l573 -1399l211 -100l-74 -150h-805zM406 2161h1071v-174h-1071v174z" />
    <glyph glyph-name="amacron" unicode="&#x101;" horiz-adv-x="1388" 
d="M807 469h-322q-23 -37 -22.5 -82t34 -72.5t93.5 -27.5q96 0 217 78v104zM807 627q1 211 -235 211q-118 0 -373 -99l-62 127l283 228q109 35 256 34q242 0 376 -108.5t134 -314.5v-484l184 -71l-74 -150h-489v178l-232 -182q-41 -16 -102 -16q-203 0 -293 99t-90 238
q0 166 189 301h528v9zM162 1659h989v-152h-989v152z" />
    <glyph glyph-name="Abreve" unicode="&#x102;" horiz-adv-x="1902" 
d="M852 1300l-238 -583h476zM1040 0v131l234 131l-115 281h-616l-99 -242l301 -151l-73 -150h-674v131l231 172l508 1241l398 105l573 -1399l211 -100l-74 -150h-805zM911.5 1837q-130.5 0 -266 61.5t-201.5 167.5l324 254q60 -221 233 -221q115 0 142 103l323 118
q-22 -131 -107 -242.5t-201 -176t-246.5 -64.5z" />
    <glyph glyph-name="abreve" unicode="&#x103;" horiz-adv-x="1388" 
d="M807 469h-322q-23 -37 -22.5 -82t34 -72.5t93.5 -27.5q96 0 217 78v104zM807 627q1 211 -235 211q-118 0 -373 -99l-62 127l283 228q109 35 256 34q242 0 376 -108.5t134 -314.5v-484l184 -71l-74 -150h-489v178l-232 -182q-41 -16 -102 -16q-203 0 -293 99t-90 238
q0 166 189 301h528v9zM627 1335q-131 0 -266.5 61.5t-200.5 168.5l323 254q61 -222 234 -222q55 0 92 27t49 76l324 119q-23 -131 -108 -243t-200.5 -176.5t-246.5 -64.5z" />
    <glyph glyph-name="Aogonek" unicode="&#x104;" horiz-adv-x="1902" 
d="M852 1300l-238 -583h476zM1759 -201q0 -35 23.5 -51t77.5 -18v-146l-158 -125q-152 25 -232.5 86.5t-80.5 153.5q0 57 16 86l266 215h-631v131l234 131l-115 281h-616l-99 -242l301 -151l-73 -150h-674v131l231 172l508 1241l398 105l573 -1399l211 -100l-73 -149l1 -1
q-88 -135 -88 -201z" />
    <glyph glyph-name="aogonek" unicode="&#x105;" horiz-adv-x="1388" 
d="M807 469h-322q-23 -37 -22.5 -82t34 -72.5t93.5 -27.5q96 0 217 78v104zM807 627q1 211 -235 211q-118 0 -373 -99l-62 127l283 228q109 35 256 34q242 0 376 -108.5t134 -314.5v-484l184 -71l-74 -150q-88 -135 -88 -201q0 -35 23.5 -51t77.5 -18v-146l-158 -125
q-152 25 -232.5 86.5t-80.5 153.5q0 57 16 86l266 215h-313v178l-232 -182q-41 -16 -102 -16q-203 0 -293 99t-90 238q0 166 189 301h528v9z" />
    <glyph glyph-name="Cacute" unicode="&#x106;" horiz-adv-x="1724" 
d="M1583 1108h-227q-154 287 -418 287q-106 0 -194.5 -69t-139.5 -189.5t-51 -280.5t51 -300t156.5 -223t278.5 -83t524 188l88 -141l-377 -293q-157 -45 -378.5 -45t-403 104.5t-281.5 288t-100 420t149.5 440t372.5 321.5t424 118q123 0 286.5 -31t239.5 -66v-446z
M1417 2175l-555 -307l-127 59l219 402l408 -39z" />
    <glyph glyph-name="cacute" unicode="&#x107;" horiz-adv-x="1323" 
d="M510 599.5q0 -139.5 66.5 -242.5t196.5 -103t392 117l62 -127l-287 -230q-123 -35 -285 -34.5t-284.5 71t-191 193.5t-68.5 280.5t99 298t249.5 223t271.5 82.5t252 -23.5t193 -51.5v-400h-146q-163 219 -375 219q-68 0 -106.5 -66.5t-38.5 -206zM1176 1673l-555 -307
l-127 59l219 402l407 -39z" />
    <glyph glyph-name="Cdotaccent" unicode="&#x10a;" horiz-adv-x="1724" 
d="M1583 1108h-227q-154 287 -418 287q-106 0 -194.5 -69t-139.5 -189.5t-51 -280.5t51 -300t156.5 -223t278.5 -83t524 188l88 -141l-377 -293q-157 -45 -378.5 -45t-403 104.5t-281.5 288t-100 420t149.5 440t372.5 321.5t424 118q123 0 286.5 -31t239.5 -66v-446z
M1169 2070.5q0 -75.5 -44 -130t-110.5 -87t-144 -32.5t-140 60.5t-62.5 136t44 130t111.5 87t128.5 32.5q97 0 157 -60.5t60 -136z" />
    <glyph glyph-name="cdotaccent" unicode="&#x10b;" horiz-adv-x="1323" 
d="M510 599.5q0 -139.5 66.5 -242.5t196.5 -103t392 117l62 -127l-287 -230q-123 -35 -285 -34.5t-284.5 71t-191 193.5t-68.5 280.5t99 298t249.5 223t271.5 82.5t252 -23.5t193 -51.5v-400h-146q-163 219 -375 219q-68 0 -106.5 -66.5t-38.5 -206zM928 1569
q0 -76 -44 -130.5t-110.5 -87t-144.5 -32.5t-140.5 60.5t-62.5 136t44 130t111.5 87t146.5 32.5t139.5 -60t60.5 -136z" />
    <glyph glyph-name="Ccaron" unicode="&#x10c;" horiz-adv-x="1724" 
d="M1583 1108h-227q-154 287 -418 287q-106 0 -194.5 -69t-139.5 -189.5t-51 -280.5t51 -300t156.5 -223t278.5 -83t524 188l88 -141l-377 -293q-157 -45 -378.5 -45t-403 104.5t-281.5 288t-100 420t149.5 440t372.5 321.5t424 118q123 0 286.5 -31t239.5 -66v-446z
M938 1866l-557 309l57 115l404 39l145 -240l373 240l84 -136z" />
    <glyph glyph-name="ccaron" unicode="&#x10d;" horiz-adv-x="1323" 
d="M510 599.5q0 -139.5 66.5 -242.5t196.5 -103t392 117l62 -127l-287 -230q-123 -35 -285 -34.5t-284.5 71t-191 193.5t-68.5 280.5t99 298t249.5 223t271.5 82.5t252 -23.5t193 -51.5v-400h-146q-163 219 -375 219q-68 0 -106.5 -66.5t-38.5 -206zM696 1364l-557 309
l58 115l403 39l145 -240l373 240l84 -135z" />
    <glyph glyph-name="Dcaron" unicode="&#x10e;" horiz-adv-x="1904" 
d="M1354 756.5q0 174.5 -56.5 331.5t-172 250.5t-287.5 93.5q-80 0 -150 -41v-1176q94 -35 219 -35l2 -2q123 0 225.5 74t161 202t58.5 302.5zM1794 837q0 -230 -149.5 -428t-371.5 -313.5t-423 -115.5q-90 0 -182 10q-154 10 -236 10h-342v131l193 152v1110l-230 69l74 148
h303q188 0 346 10t219 10q236 0 418 -101.5t281.5 -281.5t99.5 -410zM877 1866l-558 309l58 115l403 39l146 -240l372 240l84 -136z" />
    <glyph glyph-name="dcaron" unicode="&#x10f;" horiz-adv-x="1511" 
d="M674 870q-164 0 -164 -258q0 -143 52 -236t153 -93l-2 2q119 0 217 49v368q-12 74 -78 121t-178 47zM930 -2v154l-197 -158q-66 -16 -176 -16t-218 70q-108 71 -168 195q-60 125 -60 281t106 296t266 223t310 83q74 0 137 -34v272l-182 121v131l415 172h146v-1579
l184 -62l-74 -149h-489zM1868 1423l-228 -252l-145 111q37 86 49 172l-114 80v131l294 123l144 2v-367z" />
    <glyph glyph-name="Dcroat" unicode="&#x110;" horiz-adv-x="1904" 
d="M1354 756.5q0 174.5 -56.5 331.5t-172 250.5t-287.5 93.5q-80 0 -150 -41v-510h289v-142h-289v-524q94 -35 219 -35l2 -2q123 0 225.5 74t161 202t58.5 302.5zM1794 837q0 -230 -149.5 -428t-371.5 -313.5t-423 -115.5q-90 0 -182 10q-154 10 -236 10h-342v131l193 152
v456h-174v142h174v512l-230 69l74 148h303q188 0 346 10t219 10q236 0 418 -101.5t281.5 -281.5t99.5 -410z" />
    <glyph glyph-name="dcroat" unicode="&#x111;" horiz-adv-x="1511" 
d="M674 870q-164 0 -164 -258q0 -143 52 -236t153 -93l-2 2q119 0 217 49v368q-12 74 -78 121t-178 47zM930 -2v154l-197 -158q-66 -16 -176 -16t-218 70q-108 71 -168 195q-60 125 -60 281t106 296t266 223t310 83q74 0 137 -34v241h-408v150h408v231l233 98h146v-329h202
v-150l-202 -2v-1124l184 -60l-74 -149h-489z" />
    <glyph glyph-name="Emacron" unicode="&#x112;" horiz-adv-x="1683" 
d="M90 0v131l193 152v1114l-230 65l74 148h1255l160 37v-537l-129 -55l-254 379h-471v-525h221l150 221h131v-589l-150 -74l-135 268h-217v-559h453l293 420l129 -53v-580l-160 37h-1313zM332 2161h1071v-174h-1071v174z" />
    <glyph glyph-name="emacron" unicode="&#x113;" horiz-adv-x="1363" 
d="M687 872q-89 0 -131 -56t-46 -173h364q-12 117 -55 173t-132 56zM766 254q145 0 424 125l61 -127l-295 -238q-129 -35 -296 -34.5t-289.5 71t-191 193.5t-68.5 280.5t106.5 298t266 223t309.5 82.5q221 0 342.5 -166.5t117.5 -469.5h-731q23 -109 84.5 -173.5
t159.5 -64.5zM199 1659h989v-152h-989v152z" />
    <glyph glyph-name="Edotaccent" unicode="&#x116;" horiz-adv-x="1683" 
d="M90 0v131l193 152v1114l-230 65l74 148h1255l160 37v-537l-129 -55l-254 379h-471v-525h221l150 221h131v-589l-150 -74l-135 268h-217v-559h453l293 420l129 -53v-580l-160 37h-1313zM1112 2070.5q0 -75.5 -44 -130t-110.5 -87t-144.5 -32.5t-140.5 60.5t-62.5 136
t44 130t112 87t146.5 32.5t139 -60.5t60.5 -136z" />
    <glyph glyph-name="edotaccent" unicode="&#x117;" horiz-adv-x="1363" 
d="M687 872q-89 0 -131 -56t-46 -173h364q-12 117 -55 173t-132 56zM766 254q145 0 424 125l61 -127l-295 -238q-129 -35 -296 -34.5t-289.5 71t-191 193.5t-68.5 280.5t106.5 298t266 223t309.5 82.5q221 0 342.5 -166.5t117.5 -469.5h-731q23 -109 84.5 -173.5
t159.5 -64.5zM938 1569q0 -76 -44 -130.5t-110.5 -87t-144.5 -32.5t-140.5 60.5t-62.5 136t44 130t111.5 87t146.5 32.5t139.5 -60t60.5 -136z" />
    <glyph glyph-name="Eogonek" unicode="&#x118;" horiz-adv-x="1683" 
d="M1391 -188q0 -48 23.5 -64t76.5 -18v-146l-158 -125q-152 25 -232.5 86.5t-80.5 153.5q0 57 16 86l267 215h-1213v131l193 152v1114l-230 65l74 148h1255l160 37v-537l-129 -55l-254 379h-471v-525h221l150 221h131v-589l-150 -74l-135 268h-217v-559h453l293 420
l129 -53v-580l-95 21q-77 -124 -77 -172z" />
    <glyph glyph-name="eogonek" unicode="&#x119;" horiz-adv-x="1363" 
d="M689 872q-89 0 -131 -56t-46 -173h365q-12 117 -55.5 173t-132.5 56zM768 254q145 0 424 125l61 -127l-284 -229q-143 -125 -144 -218q0 -41 33 -57t115 -18v-146l-156 -125q-145 25 -226 84.5t-81 134t16 107.5l201 197q-29 -2 -80 -2q-154 0 -276.5 70.5t-191 193.5
t-68.5 280.5t106.5 298t266 223t309.5 82.5h2q221 0 343 -166.5t117 -469.5h-731q23 -109 84.5 -173.5t159.5 -64.5z" />
    <glyph glyph-name="Ecaron" unicode="&#x11a;" horiz-adv-x="1683" 
d="M90 0v131l193 152v1114l-230 65l74 148h1255l160 37v-537l-129 -55l-254 379h-471v-525h221l150 221h131v-589l-150 -74l-135 268h-217v-559h453l293 420l129 -53v-580l-160 37h-1313zM881 1866l-557 309l57 115l403 39l146 -240l373 240l83 -136z" />
    <glyph glyph-name="ecaron" unicode="&#x11b;" horiz-adv-x="1363" 
d="M687 872q-89 0 -131 -56t-46 -173h364q-12 117 -55 173t-132 56zM766 254q145 0 424 125l61 -127l-295 -238q-129 -35 -296 -34.5t-289.5 71t-191 193.5t-68.5 280.5t106.5 298t266 223t309.5 82.5q221 0 342.5 -166.5t117.5 -469.5h-731q23 -109 84.5 -173.5
t159.5 -64.5zM707 1364l-557 309l57 115l403 39l146 -240l372 240l84 -135z" />
    <glyph glyph-name="Gbreve" unicode="&#x11e;" horiz-adv-x="1947" 
d="M113 769q0 237 158.5 440.5t395 321.5t449.5 118q133 0 309.5 -31t257.5 -66v-514h-227q-170 354 -459 355q-123 0 -224 -69t-159.5 -189.5t-58.5 -284.5t57.5 -311.5t176 -235.5t292.5 -88h73q63 0 134 8v381l-332 80l74 147h858v-129l-192 -170v-165l55 -134l-377 -231
q-161 -45 -410 -45t-442.5 104.5t-301 287.5t-107.5 420zM983 1837q-131 0 -266 61.5t-201 167.5l324 254q60 -221 233 -221q116 0 141 103l324 118q-22 -131 -107 -242.5t-201 -176t-247 -64.5z" />
    <glyph glyph-name="gbreve" unicode="&#x11f;" horiz-adv-x="1310" 
d="M653 559q123 0 123 109q0 92 -60.5 146t-160.5 54q-119 0 -119 -104q0 -90 60.5 -147.5t156.5 -57.5zM1143 764q0 -123 -105.5 -237.5t-261.5 -174.5q-55 -66 -55 -123q0 -29 44 -56.5t159.5 -79.5t190.5 -105.5t75 -121t-83 -165.5t-206 -171t-245.5 -73t-299 39
t-293.5 78v381h144q94 -133 193.5 -201.5t224.5 -68.5q63 0 106 23.5t43 60t-52 72.5t-164 86t-172 92t-60 95.5t78.5 104.5t187.5 90q-18 -2 -55 -2q-127 0 -235.5 50.5t-171 133t-62.5 188.5t90 212t231 171.5t299 65.5t285 -81h344v-156h-203q29 -61 29 -127zM596 1335
q-131 0 -266 61.5t-201 168.5l324 254q61 -222 233 -222q55 0 92 27t49 76l324 119q-23 -131 -108 -243t-200.5 -176.5t-246.5 -64.5z" />
    <glyph glyph-name="Gdotaccent" unicode="&#x120;" horiz-adv-x="1947" 
d="M113 769q0 237 158.5 440.5t395 321.5t449.5 118q133 0 309.5 -31t257.5 -66v-514h-227q-170 354 -459 355q-123 0 -224 -69t-159.5 -189.5t-58.5 -284.5t57.5 -311.5t176 -235.5t292.5 -88h73q63 0 134 8v381l-332 80l74 147h858v-129l-192 -170v-165l55 -134l-377 -231
q-161 -45 -410 -45t-442.5 104.5t-301 287.5t-107.5 420zM1257 2070.5q0 -75.5 -44 -130t-110.5 -87t-144 -32.5t-140 60.5t-62.5 136t44 130t111.5 87t128.5 32.5q97 0 157 -60.5t60 -136z" />
    <glyph glyph-name="gdotaccent" unicode="&#x121;" horiz-adv-x="1310" 
d="M653 559q123 0 123 109q0 92 -60.5 146t-160.5 54q-119 0 -119 -104q0 -90 60.5 -147.5t156.5 -57.5zM1143 764q0 -123 -105.5 -237.5t-261.5 -174.5q-55 -66 -55 -123q0 -29 44 -56.5t159.5 -79.5t190.5 -105.5t75 -121t-83 -165.5t-206 -171t-245.5 -73t-299 39
t-293.5 78v381h144q94 -133 193.5 -201.5t224.5 -68.5q63 0 106 23.5t43 60t-52 72.5t-164 86t-172 92t-60 95.5t78.5 104.5t187.5 90q-18 -2 -55 -2q-127 0 -235.5 50.5t-171 133t-62.5 188.5t90 212t231 171.5t299 65.5t285 -81h344v-156h-203q29 -61 29 -127zM870 1569
q0 -76 -44 -130.5t-110.5 -87t-144 -32.5t-140 60.5t-62.5 136t44 130t111.5 87t146.5 32.5t139 -60t60 -136z" />
    <glyph glyph-name="Gcommaaccent" unicode="&#x122;" horiz-adv-x="1947" 
d="M113 769q0 237 158.5 440.5t395 321.5t449.5 118q133 0 309.5 -31t257.5 -66v-514h-227q-170 354 -459 355q-123 0 -224 -69t-159.5 -189.5t-58.5 -284.5t57.5 -311.5t176 -235.5t292.5 -88h73q63 0 134 8v381l-332 80l74 147h858v-129l-192 -170v-165l55 -134l-377 -231
q-161 -45 -410 -45t-442.5 104.5t-301 287.5t-107.5 420zM1321 -170v-131l-262 -322h-195l62 205l-187 99l76 149h506z" />
    <glyph glyph-name="gcommaaccent" unicode="&#x123;" horiz-adv-x="1310" 
d="M653 559q123 0 123 109q0 92 -60.5 146t-160.5 54q-119 0 -119 -104q0 -90 60.5 -147.5t156.5 -57.5zM1143 764q0 -123 -105.5 -237.5t-261.5 -174.5q-55 -66 -55 -123q0 -29 44 -56.5t159.5 -79.5t190.5 -105.5t75 -121t-83 -165.5t-206 -171t-245.5 -73t-299 39
t-293.5 78v381h144q94 -133 193.5 -201.5t224.5 -68.5q63 0 106 23.5t43 60t-52 72.5t-164 86t-172 92t-60 95.5t78.5 104.5t187.5 90q-18 -2 -55 -2q-127 0 -235.5 50.5t-171 133t-62.5 188.5t90 212t231 171.5t299 65.5t285 -81h344v-156h-203q29 -61 29 -127zM340 1438
v131l262 321h195l-62 -204l187 -99l-76 -149h-506z" />
    <glyph glyph-name="Hbar" unicode="&#x126;" horiz-adv-x="2037" 
d="M688 1067v-178h660v178h-660zM1155 0v131l193 166v418h-660v-502l232 -63l-74 -150h-756v131l193 166v770h-283v174h283v158l-230 63l74 148h756v-129l-195 -168v-72h660v158l-230 63l74 148h756v-129l-195 -168v-72h283v-174h-283v-854l232 -63l-74 -150h-756z" />
    <glyph glyph-name="hbar" unicode="&#x127;" horiz-adv-x="1499" 
d="M918 0v643q0 92 -28 131t-109.5 39t-180.5 -55v-549l184 -59l-73 -150h-672v131l182 156v1046h-221v150h221v229l234 100h145v-329h389v-150h-389v-393l213 172q55 16 129 16q162 0 258 -85t96 -230v-604l185 -59l-74 -150h-489z" />
    <glyph glyph-name="Imacron" unicode="&#x12a;" horiz-adv-x="972" 
d="M90 0v131l193 166v1102l-230 63l74 148h756v-129l-195 -168v-1100l232 -63l-74 -150h-756zM-49 2161h1071v-174h-1071v174z" />
    <glyph glyph-name="imacron" unicode="&#x12b;" horiz-adv-x="845" 
d="M80 0v131l182 156v436l-182 121v129l416 174h145v-938l184 -59l-73 -150h-672zM-72 1659h990v-152h-990v152z" />
    <glyph glyph-name="Iogonek" unicode="&#x12e;" horiz-adv-x="972" 
d="M387 -301q0 57 16 86l267 215h-580v131l193 166v1102l-230 63l74 148h756v-129l-195 -168v-1100l232 -63l-74 -150q-88 -135 -88 -201q0 -35 23.5 -51t76.5 -18v-146l-158 -125q-152 25 -232.5 86.5t-80.5 153.5z" />
    <glyph glyph-name="iogonek" unicode="&#x12f;" horiz-adv-x="845" 
d="M293 -301q0 57 16 86l266 215h-495v131l182 156v436l-182 121v129l416 174h145v-938l184 -59l-73 -150q-88 -135 -88 -201q0 -35 23.5 -51t76.5 -18v-146l-158 -125q-152 25 -232.5 86.5t-80.5 153.5zM166 1515.5q0 75.5 44 130t111.5 87t146.5 32.5t139.5 -60t60.5 -136
t-44 -130.5t-111 -87t-144.5 -32.5t-140 60.5t-62.5 136z" />
    <glyph glyph-name="Idotaccent" unicode="&#x130;" horiz-adv-x="972" 
d="M90 0v131l193 166v1102l-230 63l74 148h756v-129l-195 -168v-1100l232 -63l-74 -150h-756zM731 2070.5q0 -75.5 -44 -130t-110.5 -87t-144 -32.5t-140.5 60.5t-63 136t44 130t112 87t146.5 32.5t139 -60.5t60.5 -136z" />
    <glyph glyph-name="dotlessi" unicode="&#x131;" horiz-adv-x="845" 
d="M80 0v131l182 156v436l-182 121v129l416 174h145v-938l184 -59l-73 -150h-672z" />
    <glyph glyph-name="Kcommaaccent" unicode="&#x136;" horiz-adv-x="1878" 
d="M1804 1610v-129l-647 -574l475 -657l219 -100l-73 -150h-455l-567 807l579 512l-239 143l73 148h635zM90 0v131l193 166v1102l-230 63l74 148h756v-129l-195 -168v-1100l232 -63l-74 -150h-756zM1286 -170v-131l-262 -322h-195l62 205l-186 99l75 149h506z" />
    <glyph glyph-name="kcommaaccent" unicode="&#x137;" horiz-adv-x="1527" 
d="M1458 1108v-131l-407 -328l256 -420l206 -79l-73 -150h-447l-317 551l350 274l-264 133l74 150h622zM39 0v131l182 156v1077l-182 121v131l416 172h145v-1579l184 -59l-73 -150h-672zM1100 -170v-131l-262 -322h-195l62 205l-187 99l76 149h506z" />
    <glyph glyph-name="Lacute" unicode="&#x139;" horiz-adv-x="1638" 
d="M90 -2v131l193 152v1124l-230 57l74 148h756v-129l-195 -152v-1153h440l322 461l129 -53v-623l-160 37h-1329zM1006 2175l-555 -307l-127 59l219 402l407 -39z" />
    <glyph glyph-name="lacute" unicode="&#x13a;" horiz-adv-x="804" 
d="M39 0v131l182 156v1077l-182 121v131l416 172h145v-1579l184 -59l-73 -150h-672zM895 2251l-555 -307l-127 59l219 401l408 -39z" />
    <glyph glyph-name="Lcommaaccent" unicode="&#x13b;" horiz-adv-x="1638" 
d="M90 -2v131l193 152v1124l-230 57l74 148h756v-129l-195 -152v-1153h440l322 461l129 -53v-623l-160 37h-1329zM1141 -170v-131l-262 -322h-195l61 205l-186 99l76 149h506z" />
    <glyph glyph-name="lcommaaccent" unicode="&#x13c;" horiz-adv-x="804" 
d="M39 0v131l182 156v1077l-182 121v131l416 172h145v-1579l184 -59l-73 -150h-672zM690 -170v-131l-262 -322h-195l62 205l-186 99l75 149h506z" />
    <glyph glyph-name="Lcaron" unicode="&#x13d;" horiz-adv-x="1638" 
d="M90 -2v131l193 152v1124l-230 57l74 148h756v-129l-195 -152v-1153h440l322 461l129 -53v-623l-160 37h-1329zM1479 1245l-228 -252l-145 111q37 86 49 172l-115 80v131l295 123l144 2v-367z" />
    <glyph glyph-name="lcaron" unicode="&#x13e;" horiz-adv-x="804" 
d="M39 0v131l182 156v1077l-182 121v131l416 172h145v-1579l184 -59l-73 -150h-672zM1159 1423l-227 -252l-146 111q37 86 50 172l-115 80v131l295 123l143 2v-367z" />
    <glyph glyph-name="Ldot" unicode="&#x13f;" horiz-adv-x="1638" 
d="M90 -2v131l193 152v1124l-230 57l74 148h756v-129l-195 -152v-1153h440l322 461l129 -53v-623l-160 37h-1329zM1499 1080.5q0 -74.5 -44 -129t-110.5 -87.5t-144 -33t-140.5 59.5t-63 135t44 130t112 87.5t146.5 33t139 -60.5t60.5 -135z" />
    <glyph glyph-name="ldot" unicode="&#x140;" horiz-adv-x="1155" 
d="M39 0v131l182 156v1077l-182 121v131l416 172h145v-1579l184 -59l-73 -150h-672zM1233 877.5q0 -74.5 -44 -129t-110.5 -87t-144.5 -32.5t-140.5 59.5t-62.5 135t44 130t111.5 87t146.5 32.5t139.5 -60.5t60.5 -135z" />
    <glyph glyph-name="Lslash" unicode="&#x141;" horiz-adv-x="1605" 
d="M90 -4v131l193 152v264l-283 -224v117l283 223v744l-230 57l74 148h756v-129l-195 -152v-436l451 356v-117l-451 -356v-598h440l322 461l129 -53v-625l-160 37h-1329z" />
    <glyph glyph-name="lslash" unicode="&#x142;" horiz-adv-x="802" 
d="M39 -2v131l182 156v436l-295 -260v180l295 272v451l-182 121v131l416 172h145v-647l277 256v-201l-277 -254v-735l184 -60l-73 -149h-672z" />
    <glyph glyph-name="Nacute" unicode="&#x143;" horiz-adv-x="1857" 
d="M1630 -4h-196l-957 1057v-797l316 -109l-74 -149h-629v131l193 166v1036l-230 131l74 148h375l932 -1026v770l-312 108l74 148h629v-133l-195 -168v-1313zM1430 2175l-556 -307l-126 59l219 402l407 -39z" />
    <glyph glyph-name="nacute" unicode="&#x144;" horiz-adv-x="1540" 
d="M958 2v643q0 92 -27.5 131t-109 39t-180.5 -55v-549l184 -59l-73 -150h-672v131l182 156v430l-182 117v131l450 180l82 -229l242 194q55 16 129 16q162 0 258 -85t96 -230v-604l185 -57l-74 -150h-490zM1243 1673l-555 -307l-127 59l219 402l408 -39z" />
    <glyph glyph-name="Ncommaaccent" unicode="&#x145;" horiz-adv-x="1857" 
d="M1630 -4h-196l-957 1057v-797l316 -109l-74 -149h-629v131l193 166v1036l-230 131l74 148h375l932 -1026v770l-312 108l74 148h629v-133l-195 -168v-1313zM1225 -170v-131l-262 -322h-195l61 205l-186 99l76 149h506z" />
    <glyph glyph-name="ncommaaccent" unicode="&#x146;" horiz-adv-x="1540" 
d="M958 2v643q0 92 -27.5 131t-109 39t-180.5 -55v-549l184 -59l-73 -150h-672v131l182 156v430l-182 117v131l450 180l82 -229l242 194q55 16 129 16q162 0 258 -85t96 -230v-604l185 -57l-74 -150h-490zM1120 -170v-131l-262 -322h-194l61 205l-186 99l75 149h506z" />
    <glyph glyph-name="Ncaron" unicode="&#x147;" horiz-adv-x="1857" 
d="M1630 -4h-196l-957 1057v-797l316 -109l-74 -149h-629v131l193 166v1036l-230 131l74 148h375l932 -1026v770l-312 108l74 148h629v-133l-195 -168v-1313zM950 1866l-557 309l58 115l403 39l145 -240l373 240l84 -136z" />
    <glyph glyph-name="ncaron" unicode="&#x148;" horiz-adv-x="1540" 
d="M958 2v643q0 92 -27.5 131t-109 39t-180.5 -55v-549l184 -59l-73 -150h-672v131l182 156v430l-182 117v131l450 180l82 -229l242 194q55 16 129 16q162 0 258 -85t96 -230v-604l185 -57l-74 -150h-490zM764 1364l-557 309l57 115l404 39l145 -240l373 240l84 -135z" />
    <glyph glyph-name="Eng" unicode="&#x14a;" horiz-adv-x="1857" 
d="M1630 201q0 -191 19 -244l-486 -500l-143 111q220 243 264 399q22 80 19 174l-826 912v-797l316 -109l-74 -149h-629v131l193 166v1036l-230 131l74 148h375l932 -1026v770l-312 108l74 148h629v-129l-195 -170v-1110z" />
    <glyph glyph-name="eng" unicode="&#x14b;" horiz-adv-x="1529" 
d="M1337 205q0 -185 19 -244l-461 -500l-143 111q123 145 164.5 247.5t41.5 254.5v571q0 92 -27.5 131t-109 39t-180.5 -55v-549l184 -59l-73 -150h-672v131l182 156v430l-182 117v131l450 180l82 -229l242 194q55 16 129 16q162 0 258 -85t96 -230v-608z" />
    <glyph glyph-name="Omacron" unicode="&#x14c;" horiz-adv-x="1986" 
d="M553 851q0 -165 53 -312.5t163 -235.5t269 -88q109 0 199 68.5t143.5 189.5t53.5 285.5t-53.5 313.5t-164 236t-270.5 87q-108 0 -198.5 -69t-142.5 -189.5t-52 -285.5zM1876 836.5q0 -236.5 -152.5 -439t-378 -320.5t-445.5 -118t-403.5 103.5t-284.5 288t-101 421
t151.5 440t376.5 321.5t446.5 118t405.5 -104.5t284.5 -289t100.5 -421zM459 2161h1071v-174h-1071v174z" />
    <glyph glyph-name="omacron" unicode="&#x14d;" horiz-adv-x="1441" 
d="M674 872q-154 0 -154 -276q0 -146 64.5 -253t181.5 -107q156 0 156 258q0 166 -64.5 272t-183.5 106zM1331 583.5q0 -155.5 -106.5 -297t-267 -224t-312.5 -82.5t-274.5 70.5t-191 193.5t-68.5 280.5t106.5 298t266 223t312 82.5t275.5 -70.5t191.5 -194.5t68.5 -279.5z
M227 1659h990v-152h-990v152z" />
    <glyph glyph-name="Ohungarumlaut" unicode="&#x150;" horiz-adv-x="1986" 
d="M553 851q0 -165 53 -312.5t163 -235.5t269 -88q109 0 199 68.5t143.5 189.5t53.5 285.5t-53.5 313.5t-164 236t-270.5 87q-108 0 -198.5 -69t-142.5 -189.5t-52 -285.5zM1876 836.5q0 -236.5 -152.5 -439t-378 -320.5t-445.5 -118t-403.5 103.5t-284.5 288t-101 421
t151.5 440t376.5 321.5t446.5 118t405.5 -104.5t284.5 -289t100.5 -421zM1677 2107l-368 -231l-84 127l159 317l314 -39zM993 2107l-368 -231l-84 127l159 317l314 -39z" />
    <glyph glyph-name="ohungarumlaut" unicode="&#x151;" horiz-adv-x="1441" 
d="M674 872q-154 0 -154 -276q0 -146 64.5 -253t181.5 -107q156 0 156 258q0 166 -64.5 272t-183.5 106zM1331 583.5q0 -155.5 -106.5 -297t-267 -224t-312.5 -82.5t-274.5 70.5t-191 193.5t-68.5 280.5t106.5 298t266 223t312 82.5t275.5 -70.5t191.5 -194.5t68.5 -279.5z
M1495 1673l-471 -307l-129 59l158 402l387 -39zM868 1673l-473 -307l-129 59l158 402l387 -39z" />
    <glyph glyph-name="OE" unicode="&#x152;" horiz-adv-x="2539" 
d="M1059 180q80 0 149 41v1174q-94 35 -217 35t-223 -74t-158 -202t-57 -288l-2 2q0 -190 55 -347t170 -249t283 -92zM1466 0q-188 0 -346 -10t-219 -10q-233 0 -413 101q-179 101 -278 281t-99 410t148 429q149 197 369 313t419 116q90 0 182 -10q154 -10 235 -10h774
l160 37v-537l-129 -55l-254 379h-401v-525h155l162 221h131v-589l-149 -74l-148 268h-151v-559h383l293 420l129 -53v-580l-160 37h-793z" />
    <glyph glyph-name="oe" unicode="&#x153;" horiz-adv-x="2074" 
d="M1424 870q-78 0 -114 -56t-40 -173h319q-12 117 -49 173q-38 56 -116 56zM743 233q131 -1 131 277q0 146 -59 254t-164 106q-129 0 -129 -276q0 -146 58 -254t163 -107zM1018 139q-184 -159 -420 -159q-122 0 -240 70q-117 71 -182 194q-66 122 -66 280t103 298
q102 140 257 224t298 82q216 0 352 -161q92 77 201 119t207 42l2 -2q210 0 325 -167t111 -470h-688q20 -109 76 -173t145 -64q135 0 402 119l61 -127l-289 -232q-123 -35 -293 -35q-217 0 -362 162z" />
    <glyph glyph-name="Racute" unicode="&#x154;" horiz-adv-x="1759" 
d="M918 868q100 0 158.5 68t58.5 196.5t-73 216t-212 87.5q-88 0 -162 -52v-1169l232 -63l-74 -150h-756v131l193 166v1104l-230 61l74 148h371q174 0 321.5 10t206.5 10q162 0 288 -56t194.5 -153.5t68.5 -228.5t-123 -253t-305 -187l172 -47l250 -463l205 -92l-76 -150
h-463l-377 703l-88 53l55 110h91zM1339 2175l-555 -307l-127 59l220 402l407 -39z" />
    <glyph glyph-name="racute" unicode="&#x155;" horiz-adv-x="1196" 
d="M80 2v131l182 156v430l-182 117v131l450 180l78 -221l180 186q43 16 97 16q121 0 203.5 -52t115.5 -144l-213 -268h-145q-2 82 -19.5 115.5t-71 33.5t-114.5 -49v-533l320 -79l-74 -150h-807zM1147 1673l-555 -307l-127 59l219 402l408 -39z" />
    <glyph glyph-name="Rcommaaccent" unicode="&#x156;" horiz-adv-x="1759" 
d="M918 868q100 0 158.5 68t58.5 196.5t-73 216t-212 87.5q-88 0 -162 -52v-1169l232 -63l-74 -150h-756v131l193 166v1104l-230 61l74 148h371q174 0 321.5 10t206.5 10q162 0 288 -56t194.5 -153.5t68.5 -228.5t-123 -253t-305 -187l172 -47l250 -463l205 -92l-76 -150
h-463l-377 703l-88 53l55 110h91zM1239 -170v-131l-262 -322h-195l62 205l-187 99l76 149h506z" />
    <glyph glyph-name="rcommaaccent" unicode="&#x157;" horiz-adv-x="1196" 
d="M80 2v131l182 156v430l-182 117v131l450 180l78 -221l180 186q43 16 97 16q121 0 203.5 -52t115.5 -144l-213 -268h-145q-2 82 -19.5 115.5t-71 33.5t-114.5 -49v-533l320 -79l-74 -150h-807zM748 -170v-131l-263 -322h-194l61 205l-186 99l76 149h506z" />
    <glyph glyph-name="Rcaron" unicode="&#x158;" horiz-adv-x="1759" 
d="M918 868q100 0 158.5 68t58.5 196.5t-73 216t-212 87.5q-88 0 -162 -52v-1169l232 -63l-74 -150h-756v131l193 166v1104l-230 61l74 148h371q174 0 321.5 10t206.5 10q162 0 288 -56t194.5 -153.5t68.5 -228.5t-123 -253t-305 -187l172 -47l250 -463l205 -92l-76 -150
h-463l-377 703l-88 53l55 110h91zM860 1866l-557 309l57 115l404 39l145 -240l373 240l84 -136z" />
    <glyph glyph-name="rcaron" unicode="&#x159;" horiz-adv-x="1196" 
d="M80 2v131l182 156v430l-182 117v131l450 180l78 -221l180 186q43 16 97 16q121 0 203.5 -52t115.5 -144l-213 -268h-145q-2 82 -19.5 115.5t-71 33.5t-114.5 -49v-533l320 -79l-74 -150h-807zM668 1364l-557 309l57 115l403 39l146 -240l373 240l84 -135z" />
    <glyph glyph-name="Sacute" unicode="&#x15a;" horiz-adv-x="1433" 
d="M98 1151q0 102 96.5 220t236.5 199t269 81t318.5 -31t277.5 -66v-462h-229q-78 166 -178.5 258t-208.5 92q-72 0 -113 -46t-41 -115t49.5 -127t122 -106.5t211 -125t229.5 -138t155.5 -144.5t64.5 -184t-103.5 -219t-251 -199t-284 -81t-339 30.5t-292.5 65.5v465h227
q84 -166 198 -258t214 -92t150.5 47t50.5 111.5t-48.5 120t-118 101.5t-209 126t-231.5 142.5t-157.5 147.5t-65.5 187zM1190 2175l-555 -307l-127 59l219 402l408 -39z" />
    <glyph glyph-name="sacute" unicode="&#x15b;" horiz-adv-x="1144" 
d="M111 776.5q0 69.5 72.5 153.5t179 141t206 57t243.5 -23.5t210 -51.5v-348h-143q-51 94 -126 147t-153 53q-35 0 -54.5 -19.5t-19.5 -54t50.5 -71.5t159.5 -99.5t175 -106.5q160 -107 160 -218q0 -76 -75.5 -159t-185.5 -140t-213.5 -57t-262 23.5t-225.5 51.5v365h143
q59 -102 146 -159.5t173 -57.5q37 0 60.5 19.5t23.5 51t-48 67.5t-156 98t-176 107.5t-116 103t-48 127zM1087 1673l-555 -307l-126 59l219 402l407 -39z" />
    <glyph glyph-name="Scedilla" unicode="&#x15e;" horiz-adv-x="1433" 
d="M993 -334q0 -94 -112.5 -144t-345.5 -61v129q66 23 94 50.5t28 68.5t-24.5 73t-89.5 77l121 102q-150 6 -323 34t-253 58v465h227q84 -166 198 -258t214 -92t150.5 47t50.5 111.5t-48.5 120t-118 101.5t-209 126t-231.5 142.5t-157.5 147.5t-65.5 187t96.5 220t236.5 199
t269 81t318.5 -31t277.5 -66v-462h-229q-78 166 -178.5 258t-208.5 92q-72 0 -113 -46t-41 -115t49.5 -127t122 -106.5t211 -125t229.5 -138t155.5 -144.5t64.5 -183l-2 4q0 -76 -57.5 -162t-151.5 -162t-197 -123q-49 -47 -143 -129q109 -61 147.5 -109t38.5 -110z" />
    <glyph glyph-name="scedilla" unicode="&#x15f;" horiz-adv-x="1144" 
d="M862 -338q0 -94 -112.5 -144t-346.5 -61v129q66 23 94.5 50.5t28.5 68.5t-24.5 73t-89.5 77l145 125q-119 6 -253 28.5t-193 46.5v365h143q59 -102 146 -159.5t173 -57.5q37 0 60.5 19.5t23.5 51t-48 67.5t-156 98q-108 61 -176 107q-164 110 -164 226q0 74 72.5 158
t179 141t206 57t243.5 -23.5t210 -51.5v-348h-143q-51 94 -126 147t-153 53q-35 0 -54.5 -19.5t-19.5 -54t50.5 -71.5t159.5 -99.5t175 -106.5q160 -107 160 -218q0 -61 -52 -130t-134 -124l4 -2q-70 -74 -215 -199q109 -61 147.5 -109t38.5 -110z" />
    <glyph glyph-name="Scaron" unicode="&#x160;" horiz-adv-x="1433" 
d="M98 1151q0 102 96.5 220t236.5 199t269 81t318.5 -31t277.5 -66v-462h-229q-78 166 -178.5 258t-208.5 92q-72 0 -113 -46t-41 -115t49.5 -127t122 -106.5t211 -125t229.5 -138t155.5 -144.5t64.5 -184t-103.5 -219t-251 -199t-284 -81t-339 30.5t-292.5 65.5v465h227
q84 -166 198 -258t214 -92t150.5 47t50.5 111.5t-48.5 120t-118 101.5t-209 126t-231.5 142.5t-157.5 147.5t-65.5 187zM711 1866l-557 309l57 115l403 39l146 -240l373 240l84 -136z" />
    <glyph glyph-name="scaron" unicode="&#x161;" horiz-adv-x="1144" 
d="M111 776.5q0 69.5 72.5 153.5t179 141t206 57t243.5 -23.5t210 -51.5v-348h-143q-51 94 -126 147t-153 53q-35 0 -54.5 -19.5t-19.5 -54t50.5 -71.5t159.5 -99.5t175 -106.5q160 -107 160 -218q0 -76 -75.5 -159t-185.5 -140t-213.5 -57t-262 23.5t-225.5 51.5v365h143
q59 -102 146 -159.5t173 -57.5q37 0 60.5 19.5t23.5 51t-48 67.5t-156 98t-176 107.5t-116 103t-48 127zM608 1364l-557 309l58 115l403 39l145 -240l373 240l84 -135z" />
    <glyph glyph-name="uni0162" unicode="&#x162;" horiz-adv-x="1736" 
d="M1071 1436v-1209l6 11l90 -54l133 -32l-73 -150h-162q-47 -43 -131 -117q109 -61 147.5 -109t38.5 -110q0 -94 -112.5 -144t-345.5 -61v129q66 23 94 50.5t28 68.5t-24.5 73t-89.5 77q109 88 168 141h-367v131l193 152v1151h-168l-291 -420l-127 55v578l158 -37h1265
l162 39v-578l-129 -55l-291 420h-172z" />
    <glyph glyph-name="uni0163" unicode="&#x163;" horiz-adv-x="1032" 
d="M766 236q82 0 182 49l62 -127l-207 -164h-6q-43 -41 -125 -111l2 -2q108 -61 147 -109t39 -110q0 -94 -112.5 -144t-346.5 -61v129q66 23 94.5 50.5t28.5 68.5t-24.5 73t-89.5 77q98 82 147 125q-170 14 -250 102t-80 260v551h-221v119l457 485h143v-453h369v-151h-369
v-526q0 -131 160 -131z" />
    <glyph glyph-name="Tcaron" unicode="&#x164;" horiz-adv-x="1736" 
d="M1069 1434v-1227l231 -57l-73 -150h-756v131l193 152v1151h-168l-291 -420l-127 55v578l158 -37h1265l160 37v-578l-129 -55l-291 420h-172zM883 1866l-557 309l57 115l403 39l146 -240l373 240l84 -136z" />
    <glyph glyph-name="tcaron" unicode="&#x165;" horiz-adv-x="1032" 
d="M766 238q82 0 182 49l62 -127l-207 -164q-78 -16 -180 -16q-207 0 -301.5 89t-94.5 275v551h-221v119l457 485h143v-452h369v-152h-369v-526q0 -131 160 -131zM1165 1423l-227 -252l-145 111q37 86 49 172l-115 80v131l295 123l143 2v-367z" />
    <glyph glyph-name="Tbar" unicode="&#x166;" horiz-adv-x="1736" 
d="M1069 1434v-545h393v-174h-393v-508l231 -57l-73 -150h-756v131l193 152v432h-390v174h390v545h-168l-291 -420l-127 55v578l158 -37h1265l160 37v-578l-129 -55l-291 420h-172z" />
    <glyph glyph-name="tbar" unicode="&#x167;" horiz-adv-x="1032" 
d="M766 238q82 0 182 49l62 -127l-207 -164q-78 -16 -180 -16q-207 0 -301.5 89t-94.5 275v551h-221v119l457 485h143v-452h369v-152h-369v-526q0 -131 160 -131z" />
    <glyph glyph-name="Umacron" unicode="&#x16a;" horiz-adv-x="1839" 
d="M1616 635q0 -215 -107.5 -368.5t-268.5 -230.5t-337 -77t-335.5 81t-249 223.5t-89.5 320.5v821l-231 57l76 148h755v-129l-194 -152v-680q0 -207 106.5 -320.5t325.5 -113.5q82 0 165 49t136 143.5t53 221.5v743l-247 90l75 148h561v-129l-194 -152v-694zM412 2161h1071
v-174h-1071v174z" />
    <glyph glyph-name="umacron" unicode="&#x16b;" horiz-adv-x="1482" 
d="M897 0v166l-211 -172q-55 -16 -129 -17q-162 0 -258 85t-96 231v424l-183 104v129l418 180h144v-667q0 -92 27.5 -131t109.5 -39t180 55v369l-182 104v129l416 180h145v-921l182 -59l-76 -150h-487zM266 1659h989v-152h-989v152z" />
    <glyph glyph-name="Uring" unicode="&#x16e;" horiz-adv-x="1839" 
d="M1616 635q0 -215 -107.5 -368.5t-268.5 -230.5t-337 -77t-335.5 81t-249 223.5t-89.5 320.5v821l-231 57l76 148h755v-129l-194 -152v-680q0 -207 106.5 -320.5t325.5 -113.5q82 0 165 49t136 143.5t53 221.5v743l-247 90l75 148h561v-129l-194 -152v-694zM823 2120
q0 -70 44 -115t124 -45q35 0 55.5 18.5t20.5 51.5q0 68 -44 112.5t-124 44.5q-35 0 -55.5 -17.5t-20.5 -49.5zM1311 2117.5q0 -84.5 -67.5 -150.5t-171 -106t-213.5 -40t-193.5 62.5t-83.5 146.5t67.5 150.5t170 106.5t214 40t194.5 -62.5t83 -147z" />
    <glyph glyph-name="uring" unicode="&#x16f;" horiz-adv-x="1482" 
d="M897 0v166l-211 -172q-55 -16 -129 -17q-162 0 -258 85t-96 231v424l-183 104v129l418 180h144v-667q0 -92 27.5 -131t109.5 -39t180 55v369l-182 104v129l416 180h145v-921l182 -59l-76 -150h-487zM715 1686q-78 0 -78 -69t44 -114t124 -45q35 0 55.5 18.5t20.5 51.5
q0 68 -44 113t-122 45zM1124 1616q0 -84 -67.5 -150.5t-171 -106.5t-213 -40t-193.5 62.5t-84 146.5t67.5 150.5t170 106.5t214 40t194.5 -62.5t83 -146.5z" />
    <glyph glyph-name="Uhungarumlaut" unicode="&#x170;" horiz-adv-x="1839" 
d="M1616 635q0 -215 -107.5 -368.5t-268.5 -230.5t-337 -77t-335.5 81t-249 223.5t-89.5 320.5v821l-231 57l76 148h755v-129l-194 -152v-680q0 -207 106.5 -320.5t325.5 -113.5q82 0 165 49t136 143.5t53 221.5v743l-247 90l75 148h561v-129l-194 -152v-694zM1630 2107
l-368 -231l-84 127l159 317l314 -39zM946 2107l-368 -231l-84 127l159 317l314 -39z" />
    <glyph glyph-name="uhungarumlaut" unicode="&#x171;" horiz-adv-x="1482" 
d="M897 0v166l-211 -172q-55 -16 -129 -17q-162 0 -258 85t-96 231v424l-183 104v129l418 180h144v-667q0 -92 27.5 -131t109.5 -39t180 55v369l-182 104v129l416 180h145v-921l182 -59l-76 -150h-487zM1534 1673l-471 -307l-129 59l158 402l387 -39zM907 1673l-473 -307
l-129 59l158 402l387 -39z" />
    <glyph glyph-name="Uogonek" unicode="&#x172;" horiz-adv-x="1839" 
d="M1618 639q0 -256 -162 -438q-174 -186 -225 -268.5t-51 -123t34.5 -58t118.5 -19.5v-146l-157 -125q-150 25 -232 84.5t-82 134t17 107.5l192 190q-74 -18 -143 -18q-201 0 -360.5 81t-249 223.5t-89.5 320.5v821l-231 57l76 148h755v-129l-194 -152v-680
q0 -207 106.5 -320.5t325.5 -113.5q82 0 165 49t136 143.5t53 221.5v743l-247 90l75 148h561l2 -125l-194 -152v-694z" />
    <glyph glyph-name="uogonek" unicode="&#x173;" horiz-adv-x="1482" 
d="M926 -301q0 57 16 86l266 215h-311v166l-211 -172q-55 -16 -129 -17q-162 0 -258 85t-96 231v424l-183 104v129l418 180h144v-667q0 -92 27.5 -131t109.5 -39t180 55v369l-182 104v129l416 180h145v-921l184 -59l-76 -150q-88 -135 -88 -201h-2q0 -35 23.5 -51t77.5 -18
v-146l-158 -125q-152 25 -232.5 86.5t-80.5 153.5z" />
    <glyph glyph-name="Wcircumflex" unicode="&#x174;" horiz-adv-x="2676" 
d="M754 1610v-129l-144 -105l402 -1048l221 716l-115 322l-186 96l74 148h751v-129l-211 -123l357 -1032l340 977l-312 159l74 148h672l2 -129l-217 -162l-445 -1253l-395 -105l-279 780l-206 -675l-398 -105l-546 1403l-207 98l73 148h695zM1884 1894l-405 -39l-146 240
l-372 -240l-84 138l505 325l557 -307z" />
    <glyph glyph-name="wcircumflex" unicode="&#x175;" horiz-adv-x="1990" 
d="M1944 979l-484 -977h-289l-170 418l-225 -418h-289l-297 725l-204 119v131l483 172l78 -309l217 -523l156 299l-46 111l-204 119v131l483 172l78 -309l213 -514l203 430l-310 202l74 150l533 2v-131zM1477 1393l-406 -39l-145 239l-373 -239l-84 137l506 326l557 -308z
" />
    <glyph glyph-name="Ycircumflex" unicode="&#x176;" horiz-adv-x="1761" 
d="M496 2v131l192 152v243l-557 867l-147 69l41 148h723v-129l-146 -113l354 -547l351 492l-293 147l76 148h671v-129l-219 -168l-465 -664v-438l232 -59l-74 -150h-739zM1378 1894l-405 -39l-146 240l-372 -240l-84 138l506 325l557 -307z" />
    <glyph glyph-name="ycircumflex" unicode="&#x177;" horiz-adv-x="1351" 
d="M1307 1108v-131l-529 -977l-497 -541l-146 111q150 180 210.5 311t70.5 295l-226 549l-204 119v131l483 172l78 -309l217 -523l233 447l-299 196l74 150h535zM1151 1393l-406 -39l-145 239l-373 -239l-84 137l506 326l557 -308z" />
    <glyph glyph-name="Ydieresis" unicode="&#x178;" horiz-adv-x="1761" 
d="M496 2v131l192 152v243l-557 867l-147 69l41 148h723v-129l-146 -113l354 -547l351 492l-293 147l76 148h671v-129l-219 -168l-465 -664v-438l232 -59l-74 -150h-739zM1032 2041.5q0 71.5 40 124t100.5 83t131 30.5t126 -57t55.5 -128.5t-40 -123t-100.5 -82t-130 -30.5
t-126 56t-56.5 127.5zM297 2041.5q0 71.5 40 124t100.5 83t131 30.5t126 -57t55.5 -128.5t-40 -123t-100.5 -82t-130 -30.5t-126 56t-56.5 127.5z" />
    <glyph glyph-name="Zacute" unicode="&#x179;" horiz-adv-x="1617" 
d="M76 0v176l977 1258h-537l-250 -400l-127 56v557l158 -37h1237v-176l-979 -1258h553l276 440l129 -53v-600l-159 37h-1278zM1303 2175l-555 -307l-127 59l219 402l407 -39z" />
    <glyph glyph-name="zacute" unicode="&#x17a;" horiz-adv-x="1343" 
d="M127 0v145l606 584h-383l-78 -164l-127 37v543l179 -37h893v-145l-605 -584h375l82 184l129 -37v-563l-180 37h-891zM1180 1673l-555 -307l-127 59l219 402l407 -39z" />
    <glyph glyph-name="Zdotaccent" unicode="&#x17b;" horiz-adv-x="1617" 
d="M76 0v176l977 1258h-537l-250 -400l-127 56v557l158 -37h1237v-176l-979 -1258h553l276 440l129 -53v-600l-159 37h-1278zM1055 2070.5q0 -75.5 -44 -130t-110.5 -87t-144.5 -32.5t-140.5 60.5t-62.5 136t44 130t111.5 87t146.5 32.5t139.5 -60.5t60.5 -136z" />
    <glyph glyph-name="zdotaccent" unicode="&#x17c;" horiz-adv-x="1343" 
d="M127 0v145l606 584h-383l-78 -164l-127 37v543l179 -37h893v-145l-605 -584h375l82 184l129 -37v-563l-180 37h-891zM932 1569q0 -76 -44 -130.5t-110.5 -87t-144.5 -32.5t-140.5 60.5t-62.5 136t44 130t111.5 87t146.5 32.5t139.5 -60t60.5 -136z" />
    <glyph glyph-name="Zcaron" unicode="&#x17d;" horiz-adv-x="1617" 
d="M76 0v176l977 1258h-537l-250 -400l-127 56v557l158 -37h1237v-176l-979 -1258h553l276 440l129 -53v-600l-159 37h-1278zM823 1866l-557 309l58 115l403 39l145 -240l373 240l84 -136z" />
    <glyph glyph-name="zcaron" unicode="&#x17e;" horiz-adv-x="1343" 
d="M127 0v145l606 584h-383l-78 -164l-127 37v543l179 -37h893v-145l-605 -584h375l82 184l129 -37v-563l-180 37h-891zM700 1364l-557 309l58 115l403 39l146 -240l372 240l84 -135z" />
    <glyph glyph-name="longs" unicode="&#x17f;" horiz-adv-x="1030" 
d="M1198 1358h-143q-51 94 -123 148t-143 54t-109 -56q-38 -58 -39 -167v-1108l320 -79l-74 -150h-807v131l182 156v608h-211v152h211v151q0 162 97 303t243 224t279 83q78 1 176 -21t141 -46v-383z" />
    <glyph glyph-name="florin" unicode="&#x192;" horiz-adv-x="1335" 
d="M700 203q0 -187 19 -244l-461 -500l-143 111q123 146 165 248t42 254v612h-318l76 150h242v206q0 162 97 303t243 225t278 83q78 0 176 -22t141 -46v-383h-143q-51 94 -123 148q-73 54 -143 55q-70 0 -109 -57t-39 -166v-346h492l-78 -150h-414v-481z" />
    <glyph glyph-name="Scommaaccent" unicode="&#x218;" horiz-adv-x="1433" 
d="M98 1151q0 102 96.5 220t236.5 199t269 81t318.5 -31t277.5 -66v-462h-229q-78 166 -178.5 258t-208.5 92q-72 0 -113 -46t-41 -115t49.5 -127t122 -106.5t211 -125t229.5 -138t155.5 -144.5t64.5 -184t-103.5 -219t-251 -199t-284 -81t-339 30.5t-292.5 65.5v465h227
q84 -166 198 -258t214 -92t150.5 47t50.5 111.5t-48.5 120t-118 101.5t-209 126t-231.5 142.5t-157.5 147.5t-65.5 187zM1010 -170v-131l-262 -322h-195l61 205l-186 99l76 149h506z" />
    <glyph glyph-name="scommaaccent" unicode="&#x219;" horiz-adv-x="1144" 
d="M111 776.5q0 69.5 72.5 153.5t179 141t206 57t243.5 -23.5t210 -51.5v-348h-143q-51 94 -126 147t-153 53q-35 0 -54.5 -19.5t-19.5 -54t50.5 -71.5t159.5 -99.5t175 -106.5q160 -107 160 -218q0 -76 -75.5 -159t-185.5 -140t-213.5 -57t-262 23.5t-225.5 51.5v365h143
q59 -102 146 -159.5t173 -57.5q37 0 60.5 19.5t23.5 51t-48 67.5t-156 98t-176 107.5t-116 103t-48 127zM872 -170v-131l-262 -322h-194l61 205l-186 99l76 149h505z" />
    <glyph glyph-name="uni021A" unicode="&#x21a;" horiz-adv-x="1736" 
d="M1069 1434v-1227l231 -57l-73 -150h-756v131l193 152v1151h-168l-291 -420l-127 55v578l158 -37h1265l160 37v-578l-129 -55l-291 420h-172zM1137 -170v-131l-263 -322h-194l61 205l-186 99l76 149h506z" />
    <glyph glyph-name="uni021B" unicode="&#x21b;" horiz-adv-x="1032" 
d="M766 238q82 0 182 49l62 -127l-207 -164q-78 -16 -180 -16q-207 0 -301.5 89t-94.5 275v551h-221v119l457 485h143v-452h369v-152h-369v-526q0 -131 160 -131zM874 -170v-131l-262 -322h-194l61 205l-186 99l76 149h505z" />
    <glyph glyph-name="dotlessj" unicode="&#x237;" horiz-adv-x="794" 
d="M602 203q0 -191 19 -244l-459 -500l-146 111q123 145 165 247.5t42 254.5v686l-182 127v131l418 131h143v-944z" />
    <glyph glyph-name="uni02BC" unicode="&#x2bc;" horiz-adv-x="1587" 
d="M715 1006h-146l-233 92l262 536h143l236 -94z" />
    <glyph glyph-name="circumflex" unicode="&#x2c6;" horiz-adv-x="1163" 
d="M1069 1393l-405 -39l-146 239l-373 -239l-84 137l506 326l557 -308z" />
    <glyph glyph-name="caron" unicode="&#x2c7;" horiz-adv-x="1163" 
d="M596 1364l-557 309l57 115l404 39l145 -240l373 240l84 -135z" />
    <glyph glyph-name="breve" unicode="&#x2d8;" horiz-adv-x="1001" 
d="M473 1335q-131 -1 -266 61t-201 169l324 254q60 -220 233 -222q115 0 142 103l323 119q-22 -131 -107 -243t-201 -176t-247 -65z" />
    <glyph glyph-name="dotaccent" unicode="&#x2d9;" horiz-adv-x="671" 
d="M286 1319q-78 0 -140 60t-62 136q0 77 44 131t112 87t129 32q96 0 156 -60q61 -60 61 -136t-44 -130t-111 -87t-145 -33z" />
    <glyph glyph-name="ring" unicode="&#x2da;" horiz-adv-x="841" 
d="M467 1458q35 0 55 18t20 70q0 50 -43 94q-44 44 -122 44q-78 -1 -78 -66q0 -70 44 -115t124 -45zM786 1616q0 -84 -68 -151t-170 -107q-103 -40 -213 -39q-110 0 -194 62q-84 63 -84 147t68 150t170 107q101 39 213 39t195 -62t83 -146z" />
    <glyph glyph-name="ogonek" unicode="&#x2db;" horiz-adv-x="870" 
d="M567 -201q0 -35 24 -51t77 -18v-146l-158 -125q-152 25 -232 86t-81 154q0 57 16 86l319 258l123 -43q-88 -135 -88 -201z" />
    <glyph glyph-name="tilde" unicode="&#x2dc;" horiz-adv-x="1116" 
d="M781 1679q44 0 89 29l115 74l84 -137l-481 -308q-96 97 -156 139t-103 42q-44 0 -91 -29l-111 -72l-86 135l481 308q97 -97 156 -139t103 -42z" />
    <glyph glyph-name="hungarumlaut" unicode="&#x2dd;" horiz-adv-x="1208" 
d="M1276 1673l-471 -307l-129 59l158 402l387 -39zM649 1673l-473 -307l-129 59l158 402l387 -39z" />
    <glyph glyph-name="uni0326" unicode="&#x326;" horiz-adv-x="0" 
d="M-154 -170v-131l-262 -322h-194l61 205l-186 99l76 149h505z" />
    <glyph glyph-name="Delta" unicode="&#x394;" horiz-adv-x="1789" 
d="M782 1303l-456 -1127h913zM1696 0h-1606v131l578 1415l397 105l631 -1538v-113z" />
    <glyph glyph-name="Omega" unicode="&#x3a9;" horiz-adv-x="2002" 
d="M1071 0v692q103 4 191 43t138 105t50 141q0 182 -126 298t-370 116q-110 0 -202 -39t-146 -106t-53 -146q0 -154 96 -270t281 -142v-692h-621l-157 -37v490l127 53l249 -330h72v299q-223 61 -356 203t-133 322t152 328q153 148 379 236t450 87q224 0 409 -75
q187 -75 289 -205t102 -294t-139 -305t-350 -229v-367h72l249 330l127 -53v-490l-157 37h-623z" />
    <glyph glyph-name="mu" unicode="&#x3bc;" horiz-adv-x="1441" 
d="M872 739q0 119 -118 250l352 141h145v-759h-2q0 -55 33 -123t86 -127l-354 -141h-144v186l-211 -172q-47 -14 -104 -17v-106q-2 -53 32 -122t87 -128l-352 -141h-146v1259q2 53 -32 122t-87 128l355 141h143v-667q0 -92 28 -131q27 -39 109 -39t180 55v391z" />
    <glyph glyph-name="pi" unicode="&#x3c0;" horiz-adv-x="1609" 
d="M373 727q-140 0 -275 -80l-98 211l315 250h1221v-381h-219v-360q0 -53 33 -122t86 -128l-314 -137h-143v747h-231v-727h-457v127q53 61 86 129t33 121v350h-37z" />
    <glyph glyph-name="uni0900" unicode="&#x900;" horiz-adv-x="0" 
d="M-530 2394q0 146 -250 146q-152 0 -257.5 -73t-162.5 -194l-76 -98l-334 195q27 115 122 205.5t242.5 143t333 52.5t371 -66.5t302 -172t116.5 -216.5q0 -53 -12 -102l-96 -123l-316 184q17 62 17 119zM-1040 2308h145l233 -94v-313h-143l-235 92v315z" />
    <glyph glyph-name="candraBindudeva" unicode="&#x901;" horiz-adv-x="0" 
d="M-1114 2288q0 -146 250 -146q152 0 257 73t163 193l75 99l334 -195q-27 -115 -122 -206t-242.5 -143t-333 -52t-370.5 66.5t-302 172t-117 215.5q0 53 13 103l96 123l315 -185q-16 -61 -16 -118zM-604 2374h-146l-233 94v313h143l236 -92v-315z" />
    <glyph glyph-name="anusvaradeva" unicode="&#x902;" horiz-adv-x="0" 
d="M-92 1956h-146l-233 94v313h143l236 -92v-315z" />
    <glyph glyph-name="visargadeva" unicode="&#x903;" horiz-adv-x="565" 
d="M473 135h-145l-234 92v316h144l235 -92v-316zM473 713h-145l-234 92v315h144l235 -94v-313zM672 1288h-799l-317 178v144h798l318 -176v-146z" />
    <glyph glyph-name="uni0904" unicode="&#x904;" horiz-adv-x="2258" 
d="M872 1264q0 43 -19 63.5t-76.5 20.5t-137.5 -56.5t-147 -154.5l-318 176v145q80 76 221.5 125t280.5 49t280.5 -72.5t230.5 -187.5t89 -233q0 -72 -47 -141.5t-129 -120.5l49 -31q100 -47 160 -47q117 0 234.5 91t207.5 249v149h-92l-320 178v144h410l-205 168
q-133 109 -244.5 149.5t-218 40.5t-238 -26.5t-235.5 -26.5q-188 0 -350 65.5t-342 212.5l-338 283l103 117l202 -166q236 -191 458 -191q101 0 237.5 26t240.5 26q188 0 350 -65.5t342 -213.5l484 -399h186l320 -176v-144h-371v-1308h-145l-330 188l96 121v336
q-114 -74 -281 -74q-57 0 -104 8q-14 -74 -89 -142.5t-181.5 -111.5t-206 -43t-213.5 17l-545 317l94 123l127 -72q158 -92 350 -92q63 0 125 21.5t101 55.5t38 78t-53.5 92t-179.5 116v143q139 74 139 201z" />
    <glyph glyph-name="adeva" unicode="&#x905;" horiz-adv-x="2258" 
d="M872 1264q0 43 -19 63.5t-76.5 20.5t-137.5 -56.5t-147 -154.5l-318 176v145q80 76 221.5 125t280.5 49t280.5 -72.5t230.5 -187.5t89 -233q0 -72 -47 -141.5t-129 -120.5l49 -31q100 -47 160 -47q117 0 234.5 91t207.5 249v149h-92l-320 178v144h844l318 -176v-144h-371
v-1308h-145l-330 188l96 121v336q-114 -74 -281 -74q-57 0 -104 8q-14 -74 -89 -142.5t-181.5 -111.5t-206 -43t-213.5 17l-545 317l94 123l127 -72q158 -92 350 -92q63 0 125 21.5t101 55.5t38 78t-53.5 92t-179.5 116v143q139 74 139 201z" />
    <glyph glyph-name="aadeva" unicode="&#x906;" horiz-adv-x="2981" 
d="M872 1264q0 43 -19 63.5t-76.5 20.5t-137.5 -56.5t-147 -154.5l-318 176v145q80 76 221.5 125t280.5 49t280.5 -72.5t230.5 -187.5t89 -233q0 -72 -47 -141.5t-129 -120.5l49 -31q100 -47 160 -47q117 0 234.5 91t207.5 249v149h-92l-320 178v144h1567l320 -176v-144
h-371v-1308h-145l-330 188l96 121v999h-346v-1308h-145l-330 188l96 121v336q-114 -74 -281 -74q-57 0 -104 8q-14 -74 -89 -142.5t-181.5 -111.5t-206 -43t-213.5 17l-545 317l94 123l127 -72q158 -92 350 -92q63 0 125 21.5t101 55.5t38 78t-53.5 92t-179.5 116v143
q139 74 139 201z" />
    <glyph glyph-name="ideva" unicode="&#x907;" horiz-adv-x="1652" 
d="M1012.5 733q115.5 0 274.5 -71.5t266.5 -178t107.5 -202.5q0 -72 -100.5 -142.5t-263 -116t-336.5 -47.5l176 -102q170 -102 438 -102q70 0 147 16l289 -162v-143q-106 -27 -212 -27t-215 31t-211.5 82t-254.5 139l-643 375q-178 84 -289.5 208t-111.5 257q0 70 34.5 115
t98.5 45q94 0 188 -97.5t166 -269.5q145 -66 276.5 -66t218.5 18.5t136 49.5t49 62t-26.5 53t-59.5 22q-61 0 -121 -71q-223 35 -379.5 114.5t-233.5 178t-77 180.5t54.5 149.5t142.5 110.5t178 43h330v104h-1000l-321 178v144h1988l322 -176v-146h-611v-426h-559v-6
q-49 0 -84.5 -31.5t-35.5 -67.5t16 -69q133 45 248.5 45z" />
    <glyph glyph-name="iideva" unicode="&#x908;" horiz-adv-x="1652" 
d="M1012.5 733q115.5 0 274.5 -71.5t266.5 -178t107.5 -202.5q0 -72 -100.5 -142.5t-263 -116t-336.5 -47.5l176 -102q170 -102 438 -102q70 0 147 16l289 -162v-143q-106 -27 -212 -27t-215 31t-211.5 82t-254.5 139l-643 375q-178 84 -289.5 208t-111.5 257q0 70 34.5 115
t98.5 45q94 0 188 -97.5t166 -269.5q145 -66 276.5 -66t218.5 18.5t136 49.5t49 62t-26.5 53t-59.5 22q-61 0 -121 -71q-223 35 -379.5 114.5t-233.5 178t-77 180.5t54.5 149.5t142.5 110.5t178 43h330v104h-1000l-321 178v144h1347l-393 321q-14 80 -14 170q0 152 66.5 275
t196.5 195.5t316 72.5q96 0 197 -18l307 -244l-61 -127q-184 96 -326.5 96t-214.5 -90t-72 -242q0 -215 158 -340l84 -69h397l322 -176v-146h-611v-426h-559v-6q-49 0 -84.5 -31.5t-35.5 -67.5t16 -69q133 45 248.5 45z" />
    <glyph glyph-name="udeva" unicode="&#x909;" horiz-adv-x="1394" 
d="M1036 1018.5q0 -142.5 -121 -248.5q215 -94 341 -199.5t126 -191.5t-90 -179.5t-222 -156.5t-241 -63t-213 16l-569 338l96 123l148 -90q154 -92 360 -93q88 0 163 26t119 66t44 86.5t-37 86t-148.5 91.5t-367.5 152v144q86 33 144.5 97t58.5 128q0 115 -70 137h-504
l-321 178v144h1493l321 -176v-148h-614q104 -125 104 -267.5z" />
    <glyph glyph-name="uudeva" unicode="&#x90a;" horiz-adv-x="2367" 
d="M1034 1018.5q0 -142.5 -121 -248.5q53 -20 86 -39q113 145 177 215q155 168 407 168q141 0 293 -68.5t253 -185.5t101 -254t-96 -239.5t-256 -133.5l-305 179v143q49 -10 111.5 -10t99.5 47t37 131q0 141 -99 141q-88 0 -157.5 -59.5t-173.5 -192.5l-78 -96
q70 -76 69.5 -149.5t-90.5 -167t-222 -156.5t-241 -63t-213 16l-569 338l96 123l148 -90q154 -92 360 -93q88 0 163 26t119 66t44 86.5t-37 86t-148.5 91.5t-367.5 152v144q86 33 144.5 97t58.5 128q0 115 -70 137h-504l-321 178v144h2613l319 -176v-146l-1734 -2
q104 -125 104 -267.5z" />
    <glyph glyph-name="rvocalicdeva" unicode="&#x90b;" horiz-adv-x="3033" 
d="M610.5 1110q104.5 0 214 -38t254.5 -154l95 -76l114 78v368h-1272l-317 178v144h3312l321 -176v-146h-1294l-373 -4v-453q37 -16 97.5 -16t106.5 43t87 115q52 105 142 168q91 63 189.5 63t224.5 -44t214 -115.5t88 -145.5q0 -94 -137 -160.5t-346 -101.5
q27 -96 143 -180v-144q-66 10 -104 11q-70 0 -107 -53.5t-37 -147.5q0 -176 98 -176q80 0 155 97t132 267l305 -176v-145q-106 -162 -211.5 -227.5t-243.5 -65.5t-290 73.5t-253 197.5t-101 281t122 271q-16 55 -24 111q-14 -2 -43 -2q-94 0 -205 67v-719h-145l-330 189
l96 121v178q-190 -125 -450 -250l-318 176v144q287 102 504 219q-88 59 -186 59q-196 0 -480 -180l-286 160v143q211 100 322.5 137t216 37z" />
    <glyph glyph-name="lvocalicdeva" unicode="&#x90c;" horiz-adv-x="2045" 
d="M1532 766q0 129 -107 129q-115 0 -218 -135q-42 -55 -86 -124t-72 -108l-240 140v145l18 25q-33 27 -84 26q-88 0 -146 -67.5t-58 -163t37.5 -166t121.5 -137.5l183 -148l-97 -123l-639 525q-14 55 -14 139t53.5 178t160 153.5t255.5 59.5q199 0 377 -102q86 76 190 94
v182h-1144l-320 178v144h2320l320 -176v-146l-799 -2v-239q158 -68 261.5 -186t103.5 -251q0 -68 -47 -125t-153 -148t-163 -166t-57 -169q0 -129 90 -129q121 0 223 258l307 -176v-145q-154 -154 -346 -154q-139 0 -287.5 71.5t-247 186.5t-98.5 231q0 82 51.5 152
t151.5 166t149.5 161.5t49.5 141.5z" />
    <glyph glyph-name="ecandradeva" unicode="&#x90d;" horiz-adv-x="1427" 
d="M952 973.5q0 99.5 -30 314.5h-316q-55 -256 -55 -458.5t47 -307t154 -166.5l219 -135q244 -141 337 -331.5t99 -430.5h-145l-234 95q2 199 -60.5 362.5t-197.5 243.5l-270 164q-190 113 -261 232.5t-71 289.5t65 442h-206l-324 178v144h1645l321 -176l-2 -146h-405
q134 -460 25 -718q-48 -114 -136 -171l-305 179v143q57 39 81.5 96t24.5 156.5zM737 2288q0 -146 250 -146q152 0 257.5 73t162.5 193l76 99l334 -195q-27 -115 -122.5 -206t-242.5 -143t-333 -52t-371 66.5t-301.5 172t-116.5 215.5q0 53 12 103l96 123l316 -185
q-17 -61 -17 -118z" />
    <glyph glyph-name="eshortdeva" unicode="&#x90e;" horiz-adv-x="1427" 
d="M952 973.5q0 99.5 -30 314.5h-316q-55 -256 -55 -458.5t47 -307t154 -166.5l219 -135q244 -141 337 -331.5t99 -430.5h-145l-234 95q2 199 -60.5 362.5t-197.5 243.5l-270 164q-190 113 -261 232.5t-71 289.5t65 442h-206l-324 178v144h1159l-205 168
q-133 109 -244.5 149.5t-217 40.5t-239 -26.5t-237.5 -26.5q-186 0 -349 65.5t-341 212.5l-338 283l103 117l202 -166q236 -191 458 -191q102 0 238 26t240 26q188 0 350 -65.5t343 -213.5l483 -399h240l321 -176l-2 -146h-405q134 -460 25 -718q-48 -114 -136 -171
l-305 179v143q57 39 81.5 96t24.5 156.5z" />
    <glyph glyph-name="edeva" unicode="&#x90f;" horiz-adv-x="1427" 
d="M952 973.5q0 99.5 -30 314.5h-316q-55 -256 -55 -458.5t47 -307t154 -166.5l219 -135q244 -141 337 -331.5t99 -430.5h-145l-234 95q2 199 -60.5 362.5t-197.5 243.5l-270 164q-190 113 -261 232.5t-71 289.5t65 442h-206l-324 178v144h1645l321 -176l-2 -146h-405
q134 -460 25 -718q-48 -114 -136 -171l-305 179v143q57 39 81.5 96t24.5 156.5z" />
    <glyph glyph-name="aideva" unicode="&#x910;" horiz-adv-x="1427" 
d="M952 973.5q0 99.5 -30 314.5h-316q-55 -256 -55 -458.5t47 -307t154 -166.5l219 -135q244 -141 337 -331.5t99 -430.5h-145l-234 95q2 199 -60.5 362.5t-197.5 243.5l-270 164q-190 113 -261 232.5t-71 289.5t65 442h-206l-324 178v144h1159l-354 284
q-135 111 -246.5 152t-222 41t-203.5 -27l-319 176v144q344 70 614 -40q162 -66 342 -212l635 -518h240l321 -176l-2 -146h-405q134 -460 25 -718q-48 -114 -136 -171l-305 179v143q57 39 81.5 96t24.5 156.5z" />
    <glyph glyph-name="ocandradeva" unicode="&#x911;" horiz-adv-x="2981" 
d="M872 1264q0 43 -19 63.5t-76.5 20.5t-137.5 -56.5t-147 -154.5l-318 176v145q80 76 221.5 125t280.5 49t280.5 -72.5t230.5 -187.5t89 -233q0 -72 -47 -141.5t-129 -120.5l49 -31q100 -47 160 -47q117 0 234.5 91t207.5 249v149h-92l-320 178v144h1516l51 2l320 -176
v-146h-371v-1308h-145l-330 188l96 121v999h-346v-1308h-145l-330 188l96 121v336q-114 -74 -281 -74q-57 0 -104 8q-14 -74 -89 -142.5t-181.5 -111.5t-206 -43t-213.5 17l-545 317l94 123l127 -72q158 -92 350 -92q63 0 125 21.5t101 55.5t38 78t-53.5 92t-179.5 116v143
q139 74 139 201zM2349 2288q0 -146 250 -146q152 0 257 73t163 193l76 99l333 -195q-26 -114 -121.5 -205.5t-243 -143.5t-333 -52t-370.5 66.5t-301.5 172t-116.5 215.5q0 53 12 103l96 123l315 -185q-16 -61 -16 -118z" />
    <glyph glyph-name="oshortdeva" unicode="&#x912;" horiz-adv-x="2981" 
d="M872 1264q0 43 -19 63.5t-76.5 20.5t-137.5 -56.5t-147 -154.5l-318 176v145q80 76 221.5 125t280.5 49t280.5 -72.5t230.5 -187.5t89 -233q0 -72 -47 -141.5t-129 -120.5l49 -31q100 -47 160 -47q117 0 234.5 91t207.5 249v149h-92l-320 178v144h1135l-205 168
q-133 109 -244.5 149.5t-218 40.5t-238 -26.5t-235.5 -26.5q-188 0 -350 65.5t-342 212.5l-338 283l103 117l202 -166q236 -191 458 -191q101 0 237.5 26t240.5 26q188 0 350 -65.5t342 -213.5l484 -399h186l320 -176v-144h-371v-1308h-145l-330 188l96 121v999h-346v-1308
h-145l-330 188l96 121v336q-114 -74 -281 -74q-57 0 -104 8q-14 -74 -89 -142.5t-181.5 -111.5t-206 -43t-213.5 17l-545 317l94 123l127 -72q158 -92 350 -92q63 0 125 21.5t101 55.5t38 78t-53.5 92t-179.5 116v143q139 74 139 201z" />
    <glyph glyph-name="odeva" unicode="&#x913;" horiz-adv-x="2981" 
d="M872 1264q0 43 -19 63.5t-76.5 20.5t-137.5 -56.5t-147 -154.5l-318 176v145q80 76 221.5 125t280.5 49t280.5 -72.5t230.5 -187.5t89 -233q0 -72 -47 -141.5t-129 -120.5l49 -31q100 -47 160 -47q117 0 234.5 91t207.5 249v149h-92l-320 178v144h1135l-354 284
q-135 111 -247 152t-222 41t-203 -27l-318 176v144q340 70 613 -40q162 -66 342 -212l635 -518h186l320 -176v-144h-371v-1308h-145l-330 188l96 121v999h-346v-1308h-145l-330 188l96 121v336q-114 -74 -281 -74q-57 0 -104 8q-14 -74 -89 -142.5t-181.5 -111.5t-206 -43
t-213.5 17l-545 317l94 123l127 -72q158 -92 350 -92q63 0 125 21.5t101 55.5t38 78t-53.5 92t-179.5 116v143q139 74 139 201z" />
    <glyph glyph-name="audeva" unicode="&#x914;" horiz-adv-x="2981" 
d="M872 1264q0 43 -19 63.5t-76.5 20.5t-137.5 -56.5t-147 -154.5l-318 176v145q80 76 221.5 125t280.5 49t280.5 -72.5t230.5 -187.5t89 -233q0 -72 -47 -141.5t-129 -120.5l49 -31q100 -47 160 -47q117 0 234.5 91t207.5 249v149h-92l-320 178v144h801l-139 112
q-133 109 -244.5 150t-222 41t-205.5 -27l-317 178v144q343 70 615 -40q163 -66 341 -212l418 -346h262l-647 522q-133 109 -244.5 149.5t-222 40.5t-205.5 -26l-317 178v143q132 27 292 27q324 0 664 -279l926 -755h12l320 -176v-144h-371v-1308h-145l-330 188l96 121v999
h-346v-1308h-145l-330 188l96 121v336q-114 -74 -281 -74q-57 0 -104 8q-14 -74 -89 -142.5t-181.5 -111.5t-206 -43t-213.5 17l-545 317l94 123l127 -72q158 -92 350 -92q63 0 125 21.5t101 55.5t38 78t-53.5 92t-179.5 116v143q139 74 139 201z" />
    <glyph glyph-name="kadeva" unicode="&#x915;" horiz-adv-x="2191" 
d="M905 1288h-882l-320 178v144h2466l319 -176v-146h-1206v-188q55 12 123 12q141 0 293.5 -68.5t254 -185.5t101.5 -254t-97 -239.5t-257 -133.5l-303 179v143q49 -10 117.5 -10t113.5 56t49 155q0 141 -98 141q-72 -2 -123 -51t-119 -146l-49 -69l-6 -6v-643h-145
l-330 188l76 96q-51 -10 -103 -10q-141 0 -292.5 68.5t-253 185.5t-101.5 255t96.5 239.5t255.5 132.5l306 -177v-145q-49 10 -118 10t-115 -56t-50 -155q0 -141 100 -141q74 2 129.5 55.5t124.5 155.5l37 55l6 6v545z" />
    <glyph glyph-name="khadeva" unicode="&#x916;" horiz-adv-x="2639" 
d="M1047 750q0 -137 -69 -250t-173 -166l483 -285l-96 -123l-723 426q-133 66 -233.5 171.5t-100.5 188.5q0 162 250 162q115 0 258 -36q8 43 8 104q0 174 -67 346h-543l-324 178v144h2847l320 -174v-146h-371v-1308h-146l-329 188l96 119q-74 -25 -195.5 -25t-282.5 67.5
t-267.5 183.5t-106.5 252t96.5 237.5t255.5 132.5l305 -176v-146q-49 10 -118.5 10t-115.5 -56q-46 -57 -46 -139q0 -158 131 -157q80 0 142.5 56.5t154.5 179.5l49 63v516h-1243q154 -239 154 -538z" />
    <glyph glyph-name="gadeva" unicode="&#x917;" horiz-adv-x="1789" 
d="M133 735q0 139 242 139q78 0 186 -22v436h-557l-321 178v144h2031l320 -176v-146h-371v-1308h-145l-330 188l96 121v999h-344v-629q0 -86 -53 -169.5t-132 -138t-155 -54.5t-189.5 74.5t-195.5 179t-82 184.5z" />
    <glyph glyph-name="ghadeva" unicode="&#x918;" horiz-adv-x="1937" 
d="M1427 1288h-583v-94q-57 14 -133 14t-132.5 -34.5t-56.5 -83t17.5 -78t52.5 -56.5q72 27 145 35l322 -178v-143q-49 8 -113.5 8t-121 -32t-83 -79t-26.5 -94q0 -108 161.5 -108t287.5 79.5t263 237.5v606zM307 619.5q0 123.5 107 224.5q-129 55 -212 142t-83 196
q0 55 22 106h-151l-322 178v144h2194l319 -176l-2 -146h-371v-1308h-145l-330 188l13 16q-133 -51 -301 -51t-344.5 69.5t-285 181.5t-108.5 235.5z" />
    <glyph glyph-name="ngadeva" unicode="&#x919;" horiz-adv-x="1914" 
d="M1937 676h-145l-233 94v315h143l235 -94v-315zM963.5 737q115.5 0 274.5 -71.5t265.5 -178t106.5 -202.5q0 -74 -101.5 -144.5t-264.5 -115.5t-307 -45t-243 16l-686 561l101 119l301 -246q193 -156 411.5 -156t321.5 68q47 31 47 62t-25.5 53t-58.5 22q-61 0 -121 -71
q-176 37 -336 117.5t-258 180t-98 178.5t54 146.5t142.5 110.5t178.5 43h331v104h-1011l-322 178v144h2284l321 -178v-146h-893v-426h-559q-49 0 -86 -31.5t-37 -68.5t19 -68q133 45 248.5 45z" />
    <glyph glyph-name="cadeva" unicode="&#x91a;" horiz-adv-x="1984" 
d="M2226 1290h-371v-1308h-145l-330 188l97 119q-74 -25 -195.5 -25t-282.5 67.5t-267.5 183.5t-106.5 249q0 18 4 51h-269l-319 176v146h936l305 -176v-146q-49 10 -118.5 10t-115.5 -56q-46 -57 -47 -139q0 -158 132 -157q80 0 142 56.5t155 179.5l49 63v516h-1465
l-319 178v144h2214l317 -174v-146z" />
    <glyph glyph-name="chadeva" unicode="&#x91b;" horiz-adv-x="2271" 
d="M1636 684q0 -164 86 -164q33 0 62 17q31 72 31 160.5t-21.5 158.5t-64.5 70q-37 0 -65 -69t-28 -173zM755 997q-71 0 -131.5 -29.5t-60.5 -72.5t35 -68q78 25 168 25l321 -176v-146q-47 8 -138.5 8.5t-149.5 -48t-58 -119t69 -115.5t225.5 -45t310 34t262.5 99
q-162 66 -271.5 188.5t-109.5 258t72.5 227.5t189.5 127v143h-897l291 -160v-145q-57 14 -128 14zM2224 517q0 -171 -117.5 -292t-327.5 -183t-476.5 -62t-487.5 65.5t-351 183t-130 267.5q0 104 67 194q-111 53 -178 139q-67 85 -67 189q0 203 184 270h-350l-322 178v144
h2486l322 -176v-146h-608v-196q154 -88 255 -246t101 -329z" />
    <glyph glyph-name="jadeva" unicode="&#x91c;" horiz-adv-x="1830" 
d="M688 418q0 72 -37 145.5t-108 132.5l-66 56l94 120v2h754v414h-1300l-322 178v144h2052l320 -176v-146h-371v-1308h-145l-330 188l96 121v264h-360l118 -98q14 -55 14.5 -133t-59 -160t-163 -132t-244 -50t-246.5 34l-307 244l61 129q253 -133 387 -133q74 0 118 46
t44 118z" />
    <glyph glyph-name="jhadeva" unicode="&#x91d;" horiz-adv-x="2322" 
d="M984 735q87 0 160.5 -22t215.5 -23l2 -2q115 0 235.5 97.5t219.5 265.5v233h-390v-426h-559q-49 0 -84.5 -31.5t-35.5 -67.5t16 -69q133 45 220 45zM1661 282.5q0 -73.5 -100.5 -144t-263 -116t-336.5 -47.5l176 -102q170 -102 438 -102q70 0 147 16l289 -162v-143
q-106 -27 -212 -27t-215 31t-211.5 82t-254.5 139l-643 375q-178 84 -289.5 208t-111.5 257q0 70 34.5 115t98.5 45q94 0 188 -97.5t166 -269.5q145 -66 276.5 -66t218.5 18.5t136 49.5t49 62t-26.5 53t-59.5 22q-61 0 -121 -71q-223 35 -379.5 114.5t-233.5 178t-77 180.5
t54.5 149.5t142.5 110.5t178 43h330v104h-1000l-321 178v144h2519l319 -176l-2 -148h-371v-1309h-145l-330 189l97 121v241q-95 -70 -226 -84q72 -88 72 -161.5z" />
    <glyph glyph-name="nyadeva" unicode="&#x91e;" horiz-adv-x="1835" 
d="M1708 1290v-1308h-145l-330 188l96 121v229q-68 -8 -153 -12q-51 -125 -187.5 -204t-300 -79t-266.5 35l-287 229l62 127q231 -113 353 -112.5t185.5 66t63.5 152.5q0 167 -105 167q-55 0 -106 -51.5t-88 -143.5l-305 176v146q70 49 177 89t202 40t211 -43t213.5 -118
t150.5 -169q94 59 180 170v303h-1306l-320 178v144h2056l320 -176v-144h-371z" />
    <glyph glyph-name="ttadeva" unicode="&#x91f;" horiz-adv-x="1634" 
d="M551 432q0 -105 62.5 -168t178 -63t226 71.5t235.5 231.5l306 -178v-144q-109 -92 -265.5 -147t-334 -55t-369 94t-311 243.5t-119.5 289t73.5 247t195.5 172t261 64.5h39v198h-721l-305 178v144h1935l306 -176v-146h-836v-518h-248q-90 0 -159.5 -43t-109.5 -116.5
t-40 -178.5z" />
    <glyph glyph-name="tthadeva" unicode="&#x920;" horiz-adv-x="1785" 
d="M1108 768h-248q-135 0 -222 -89t-87 -255q0 -100 64.5 -162.5t168.5 -62.5q207 0 320 116q112 116 113 316q0 148 -109 207v-70zM1626 473q0 -131 -85 -246.5t-233.5 -181t-339 -65.5t-381 94t-309 244.5t-118.5 292t76.5 249t199.5 169t254 61.5h39v198h-721l-305 178
v144h2075l305 -176v-146h-975v-215q143 -53 261 -145t187.5 -208t69.5 -247z" />
    <glyph glyph-name="ddadeva" unicode="&#x921;" horiz-adv-x="1652" 
d="M963.5 737q115.5 0 274.5 -71.5t265.5 -178t106.5 -202.5q0 -74 -101.5 -144.5t-264.5 -115.5t-307 -45t-243 16l-686 561l101 119l301 -246q193 -156 411.5 -156t321.5 68q47 31 47 62t-25.5 53t-58.5 22q-61 0 -121 -71q-176 37 -336 117.5t-258 180t-98 178.5
t54 146.5t142.5 110.5t178.5 43h331v104h-1011l-322 178v144h1913l322 -176v-146h-523v-426h-559v-2q-49 0 -86 -31.5t-37 -68.5t19 -68q133 45 248.5 45z" />
    <glyph glyph-name="ddhadeva" unicode="&#x922;" horiz-adv-x="1585" 
d="M1061 303q0 -68 80 -67q27 0 47 6q6 23 6 59.5t-17.5 68t-43.5 31.5v2q-29 0 -50.5 -29.5t-21.5 -70.5zM506 552q0 -99 62.5 -184t167 -143.5t222.5 -70.5q-131 68 -219 165t-88 182q0 171 234 171q139 0 302 -76t274.5 -186.5t111.5 -211.5t-111.5 -159.5t-338 -58.5
t-452 99t-361.5 264t-136 349q0 106 57.5 197.5t154.5 146t212 54.5h264v198h-854l-305 178v144h1886l305 -176v-146h-653v-518h-442q-140 0 -216.5 -59.5t-76.5 -158.5z" />
    <glyph glyph-name="nnadeva" unicode="&#x923;" horiz-adv-x="2050" 
d="M547 1288v-475q0 -162 123 -162q41 0 85 27t75.5 79t35.5 122v409h-319zM1923 1288v-1308h-145l-330 188l96 121v999h-299v-485q-2 -90 -62.5 -179t-160.5 -145.5t-226 -56.5t-276.5 63.5t-251 170t-100.5 231.5v401h-143l-322 178v144h2271l320 -176v-146h-371z" />
    <glyph glyph-name="tadeva" unicode="&#x924;" horiz-adv-x="1503" 
d="M162 455q0 419 475 419h358v414h-972l-320 178v144h1722l320 -176v-146h-371v-1308h-145l-330 188l96 121v264h-227q-197 0 -197 -180q0 -70 29 -116t102 -91l127 -82l-96 -123l-557 330q-14 70 -14 164z" />
    <glyph glyph-name="thadeva" unicode="&#x925;" horiz-adv-x="1826" 
d="M559 1112q33 0 62 16v13q0 274 -66 274q-37 0 -58 -47.5t-22 -122.5q0 -133 84 -133zM1700 1292v-1308h-146l-329 188l96 121v80q-182 -94 -434 -94q-160 0 -336 64.5t-308 161.5t-171 187l96 123q14 -2 33 -2q197 0 311 94q-117 33 -219.5 97.5t-164.5 151.5t-62 175
t52 161t138 117t198.5 44t252 -83t231.5 -224.5t92 -311.5t-140 -296t-374 -160q66 -72 232 -72q113 0 201.5 36t172.5 110.5t199 211.5v424h-57l-318 178v144h805l320 -176v-142h-371z" />
    <glyph glyph-name="dadeva" unicode="&#x926;" horiz-adv-x="1560" 
d="M844 414q0 192 145 192q106 0 232.5 -61.5t213.5 -156.5t87 -191q0 -63 -57.5 -118.5t-157.5 -80.5l360 -211l-94 -121l-557 324q-227 27 -421 134t-307.5 266t-113.5 331q0 92 60.5 178t159 138.5t204.5 52.5h197v198h-787l-305 178v144h1862l305 -176v-146h-696v-518
h-375l2 2q-146 0 -219.5 -67.5t-73.5 -179.5t65.5 -184.5t171.5 -72.5q53 0 113 21q-14 76 -14 125z" />
    <glyph glyph-name="dhadeva" unicode="&#x927;" horiz-adv-x="2119" 
d="M784 1517.5q0 49.5 -68.5 49.5t-106.5 -48.5t-38 -131.5q0 -167 150 -277q74 23 151 23l320 -172v-146q-51 10 -134.5 10t-139.5 -44t-56 -117q0 -150 246 -150q111 0 188.5 29.5t146 89t171.5 174.5v481h-58l-317 178v144h805l319 -176l-2 -148h-370v-1309h-146
l-329 189l96 121v69q-74 -43 -144.5 -59t-164.5 -16q-229 0 -425 73.5t-311.5 194.5t-115.5 245t88 212q-377 215 -377 479q0 145 109.5 233t275 88t312.5 -54t241 -140t94 -172q0 -62 -47 -110q-100 -104 -309 -103q-12 0 -33 4l-131 106v144q33 -12 53 -13q57 0 57 49.5z
" />
    <glyph glyph-name="nadeva" unicode="&#x928;" horiz-adv-x="1595" 
d="M1468 1288v-1308h-145l-330 188l97 121v264h-269q-35 -102 -105 -179q-68 -77 -140 -77t-179.5 77t-185.5 182.5t-78 181t100.5 106t335.5 30.5h521v414h-1084l-323 178v144h1837l319 -176v-146h-371z" />
    <glyph glyph-name="nnnadeva" unicode="&#x929;" horiz-adv-x="1595" 
d="M1468 1288v-1308h-145l-330 188l97 121v264h-269q-35 -102 -105 -179q-68 -77 -140 -77t-179.5 77t-185.5 182.5t-78 181t100.5 106t335.5 30.5h521v414h-1084l-323 178v144h1837l319 -176v-146h-371zM774 -401h-145l-234 92v315h144l235 -92v-315z" />
    <glyph glyph-name="padeva" unicode="&#x92a;" horiz-adv-x="1460" 
d="M547 1288v-434q0 -203 131 -203q66 0 115 53.5t93 123.5t68 106v354h-407zM1704 1288h-371v-1308h-145l-330 188l96 121v151q-61 -18 -137 -18q-141 0 -293.5 68.5t-254 185.5t-101.5 252v360h-143l-322 178v144h1681l320 -176v-146z" />
    <glyph glyph-name="uni092B" unicode="&#x92b;" horiz-adv-x="2240" 
d="M954 1292h-407v-434q0 -203 131 -203q65 0 114.5 53.5t93.5 123t68 106.5v354zM1458 1116q141 0 293 -68.5t253 -185.5t101 -254t-96 -239.5t-256 -132.5l-305 178v143q49 -10 111.5 -10t99.5 47t37 131q0 141 -99 141q-61 0 -110 -47t-127 -157l-27 -37v-645h-145
l-330 188l96 121v151q-61 -18 -137 -18q-141 0 -293.5 68.5t-254 185.5t-101.5 252v360h-143l-322 178v144h2531l303 -176v-146h-1185l-19 4v-188q55 12 125 12z" />
    <glyph glyph-name="uni092C" unicode="&#x92c;" horiz-adv-x="1495" 
d="M648.5 469q70.5 0 146.5 70l-254 206q-31 -51 -31 -133l-2 -2q0 -65 35 -103t105.5 -38zM1737 1288h-371v-1308h-145l-330 188l96 119q-74 -25 -195.5 -25t-282.5 67.5t-267.5 183.5t-106.5 252t96.5 237.5t255.5 132.5l306 -177v-145q-43 10 -95 10l205 -166l86 115v516
h-966l-320 178v144h1716l318 -176v-146z" />
    <glyph glyph-name="bhadeva" unicode="&#x92d;" horiz-adv-x="1753" 
d="M528 1219q0 113 -12 151.5t-43 38.5t-54.5 -34t-23.5 -82q0 -99 82 -99q26 0 51 12v13zM1626 1286v-1309h-145l-330 189l96 121v264h-375q-35 -102 -104.5 -179t-132.5 -77q-88 0 -204 75.5t-200 181t-84 179.5t88.5 105.5t292.5 35.5v99q-131 18 -256 82.5t-204.5 160
t-79.5 199.5t89 171t228 67t279.5 -71t231.5 -192.5t91 -265.5v-248h340v414h-57l-318 178v144h805l320 -176v-148h-371z" />
    <glyph glyph-name="madeva" unicode="&#x92e;" horiz-adv-x="1808" 
d="M1303 1288h-410v-414h410v414zM1681 1288v-1308h-145l-330 188l97 121v264h-445q-35 -102 -104.5 -179t-132.5 -77q-88 0 -204 76t-200 181t-84 179t88 105.5t293 35.5v414h-508l-323 178v144h2050l319 -176v-146h-371z" />
    <glyph glyph-name="uni092F" unicode="&#x92f;" horiz-adv-x="1585" 
d="M1081 1288h-424q92 -137 93 -293q0 -111 -72 -196.5t-195 -128.5q35 -98 154 -99l2 -2q121 0 237.5 80t204.5 203v436zM1458 1288v-1308h-145l-330 188l96 121v114q-127 -61 -281.5 -61t-305 66.5t-268.5 163t-156 180.5l94 122q78 16 127 84t49 171.5t-19 158.5h-210
l-322 178v144h1722l320 -176v-146h-371z" />
    <glyph glyph-name="radeva" unicode="&#x930;" horiz-adv-x="1130" 
d="M1047 750q0 -137 -69 -250t-173 -166l483 -285l-96 -123l-723 426q-133 66 -233.5 171.5t-100.5 188.5q0 162 250 162q115 0 258 -36q8 43 8 104q0 174 -67 346h-543l-324 178v144h1399l324 -176l2 -146h-549q154 -239 154 -538z" />
    <glyph glyph-name="rradeva" unicode="&#x931;" horiz-adv-x="1130" 
d="M1047 750q0 -137 -69 -250t-173 -166l483 -285l-96 -123l-723 426q-133 66 -233.5 171.5t-100.5 188.5q0 162 250 162q115 0 258 -36q8 43 8 104q0 174 -67 346h-543l-324 178v144h1399l324 -176l2 -146h-549q154 -239 154 -538zM745 -401h-145l-233 92v315h143l235 -92
v-315z" />
    <glyph glyph-name="uni0932" unicode="&#x932;" horiz-adv-x="1978" 
d="M1853 1286v-1309h-145l-330 189l97 121v233q-111 -59 -297 -135l-306 176v146l56 18q-12 76 -41 106.5t-82 30.5q-86 0 -141.5 -65.5t-55.5 -160.5t43 -157.5t144 -122.5l202 -118l-73 -136l-711 412q-14 86 -14 182t52 193.5t156.5 160t250.5 62.5t289 -70.5t245 -187.5
q188 111 281 215v219h-1453l-317 178v144h2200l319 -176l2 -148h-371z" />
    <glyph glyph-name="lladeva" unicode="&#x933;" horiz-adv-x="2191" 
d="M1679 756q0 147 -104 147q-70 0 -127 -57.5t-166 -214.5l-72 -103q-70 -102 -121 -160q-120 -136 -303 -135q-141 0 -294.5 71t-255 190.5t-101.5 258t104.5 240t268.5 129.5l307 -178v-147q-66 16 -138.5 16t-119.5 -55.5t-47 -157.5q0 -147 104 -147q85 0 162 101
q35 46 98 140l41 64q82 121 127 180q107 141 246 172v178h-1265l-320 178v144h2466l319 -176v-146l-821 2v-223q166 -68 277.5 -192.5t111.5 -267t-105.5 -244t-269.5 -127.5l-305 176v147q63 -16 136 -16t120 55t47 158z" />
    <glyph glyph-name="llladeva" unicode="&#x934;" horiz-adv-x="2191" 
d="M1679 756q0 147 -104 147q-70 0 -127 -57.5t-166 -214.5l-72 -103q-70 -102 -121 -160q-120 -136 -303 -135q-141 0 -294.5 71t-255 190.5t-101.5 258t104.5 240t268.5 129.5l307 -178v-147q-66 16 -138.5 16t-119.5 -55.5t-47 -157.5q0 -147 104 -147q85 0 162 101
q35 46 98 140l41 64q82 121 127 180q107 141 246 172v178h-1265l-320 178v144h2466l319 -176v-146l-821 2v-223q166 -68 277.5 -192.5t111.5 -267t-105.5 -244t-269.5 -127.5l-305 176v147q63 -16 136 -16t120 55t47 158zM1319 -336h-145l-234 92v316h143l236 -92v-316z" />
    <glyph glyph-name="vadeva" unicode="&#x935;" horiz-adv-x="1495" 
d="M1737 1290h-371v-1308h-145l-330 188l96 119q-74 -25 -195.5 -25t-282.5 67.5t-267.5 183.5t-106.5 252t96.5 237.5t255.5 132.5l306 -176v-146q-49 10 -119 10t-116 -56q-46 -57 -46 -139q0 -158 131 -157q80 0 142.5 56.5t154.5 179.5l49 63v516h-966l-320 178v144
h1716l318 -174v-146z" />
    <glyph glyph-name="shadeva" unicode="&#x936;" horiz-adv-x="1964" 
d="M584 1292q0 -96 80 -96q33 0 61 16q-6 121 -21.5 160t-45 39t-53 -34t-23.5 -85h2zM1837 1288v-1308h-143l-330 188l94 121v999h-55l-318 178v144h805l318 -176v-146h-371zM188 724q0 150 267 150q117 0 243 -26q14 49 23 123q-131 16 -259 79.5t-210 161t-82 201.5
t90 171t233.5 67t284 -82t232.5 -248t92 -401h2q0 -223 -74 -381l293 -166l-96 -123l-281 160q-101 -113 -211 -113t-237 74.5t-218.5 177.5t-91.5 175z" />
    <glyph glyph-name="ssadeva" unicode="&#x937;" horiz-adv-x="1460" 
d="M547 856q0 -203 131 -203q57 0 104 45t109 140h-39l-305 264v-246zM547 1290v-59l67 -4l340 -293v356h-407zM1704 1288h-371v-1308h-145l-330 188l96 121v151q-61 -18 -137 -18q-141 0 -293.5 68.5t-254 185.5t-101.5 252v360h-143l-322 178v144h1681l320 -176v-146z" />
    <glyph glyph-name="sadeva" unicode="&#x938;" horiz-adv-x="1941" 
d="M1436 1288h-543q115 -182 143 -407q90 -37 155.5 -37t123 25.5t121.5 91.5v327zM2185 1288h-370v-1308h-146l-330 188l97 121v239q-59 -16 -132 -16t-139 27l-131 104q-23 -102 -85 -184t-144 -125l483 -285l-96 -123l-723 426q-133 66 -233.5 171.5t-100.5 188.5
q0 162 250 162q115 0 258 -36q8 43 8 104q0 174 -67 346h-543l-324 178v144h2147l321 -176v-146z" />
    <glyph glyph-name="hadeva" unicode="&#x939;" horiz-adv-x="1355" 
d="M725 819q-123 0 -123 -96q0 -55 37 -96q152 -12 306.5 -84t254.5 -176.5t100 -197.5t-45 -160.5t-145 -137.5l-319 178v144q55 29 77.5 56t22.5 68t-32 67t-91 26q-102 0 -166.5 -71t-64.5 -181q0 -68 24.5 -116t82.5 -95t169 -109l428 -256l-96 -123l-1004 584
q-14 76 -14 143q0 143 62.5 248t179.5 154l-160 90q-14 51 -14 117q0 344 407 344h94v149h-549l-305 178v144h1450l305 -176v-146h-522v-471h-350v2z" />
    <glyph glyph-name="uni093A" unicode="&#x93a;" horiz-adv-x="0" 
d="M-123 1436h-143l-236 92v878h146l233 -92v-878z" />
    <glyph glyph-name="uni093B" unicode="&#x93b;" 
d="M596 1288v-1308h-145l-330 188l96 121v999h-57l-318 178v144h375v796h145l234 -92v-704h51l320 -176v-146h-371z" />
    <glyph glyph-name="nuktadeva" unicode="&#x93c;" horiz-adv-x="0" 
d="M-92 -485h-146l-233 92v315h143l236 -92v-315z" />
    <glyph glyph-name="avagrahadeva" unicode="&#x93d;" horiz-adv-x="1517" 
d="M743 1114q0 -72 88 -148t245 -180q157 -106 232 -162q181 -135 181 -235t-90 -193q-91 -94 -231 -154t-254 -60t-189 14l-688 561l100 121l293 -240q94 -76 196 -119t176 -43q75 0 137 27t101 68t39 86q0 69 -83 143q-84 74 -272 206t-289 225t-101 179t90 180t221 156
q131 63 244 64h618l318 -176v-146l-817 4q-62 0 -124 -26t-102 -67q-40 -42 -39 -85z" />
    <glyph glyph-name="uni093E" unicode="&#x93e;" 
d="M596 1288v-1308h-145l-330 188l96 121v999h-57l-318 178v144h805l320 -176v-146h-371z" />
    <glyph glyph-name="uni093F" unicode="&#x93f;" 
d="M-10 1999q0 98 69.5 157.5t192.5 59.5q260 0 466 -149.5t394 -477.5l-125 -106q-104 197 -235 304t-256 107q-55 0 -82 -27.5t-27 -74.5q0 -84 68 -182h141v-152l6 -6h-8v-1472h-145l-330 188l96 121v999h-160l-215 178v144h371q-221 203 -221 389z" />
    <glyph glyph-name="uni0940" unicode="&#x940;" 
d="M-211 1894q-111 0 -111 -109q0 -54 44.5 -133t119.5 -153v111h361q-97 137 -204.5 210.5t-209.5 73.5zM596 1288v-1308h-145l-330 188l96 121v999h-57l-293 164h-152q-215 135 -323.5 281.5t-108.5 255t69.5 168t192.5 59.5q254 0 459 -145.5t389 -460.5h254l320 -176
v-146h-371z" />
    <glyph glyph-name="uvowelsigndeva" unicode="&#x941;" horiz-adv-x="0" 
d="M-55 -727q0 -88 -86 -185.5t-212 -164t-242 -66.5t-198 17l-559 329l97 123l110 -69q178 -104 397 -105q94 0 174 37t128.5 97.5t48.5 117.5t-27 93t-74 36t-95 -45t-85 -123l-303 176v146q55 29 148.5 48t173.5 19q133 0 274 -67.5t235.5 -179t94.5 -234.5z" />
    <glyph glyph-name="uuvowelsigndeva" unicode="&#x942;" horiz-adv-x="0" 
d="M-590 -541q-92 0 -173 -36.5t-129 -96t-48 -117t27.5 -93.5t74.5 -36t95.5 44.5t83.5 121.5l305 -176v-145q-59 -29 -152.5 -48.5t-169.5 -19.5q-133 0 -275.5 67.5t-236.5 179.5t-94 234q0 88 87 185.5t213 164t240.5 66.5t198.5 -16l559 -330l-96 -121l-113 68
q-174 104 -397 104z" />
    <glyph glyph-name="rvocalicvowelsigndeva" unicode="&#x943;" horiz-adv-x="0" 
d="M-780 -816q0 -130 94 -130q57 0 128 59.5t132 161.5l305 -176v-146q-70 -37 -177.5 -66.5t-220 -29.5t-259 69.5t-243.5 185.5t-97 249t95 242.5t237 179.5l305 -176v-146q-143 0 -221 -73.5t-78 -203.5z" />
    <glyph glyph-name="rrvocalicvowelsigndeva" unicode="&#x944;" horiz-adv-x="0" 
d="M-284 -1380q-175 0 -337.5 61.5t-264 163.5t-101.5 217t141 203q-205 96 -205 221t121 195.5t289 89.5l322 -177v-145q-59 14 -127 14t-124.5 -25.5t-58.5 -66.5q0 -8 4 -24l271 -117v-145q-115 0 -186.5 -48.5t-73.5 -130.5q0 -33 27.5 -54t72.5 -21q127 6 223 190
l305 -178v-143q-123 -80 -298 -80z" />
    <glyph glyph-name="ecandravowelsigndeva" unicode="&#x945;" horiz-adv-x="0" 
d="M-1114 2288q0 -146 250 -146q152 0 257 73t163 193l75 99l334 -195q-27 -115 -122 -206t-242.5 -143t-333 -52t-370.5 66.5t-302 172t-117 215.5q0 53 13 103l96 123l315 -185q-16 -61 -16 -118z" />
    <glyph glyph-name="eshortvowelsigndeva" unicode="&#x946;" horiz-adv-x="0" 
d="M-2000 2236q101 0 237.5 26t240.5 26q188 0 350 -65.5t343 -213.5l507 -420l-114 -106l-361 295q-133 109 -244.5 149.5t-217 40.5t-239 -26.5t-237.5 -26.5q-186 0 -349 65.5t-341 212.5l-338 283l103 117l202 -166q234 -191 458 -191z" />
    <glyph glyph-name="evowelsigndeva" unicode="&#x947;" horiz-adv-x="0" 
d="M-724.5 2087q-110.5 0 -203.5 -27l-319 176v144q344 70 614 -40q162 -66 342 -212l660 -539l-99 -119l-526 424q-135 111 -246.5 152t-222 41z" />
    <glyph glyph-name="aivowelsigndeva" unicode="&#x948;" horiz-adv-x="0" 
d="M-1021.5 1913q-110.5 0 -205.5 -27l-317 178v144q343 70 615 -40q163 -66 341 -212l473 -391l-98 -119l-342 276q-133 109 -244.5 150t-222 41zM-1021.5 2322q-110.5 0 -205.5 -26l-317 178v143q132 27 292 27q324 0 664 -279l969 -788l-98 -119l-838 674
q-133 109 -244.5 149.5t-222 40.5z" />
    <glyph glyph-name="ocandravowelsigndeva" unicode="&#x949;" 
d="M596 1288v-1308h-145l-330 188l96 121v999h-57l-318 178v144h805l320 -176v-146h-371zM90 2288q0 -146 250 -146q152 0 257 73t163 193l76 99l333 -195q-27 -115 -122 -206t-242.5 -143t-333 -52t-370.5 66.5t-301.5 172t-116.5 215.5q0 53 12 103l96 123l315 -185
q-16 -61 -16 -118z" />
    <glyph glyph-name="uni094A" unicode="&#x94a;" 
d="M596 1288v-1308h-145l-330 188l96 121v999h-57l-318 178v144h373l-205 168q-133 109 -244.5 149.5t-217 40.5t-239 -26.5t-237.5 -26.5q-186 0 -349 65.5t-341 212.5l-338 283l103 117l202 -166q236 -191 458 -191q101 0 237.5 26t240.5 26q188 0 350 -65.5t340 -213.5
l486 -399h186l320 -176v-146h-371z" />
    <glyph glyph-name="ovowelsigndeva" unicode="&#x94b;" 
d="M596 1288v-1308h-145l-330 188l96 121v999h-57l-318 178v144h373l-354 284q-135 111 -247 152t-222 41t-203 -27l-319 176v144q344 70 614 -40q162 -66 342 -212l635 -518h186l320 -176v-146h-371z" />
    <glyph glyph-name="uni094C" unicode="&#x94c;" 
d="M596 1288v-1308h-145l-330 188l96 121v999h-57l-318 178v144h39l-139 112q-133 109 -244.5 150t-222 41t-205.5 -27l-317 178v144q344 70 614 -40q162 -66 342 -212l418 -346h262l-647 522q-133 109 -244.5 149.5t-222 40.5t-205.5 -26l-317 178v143q133 27 291 27
q321 0 665 -279l926 -755h12l320 -176v-146h-371z" />
    <glyph glyph-name="viramadeva" unicode="&#x94d;" horiz-adv-x="0" 
d="M-96 -754l-735 424l96 123l737 -426z" />
    <glyph glyph-name="uni094E" unicode="&#x94e;" 
d="M596 1288v-1308h-145l-330 188l96 121v1321h430l320 -176v-146h-371z" />
    <glyph glyph-name="uni094F" unicode="&#x94f;" 
d="M506 2048q0 -51 40 -85t127 -84t135 -94t48 -115t-68 -138l179 -98v-146h-371v-1308h-145l-330 188l96 121v999h-57l-318 178v144h371l-205 168q-133 109 -244.5 149.5t-217 40.5t-239 -26.5t-237.5 -26.5q-186 0 -349 65.5t-341 212.5l-338 283l103 117l202 -166
q236 -191 458 -191q101 0 237.5 26t240.5 26q188 0 350 -65.5t340 -213.5l439 -360q35 57 34.5 122.5t-41 105.5t-127.5 95t-134.5 105.5t-47.5 133.5t64.5 158.5t187.5 133.5l305 -176v-146q-147 -39 -147 -133z" />
    <glyph glyph-name="omdeva" unicode="&#x950;" horiz-adv-x="2656" 
d="M2378 926q0 239 -160 239q-76 1 -120 -25q-46 -26 -104 -96t-172 -230t-190 -239q-76 -78 -153 -108q29 -47 28 -90q0 -90 -91 -182q-91 -93 -231 -153t-254 -60t-188 14l-688 561l101 121l295 -240q90 -74 191 -118t178 -44q153 -1 240 98q38 44 38 90t-33 85
q-59 69 -371 233v144q203 85 203 272q0 141 -111 141q-68 0 -150 -56t-144 -148l-318 176v145q76 74 218 124t284 50t292 -85t242 -219q94 -134 95 -269q1 -88 -47 -173t-125 -145l77 -43q46 12 96 64t154 210q104 159 193 262q90 103 178 144t207 41l2 -2q190 0 363 -90
t279 -236t105 -289q-1 -144 -73 -262t-203 -192t-293 -74l-303 179v143q66 -8 147 -8q315 0 316 340zM1278 2134q0 -147 250 -145q152 1 257 73t163 193l75 98l334 -194q-27 -115 -122 -206t-242 -143t-333 -53q-186 0 -371 67t-302 172t-117 216q0 53 13 102l96 123
l315 -184q-16 -61 -16 -119zM1409 2628h143l236 -93v-315h-146l-233 94v314z" />
    <glyph glyph-name="udattadeva" unicode="&#x951;" horiz-adv-x="0" 
d="M-123 1845h-143l-236 92v879h146l233 -92v-879z" />
    <glyph glyph-name="anudattadeva" unicode="&#x952;" horiz-adv-x="0" 
d="M225 -438h-1390l-221 178v143h1390l221 -176v-145z" />
    <glyph glyph-name="gravedeva" unicode="&#x953;" horiz-adv-x="0" 
d="M-406 1827l-735 424l97 123l737 -426z" />
    <glyph glyph-name="acutedeva" unicode="&#x954;" horiz-adv-x="0" 
d="M37 2191q-135 -115 -319.5 -220t-465.5 -234l-317 178v143q489 215 784 455l318 -176v-146z" />
    <glyph glyph-name="uni0955" unicode="&#x955;" horiz-adv-x="0" 
d="M172 1808h-1391l-221 177v145h1391l221 -176v-146zM-952 2618q0 -138 250 -138q152 0 257 71.5t162 192.5l74 101l336 -197q-27 -115 -122 -206t-242.5 -143t-333 -52t-370.5 66.5t-303 172t-118 215.5q0 43 14 105l95 123l315 -187q-14 -53 -14 -124z" />
    <glyph glyph-name="uni0956" unicode="&#x956;" horiz-adv-x="0" 
d="M-628 -541q-151 0 -255 35l-288 230l61 126q242 -108 377 -108q189 0 362 164l318 -178v-144q-96 -57 -260 -91t-315 -34z" />
    <glyph glyph-name="uni0957" unicode="&#x957;" horiz-adv-x="0" 
d="M-628 -541q-151 0 -255 35l-288 230l61 126q242 -108 377 -108q189 0 362 164l318 -178v-144q-96 -57 -260 -91t-315 -34zM-628 -1038q-151 0 -255 34l-288 230l61 127q244 -109 377 -109q189 0 362 164l318 -178v-143q-96 -57 -260 -91t-315 -34z" />
    <glyph glyph-name="qadeva" unicode="&#x958;" horiz-adv-x="2191" 
d="M905 1288h-882l-320 178v144h2466l319 -176v-146h-1206v-188q55 12 123 12q141 0 293.5 -68.5t254 -185.5t101.5 -254t-97 -239.5t-257 -133.5l-303 179v143q49 -10 117.5 -10t113.5 56t49 155q0 141 -98 141q-72 -2 -123 -51t-119 -146l-49 -69l-6 -6v-643h-145
l-330 188l76 96q-51 -10 -103 -10q-141 0 -292.5 68.5t-253 185.5t-101.5 255t96.5 239.5t255.5 132.5l306 -177v-145q-49 10 -118 10t-115 -56t-50 -155q0 -141 100 -141q74 2 129.5 55.5t124.5 155.5l37 55l6 6v545zM627 -319h-146l-233 92v315h143l236 -92v-315z" />
    <glyph glyph-name="khhadeva" unicode="&#x959;" horiz-adv-x="2639" 
d="M1047 750q0 -137 -69 -250t-173 -166l483 -285l-96 -123l-723 426q-133 66 -233.5 171.5t-100.5 188.5q0 162 250 162q115 0 258 -36q8 43 8 104q0 174 -67 346h-543l-324 178v144h2847l320 -174v-146h-371v-1308h-146l-329 188l96 119q-74 -25 -195.5 -25t-282.5 67.5
t-267.5 183.5t-106.5 252t96.5 237.5t255.5 132.5l305 -176v-146q-49 10 -118.5 10t-115.5 -56q-46 -57 -46 -139q0 -158 131 -157q80 0 142.5 56.5t154.5 179.5l49 63v516h-1243q154 -239 154 -538zM590 -401h-146l-233 92v315h143l236 -92v-315z" />
    <glyph glyph-name="ghhadeva" unicode="&#x95a;" horiz-adv-x="1789" 
d="M133 735q0 139 242 139q78 0 186 -22v436h-557l-321 178v144h2031l320 -176v-146h-371v-1308h-145l-330 188l96 121v999h-344v-629q0 -86 -53 -169.5t-132 -138t-155 -54.5t-189.5 74.5t-195.5 179t-82 184.5zM774 -401h-145l-234 92v315h144l235 -92v-315z" />
    <glyph glyph-name="zadeva" unicode="&#x95b;" horiz-adv-x="1830" 
d="M688 418q0 72 -37 145.5t-108 132.5l-66 56l94 120v2h754v414h-1300l-322 178v144h2052l320 -176v-146h-371v-1308h-145l-330 188l96 121v264h-360l118 -98q14 -55 14.5 -133t-59 -160t-163 -132t-244 -50t-246.5 34l-307 244l61 129q253 -133 387 -133q74 0 118 46
t44 118zM817 -657h-145l-234 92v315h144l235 -92v-315z" />
    <glyph glyph-name="dddhadeva" unicode="&#x95c;" horiz-adv-x="1652" 
d="M963.5 737q115.5 0 274.5 -71.5t265.5 -178t106.5 -202.5q0 -74 -101.5 -144.5t-264.5 -115.5t-307 -45t-243 16l-686 561l101 119l301 -246q193 -156 411.5 -156t321.5 68q47 31 47 62t-25.5 53t-58.5 22q-61 0 -121 -71q-176 37 -336 117.5t-258 180t-98 178.5
t54 146.5t142.5 110.5t178.5 43h331v104h-1011l-322 178v144h1913l322 -176v-146h-523v-426h-559v-2q-49 0 -86 -31.5t-37 -68.5t19 -68q133 45 248.5 45zM383 -365h-145l-234 93v315h143l236 -92v-316z" />
    <glyph glyph-name="rhadeva" unicode="&#x95d;" horiz-adv-x="1585" 
d="M1061 303q0 -68 80 -67q27 0 47 6q6 23 6 59.5t-17.5 68t-43.5 31.5v2q-29 0 -50.5 -29.5t-21.5 -70.5zM506 552q0 -99 62.5 -184t167 -143.5t222.5 -70.5q-131 68 -219 165t-88 182q0 171 234 171q139 0 302 -76t274.5 -186.5t111.5 -211.5t-111.5 -159.5t-338 -58.5
t-452 99t-361.5 264t-136 349q0 106 57.5 197.5t154.5 146t212 54.5h264v198h-854l-305 178v144h1886l305 -176v-146h-653v-518h-442q-140 0 -216.5 -59.5t-76.5 -158.5zM571 -446h-145l-233 92v315h143l235 -92v-315z" />
    <glyph glyph-name="fadeva" unicode="&#x95e;" horiz-adv-x="2240" 
d="M954 1292h-407v-434q0 -203 131 -203q65 0 114.5 53.5t93.5 123t68 106.5v354zM1458 1116q141 0 293 -68.5t253 -185.5t101 -254t-96 -239.5t-256 -132.5l-305 178v143q49 -10 111.5 -10t99.5 47t37 131q0 141 -99 141q-61 0 -110 -47t-127 -157l-27 -37v-645h-145
l-330 188l96 121v151q-61 -18 -137 -18q-141 0 -293.5 68.5t-254 185.5t-101.5 252v360h-143l-322 178v144h2531l303 -176v-146h-1185l-19 4v-188q55 12 125 12zM668 -186h-146l-233 92v315h143l236 -92v-315z" />
    <glyph glyph-name="yyadeva" unicode="&#x95f;" horiz-adv-x="1585" 
d="M1081 1288h-424q92 -137 93 -293q0 -111 -72 -196.5t-195 -128.5q35 -98 154 -99l2 -2q121 0 237.5 80t204.5 203v436zM1458 1288v-1308h-145l-330 188l96 121v114q-127 -61 -281.5 -61t-305 66.5t-268.5 163t-156 180.5l94 122q78 16 127 84t49 171.5t-19 158.5h-210
l-322 178v144h1722l320 -176v-146h-371zM668 -279h-146l-233 93v315h143l236 -92v-316z" />
    <glyph glyph-name="rrvocalicdeva" unicode="&#x960;" horiz-adv-x="3033" 
d="M610.5 1110q104.5 0 214 -38t254.5 -154l95 -76l114 78v368h-1272l-317 178v144h3312l321 -176v-146l-1667 -2v-452q37 -16 119 -16.5t172 157.5q52 105 142 168q91 63 189.5 63t224.5 -44t214 -115.5t88 -145.5q0 -94 -137 -160.5t-346 -101.5q18 -70 84 -131l200 -111
v-145q-59 14 -127.5 14t-125 -25.5t-56.5 -66.5q0 -8 4 -24l270 -117v-146q-115 0 -186.5 -48t-73.5 -130q0 -33 28 -54.5t73 -21.5q127 6 223 191l305 -176v-146q-129 -80 -302 -80t-335 61.5t-263 164t-101 218.5t139 202q-203 96 -203 225q0 92 80 162q-33 86 -49 176
q-14 -2 -43 -2q-94 0 -205 67v-719h-145l-330 189l96 121v178q-190 -125 -450 -250l-318 176v144q287 102 504 219q-88 59 -186 59q-196 0 -480 -180l-286 160v143q211 100 322.5 137t216 37z" />
    <glyph glyph-name="llvocalicdeva" unicode="&#x961;" horiz-adv-x="2045" 
d="M1534 774q0 123 -109 123q-88 0 -159.5 -74.5t-140 -179.5t-74.5 -113l-240 140v145l18 25q-35 25 -84 24q-88 0 -146 -67.5t-58 -163t37.5 -166t121.5 -137.5l183 -148l-97 -123l-639 525q-14 55 -14 139t53.5 178t160 153.5t279.5 59.5t351 -102q86 76 190 94v182
h-1144l-320 178v144h2320l320 -176v-146l-801 4v-239q158 -70 261.5 -187.5t103.5 -259.5q0 -59 -41 -107t-114 -107.5t-106.5 -98.5t-33.5 -82t37 -80l159 -86v-143q-113 2 -185.5 -47.5t-72.5 -120.5q0 -82 99 -82q53 0 98 44t92 128l305 -176v-146q-113 -63 -276.5 -63
t-326.5 61.5t-264 165t-101 221.5q0 141 153 248q-135 86 -135 189q0 53 38 95t122 103.5t132 116.5t48 135z" />
    <glyph glyph-name="lvocalicvowelsigndeva" unicode="&#x962;" horiz-adv-x="0" 
d="M-315 -750q0 -92 -50.5 -153.5t-129.5 -121.5t-109.5 -94t-30.5 -73t21.5 -62.5t66.5 -23.5t96.5 52t88.5 145l307 -174v-144q-70 -49 -177.5 -89t-217 -40t-252 61.5t-236.5 165t-94 220.5q0 84 47 141t126 117.5t112.5 98.5t33.5 95.5t-36.5 97t-92.5 39.5
q-90 0 -167.5 -96t-135.5 -268l-305 176v145l6 7q-37 6 -67 6q-113 0 -174.5 -61.5t-61.5 -144.5t40 -150.5t128 -137.5l182 -149l-96 -121l-639 522q-14 55 -14 143.5t55 179.5t152.5 144t218.5 53q203 0 409 -121q132 119 297 119t325.5 -69.5t267 -185t106.5 -249.5z" />
    <glyph glyph-name="llvocalicvowelsigndeva" unicode="&#x963;" horiz-adv-x="0" 
d="M-383 -1778q-176 0 -338 61.5t-263 163t-101 229.5t141 232q-88 92 -88 193q0 55 45 91t127 77t114.5 65.5t32.5 67.5t-36.5 73.5t-92.5 30.5q-100 0 -187 -97t-149 -267l-305 176v145l6 13q-12 2 -34 2q-113 0 -174.5 -61.5t-61.5 -145.5t40 -150.5t128 -138.5l182 -147
l-96 -121l-639 522q-14 55 -14 143.5t55 179.5t152.5 144t218.5 53q197 0 397 -112q138 110 306 110t328.5 -69.5t267 -185t106.5 -249.5q0 -55 -45.5 -91t-125.5 -72.5t-114.5 -62t-34.5 -59.5t39 -67l139 -76v-145q-100 0 -161.5 -39t-61.5 -100q0 -31 28.5 -52.5
t71.5 -21.5q100 0 187 152l309 -170v-144q-123 -80 -299 -80z" />
    <glyph glyph-name="dandadeva" unicode="&#x964;" horiz-adv-x="1361" 
d="M870 -20h-143l-330 188l95 121v1341h145l233 -133v-1517z" />
    <glyph glyph-name="dbldandadeva" unicode="&#x965;" horiz-adv-x="2045" 
d="M1554 -20h-143l-330 188l95 121v1341h145l233 -133v-1517zM870 -20h-143l-330 188l95 121v1341h145l233 -133v-1517z" />
    <glyph glyph-name="zerodeva" unicode="&#x966;" horiz-adv-x="1536" 
d="M610 694q0 -109 40 -164t112 -55t118 74q46 73 46 183t-40 165t-111 55t-118 -74q-47 -75 -47 -184zM885 246q-137 0 -301 74t-274 199q-110 126 -109 274q0 111 56 199q57 88 157 140t238 52t301 -74t273 -201t109 -274q0 -111 -56 -199q-57 -88 -157 -139t-237 -51z
" />
    <glyph glyph-name="onedeva" unicode="&#x967;" horiz-adv-x="1275" 
d="M535 1085q43 0 65 17q-4 135 -25 212q-20 77 -51 77q-30 1 -52 -49t-21 -119h-2q0 -138 86 -138zM985 920q0 -186 -45 -479q-45 -292 -84 -461h-145l-234 94q86 385 117 786q-141 16 -268 87t-205 172t-78 195t48 163t130 111t176 42q162 0 296 -96t213 -262t79 -352z
" />
    <glyph glyph-name="twodeva" unicode="&#x968;" horiz-adv-x="1525" 
d="M197 698q0 146 263 146q126 0 277 -45q162 193 162 395q0 145 -108 145q-70 0 -151 -56t-146 -148l-318 176v145q76 74 218 124t284 50t292 -85t242 -218q94 -133 94 -268t-67 -288q-68 -153 -174 -275l616 -500l-106 -115l-623 506q-129 -102 -234 -102q-106 -1 -228 69
t-208 170t-85 174z" />
    <glyph glyph-name="threedeva" unicode="&#x969;" horiz-adv-x="1693" 
d="M981 1186q0 153 -104 153q-78 0 -159 -57t-143 -147l-317 176v145q84 78 227 126t279 48t284 -86t244 -216t97 -253q0 -219 -179 -344q156 -88 245 -182t89 -175t-85 -174q-85 -92 -208 -156t-229 -64q-59 0 -135 10l426 -346l-107 -115l-776 631q-122 82 -192 182
t-70 188t35 134q35 45 98 45q121 0 201 -118t102 -323q166 -61 336 -1q88 32 145 81t57 100q0 50 -24 90t-98 92t-242 152v144q88 33 146 103q57 71 57 157z" />
    <glyph glyph-name="fourdeva" unicode="&#x96a;" horiz-adv-x="1687" 
d="M1065 468q0 174 -178 323l-58 -56q-102 -96 -143 -170t-41 -157q0 -178 164 -179q108 0 182 73t74 166zM1475 344q0 -106 -65 -188q-66 -82 -178 -129t-276 -47t-336 78q-173 78 -279 207q-105 128 -105 267q0 193 213 402l98 92l-88 61q-295 205 -295 492q0 57 14 107
l94 122l316 -186q-14 -55 -15 -135q0 -215 99 -342l192 182q158 151 158 273q0 59 -21 108l74 100l336 -196q31 -61 31 -139q0 -150 -170 -320l-275 -258l136 -94h2q184 -144 262 -248q78 -103 78 -209z" />
    <glyph glyph-name="fivedeva" unicode="&#x96b;" horiz-adv-x="1673" 
d="M596 1323q0 -162 123 -162q49 0 102 26t89 76t36 117v252h144l235 -94v-639q0 -391 -76 -625l580 -471l-107 -114l-538 438q-86 -135 -209 -145q-105 0 -241 72t-234 171q-187 190 -24 277q76 39 194 39t254 -25q16 164 16 422q-39 -6 -82 -6q-139 0 -290 63t-251 171
t-100 233v233h145l234 -94v-215z" />
    <glyph glyph-name="sixdeva" unicode="&#x96c;" horiz-adv-x="1916" 
d="M367 1063q-217 119 -217 333q0 116 88 187q88 70 233 70q37 0 86 -4l322 -176v-146q-57 14 -128 14t-133 -24q-61 -25 -61 -64q0 -74 127 -75l322 -177v-145q-57 10 -144 10q-88 0 -144 -51t-56 -117t47 -106q47 -41 106 -41q135 0 226 69t159 183q-35 125 -35 241
t38 184t111 68t173 -86t170 -208q69 -122 69 -226t-151 -229l655 -531l-108 -114l-680 553q-251 -144 -490 -144q-160 0 -324 65q-164 66 -271 180t-107 256q0 143 117 251z" />
    <glyph glyph-name="sevendeva" unicode="&#x96d;" horiz-adv-x="2103" 
d="M1491 977q0 262 -70 262q-33 0 -55 -49t-20 -121q0 -135 86 -135v-2q39 0 59 14v31zM1901 776q-1 -204 -103 -392t-278 -296q-176 -109 -385 -108q-254 0 -472 147t-348 396q-129 249 -129 560t152 603l96 122l316 -186q-88 -246 -121 -421t-33 -417t101 -395t291 -153
t311 122q122 122 167 351q-137 20 -260 91q-122 71 -196 169t-74 190t48 164t130 113t180 41h2q164 -1 302 -93t220 -248t83 -360z" />
    <glyph glyph-name="eightdeva" unicode="&#x96e;" horiz-adv-x="1724" 
d="M657 995q1 -88 59 -144t143 -88t246 -74t262 -82q101 -39 172 -113t71 -191t-60 -198t-166 -144l-305 176v146q57 3 89 35t32 87t-74 93t-251 90q-177 53 -307 110t-225 167t-95 280q0 74 28 143h-135l-325 178v144h1562l324 -176v-146h-754q-125 0 -208 -79t-83 -214z
" />
    <glyph glyph-name="ninedeva" unicode="&#x96f;" horiz-adv-x="1546" 
d="M129 526q0 261 301 410q-199 170 -199 354q1 98 61 176t169 123t244 45t265 -54t212 -140t82 -174q0 -60 -47 -108t-129 -76t-183 -27q-10 0 -31 4l-131 106v144q70 -24 96 2q15 14 15 37q0 47 -68 47t-106 -45q-39 -45 -39 -121q0 -160 154 -273l209 -114v-146
q-59 10 -137 10t-158 -40q-80 -41 -127 -109t-47 -133q1 -65 39 -102t102 -37q207 0 424 256l321 -174v-144q-117 -94 -271 -168q-308 -147 -642 -1q-164 72 -272 202t-107 270z" />
    <glyph glyph-name="abbreviationsigndeva" unicode="&#x970;" horiz-adv-x="1271" 
d="M625 631q49 0 77 49t27 127q0 137 -82 137q-47 0 -75 -49t-27 -127q0 -137 80 -137zM748 399q-122 -1 -268 63q-148 64 -247 172q-98 108 -98 232q0 86 47 157t133 112q87 41 209 41t269 -64q147 -63 246 -171t100 -232q0 -86 -48 -157q-49 -71 -135 -112t-208 -41z" />
    <glyph glyph-name="uni0971" unicode="&#x971;" horiz-adv-x="1292" 
d="M879 1243h-146l-233 94v314h143l236 -92v-316z" />
    <glyph glyph-name="uni0972" unicode="&#x972;" horiz-adv-x="2258" 
d="M872 1264q0 43 -19 63.5t-76.5 20.5t-137.5 -56.5t-147 -154.5l-318 176v145q80 76 221.5 125t280.5 49t280.5 -72.5t230.5 -187.5t89 -233q0 -72 -47 -141.5t-129 -120.5l49 -31q100 -47 160 -47q117 0 234.5 91t207.5 249v149h-92l-320 178v144h844l318 -176v-144h-371
v-1308h-145l-330 188l96 121v336q-114 -74 -281 -74q-57 0 -104 8q-14 -74 -89 -142.5t-181.5 -111.5t-206 -43t-213.5 17l-545 317l94 123l127 -72q158 -92 350 -92q63 0 125 21.5t101 55.5t38 78t-53.5 92t-179.5 116v143q139 74 139 201zM1624 2288q0 -146 250 -146
q152 0 257 73t163 193l76 99l333 -195q-27 -115 -122 -206t-242.5 -143t-333 -52t-370.5 66.5t-301.5 172t-116.5 215.5q0 53 12 103l96 123l315 -185q-16 -61 -16 -118z" />
    <glyph glyph-name="uni0973" unicode="&#x973;" horiz-adv-x="2258" 
d="M872 1264q0 43 -19 63.5t-76.5 20.5t-137.5 -56.5t-147 -154.5l-318 176v145q80 76 221.5 125t280.5 49t280.5 -72.5t230.5 -187.5t89 -233q0 -72 -47 -141.5t-129 -120.5l49 -31q100 -47 160 -47q117 0 234.5 91t207.5 249v149h-92l-320 178v144h844l318 -176v-144h-371
v-1308h-145l-330 188l96 121v336q-114 -74 -281 -74q-57 0 -104 8q-14 -74 -89 -142.5t-181.5 -111.5t-206 -43t-213.5 17l-545 317l94 123l127 -72q158 -92 350 -92q63 0 125 21.5t101 55.5t38 78t-53.5 92t-179.5 116v143q139 74 139 201zM2130 1845h-143l-236 92v879h145
l234 -92v-879z" />
    <glyph glyph-name="uni0974" unicode="&#x974;" horiz-adv-x="2981" 
d="M872 1264q0 43 -19 63.5t-76.5 20.5t-137.5 -56.5t-147 -154.5l-318 176v145q80 76 221.5 125t280.5 49t280.5 -72.5t230.5 -187.5t89 -233q0 -72 -47 -141.5t-129 -120.5l49 -31q100 -47 160 -47q117 0 234.5 91t207.5 249v149h-92l-320 178v144h1137v796h145l234 -92
v-704h51l320 -176v-144h-371v-1308h-145l-330 188l96 121v999h-346v-1308h-145l-330 188l96 121v336q-114 -74 -281 -74q-57 0 -104 8q-14 -74 -89 -142.5t-181.5 -111.5t-206 -43t-213.5 17l-545 317l94 123l127 -72q158 -92 350 -92q63 0 125 21.5t101 55.5t38 78
t-53.5 92t-179.5 116v143q139 74 139 201z" />
    <glyph glyph-name="uni0975" unicode="&#x975;" horiz-adv-x="2981" 
d="M2765 2048q0 -51 40 -85t127 -84t135 -94t48 -115t-68 -138l179 -98v-142h-371v-1308h-145l-330 188l96 121v999h-346v-1308h-145l-330 188l96 121v336q-114 -74 -281 -74q-57 0 -104 8q-14 -74 -89 -142.5t-181.5 -111.5t-206 -43t-213.5 17l-545 317l94 123l127 -72
q158 -92 350 -92q63 0 125 21.5t101 55.5t38 78t-53.5 92t-179.5 116v143q139 74 139 201q0 43 -19 63.5t-76.5 20.5t-137.5 -56.5t-147 -154.5l-318 176v145q80 76 221.5 125t280.5 49t280.5 -72.5t230.5 -187t89 -233.5q0 -72 -47 -141.5t-129 -120.5l49 -31
q100 -47 160 -47q117 0 234.5 91t207.5 249v149h-92l-320 178v144h1133l-205 168q-133 109 -244.5 149.5t-218 40.5t-238 -26.5t-235.5 -26.5q-188 0 -350 65.5t-342 212.5l-338 283l102 117l203 -166q236 -191 458 -191q101 0 237.5 26t240.5 26q188 0 350 -65.5
t342 -213.5l437 -360q35 57 34.5 121.5t-41.5 104.5t-127.5 95t-134 105.5t-47.5 133.5t64.5 158.5t187.5 133.5l305 -176v-146q-147 -39 -147 -133z" />
    <glyph glyph-name="uni0976" unicode="&#x976;" horiz-adv-x="2258" 
d="M872 1264q0 43 -19 63.5t-76.5 20.5t-137.5 -56.5t-147 -154.5l-318 176v145q80 76 221.5 125t280.5 49t280.5 -72.5t230.5 -187.5t89 -233q0 -72 -47 -141.5t-129 -120.5l49 -31q100 -47 160 -47q117 0 234.5 91t207.5 249v149h-92l-320 178v144h844l318 -176v-144h-371
v-1308h-145l-330 188l96 121v336q-114 -74 -281 -74q-57 0 -104 8q-14 -74 -89 -142.5t-181.5 -111.5t-206 -43t-213.5 17l-545 317l94 123l127 -72q158 -92 350 -92q63 0 125 21.5t101 55.5t38 78t-53.5 92t-179.5 116v143q139 74 139 201zM1423 -258q190 0 363 164
l317 -178v-144q-96 -57 -260 -91t-314.5 -34t-254.5 35l-289 230l62 126q242 -108 376 -108z" />
    <glyph glyph-name="uni0977" unicode="&#x977;" horiz-adv-x="2258" 
d="M1423 -754q190 0 363 164l317 -178v-143q-96 -57 -260 -91t-314.5 -34t-254.5 35l-289 229l62 127q244 -109 376 -109zM1423 -256q190 0 363 164l317 -178v-144q-96 -57 -260 -91t-314.5 -34t-254.5 35l-289 230l62 127q244 -109 376 -109zM872 1264q0 43 -19 63.5
t-76.5 20.5t-137.5 -56.5t-147 -154.5l-318 176v145q80 76 221.5 125t280.5 49t280.5 -72.5t230.5 -187.5t89 -233q0 -72 -47 -141.5t-129 -120.5l49 -31q100 -47 160 -47q117 0 234.5 91t207.5 249v149h-92l-320 178v144h844l318 -176v-144h-371v-1308h-145l-330 188
l96 121v336q-114 -74 -281 -74q-57 0 -104 8q-14 -74 -89 -142.5t-181.5 -111.5t-206 -43t-213.5 17l-545 317l94 123l127 -72q158 -92 350 -92q63 0 125 21.5t101 55.5t38 78t-53.5 92t-179.5 116v143q139 74 139 201z" />
    <glyph glyph-name="uni0979" unicode="&#x979;" horiz-adv-x="1814" 
d="M688 418q0 72 -37 145.5t-108 132.5l-66 56l94 120v2h754v414h-1300l-322 178v144h2052l320 -176v-146h-371v-1308h-145l-330 188l96 121v264h-360l118 -98q14 -55 14.5 -133t-59 -160t-163 -132t-244 -50t-246.5 34l-307 244l61 129q253 -133 387 -133q74 0 118 46
t44 118zM332 -461h-146l-233 92v316h143l236 -92v-316zM817 -737h-145l-234 92v315h144l235 -92v-315zM1280 -461h-145l-234 92v316h143l236 -92v-316z" />
    <glyph glyph-name="uni097B" unicode="&#x97b;" horiz-adv-x="1816" 
d="M133 735q0 139 242 139q78 0 186 -22v436h-557l-321 178v144h2058l317 -176v-146h-370v-1726h-1391l-223 178v143h1235v1405h-369v-629q0 -86 -53 -169.5t-132 -138t-155 -54.5t-189.5 74.5t-195.5 179t-82 184.5z" />
    <glyph glyph-name="uni097C" unicode="&#x97c;" horiz-adv-x="1837" 
d="M688 418q0 72 -37 145.5t-108 132.5l-66 56l94 120v2h760v414h-1306l-322 178v144h2058l320 -176v-146h-371v-1726h-1368l-223 178v143h1212v670h-366l118 -98q14 -55 14.5 -133t-59 -160t-163 -132t-244 -50t-246.5 34l-307 244l61 129q253 -133 387 -133q74 0 118 46
t44 118z" />
    <glyph glyph-name="uni097D" unicode="&#x97d;" horiz-adv-x="1822" 
d="M1186 1153q0 240 -287 242q-168 0 -265 -93t-97 -255l-76 -99l-334 195q0 145 85 261t233 182t340 64q192 0 381 -94t309 -244q119 -151 119 -292t-78 -249q-76 -108 -198 -169t-253 -61h-41v-561h-143l-236 94v786h248q127 0 210 80t83 213z" />
    <glyph glyph-name="uni097E" unicode="&#x97e;" horiz-adv-x="1652" 
d="M963.5 737q115.5 0 274.5 -71.5t265.5 -178t106.5 -202.5q0 -74 -101.5 -144.5t-264.5 -115.5t-307 -45t-243 16l-686 561l101 119l301 -246q193 -156 411.5 -156t321.5 68q47 31 47 62t-25.5 53t-58.5 22q-61 0 -121 -71q-176 37 -336 117.5t-258 180t-98 178.5
t54 146.5t142.5 110.5t178.5 43h331v104h-1011l-322 178v144h1913l322 -176v-146h-523v-426h-559v-2q-49 0 -86 -31.5t-37 -68.5t19 -68q133 45 248.5 45zM1700 -438h-1391l-221 178v143h1391l221 -176v-145z" />
    <glyph glyph-name="uni097F" unicode="&#x97f;" horiz-adv-x="1527" 
d="M648.5 469q70.5 0 146.5 70l-254 206q-31 -51 -31 -133l-2 -2q0 -65 35 -103t105.5 -38zM1399 1288v-1726h-965l-221 178v143h807v418q-88 -39 -219 -39t-292 67.5t-267.5 183.5t-106.5 252t96.5 237.5t255.5 132.5l306 -177v-145q-43 10 -95 10l205 -166q10 12 41 56
l72 92l6 -4v487h-999l-320 178v144h1749l320 -176l-3 -146h-370z" />
    <glyph glyph-name="uni0FD5" unicode="&#xfd5;" horiz-adv-x="2576" 
d="M1528 965h717v-985h-144l-235 94v569h-338v-643h-1118v96l94 226h645v321h-719v987h145l234 -94v-571h340v645h1118v-94l-92 -228h-647v-323z" />
    <glyph glyph-name="uni0FD6" unicode="&#xfd6;" horiz-adv-x="2576" 
d="M1149 965v323h-647l-92 228v94h1118v-645h340v571l233 94h146v-987h-719v-321h645l94 -226v-96h-1118v643h-338v-569l-236 -94h-143v985h717z" />
    <glyph glyph-name="uni0FD7" unicode="&#xfd7;" horiz-adv-x="2576" 
d="M1528 965h717v-985h-144l-235 94v569h-338v-643h-1118v96l79 191l-6 4v83l84 118l173 -106v-64h128v52l84 118l173 -106v-64h24v321h-51l-57 -80l-130 80h-198l-57 -80l-130 80h-96v987h145l234 -94v-571h340v645h1118v-94l-92 -228h-647v-323z" />
    <glyph glyph-name="uni0FD8" unicode="&#xfd8;" horiz-adv-x="2576" 
d="M1149 965v323h-647l-92 228v94h1118v-645h340v571l233 94h146v-987h-719v-321h645l94 -226v-96h-1118v643h-244l-94 -58v-126l54 33l83 -118v-83l-137 -85v-132l-236 -94h-143v230l-42 -26l-83 117v85l125 77v126l-42 -26l-83 117v85l125 76v124h717z" />
    <glyph glyph-name="Wgrave" unicode="&#x1e80;" horiz-adv-x="2676" 
d="M754 1610v-129l-144 -105l402 -1048l221 716l-115 322l-186 96l74 148h751v-129l-211 -123l357 -1032l340 977l-312 159l74 148h672l2 -129l-217 -162l-445 -1253l-395 -105l-279 780l-206 -675l-398 -105l-546 1403l-207 98l73 148h695zM1460 1868l-555 307l58 115
l407 39l219 -402z" />
    <glyph glyph-name="wgrave" unicode="&#x1e81;" horiz-adv-x="1990" 
d="M1944 979l-484 -977h-289l-170 418l-225 -418h-289l-297 725l-204 119v131l483 172l78 -309l217 -523l156 299l-46 111l-204 119v131l483 172l78 -309l213 -514l203 430l-310 202l74 150l533 2v-131zM1053 1366l-555 307l57 115l408 39l219 -402z" />
    <glyph glyph-name="Wacute" unicode="&#x1e82;" horiz-adv-x="2676" 
d="M754 1610v-129l-144 -105l402 -1048l221 716l-115 322l-186 96l74 148h751v-129l-211 -123l357 -1032l340 977l-312 159l74 148h672l2 -129l-217 -162l-445 -1253l-395 -105l-279 780l-206 -675l-398 -105l-546 1403l-207 98l73 148h695zM1890 2175l-555 -307l-127 59
l219 402l408 -39z" />
    <glyph glyph-name="wacute" unicode="&#x1e83;" horiz-adv-x="1990" 
d="M1944 979l-484 -977h-289l-170 418l-225 -418h-289l-297 725l-204 119v131l483 172l78 -309l217 -523l156 299l-46 111l-204 119v131l483 172l78 -309l213 -514l203 430l-310 202l74 150l533 2v-131zM1483 1673l-555 -307l-127 59l219 402l407 -39z" />
    <glyph glyph-name="Wdieresis" unicode="&#x1e84;" horiz-adv-x="2676" 
d="M754 1610v-129l-144 -105l402 -1048l221 716l-115 322l-186 96l74 148h751v-129l-211 -123l357 -1032l340 977l-312 159l74 148h672l2 -129l-217 -162l-445 -1253l-395 -105l-279 780l-206 -675l-398 -105l-546 1403l-207 98l73 148h695zM1538 2041.5q0 71.5 40 124
t100.5 83t131 30.5t126 -57t55.5 -128.5t-40 -123t-100.5 -82t-130 -30.5t-126 56t-56.5 127.5zM803 2041.5q0 71.5 40 124t100.5 83t131 30.5t125.5 -57t55 -128.5t-39.5 -123t-100 -82t-130.5 -30.5t-126 56t-56 127.5z" />
    <glyph glyph-name="wdieresis" unicode="&#x1e85;" horiz-adv-x="1990" 
d="M1944 979l-484 -977h-289l-170 418l-225 -418h-289l-297 725l-204 119v131l483 172l78 -309l217 -523l156 299l-46 111l-204 119v131l483 172l78 -309l213 -514l203 430l-310 202l74 150l533 2v-131zM1085 1541q0 68 38 118.5t96.5 80t126 29.5t120 -54t52.5 -123.5
t-38 -119t-95.5 -79t-125 -29.5t-121 54.5t-53.5 122.5zM465 1541q0 68 38 118.5t96 80t126 29.5t120 -54t52 -123.5t-38 -119t-95 -79t-125 -29.5t-121 54.5t-53 122.5z" />
    <glyph glyph-name="uni1E9E" unicode="&#x1e9e;" horiz-adv-x="1923" 
d="M1843 1047v-146l-559 -522h330l82 184l129 -37v-563l-180 37h-859v145l560 523h-533v143l526 465q-65 20 -232 84q-166 64 -300 63q-74 0 -115 -46t-41 -117v-1260h-598v131l193 166v854q0 102 96 220t236 199t255 81t407 -21t605 -20l-2 -142l-500 -421h500z" />
    <glyph glyph-name="Ygrave" unicode="&#x1ef2;" horiz-adv-x="1761" 
d="M496 2v131l192 152v243l-557 867l-147 69l41 148h723v-129l-146 -113l354 -547l351 492l-293 147l76 148h671v-129l-219 -168l-465 -664v-438l232 -59l-74 -150h-739zM954 1868l-555 307l58 115l407 39l219 -402z" />
    <glyph glyph-name="ygrave" unicode="&#x1ef3;" horiz-adv-x="1351" 
d="M1307 1108v-131l-529 -977l-497 -541l-146 111q150 180 210.5 311t70.5 295l-226 549l-204 119v131l483 172l78 -309l217 -523l233 447l-299 196l74 150h535zM727 1366l-555 307l57 115l408 39l219 -402z" />
    <glyph glyph-name="zerowidthspace" unicode="&#x200b;" horiz-adv-x="0" 
 />
    <glyph glyph-name="uni200C" unicode="&#x200c;" horiz-adv-x="0" 
 />
    <glyph glyph-name="uni200D" unicode="&#x200d;" horiz-adv-x="0" 
 />
    <glyph glyph-name="endash" unicode="&#x2013;" horiz-adv-x="1540" 
d="M82 717h1376v-150h-1376v150z" />
    <glyph glyph-name="emdash" unicode="&#x2014;" horiz-adv-x="2160" 
d="M82 717h1997v-150h-1997v150z" />
    <glyph glyph-name="quoteleft" unicode="&#x2018;" horiz-adv-x="755" 
d="M553 1412q-45 -79 -61 -165l182 -117v-131l-451 -180l-141 389l459 500l145 -111h2q-90 -106 -135 -185z" />
    <glyph glyph-name="quoteright" unicode="&#x2019;" horiz-adv-x="757" 
d="M213 817l-143 111q90 106 134 185t60 165l-182 117v129l450 182l142 -389z" />
    <glyph glyph-name="quotesinglbase" unicode="&#x201a;" horiz-adv-x="755" 
d="M211 -541l-143 111q90 106 135 185t61 165l-182 117v131l450 180l140 -389z" />
    <glyph glyph-name="quotedblleft" unicode="&#x201c;" horiz-adv-x="1421" 
d="M1083 1412q-45 -79 -61 -165l182 -117v-131l-450 -180l-142 389l459 500l146 -111h2q-91 -106 -136 -185zM418 1412q-45 -79 -62 -165l183 -117v-131l-451 -180l-141 389l459 500l145 -111h2q-90 -106 -135 -185z" />
    <glyph glyph-name="quotedblright" unicode="&#x201d;" horiz-adv-x="1423" 
d="M879 817l-144 111q90 106 134 185t61 165l-182 117v129l450 182l141 -389zM213 817l-143 111q90 106 134 185t60 165l-182 117v129l450 182l142 -389z" />
    <glyph glyph-name="quotedblbase" unicode="&#x201e;" horiz-adv-x="1421" 
d="M877 -541l-144 111q90 106 135 185t62 165l-182 117v131l450 180l139 -389zM211 -541l-143 111q90 106 135 185t61 165l-182 117v131l450 180l140 -389z" />
    <glyph glyph-name="dagger" unicode="&#x2020;" horiz-adv-x="1343" 
d="M1200 856h-196l-54 100l-205 60l144 -387l-166 -1129l-51 -41l-51 41l-156 963l139 543l-319 -148l-256 103l118 296h197l51 -100l213 -61l-71 354l-125 57v197l350 123l94 -260l-111 -457l316 145l256 -102z" />
    <glyph glyph-name="daggerdbl" unicode="&#x2021;" horiz-adv-x="1353" 
d="M1208 29h-196l-54 100l-213 61l72 -356l125 -57v-197l-350 -121l-94 258l110 457l-313 -143l-256 100l119 299h196l52 -100l198 -58l-139 287l137 445l-317 -146l-256 103l118 296h197l51 -100l213 -61l-71 354l-125 57v197l350 123l94 -260l-111 -457l316 145l254 -102
l-117 -297h-197l-53 100l-198 58l139 -289l-137 -442l319 145l254 -102z" />
    <glyph glyph-name="bullet" unicode="&#x2022;" horiz-adv-x="1308" 
d="M1018 587q0 -120 -88 -229q-88 -108 -221 -174q-260 -128 -480 -11q-100 53 -157 149q-58 96 -58 216t89 229t223 175t259 66q126 0 224 -56q97 -55 153 -150t56 -215z" />
    <glyph glyph-name="ellipsis" unicode="&#x2026;" horiz-adv-x="2822" 
d="M291 174q0 74 44 130q43 56 111 89t146 33t139 -60t61 -136t-43 -130q-44 -54 -111 -88q-68 -32 -144 -32t-140 60q-63 60 -63 134zM1460 426q78 0 139 -60t61 -136t-43 -130q-44 -54 -111 -88q-68 -32 -144 -32t-139 60t-63 134t43 130q44 56 112 89q67 33 145 33z
M2529 230q0 -76 -44 -130q-45 -54 -111 -88q-66 -32 -142 -32t-141 60q-63 60 -63 134t44 130t112 89t145 33q78 0 139 -60t61 -136z" />
    <glyph glyph-name="perthousand" unicode="&#x2030;" horiz-adv-x="3608" 
d="M2734 219q0 -123 69 -204t197 -81q195 0 195 199q0 123 -70 205t-198 82q-193 0 -193 -201zM1438 219q0 -123 68 -204t198 -81q195 0 194 199q0 123 -69 205q-70 82 -199 82q-192 0 -192 -201zM2900 -254q-140 0 -253 53q-114 53 -177 145q-64 92 -64 211q0 118 96 223
q96 106 241 168q143 62 283 62t255 -53t178 -146t63 -211t-96 -224q-98 -106 -242 -166q-144 -62 -284 -62zM2226 198q0 -118 -97 -224t-241 -166q-144 -62 -284 -62q-139 0 -253 53t-177 145q-64 92 -64 211q0 118 96 223q96 106 240 168t284 62t255 -53t178 -146t63 -211z
M414 1421q0 -123 68 -203t198 -81q195 0 194 198q0 123 -69 205q-70 82 -199 82q-192 0 -192 -201zM238 -199l-103 105l1950 1876l104 -105zM1202 1400q0 -118 -97 -223t-241 -167t-284 -62q-139 0 -253 53t-177 145q-64 92 -64 211q0 118 96 223q96 106 240 168t284 62
t255 -53t178 -146t63 -211z" />
    <glyph glyph-name="minute" unicode="&#x2032;" horiz-adv-x="978" 
d="M901 1495l-674 -530l-129 59l340 625l408 -39z" />
    <glyph glyph-name="second" unicode="&#x2033;" horiz-adv-x="1642" 
d="M901 1495l-674 -530l-129 59l340 625l408 -39zM1563 1495l-674 -530l-129 59l340 625l407 -39z" />
    <glyph glyph-name="uni2034" unicode="&#x2034;" horiz-adv-x="2304" 
d="M901 1495l-674 -530l-129 59l340 625l408 -39zM1563 1495l-674 -530l-129 59l340 625l407 -39zM2224 1495l-674 -530l-129 59l340 625l408 -39z" />
    <glyph glyph-name="guilsinglleft" unicode="&#x2039;" horiz-adv-x="921" 
d="M811 152l-131 -111l-610 516l610 514l131 -108l-254 -363z" />
    <glyph glyph-name="guilsinglright" unicode="&#x203a;" horiz-adv-x="921" 
d="M240 39l-129 111l254 362l-254 449l129 108l612 -514z" />
    <glyph glyph-name="asterism" unicode="&#x2042;" horiz-adv-x="3272" 
d="M2904 -258l-41 -252l-266 -37l-66 113l123 151l-155 267l34 20zM2490 -12l-41 -453l-239 -90l-164 211l63 113l191 -31l156 268zM2454 55v-41l-412 -188l-199 162l103 248h129l69 -181h310zM2540 10v41l411 189l199 -160l-103 -250h-129l-69 180h-309zM2494 82l-34 -21
l-371 263l41 251l266 37l66 -112l-121 -150zM2503 80l41 450l239 93l164 -213l-63 -113l-193 31l-154 -269zM2030 1202l-41 -252l-267 -37l-65 113l123 152l-156 266l35 20zM1616 1448l-41 -453l-240 -90l-164 211l64 113l190 -31l156 268zM1579 1516v-41l-412 -189
l-198 162l102 248h129l70 -180h309zM1665 1470v41l412 189l198 -160l-102 -250h-129l-70 180h-309zM1620 1542l-35 -20l-371 262l41 252l267 37l65 -113l-121 -150zM1628 1540l41 451l240 92l164 -213l-64 -113l-192 31l-154 -268zM1184 -258l-41 -252l-266 -37l-66 113
l123 151l-156 267l35 20zM770 -12l-41 -453l-240 -90l-163 211l63 113l191 -31l155 268zM733 55v-41l-411 -188l-199 162l102 248h129l70 -181h309zM819 10v41l412 189l199 -160l-103 -250h-129l-70 180h-309zM774 82l-35 -21l-370 263l41 251l266 37l65 -112l-120 -150z
M782 80l41 450l240 93l164 -213l-64 -113l-192 31l-154 -269z" />
    <glyph glyph-name="fraction" unicode="&#x2044;" horiz-adv-x="499" 
d="M-324 -408l-129 66l1272 2396l131 -65z" />
    <glyph glyph-name="uni2051" unicode="&#x2051;" horiz-adv-x="1429" 
d="M1122 1202l-41 -252l-266 -37l-65 113l122 152l-155 266l35 20zM709 1448l-41 -453l-240 -90l-164 211l64 113l190 -31l156 268zM672 1516v-41l-412 -189l-199 162l103 248h129l69 -180h310zM758 1470v41l411 189l199 -160l-102 -250h-129l-70 180h-309zM713 1542
l-35 -20l-371 262l41 252l266 37l66 -113l-121 -150zM721 1540l41 451l239 92l164 -213l-63 -113l-193 31l-153 -268zM1122 -258l-41 -252l-266 -37l-65 113l122 151l-155 267l35 20zM709 -12l-41 -453l-240 -90l-164 211l64 113l190 -31l156 268zM672 55v-41l-412 -188
l-199 162l103 248h129l69 -181h310zM758 10v41l411 189l199 -160l-102 -250h-129l-70 180h-309zM713 82l-35 -21l-371 263l41 251l266 37l66 -112l-121 -150zM721 80l41 450l239 93l164 -213l-63 -113l-193 31l-153 -269z" />
    <glyph glyph-name="uni2055" unicode="&#x2055;" horiz-adv-x="1525" 
d="M641 1102q0 137 163 137t163 -137q0 -62 -27 -148t-88 -245l-18 -47q25 29 97 119q72 89 151 165t147 76t123 -96q85 -138 -31 -207q-67 -39 -163 -59t-275 -47l35 -5q170 -29 261 -49q207 -45 207 -153q0 -47 -34 -105q-55 -96 -125 -96q-89 0 -226 156q-57 66 -165 201
l28 48v1q-1 0 -2 -1l-28 49l-58 -2l-22 58q-61 163 -87 243t-26 144zM240 856q0 33 20 66q36 61 100 61q118 0 412 -336l-16 -31q-250 50 -383 105t-133 135zM836 562v1v-1zM969 117q0 -137 -163 -136t-163 138q0 70 32 165t103 275l-35 -43q-135 -166 -214 -242
q-166 -159 -269 21q-35 57 -35 113t66 94t165 59q99 20 294 49l28 -49h58q73 -189 103 -282q30 -92 30 -162z" />
    <glyph glyph-name="uni2057" unicode="&#x2057;" horiz-adv-x="2965" 
d="M901 1495l-674 -530l-129 59l340 625l408 -39zM1563 1495l-674 -530l-129 59l340 625l407 -39zM2224 1495l-674 -530l-129 59l340 625l408 -39zM2886 1495l-674 -530l-129 59l340 625l407 -39z" />
    <glyph glyph-name="zerosuperior" unicode="&#x2070;" horiz-adv-x="1337" 
d="M438 1309q0 -123 69 -204t198 -81q195 0 194 199q0 123 -70 205t-198 81q-193 1 -193 -200zM604 836q-140 0 -253 53q-114 53 -177 145t-63 210t96 223t240 167q143 62 283 64q140 0 255 -53t178 -147t63 -211q0 -118 -96 -223q-98 -104 -242 -166t-284 -62z" />
    <glyph glyph-name="foursuperior" unicode="&#x2074;" horiz-adv-x="1206" 
d="M668 1061v350l-332 -350h332zM971 895v-266l-303 -86v352h-607v109l607 636l303 84v-663h250l-58 -166h-192z" />
    <glyph glyph-name="fivesuperior" unicode="&#x2075;" horiz-adv-x="1071" 
d="M590 876q0 54 -36 92q-70 74 -439 175l125 540h460l62 129l123 -28v-393l-164 24h-399l-15 -63q463 -132 564 -256q52 -63 53 -148q0 -123 -117 -212t-288 -148t-406 -117l-37 137q400 98 475 175q39 39 39 93z" />
    <glyph glyph-name="sixsuperior" unicode="&#x2076;" horiz-adv-x="1232" 
d="M436 1363q0 -155 66 -247t188 -92q150 0 150 170q0 125 -76 212t-186 128l92 133q132 0 246 -52q114 -51 183 -145t69 -201t-86 -207q-85 -100 -218 -162q-133 -64 -272 -64t-250 58t-172 160t-61 246t70 276q148 275 775 540l66 -127q-314 -164 -449 -318t-135 -308z
" />
    <glyph glyph-name="sevensuperior" unicode="&#x2077;" horiz-adv-x="1110" 
d="M1069 1683v-145l-696 -1067l-160 47l590 899h-486l-63 -137l-127 37v391l168 -25h774z" />
    <glyph glyph-name="eightsuperior" unicode="&#x2078;" horiz-adv-x="1224" 
d="M662 1006q77 0 125 42q49 42 49 101q1 101 -152 192q-61 37 -186 101q-62 -62 -82 -104t-20 -99t36 -113q37 -56 98 -90q61 -33 132 -32v2zM479 1834q0 -103 217 -222q45 61 58 96q12 34 12 92t-44 103t-110 45q-134 0 -133 -114zM1163 1226q0 -90 -85 -178t-207 -150
t-218 -62q-170 0 -304 45t-208 124q-73 79 -73 163t72 158t235 181q-104 61 -163 126q-58 65 -58 141t78 154t194 133q114 55 224 55t208 -36t152 -95t55 -130q-6 -67 -55 -135t-181 -176q162 -83 248 -155q86 -73 86 -163z" />
    <glyph glyph-name="ninesuperior" unicode="&#x2079;" horiz-adv-x="1212" 
d="M1159 1242q1 -138 -69 -262q-146 -260 -764 -509l-66 127q307 154 439 295t132 287t-66 238q-67 91 -190 91q-147 0 -147 -172q0 -123 74 -210t184 -130l-117 -133q-123 10 -231 62t-172 142q-66 90 -66 196t85 206t218 164t271 63q138 0 251 -57q112 -57 173 -158
t61 -240z" />
    <glyph glyph-name="zeroinferior" unicode="&#x2080;" horiz-adv-x="1337" 
d="M438 297q0 -123 69 -204t198 -81q195 0 194 199q0 123 -70 205t-198 82q-193 0 -193 -201zM604 -176q-140 0 -253 53q-114 53 -177 145t-63 210t96 224t240 168q143 62 283 62t255 -53t178 -147t63 -210q0 -118 -96 -224q-98 -106 -242 -166q-144 -62 -284 -62z" />
    <glyph glyph-name="oneinferior" unicode="&#x2081;" horiz-adv-x="811" 
d="M100 -160v113l160 108v445l-188 43l59 125h590v-113l-158 -108v-447l189 -41l-60 -125h-592z" />
    <glyph glyph-name="twoinferior" unicode="&#x2082;" horiz-adv-x="1132" 
d="M84 -164v129q353 232 431 324q40 47 40 84t-33 59t-84 23q-113 0 -315 -82l-49 127l227 159q74 25 182 25q203 0 325 -61t122 -164q0 -55 -98 -145t-302 -208h318l65 138l127 -39v-395l-170 26h-786z" />
    <glyph glyph-name="threeinferior" unicode="&#x2083;" horiz-adv-x="940" 
d="M860 -39q0 -153 -186 -273t-596 -227l-39 138q199 57 302 99t145 87t42 105t-52 103q-52 42 -167 81v104q82 51 116 97q34 47 34 99t-36 83q-35 31 -101 31t-242 -80l-49 108l227 160q49 12 132 12t183 -31q101 -31 159 -83t59 -113q-7 -68 -69 -130t-186 -129
q168 -51 246 -107t78 -134z" />
    <glyph glyph-name="fourinferior" unicode="&#x2084;" horiz-adv-x="1206" 
d="M668 49v350l-332 -350h332zM971 -117v-266l-303 -86v352h-607v109l607 637l303 84v-664h250l-58 -166h-192z" />
    <glyph glyph-name="fiveinferior" unicode="&#x2085;" horiz-adv-x="1071" 
d="M590 -135q0 53 -36 91q-70 74 -439 175l125 541h460l62 129l123 -29v-393l-164 24h-399l-15 -63q463 -132 564 -256q52 -63 53 -147q0 -123 -117 -212t-288 -149t-406 -117l-37 138q400 98 475 175q39 40 39 93z" />
    <glyph glyph-name="sixinferior" unicode="&#x2086;" horiz-adv-x="1232" 
d="M436 351q0 -155 66 -247t188 -92q150 0 150 170q0 125 -76 212t-186 128l92 133q132 0 246 -52t183 -145q69 -92 69 -200t-86 -208q-85 -100 -218 -162q-133 -64 -272 -64t-250 58t-172 160t-61 246t70 276q148 275 775 540l66 -127q-314 -164 -449 -318t-135 -308z" />
    <glyph glyph-name="seveninferior" unicode="&#x2087;" horiz-adv-x="1110" 
d="M1069 672v-146l-696 -1067l-160 47l590 900h-486l-63 -138l-127 37v391l168 -24h774z" />
    <glyph glyph-name="eightinferior" unicode="&#x2088;" horiz-adv-x="1224" 
d="M662 -8v2q77 0 125 42q49 42 49 101q1 102 -152 193q-61 37 -186 100q-62 -61 -82 -103q-20 -41 -20 -99t36 -114q37 -56 98 -89t132 -33zM612 936q-134 0 -133 -114q1 -56 57 -110t160 -112q45 61 58 96q12 34 12 92t-44 103t-110 45zM1163 215q0 -90 -85 -179
q-85 -88 -207 -150t-218 -62q-170 0 -304 45t-208 124q-73 79 -73 163t72 158t235 182q-104 61 -163 126q-58 64 -58 140t78 154t194 134q114 54 224 54t208 -36t152 -95t55 -129q-6 -66 -55 -134t-181 -178q162 -83 248 -155t86 -162z" />
    <glyph glyph-name="nineinferior" unicode="&#x2089;" horiz-adv-x="1212" 
d="M1159 230q1 -138 -69 -262q-146 -260 -764 -509l-66 127q307 154 439 295t132 287t-66 239q-67 91 -190 91q-147 0 -147 -172q0 -123 74 -210t184 -130l-117 -133q-123 10 -231 62t-172 141q-66 90 -66 196t85 206t218 164t271 64t251 -57q112 -57 173 -159t61 -240z" />
    <glyph glyph-name="Euro" unicode="&#x20ac;" horiz-adv-x="1882" 
d="M758 565q115 -315 439 -315q173 0 523 188l82 -143l-377 -293q-157 -45 -361 -45t-366 76t-270 213t-145 317h-289l76 150h194v55q0 51 10 117h-278l76 149h243q72 176 222 318q151 142 331 220q180 79 322 79t307 -31q164 -31 240 -66v-446h-228q-154 287 -417 287
q-130 1 -230 -99t-137 -262h625l-78 -149h-565v-19q0 -78 12 -151h481l-78 -150h-364z" />
    <glyph glyph-name="uni20B9" unicode="&#x20b9;" horiz-adv-x="1425" 
d="M451 889q90 0 145 54t63 157h-612l78 149h522q-27 98 -95 155q-69 56 -179 56h-328l78 150h1247l-76 -150h-383q155 -84 185 -211h276l-78 -149h-211q-49 -123 -199 -216t-327 -128l418 -109l172 -411l188 -86l-75 -150h-463l-181 436q-63 166 -157 235t-252 68h-158
l76 150h326z" />
    <glyph glyph-name="uni2113" unicode="&#x2113;" horiz-adv-x="1327" 
d="M631 1366v-418q217 213 217 400q0 70 -32 148t-76 77q-44 0 -77 -56q-32 -56 -32 -151zM786 236q83 0 191 49l57 -127l-207 -164q-78 -16 -180 -17q-207 -1 -301 89t-94 276v221l-184 -110l-68 131l252 164v520q0 141 100 266t253 199t294 73q59 0 144 -52t147 -132
t61 -160q0 -202 -172 -396t-448 -372v-325q0 -131 155 -131v-2z" />
    <glyph glyph-name="uni2116" unicode="&#x2116;" horiz-adv-x="3289" 
d="M3236 147l-76 -151h-1249l76 151h1249zM1911 356l78 150h1247l-76 -150h-1249zM2533 1442q-141 0 -141 -220q0 -118 59 -204t164 -86q139 0 140 207q-1 131 -59 217t-163 86zM1825 1606v-129l-195 -168v-1313h-196l-957 1057v-797l316 -109l-74 -149h-629v131l193 166
v1036l-230 131l74 148h375l932 -1026v770l-312 108l74 144h629zM2642 1649q138 -1 248 -57q111 -56 172 -154t61 -223t-96 -238q-97 -113 -241 -179t-280 -67q-136 0 -246 56q-110 57 -172 155t-62 224t94 238q96 112 240 178t282 67z" />
    <glyph glyph-name="uni2117" unicode="&#x2117;" horiz-adv-x="2115" 
d="M1501 997q0 -67 -43 -133t-124 -108t-191 -41l-80 47l45 92q88 0 88 123q0 55 -32 92t-74 37t-64 -16v-488l188 -78l-57 -114h-508v112l96 101v430l-116 49l41 133h248l280 12l2 -2q88 0 157 -34t107 -90t37 -124zM1688 760q0 170 -74 321q-74 152 -226 242
q-153 90 -376 90q-156 0 -290 -72q-134 -73 -214 -197t-80 -293t74 -321t226 -242t376 -89q156 -1 290 70t214 196t80 295zM2007 836q0 -236 -163 -439q-164 -203 -404 -321t-476 -117q-236 0 -436 103q-198 104 -308 288t-110 421t162 441t403 321t478 117t437 -104
t308 -288q108 -186 109 -422z" />
    <glyph glyph-name="trademark" unicode="&#x2122;" horiz-adv-x="2113" 
d="M1612 969v88l76 49v303l-191 -440h-131l-213 440v-315l96 -29l-41 -96h-276v88l96 61v365l-117 30l41 97h394l147 -338l141 338h398v-88l-97 -60v-377l117 -20l-41 -96h-399zM604 1501v-418l119 -20l-41 -96h-424v88l96 61v385h-43l-145 -186l-88 41v270l94 -16h619
l94 16v-270l-88 -41l-146 186h-47z" />
    <glyph glyph-name="Ohm" unicode="&#x2126;" horiz-adv-x="2002" 
d="M1071 0v692q103 4 191 43t138 105t50 141q0 182 -126 298t-370 116q-110 0 -202 -39t-146 -106t-53 -146q0 -154 96 -270t281 -142v-692h-621l-157 -37v490l127 53l249 -330h72v299q-223 61 -356 203t-133 322t152 328q153 148 379 236t450 87q224 0 409 -75
q187 -75 289 -205t102 -294t-139 -305t-350 -229v-367h72l249 330l127 -53v-490l-157 37h-623z" />
    <glyph glyph-name="estimated" unicode="&#x212e;" horiz-adv-x="1994" 
d="M996 1444q-257 0 -410 -137v-424h821v430q-154 131 -411 131zM1817 453q-249 -494 -805 -494q-284 0 -486 103q-200 102 -308 294t-108 450t109 447t309 293t469 104q270 0 470 -102q200 -104 309 -294t108 -447v-100l-1298 -2v-410q152 -129 411 -129q209 0 324 68
t203 219h293z" />
    <glyph glyph-name="uni2153" unicode="&#x2153;" horiz-adv-x="2314" 
d="M127 852v113l160 108v445l-189 43l60 125h590v-113l-158 -109v-446l188 -41l-59 -125h-592zM551 -408l-129 66l1272 2396l131 -65zM1903 -110q-1 60 -53 103q-52 42 -167 81v104q82 51 116 97q34 47 34 99t-36 83q-35 31 -101 31t-242 -80l-49 108l227 160q49 12 132 12
q84 0 184 -31t158 -83t59 -113q-7 -68 -69 -130t-186 -129q170 -51 248 -107t76 -134q0 -153 -186 -273t-596 -227l-39 138q199 57 302 99t146 87q42 45 42 105z" />
    <glyph glyph-name="uni2154" unicode="&#x2154;" horiz-adv-x="2572" 
d="M84 848v129q351 231 431 323q40 48 40 86t-33 60t-84 20q-113 0 -315 -82l-49 127l227 160q74 25 182 25q203 0 325 -62t122 -164q0 -55 -98 -145t-302 -207h318l65 137l127 -38v-396l-170 27h-786zM809 -408l-129 66l1272 2396l131 -65zM2161 -110q-1 60 -53 103
q-52 42 -166 81v104q82 51 116 97q34 47 33 99q0 52 -36 83q-35 31 -101 31t-242 -80l-49 108l227 160q48 12 132 12t184 -31t158 -83t59 -113q-7 -68 -69 -130t-186 -129q170 -51 248 -107t76 -134q0 -153 -186 -273t-596 -227l-39 138q199 57 302 99t146 87q42 45 42 105z
" />
    <glyph glyph-name="oneeighth" unicode="&#x215b;" horiz-adv-x="2598" 
d="M127 852v113l160 108v445l-189 43l60 125h590v-113l-158 -109v-446l188 -41l-59 -125h-592zM551 -408l-129 66l1272 2396l131 -65zM2210 137q0 102 -152 193q-61 37 -186 100q-62 -61 -82 -103q-20 -41 -20 -99t36 -114t98 -89t132 -33v2q78 0 126 42t48 101zM1853 822
q0 -102 218 -222q45 61 57 96q12 34 12 92t-44 103t-110 45q-134 0 -133 -114zM2537 215q0 -90 -85 -179q-84 -88 -206 -150t-218 -62q-170 0 -304 45t-208 124t-74 163t72 158t235 182q-104 61 -163 126q-58 64 -58 140t79 154t193 134q114 54 224 54t208 -36t152 -95
t55 -129q-6 -66 -55 -134t-180 -178q161 -83 247 -155t86 -162z" />
    </font>
</defs>
</svg>
