<svg xmlns="http://www.w3.org/2000/svg">
<defs>
<font id="98961ae4718e843253f083e38d65264f" horiz-adv-x='1024' >
  <font-face 
    font-family="Vollkorn-Italic"
    font-weight="400"
    font-style="italic"
    font-stretch="normal"
    units-per-em="2048"
    panose-1="0 0 5 0 0 0 0 0 0 0"
    ascent="1638"
    descent="-410"
    x-height="950"
    cap-height="1391"
    bbox="-379 -571 2150 1991"
    underline-thickness="0"
    underline-position="0"
    slope="-11"
    unicode-range="U+0020-FB02"
  />
<missing-glyph horiz-adv-x="927" 
d="M707 1058q0 1 -2 1l-5 -2q0 -4 5 -4l2 4v1zM586 1065v-2q0 -6 -4 -6t-4 4t8 4zM500 1065v-2q0 -6 -4 -6t-4 4t8 4zM754 1067h-9q1 8 5 8t4 -8zM729 1065q0 -8 -6 -8t-6 9t8 9l4 -2v-8zM662 1067h-11q-1 8 5 8t6 -8zM387 1065q0 -8 -5 -8t-5 9t6 9l4 -2v-8zM362 1067h-10
q0 8 5 8t5 -8zM745 1065h15v2q0 10 -10 10t-11 -12q0 -12 13 -12l8 4q0 2 -2 1t-8 -1t-5 8zM684 1053h12v2q-4 0 -4 6v8q0 8 -5 8t-9 -4v4l-8 -4q4 0 4 -4v-8q0 -6 -4 -6v-2h12v2q-4 0 -4 6v4q0 8 5 8t5 -6v-6q0 -6 -2 -6t-2 -2zM666 1067q0 10 -10 10t-9 -12q0 -12 7 -12
t12 4v2q-2 -2 -8 -2t-7 8h15v2zM625 1061v-6l8 -2q10 0 10 8l-14 12l4 2q6 0 8 -6v6q-2 2 -9 2t-7 -6t7 -8t7 -5t-5 -3t-5 6h-4zM604 1063v13q0 1 -2 1l-6 -4q4 0 4 -4v-6q0 -10 4 -10t8 4h1l1 -2v-2l7 4q-3 0 -3 4v15q0 1 -2 1l-6 -2v-2q4 0 4 -2v-6q0 -8 -5 -8t-5 6z
M575 1070q0 -1 3 -1q0 6 4 6l4 -2v-6q-12 0 -13 -8q0 -6 7 -6l6 2q0 2 2 2h-2v-2l2 -2l6 4q-4 0 -4 4v6q0 6 -2 8l-4 2l-9 -2v-5zM489 1070q0 -1 3 -1q0 6 4 6l4 -2v-6q-12 0 -13 -8q0 -6 7 -6l4 2l2 2v-2l2 -2l4 2q2 0 2 1v1q-4 0 -4 4v6q0 6 -2 8l-4 2l-9 -2v-5zM454 1059
h-1q-1 -2 -7 -2t-6 9t5 9t8 -6v6l-7 2q-10 0 -10 -12t8 -12t11 4q0 2 -1 2zM420 1053h12v2q-4 0 -4 6v16l-8 -4q4 0 4 -4v-8q0 -6 -4 -6v-2zM399 1053h13v2q-4 4 -4 6v4q0 8 3 8t3 -4h4v6l-4 2l-6 -2v1q0 1 -1 0t-3 -1t-5 -2q4 0 4 -4v-8q0 -2 -4 -6v-2zM367 1067

<glyph glyph-name="fi" unicode="fi" horiz-adv-x="1079" 
d="M999 825q0 -57 -24 -147l-113 -395q-37 -129 -22.5 -143.5t32.5 -14.5q47 0 107 59q31 -20 37 -65q-127 -137 -234 -137q-135 0 -135 149q0 59 23 145l84 295q34 121 34 175t-45.5 81.5t-300.5 -6.5q-47 -256 -67 -394t-29 -185q-57 -342 -174 -546t-278 -204
q-96 0 -183 74q-6 61 15 123q102 -33 227 -33q53 0 94.5 40t97.5 425l37 268q31 252 62 436q-94 12 -146 13q0 47 23 80h137q55 287 193.5 415.5t337.5 128.5t321 -78q-35 -92 -41 -192q-39 -23 -101 -23t-77 5q-4 104 -40 153t-111 49t-120 -38t-79.5 -132t-79.5 -288h106
q275 0 353 38q79 -31 79 -131z" />
    <glyph glyph-name="fl" unicode="fl" horiz-adv-x="1112" 
d="M870 199q0 -74 37 -74q43 0 105 59q27 -25 37 -61q-51 -61 -114 -101t-118 -40q-139 0 -139 153q0 80 26.5 234.5t145.5 742.5q14 72 14 113q0 150 -139 149q-63 0 -132.5 -57t-131.5 -399h203q0 -49 -15 -80q-96 0 -207 -17q-47 -256 -67 -394t-29 -185
q-57 -342 -174 -546t-278 -204q-96 0 -183 74q-6 61 15 123q102 -33 227 -33q53 0 94.5 40t97.5 425l37 268q31 252 62 436q-94 12 -146 13q0 47 23 80h137q53 276 189.5 410t318.5 134q121 0 192 -39q45 12 72 31q47 -14 47 -82q0 -12 -4 -49q-59 -328 -131 -689t-72 -435z
" />
    <glyph glyph-name="f_f" unicode="ff" horiz-adv-x="1200" 
d="M361 -281q99 0 161 24t102 82t89 251t129 749q-198 23 -389 -4l-27 -143q-70 -377 -80 -436q-49 -295 -147 -494q63 -29 162 -29zM758 1307q-215 0 -287 -389h385q25 148 82 268q-68 121 -180 121zM1034 1325q127 137 291 137t227 -51q-47 -100 -53 -219q-35 -20 -86 -16
q-8 192 -135 192q-51 0 -102.5 -54.5t-116.5 -395.5h203q0 -49 -15 -80q-96 0 -207 -17q-47 -297 -76.5 -442.5t-71.5 -280.5t-124 -257t-193.5 -196.5t-236.5 -74.5q-66 0 -111 19.5t-90 54.5q-106 -152 -243 -152q-96 0 -183 74q-6 61 15 123q102 -33 227 -33
q53 0 94.5 40t102.5 451q61 412 104 678q-94 12 -145 13q0 47 22 80h137q31 155 111 263.5t185.5 164t229.5 55.5t240 -76z" />
    <glyph glyph-name="f_f_i" unicode="ffi" horiz-adv-x="1677" 
d="M361 -281q99 0 161 24t102 82t90 253t128 747q-102 12 -186 12t-203 -16l-27 -143q-70 -377 -80 -436q-49 -295 -147 -494q63 -29 162 -29zM758 1307q-114 0 -183 -99.5t-104 -289.5h385q31 156 84 262q-68 127 -182 127zM1597 825q0 -57 -24 -147l-113 -395
q-37 -129 -22.5 -143.5t32.5 -14.5q47 0 107 59q31 -20 37 -65q-127 -137 -234 -137q-135 0 -135 149q0 59 23 145l84 295q34 121 34 175t-31.5 73t-113.5 19t-201 -17q-47 -297 -76.5 -442.5t-71.5 -280.5t-124 -257t-193.5 -196.5t-236.5 -74.5q-66 0 -111 19.5t-90 54.5
q-106 -152 -243 -152q-96 0 -183 74q-6 61 15 123q102 -33 227 -33q53 0 94.5 40t102.5 451q61 412 104 678q-94 12 -145 13q0 47 22 80h137q31 156 111 264t185.5 163.5t231.5 55.5t242 -78q132 139 340 139t330 -78q-35 -92 -41 -192q-39 -23 -101 -23t-77 5
q-4 104 -40 153t-111 49t-119.5 -38t-79.5 -132t-80 -288h106q275 0 353 38q79 -31 79 -131z" />
    <glyph glyph-name="f_f_l" unicode="ffl" horiz-adv-x="1712" 
d="M361 -281q99 0 161 24t102 82t89 251t129 749q-198 23 -389 -4l-27 -143q-70 -377 -80 -436q-49 -295 -147 -494q63 -29 162 -29zM942 1178q-70 129 -194 129q-205 0 -277 -389h387q29 147 84 260zM1470 199q0 -74 37 -74q43 0 105 59q27 -25 37 -61q-51 -61 -113.5 -101
t-118.5 -40q-139 0 -139 153q0 80 26.5 234.5t145.5 742.5q14 72 14 113q0 150 -139 149q-63 0 -132.5 -57t-131.5 -399h203q0 -49 -15 -80q-102 0 -209 -17q-47 -297 -76.5 -442.5t-71.5 -280.5t-124 -257t-193.5 -196.5t-236.5 -74.5q-66 0 -111 19.5t-90 54.5
q-106 -152 -243 -152q-96 0 -183 74q-6 61 15 123q102 -33 227 -33q53 0 94.5 40t102.5 451q61 412 104 678q-94 12 -145 13q0 47 22 80h137q31 155 111 263.5t185.5 164t233.5 55.5t242 -80q129 141 326 141q121 0 193 -39q45 12 71 31q47 -14 47 -82q0 -12 -4 -49
q-59 -328 -131 -689t-72 -435z" />
    <glyph glyph-name="f_f_t.liga" unicode="fft" horiz-adv-x="1818" 
d="M361 -281q99 0 161 24t102 82t89 251t129 749q-198 23 -389 -4l-27 -143q-70 -377 -80 -436q-49 -295 -147 -494q63 -29 162 -29zM958 1180q-72 109 -204 108q-215 0 -283 -370h385q30 156 102 262zM1669 1283q0 -71 -65 -365h190q0 -49 -14 -80q-106 0 -199 -15
l-96 -407q-25 -105 -25 -185q0 -123 72 -122q35 0 77 25.5t74 66.5q33 -19 43 -66q-47 -61 -121.5 -107t-159.5 -46q-177 0 -177 211q0 82 28 208l97 424q-57 12 -131 13q0 47 22 80h133q39 173 39 245q0 133 -139 133q-63 0 -136 -47t-122 -331h162q0 -47 -21 -80
q-84 0 -160 -17q-47 -297 -76.5 -442.5t-71.5 -280.5t-124 -257t-193.5 -196.5t-236.5 -74.5q-66 0 -111 19.5t-90 54.5q-106 -152 -243 -152q-96 0 -183 74q-6 61 15 123q102 -33 227 -33q53 0 94.5 40t102.5 451q61 412 104 678q-94 12 -145 13q0 47 22 80h137
q35 162 119 266t187.5 151t203.5 47q176 0 295 -84q119 86 285 86q106 0 192 -47q45 12 72 31q47 -14 47 -85z" />
    <glyph glyph-name="f_t.liga" unicode="ft" horiz-adv-x="1220" 
d="M858 1163q0 133 -139 133q-63 0 -136 -47t-122 -331h162q0 -47 -21 -80q-84 0 -160 -17q-47 -256 -67 -394t-29 -185q-57 -342 -174 -546t-278 -204q-96 0 -183 74q-6 61 15 123q102 -33 227 -33q53 0 94.5 40t97.5 425l37 268q31 252 62 436q-94 12 -146 13q0 47 23 80
h137q45 238 181 352t321 114q106 0 192 -47q45 12 72 31q47 -14 47 -85t-65 -365h190q0 -49 -14 -80q-104 0 -199 -15l-96 -407q-25 -104 -25 -185q0 -123 72 -122q35 0 77 25.5t74 66.5q33 -19 43 -66q-47 -61 -121.5 -107t-159.5 -46q-177 0 -177 211q0 82 28 208l97 424
q-57 12 -131 13q0 47 22 80h133q39 173 39 245z" />
    <glyph glyph-name=".notdef" horiz-adv-x="927" 
d="M707 1058q0 1 -2 1l-5 -2q0 -4 5 -4l2 4v1zM586 1065v-2q0 -6 -4 -6t-4 4t8 4zM500 1065v-2q0 -6 -4 -6t-4 4t8 4zM754 1067h-9q1 8 5 8t4 -8zM729 1065q0 -8 -6 -8t-6 9t8 9l4 -2v-8zM662 1067h-11q-1 8 5 8t6 -8zM387 1065q0 -8 -5 -8t-5 9t6 9l4 -2v-8zM362 1067h-10
q0 8 5 8t5 -8zM745 1065h15v2q0 10 -10 10t-11 -12q0 -12 13 -12l8 4q0 2 -2 1t-8 -1t-5 8zM684 1053h12v2q-4 0 -4 6v8q0 8 -5 8t-9 -4v4l-8 -4q4 0 4 -4v-8q0 -6 -4 -6v-2h12v2q-4 0 -4 6v4q0 8 5 8t5 -6v-6q0 -6 -2 -6t-2 -2zM666 1067q0 10 -10 10t-9 -12q0 -12 7 -12
t12 4v2q-2 -2 -8 -2t-7 8h15v2zM625 1061v-6l8 -2q10 0 10 8l-14 12l4 2q6 0 8 -6v6q-2 2 -9 2t-7 -6t7 -8t7 -5t-5 -3t-5 6h-4zM604 1063v13q0 1 -2 1l-6 -4q4 0 4 -4v-6q0 -10 4 -10t8 4h1l1 -2v-2l7 4q-3 0 -3 4v15q0 1 -2 1l-6 -2v-2q4 0 4 -2v-6q0 -8 -5 -8t-5 6z
M575 1070q0 -1 3 -1q0 6 4 6l4 -2v-6q-12 0 -13 -8q0 -6 7 -6l6 2q0 2 2 2h-2v-2l2 -2l6 4q-4 0 -4 4v6q0 6 -2 8l-4 2l-9 -2v-5zM489 1070q0 -1 3 -1q0 6 4 6l4 -2v-6q-12 0 -13 -8q0 -6 7 -6l4 2l2 2v-2l2 -2l4 2q2 0 2 1v1q-4 0 -4 4v6q0 6 -2 8l-4 2l-9 -2v-5zM454 1059
h-1q-1 -2 -7 -2t-6 9t5 9t8 -6v6l-7 2q-10 0 -10 -12t8 -12t11 4q0 2 -1 2zM420 1053h12v2q-4 0 -4 6v16l-8 -4q4 0 4 -4v-8q0 -6 -4 -6v-2zM399 1053h13v2q-4 4 -4 6v4q0 8 3 8t3 -4h4v6l-4 2l-6 -2v1q0 1 -1 0t-3 -1t-5 -2q4 0 4 -4v-8q0 -2 -4 -6v-2zM367 1067
q1 10 -9 10t-10 -12t7 -12t12 4v2q-3 -2 -9 -2t-6 8h15v2zM332 1053h12v2q-4 0 -4 6v16q-2 -2 -4 -2h-2q-2 0 -2 -1v-1q4 0 4 -4v-8q0 -6 -4 -6v-2zM311 1053h13v2q-4 4 -5 6v4q-1 8 3 8t4 -4h4v6l-4 2l-7 -2v2l-8 -4q4 0 4 -4v-8q0 -4 -4 -6v-2zM537 1057q-4 0 -5 4v12h7v2
h-7v10l-4 -2v-8h-4v-2h4v-14q0 -6 7 -6l6 2q0 2 -4 2zM729 1054q0 -1 1 0t3 1h2q2 0 2 1v1q-4 0 -4 4v26q0 2 -2 3l-6 -3v-2q4 0 4 -4v-4h-4q-12 0 -12 -12t6 -12t10 4v-3zM557 1053h12v2q-4 0 -4 6v8q0 8 -5 8t-9 -4v17l-8 -3v-2q4 0 4 -4v-20q0 -6 -4 -6v-2h12v2
q-4 0 -4 6v4q0 8 5 8t5 -6v-6q0 -6 -4 -6v-2zM510 1053h12v2q-4 0 -4 6v29l-8 -3v-2q4 0 4 -4v-20q0 -6 -4 -6v-2zM471 1053h12v2q-4 0 -4 6v8q0 8 -5 8t-9 -4v14q0 2 -2 3l-6 -3v-2q4 0 4 -4v-20q0 -6 -4 -6v-2h12v2q-4 0 -4 6v4q0 8 5 8t5 -6v-6q0 -6 -4 -6v-2zM425 1090
q-3 0 -3 -4t3 -3q3 -1 3 3t-3 4zM393 1061v26q0 2 -1 3h-1l-6 -3v-2q2 0 2 -4v-4h-4q-4 0 -8 -4t-4 -12t8 -8t8 4l2 2v-6l6 4q-2 0 -2 4zM336 1086q0 -4 3 -3q3 0 3 3t-4 4q-2 0 -2 -4zM293 1053h12v2q-4 4 -4 6v12h4l2 2h-6v4q0 8 4 8t6 -6v6q0 3 -7 3t-7 -13v-2h-4v-2h4
v-12q0 -4 -4 -6v-2zM500 1124q0 11 6 11q6 1 6 -9t-8 -10h-4v8zM424 1125q0 -9 -6 -9t-6 9t4 10q8 -1 8 -10zM340 1125q0 -9 -6 -9t-6 9t6 10q6 -1 6 -10zM535 1137v-2l4 -2l-4 -13v-2l-7 10v6q0 1 2 1t2 1v1h-8q-4 0 -4 -1q15 -30 4 -30h-4v-4h4q5 0 21 35h-10zM479 1114v2
q-4 0 -4 4v8q0 8 -6 9l-8 -2v2l-8 -2v-2q4 0 4 -3v-10q0 -4 -4 -4v-2h12v2q-4 0 -4 4v4q0 11 5 11t5 -7v-8q0 -4 -2 -4l-2 -2h12zM432 1114h12v2q-4 0 -4 4v6q0 6 4 7q2 0 2 -5h5v7l-5 2l-6 -2q0 2 -2 2l-6 -2v-2q4 0 4 -3v-10q0 -4 -4 -4v-2zM406 1126q0 -12 11 -12t11 11
t-10 12q-12 1 -12 -11zM324 1126q0 -12 11 -12t11 11t-12 12q-10 1 -10 -11zM305 1147h-12v-2q6 0 14 -31h2q8 16 10 25l5 6v2h-9v-2q2 0 2 -2v-4l-6 -19l-8 21q-2 0 -2 1v1q0 2 4 2v2zM500 1147q0 2 -2 2l-6 -2v-2q4 0 4 -2v-21q0 -4 -2 -6q2 -2 12 -2t10 11t-6 11t-10 -3
v14zM391 1137v-1q0 -1 2 -1l-2 -5l-4 -4v23l-8 -2v-2q4 0 4 -2v-23q0 -4 -4 -4v-2h12l-2 2q-2 0 -2 4v4l10 -10h6v2l-6 2l-6 10l4 2l6 7h-10zM365 1114h10v2q-2 0 -2 4v27q0 2 -1 2h-1l-6 -2v-2q4 0 4 -2v-23q0 -4 -4 -4v-2zM360 1114v2q-4 0 -4 4v29l-6 -2q-2 0 -2 -2
q4 0 4 -2v-23q0 -4 -2 -4l-2 -2h12zM733 0h-721l271 1386h721z" />
    <glyph glyph-name=".null" horiz-adv-x="0" 
 />
    <glyph glyph-name="nonmarkingreturn" horiz-adv-x="681" 
 />
    <glyph glyph-name="space" unicode=" " horiz-adv-x="368" 
 />
    <glyph glyph-name="exclam" unicode="!" horiz-adv-x="847" 
d="M477 124q0 -32 -6 -59q-6 -28 -34.5 -54.5t-73.5 -26.5t-74 26.5t-29 75.5t34 87t81 38t74.5 -27.5t27.5 -59.5zM719 1420q0 -28 -56 -218q-56 -191 -178 -741l-24 -2q-33 0 -66 14q59 487 82 922q127 27 205 67q37 -14 37 -42z" />
    <glyph glyph-name="quotedbl" unicode="&#x22;" horiz-adv-x="681" 
d="M461 1405q1 -17 -29 -107t-86 -321q-53 0 -84 20q37 231 45 422q70 10 117 43q37 -14 37 -57zM739 1405q1 -17 -29 -107t-85 -321q-53 0 -84 20q37 231 45 422q69 10 116 43q37 -14 37 -57z" />
    <glyph glyph-name="numbersign" unicode="#" horiz-adv-x="1159" 
d="M512 905l-78 -366h328l78 368zM1083 539q0 -57 -24 -101h-219l-97 -454q-53 8 -90 45l88 409l-327 -2l-97 -452q-66 10 -88 53l84 399l-233 -4q0 55 24 107h232l78 366q-98 0 -226 -4q0 59 25 107h223l96 454q61 -8 89 -45l-86 -409h327l96 454q59 -12 89 -41l-89 -413
h211q0 -61 -24 -101h-207l-78 -368h223z" />
    <glyph glyph-name="dollar" unicode="$" horiz-adv-x="942" 
d="M432 80q104 0 175 70.5t71 179.5q0 71 -43 127.5t-121 113.5q-18 -102 -27 -139l-63 -352h8zM352 1053q0 -93 133 -201l86 457q-219 -14 -219 -256zM877 383q0 -192 -140.5 -296.5t-308.5 -104.5h-22l-31 -172q-70 4 -96 38l26 142q-169 21 -301 139q51 160 59 285
q31 10 60 10t51 -6q-2 -23 -2 -62q0 -117 37 -180t117 -84l102 541q-125 88 -193.5 171t-68.5 210q0 196 126 290.5t298 98.5l24 129q66 0 99 -39l-21 -94q150 -18 238 -92q-23 -145 -23 -265q-31 -12 -66 -12t-46 2q-4 224 -123 266q-55 -262 -103 -510q106 -76 164 -124
t101 -119.5t43 -161.5z" />
    <glyph glyph-name="percent" unicode="%" horiz-adv-x="1402" 
d="M862 236q0 -64 36 -116t93 -52t99.5 51t54.5 117t12 138t-33.5 122.5t-91.5 50.5t-100 -50.5t-56 -122.5q-14 -74 -14 -138zM1300 360q0 -191 -101 -284.5t-219 -93.5t-189.5 74.5t-71.5 203.5q0 190 104.5 281.5t223 91.5t186 -73t67.5 -200zM330 990q0 -64 35 -116.5
t93 -52.5t100 51.5t54 117.5t12 138t-34 122t-92 50t-100 -50t-55 -122q-13 -74 -13 -138zM768 1114q0 -191 -101 -285t-219 -94t-190 75t-72 204q0 39 11 96q25 125 111.5 200.5t205.5 75.5t186.5 -72.5t67.5 -199.5zM1323 1319q-531 -639 -1069 -1337q-57 25 -64 79
l1063 1342q60 -31 70 -84z" />
    <glyph glyph-name="ampersand" unicode="&#x26;" horiz-adv-x="1452" 
d="M530 84q152 0 299 80q-78 94 -194 265t-189 306q-210 -137 -217 -381q0 -119 74.5 -194.5t226.5 -75.5zM840 1249q0 129 -143 129q-69 0 -127 -55.5t-58 -162.5t61 -245q111 59 176.5 124t84.5 159q6 27 6 51zM1108 -18q-59 0 -107.5 22.5t-115.5 95.5
q-203 -118 -416 -118t-314.5 94t-101.5 243q0 49 8 91q27 152 115 245t230 170q-61 143 -62 269q0 49 10 110q18 111 113 187.5t247 76.5t225 -61t73 -154q0 -14 -4 -47q-20 -102 -77 -171.5t-124.5 -109.5t-188.5 -98q53 -100 165 -268t198 -280q141 156 141 352
q0 84 -39 120.5t-112 41.5q-16 35 -13 75q55 10 120 36t98 54q119 -45 118 -198q0 -44 -20 -144t-83 -207.5t-155 -193.5q77 -84 132 -84t96 49q37 -20 57 -61q-80 -137 -213 -137z" />
    <glyph glyph-name="quotesingle" unicode="'" horiz-adv-x="403" 
d="M461 1405q1 -17 -29 -107t-86 -321q-53 0 -84 20q37 231 45 422q68 10 117 43q37 -14 37 -57z" />
    <glyph glyph-name="parenleft" unicode="(" horiz-adv-x="610" 
d="M252 94q0 -362 121 -635q-20 -16 -49 -16l-21 2q-213 369 -213 803q0 131 27 284q47 276 170 503t364 483q49 6 74 -25q-176 -188 -276.5 -404.5t-148.5 -500.5t-48 -494z" />
    <glyph glyph-name="parenright" unicode=")" horiz-adv-x="606" 
d="M-79 -557q-24 0 -42 18q188 231 291.5 464t157.5 546q39 215 39 412q0 334 -125 612q29 25 67 23q215 -420 215 -797q0 -119 -22 -250q-53 -303 -179 -538.5t-370 -487.5q-8 -2 -32 -2z" />
    <glyph glyph-name="asterisk" unicode="*" horiz-adv-x="933" 
d="M628 1389q40 0 89 -29q-51 -113 -105 -277q147 25 287 66q31 -63 16 -137q-127 8 -297 12q63 -121 150 -252q-50 -50 -125 -55q-23 102 -80 280q-96 -96 -190 -217q-72 37 -92 103q102 61 243 164q-113 55 -266 112q16 82 68 119q96 -84 229 -180q18 125 25 288q8 3 48 3
z" />
    <glyph glyph-name="plus" unicode="+" horiz-adv-x="1130" 
d="M487 10q-32 0 -55 21l88 463q-176 0 -422 -5q-4 66 27 107h416l82 432q23 10 55 10t51 -10q-47 -225 -86 -432h428q5 -59 -22 -100h-426l-86 -480q-18 -6 -50 -6z" />
    <glyph glyph-name="comma" unicode="," horiz-adv-x="432" 
d="M272 100q0 -139 -86 -264t-188 -207q-44 0 -70 43q76 70 123 140.5t47 121.5q0 70 -86 91q0 82 31 129q43 2 95 19t83 38q51 -29 51 -111z" />
    <glyph glyph-name="hyphen" unicode="-" horiz-adv-x="741" 
d="M653 479q-332 0 -567 -6q8 90 35 139h559q-2 -80 -27 -133z" />
    <glyph glyph-name="period" unicode="." horiz-adv-x="382" 
d="M227 124q0 -32 -6 -59q-6 -28 -34.5 -54.5t-73.5 -26.5t-74 26.5t-29 75.5t34 87t81 38t74.5 -27.5t27.5 -59.5z" />
    <glyph glyph-name="slash" unicode="/" horiz-adv-x="589" 
d="M680 1468q56 -18 82 -61q-410 -739 -752 -1425q-56 14 -82 61z" />
    <glyph glyph-name="zero" unicode="0" horiz-adv-x="1269" 
d="M675 938q-140 0 -256 -111.5t-116 -371.5q0 -172 84.5 -274.5t222.5 -102.5t230 92t127 270q14 72 14 144q0 164 -83 259t-223 95zM711 1036q217 0 343 -116.5t126 -324.5t-101.5 -348.5t-222 -202.5t-266.5 -62t-255.5 55t-169 157.5t-59.5 237.5q0 53 15 131
q27 141 110.5 249t208.5 166t271 58z" />
    <glyph glyph-name="one" unicode="1" horiz-adv-x="772" 
d="M356 846q0 43 -29.5 64.5t-101.5 31.5q-4 32 -4 54t2 34q113 -6 241 -6t251 6q-4 -55 -19 -88q-55 -10 -96 -34t-63 -144l-97 -504q-10 -55 -10 -92t28.5 -57.5t102.5 -28.5q6 -26 6 -52t-2 -36q-123 6 -255 6t-236 -6q0 51 16 88q57 6 86 21.5t45.5 50t30.5 106.5
l96 504q8 39 8 82z" />
    <glyph glyph-name="two" unicode="2" horiz-adv-x="993" 
d="M694 791q0 72 -40 111.5t-111 39.5q-182 0 -242 -285q-72 0 -108 19q41 129 47 266q160 94 328 94q329 0 329 -219q0 -111 -69.5 -195.5t-164.5 -158.5q-95 -75 -133 -103t-231 -180q49 4 145 4l164 -6q45 0 67.5 26.5t41.5 106.5q70 0 106 -16q-27 -145 -26 -252
q-14 -31 -35 -40t-32 -9l-329 6q-229 0 -368 -6q-24 37 -15 86q184 145 453 348q223 165 223 363z" />
    <glyph glyph-name="three" unicode="3" horiz-adv-x="987" 
d="M874 819q0 -215 -296 -373q111 -18 174 -98t63 -194q0 -55 -14 -107q-45 -180 -202 -288.5t-376 -108.5q-156 0 -225 57q2 53 43 76q63 -35 197 -35t237 78t129 207q8 49 8 67q0 102 -73.5 160.5t-221.5 58.5q-34 27 -20 82q160 49 254 136.5t115 205.5q4 37 4 52
q0 72 -39 109.5t-107 37.5q-186 0 -245 -285q-68 -4 -111 19q43 113 49 266q150 94 323 94t253.5 -58t80.5 -159z" />
    <glyph glyph-name="four" unicode="4" horiz-adv-x="1101" 
d="M475 467l-37 -43q-139 -164 -221 -250h363l47 266q39 209 65 295q-65 -88 -217 -268zM881 174q41 0 65 -31q-35 -71 -47 -143h-164l-57 -313q-88 -6 -162 -37q-30 19 -20 71l51 277q-322 -2 -506 -10q-27 35 -27 86q461 526 813 962q55 0 93 -18l-154 -844h115z" />
    <glyph glyph-name="five" unicode="5" horiz-adv-x="950" 
d="M784 840q-301 0 -440 -11l-63 -208q225 -27 363 -145t138 -298t-101 -300t-226 -174t-265 -54t-225 57q6 49 41 76q72 -35 182 -35t201.5 50t144 135t52.5 188q0 137 -109.5 227t-296.5 98q-35 18 -37 58l168 526q113 -6 340 -6q72 0 100.5 30.5t39.5 82.5q71 -1 108 -19
q-31 -102 -37 -241q-20 -37 -78 -37z" />
    <glyph glyph-name="six" unicode="6" horiz-adv-x="1099" 
d="M522 76q94 0 158.5 71.5t85.5 190.5q10 57 10 96q0 117 -57 185.5t-170 68.5t-209 -55l-8 -41q-16 -88 -16 -213t56 -214t150 -89zM631 809q150 0 242 -89t92 -241q0 -59 -11 -106q-35 -176 -157.5 -283.5t-296.5 -107.5t-274.5 111.5t-100.5 307.5q0 314 157.5 511.5
t348 289.5t409.5 105q18 -29 9 -70q-542 -98 -682 -506q114 78 264 78z" />
    <glyph glyph-name="seven" unicode="7" horiz-adv-x="950" 
d="M166 -208q0 85 48 206t172 314.5t370 529.5h-271q-88 0 -129 -38t-75 -147q-70 -4 -109 19q53 178 68 354q118 -6 322 -6t353 6q25 -18 29 -65q-364 -526 -434 -659q-69 -133 -93 -240t-36 -287q-41 -20 -87 -57t-71 -70q-31 4 -44 29.5t-13 110.5z" />
    <glyph glyph-name="eight" unicode="8" horiz-adv-x="1046" 
d="M500 639q-238 -123 -238 -343t215 -220q180 0 221 172q11 45 11 76q0 90 -53.5 161.5t-155.5 153.5zM629 774q176 102 176 262q0 95 -45 134.5t-114 39.5q-145 0 -181 -139q-8 -27 -8 -57q0 -72 44 -125t124 -111zM907 360q0 -39 -14 -100q-37 -139 -150.5 -208.5
t-286.5 -69.5t-273.5 72.5t-100.5 221.5t92 243.5t256 174.5q-76 61 -122 128t-46 155q0 166 126 247t280 81t234.5 -70.5t80.5 -182.5t-76 -190t-205 -143q92 -78 148.5 -164t56.5 -195z" />
    <glyph glyph-name="nine" unicode="9" horiz-adv-x="1093" 
d="M793 612q0 156 -57.5 243t-150.5 87t-154.5 -70.5t-84.5 -197.5q-10 -61 -10 -109q0 -121 55 -195.5t163 -74.5t204 51l18 86q17 88 17 180zM145 520q0 68 15 131q39 180 154.5 282.5t293.5 102.5t277.5 -109.5t99.5 -301.5q0 -72 -20 -181q-45 -223 -173 -398
t-319.5 -278.5t-423.5 -115.5q-14 23 -14 69q526 92 690 523q-112 -70 -236 -70q-170 0 -257 95.5t-87 250.5z" />
    <glyph glyph-name="colon" unicode=":" horiz-adv-x="385" 
d="M240 190q0 -75 -35 -108t-80 -33t-74 27q-29 28 -29 76t34 87q34 38 81 38t75 -28q28 -27 28 -59zM246 655q-44 0 -74 27q-29 27 -29 76t34 87t81 38t81 -34t21 -87q-12 -53 -41 -80t-73 -27z" />
    <glyph glyph-name="semicolon" unicode=";" horiz-adv-x="432" 
d="M272 100q0 -140 -100 -284q-72 -104 -174 -187q-44 0 -70 43q76 70 123 141t47 121q0 70 -86 91q0 86 31 129q43 2 95 19t83 38q51 -29 51 -111zM389 796q0 -75 -35 -108t-80 -33q-46 0 -74 27t-28 76t34 87t80 38t75 -28q28 -27 28 -59z" />
    <glyph glyph-name="less" unicode="&#x3c;" horiz-adv-x="909" 
d="M790.5 -31.5q-10.5 -31.5 -24.5 -46.5q-344 309 -672 570l-2 18q0 49 31 86l805 557q61 -14 82 -59l-815 -562l604 -503q2 -29 -8.5 -60.5z" />
    <glyph glyph-name="equal" unicode="=" horiz-adv-x="1069" 
d="M944 297q-600 0 -878 -6q-4 72 26 112h885q-4 -61 -33 -106zM1001 635q-600 0 -878 -6q-4 72 27 112h884q-4 -61 -33 -106z" />
    <glyph glyph-name="greater" unicode="&#x3e;" horiz-adv-x="942" 
d="M864 517q0 -36 -8 -58q-367 -211 -846 -522q-24 27 -24 55t4 49l782 483l-627 584q31 39 97 49l610 -577q12 -27 12 -63z" />
    <glyph glyph-name="question" unicode="?" horiz-adv-x="1067" 
d="M565 124q0 -32 -6 -59q-6 -28 -34.5 -54.5t-73.5 -26.5t-74 26.5t-29 75.5t34 87t81 38t74.5 -27.5t27.5 -59.5zM734 1462q112 0 188.5 -63.5t76.5 -174.5t-59 -189.5t-149 -163.5t-141.5 -153.5t-69.5 -166.5q-10 -41 -10 -85t1 -54q-29 -16 -67 -17q-20 16 -33.5 61.5
t-13.5 96.5t13 121t59.5 137t118.5 141t115.5 131.5t43.5 138.5q0 156 -125 156q-70 0 -121 -61.5t-94 -202.5q-61 0 -90 21q39 131 45 239q39 35 119.5 61.5t192.5 26.5z" />
    <glyph glyph-name="at" unicode="@" horiz-adv-x="1656" 
d="M711 147q39 0 103.5 69t128 191.5t99.5 280.5l35 143q-53 20 -125 21q-231 0 -301 -344q-25 -117 -24 -199q0 -162 84 -162zM55 315q0 109 21 217q41 244 169 429.5t319.5 288t405.5 102.5t360.5 -70t225 -202t78.5 -314q0 -76 -24 -210t-103.5 -273.5t-193 -220
t-240.5 -80.5q-139 0 -139 147q0 82 39 172h-4q-72 -137 -171.5 -228t-201.5 -91q-166 0 -166 235q0 79 27 217t106.5 260.5t194 192t246.5 69.5q59 0 114 -18q74 0 117 18q27 -14 27 -57t-23 -139l-102 -459q-30 -141 -13 -155.5t41 -14.5q123 0 219.5 126t128.5 331
q14 78 15 155q0 248 -152.5 386.5t-419.5 138.5q-186 0 -342.5 -89t-290.5 -292.5t-137 -544.5q0 -203 76 -352.5t218.5 -230.5t336.5 -81q319 0 584 213q45 -8 53 -51q-258 -254 -668 -254q-225 0 -390 89t-253 254t-88 386z" />
    <glyph glyph-name="A" unicode="A" horiz-adv-x="1406" 
d="M879 543q-48 194 -89 335t-59 252q-122 -249 -315 -587h463zM1058 0q-156 0 -237 -6q0 53 17 88q70 8 97.5 26.5t27.5 55.5t-13 86l-47 199q-328 0 -547 -9l-86 -147q-61 -105 -61 -141t21.5 -49t70.5 -21q8 -43 6 -88q-67 6 -185 6t-177 -6q0 53 16 88q55 16 95 60
t112 167q272 465 612 1075q29 12 80 13q158 -549 295 -1127q32 -134 60 -156t61 -32q10 -37 6 -88q-68 6 -224 6z" />
    <glyph glyph-name="B" unicode="B" horiz-adv-x="1230" 
d="M934 442q0 125 -91 180.5t-292 55.5h-51l-70 -406q-10 -66 -10 -92q0 -59 33.5 -76.5t145.5 -17.5t223.5 82.5t111.5 273.5zM958 1098q0 102 -68.5 153.5t-189.5 51.5q-49 0 -94 -13l-90 -520h59q162 0 256.5 68.5t118.5 189.5q8 50 8 70zM1157 455q0 -238 -167 -346.5
t-390 -108.5q-387 0 -549 -6q2 51 17 88q63 10 95 28.5t47 57.5t30 125l147 842q6 41 6 81t-29.5 61t-97.5 26q-6 29 -6 52t2 36q183 -12 375 -2l141 2q195 0 294 -62.5t99 -198.5q0 -170 -110.5 -266t-247.5 -114q344 -18 344 -295z" />
    <glyph glyph-name="C" unicode="C" horiz-adv-x="1280" 
d="M1237.5 963q-27.5 0 -51.5 6q8 78 8 106q0 139 -62.5 191.5t-210 52.5t-276.5 -84q-129 -85 -206 -229q-103 -193 -103 -411t105.5 -353.5t316.5 -135.5t405 119q29 -29 33 -78q-231 -166 -498 -165q-186 0 -317 74.5t-197.5 204.5t-66.5 298q0 35 8 113
q31 244 153.5 408.5t294.5 243.5t328 79t256 -28.5t207 -92.5q-43 -116 -68 -309q-31 -10 -58.5 -10z" />
    <glyph glyph-name="D" unicode="D" horiz-adv-x="1505" 
d="M1268 840q0 246 -142.5 354.5t-373.5 108.5q-70 0 -146 -17l-174 -1014q-10 -61 -10 -102t32.5 -59.5t125.5 -18.5q264 0 438 133t229 420q21 103 21 195zM1479 852q0 -86 -19 -190q-61 -330 -293.5 -496t-595.5 -166h-6q-354 0 -514 -6q4 51 17 88q63 8 95 26.5t48 59.5
t31 125l147 842q6 37 6 79t-28.5 62t-100.5 29q-6 25 -6 51t2 35q249 -11 416 -2l125 2q291 0 483.5 -120t192.5 -419z" />
    <glyph glyph-name="E" unicode="E" 
d="M621 653h-123l-62 -360q-10 -66 -10 -113.5t34 -67.5t126 -20h39q216 0 303 110q41 52 90 150q59 -10 92 -45q-76 -145 -111 -313q-121 6 -450.5 6t-489.5 -6q0 47 15 88q63 8 94 26.5t46 58.5t30 126l141 813q8 43 8 92t-28.5 72.5t-100.5 32.5q-4 33 -4 54.5t2 33.5
q437 -16 930 0q-16 -125 -16 -218.5t2 -115.5q-39 -16 -103 -15q-4 100 -22.5 150.5t-79 75t-189.5 24.5h-178l-92 -547h115q129 0 185 35t73 133q49 9 98 2q-54 -214 -67 -462q-63 6 -95 26l2 35q0 80 -44 109.5t-160 29.5z" />
    <glyph glyph-name="F" unicode="F" horiz-adv-x="1103" 
d="M614 612h-125l-55 -321q-12 -61 -12 -107t31.5 -67t126.5 -35q10 -31 6 -88q-102 6 -269 6t-260 -6q2 51 17 88q63 10 93 27.5t45 52.5t28 108l143 834q10 57 10 98q0 85 -127 101q-6 25 -6 51t2 37q94 -7 400 -7t518 7q-17 -126 -17 -219t2 -115q-39 -16 -102 -15
q-4 100 -22.5 150.5t-79 75t-189.5 24.5h-168l-100 -592h119q129 0 185 36t73 136q49 9 98 2q-52 -208 -68 -462q-63 6 -94 26l2 35q0 80 -44 109.5t-161 29.5z" />
    <glyph glyph-name="G" unicode="G" horiz-adv-x="1421" 
d="M1241 135q-227 -153 -568 -153q-171 0 -298 70.5t-192.5 199.5t-65.5 297q0 66 8 123q33 248 155.5 411.5t298 241.5t350.5 78t287.5 -28.5t210.5 -92.5q-45 -127 -67 -307q-27 -12 -50 -12t-61 8q6 53 6 92q-1 197 -129 237q-62 20 -161 19q-266 0 -428 -173
q-199 -213 -199 -577q0 -213 96 -350t301 -137q128 0 213 33q33 12 49.5 29.5t26.5 53t27.5 135t17.5 151.5t-29.5 73t-113.5 25q-4 16 -4 46t2 42q90 -6 238.5 -6t252.5 6q-2 -51 -18 -88q-47 -6 -70.5 -22.5t-40 -67t-36 -153.5t-19.5 -140t10 -64z" />
    <glyph glyph-name="H" unicode="H" horiz-adv-x="1548" 
d="M1239 175q0 -44 27.5 -64.5t101.5 -28.5q6 -26 6 -52t-2 -36q-123 6 -257 6t-238 -6q0 51 16 88q57 6 87 21.5t46 50t29 106.5l69 406q-463 0 -626 -11l-68 -395q-8 -41 -8 -85t27.5 -64.5t101.5 -28.5q6 -26 6 -52t-2 -36q-123 6 -257 6t-239 -6q0 51 17 88
q57 6 87 21.5t46 50t29 106.5l149 864q8 53 8 70q0 55 -29.5 76.5t-101.5 32.5q-4 33 -4 55t2 33q259 -14 496 0q-4 -55 -19 -88q-55 -10 -96 -32.5t-63 -146.5l-64 -370h625l63 370q8 53 8 70q0 55 -29.5 76.5t-101.5 32.5q-4 33 -4 55t2 33q115 -6 244 -6t252 6
q-4 -55 -19 -88q-55 -10 -96 -32.5t-63 -146.5l-150 -864q-8 -41 -8 -85z" />
    <glyph glyph-name="I" unicode="I" horiz-adv-x="731" 
d="M395 1194q0 55 -29.5 76.5t-101.5 32.5q-4 33 -4 55t2 33q259 -14 496 0q-4 -55 -19 -88q-55 -10 -96 -32.5t-63 -146.5l-150 -864q-8 -41 -8 -85t27.5 -64.5t101.5 -28.5q6 -26 6 -52t-2 -36q-123 6 -257 6t-239 -6q0 51 17 88q57 6 87 21.5t46 50t29 106.5l149 864
q8 54 8 70z" />
    <glyph glyph-name="J" unicode="J" horiz-adv-x="626" 
d="M451 1384q172 0 268 7q-2 -51 -17 -88q-102 -14 -127.5 -65.5t-37.5 -123.5l-152 -868q-37 -209 -85 -336t-148.5 -227.5t-286.5 -192.5q-25 18 -33 70q137 96 218 215t114 305l184 1055q6 41 6 77t-27.5 59t-101.5 32q-6 25 -6 49t2 39q58 -7 230 -7z" />
    <glyph glyph-name="K" unicode="K" horiz-adv-x="1310" 
d="M1102 152q35 0 67 32q39 -20 62 -65q-57 -70 -111.5 -103.5t-126.5 -33.5q-63 4 -105 44t-94 177q-117 305 -288 491l-76 -434q-10 -57 -10 -94t24.5 -56.5t85.5 -27.5q12 -51 5 -88q-123 6 -247 6t-229 -6q0 51 17 88q57 6 87 21.5t46 50t29 106.5l149 864q8 53 8 70
q0 55 -29.5 76.5t-101.5 32.5q-4 33 -4 54.5t2 33.5q259 -14 496 0q-4 -55 -19 -88q-55 -9 -83 -25q-54 -29 -76 -154l-68 -393l408 387q111 109 110 148q0 27 -53 37q-10 50 -10 69l2 19q228 -17 424 0q0 -63 -11 -88q-90 -13 -152.5 -47.5t-170.5 -135.5l-383 -360
q160 -168 307 -488q31 -70 57.5 -95t61.5 -25z" />
    <glyph glyph-name="L" unicode="L" horiz-adv-x="1116" 
d="M550 0q-337 0 -499 -6q4 59 15 88q63 6 93.5 24.5t47 59.5t31.5 127l147 842q6 37 6 75.5t-28.5 60t-96.5 32.5q-8 35 -4 88q76 -6 251 -6.5t255 4.5q0 -49 -16 -86q-63 -8 -97 -25.5t-51.5 -55.5t-30.5 -114l-145 -836q-10 -57 -10 -100t32.5 -61.5t124.5 -18.5h13
q112 0 181 24.5t116 79t98 156.5q57 -10 90 -45q-68 -131 -108 -313q-78 6 -415 6z" />
    <glyph glyph-name="M" unicode="M" horiz-adv-x="1808" 
d="M1571 213q0 -60 23.5 -88.5t84.5 -42.5q8 -33 4 -88q-61 6 -244 6t-251 -6q0 45 16 88q68 10 101.5 33.5t50 70t40.5 302.5t38 554q-303 -561 -605 -1050q-27 -10 -84 -10q-125 522 -299 1081q-61 -262 -135 -528q-73 -265 -73 -327t28.5 -88t95.5 -38q8 -37 5 -88
q-84 6 -206 6t-216 -6q0 49 16 88q57 14 89 42t57.5 86t101.5 319t151 589q12 59 12 100t-25 59.5t-89 25.5q-4 18 -4 46t2 42q61 -6 157.5 -6.5t147.5 6.5q174 -563 316 -1145q324 541 636 1145q163 -17 283 0q0 -47 -14 -88q-55 -6 -85 -26t-44.5 -64t-20.5 -128
q-24 -440 -42 -626t-19 -246z" />
    <glyph glyph-name="N" unicode="N" horiz-adv-x="1382" 
d="M336 212q0 -59 28.5 -88.5t98.5 -41.5q6 -25 6 -49.5t-2 -38.5q-82 6 -204.5 6t-213.5 -6q2 49 14 88q78 10 116 67.5t65 202.5l151 865l-10 18q-20 39 -44 51t-75 17q-6 25 -6 50.5t2 37.5q151 -15 264 0q258 -459 555 -1055l121 686q16 94 16.5 152.5t-28.5 87
t-98 41.5q-8 65 -2 88q59 -6 194.5 -6t190.5 6q0 -45 -17 -88q-48 -12 -74 -41q-48 -53 -81 -261l-175 -1009q-29 -10 -84 -10q-272 547 -569 1089l-123 -698q-16 -102 -16 -161z" />
    <glyph glyph-name="O" unicode="O" horiz-adv-x="1517" 
d="M749 72q196 0 357.5 180t163.5 561q0 127 -52.5 247t-147.5 186.5t-215 66.5t-224.5 -71t-199.5 -232.5t-95 -404.5q0 -244 108.5 -388.5t304.5 -144.5zM1483 809q0 -303 -131 -482.5t-291 -262t-342 -82.5t-315.5 73.5t-207 210.5t-73.5 318q0 293 133 472t293 263
t338 84t311 -68.5t209 -203t76 -322.5z" />
    <glyph glyph-name="P" unicode="P" horiz-adv-x="1159" 
d="M1219 1051q0 -53 -13 -119q-35 -190 -181 -304t-353 -114q-86 0 -133 25q-2 14 4 41.5t14 40.5q47 -14 105 -15q139 0 228 81t120 239q12 61 12 116q0 258 -287 258q-74 0 -131 -14l-170 -995q-12 -61 -12 -107t31.5 -67t126.5 -35q10 -31 6 -88q-102 6 -269 6t-260 -6
q2 51 17 88q63 10 93 27.5t45 52.5t28 108l149 865q6 37 6 75t-28.5 60t-100.5 33q-6 25 -6 51t2 37q76 -6 289 -7l100 2q115 4 180 5q189 0 288.5 -89.5t99.5 -250.5z" />
    <glyph glyph-name="Q" unicode="Q" horiz-adv-x="1517" 
d="M749 72q196 0 357.5 180t163.5 561q0 127 -52.5 247t-147.5 186.5t-215 66.5t-224.5 -71t-199.5 -232.5t-95 -404.5q0 -244 108.5 -388.5t304.5 -144.5zM1408 -279q38 0 69 33q43 -17 57 -67q-27 -49 -93.5 -92.5t-149.5 -43.5t-147 38t-130 145t-138.5 170t-183.5 78
q-170 4 -299 79.5t-199.5 210t-70.5 312.5q0 293 133 472t293 263t338 84t311 -68.5t209 -203t76 -322.5q0 -346 -172 -540.5t-381 -256.5q150 -51 319 -202q57 -53 89 -71t70 -18z" />
    <glyph glyph-name="R" unicode="R" horiz-adv-x="1310" 
d="M592 719q174 -1 278 73q132 94 136 287q0 111 -67 167.5t-165 56.5t-170 -19l-96 -561q31 -4 84 -4zM968.5 -18q-75.5 0 -118.5 60t-81 190q-66 225 -175 393q-43 -2 -102 2l-64 -377q-8 -41 -8 -83t22.5 -59.5t85.5 -25.5q8 -37 4 -88q-104 6 -248.5 6t-224.5 -6
q0 53 17 88q59 6 90 23.5t46 54.5t28 110l149 865q6 33 6 71q0 80 -131 97q-4 16 -4 45t2 43q209 -13 443 -2l108 2q178 0 287.5 -79t109.5 -225q0 -25 -8 -77q-56 -286 -428 -357q92 -123 178 -342q63 -160 127 -159q36 0 70 32q38 -20 61 -65q-57 -70 -111.5 -103.5
t-130 -33.5z" />
    <glyph glyph-name="S" unicode="S" horiz-adv-x="942" 
d="M841 1030q-35 0 -46 2q-2 152 -53.5 214.5t-149.5 62.5q-205 0 -238 -201q-2 -12 -2 -37q0 -88 59.5 -151.5t167 -138.5t163.5 -125q134 -119 135 -277q0 -31 -7 -66q-27 -147 -150.5 -239t-281 -92t-254 36.5t-180.5 110.5q51 160 59 285q31 10 60 10t51 -6
q-2 -20 -2 -60q0 -147 59.5 -212.5t200.5 -65.5q98 0 171 66t73 168t-56 164q-56 61 -160 132q-104 70 -160 120q-134 118 -134 284q0 201 148 307q114 82 306 82t310 -96q-23 -145 -23 -265q-31 -12 -66 -12z" />
    <glyph glyph-name="T" unicode="T" horiz-adv-x="1116" 
d="M725 1385q409 0 522 6q-27 -156 -26 -324q-37 -20 -99 -16q-2 98 -19.5 152t-61.5 78t-130 24h-102l-184 -1055q-9 -53 -9 -84q-1 -67 146 -84q6 -25 6 -50t-2 -38q-86 6 -271.5 6t-258.5 -6q0 51 14 90q68 8 102.5 25.5t53 53.5t30.5 107l180 1035h-120
q-109 0 -166.5 -58.5t-104.5 -202.5q-67 0 -96 29q54 170 74 318q113 -6 522 -6z" />
    <glyph glyph-name="U" unicode="U" horiz-adv-x="1300" 
d="M381 389q-1 -299 285 -299q140 0 241 107.5t135 306.5l97 549q12 69 12 119t-26.5 79t-96.5 52q-4 16 -4 45t2 43q211 -15 408 0q0 -45 -19 -88q-61 -20 -92 -45t-48.5 -74t-35.5 -152l-90 -510q-49 -276 -179 -408t-350 -132t-326 101t-106 290q0 78 15 151l104 611
q8 43 8 83t-20.5 59t-71.5 26q-4 14 -4 44t2 44q97 -7 235 -7t238 7q-4 -53 -18 -88q-66 -6 -98.5 -21.5t-50 -52.5t-31.5 -115l-101 -582q-14 -74 -14 -143z" />
    <glyph glyph-name="V" unicode="V" horiz-adv-x="1341" 
d="M654 -14q-28 0 -36 2q-251 1076 -289 1174t-58.5 115t-57.5 28q-4 14 -4 43t2 43q259 -17 491 0q0 -47 -18 -91q-84 -10 -114.5 -28.5t-30.5 -64.5t22 -136q109 -397 191 -782q233 399 417 780q54 110 54 146q0 37 -27 55t-88 33q-4 16 -4 45t2 43q57 -6 179 -6t200 6
q0 -45 -19 -88q-49 -25 -84.5 -72t-107.5 -187q-289 -565 -572 -1044q-20 -14 -48 -14z" />
    <glyph glyph-name="W" unicode="W" horiz-adv-x="1972" 
d="M1380 -12q-26 0 -34 2q-90 609 -218 1091q-227 -498 -540 -1081q-20 -14 -50 -14t-38 2q-84 586 -140 890t-67.5 344t-27 56t-48.5 27q-8 25 -8 50t2 36q290 -16 463 0q0 -55 -15 -91q-88 -16 -118.5 -39.5t-30.5 -72.5q0 -48 39 -268t96 -617q238 459 526 1086
q25 12 51 12t38 -2q141 -525 225 -1075q166 328 257 550t104.5 264t13.5 76t-28 54t-93 35q-4 16 -4 46t2 42q55 -6 191 -6t188 6q0 -45 -19 -88q-51 -23 -91 -81.5t-112 -226.5q-242 -561 -464 -995q-24 -12 -50 -12z" />
    <glyph glyph-name="X" unicode="X" horiz-adv-x="1263" 
d="M1028 1233q0 29 -19.5 44t-60.5 26q-4 16 -4 46t2 42q66 -6 186 -6t193 6q0 -45 -18 -88q-39 -4 -69 -23.5t-65 -65.5t-145 -204t-244 -324q68 -154 134 -314t93 -202.5t53 -59t73 -30.5q4 -14 4 -42t-2 -44q-119 6 -275 6t-217 -6q0 43 19 90q61 8 87.5 24.5t26.5 63.5
t-157 408q-76 -100 -158 -203l-68 -84q-70 -86 -69 -139q0 -51 75 -72q4 -37 5 -51l-2 -37q-88 6 -220 6t-209 -6q0 45 19 88q57 16 110.5 57t195.5 201t278 340q-251 552 -290.5 583t-76.5 42q-4 16 -4 45t2 41q273 -15 491 0q0 -47 -18 -91q-66 -12 -95.5 -30.5
t-29.5 -59.5q-1 -40 59 -160t123 -264q287 355 287 447z" />
    <glyph glyph-name="Y" unicode="Y" 
d="M690 182q0 -45 30 -65.5t116 -34.5q6 -25 6 -50t-2 -38q-86 6 -272 6t-259 -6q0 51 15 90q70 12 104.5 28.5t52 51.5t29.5 106l49 279q-86 279 -160 459t-94 218t-39.5 52t-52.5 27q-4 16 -4 44t2 42q75 -7 229 -7t256 7q0 -39 -18 -91q-76 -10 -107.5 -29.5t-31.5 -53.5
t18 -78q90 -231 158 -486q152 209 284 434q57 97 57 135t-22 54t-73 27q-10 40 -3 88q68 -6 190 -6t189 6q0 -45 -18 -88q-45 -18 -81 -51t-158 -227t-328 -474l-54 -301q-8 -53 -8 -68z" />
    <glyph glyph-name="Z" unicode="Z" horiz-adv-x="1105" 
d="M532 92q134 0 202.5 18.5t113.5 72t94 169.5q63 -12 102 -49q-63 -154 -90 -309q-197 6 -507 6t-472 -6q-20 35 -18 84q475 571 944 1216h-270q-96 0 -154.5 -20.5t-103.5 -76.5t-88 -167q-68 6 -107 39q61 138 88 322q166 -7 444 -7t439 7q27 -31 27 -84
q-502 -684 -940 -1215h296z" />
    <glyph glyph-name="bracketleft" unicode="[" horiz-adv-x="593" 
d="M501 1516q99 0 197 4q22 -36 11 -78q-123 -10 -178.5 -24.5t-84 -51.5t-43.5 -117l-272 -1550q-6 -31 -6 -53q0 -61 49 -86t178 -29q8 -14 8 -38.5t-8 -43.5q-74 4 -198 4t-211 -4l364 2071q95 -4 194 -4z" />
    <glyph glyph-name="backslash" unicode="\" horiz-adv-x="598" 
d="M254 1466q30 0 41 -2l211 -1464q-37 -20 -100 -16q-102 797 -213 1468q31 14 61 14z" />
    <glyph glyph-name="bracketright" unicode="]" horiz-adv-x="593" 
d="M464 1516q100 0 193 4l-364 -2071q-107 4 -210 4t-198 -4q-5 51 21 82q109 4 164 17.5t82.5 42t37.5 87.5l277 1571q8 57 8 88t-22.5 53.5t-69.5 33t-147 18.5q0 50 26 78q102 -4 202 -4z" />
    <glyph glyph-name="asciicircum" unicode="^" horiz-adv-x="1021" 
d="M702 1425q24 0 46 -4q144 -357 262 -594q-35 -25 -86 -20l-232 526q-182 -190 -497 -549q-31 39 -31 97l479 522q35 22 59 22z" />
    <glyph glyph-name="underscore" unicode="_" horiz-adv-x="1024" 
d="M821 -295q-600 0 -878 -6q-4 72 26 113h885q-4 -62 -33 -107z" />
    <glyph glyph-name="grave" unicode="`" horiz-adv-x="483" 
d="M507 1094q-24 0 -40 8q-98 196 -211 340q55 18 103 18t90 -14q29 -182 90 -348q-8 -4 -32 -4z" />
    <glyph glyph-name="a" unicode="a" horiz-adv-x="966" 
d="M225 309q0 -162 84 -162q39 0 103.5 69t128 191.5t100.5 280.5l35 143q-53 20 -125 21q-231 0 -301 -344q-25 -117 -25 -199zM748 123q40 0 114 61q23 -24 37 -63q-125 -139 -237 -139q-68 0 -99 43t-31 107t25 130t59 139h-6q-61 -168 -177 -293.5t-238 -125.5
q-166 0 -166 235q1 79 27 217t106 260.5t194.5 192t245.5 69.5q59 0 115 -18q74 0 117 18q26 -12 26 -56t-22 -140l-103 -459q-23 -109 -23 -135t8.5 -34.5t27.5 -8.5z" />
    <glyph glyph-name="b" unicode="b" horiz-adv-x="905" 
d="M680 629q0 162 -84 162q-39 0 -103.5 -69t-128 -191.5t-100.5 -280.5l-35 -144q53 -20 125 -20q233 0 301 344q25 117 25 199zM711 956q166 0 166 -235q0 -79 -27 -217t-106.5 -260.5t-194.5 -192t-246 -69.5h-4q-181 0 -281 102q59 87 109 360l115 650q18 106 18 141
t-24.5 46t-98.5 11q-4 49 13 78q161 26 276 84q47 -14 47 -82q0 -12 -4 -49q-61 -352 -91 -480t-85 -306h2q61 168 177 293.5t239 125.5z" />
    <glyph glyph-name="c" unicode="c" horiz-adv-x="745" 
d="M43 266q0 119 25 219q49 215 167.5 343t303.5 128q129 0 192 -43q-41 -106 -47 -227q-33 -16 -88 -16q2 16 2 47q0 139 -109 139q-182 0 -241 -344q-16 -106 -17 -164q0 -225 152 -225q115 0 223 119q27 -18 43 -58q-158 -202 -366 -202q-125 0 -182.5 82.5t-57.5 201.5z
" />
    <glyph glyph-name="d" unicode="d" horiz-adv-x="985" 
d="M225 309q0 -162 84 -162q39 0 103.5 69t128 191.5t100.5 280.5l35 143q-53 20 -125 21q-231 0 -301 -344q-25 -117 -25 -199zM195 -18q-166 0 -166 235q1 79 27 217t106 260.5t194.5 192t245.5 69.5q39 0 84 -10q6 68 22 157t15 130q0 41 -22.5 50t-98.5 9q-4 47 12 78
q49 4 140.5 33t136.5 51q47 -14 47 -82q0 -12 -4 -49l-168 -961q-29 -171 -29 -198t6.5 -34t20.5 -7q43 0 117 61q25 -25 37 -63q-125 -139 -244 -139q-131 0 -131 151q0 53 16 113q37 117 57 155h-6q-61 -168 -177 -293.5t-238 -125.5z" />
    <glyph glyph-name="e" unicode="e" horiz-adv-x="747" 
d="M555 762q0 30 -23.5 60t-64.5 30q-70 0 -131.5 -93t-89.5 -267q118 12 202 65q106 68 107 205zM41 259q0 279 124 471q73 114 166 170t190 56t149.5 -52t52.5 -138t-79 -167t-193.5 -129t-214.5 -54q-4 -45 -5 -70q0 -217 148 -217q113 0 207 115q31 -23 43 -60
q-154 -202 -359 -202q-121 0 -175 82.5t-54 194.5z" />
    <glyph glyph-name="f" unicode="f" horiz-adv-x="602" 
d="M664 918q0 -49 -15 -80q-96 0 -207 -17q-47 -256 -67 -394t-29 -185q-57 -342 -174 -546t-278 -204q-96 0 -183 74q-6 61 15 123q102 -33 227 -33q53 0 94.5 40t97.5 425l37 268q31 252 62 436q-94 12 -146 13q0 47 23 80h137q45 272 178 408t294 136t224 -51
q-47 -100 -53 -219q-35 -20 -86 -16q-8 192 -129 192q-57 0 -108.5 -54.5t-116.5 -395.5h203z" />
    <glyph glyph-name="g" unicode="g" horiz-adv-x="907" 
d="M225 309q0 -162 84 -162q39 0 103.5 69t128 191.5t100.5 280.5l35 143q-53 20 -125 21q-231 0 -301 -344q-25 -117 -25 -199zM195 -18q-166 0 -166 235q0 78 26.5 216.5t106.5 261t194.5 192t245.5 69.5q61 0 117 -18q68 4 102 18q27 -10 27 -44t-6 -70l-105 -600
q-83 -462 -281 -654q-98 -96 -223 -96t-251 96q-2 12 -2 50t18 79q172 -61 336 -61q54 0 80 24q55 49 110 429q16 102 76 256l12 36h-2q-61 -168 -177 -293.5t-238 -125.5z" />
    <glyph glyph-name="h" unicode="h" horiz-adv-x="1019" 
d="M717 -18q-70 0 -99.5 30.5t-29.5 91.5t33 207l55 244q23 98 22 162q0 90 -53 90t-128 -70.5t-140.5 -194.5t-93.5 -276l-47 -266h-187l193 1094q18 106 18 141t-24.5 46t-98.5 11q-4 49 13 78q161 26 276 84q47 -14 47 -82q0 -12 -4 -49q-61 -352 -91 -480t-85 -306h4
l47 100q33 70 97.5 144.5t140 124.5t142.5 50t117 -50t50 -150t-23 -193l-59 -250q-33 -139 -33 -161t5 -26.5t23 -4.5t52.5 19.5t58.5 43.5q29 -28 37 -65q-137 -137 -235 -137z" />
    <glyph glyph-name="i" unicode="i" horiz-adv-x="505" 
d="M422 825q0 -57 -25 -147l-112 -395q-25 -86 -25 -114t8 -36t27 -8q47 0 106 59q31 -20 37 -65q-127 -137 -233 -137q-135 0 -135 149q0 59 22 145l84 295q35 123 35 162t-24.5 50.5t-92.5 11.5q-2 45 12 77q47 6 122 33t114 51q80 -31 80 -131zM430 1427q92 1 92 -103
q0 -54 -40 -98t-90 -44t-74.5 24t-24.5 50t8 65t45 72.5t84 33.5z" />
    <glyph glyph-name="j" unicode="j" horiz-adv-x="477" 
d="M412 836q0 -55 -25 -183l-94 -501q-47 -254 -166 -409t-340 -253q-29 25 -31 68q278 196 342 546l101 539q10 55 10 89t-25.5 48.5t-97.5 14.5q-4 47 12 77q47 5 126 32.5t118 51.5q37 -16 53.5 -40.5t16.5 -79.5zM420 1427q92 1 92 -103q0 -54 -40 -98t-90 -44t-74.5 24
t-24.5 50t8 65t45 72.5t84 33.5z" />
    <glyph glyph-name="k" unicode="k" horiz-adv-x="933" 
d="M674 742.5q0 31.5 -20.5 55t-63.5 23.5q-42 0 -100 -48q-122 -102 -179 -320q330 80 361 247q2 11 2 42.5zM877 778q0 -222 -400 -350q39 -49 99.5 -156.5t83 -126t49 -18.5t49 13.5t57.5 45.5q31 -27 39 -65q-126 -139 -242 -139q-68 0 -105.5 42t-86.5 145t-119 212
l-65 -381h-187l193 1094q16 94 16 135t-23.5 52t-97.5 11q-4 49 13 78q161 26 276 84q47 -14 47 -82q0 -12 -4 -49q-59 -336 -83 -438.5t-73 -251.5h2q63 152 154.5 237.5t196 85.5t158 -50t53.5 -128z" />
    <glyph glyph-name="l" unicode="l" horiz-adv-x="512" 
d="M266 199q0 -74 37 -74q43 0 105 59q27 -25 36 -61q-51 -61 -113.5 -101t-117.5 -40q-139 0 -139 153q0 59 11 145t157 814q18 90 18 133t-24.5 54t-98.5 11q0 57 13 78q49 4 140 33t136 51q47 -14 47 -82q0 -12 -4 -49q-59 -328 -131 -689t-72 -435z" />
    <glyph glyph-name="m" unicode="m" horiz-adv-x="1574" 
d="M1507 119q-126 -137 -245 -137q-63 0 -91 29.5t-28 92.5t31 207l53 234q27 113 27 187t-53 75q-52 0 -124.5 -63.5t-140.5 -187.5t-100 -290l-52 -266h-184l94 461q37 184 37 265t-51 81t-123 -65.5t-136.5 -189.5t-94.5 -286l-52 -266h-186l113 596q16 94 16 135
t-24.5 52.5t-98.5 11.5l-2 18q0 31 14 59q49 4 139.5 32t135.5 52q47 -14 47 -84q0 -12 -4 -49q-29 -147 -74 -254h2l31 68q29 63 91.5 138t139 127t142.5 52t111.5 -44t45.5 -132t-49 -209h2l31 68q29 66 94.5 140.5t147 126.5t153.5 52t113 -57t41 -151t-27 -195l-61 -240
q-33 -123 -33 -150t7 -33.5t24 -6.5q51 0 117 61q29 -27 34 -65z" />
    <glyph glyph-name="n" unicode="n" horiz-adv-x="1060" 
d="M758 -18q-70 0 -99.5 30.5t-29.5 91.5t33 207l55 244q23 98 22 162q0 90 -53 90t-128 -70.5t-140.5 -194.5t-93.5 -276l-52 -266h-186l113 596q18 106 18 141t-24.5 46.5t-98.5 11.5q0 57 12 77q49 4 141.5 33t137.5 51q47 -14 47 -84q0 -12 -4 -49q-27 -137 -76 -254
l33 68q33 70 97.5 144.5t140 124.5t142.5 50t117 -50t50 -150.5t-23 -192.5l-59 -250q-33 -139 -33 -161.5t5 -26.5t22.5 -4t52.5 19.5t59 43.5q29 -28 37 -65q-137 -137 -235 -137z" />
    <glyph glyph-name="o" unicode="o" horiz-adv-x="931" 
d="M250 316q0 -100 39 -168t106 -68q90 0 189.5 141.5t99.5 412.5q0 93 -39 158.5t-119 65.5t-153.5 -101.5t-106.5 -264.5q-16 -76 -16 -176zM354 -18q-135 0 -220 98t-85 258q1 52 21 164t93 222t177 171t240 61t219.5 -95t83.5 -279t-90.5 -326.5t-197 -208t-241.5 -65.5
z" />
    <glyph glyph-name="p" unicode="p" horiz-adv-x="956" 
d="M731 631q0 162 -84 162q-39 0 -103.5 -69t-128 -191.5t-100.5 -280.5l-34 -143q53 -20 125 -21q231 0 301 344q24 117 24 199zM762 958q166 0 166 -235q0 -79 -27 -217t-106.5 -260.5t-194.5 -192t-246 -69.5q-37 0 -94 12l2 -39q0 -70 -22 -190l-47 -269h-187l193 1094
q18 106 18 141t-24.5 46.5t-98.5 11.5q0 57 12 77q49 4 140.5 33t136.5 51q47 -14 47 -82q0 -12 -11 -93t-59 -191l-18 -47h4q61 168 177 293.5t239 125.5z" />
    <glyph glyph-name="q" unicode="q" horiz-adv-x="937" 
d="M225 309q0 -162 84 -162q39 0 103.5 69t128 191.5t100.5 280.5l33 143q-49 20 -123 21q-231 0 -301 -344q-25 -117 -25 -199zM195 -18q-166 0 -166 235q1 79 27 217t106 260.5t194.5 192t245.5 69.5h4q183 0 281 -102q-59 -87 -109 -360l-174 -990h-186l106 605
q16 102 76 256l12 36h-2q-61 -168 -177 -293.5t-238 -125.5z" />
    <glyph glyph-name="r" unicode="r" horiz-adv-x="765" 
d="M430 879q0 -98 -96 -324h4l35 76q80 166 144.5 245.5t148.5 79.5q57 0 104 -36q-35 -109 -49 -238q-39 -20 -100 -16q2 18 2 47q1 128 -87 28q-38 -43 -85 -133q-111 -223 -150 -426l-35 -182h-188l115 596q20 102 20 139t-24.5 48.5t-96.5 11.5q0 53 14 77
q49 4 140.5 33t136.5 51q47 -16 47 -77z" />
    <glyph glyph-name="s" unicode="s" horiz-adv-x="753" 
d="M156 303q-8 -227 148 -227q147 0 155 94v12q0 41 -31 82t-106.5 116t-121.5 142.5t-46 157.5q0 144 102 220q76 56 199 56q73 0 146 -18t118 -47q-35 -104 -39 -221q-35 -18 -100 -19q0 117 -34 163t-102 46q-129 0 -137 -94v-12q0 -43 33 -83t96 -96
q92 -84 140.5 -150.5t48.5 -158.5q0 -29 -7 -63q-46 -221 -311 -221q-163 0 -284 79q31 113 34 224q47 23 99 18z" />
    <glyph glyph-name="t" unicode="t" horiz-adv-x="659" 
d="M518 1212q0 -47 -35 -194l-22 -100h231q0 -49 -14 -80q-145 0 -240 -15l-96 -407q-25 -105 -25 -185q0 -123 72 -122q35 0 77 25.5t75 66.5q33 -19 43 -66q-47 -61 -122 -107t-160 -46q-177 0 -177 211q0 82 29 208l96 424q-94 12 -152 13q0 47 23 80h151l4 20
q47 209 54 283q103 14 162 49q26 -11 26 -58z" />
    <glyph glyph-name="u" unicode="u" horiz-adv-x="1040" 
d="M606 129q0 100 41 180h-4q-35 -74 -95.5 -149.5t-136 -126.5t-149.5 -51q-147 0 -147 208q0 106 47 294t47 238t-23.5 61.5t-89.5 11.5q-2 9 -2 31t12 46q47 4 140.5 33t132.5 51q22 -14 32.5 -28.5t10.5 -64.5t-60 -295t-59 -322q0 -113 66 -113q43 0 112.5 65.5
t134 191.5t97.5 300l47 248h186l-100 -508q-45 -225 -45 -259t7 -41t34 -7t92 63q25 -23 39 -65q-51 -59 -113.5 -99t-116.5 -40q-137 0 -137 147z" />
    <glyph glyph-name="v" unicode="v" horiz-adv-x="954" 
d="M899 748q0 -129 -113.5 -308.5t-392.5 -457.5q-57 -4 -98 18q-23 351 -98 668q-14 55 -33.5 93t-114.5 34q0 49 10 77q49 6 109.5 32t95.5 52q39 -12 57.5 -33.5t28.5 -59.5t52 -255t55 -452q127 147 192.5 273t65.5 205t-29 113.5t-96 45.5q-16 35 -12 75
q53 14 115.5 43t86.5 47q119 -44 119 -210z" />
    <glyph glyph-name="w" unicode="w" horiz-adv-x="1421" 
d="M1182 629q0 80 -32 117.5t-99 46.5q-16 35 -13 75q55 16 117 43t86 45q123 -47 123 -213q0 -131 -101.5 -307t-371.5 -454q-57 -4 -98 18q-20 256 -58 459q-43 -121 -116.5 -223.5t-225.5 -253.5q-57 -4 -98 18q-23 351 -98 668q-14 55 -33.5 93t-114.5 34q0 49 10 77
q49 6 109.5 32t95.5 52q39 -12 57.5 -33.5t28.5 -59.5t49 -243t58 -458q111 129 162 240.5t51 230.5t-37 258q74 18 112 65q33 -8 56 -32t77 -284t74 -476q117 145 173.5 265t56.5 200z" />
    <glyph glyph-name="x" unicode="x" horiz-adv-x="950" 
d="M850 121q-122 -139 -238 -139q-60 0 -93 22t-61 88t-79 217q-68 -137 -152.5 -232t-160.5 -95t-111 28q37 109 37 236q39 23 90 18q4 -68 14 -88t33 -20q41 0 102.5 78.5t108.5 191.5q-44 152 -64 237t-57 110.5t-115 21.5q-2 9 -2 31t13 46q51 6 122.5 33t104.5 51
q31 -6 46 -28t35 -102t54 -201q68 137 153 234t164 97t124 -36q-47 -105 -56 -238q-35 -20 -86 -16q-2 84 -14 110.5t-37 26.5q-43 0 -103.5 -91t-107.5 -212q96 -319 129 -348t65 -29t105 63q25 -27 37 -65z" />
    <glyph glyph-name="y" unicode="y" horiz-adv-x="915" 
d="M872 795q0 -123 -91 -301.5t-270 -437.5t-275.5 -373.5t-162 -152.5t-151.5 -38t-172 74q-6 61 14 123q102 -33 188 -33t154 47t175 186q-24 485 -103 779q-14 55 -33 93t-114 34v18q0 37 10 59q49 6 109.5 32t95.5 52q35 -12 70 -46t73.5 -340t44.5 -468l19 29
q113 168 173 315.5t60 215.5t-25.5 95t-89.5 36q-16 35 -12 75q53 14 115.5 43t87.5 47q110 -40 110 -163z" />
    <glyph glyph-name="z" unicode="z" horiz-adv-x="815" 
d="M459 774q-82 0 -126 -10t-73 -33.5t-61 -71.5q-47 0 -76 35q63 115 86 244q121 12 267 12t265 -12q24 -34 29 -74q-92 -172 -236.5 -359.5t-310.5 -346.5q45 14 109 14l69 -2q45 -4 93 -4t77 21.5t64 88.5q53 5 88 -24q-47 -109 -59 -234q-28 -36 -175 -36l-335 18
q-78 0 -142 -18q-23 37 -20 81q433 393 610 699q-61 12 -143 12z" />
    <glyph glyph-name="braceleft" unicode="{" horiz-adv-x="688" 
d="M328 -283q0 -155 131 -204q0 -45 -21 -68q-197 72 -241 233q-29 124 14 329t43 280q0 159 -141 213q0 41 22 65q170 58 193.5 177.5t29.5 251.5t32 228.5t117 177.5t279 120q7 -14 7 -36t-2 -34q-115 -20 -170.5 -81.5t-71 -139.5t-21.5 -212t-23.5 -220t-82 -160
t-195.5 -107q197 -58 197 -262q0 -96 -48 -280t-48 -271z" />
    <glyph glyph-name="bar" unicode="|" horiz-adv-x="385" 
d="M434 1419q-190 -895 -373 -1923q-70 4 -96 39l371 1923q65 0 98 -39z" />
    <glyph glyph-name="braceright" unicode="}" horiz-adv-x="700" 
d="M297 754q0 61 49 237q51 158 51 237t-37.5 134t-128.5 88q8 51 25 68q223 -74 268 -228q27 -85 11.5 -169.5t-41.5 -189.5t-25 -169q0 -137 137 -193q2 -8 2 -24t-6 -41q-176 -52 -210 -191t-52 -291t-48 -257t-117 -194t-253 -126q-8 23 -8 41t2 27q182 32 208 170.5
t36 288.5t31.5 252t92 187t212.5 119q-199 54 -199 224z" />
    <glyph glyph-name="asciitilde" unicode="~" horiz-adv-x="1157" 
d="M391 686q78 0 185.5 -44t157.5 -58.5t100 -14.5q111 0 210 93q41 0 62 -33q-143 -186 -295 -187q-49 0 -96 16.5t-118 48.5t-117 47t-97 15q-129 0 -256 -133q-40 20 -43 53q145 197 307 197z" />
    <glyph glyph-name="nonbreakingspace" unicode="&#xa0;" horiz-adv-x="368" 
 />
    <glyph glyph-name="exclamdown" unicode="&#xa1;" horiz-adv-x="847" 
d="M588 854q0 -49 -34 -87t-81 -38t-80 33t-22 87q12 54 41 81q30 26 74 26t73 -26t29 -76zM129 -480q0 28 59 227q59 200 174 732l25 2q33 0 66 -14q-59 -487 -82 -922q-134 -29 -205 -67q-37 14 -37 42z" />
    <glyph glyph-name="cent" unicode="&#xa2;" horiz-adv-x="743" 
d="M233 350q0 -158 72 -205l137 705q-144 -40 -190 -314q-20 -114 -19 -186zM598 729q0 99 -63 119q-88 -416 -142 -725q106 6 213 119q27 -18 43 -58q-123 -156 -278 -192l-45 -271q-70 4 -97 39l43 222q-121 4 -175 86t-54 200t25 217q43 190 141 314.5t250 150.5l61 310
q66 0 98 -39l-59 -265q120 -5 172 -43q-41 -106 -47 -227q-33 -16 -88 -16q2 16 2 59z" />
    <glyph glyph-name="sterling" unicode="&#xa3;" horiz-adv-x="1005" 
d="M844 1108q0 106 -45 152.5t-137 46.5t-167 -68.5t-75 -220.5q0 -75 33 -172q33 -96 34 -160h263q0 -66 -29 -106h-246q-39 -179 -217 -369q90 45 166 45t125 -18.5t107 -52.5t87 -33q57 0 93 55q20 -4 39.5 -20.5t25.5 -34.5q-35 -78 -97.5 -124t-119.5 -46t-88 13
t-76 43t-90 47t-117 17q-145 0 -286 -120q-39 25 -64 77q147 117 224 216.5t102 232.5q6 37 6 70q-88 0 -215 -5q-4 72 26 113h173l-13 43q-33 113 -33 176q-1 63 13 143t73.5 165t155 137.5t201.5 52.5q190 0 309 -88q-25 -113 -35 -268q-61 -10 -108 10q2 18 2 51z" />
    <glyph glyph-name="currency" unicode="&#xa4;" horiz-adv-x="954" 
d="M741 559q0 111 -63.5 175.5t-169.5 64.5t-190 -73.5t-91 -238.5q0 -115 63.5 -182t169.5 -67t193.5 84t87.5 237zM525 883q144 0 235 -78l106 92q56 -13 80 -47l-131 -111q41 -69 41 -159q0 -178 -121 -306l115 -124q-28 -28 -92 -33l-90 102q-94 -65 -228 -65t-221 71
l-113 -106q-56 5 -86 43l144 125q-51 80 -51 192q0 169 100 277l-98 102q30 30 96 35l70 -80q100 70 244 70z" />
    <glyph glyph-name="yen" unicode="&#xa5;" 
d="M530 649q-65 0 -311 -6q-4 72 27 113h250q-166 478 -206 507t-73 42q-4 16 -4 44t2 42q75 -7 229 -7t256 7q0 -39 -18 -91q-76 -10 -107.5 -29.5t-31.5 -53.5t18 -78q86 -225 154 -467l59 84h19q268 389 268 475q0 29 -22.5 45t-73.5 27q-4 16 -4 45t2 43q68 -6 190 -6
t188 6q0 -45 -18 -88q-45 -18 -81 -51.5t-148 -207.5t-191 -288h219q4 -59 -24 -107h-271l-71 -98l-8 -43h346q-4 -61 -33 -107h-332l-27 -151q-8 -53 -8 -68q0 -45 30 -65.5t116 -34.5q6 -25 6 -50t-2 -38q-86 6 -272 6t-259 -6q0 51 15 90q70 12 104.5 28.5t52 51.5
t29.5 106l23 129q-127 0 -349 -4q-6 68 21 113h346l8 41z" />
    <glyph glyph-name="brokenbar" unicode="&#xa6;" horiz-adv-x="387" 
d="M221 311q-88 -416 -160 -815q-70 4 -96 39l158 815q65 0 98 -39zM434 1419q-90 -438 -143 -747q-70 4 -96 39l141 747q65 0 98 -39z" />
    <glyph glyph-name="section" unicode="&#xa7;" horiz-adv-x="1048" 
d="M770 484q0 50 -32.5 107.5t-80 98.5t-133.5 109q-90 -33 -166.5 -107t-76.5 -199t77.5 -195.5t165.5 -137.5q90 33 157 97.5t83 141.5q6 35 6 85zM440 866q-151 132 -151 289t113.5 233t278.5 76t280 -96q-23 -145 -23 -264q-31 -12 -66 -12t-47 2q-4 207 -63.5 241.5
t-106.5 34.5t-74.5 -18.5t-56 -46t-32.5 -27.5t-7 1.5t-12 -58.5v-23q0 -76 53.5 -135t153.5 -133t197.5 -162t97.5 -259t-108.5 -271.5t-256.5 -145.5q72 -63 112 -130.5t40 -154.5q0 -159 -113.5 -236t-279.5 -77t-279 96q23 145 23 265q31 12 65 12t47 -2
q4 -208 63.5 -242.5t126.5 -34.5t110.5 41t52.5 109v22q0 76 -54 135.5t-154 133.5t-197 162.5t-97 259.5t108.5 270.5t255.5 144.5z" />
    <glyph glyph-name="dieresis" unicode="&#xa8;" horiz-adv-x="661" 
d="M735 1196q-16 -104 -113 -104q-96 0 -96 101q0 50 32 84t81 34t74.5 -23.5t25.5 -62.5q0 -8 -4 -29zM276.5 1090q-67.5 0 -67.5 103q0 52 30.5 85t80.5 33t75 -24.5t25 -50.5t-8 -59q-8 -34 -38 -60.5t-97.5 -26.5z" />
    <glyph glyph-name="copyright" unicode="&#xa9;" horiz-adv-x="1509" 
d="M819 811q-166 0 -217 -309q-14 -82 -14 -148q0 -203 135 -202q104 0 201 106q27 -18 39 -51q-142 -182 -330 -182q-113 0 -164 73.5t-51 177.5t22 201q45 193 151.5 308.5t272.5 115.5q124 0 172 -39q-39 -104 -41 -205q-33 -14 -80 -14q2 14 3 39q0 129 -99 129z
M1341 582q0 233 -136 366t-392 133q-156 0 -288 -68.5t-220 -192.5t-119 -288q-18 -92 -18 -174q0 -231 137 -363t395 -132q156 0 288 68.5t220 192.5t117 286q16 80 16 172zM1434 592q0 -86 -19 -182q-35 -190 -138 -335t-257 -223.5t-339 -78.5t-321.5 70.5t-209 201.5
t-72.5 309q0 84 18 178q37 190 140.5 335t256.5 223.5t339 78.5t322 -70.5t208 -200.5t72 -306z" />
    <glyph glyph-name="ordfeminine" unicode="&#xaa;" horiz-adv-x="927" 
d="M612 1382q-160 0 -215 -247q-20 -94 -20 -171t51 -77q29 0 73 44t91 130t80 207l28 102q-41 12 -88 12zM877 840q-93 -101 -181 -101q-46 0 -72 31t-26 85t31 120h-4q-49 -96 -125 -166t-156 -70q-121 0 -121 174q0 72 17 148q35 180 149.5 293.5t261.5 113.5
q47 0 86 -14q50 -5 88 14q23 -12 23 -45t-14 -98l-80 -350q-12 -63 -12 -86t26 -23q27 0 70 41q25 -17 39 -67z" />
    <glyph glyph-name="guillemotleft" unicode="&#xab;" horiz-adv-x="870" 
d="M608 535q47 -138 119 -285q-8 -43 -47 -70q-131 180 -244 312q0 49 27 79q172 145 299 273q20 -2 40.5 -13.5t28.5 -25.5q-111 -120 -223 -270zM260 535q38 -117 139 -295q-8 -43 -47 -70q-131 180 -264 322q0 49 27 79l47 39q189 160 272 246q21 -2 41.5 -13.5
t28.5 -25.5q-163 -168 -244 -282z" />
    <glyph glyph-name="logicalnot" unicode="&#xac;" horiz-adv-x="1122" 
d="M888 217q-28 0 -52 4l65 391q-537 0 -782 -6q-2 63 26 105h885l-80 -478q-34 -16 -62 -16z" />
    <glyph glyph-name="softhyphen" unicode="&#xad;" horiz-adv-x="741" 
d="M653 479q-332 0 -567 -6q8 90 35 139h559q-2 -80 -27 -133z" />
    <glyph glyph-name="registered" unicode="&#xae;" horiz-adv-x="1028" 
d="M610 1030q88 0 88 74t-77 74q-25 0 -50 -7v-139q14 -2 39 -2zM776 1114q0 -103 -88 -125l105 -172l-78 -10l-97 168l-47 2v-164h-77v420h149q133 0 133 -119zM936 1019q0 89 -41 160.5t-113 113.5t-162 42t-161.5 -42t-113.5 -114.5t-42 -160.5t42 -160t113.5 -114
t161.5 -42t162 42t113 114t41 161zM1004 1017.5q0 -106.5 -50.5 -194.5t-139 -138t-194.5 -50t-194 50t-139 138t-51 194.5t51 194.5t139 139.5t194 51.5t194.5 -51.5t139 -139.5t50.5 -194.5z" />
    <glyph glyph-name="macron" unicode="&#xaf;" horiz-adv-x="858" 
d="M946 1292q0 -41 -18 -88q-420 0 -713 -6q0 65 18 94h713z" />
    <glyph glyph-name="degree" unicode="&#xb0;" horiz-adv-x="788" 
d="M408 1140q0 -50 30.5 -89t86.5 -39t96.5 58t40.5 134t-31 114t-82 38t-88 -37t-45 -83t-8 -96zM805 1206q0 -114 -83 -195t-204 -81t-187.5 61.5t-66.5 165.5q0 142 91 209.5t205 67.5t179.5 -57t65.5 -171z" />
    <glyph glyph-name="plusminus" unicode="&#xb1;" horiz-adv-x="968" 
d="M76 268h774q-4 -61 -33 -106q-489 0 -768 -6q-4 69 27 112zM458 340q-32 0 -55 20l56 287q-119 0 -332 -4q-4 66 27 107h323l60 307q23 10 55 10t51 -10q-31 -137 -63 -307h335q5 -60 -22 -101h-334q-37 -209 -51 -303q-18 -6 -50 -6z" />
    <glyph glyph-name="twosuperior" unicode="&#xb2;" horiz-adv-x="649" 
d="M461 1380q-47 0 -80 -47t-66 -155q-63 -4 -96 14q33 100 37 207q124 69 236 69q226 -1 225 -157q0 -74 -39 -134.5t-141 -138.5q-100 -72 -213 -161q27 2 79 2l66 -2q14 -3 48 -3t65.5 31t44.5 86q9 2 29 2t44 -10q-28 -133 -24 -211q-18 -39 -78 -39t-90 2l-141 2
q-188 0 -265 -4q-10 21 -10 33t4 33q156 129 258 202q101 74 146 138.5t45 152.5t-84 88z" />
    <glyph glyph-name="threesuperior" unicode="&#xb3;" horiz-adv-x="638" 
d="M686 1303q0 -138 -180 -224q80 -18 126 -72.5t46 -140.5q0 -175 -140.5 -269.5t-306.5 -94.5q-114 0 -168 45q0 18 12.5 36.5t26.5 26.5q38 -26 138 -26t183 63.5t83 188.5q0 72 -52.5 113.5t-154.5 41.5q-23 18 -14 56q233 75 233 245q0 90 -82 90q-61 0 -96 -45
t-70 -161q-8 -2 -38 -2t-56 16q32 104 37 207q101 71 225 71q123 0 185.5 -44t62.5 -121z" />
    <glyph glyph-name="acute" unicode="&#xb4;" horiz-adv-x="471" 
d="M490 1479q58 0 104 -31q-166 -156 -328 -369q-45 4 -73 29q137 215 190 358q49 13 107 13z" />
    <glyph glyph-name="uni00B5" unicode="&#xb5;" horiz-adv-x="997" 
d="M791 123q39 0 100 63q25 -23 39 -65q-52 -59 -114 -99t-116 -40q-121 0 -120 124q0 32 9 82t23 80h-2q-45 -125 -126 -206t-158 -80q-113 0 -142 120h-2q4 -111 -17 -210q-21 -100 -21 -168t3 -86q-45 -18 -104 -58t-98 -76q-27 18 -27 46t27 113t53 228l201 1047h186
l-80 -410q-20 -102 -20 -192q1 -90 27 -141t70 -51t97 58q123 136 178 427l60 309h186l-100 -508q-45 -225 -45 -259t7 -41t26 -7z" />
    <glyph glyph-name="paragraph" unicode="&#xb6;" horiz-adv-x="1136" 
d="M731 1303q-166 0 -244.5 -55.5t-103.5 -190.5q-8 -41 -8 -84q0 -123 68.5 -184.5t174.5 -61.5h37l101 576h-25zM712 -508q-22 0 -46 8l313 1796q-78 4 -119 4q-176 -903 -317 -1808q-10 -2 -43 -2t-58 16l199 1145q-27 -4 -78 -4q-182 0 -279.5 79t-97.5 226
q0 229 162 333t428 104l172 -3q161 -7 281 5q-4 -49 -19 -88q-61 -8 -89.5 -22.5t-42 -45.5t-89.5 -432t-221 -1307q-34 -4 -56 -4z" />
    <glyph glyph-name="periodcentered" unicode="&#xb7;" horiz-adv-x="378" 
d="M98 551q0 49 34 87t81 38t81 -34t21 -87q-12 -53 -41 -80q-30 -27 -74 -27t-73 28q-29 26 -29 75z" />
    <glyph glyph-name="cedilla" unicode="&#xb8;" horiz-adv-x="423" 
d="M84 -301q0 45 -30.5 69.5t-82.5 24.5q-32 25 -20 78l133 162h113l-119 -146q131 -24 131 -154t-94.5 -181.5t-212.5 -47.5q-4 10 -4 32t2 34q184 0 184 129z" />
    <glyph glyph-name="onesuperior" unicode="&#xb9;" horiz-adv-x="524" 
d="M332 1303q0 34 -20.5 51.5t-75.5 23.5q-9 33 -3 78q55 -6 203 -6t207 6q0 -37 -18 -78q-49 -10 -75 -28.5t-38 -53t-27 -106.5l-36 -193q-15 -77 -15 -109t20.5 -48.5t73.5 -24.5q13 -54 4 -84q-61 6 -198 6t-211 -6q0 53 16 84q51 6 76 22.5t39 51.5t27 108l36 193
q15 79 15 113z" />
    <glyph glyph-name="ordmasculine" unicode="&#xba;" horiz-adv-x="845" 
d="M406 966q0 -68 20 -107.5t55 -39.5q61 0 111 71.5t68 175.5t18 168t-19.5 106t-56.5 42q-63 0 -110.5 -70t-66.5 -174t-19 -172zM854 1204q0 -49 -8 -96q-31 -172 -135.5 -273.5t-230.5 -101.5t-186.5 67.5t-60.5 186.5q0 49 9 90q33 180 136 285.5t228 105.5
t186.5 -69.5t61.5 -194.5z" />
    <glyph glyph-name="guillemotright" unicode="&#xbb;" horiz-adv-x="892" 
d="M459 531q0 -19 -6 -35q-164 -137 -334 -301q-31 31 -31 77q119 119 213 236q-55 154 -131 315q31 25 76 19q92 -136 203 -267q10 -25 10 -44zM821 531q0 -19 -6 -35q-143 -117 -356 -312q-31 31 -31 78q143 137 236 246q-57 157 -152 326q31 25 76 18q98 -140 223 -277
q10 -25 10 -44z" />
    <glyph glyph-name="onequarter" unicode="&#xbc;" horiz-adv-x="1540" 
d="M565 1382q0 -10 -4 -34l-104 -535q-11 -55 -11 -86t18 -46t68 -22q12 -48 5 -88q-237 15 -414 0q0 53 14 86q49 5 73 19t36 43t24 90l68 348q12 53 12 89t-26 50q-27 14 -99 15q-2 7 -2 33t17 49q155 18 272 75q53 -20 53 -86zM1470 1382q-586 -709 -1120 -1400
q-59 26 -63 79l1114 1405q59 -31 69 -84zM950 340h236l18 102q27 143 56 228h-3q-53 -76 -149 -178t-158 -152zM1442 340q29 0 49 -21q-27 -45 -41 -155h-107l-30 -164h-191l31 162q-242 -4 -338 -8q-18 12 -31 50q-12 38 -10 64q76 82 166 172t218 219q129 130 231 261
q59 0 92 -17l-105 -563h66z" />
    <glyph glyph-name="onehalf" unicode="&#xbd;" horiz-adv-x="1744" 
d="M565 1382q0 -10 -4 -34l-104 -535q-11 -55 -11 -86t18 -46t68 -22q12 -48 5 -88q-237 15 -414 0q0 53 14 86q49 5 73 19t36 43t24 90l68 348q12 53 12 89t-26 50q-27 14 -99 15q-2 7 -2 33t17 49q155 18 272 75q53 -20 53 -86zM1470 1382q-586 -709 -1120 -1400
q-59 26 -63 79l1114 1405q59 -31 69 -84zM1207 0q-122 0 -242 -6q-28 42 -19 98q168 160 342 291q86 68 129 129q68 96 68 208t-92 111q-74 0 -114 -56t-73 -195q-61 -5 -102 16q37 113 43 235q79 49 143 69t164 20t166 -50t66 -148q0 -99 -66 -178q-66 -78 -178 -156
t-273 -212q39 4 111 4l141 -8q76 0 107 121q65 5 94 -14q-25 -111 -20 -236q-25 -49 -89 -49l-90 2q-94 4 -216 4z" />
    <glyph glyph-name="threequarters" unicode="&#xbe;" horiz-adv-x="1566" 
d="M446 1468q263 0 263 -168q-1 -90 -61 -154t-132 -89q80 -17 127 -65t47 -126q0 -159 -145 -242q-113 -65 -263 -65t-223 55q0 23 13 50q12 27 28 34q60 -41 158 -41q98 1 158 49t61 140q0 127 -182 127q-8 16 -8 38t10 48q90 14 136 58q67 64 67 164q0 99 -82 97
q-49 0 -84 -49t-68 -170q-8 -2 -42 -2t-62 17q33 116 41 223q45 31 115 51t128 20zM1497 1382q-586 -709 -1120 -1400q-57 25 -64 79l1114 1405q60 -31 70 -84zM977 340h235l19 102q27 143 55 228h-2q-54 -76 -150 -178t-157 -152zM1468 340q29 0 50 -21q-27 -45 -41 -155
h-107l-31 -164h-190l31 162q-242 -4 -338 -8q-18 12 -31 50q-12 38 -10 64q89 96 297 304q208 209 317 348q59 0 92 -17l-104 -563h65z" />
    <glyph glyph-name="questiondown" unicode="&#xbf;" horiz-adv-x="1067" 
d="M719 852q0 -49 -34 -87t-81 -38t-80 33t-22 87q12 54 41 81q29 26 73 26t74 -26q29 -26 29 -76zM610 385q0 -51 -13 -121t-59 -136q-46 -68 -118 -142t-116 -132t-44 -138q0 -156 125 -156q70 0 121 61t94 203q59 0 90 -21q-39 -131 -45 -239q-39 -35 -120 -62t-171 -26
q-133 0 -210 63q-76 63 -76 175t71 205q47 62 137 147t142 154q51 69 69 167q11 41 11 85t-2 54q29 16 67 17q19 -15 33 -61t14 -97z" />
    <glyph glyph-name="Agrave" unicode="&#xc0;" horiz-adv-x="1406" 
d="M879 543q-48 194 -89 335t-59 252q-122 -249 -315 -587h463zM1058 0q-156 0 -237 -6q0 53 17 88q70 8 98 26t27 56q0 37 -13 86l-47 199q-328 0 -547 -9l-86 -147q-61 -105 -61 -141q-1 -36 21 -49t71 -21q8 -43 6 -88q-67 6 -185 6t-177 -6q0 53 16 88q55 16 95 60
t112 167q272 465 612 1075q29 12 80 13q158 -549 295 -1127q32 -134 70 -164q18 -14 51 -24q10 -37 6 -88q-68 6 -224 6zM845 1540q-24 0 -40 8q-102 203 -211 340q107 35 192 4q30 -182 91 -348q-8 -4 -32 -4z" />
    <glyph glyph-name="Aacute" unicode="&#xc1;" horiz-adv-x="1406" 
d="M879 543q-48 194 -89 335t-59 252q-122 -249 -315 -587h463zM1058 0q-156 0 -237 -6q0 53 17 88q70 8 98 26t27 56q0 37 -13 86l-47 199q-328 0 -547 -9l-86 -147q-61 -105 -61 -141q-1 -36 21 -49t71 -21q8 -43 6 -88q-67 6 -185 6t-177 -6q0 53 16 88q55 16 95 60
t112 167q272 465 612 1075q29 12 80 13q158 -549 295 -1127q32 -134 70 -164q18 -14 51 -24q10 -37 6 -88q-68 6 -224 6zM1062 1925q58 0 103 -31q-166 -156 -327 -368q-45 4 -74 28q137 215 190 359q50 12 108 12z" />
    <glyph glyph-name="Acircumflex" unicode="&#xc2;" horiz-adv-x="1406" 
d="M879 543q-48 194 -89 335t-59 252q-122 -249 -315 -587h463zM1058 0q-156 0 -237 -6q0 53 17 88q70 8 98 26t27 56q0 37 -13 86l-47 199q-328 0 -547 -9l-86 -147q-61 -105 -61 -141q-1 -36 21 -49t71 -21q8 -43 6 -88q-67 6 -185 6t-177 -6q0 53 16 88q55 16 95 60
t112 167q272 465 612 1075q29 12 80 13q158 -549 295 -1127q32 -134 70 -164q18 -14 51 -24q10 -37 6 -88q-68 6 -224 6zM911 1892q31 0 60 -16q80 -129 205 -281q-13 -43 -62 -59q-109 92 -242 166q-150 -76 -280 -170q-20 30 -20 58t1 34q164 117 320 266z" />
    <glyph glyph-name="Atilde" unicode="&#xc3;" horiz-adv-x="1406" 
d="M879 543q-48 194 -89 335t-59 252q-122 -249 -315 -587h463zM1058 0q-156 0 -237 -6q0 53 17 88q70 8 98 26t27 56q0 37 -13 86l-47 199q-328 0 -547 -9l-86 -147q-61 -105 -61 -141q-1 -36 21 -49t71 -21q8 -43 6 -88q-67 6 -185 6t-177 -6q0 53 16 88q55 16 95 60
t112 167q272 465 612 1075q29 12 80 13q158 -549 295 -1127q32 -134 70 -164q18 -14 51 -24q10 -37 6 -88q-68 6 -224 6zM1008 1645q76 0 149 73q25 -10 37 -41q-112 -178 -221 -178q-57 0 -131 45q-84 43 -127 43q-93 0 -185 -78q-25 16 -20 50q135 172 250 172
q58 -2 135 -44q78 -42 113 -42z" />
    <glyph glyph-name="Adieresis" unicode="&#xc4;" horiz-adv-x="1406" 
d="M879 543q-48 194 -89 335t-59 252q-122 -249 -315 -587h463zM1058 0q-156 0 -237 -6q0 53 17 88q70 8 98 26t27 56q0 37 -13 86l-47 199q-328 0 -547 -9l-86 -147q-61 -105 -61 -141q-1 -36 21 -49t71 -21q8 -43 6 -88q-67 6 -185 6t-177 -6q0 53 16 88q55 16 95 60
t112 167q272 465 612 1075q29 12 80 13q158 -549 295 -1127q32 -134 70 -164q18 -14 51 -24q10 -37 6 -88q-68 6 -224 6zM1022 1538q-45 0 -70 26q-24 26 -24 76t31 83q31 34 81 34q50 1 76 -23t25 -78q0 -54 -37 -86t-82 -32zM722 1757q50 -1 75 -25t25 -50
q-2 -81 -40 -113q-37 -33 -80 -33q-44 0 -68 26t-24 78t31 84q31 33 81 33z" />
    <glyph glyph-name="Aring" unicode="&#xc5;" horiz-adv-x="1406" 
d="M879 543q-48 194 -89 335t-59 252q-122 -249 -315 -587h463zM1058 0q-156 0 -237 -6q0 53 17 88q70 8 98 26t27 56q0 37 -13 86l-47 199q-328 0 -547 -9l-86 -147q-61 -105 -61 -141q-1 -36 21 -49t71 -21q8 -43 6 -88q-67 6 -185 6t-177 -6q0 53 16 88q55 16 95 60
t112 167q272 465 612 1075q29 12 80 13q158 -549 295 -1127q32 -134 70 -164q18 -14 51 -24q10 -37 6 -88q-68 6 -224 6zM874 1599q103 0 103 142q0 28 -22 57q-23 29 -65 29t-73 -41t-31 -89t24 -73t64 -25zM1092 1718q0 -80 -60 -138q-60 -56 -160 -56q-98 0 -147 45
t-49 127t61 141t162 59t147 -49t46 -129z" />
    <glyph glyph-name="AE" unicode="&#xc6;" horiz-adv-x="1753" 
d="M967 1053q12 72 47 211q-100 -162 -389 -566h280zM1174 610h-95l-53 -317q-10 -65 -10 -113t33.5 -68t126.5 -20h8q216 0 280 81t113 179q59 -10 92 -45q-76 -145 -110 -313q-121 6 -435 6t-477 -6q0 47 15 88q63 8 94.5 26.5t47 58.5t30.5 126l55 317q-180 0 -334 -6
l-258 -354q-55 -74 -55 -113t59 -55q8 -43 6 -88q-67 6 -185 6t-177 -6q0 53 16 88q59 18 106.5 56t129.5 143q289 377 612 821q51 70 51 119q0 70 -117 82q-4 16 -4 45t2 43q164 -6 342 -7h129q328 0 539 7q-16 -125 -16 -219t2 -115q-39 -16 -103 -15q-4 100 -22.5 150.5
t-78.5 75t-190 24.5h-147l-100 -594h86q129 0 185 36t73 134q31 6 48 6t50 -4q-52 -208 -68 -462q-63 6 -94 26l2 35q0 82 -44 111.5t-160 29.5z" />
    <glyph glyph-name="Ccedilla" unicode="&#xc7;" horiz-adv-x="1280" 
d="M645 -301q0 45 -30.5 69.5t-82.5 24.5q-32 25 -20 78l96 115q-236 29 -363.5 185.5t-127.5 389.5q0 37 8 111q31 244 153.5 408.5t294.5 243.5t328 79t256 -28.5t207 -92.5q-43 -117 -68 -309q-31 -10 -58.5 -10t-51.5 6q8 78 8 106q0 139 -62.5 191.5t-210 52.5
t-276.5 -84q-129 -85 -206 -229q-103 -193 -103 -411t105.5 -353.5t316.5 -135.5t405 119q29 -29 33 -78q-221 -160 -479 -165l-78 -95q131 -25 131 -154.5t-106 -187.5q-82 -45 -201 -41q-4 10 -4 32.5t2 33.5q184 0 184 129z" />
    <glyph glyph-name="Egrave" unicode="&#xc8;" 
d="M426 180q0 -48 34 -68t126 -20h39q216 0 303 110q41 52 90 150q59 -10 92 -45q-76 -145 -111 -313q-121 6 -451 6t-489 -6q0 47 15 88q63 8 94 26t46 59q15 40 30 126l141 813q8 43 8 92t-28 73q-29 24 -101 32q-4 33 -4 55t2 33q437 -16 930 0q-16 -125 -16 -219t2 -115
q-39 -16 -103 -15q-4 100 -22 150q-19 50 -79 76q-60 25 -190 24h-178l-92 -547h115q129 0 185 35t73 133q49 9 98 2q-54 -214 -67 -462q-63 6 -95 26l2 35q0 80 -44 110t-160 29h-123l-62 -360q-10 -65 -10 -113zM773 1540q-24 0 -40 8q-102 203 -211 340q108 35 193 4
q29 -182 90 -348q-8 -4 -32 -4z" />
    <glyph glyph-name="Eacute" unicode="&#xc9;" 
d="M426 180q0 -48 34 -68t126 -20h39q216 0 303 110q41 52 90 150q59 -10 92 -45q-76 -145 -111 -313q-121 6 -451 6t-489 -6q0 47 15 88q63 8 94 26t46 59q15 40 30 126l141 813q8 43 8 92t-28 73q-29 24 -101 32q-4 33 -4 55t2 33q437 -16 930 0q-16 -125 -16 -219t2 -115
q-39 -16 -103 -15q-4 100 -22 150q-19 50 -79 76q-60 25 -190 24h-178l-92 -547h115q129 0 185 35t73 133q49 9 98 2q-54 -214 -67 -462q-63 6 -95 26l2 35q0 80 -44 110t-160 29h-123l-62 -360q-10 -65 -10 -113zM990 1925q58 0 104 -31q-166 -156 -328 -368q-45 4 -74 28
q137 215 191 359q49 12 107 12z" />
    <glyph glyph-name="Ecircumflex" unicode="&#xca;" 
d="M426 180q0 -48 34 -68t126 -20h39q216 0 303 110q41 52 90 150q59 -10 92 -45q-76 -145 -111 -313q-121 6 -451 6t-489 -6q0 47 15 88q63 8 94 26t46 59q15 40 30 126l141 813q8 43 8 92t-28 73q-29 24 -101 32q-4 33 -4 55t2 33q437 -16 930 0q-16 -125 -16 -219t2 -115
q-39 -16 -103 -15q-4 100 -22 150q-19 50 -79 76q-60 25 -190 24h-178l-92 -547h115q129 0 185 35t73 133q49 9 98 2q-54 -214 -67 -462q-63 6 -95 26l2 35q0 80 -44 110t-160 29h-123l-62 -360q-10 -65 -10 -113zM500 1590q0 28 2 34q164 117 319 266l19 2q31 0 59 -16
q80 -129 205 -281q-13 -43 -62 -59q-109 92 -241 166q-150 -76 -281 -170q-20 30 -20 58z" />
    <glyph glyph-name="Edieresis" unicode="&#xcb;" 
d="M426 180q0 -48 34 -68t126 -20h39q216 0 303 110q41 52 90 150q59 -10 92 -45q-76 -145 -111 -313q-121 6 -451 6t-489 -6q0 47 15 88q63 8 94 26t46 59q15 40 30 126l141 813q8 43 8 92t-28 73q-29 24 -101 32q-4 33 -4 55t2 33q437 -16 930 0q-16 -125 -16 -219t2 -115
q-39 -16 -103 -15q-4 100 -22 150q-19 50 -79 76q-60 25 -190 24h-178l-92 -547h115q129 0 185 35t73 133q49 9 98 2q-54 -214 -67 -462q-63 6 -95 26l2 35q0 80 -44 110t-160 29h-123l-62 -360q-10 -65 -10 -113zM950 1538q-94 0 -94 102q0 50 32 83q32 34 81 34
q49 1 75 -23t25 -78q0 -54 -37 -86t-82 -32zM650 1757q50 -1 75 -25t25 -50q0 -79 -47 -119q-31 -27 -73 -27t-67 26t-25 78t31 84q31 33 81 33z" />
    <glyph glyph-name="Igrave" unicode="&#xcc;" horiz-adv-x="731" 
d="M395 1194q0 55 -29 77q-30 22 -102 32q-4 33 -4 55t2 33q259 -14 496 0q-4 -55 -19 -88q-55 -9 -84 -25q-53 -28 -75 -154l-150 -864q-8 -41 -8 -85t28 -64t101 -29q6 -26 6 -52t-2 -36q-123 6 -257 6t-239 -6q0 51 17 88q57 6 87 21t46 51t29 106l149 864q8 54 8 70z
M532 1540q-24 0 -40 8q-98 196 -211 340q107 35 192 4q29 -182 90 -348q-7 -4 -31 -4z" />
    <glyph glyph-name="Iacute" unicode="&#xcd;" horiz-adv-x="731" 
d="M395 1194q0 55 -29 77q-30 22 -102 32q-4 33 -4 55t2 33q259 -14 496 0q-4 -55 -19 -88q-55 -9 -84 -25q-53 -28 -75 -154l-150 -864q-8 -41 -8 -85t28 -64t101 -29q6 -26 6 -52t-2 -36q-123 6 -257 6t-239 -6q0 51 17 88q57 6 87 21t46 51t29 106l149 864q8 54 8 70z
M748 1925q58 0 104 -31q-166 -156 -328 -368q-45 4 -73 28q137 215 190 359q49 12 107 12z" />
    <glyph glyph-name="Icircumflex" unicode="&#xce;" horiz-adv-x="731" 
d="M395 1194q0 55 -29 77q-30 22 -102 32q-4 33 -4 55t2 33q259 -14 496 0q-4 -55 -19 -88q-55 -9 -84 -25q-53 -28 -75 -154l-150 -864q-8 -41 -8 -85t28 -64t101 -29q6 -26 6 -52t-2 -36q-123 6 -257 6t-239 -6q0 51 17 88q57 6 87 21t46 51t29 106l149 864q8 54 8 70z
M598 1892q31 0 59 -16q80 -129 205 -281q-13 -43 -61 -59q-109 92 -242 166q-150 -76 -280 -170q-21 30 -21 58t2 34q164 117 320 266z" />
    <glyph glyph-name="Idieresis" unicode="&#xcf;" horiz-adv-x="731" 
d="M395 1194q0 55 -29 77q-30 22 -102 32q-4 33 -4 55t2 33q259 -14 496 0q-4 -55 -19 -88q-55 -9 -84 -25q-53 -28 -75 -154l-150 -864q-8 -41 -8 -85t28 -64t101 -29q6 -26 6 -52t-2 -36q-123 6 -257 6t-239 -6q0 51 17 88q57 6 87 21t46 51t29 106l149 864q8 54 8 70z
M708 1538q-44 0 -69 26t-25 76t32 83q32 34 81 34q49 1 75 -23t26 -78t-38 -86t-82 -32zM409 1757q51 -1 75 -25t24 -50q0 -80 -46 -119q-30 -27 -73 -27t-67 26t-25 78q0 52 31 84q31 33 81 33z" />
    <glyph glyph-name="Eth" unicode="&#xd0;" horiz-adv-x="1505" 
d="M1268 840q0 246 -142.5 354.5t-373.5 108.5q-70 0 -146 -17l-98 -571h135q4 -47 -14 -86h-135l-62 -357q-10 -61 -10 -102t32.5 -59.5t125.5 -18.5q264 0 438 133t229 420q21 103 21 195zM1479 852q0 -86 -19 -190q-61 -330 -293.5 -496t-595.5 -166h-6q-354 0 -514 -6
q4 51 17 88q63 8 95 26.5t48 59.5t31 125l59 334q-63 0 -137 -4q2 55 22 92h129l74 420q6 37 6 79t-28.5 62t-100.5 29q-6 25 -6 51t2 35q249 -11 416 -2l125 2q291 0 483.5 -120t192.5 -419z" />
    <glyph glyph-name="Ntilde" unicode="&#xd1;" horiz-adv-x="1382" 
d="M336 212q0 -58 29 -88t98 -42q6 -26 6 -50t-2 -38q-83 6 -205 6t-213 -6q2 49 14 88q78 10 116 68t65 202l151 865l-10 18q-20 39 -44 51t-75 17q-6 25 -6 51t2 37q151 -15 264 0q258 -459 555 -1055l121 686q16 94 16 152t-28 88q-29 29 -98 41q-8 65 -2 88
q58 -6 194 -6t191 6q0 -45 -17 -88q-47 -12 -74 -41q-48 -51 -81 -261l-175 -1009q-29 -10 -84 -10q-272 547 -569 1089l-123 -698q-16 -102 -16 -161zM768 1587q-94 0 -184 -78q-25 16 -21 50q135 172 250 172q60 -2 141 -48q74 -38 107 -38q76 0 149 73q25 -10 37 -41
q-112 -178 -221 -178q-55 0 -131 45q-84 43 -127 43z" />
    <glyph glyph-name="Ograve" unicode="&#xd2;" horiz-adv-x="1517" 
d="M749 72q197 0 329 147q190 211 192 594q0 127 -52 247t-148 186t-215 67q-120 0 -224 -71q-104 -70 -176 -192q-119 -201 -119 -445t108 -389q109 -144 305 -144zM1483 809q0 -303 -158 -519q-104 -142 -264 -225t-342 -83t-316 73q-133 74 -206 211q-74 137 -74 318
q0 294 159 507q108 144 268 228t337 84q178 0 311 -69q133 -68 209 -202t76 -323zM908 1540q-24 0 -40 8q-102 203 -211 340q108 35 193 4q29 -182 90 -348q-8 -4 -32 -4z" />
    <glyph glyph-name="Oacute" unicode="&#xd3;" horiz-adv-x="1517" 
d="M749 72q197 0 329 147q190 211 192 594q0 127 -52 247t-148 186t-215 67q-120 0 -224 -71q-104 -70 -176 -192q-119 -201 -119 -445t108 -389q109 -144 305 -144zM1483 809q0 -303 -158 -519q-104 -142 -264 -225t-342 -83t-316 73q-133 74 -206 211q-74 137 -74 318
q0 294 159 507q108 144 268 228t337 84q178 0 311 -69q133 -68 209 -202t76 -323zM1124 1925q58 0 105 -31q-166 -156 -328 -368q-45 4 -74 28q137 215 191 359q48 12 106 12z" />
    <glyph glyph-name="Ocircumflex" unicode="&#xd4;" horiz-adv-x="1517" 
d="M749 72q197 0 329 147q190 211 192 594q0 127 -52 247t-148 186t-215 67q-120 0 -224 -71q-104 -70 -176 -192q-119 -201 -119 -445t108 -389q109 -144 305 -144zM1483 809q0 -303 -158 -519q-104 -142 -264 -225t-342 -83t-316 73q-133 74 -206 211q-74 137 -74 318
q0 294 159 507q108 144 268 228t337 84q178 0 311 -69q133 -68 209 -202t76 -323zM635 1590q0 28 2 34q164 117 319 266l19 2q31 0 59 -16q80 -129 205 -281q-13 -42 -61 -59q-109 92 -242 166q-150 -76 -281 -170q-20 30 -20 58z" />
    <glyph glyph-name="Otilde" unicode="&#xd5;" horiz-adv-x="1517" 
d="M749 72q197 0 329 147q190 211 192 594q0 127 -52 247t-148 186t-215 67q-120 0 -224 -71q-104 -70 -176 -192q-119 -201 -119 -445t108 -389q109 -144 305 -144zM1483 809q0 -303 -158 -519q-104 -142 -264 -225t-342 -83t-316 73q-133 74 -206 211q-74 137 -74 318
q0 294 159 507q108 144 268 228t337 84q178 0 311 -69q133 -68 209 -202t76 -323zM778 1587q-94 0 -184 -78q-25 16 -21 50q135 172 250 172q59 -2 136 -44q78 -42 112 -42q76 0 150 73q25 -10 36 -41q-112 -178 -221 -178q-55 0 -131 45q-84 43 -127 43z" />
    <glyph glyph-name="Odieresis" unicode="&#xd6;" horiz-adv-x="1517" 
d="M749 72q197 0 329 147q190 211 192 594q0 127 -52 247t-148 186t-215 67q-120 0 -224 -71q-104 -70 -176 -192q-119 -201 -119 -445t108 -389q109 -144 305 -144zM1483 809q0 -303 -158 -519q-104 -142 -264 -225t-342 -83t-316 73q-133 74 -206 211q-74 137 -74 318
q0 294 159 507q108 144 268 228t337 84q178 0 311 -69q133 -68 209 -202t76 -323zM1085 1538q-94 0 -94 102q0 50 32 83q32 34 81 34q49 1 75 -23q25 -24 25 -78t-37 -86t-82 -32zM786 1757q50 -1 74 -25t25 -50q0 -80 -46 -119q-30 -27 -73 -27t-68 26q-24 26 -24 78t31 84
q31 33 81 33z" />
    <glyph glyph-name="multiply" unicode="&#xd7;" horiz-adv-x="1212" 
d="M989 -12q-16 0 -24 2q-178 209 -363 418q-250 -219 -479 -433q-69 8 -105 54l514 456q-262 295 -397 443q39 35 105 35l366 -412l488 434q56 -14 88 -67q-252 -216 -506 -445l401 -450q-33 -35 -88 -35z" />
    <glyph glyph-name="Oslash" unicode="&#xd8;" horiz-adv-x="1517" 
d="M1272 784q0 160 -60 289q-418 -442 -778 -842q111 -159 311 -159t332.5 147.5t175.5 382.5q19 94 19 182zM336 592q0 -156 49 -273l776 840q-114 154 -307 154q-119 0 -223.5 -71t-199.5 -232.5t-95 -417.5zM1483 809q0 -303 -131 -482.5t-291.5 -262t-370.5 -82.5
t-366 127l-113 -127q-75 0 -92 49l137 147q-133 162 -133 408q0 291 133 470t293.5 263t366.5 84t360 -119l108 119q65 0 101 -43l-137 -143q135 -154 135 -408z" />
    <glyph glyph-name="Ugrave" unicode="&#xd9;" horiz-adv-x="1300" 
d="M381 389q0 -299 286 -299q140 0 240 108t135 306l97 549q12 69 12 119t-27 79t-96 52q-4 16 -4 45t2 43q211 -15 408 0q0 -45 -19 -88q-61 -19 -92 -45t-48 -74t-36 -152l-90 -510q-49 -276 -179 -408t-350 -132t-325 101q-106 101 -107 290q0 78 15 151l104 611
q8 43 8 83t-20 58q-20 20 -72 27q-4 14 -4 44t2 44q97 -7 235 -7t238 7q-4 -53 -18 -88q-66 -5 -98 -21t-50 -53t-32 -115l-101 -582q-14 -74 -14 -143zM882 1540q-24 0 -40 8q-98 196 -211 340q107 35 192 4q29 -182 90 -348q-7 -4 -31 -4z" />
    <glyph glyph-name="Uacute" unicode="&#xda;" horiz-adv-x="1300" 
d="M381 389q0 -299 286 -299q140 0 240 108t135 306l97 549q12 69 12 119t-27 79t-96 52q-4 16 -4 45t2 43q211 -15 408 0q0 -45 -19 -88q-61 -19 -92 -45t-48 -74t-36 -152l-90 -510q-49 -276 -179 -408t-350 -132t-325 101q-106 101 -107 290q0 78 15 151l104 611
q8 43 8 83t-20 58q-20 20 -72 27q-4 14 -4 44t2 44q97 -7 235 -7t238 7q-4 -53 -18 -88q-66 -5 -98 -21t-50 -53t-32 -115l-101 -582q-14 -74 -14 -143zM1098 1925q58 0 104 -31q-166 -156 -328 -368q-45 4 -73 28q137 215 190 359q49 12 107 12z" />
    <glyph glyph-name="Ucircumflex" unicode="&#xdb;" horiz-adv-x="1300" 
d="M381 389q0 -299 286 -299q140 0 240 108t135 306l97 549q12 69 12 119t-27 79t-96 52q-4 16 -4 45t2 43q211 -15 408 0q0 -45 -19 -88q-61 -19 -92 -45t-48 -74t-36 -152l-90 -510q-49 -276 -179 -408t-350 -132t-325 101q-106 101 -107 290q0 78 15 151l104 611
q8 43 8 83t-20 58q-20 20 -72 27q-4 14 -4 44t2 44q97 -7 235 -7t238 7q-4 -53 -18 -88q-66 -5 -98 -21t-50 -53t-32 -115l-101 -582q-14 -74 -14 -143zM948 1892q31 0 60 -16q80 -129 204 -281q-13 -43 -61 -59q-109 92 -242 166q-150 -76 -280 -170q-21 30 -21 58t2 34
q164 117 320 266z" />
    <glyph glyph-name="Udieresis" unicode="&#xdc;" horiz-adv-x="1300" 
d="M381 389q0 -299 286 -299q140 0 240 108t135 306l97 549q12 69 12 119t-27 79t-96 52q-4 16 -4 45t2 43q211 -15 408 0q0 -45 -19 -88q-61 -19 -92 -45t-48 -74t-36 -152l-90 -510q-49 -276 -179 -408t-350 -132t-325 101q-106 101 -107 290q0 78 15 151l104 611
q8 43 8 83t-20 58q-20 20 -72 27q-4 14 -4 44t2 44q97 -7 235 -7t238 7q-4 -53 -18 -88q-66 -5 -98 -21t-50 -53t-32 -115l-101 -582q-14 -74 -14 -143zM1059 1538q-45 0 -70 26t-25 76t32 83q32 34 81 34q49 1 75 -23t26 -78t-37 -86t-82 -32zM759 1757q50 -1 75 -25
q24 -24 24 -50q-2 -81 -39 -113q-37 -33 -80 -33t-67 26t-25 78q0 52 31 84q31 33 81 33z" />
    <glyph glyph-name="Yacute" unicode="&#xdd;" 
d="M690 182q0 -45 30 -65t116 -35q6 -25 6 -50t-2 -38q-86 6 -272 6t-259 -6q0 51 15 90q70 12 104 28t52 52q17 35 30 106l49 279q-86 279 -160 459t-94 218q-19 38 -39 52t-53 27q-4 16 -4 44t2 42q75 -7 229 -7t256 7q0 -39 -18 -91q-76 -10 -108 -29q-54 -32 -13 -132
q90 -231 158 -486q152 209 284 434q57 97 57 135t-22 54q-23 16 -73 27q-10 40 -3 88q68 -6 190 -6t189 6q0 -45 -18 -88q-45 -17 -81 -51t-158 -228t-328 -473l-54 -301q-8 -53 -8 -68zM1066 1925q58 0 103 -31q-166 -156 -327 -368q-45 4 -74 28q137 215 190 359
q50 12 108 12z" />
    <glyph glyph-name="Thorn" unicode="&#xde;" horiz-adv-x="1161" 
d="M606 387q133 0 232.5 71.5t130.5 243.5q6 41 6 78q0 117 -72 182.5t-221 65.5q-61 0 -121 -14l-131 -754q-8 -41 -8 -85t27.5 -64.5t101.5 -28.5q6 -26 6 -52t-2 -36q-123 6 -257 6t-239 -6q0 51 17 88q57 6 87 21.5t46 50t29 106.5l149 864q8 53 8 70q0 55 -29.5 76.5
t-101.5 32.5q-4 33 -4 55t2 33q259 -14 496 0q-4 -55 -19 -88q-55 -10 -96 -32.5t-63 -146.5l-5 -20l216 2q190 0 284 -88t94 -234t-123.5 -310.5t-408.5 -164.5q-94 0 -139 31q-4 20 -4 36t6 30q36 -19 106 -19z" />
    <glyph glyph-name="germandbls" unicode="&#xdf;" horiz-adv-x="1095" 
d="M694 70q133 0 133 154q0 63 -125 184q-78 80 -116.5 138t-37.5 145t46 133t118 95t126 107t53 150t-47.5 143t-137.5 51t-146 -104.5t-96 -312.5t-110 -634l-8 -57q-55 -350 -175 -560t-286 -210q-90 0 -178 74q-2 63 14 123q121 -33 230 -33q53 0 84 34t54.5 130
t53.5 301l35 246q33 256 64 458q-70 12 -148 13q0 47 23 80h139l2 8q41 244 164 390t352 146q137 0 196.5 -59.5t59.5 -149.5q0 -35 -6 -65q-23 -107 -77.5 -172.5t-122.5 -120.5t-90.5 -79t-26.5 -42q-5 -18 -5 -51q-1 -57 113 -162q78 -76 118 -135t38 -150q0 -29 -6 -59
q-20 -115 -101.5 -173t-211.5 -58t-232 75q31 113 35 224q47 23 98 18q-8 -233 141 -233z" />
    <glyph glyph-name="agrave" unicode="&#xe0;" horiz-adv-x="966" 
d="M225 309q0 -162 84 -162q39 0 104 69t128 192t100 280l35 143q-53 20 -125 21q-233 0 -301 -344q-25 -117 -25 -199zM748 123q44 0 114 61q23 -24 37 -63q-125 -139 -237 -139q-68 0 -99 43t-31 107t25 130t59 139h-6q-61 -167 -177 -293t-238 -126q-166 0 -166 235
q1 79 27 217t106 260t194 193q114 70 246 69q59 0 115 -18q74 0 117 18q26 -12 26 -56t-22 -140l-103 -459q-23 -109 -23 -135t9 -35q8 -8 27 -8zM605 1094q-24 0 -40 8q-102 203 -211 340q56 18 104 18t89 -14q29 -182 90 -348q-8 -4 -32 -4z" />
    <glyph glyph-name="aacute" unicode="&#xe1;" horiz-adv-x="966" 
d="M225 309q0 -162 84 -162q39 0 104 69t128 192t100 280l35 143q-53 20 -125 21q-233 0 -301 -344q-25 -117 -25 -199zM748 123q44 0 114 61q23 -24 37 -63q-125 -139 -237 -139q-68 0 -99 43t-31 107t25 130t59 139h-6q-61 -167 -177 -293t-238 -126q-166 0 -166 235
q1 79 27 217t106 260t194 193q114 70 246 69q59 0 115 -18q74 0 117 18q26 -12 26 -56t-22 -140l-103 -459q-23 -109 -23 -135t9 -35q8 -8 27 -8zM822 1479q58 0 104 -31q-166 -156 -328 -369q-45 4 -74 29q137 215 191 358q49 13 107 13z" />
    <glyph glyph-name="acircumflex" unicode="&#xe2;" horiz-adv-x="966" 
d="M225 309q0 -162 84 -162q39 0 104 69t128 192t100 280l35 143q-53 20 -125 21q-233 0 -301 -344q-25 -117 -25 -199zM748 123q44 0 114 61q23 -24 37 -63q-125 -139 -237 -139q-68 0 -99 43t-31 107t25 130t59 139h-6q-61 -167 -177 -293t-238 -126q-166 0 -166 235
q1 79 27 217t106 260t194 193q114 70 246 69q59 0 115 -18q74 0 117 18q26 -12 26 -56t-22 -140l-103 -459q-23 -109 -23 -135t9 -35q8 -8 27 -8zM332 1144q0 28 2 34q164 117 319 266l19 2q31 0 59 -16q80 -129 205 -281q-14 -45 -62 -59q-109 92 -241 165
q-150 -76 -281 -170q-20 31 -20 59z" />
    <glyph glyph-name="atilde" unicode="&#xe3;" horiz-adv-x="966" 
d="M225 309q0 -162 84 -162q39 0 104 69t128 192t100 280l35 143q-53 20 -125 21q-233 0 -301 -344q-25 -117 -25 -199zM748 123q44 0 114 61q23 -24 37 -63q-125 -139 -237 -139q-68 0 -99 43t-31 107t25 130t59 139h-6q-61 -167 -177 -293t-238 -126q-166 0 -166 235
q1 79 27 217t106 260t194 193q114 70 246 69q59 0 115 -18q74 0 117 18q26 -12 26 -56t-22 -140l-103 -459q-23 -109 -23 -135t9 -35q8 -8 27 -8zM520 1284q57 0 138 -43q80 -43 110 -43q76 0 150 74q25 -10 36 -41q-112 -178 -221 -178q-55 0 -131 45q-81 41 -127 43
q-91 0 -184 -78q-25 16 -21 49q135 172 250 172z" />
    <glyph glyph-name="adieresis" unicode="&#xe4;" horiz-adv-x="966" 
d="M225 309q0 -162 84 -162q39 0 104 69t128 192t100 280l35 143q-53 20 -125 21q-233 0 -301 -344q-25 -117 -25 -199zM748 123q44 0 114 61q23 -24 37 -63q-125 -139 -237 -139q-68 0 -99 43t-31 107t25 130t59 139h-6q-61 -167 -177 -293t-238 -126q-166 0 -166 235
q1 79 27 217t106 260t194 193q114 70 246 69q59 0 115 -18q74 0 117 18q26 -12 26 -56t-22 -140l-103 -459q-23 -109 -23 -135t9 -35q8 -8 27 -8zM688 1193q0 50 32 84t81 34t75 -24t26 -78t-38 -86q-37 -31 -82 -31q-46 0 -70 26t-24 75zM482 1311q50 0 75 -25t25 -50
t-8 -59t-38 -61q-30 -26 -73 -26t-68 26t-25 77q0 52 31 85t81 33z" />
    <glyph glyph-name="aring" unicode="&#xe5;" horiz-adv-x="966" 
d="M225 309q0 -162 84 -162q39 0 104 69t128 192t100 280l35 143q-53 20 -125 21q-233 0 -301 -344q-25 -117 -25 -199zM748 123q44 0 114 61q23 -24 37 -63q-125 -139 -237 -139q-68 0 -99 43t-31 107t25 130t59 139h-6q-61 -167 -177 -293t-238 -126q-166 0 -166 235
q1 79 27 217t106 260t194 193q114 70 246 69q59 0 115 -18q74 0 117 18q26 -12 26 -56t-22 -140l-103 -459q-23 -109 -23 -135t9 -35q8 -8 27 -8zM635 1153q102 -1 102 141q0 28 -21 58q-22 28 -64 28t-74 -41q-31 -41 -31 -89q-1 -48 23 -72t65 -25zM852 1271
q0 -81 -60 -137t-158 -56t-149 44q-49 45 -49 127q0 81 62 141t162 60t146 -49t46 -130z" />
    <glyph glyph-name="ae" unicode="&#xe6;" horiz-adv-x="1177" 
d="M989 731q0 57 -24.5 86t-61.5 29q-63 0 -120 -76t-81 -190t-24 -182q0 -70 6 -113q305 209 305 446zM492 295q0 70 18 158q49 233 184 372q-61 27 -127 27q-135 0 -208.5 -85t-114.5 -259q-27 -109 -27 -191q0 -176 135 -176q68 0 148 43q-8 41 -8 111zM709 -18
q-125 0 -179 104q-156 -104 -273 -104q-228 0 -228 256q-1 74 31 213t116 261t193 183t219 61t203 -53q90 53 182 53t139 -51t47 -129q0 -23 -8 -67q-29 -123 -148.5 -258.5t-291.5 -251.5q57 -109 159.5 -57.5t145.5 102.5q31 -23 43 -60q-70 -86 -162 -144t-188 -58z" />
    <glyph glyph-name="ccedilla" unicode="&#xe7;" horiz-adv-x="745" 
d="M295 -301q0 45 -31 69.5t-82 24.5q-32 25 -20 78l92 113q-111 8 -161 90t-50 196.5t25 214.5q49 215 167.5 343t303.5 128q129 0 192 -43q-41 -106 -47 -227q-33 -16 -88 -16q2 16 2 47q0 139 -109 139q-182 0 -241 -344q-16 -106 -17 -164q0 -225 152 -225
q115 0 223 119q27 -18 43 -58q-121 -154 -274 -190l-86 -107q131 -25 131 -154.5t-106 -187.5q-82 -45 -201 -41q-4 10 -4 32.5t2 33.5q184 0 184 129z" />
    <glyph glyph-name="egrave" unicode="&#xe8;" horiz-adv-x="747" 
d="M555 762q0 30 -24 60t-64 30q-70 0 -131 -93t-90 -267q119 12 203 65q106 67 106 205zM41 260q0 279 124 470q73 114 166 170t191 56t149 -52q52 -52 52 -138t-79 -167q-80 -81 -194 -129t-214 -54q-4 -45 -5 -70q0 -217 148 -217q113 0 207 115q31 -23 43 -60
q-154 -202 -359 -202q-121 0 -175 83t-54 195zM517 1094q-24 0 -40 8q-102 203 -211 340q56 18 104 18t89 -14q29 -182 90 -348q-8 -4 -32 -4z" />
    <glyph glyph-name="eacute" unicode="&#xe9;" horiz-adv-x="747" 
d="M555 762q0 30 -24 60t-64 30q-70 0 -131 -93t-90 -267q119 12 203 65q106 67 106 205zM41 260q0 279 124 470q73 114 166 170t191 56t149 -52q52 -52 52 -138t-79 -167q-80 -81 -194 -129t-214 -54q-4 -45 -5 -70q0 -217 148 -217q113 0 207 115q31 -23 43 -60
q-154 -202 -359 -202q-121 0 -175 83t-54 195zM734 1479q58 0 104 -31q-166 -156 -328 -369q-45 4 -74 29q137 215 191 358q49 13 107 13z" />
    <glyph glyph-name="ecircumflex" unicode="&#xea;" horiz-adv-x="747" 
d="M555 762q0 30 -24 60t-64 30q-70 0 -131 -93t-90 -267q119 12 203 65q106 67 106 205zM41 260q0 279 124 470q73 114 166 170t191 56t149 -52q52 -52 52 -138t-79 -167q-80 -81 -194 -129t-214 -54q-4 -45 -5 -70q0 -217 148 -217q113 0 207 115q31 -23 43 -60
q-154 -202 -359 -202q-121 0 -175 83t-54 195zM244 1144q0 28 2 34q164 117 319 266l19 2q31 0 59 -16q80 -129 205 -281q-14 -45 -62 -59q-109 92 -241 165q-150 -76 -281 -170q-20 31 -20 59z" />
    <glyph glyph-name="edieresis" unicode="&#xeb;" horiz-adv-x="747" 
d="M555 762q0 30 -24 60t-64 30q-70 0 -131 -93t-90 -267q119 12 203 65q106 67 106 205zM41 260q0 279 124 470q73 114 166 170t191 56t149 -52q52 -52 52 -138t-79 -167q-80 -81 -194 -129t-214 -54q-4 -45 -5 -70q0 -217 148 -217q113 0 207 115q31 -23 43 -60
q-154 -202 -359 -202q-121 0 -175 83t-54 195zM600 1193q0 50 32 84t81 34t75 -24t25 -47q0 -23 -6 -59t-37 -63q-31 -26 -76 -26q-46 0 -70 26t-24 75zM394 1311q50 0 75 -25t25 -50t-8 -59t-39 -61q-31 -26 -73 -26t-67 26t-25 77q0 52 31 85t81 33z" />
    <glyph glyph-name="igrave" unicode="&#xec;" horiz-adv-x="505" 
d="M260 169q0 -28 8 -36t27 -8q47 0 106 59q31 -20 37 -65q-127 -137 -233 -137q-135 0 -135 149q0 59 22 145l84 295q35 123 35 162t-25 50t-92 12q-2 45 12 77q47 6 122 33t114 51q78 -30 80 -131q0 -57 -25 -147l-112 -395q-25 -86 -25 -114zM366 1094q-24 0 -40 8
q-98 197 -211 340q55 18 103 18t89 -14q29 -182 90 -348q-7 -4 -31 -4z" />
    <glyph glyph-name="iacute" unicode="&#xed;" horiz-adv-x="505" 
d="M260 169q0 -28 8 -36t27 -8q47 0 106 59q31 -20 37 -65q-127 -137 -233 -137q-135 0 -135 149q0 59 22 145l84 295q35 123 35 162t-25 50t-92 12q-2 45 12 77q47 6 122 33t114 51q78 -30 80 -131q0 -57 -25 -147l-112 -395q-25 -86 -25 -114zM582 1479q58 0 104 -31
q-166 -156 -328 -369q-45 4 -73 29q137 215 190 358q49 13 107 13z" />
    <glyph glyph-name="icircumflex" unicode="&#xee;" horiz-adv-x="505" 
d="M260 169q0 -28 8 -36t27 -8q47 0 106 59q31 -20 37 -65q-127 -137 -233 -137q-135 0 -135 149q0 59 22 145l84 295q35 123 35 162t-25 50t-92 12q-2 45 12 77q47 6 122 33t114 51q78 -30 80 -131q0 -57 -25 -147l-112 -395q-25 -86 -25 -114zM432 1446q31 0 60 -16
q80 -129 204 -281q-14 -45 -61 -59q-109 92 -242 165q-150 -76 -280 -170q-32 49 -19 93q164 117 320 266z" />
    <glyph glyph-name="idieresis" unicode="&#xef;" horiz-adv-x="505" 
d="M260 169q0 -28 8 -36t27 -8q47 0 106 59q31 -20 37 -65q-127 -137 -233 -137q-135 0 -135 149q0 59 22 145l84 295q35 123 35 162t-25 50t-92 12q-2 45 12 77q47 6 122 33t114 51q78 -30 80 -131q0 -57 -25 -147l-112 -395q-25 -86 -25 -114zM561 1311q49 0 75 -24
t26 -47t-6 -59t-38 -63q-32 -26 -76 -26t-69 26t-25 75q0 50 32 84t81 34zM243 1311q51 0 75 -25t24 -50t-8 -59t-38 -61q-30 -26 -73 -26t-67 26t-25 77q0 52 31 85t81 33z" />
    <glyph glyph-name="eth" unicode="&#xf0;" horiz-adv-x="890" 
d="M376 123q73 0 143.5 113.5t117.5 355.5q27 139 35 239q-49 20 -121 21q-231 0 -301 -344q-18 -92 -19 -164q0 -221 145 -221zM887 1422q0 -24 -2 -33q-135 -63 -195 -95q170 -195 170 -463q0 -101 -28 -247t-121 -291.5t-216 -228t-231 -82.5t-168.5 71.5t-60.5 212.5
q-1 58 23 182t104 246.5t194.5 192t245.5 69.5q39 0 72 -8q-6 166 -88 295q-145 -74 -264 -139q-21 64 -11 102l217 109q-74 84 -182 153q20 40 57 54q123 -72 220 -158l254 127q10 -45 10 -69z" />
    <glyph glyph-name="ntilde" unicode="&#xf1;" horiz-adv-x="1060" 
d="M686 807q-53 0 -128 -71q-74 -70 -140 -194t-94 -276l-52 -266h-186l113 596q18 106 18 141t-24 46q-25 11 -99 12q0 57 12 77q50 4 142 33t137 51q47 -14 47 -84q0 -12 -4 -49q-27 -137 -76 -254l33 68q33 71 97 145t141 124t143 50t116 -50t50 -150t-23 -193l-59 -250
q-33 -139 -33 -161t5 -27q4 -4 22 -4t53 19t59 44q29 -28 37 -65q-139 -139 -235 -137q-70 0 -100 30t-30 92q0 61 34 207l55 244q23 98 22 162q0 90 -53 90zM563 1284q57 0 138 -43q80 -43 110 -43q76 0 150 74q25 -10 36 -41q-112 -178 -221 -178q-55 0 -131 45
q-81 41 -127 43q-91 0 -184 -78q-25 16 -21 49q135 172 250 172z" />
    <glyph glyph-name="ograve" unicode="&#xf2;" horiz-adv-x="931" 
d="M250 316q0 -100 39 -169q39 -68 106 -67q90 0 167 110q122 173 122 444q0 93 -39 159q-39 65 -119 65t-153 -101q-74 -101 -107 -265q-16 -76 -16 -176zM49 338q1 52 21 164t93 222t177 171t240 61t220 -95q83 -95 83 -278t-108 -356q-157 -245 -421 -245q-136 0 -220 98
q-85 98 -85 258zM582 1094q-24 0 -39 8q-98 196 -211 340q55 18 103 18t89 -14q29 -182 90 -348q-8 -4 -32 -4z" />
    <glyph glyph-name="oacute" unicode="&#xf3;" horiz-adv-x="931" 
d="M250 316q0 -100 39 -169q39 -68 106 -67q90 0 167 110q122 173 122 444q0 93 -39 159q-39 65 -119 65t-153 -101q-74 -101 -107 -265q-16 -76 -16 -176zM49 338q1 52 21 164t93 222t177 171t240 61t220 -95q83 -95 83 -278t-108 -356q-157 -245 -421 -245q-136 0 -220 98
q-85 98 -85 258zM798 1479q58 0 105 -31q-166 -156 -328 -369q-45 4 -73 29q137 215 190 358q48 13 106 13z" />
    <glyph glyph-name="ocircumflex" unicode="&#xf4;" horiz-adv-x="931" 
d="M250 316q0 -100 39 -169q39 -68 106 -67q90 0 167 110q122 173 122 444q0 93 -39 159q-39 65 -119 65t-153 -101q-74 -101 -107 -265q-16 -76 -16 -176zM49 338q1 52 21 164t93 222t177 171t240 61t220 -95q83 -95 83 -278t-108 -356q-157 -245 -421 -245q-136 0 -220 98
q-85 98 -85 258zM649 1446q31 0 60 -16q80 -129 204 -281q-14 -45 -61 -59q-109 92 -242 165q-150 -76 -280 -170q-32 49 -19 93q164 117 320 266z" />
    <glyph glyph-name="otilde" unicode="&#xf5;" horiz-adv-x="931" 
d="M250 316q0 -100 39 -169q39 -68 106 -67q90 0 167 110q122 173 122 444q0 93 -39 159q-39 65 -119 65t-153 -101q-74 -101 -107 -265q-16 -76 -16 -176zM49 338q1 52 21 164t93 222t177 171t240 61t220 -95q83 -95 83 -278t-108 -356q-157 -245 -421 -245q-136 0 -220 98
q-85 98 -85 258zM498 1284q56 0 137 -43q80 -43 110 -43q76 0 150 74q25 -10 37 -41q-112 -178 -221 -178q-57 0 -131 45q-81 41 -127 43q-92 0 -185 -78q-25 16 -20 49q135 172 250 172z" />
    <glyph glyph-name="odieresis" unicode="&#xf6;" horiz-adv-x="931" 
d="M250 316q0 -100 39 -169q39 -68 106 -67q90 0 167 110q122 173 122 444q0 93 -39 159q-39 65 -119 65t-153 -101q-74 -101 -107 -265q-16 -76 -16 -176zM49 338q1 52 21 164t93 222t177 171t240 61t220 -95q83 -95 83 -278t-108 -356q-157 -245 -421 -245q-136 0 -220 98
q-85 98 -85 258zM778 1311q49 0 75 -24t26 -47q0 -85 -37 -117q-37 -31 -82 -31t-70 26q-24 26 -24 75q0 50 31 84q32 34 81 34zM460 1311q50 0 75 -25t25 -50t-9 -59q-8 -34 -38 -61q-30 -26 -73 -26q-44 0 -68 26t-24 77q0 52 31 85t81 33z" />
    <glyph glyph-name="divide" unicode="&#xf7;" horiz-adv-x="1062" 
d="M618 256q0 -32 -6 -60t-34.5 -54.5t-73.5 -26.5t-74 26.5t-29 75.5t34 87t81 38t74.5 -27t27.5 -59zM973 481q-600 0 -879 -6q-4 72 27 113h885q-4 -62 -33 -107zM719 870q0 -32 -6 -60t-35 -54.5t-74 -26.5t-73.5 26.5t-28.5 75.5t33 87t81 38t75.5 -27t27.5 -59z" />
    <glyph glyph-name="oslash" unicode="&#xf8;" horiz-adv-x="944" 
d="M398 80q87 0 164 109.5t108 277.5q16 86 16 145l-2 35q-145 -160 -412 -465q39 -102 126 -102zM536 858q-89 0 -163 -101.5t-107 -264.5q-18 -86 -18 -160l2 -43l414 463q-39 106 -128 106zM883 636q0 -237 -90.5 -380t-197.5 -208.5t-229 -65.5t-206 71l-92 -108
q-58 0 -88 41l122 137q-51 88 -51 217q0 215 133 415.5t387 200.5q127 0 209 -75l99 110q59 6 98 -26q-37 -37 -143 -152q49 -81 49 -177z" />
    <glyph glyph-name="ugrave" unicode="&#xf9;" horiz-adv-x="1040" 
d="M606 129q0 100 41 180h-4q-35 -73 -95 -149t-136 -127t-150 -51q-147 0 -147 208q0 106 47 294t47 238t-24 61t-89 12q-2 9 -2 31t12 46q46 4 140 33t133 51q23 -14 33 -28t10 -63t-60 -296q-60 -246 -59 -323q0 -113 66 -113q43 0 113 66q70 65 134 191t97 300l47 248
h186l-100 -508q-45 -225 -45 -259t7 -41t26 -7q39 0 100 63q25 -23 39 -65q-51 -59 -113 -99t-117 -40q-137 0 -137 147zM601 1094q-24 0 -40 8q-102 203 -211 340q56 18 104 18t89 -14q29 -182 90 -348q-8 -4 -32 -4z" />
    <glyph glyph-name="uacute" unicode="&#xfa;" horiz-adv-x="1040" 
d="M606 129q0 100 41 180h-4q-35 -73 -95 -149t-136 -127t-150 -51q-147 0 -147 208q0 106 47 294t47 238t-24 61t-89 12q-2 9 -2 31t12 46q46 4 140 33t133 51q23 -14 33 -28t10 -63t-60 -296q-60 -246 -59 -323q0 -113 66 -113q43 0 113 66q70 65 134 191t97 300l47 248
h186l-100 -508q-45 -225 -45 -259t7 -41t26 -7q39 0 100 63q25 -23 39 -65q-51 -59 -113 -99t-117 -40q-137 0 -137 147zM818 1479q58 0 104 -31q-166 -156 -328 -369q-45 4 -74 29q137 215 191 358q49 13 107 13z" />
    <glyph glyph-name="ucircumflex" unicode="&#xfb;" horiz-adv-x="1040" 
d="M606 129q0 100 41 180h-4q-35 -73 -95 -149t-136 -127t-150 -51q-147 0 -147 208q0 106 47 294t47 238t-24 61t-89 12q-2 9 -2 31t12 46q46 4 140 33t133 51q23 -14 33 -28t10 -63t-60 -296q-60 -246 -59 -323q0 -113 66 -113q43 0 113 66q70 65 134 191t97 300l47 248
h186l-100 -508q-45 -225 -45 -259t7 -41t26 -7q39 0 100 63q25 -23 39 -65q-51 -59 -113 -99t-117 -40q-137 0 -137 147zM328 1144q0 28 2 34q164 117 319 266l19 2q31 0 59 -16q80 -129 205 -281q-14 -45 -62 -59q-109 92 -241 165q-150 -76 -281 -170q-20 31 -20 59z" />
    <glyph glyph-name="udieresis" unicode="&#xfc;" horiz-adv-x="1040" 
d="M606 129q0 100 41 180h-4q-35 -73 -95 -149t-136 -127t-150 -51q-147 0 -147 208q0 106 47 294t47 238t-24 61t-89 12q-2 9 -2 31t12 46q46 4 140 33t133 51q23 -14 33 -28t10 -63t-60 -296q-60 -246 -59 -323q0 -113 66 -113q43 0 113 66q70 65 134 191t97 300l47 248
h186l-100 -508q-45 -225 -45 -259t7 -41t26 -7q39 0 100 63q25 -23 39 -65q-51 -59 -113 -99t-117 -40q-137 0 -137 147zM684 1193q0 50 32 84t81 34t75 -24t25 -47q0 -23 -6 -59t-37 -63q-31 -26 -76 -26q-46 0 -70 26t-24 75zM478 1311q50 0 75 -25t25 -50t-8 -59t-39 -61
q-31 -26 -73 -26t-67 26t-25 77q0 52 31 85t81 33z" />
    <glyph glyph-name="yacute" unicode="&#xfd;" horiz-adv-x="915" 
d="M-78 -508q-86 0 -172 74q-6 61 14 123q102 -33 188 -33t154 47t175 186q-24 485 -103 779q-14 55 -27 82q-13 26 -40 36t-80 9v18q0 37 10 59q49 6 109 32t96 52q35 -12 52 -28q52 -49 111 -509q19 -155 25 -317l19 29q113 168 173 315t60 215t-26 96t-89 36
q-16 35 -12 75q53 14 115 43t88 47q55 -20 83 -63t27 -98q0 -125 -91 -303t-270 -438t-275 -374t-162 -152t-152 -38zM702 1479q58 0 105 -31q-166 -156 -328 -369q-45 4 -73 29q137 215 190 358q48 13 106 13z" />
    <glyph glyph-name="thorn" unicode="&#xfe;" horiz-adv-x="911" 
d="M686 631q0 162 -84 162q-39 0 -103.5 -69t-128 -191.5t-100.5 -280.5l-34 -143q53 -20 124 -21q232 0 302 344q24 117 24 199zM717 958q166 0 166 -235q0 -79 -27 -217t-106.5 -260.5t-194.5 -192t-246 -69.5q-41 0 -88 10q2 -72 -12 -152l-62 -344h-186l281 1596
q16 94 16 135t-23.5 52t-97.5 11q0 57 13 78q49 4 140 33t136 51q49 -16 49 -80q0 -25 -6 -51l-88 -475q-31 -168 -84 -309h4q61 168 177 293.5t239 125.5z" />
    <glyph glyph-name="ydieresis" unicode="&#xff;" horiz-adv-x="915" 
d="M-78 -508q-86 0 -172 74q-6 61 14 123q102 -33 188 -33t154 47t175 186q-24 485 -103 779q-14 55 -27 82q-13 26 -40 36t-80 9v18q0 37 10 59q49 6 109 32t96 52q35 -12 52 -28q52 -49 111 -509q19 -155 25 -317l19 29q113 168 173 315t60 215t-26 96t-89 36
q-16 35 -12 75q53 14 115 43t88 47q55 -20 83 -63t27 -98q0 -125 -91 -303t-270 -438t-275 -374t-162 -152t-152 -38zM569 1193q0 50 32 84t81 34t75 -24q25 -24 25 -78t-37 -86q-37 -31 -81 -31t-70 26q-25 26 -25 75zM364 1311q50 0 74 -25t25 -50q0 -25 -8 -59t-38 -61
q-30 -26 -73 -26t-68 26q-24 26 -24 77q0 52 31 85t81 33z" />
    <glyph glyph-name="Amacron" unicode="&#x100;" horiz-adv-x="1406" 
d="M879 543q-48 194 -89 335t-59 252q-122 -249 -315 -587h463zM1058 0q-156 0 -237 -6q0 53 17 88q70 8 98 26t27 56q0 37 -13 86l-47 199q-328 0 -547 -9l-86 -147q-61 -105 -61 -141q-1 -36 21 -49t71 -21q8 -43 6 -88q-67 6 -185 6t-177 -6q0 53 16 88q55 16 95 60
t112 167q272 465 612 1075q29 12 80 13q158 -549 295 -1127q32 -134 70 -164q18 -14 51 -24q10 -37 6 -88q-68 6 -224 6zM1247 1739q0 -41 -18 -88q-420 0 -713 -6q0 66 19 94h712z" />
    <glyph glyph-name="amacron" unicode="&#x101;" horiz-adv-x="966" 
d="M225 309q0 -162 84 -162q39 0 104 69t128 192t100 280l35 143q-53 20 -125 21q-233 0 -301 -344q-25 -117 -25 -199zM748 123q44 0 114 61q23 -24 37 -63q-125 -139 -237 -139q-68 0 -99 43t-31 107t25 130t59 139h-6q-61 -167 -177 -293t-238 -126q-166 0 -166 235
q1 79 27 217t106 260t194 193q114 70 246 69q59 0 115 -18q74 0 117 18q26 -12 26 -56t-22 -140l-103 -459q-23 -109 -23 -135t9 -35q8 -8 27 -8zM276 1198q0 64 19 94h713q-1 -41 -19 -88q-420 0 -713 -6z" />
    <glyph glyph-name="Abreve" unicode="&#x102;" horiz-adv-x="1406" 
d="M879 543q-48 194 -89 335t-59 252q-122 -249 -315 -587h463zM1058 0q-156 0 -237 -6q0 53 17 88q70 8 98 26t27 56q0 37 -13 86l-47 199q-328 0 -547 -9l-86 -147q-61 -105 -61 -141q-1 -36 21 -49t71 -21q8 -43 6 -88q-67 6 -185 6t-177 -6q0 53 16 88q55 16 95 60
t112 167q272 465 612 1075q29 12 80 13q158 -549 295 -1127q32 -134 70 -164q18 -14 51 -24q10 -37 6 -88q-68 6 -224 6zM855 1526q-294 0 -294 246q0 37 10 92q41 23 86 22q-5 -104 57 -166t175 -61q113 0 193 61t108 166q47 0 63 -12q-32 -166 -140 -257t-258 -91z" />
    <glyph glyph-name="abreve" unicode="&#x103;" horiz-adv-x="966" 
d="M225 309q0 -162 84 -162q39 0 104 69t128 192t100 280l35 143q-53 20 -125 21q-233 0 -301 -344q-25 -117 -25 -199zM748 123q44 0 114 61q23 -24 37 -63q-125 -139 -237 -139q-68 0 -99 43t-31 107t25 130t59 139h-6q-61 -167 -177 -293t-238 -126q-166 0 -166 235
q1 79 27 217t106 260t194 193q114 70 246 69q59 0 115 -18q74 0 117 18q26 -12 26 -56t-22 -140l-103 -459q-23 -109 -23 -135t9 -35q8 -8 27 -8zM615 1079q-295 0 -293 246q0 37 10 92q41 23 86 23q-6 -104 56 -166t175 -62t193 62t108 166q47 0 64 -13q-33 -166 -141 -257
t-258 -91z" />
    <glyph glyph-name="Aogonek" unicode="&#x104;" horiz-adv-x="1406" 
d="M879 543q-48 194 -89 335t-59 252q-122 -249 -315 -587h463zM762 -332q0 187 250 332q-92 0 -191 -6q0 53 17 88q70 8 97.5 26.5t27.5 55.5t-13 86l-47 199q-328 0 -547 -9l-86 -147q-61 -105 -61 -141t21.5 -49t70.5 -21q8 -43 6 -88q-67 6 -185 6t-177 -6q0 53 16 88
q55 16 95 60t112 167q272 465 612 1075q29 12 80 13q158 -549 295 -1127q32 -134 60 -156t61 -32q10 -37 6 -88q-49 4 -82 4l-43 2q-221 -112 -221 -233q0 -43 29 -72t79 -29t93 17q6 -19 6 -35t-4 -45q-86 -41 -170 -109q-12 -4 -39 -4q-63 0 -115.5 46t-52.5 132z" />
    <glyph glyph-name="aogonek" unicode="&#x105;" horiz-adv-x="966" 
d="M225 309q0 -162 84 -162q39 0 103.5 69t128 191.5t100.5 280.5l35 143q-53 20 -125 21q-231 0 -301 -344q-25 -117 -25 -199zM635 -16q-103 16 -103 152q0 60 25 126t59 139h-6q-61 -168 -177 -293.5t-238 -125.5q-166 0 -166 235q1 79 27 217t106 260.5t194.5 192
t245.5 69.5q59 0 115 -18q74 0 117 18q26 -12 26 -56t-22 -140l-103 -459q-23 -109 -23 -135t8.5 -34.5t27.5 -8.5q40 0 114 61q23 -23 37 -63q-61 -68 -117 -103q-198 -148 -198 -254q0 -43 31.5 -70.5t78.5 -27.5t90 17q10 -31 2 -80q-88 -41 -170 -109q-12 -4 -38 -4
q-63 0 -115.5 46t-52.5 132q0 180 225 316z" />
    <glyph glyph-name="Cacute" unicode="&#x106;" horiz-adv-x="1280" 
d="M1238 963q-28 0 -52 6q8 78 8 106q0 139 -62 191t-210 53q-148 0 -277 -84t-206 -228q-103 -193 -103 -411q0 -219 105 -354q105 -136 317 -136t405 119q29 -29 33 -78q-231 -166 -498 -165q-186 0 -317 74t-198 205q-67 130 -66 298q0 35 8 113q31 244 154 408t295 244
q172 79 327 79q156 0 256 -29t207 -92q-43 -116 -68 -309q-30 -10 -58 -10zM1178 1925q58 0 104 -31q-166 -156 -328 -368q-45 4 -73 28q137 215 190 359q49 12 107 12z" />
    <glyph glyph-name="cacute" unicode="&#x107;" horiz-adv-x="745" 
d="M43 266q0 118 25 219q49 215 168 343t303 128q129 0 192 -43q-41 -106 -47 -227q-33 -16 -88 -16q2 16 2 47q0 139 -109 139q-182 0 -241 -344q-16 -106 -17 -164q0 -225 152 -225q115 0 223 119q27 -18 43 -58q-158 -202 -366 -202q-125 0 -183 83q-57 83 -57 201z
M756 1479q58 0 104 -31q-166 -156 -328 -369q-45 4 -73 29q137 215 190 358q49 13 107 13z" />
    <glyph glyph-name="Ccircumflex" unicode="&#x108;" horiz-adv-x="1280" 
d="M1238 963q-28 0 -52 6q8 78 8 106q0 139 -62 191t-210 53q-148 0 -277 -84t-206 -228q-103 -193 -103 -411q0 -219 105 -354q105 -136 317 -136t405 119q29 -29 33 -78q-231 -166 -498 -165q-186 0 -317 74t-198 205q-67 130 -66 298q0 35 8 113q31 244 154 408t295 244
q172 79 327 79q156 0 256 -29t207 -92q-43 -116 -68 -309q-30 -10 -58 -10zM1028 1892q31 0 59 -16q80 -129 205 -281q-13 -43 -61 -59q-109 92 -242 166q-150 -76 -280 -170q-21 30 -21 58t2 34q164 117 320 266z" />
    <glyph glyph-name="ccircumflex" unicode="&#x109;" horiz-adv-x="745" 
d="M43 266q0 118 25 219q49 215 168 343t303 128q129 0 192 -43q-41 -106 -47 -227q-33 -16 -88 -16q2 16 2 47q0 139 -109 139q-182 0 -241 -344q-16 -106 -17 -164q0 -225 152 -225q115 0 223 119q27 -18 43 -58q-158 -202 -366 -202q-125 0 -183 83q-57 83 -57 201z
M606 1446q31 0 60 -16q80 -129 204 -281q-14 -45 -61 -59q-109 92 -242 165q-150 -76 -280 -170q-32 49 -19 93q164 117 320 266z" />
    <glyph glyph-name="Cdotaccent" unicode="&#x10a;" horiz-adv-x="1280" 
d="M1238 963q-28 0 -52 6q8 78 8 106q0 139 -62 191t-210 53q-148 0 -277 -84t-206 -228q-103 -193 -103 -411q0 -219 105 -354q105 -136 317 -136t405 119q29 -29 33 -78q-231 -166 -498 -165q-186 0 -317 74t-198 205q-67 130 -66 298q0 35 8 113q31 244 154 408t295 244
q172 79 327 79q156 0 256 -29t207 -92q-43 -116 -68 -309q-30 -10 -58 -10zM1006 1776q110 0 110 -108q0 -54 -42 -95t-96 -41q-110 0 -110 106q0 52 42 96q42 42 96 42z" />
    <glyph glyph-name="cdotaccent" unicode="&#x10b;" horiz-adv-x="745" 
d="M43 266q0 118 25 219q49 215 168 343t303 128q129 0 192 -43q-41 -106 -47 -227q-33 -16 -88 -16q2 16 2 47q0 139 -109 139q-182 0 -241 -344q-16 -106 -17 -164q0 -225 152 -225q115 0 223 119q27 -18 43 -58q-158 -202 -366 -202q-125 0 -183 83q-57 83 -57 201z
M610 1325q92 0 92 -104q0 -54 -40 -98t-90 -44t-74 25t-25 50q0 25 8 64t45 73t84 34z" />
    <glyph glyph-name="Ccaron" unicode="&#x10c;" horiz-adv-x="1280" 
d="M1238 963q-28 0 -52 6q8 78 8 106q0 139 -62 191t-210 53q-148 0 -277 -84t-206 -228q-103 -193 -103 -411q0 -219 105 -354q105 -136 317 -136t405 119q29 -29 33 -78q-231 -166 -498 -165q-186 0 -317 74t-198 205q-67 130 -66 298q0 35 8 113q31 244 154 408t295 244
q172 79 327 79q156 0 256 -29t207 -92q-43 -116 -68 -309q-30 -10 -58 -10zM949 1503q-17 0 -23 2q-121 195 -240 318q10 43 47 57q150 -117 266 -188q176 86 283 170q39 -10 55 -47q-195 -143 -344 -302q-27 -10 -44 -10z" />
    <glyph glyph-name="ccaron" unicode="&#x10d;" horiz-adv-x="745" 
d="M43 266q0 118 25 219q49 215 168 343t303 128q129 0 192 -43q-41 -106 -47 -227q-33 -16 -88 -16q2 16 2 47q0 139 -109 139q-182 0 -241 -344q-16 -106 -17 -164q0 -225 152 -225q115 0 223 119q27 -18 43 -58q-158 -202 -366 -202q-125 0 -183 83q-57 83 -57 201z
M527 1057q-17 0 -23 2q-121 195 -240 317q10 43 47 58q150 -117 267 -189q176 86 282 170q39 -10 55 -47q-195 -143 -344 -301q-27 -10 -44 -10z" />
    <glyph glyph-name="Dcaron" unicode="&#x10e;" horiz-adv-x="1505" 
d="M1268 840q0 246 -142 354t-374 109q-70 0 -146 -17l-174 -1014q-10 -61 -10 -102t33 -59t125 -19q264 0 438 133t229 420q21 103 21 195zM1479 852q0 -86 -19 -190q-62 -330 -294 -496t-595 -166h-6q-354 0 -514 -6q4 51 17 88q63 8 95 26t48 60q16 41 31 125l147 842
q6 37 6 79t-28 62q-29 20 -101 29q-6 25 -6 51t2 35q249 -11 416 -2l125 2q290 0 483 -120t193 -419zM847 1503q-17 0 -24 2q-121 195 -239 318q10 43 47 57q150 -117 266 -188q176 86 283 170q39 -10 55 -47q-195 -143 -344 -302q-27 -10 -44 -10z" />
    <glyph glyph-name="dcaron" unicode="&#x10f;" horiz-adv-x="1210" 
d="M225 309q0 -162 84 -162q39 0 103.5 69t128 191.5t100.5 280.5l35 143q-53 20 -125 21q-231 0 -301 -344q-25 -117 -25 -199zM195 -18q-166 0 -166 235q1 79 27 217t106 260.5t194.5 192t245.5 69.5q39 0 84 -10q6 68 22 157t15 130q0 41 -22.5 50t-98.5 9q-4 47 12 78
q49 4 140.5 33t136.5 51q47 -14 47 -82q0 -12 -4 -49l-168 -961q-29 -172 -29 -198t6.5 -33.5t20.5 -7.5q43 0 117 61q25 -25 37 -63q-125 -139 -244 -139q-131 0 -131 151q0 53 16 113q37 117 57 155h-6q-61 -168 -177 -293.5t-238 -125.5zM1305 1356q0 -37 -11 -82
q-33 -178 -213 -332q-45 0 -69 43q125 125 125 199t-93 98q0 85 31 129q43 2 95.5 19.5t82.5 37.5q52 -26 52 -112z" />
    <glyph glyph-name="Dcroat" unicode="&#x110;" horiz-adv-x="1505" 
d="M1268 840q0 246 -142 354t-374 109q-70 0 -146 -17l-98 -571h135q4 -47 -14 -86h-135l-62 -357q-10 -61 -10 -102t33 -59t125 -19q264 0 438 133t229 420q21 103 21 195zM1479 852q0 -86 -19 -190q-62 -330 -294 -496t-595 -166h-6q-354 0 -514 -6q4 51 17 88q63 8 95 26
t48 60q16 41 31 125l59 334q-63 0 -137 -4q2 55 22 92h129l74 420q6 37 6 79t-28 62q-29 20 -101 29q-6 25 -6 51t2 35q249 -11 416 -2l125 2q290 0 483 -120t193 -419z" />
    <glyph glyph-name="dcroat" unicode="&#x111;" horiz-adv-x="985" 
d="M225 309q0 -162 84 -162q39 0 103.5 69t128 191.5t100.5 280.5l35 143q-53 20 -125 21q-231 0 -301 -344q-25 -117 -25 -199zM195 -18q-166 0 -166 235q1 79 27 217t106 260.5t194.5 192t245.5 69.5q39 0 84 -10q10 86 16 127l-186 -2q0 47 21 88h180q6 43 6 78t-22.5 45
t-98.5 10q-4 47 12 78q49 4 140.5 33t136.5 51q47 -14 47 -82q0 -12 -4 -49l-29 -164h135q0 -41 -18 -86h-131l-125 -711q-29 -171 -29 -198t6.5 -34t20.5 -7q43 0 117 61q25 -25 37 -63q-125 -139 -244 -139q-131 0 -131 151q0 53 16 113q37 117 57 155h-6
q-61 -168 -177 -293.5t-238 -125.5z" />
    <glyph glyph-name="Emacron" unicode="&#x112;" 
d="M426 180q0 -48 34 -68t126 -20h39q216 0 303 110q41 52 90 150q59 -10 92 -45q-76 -145 -111 -313q-121 6 -451 6t-489 -6q0 47 15 88q63 8 94 26t46 59q15 40 30 126l141 813q8 43 8 92t-28 73q-29 24 -101 32q-4 33 -4 55t2 33q437 -16 930 0q-16 -125 -16 -219t2 -115
q-39 -16 -103 -15q-4 100 -22 150q-19 50 -79 76q-60 25 -190 24h-178l-92 -547h115q129 0 185 35t73 133q49 9 98 2q-54 -214 -67 -462q-63 6 -95 26l2 35q0 80 -44 110t-160 29h-123l-62 -360q-10 -65 -10 -113zM444 1645q0 64 19 94h713q-1 -41 -19 -88q-420 0 -713 -6z
" />
    <glyph glyph-name="emacron" unicode="&#x113;" horiz-adv-x="747" 
d="M555 762q0 30 -24 60t-64 30q-70 0 -131 -93t-90 -267q119 12 203 65q106 67 106 205zM41 260q0 279 124 470q73 114 166 170t191 56t149 -52q52 -52 52 -138t-79 -167q-80 -81 -194 -129t-214 -54q-4 -45 -5 -70q0 -217 148 -217q113 0 207 115q31 -23 43 -60
q-154 -202 -359 -202q-121 0 -175 83t-54 195zM188 1198q0 64 19 94h713q-1 -41 -19 -88q-420 0 -713 -6z" />
    <glyph glyph-name="Edotaccent" unicode="&#x116;" 
d="M426 180q0 -48 34 -68t126 -20h39q216 0 303 110q41 52 90 150q59 -10 92 -45q-76 -145 -111 -313q-121 6 -451 6t-489 -6q0 47 15 88q63 8 94 26t46 59q15 40 30 126l141 813q8 43 8 92t-28 73q-29 24 -101 32q-4 33 -4 55t2 33q437 -16 930 0q-16 -125 -16 -219t2 -115
q-39 -16 -103 -15q-4 100 -22 150q-19 50 -79 76q-60 25 -190 24h-178l-92 -547h115q129 0 185 35t73 133q49 9 98 2q-54 -214 -67 -462q-63 6 -95 26l2 35q0 80 -44 110t-160 29h-123l-62 -360q-10 -65 -10 -113zM818 1776q110 0 110 -108q0 -54 -42 -95t-96 -41
q-110 0 -110 106q0 52 42 96q42 42 96 42z" />
    <glyph glyph-name="edotaccent" unicode="&#x117;" horiz-adv-x="747" 
d="M555 762q0 30 -24 60t-64 30q-70 0 -131 -93t-90 -267q119 12 203 65q106 67 106 205zM41 260q0 279 124 470q73 114 166 170t191 56t149 -52q52 -52 52 -138t-79 -167q-80 -81 -194 -129t-214 -54q-4 -45 -5 -70q0 -217 148 -217q113 0 207 115q31 -23 43 -60
q-154 -202 -359 -202q-121 0 -175 83t-54 195zM588 1325q92 0 92 -104q0 -54 -40 -98t-90 -44t-75 25t-25 50t9 64q8 39 45 73t84 34z" />
    <glyph glyph-name="Eogonek" unicode="&#x118;" 
d="M428 -332q0 187 250 332h-105q-354 0 -514 -6q0 47 15 88q63 8 94 26.5t46 58.5t30 126l141 813q8 43 8 92t-28.5 72.5t-100.5 32.5q-4 33 -4 54.5t2 33.5q437 -16 930 0q-16 -125 -16 -218.5t2 -115.5q-39 -16 -103 -15q-4 100 -22.5 150.5t-79 75t-189.5 24.5h-178
l-92 -547h115q129 0 185 35t73 133q49 9 98 2q-54 -214 -67 -462q-63 6 -95 26l2 35q0 80 -44 109.5t-160 29.5h-123l-62 -360q-10 -66 -10 -113.5t34 -67.5t126 -20h39q216 0 303 110q41 52 90 150q59 -10 92 -45q-76 -145 -111 -313l-176 6q-221 -113 -221 -233
q0 -43 30 -72t79 -29t92 17q6 -18 6 -34.5t-4 -45.5q-86 -41 -170 -109q-12 -4 -39 -4q-63 0 -115.5 46t-52.5 132z" />
    <glyph glyph-name="eogonek" unicode="&#x119;" horiz-adv-x="749" 
d="M555 762q0 30 -23.5 60t-64.5 30q-70 0 -131.5 -93t-89.5 -267q118 12 202 65q106 68 107 205zM379 129q113 0 207 115q31 -23 43 -60q-43 -59 -99 -104l5 -4q-117 -98 -168.5 -165.5t-51.5 -143.5q0 -100 113 -101q45 0 88 17q6 -18 6 -34.5t-4 -45.5q-88 -41 -170 -109
q-12 -4 -39 -4q-68 0 -118 43t-50 131q0 178 181 322q-33 -4 -52 -4q-121 0 -175 82.5t-54 194.5q0 279 124 471q73 114 166 170t190 56t149.5 -52t52.5 -138t-79 -167t-193.5 -129t-214.5 -54q-4 -45 -5 -70q0 -217 148 -217z" />
    <glyph glyph-name="Ecaron" unicode="&#x11a;" 
d="M426 180q0 -48 34 -68t126 -20h39q216 0 303 110q41 52 90 150q59 -10 92 -45q-76 -145 -111 -313q-121 6 -451 6t-489 -6q0 47 15 88q63 8 94 26t46 59q15 40 30 126l141 813q8 43 8 92t-28 73q-29 24 -101 32q-4 33 -4 55t2 33q437 -16 930 0q-16 -125 -16 -219t2 -115
q-39 -16 -103 -15q-4 100 -22 150q-19 50 -79 76q-60 25 -190 24h-178l-92 -547h115q129 0 185 35t73 133q49 9 98 2q-54 -214 -67 -462q-63 6 -95 26l2 35q0 80 -44 110t-160 29h-123l-62 -360q-10 -65 -10 -113zM761 1503q-17 0 -24 2q-121 195 -239 318q10 43 47 57
q150 -117 266 -188q176 86 283 170q39 -10 55 -47q-195 -143 -344 -302q-27 -10 -44 -10z" />
    <glyph glyph-name="ecaron" unicode="&#x11b;" horiz-adv-x="747" 
d="M555 762q0 30 -24 60t-64 30q-70 0 -131 -93t-90 -267q119 12 203 65q106 67 106 205zM41 260q0 279 124 470q73 114 166 170t191 56t149 -52q52 -52 52 -138t-79 -167q-80 -81 -194 -129t-214 -54q-4 -45 -5 -70q0 -217 148 -217q113 0 207 115q31 -23 43 -60
q-154 -202 -359 -202q-121 0 -175 83t-54 195zM505 1057q-17 0 -24 2q-121 195 -239 317q10 43 47 58q150 -117 266 -189q176 86 283 170q39 -10 55 -47q-195 -143 -344 -301q-27 -10 -44 -10z" />
    <glyph glyph-name="Gcircumflex" unicode="&#x11c;" horiz-adv-x="1421" 
d="M1241 135q-227 -153 -568 -153q-171 0 -298 70t-193 200q-66 129 -65 297q0 66 8 123q33 248 156 412t298 241q175 78 350 78t288 -29t210 -92q-45 -127 -67 -307q-27 -12 -50 -12t-61 8q6 53 6 92q0 196 -129 236q-61 19 -161 20q-266 0 -428 -173q-199 -213 -199 -577
q0 -213 96 -350t301 -137q128 0 213 33q33 12 53 33t48 161q20 123 20 175t-30 72t-113 26q-4 16 -4 46t2 42q90 -6 238 -6t253 6q-2 -51 -18 -88q-47 -6 -71 -22t-40 -67q-16 -49 -36 -153t-19 -141q0 -37 10 -64zM707 1590q0 28 2 34q164 117 319 266l19 2q31 0 59 -16
q80 -129 205 -281q-13 -43 -62 -59q-109 92 -241 166q-150 -76 -281 -170q-20 30 -20 58z" />
    <glyph glyph-name="gcircumflex" unicode="&#x11d;" horiz-adv-x="907" 
d="M225 309q0 -162 84 -162q39 0 104 69t128 192t100 280l35 143q-53 20 -125 21q-233 0 -301 -344q-25 -117 -25 -199zM195 -18q-166 0 -166 235q1 79 27 217t106 260t194 193q114 70 246 69q61 0 117 -18q68 4 102 18q27 -10 27 -44t-6 -70l-105 -600q-82 -461 -280 -655
q-98 -95 -222 -95t-253 96q-2 12 -2 50t18 79q172 -61 336 -61q53 0 80 24q54 47 110 429q16 102 76 256l12 36h-2q-61 -167 -177 -293t-238 -126zM647 1446q31 0 60 -16q80 -129 204 -281q-14 -45 -61 -59q-109 92 -242 165q-150 -76 -280 -170q-32 49 -19 93
q164 117 320 266z" />
    <glyph glyph-name="Gbreve" unicode="&#x11e;" horiz-adv-x="1421" 
d="M1241 135q-227 -153 -568 -153q-171 0 -298 70t-193 200q-66 129 -65 297q0 66 8 123q33 248 156 412t298 241q175 78 350 78t288 -29t210 -92q-45 -127 -67 -307q-27 -12 -50 -12t-61 8q6 53 6 92q0 196 -129 236q-61 19 -161 20q-266 0 -428 -173q-199 -213 -199 -577
q0 -213 96 -350t301 -137q128 0 213 33q33 12 53 33t48 161q20 123 20 175t-30 72t-113 26q-4 16 -4 46t2 42q90 -6 238 -6t253 6q-2 -51 -18 -88q-47 -6 -71 -22t-40 -67q-16 -49 -36 -153t-19 -141q0 -37 10 -64zM990 1526q-294 0 -294 246q0 37 11 92q41 23 86 22
q-6 -104 56 -166t175 -61q113 0 193 61t108 166q47 0 64 -12q-33 -166 -141 -257t-258 -91z" />
    <glyph glyph-name="gbreve" unicode="&#x11f;" horiz-adv-x="907" 
d="M225 309q0 -162 84 -162q39 0 104 69t128 192t100 280l35 143q-53 20 -125 21q-233 0 -301 -344q-25 -117 -25 -199zM195 -18q-166 0 -166 235q1 79 27 217t106 260t194 193q114 70 246 69q61 0 117 -18q68 4 102 18q27 -10 27 -44t-6 -70l-105 -600q-82 -461 -280 -655
q-98 -95 -222 -95t-253 96q-2 12 -2 50t18 79q172 -61 336 -61q53 0 80 24q54 47 110 429q16 102 76 256l12 36h-2q-61 -167 -177 -293t-238 -126zM591 1079q-294 0 -294 246q0 37 10 92q41 23 86 23q-5 -104 57 -166t175 -62t193 62t108 166q47 0 63 -13
q-32 -166 -140 -257t-258 -91z" />
    <glyph glyph-name="Gdotaccent" unicode="&#x120;" horiz-adv-x="1421" 
d="M1241 135q-227 -153 -568 -153q-171 0 -298 70t-193 200q-66 129 -65 297q0 66 8 123q33 248 156 412t298 241q175 78 350 78t288 -29t210 -92q-45 -127 -67 -307q-27 -12 -50 -12t-61 8q6 53 6 92q0 196 -129 236q-61 19 -161 20q-266 0 -428 -173q-199 -213 -199 -577
q0 -213 96 -350t301 -137q128 0 213 33q33 12 53 33t48 161q20 123 20 175t-30 72t-113 26q-4 16 -4 46t2 42q90 -6 238 -6t253 6q-2 -51 -18 -88q-47 -6 -71 -22t-40 -67q-16 -49 -36 -153t-19 -141q0 -37 10 -64zM1025 1776q110 0 110 -108q0 -54 -42 -95q-43 -41 -97 -41
q-112 0 -110 106q0 52 43 96q42 42 96 42z" />
    <glyph glyph-name="gdotaccent" unicode="&#x121;" horiz-adv-x="907" 
d="M225 309q0 -162 84 -162q39 0 104 69t128 192t100 280l35 143q-53 20 -125 21q-233 0 -301 -344q-25 -117 -25 -199zM195 -18q-166 0 -166 235q1 79 27 217t106 260t194 193q114 70 246 69q61 0 117 -18q68 4 102 18q27 -10 27 -44t-6 -70l-105 -600q-82 -461 -280 -655
q-98 -95 -222 -95t-253 96q-2 12 -2 50t18 79q172 -61 336 -61q53 0 80 24q54 47 110 429q16 102 76 256l12 36h-2q-61 -167 -177 -293t-238 -126zM649 1325q95 0 95 -104q0 -54 -41 -98q-40 -44 -90 -44q-51 0 -75 25t-24 50t8 64t45 73t82 34z" />
    <glyph glyph-name="Gcommaaccent" unicode="&#x122;" horiz-adv-x="1421" 
d="M1241 135q-227 -153 -568 -153q-171 0 -298 70t-193 200q-66 129 -65 297q0 66 8 123q33 248 156 412t298 241q175 78 350 78t288 -29t210 -92q-45 -127 -67 -307q-27 -12 -50 -12t-61 8q6 53 6 92q0 196 -129 236q-61 19 -161 20q-266 0 -428 -173q-199 -213 -199 -577
q0 -213 96 -350t301 -137q128 0 213 33q33 12 53 33t48 161q20 123 20 175t-30 72t-113 26q-4 16 -4 46t2 42q90 -6 238 -6t253 6q-2 -51 -18 -88q-47 -6 -71 -22t-40 -67q-16 -49 -36 -153t-19 -141q0 -37 10 -64zM815 -186q0 -116 -85 -215t-191 -170q-39 16 -47 47
q128 111 126 192q0 49 -65 60q-4 72 35 122q102 20 174 62q53 -20 53 -98z" />
    <glyph glyph-name="gcommaaccent" unicode="&#x123;" horiz-adv-x="907" 
d="M225 309q0 -162 84 -162q39 0 103.5 69t128 191.5t100.5 280.5l35 143q-53 20 -125 21q-231 0 -301 -344q-25 -117 -25 -199zM195 -18q-166 0 -166 235q0 78 26.5 216.5t106.5 261t194.5 192t245.5 69.5q61 0 117 -18q68 4 102 18q27 -10 27 -44t-6 -70l-105 -600
q-83 -462 -281 -654q-98 -96 -223 -96t-251 96q-2 12 -2 50t18 79q172 -61 336 -61q54 0 80 24q55 49 110 429q16 102 76 256l12 36h-2q-61 -168 -177 -293.5t-238 -125.5zM465 1143q0 12 4 41q16 76 92 157.5t178 145.5q39 -16 47 -47q-49 -39 -82.5 -82t-39.5 -68
q-14 -59 61 -63q4 -68 -35 -119q-94 -14 -174 -61q-51 17 -51 96z" />
    <glyph glyph-name="Hcircumflex" unicode="&#x124;" horiz-adv-x="1548" 
d="M1239 175q0 -44 28 -64t101 -29q6 -26 6 -52t-2 -36q-123 6 -257 6t-238 -6q0 51 16 88q57 6 87 21t46 51t29 106l69 406q-463 0 -626 -11l-68 -395q-8 -41 -8 -85t28 -64t101 -29q6 -26 6 -52t-2 -36q-123 6 -257 6t-239 -6q0 51 17 88q57 6 87 21t46 51t29 106l149 864
q8 53 8 70q0 55 -29 77q-30 22 -102 32q-4 33 -4 55t2 33q259 -14 496 0q-4 -55 -19 -88q-55 -9 -84 -25q-53 -28 -75 -154l-64 -370h625l63 370q8 53 8 70q0 55 -29 77q-30 22 -102 32q-4 33 -4 55t2 33q115 -6 244 -6t252 6q-4 -55 -19 -88q-56 -9 -84 -25
q-54 -29 -75 -154l-150 -864q-8 -41 -8 -85zM662 1590q0 28 2 34q164 117 319 266l18 2q31 0 60 -16q80 -129 205 -281q-13 -43 -62 -59q-109 92 -241 166q-150 -76 -281 -170q-20 30 -20 58z" />
    <glyph glyph-name="hcircumflex" unicode="&#x125;" horiz-adv-x="1019" 
d="M645 807q-53 0 -128 -71q-75 -70 -141 -194t-93 -276l-47 -266h-187l193 1094q18 106 18 141t-24 46q-25 11 -99 11q-4 49 13 78q155 25 276 84q47 -14 47 -82q0 -12 -4 -49q-61 -352 -91 -480t-85 -306h4l47 100q34 71 98 145t140 124t142 50t117 -50q50 -50 50 -150
t-23 -193l-59 -250q-33 -139 -33 -161t5 -27q5 -4 23 -4t52 19q35 19 59 44q29 -28 37 -65q-139 -139 -235 -137q-70 0 -100 30q-29 30 -29 92q0 61 33 207l55 244q23 98 22 162q0 90 -53 90zM657 1892q31 0 60 -16q80 -129 205 -281q-13 -43 -62 -59q-109 92 -242 166
q-150 -76 -280 -170q-20 30 -20 58t1 34q164 117 320 266z" />
    <glyph glyph-name="Hbar" unicode="&#x126;" horiz-adv-x="1548" 
d="M545 915l-29 -161h625l28 164zM395 1194q0 55 -29.5 76.5t-101.5 32.5q-4 33 -4 55t2 33q259 -14 496 0q-4 -55 -19 -88q-55 -10 -96 -32.5t-63 -146.5l-21 -118h625l20 118q8 53 8 70q0 55 -29.5 76.5t-101.5 32.5q-4 33 -4 55t2 33q257 -14 496 0q-4 -55 -19 -88
q-55 -11 -96 -32.5t-63 -146.5l-21 -118h127q0 -41 -18 -88h-123l-115 -658q-8 -41 -8 -85t27.5 -64.5t101.5 -28.5q6 -26 6 -52t-2 -36q-123 6 -257 6t-238 -6q0 51 16 88q57 6 87 21.5t46 50t29 106.5l69 406q-463 0 -626 -11l-68 -395q-8 -41 -8 -85t27.5 -64.5
t101.5 -28.5q6 -26 6 -52t-2 -36q-123 6 -257 6t-239 -6q0 51 17 88q57 6 87 21.5t46 50t29 106.5l112 653l-123 -2q0 55 19 95h121l20 118q8 53 8 70z" />
    <glyph glyph-name="hbar" unicode="&#x127;" horiz-adv-x="1019" 
d="M717 -18q-70 0 -99.5 30.5t-29.5 91.5t33 207l55 244q23 98 22 162q0 90 -53 90t-128 -70.5t-140.5 -194.5t-93.5 -276l-47 -266h-187l187 1057l-123 -4q0 49 16 90h121q10 57 10 92t-24.5 46t-98.5 11q-4 49 13 78q161 26 276 84q47 -14 47 -82q0 -12 -4 -49l-33 -180
h207q0 -41 -16 -84h-205q-35 -186 -58.5 -281.5t-70.5 -240.5h4l47 100q33 70 97.5 144.5t140 124.5t142.5 50t117 -50t50 -150t-23 -193l-59 -250q-33 -139 -33 -161t5 -26.5t23 -4.5t52.5 19.5t58.5 43.5q29 -28 37 -65q-137 -137 -235 -137z" />
    <glyph glyph-name="Imacron" unicode="&#x12a;" horiz-adv-x="731" 
d="M395 1194q0 55 -29 77q-30 22 -102 32q-4 33 -4 55t2 33q259 -14 496 0q-4 -55 -19 -88q-55 -9 -84 -25q-53 -28 -75 -154l-150 -864q-8 -41 -8 -85t28 -64t101 -29q6 -26 6 -52t-2 -36q-123 6 -257 6t-239 -6q0 51 17 88q57 6 87 21t46 51t29 106l149 864q8 54 8 70z
M203 1645q0 65 18 94h713q-1 -41 -19 -88q-420 0 -712 -6z" />
    <glyph glyph-name="imacron" unicode="&#x12b;" horiz-adv-x="505" 
d="M260 169q0 -28 8 -36t27 -8q47 0 106 59q31 -20 37 -65q-127 -137 -233 -137q-135 0 -135 149q0 59 22 145l84 295q35 123 35 162t-25 50t-92 12q-2 45 12 77q47 6 122 33t114 51q78 -30 80 -131q0 -57 -25 -147l-112 -395q-25 -86 -25 -114zM768 1292q0 -41 -18 -88
q-420 0 -713 -6q0 65 18 94h713z" />
    <glyph glyph-name="Iogonek" unicode="&#x12e;" horiz-adv-x="731" 
d="M35 -332q0 187 250 332q-129 0 -226 -6q0 51 17 88q57 6 87 21.5t46 50t29 106.5l149 864q8 53 8 70q0 55 -29.5 76.5t-101.5 32.5q-4 33 -4 55t2 33q113 -6 243 -6t253 6q-4 -55 -19 -88q-55 -10 -96 -32.5t-63 -146.5l-150 -864q-8 -41 -8 -85t27.5 -64.5t101.5 -28.5
q6 -26 6 -52t-2 -36l-125 4q-221 -109 -221 -231q0 -43 29.5 -72t79.5 -29t92 17q6 -19 6 -35t-4 -45q-86 -41 -170 -109q-12 -4 -39 -4q-63 0 -115.5 46t-52.5 132z" />
    <glyph glyph-name="iogonek" unicode="&#x12f;" horiz-adv-x="505" 
d="M422 825q0 -57 -25 -147l-112 -395q-25 -86 -25 -114t8 -36t27 -8q47 0 106 59q31 -20 37 -65q-55 -57 -98 -88q-215 -160 -215 -267q0 -43 31.5 -70.5t79.5 -27.5t90 17q6 -19 6 -35t-4 -45q-86 -41 -170 -109q-12 -4 -39 -4q-63 0 -115.5 46t-52.5 179.5t223 268.5
q-104 14 -104 147q0 59 22 145l84 295q35 123 35 162t-24.5 50.5t-92.5 11.5q-2 45 12 77q47 6 122 33t114 51q80 -31 80 -131zM382 1085q-110 0 -110 107q0 53 42 95t102 42q104 0 104 -107q0 -54 -42 -95.5t-96 -41.5z" />
    <glyph glyph-name="Idotaccent" unicode="&#x130;" horiz-adv-x="731" 
d="M395 1194q0 55 -29 77q-30 22 -102 32q-4 33 -4 55t2 33q259 -14 496 0q-4 -55 -19 -88q-55 -9 -84 -25q-53 -28 -75 -154l-150 -864q-8 -41 -8 -85t28 -64t101 -29q6 -26 6 -52t-2 -36q-123 6 -257 6t-239 -6q0 51 17 88q57 6 87 21t46 51t29 106l149 864q8 54 8 70z
M576 1776q110 0 110 -108q0 -54 -42 -95t-96 -41q-110 0 -110 106q0 52 42 96q42 42 96 42z" />
    <glyph glyph-name="dotlessi" unicode="&#x131;" horiz-adv-x="505" 
d="M422 825q0 -57 -25 -147l-112 -395q-25 -86 -25 -114t8 -36t27 -8q47 0 106 59q31 -20 37 -65q-127 -137 -233 -137q-135 0 -135 149q0 59 22 145l84 295q35 123 35 162t-24.5 50.5t-92.5 11.5q-2 45 12 77q47 6 122 33t114 51q80 -31 80 -131z" />
    <glyph glyph-name="IJ" unicode="&#x132;" horiz-adv-x="1255" 
d="M395 1194q0 55 -29 77q-30 22 -102 32q-4 33 -4 55t2 33q259 -14 496 0q-4 -55 -19 -88q-55 -9 -84 -25q-53 -28 -75 -154l-150 -864q-8 -41 -8 -85t28 -64t101 -29q6 -26 6 -52t-2 -36q-123 6 -257 6t-239 -6q0 51 17 88q57 6 87 21t46 51t29 106l149 864q8 54 8 70z
M1079 1384q172 0 269 7q-2 -51 -17 -88q-57 -9 -88 -27t-48 -54t-30 -108l-151 -868q-37 -209 -85 -336q-49 -127 -149 -227t-286 -193q-25 18 -33 70q137 96 218 215t114 305l184 1055q6 41 6 77q0 76 -129 91q-6 25 -6 49t2 39q57 -7 229 -7z" />
    <glyph glyph-name="ij" unicode="&#x133;" horiz-adv-x="915" 
d="M422 825q0 -57 -25 -147l-112 -395q-19 -63 -19 -107t37 -43q45 0 112.5 63.5t127 166t80.5 208.5l67 367h189l-150 -786q-49 -256 -167 -410t-339 -252q-29 25 -30 68q275 194 339 526q30 156 56 227l-6 4q-63 -141 -173 -237t-212 -96q-61 0 -94 39t-33 105t22 150
l84 295q35 123 35 162t-24.5 50.5t-92.5 11.5q-2 45 12 77q47 6 122 33t114 51q80 -31 80 -131zM824 1407q98 0 98 -97q0 -50 -38 -89t-88 -39t-75 23t-25 51q0 78 41 114.5t87 36.5zM419 1182q-102 0 -102 98q0 49 38.5 88t88.5 39q98 0 99 -90q0 -57 -37 -96t-87 -39z" />
    <glyph glyph-name="Jcircumflex" unicode="&#x134;" horiz-adv-x="626" 
d="M451 1384q172 0 268 7q-2 -51 -17 -88q-57 -9 -88 -27t-48 -54t-29 -108l-152 -868q-37 -209 -85 -336t-148 -227t-287 -193q-25 18 -33 70q137 96 218 215t114 305l184 1055q6 41 6 77t-27 60q-28 23 -102 31q-6 25 -6 49t2 39q58 -7 230 -7zM201 1590q0 28 2 34
q164 117 319 266l19 2q31 0 59 -16q80 -129 205 -281q-13 -43 -62 -59q-109 92 -241 166q-150 -76 -281 -170q-20 30 -20 58z" />
    <glyph glyph-name="jcircumflex" unicode="&#x135;" horiz-adv-x="477" 
d="M209 732q0 34 -26 48t-97 15q-4 47 12 77q47 4 126 32t118 52q37 -16 53 -41q33 -52 -8 -262l-94 -501q-47 -254 -166 -409t-340 -253q-29 25 -31 68q145 102 228 236q82 134 114 310l101 539q10 55 10 89zM86 1144q0 28 2 34q164 117 320 266l18 2q31 0 59 -16
q80 -129 205 -281q-14 -45 -61 -59q-109 92 -242 165q-150 -76 -281 -170q-20 31 -20 59z" />
    <glyph glyph-name="Kcommaaccent" unicode="&#x136;" horiz-adv-x="1310" 
d="M420 166q0 -37 24 -56t86 -28q12 -51 5 -88q-123 6 -247 6t-229 -6q0 51 17 88q57 6 87 21t46 51t29 106l149 864q8 53 8 70q0 55 -29 77q-30 22 -102 32q-4 33 -4 55t2 33q259 -14 496 0q-4 -55 -19 -88q-55 -9 -84 -25q-53 -28 -75 -154l-68 -393l408 387
q111 109 110 148q0 27 -53 37q-10 50 -10 69l2 19q228 -17 424 0q0 -63 -11 -88q-90 -13 -152 -48t-171 -135l-383 -360q165 -173 285 -440q53 -118 79 -144t62 -24q35 0 67 32q39 -20 62 -65q-57 -70 -111 -104q-54 -33 -122 -31t-110 42t-94 177q-117 305 -288 491
l-76 -434q-10 -57 -10 -94zM809 -186q0 -116 -85 -215t-192 -170q-39 16 -47 47q129 112 127 192q0 49 -65 60q-4 72 35 122q102 20 174 62q53 -20 53 -98z" />
    <glyph glyph-name="kcommaaccent" unicode="&#x137;" horiz-adv-x="933" 
d="M674 742q0 32 -20 56t-64 24q-42 0 -100 -49q-122 -102 -179 -320q330 80 361 247q2 10 2 42zM718 127q36 0 97 59q31 -27 39 -65q-127 -139 -242 -139q-68 0 -106 42t-86 145q-49 103 -119 212l-65 -381h-187l193 1094q16 94 16 135t-24 52t-97 11q-4 49 13 78
q155 25 276 84q47 -14 47 -82q0 -12 -4 -49q-59 -336 -83 -438t-73 -252h2q63 151 155 237t196 86t157 -50t54 -128q-2 -221 -400 -350q39 -48 99 -156t83 -127q23 -18 59 -18zM254 -332q0 49 -66 60q-4 70 35 122q102 20 174 62q54 -20 54 -98q0 -10 -5 -39
q-29 -183 -272 -346q-39 16 -47 47q127 110 127 192z" />
    <glyph glyph-name="Lacute" unicode="&#x139;" horiz-adv-x="1116" 
d="M550 0q-337 0 -499 -6q4 59 15 88q63 6 94 24t47 60t31 127l147 842q6 37 6 75t-29 61q-29 22 -96 32q-8 35 -4 88q76 -7 251 -7t255 5q0 -49 -16 -86q-64 -7 -98 -25t-51 -56t-30 -114l-145 -836q-10 -57 -10 -100t33 -61t124 -19h13q112 0 181 25t116 79t98 156
q57 -10 90 -45q-68 -131 -108 -313q-78 6 -415 6zM760 1925q58 0 104 -31q-166 -156 -327 -368q-45 4 -74 28q137 215 190 359q49 12 107 12z" />
    <glyph glyph-name="lacute" unicode="&#x13a;" horiz-adv-x="512" 
d="M266 199q0 -74 37 -74q43 0 105 59q27 -25 36 -61q-51 -61 -113 -101t-118 -40q-139 0 -139 153q0 59 11 145t157 814q18 90 18 133t-24 54q-25 11 -99 11q0 57 13 78q49 4 140 33t136 51q47 -14 47 -82q0 -12 -4 -49q-59 -328 -131 -689t-72 -435zM640 1991
q58 0 103 -31q-166 -156 -327 -369q-45 4 -74 29q137 215 190 358q50 13 108 13z" />
    <glyph glyph-name="Lcommaaccent" unicode="&#x13b;" horiz-adv-x="1116" 
d="M550 0q-337 0 -499 -6q4 59 15 88q63 6 94 24t47 60t31 127l147 842q6 37 6 75t-29 61q-29 22 -96 32q-8 35 -4 88q76 -7 251 -7t255 5q0 -49 -16 -86q-64 -7 -98 -25t-51 -56t-30 -114l-145 -836q-10 -57 -10 -100t33 -61t124 -19h13q112 0 181 25t116 79t98 156
q57 -10 90 -45q-68 -131 -108 -313q-78 6 -415 6zM600 -186q0 -116 -85 -215t-191 -170q-39 16 -48 47q129 112 127 192q0 49 -65 60q-4 72 35 122q102 20 174 62q53 -20 53 -98z" />
    <glyph glyph-name="lcommaaccent" unicode="&#x13c;" horiz-adv-x="512" 
d="M266 199q0 -74 37 -74q43 0 105 59q27 -25 36 -61q-51 -61 -113 -101t-118 -40q-139 0 -139 153q0 59 11 145t157 814q18 90 18 133t-24 54q-25 11 -99 11q0 57 13 78q49 4 140 33t136 51q47 -14 47 -82q0 -12 -4 -49q-59 -328 -131 -689t-72 -435zM170 -332q0 49 -66 60
q-4 70 35 122q102 20 174 62q54 -20 54 -98q0 -10 -5 -39q-29 -183 -272 -346q-39 16 -47 47q127 110 127 192z" />
    <glyph glyph-name="Lcaron" unicode="&#x13d;" horiz-adv-x="1116" 
d="M550 0q-337 0 -499 -6q4 59 15 88q63 6 93.5 24.5t47 59.5t31.5 127l147 842q6 37 6 75.5t-28.5 60t-96.5 32.5q-8 35 -4 88q76 -6 251 -6.5t255 4.5q0 -49 -16 -86q-63 -8 -97 -25.5t-51.5 -55.5t-30.5 -114l-145 -836q-10 -57 -10 -100t32.5 -61.5t124.5 -18.5h13
q112 0 181 24.5t116 79t98 156.5q57 -10 90 -45q-68 -131 -108 -313q-78 6 -415 6zM1159 1374q0 -138 -100 -284q-72 -104 -174 -187q-46 0 -70 43q76 70 123 140.5t47 121.5q0 70 -86 90q0 88 31 129q43 2 95 19.5t83 38.5q51 -29 51 -111z" />
    <glyph glyph-name="lcaron" unicode="&#x13e;" horiz-adv-x="704" 
d="M266 199q0 -74 37 -74q43 0 105 59q27 -25 36 -61q-51 -61 -113.5 -101t-117.5 -40q-139 0 -139 153q0 59 11 145t157 814q18 90 18 133t-24.5 54t-98.5 11q0 57 13 78q49 4 140 33t136 51q47 -14 47 -82q0 -12 -4 -49q-59 -328 -131 -689t-72 -435zM793 1356
q0 -37 -11 -82q-33 -178 -213 -332q-45 0 -69 43q125 125 125 199t-93 98q0 85 31 129q43 2 95.5 19.5t82.5 37.5q52 -26 52 -112z" />
    <glyph glyph-name="Ldot" unicode="&#x13f;" horiz-adv-x="1116" 
d="M1077 763.5q0 -31.5 -6 -59.5t-34.5 -54.5t-73.5 -26.5t-74 26.5t-29 75.5t34 87t81 38t74.5 -27.5t27.5 -59zM550 0q-337 0 -499 -6q4 59 15 88q63 6 93.5 24.5t47 59.5t31.5 127l147 842q6 37 6 75.5t-28.5 60t-96.5 32.5q-8 35 -4 88q76 -6 251 -6.5t255 4.5
q0 -49 -16 -86q-63 -8 -97 -25.5t-51.5 -55.5t-30.5 -114l-145 -836q-10 -57 -10 -100t32.5 -61.5t124.5 -18.5h13q112 0 181 24.5t116 79t98 156.5q57 -10 90 -45q-68 -131 -108 -313q-78 6 -415 6z" />
    <glyph glyph-name="ldot" unicode="&#x140;" horiz-adv-x="679" 
d="M705 732q0 -75 -35 -107.5t-80 -32.5t-74 26.5t-29 75.5t34 87t81 38t75 -27.5t28 -59.5zM266 199q0 -74 37 -74q43 0 105 59q27 -25 36 -61q-51 -61 -113.5 -101t-117.5 -40q-139 0 -139 153q0 59 11 145t157 814q18 90 18 133t-24.5 54t-98.5 11q0 57 13 78
q49 4 140 33t136 51q47 -14 47 -82q0 -12 -4 -49q-59 -328 -131 -689t-72 -435z" />
    <glyph glyph-name="Lslash" unicode="&#x141;" horiz-adv-x="1116" 
d="M550 0q-337 0 -499 -6q4 59 15 88q63 6 93.5 24.5t47 59.5t31.5 127l43 246l-105 -101q-47 33 -51 82l184 176l76 439q6 37 6 75.5t-28.5 60t-96.5 32.5q-8 35 -4 88q76 -6 251 -6.5t255 4.5q0 -49 -16 -86q-63 -8 -97 -25.5t-51.5 -55.5t-30.5 -114l-41 -229l144 137
q18 -8 33.5 -31.5t17.5 -48.5l-221 -215l-78 -449q-10 -57 -10 -100t32.5 -61.5t124.5 -18.5h13q113 0 181.5 24.5t115.5 79t98 156.5q57 -10 90 -45q-68 -131 -108 -313q-78 6 -415 6z" />
    <glyph glyph-name="lslash" unicode="&#x142;" horiz-adv-x="512" 
d="M266 199q0 -74 37 -74q43 0 105 59q26 -24 36 -61q-51 -61 -113.5 -101t-117.5 -40q-139 0 -139 153q0 85 57 404l-104 -101q-47 29 -52 82l189 182l78 392q18 88 18 132t-24.5 55t-98.5 11q0 57 13 78q49 4 140 33t136 51q47 -14 47 -82q0 -30 -67 -399l-19 -92l139 135
q18 -8 33.5 -31.5t18.5 -48.5l-224 -217l-51 -260q-37 -186 -37 -260z" />
    <glyph glyph-name="Nacute" unicode="&#x143;" horiz-adv-x="1382" 
d="M336 212q0 -58 29 -88t98 -42q6 -26 6 -50t-2 -38q-83 6 -205 6t-213 -6q2 49 14 88q78 10 116 68t65 202l151 865l-10 18q-20 39 -44 51t-75 17q-6 25 -6 51t2 37q151 -15 264 0q258 -459 555 -1055l121 686q16 94 16 152t-28 88q-29 29 -98 41q-8 65 -2 88
q58 -6 194 -6t191 6q0 -45 -17 -88q-47 -12 -74 -41q-48 -51 -81 -261l-175 -1009q-29 -10 -84 -10q-272 547 -569 1089l-123 -698q-16 -102 -16 -161zM1114 1925q58 0 105 -31q-166 -156 -328 -368q-45 4 -74 28q137 215 191 359q48 12 106 12z" />
    <glyph glyph-name="nacute" unicode="&#x144;" horiz-adv-x="1060" 
d="M686 807q-53 0 -128 -71q-74 -70 -140 -194t-94 -276l-52 -266h-186l113 596q18 106 18 141t-24 46q-25 11 -99 12q0 57 12 77q50 4 142 33t137 51q47 -14 47 -84q0 -12 -4 -49q-27 -137 -76 -254l33 68q33 71 97 145t141 124t143 50t116 -50t50 -150t-23 -193l-59 -250
q-33 -139 -33 -161t5 -27q4 -4 22 -4t53 19t59 44q29 -28 37 -65q-139 -139 -235 -137q-70 0 -100 30t-30 92q0 61 34 207l55 244q23 98 22 162q0 90 -53 90zM864 1479q58 0 105 -31q-166 -156 -328 -369q-45 4 -74 29q137 215 191 358q48 13 106 13z" />
    <glyph glyph-name="Ncommaaccent" unicode="&#x145;" horiz-adv-x="1382" 
d="M336 212q0 -58 29 -88t98 -42q6 -26 6 -50t-2 -38q-83 6 -205 6t-213 -6q2 49 14 88q78 10 116 68t65 202l151 865l-10 18q-20 39 -44 51t-75 17q-6 25 -6 51t2 37q151 -15 264 0q258 -459 555 -1055l121 686q16 94 16 152t-28 88q-29 29 -98 41q-8 65 -2 88
q58 -6 194 -6t191 6q0 -45 -17 -88q-47 -12 -74 -41q-48 -51 -81 -261l-175 -1009q-29 -10 -84 -10q-272 547 -569 1089l-123 -698q-16 -102 -16 -161zM770 -186q0 -116 -85 -215t-191 -170q-39 16 -48 47q129 112 127 192q0 49 -65 60q-4 72 35 122q102 20 174 62
q53 -20 53 -98z" />
    <glyph glyph-name="ncommaaccent" unicode="&#x146;" horiz-adv-x="1060" 
d="M686 807q-53 0 -128 -71q-74 -70 -140 -194t-94 -276l-52 -266h-186l113 596q18 106 18 141t-24 46q-25 11 -99 12q0 57 12 77q50 4 142 33t137 51q47 -14 47 -84q0 -12 -4 -49q-27 -137 -76 -254l33 68q33 71 97 145t141 124t143 50t116 -50t50 -150t-23 -193l-59 -250
q-33 -139 -33 -161t5 -27q4 -4 22 -4t53 19t59 44q29 -28 37 -65q-139 -139 -235 -137q-70 0 -100 30t-30 92q0 61 34 207l55 244q23 98 22 162q0 90 -53 90zM385 -332q0 49 -66 60q-4 70 35 122q102 20 174 62q54 -20 54 -98q0 -116 -86 -215t-191 -170q-39 16 -47 47
q127 110 127 192z" />
    <glyph glyph-name="Ncaron" unicode="&#x147;" horiz-adv-x="1382" 
d="M336 212q0 -58 29 -88t98 -42q6 -26 6 -50t-2 -38q-83 6 -205 6t-213 -6q2 49 14 88q78 10 116 68t65 202l151 865l-10 18q-20 39 -44 51t-75 17q-6 25 -6 51t2 37q151 -15 264 0q258 -459 555 -1055l121 686q16 94 16 152t-28 88q-29 29 -98 41q-8 65 -2 88
q58 -6 194 -6t191 6q0 -45 -17 -88q-47 -12 -74 -41q-48 -51 -81 -261l-175 -1009q-29 -10 -84 -10q-272 547 -569 1089l-123 -698q-16 -102 -16 -161zM886 1503q-17 0 -24 2q-121 195 -239 318q10 43 47 57q150 -117 266 -188q176 86 283 170q39 -10 55 -47
q-195 -143 -344 -302q-27 -10 -44 -10z" />
    <glyph glyph-name="ncaron" unicode="&#x148;" horiz-adv-x="1060" 
d="M686 807q-53 0 -128 -71q-74 -70 -140 -194t-94 -276l-52 -266h-186l113 596q18 106 18 141t-24 46q-25 11 -99 12q0 57 12 77q50 4 142 33t137 51q47 -14 47 -84q0 -12 -4 -49q-27 -137 -76 -254l33 68q33 71 97 145t141 124t143 50t116 -50t50 -150t-23 -193l-59 -250
q-33 -139 -33 -161t5 -27q4 -4 22 -4t53 19t59 44q29 -28 37 -65q-139 -139 -235 -137q-70 0 -100 30t-30 92q0 61 34 207l55 244q23 98 22 162q0 90 -53 90zM636 1057q-17 0 -24 2q-121 195 -239 317q10 43 47 58q150 -117 266 -189q176 86 283 170q39 -10 55 -47
q-195 -143 -344 -301q-27 -10 -44 -10z" />
    <glyph glyph-name="napostrophe" unicode="&#x149;" horiz-adv-x="1341" 
d="M1038 -18q-70 0 -99.5 30.5t-29.5 91.5t33 207l55 244q23 98 23 162q0 90 -53.5 90t-128 -70.5t-140 -194.5t-94.5 -276l-51 -266h-186l112 596q18 106 18.5 141t-24 46.5t-98.5 11.5q0 57 12 77q49 4 141.5 33t137.5 51q47 -14 47 -84q0 -12 -4 -49q-27 -137 -76 -254
l33 68q33 70 97 144.5t140 124.5t143 50t116.5 -50t49.5 -150.5t-22 -192.5l-60 -250q-33 -139 -32.5 -161.5t5.5 -26.5t22 -4t52 19.5t60 43.5q29 -28 37 -65q-137 -137 -236 -137zM559 1374q0 -138 -100 -284q-72 -104 -174 -187q-46 0 -70 43q76 70 123 140.5t47 121.5
q0 70 -86 90q0 88 31 129q43 2 95 19.5t83 38.5q51 -29 51 -111z" />
    <glyph glyph-name="Eng" unicode="&#x14a;" horiz-adv-x="1382" 
d="M336 212q0 -59 28.5 -88.5t98.5 -41.5q6 -25 6 -49.5t-2 -38.5q-83 6 -205 6t-213 -6q2 49 14 88q78 10 116 67.5t65 202.5l151 865l-10 18q-20 39 -44 51t-75 17q-6 25 -6 51t2 37q151 -15 264 0q287 -512 555 -1055l121 686q16 94 16 152t-28.5 87t-97.5 42
q-8 65 -2 88q58 -6 194 -6t191 6q0 -45 -17 -88q-47 -12 -84.5 -53t-70.5 -249l-148 -849q-45 -252 -164 -408t-342 -254q-29 25 -31 68q160 102 244 229t119 322q-223 449 -506 962l-123 -698q-16 -102 -16 -161z" />
    <glyph glyph-name="eng" unicode="&#x14b;" horiz-adv-x="1021" 
d="M932 727q0 -68 -19 -166l-79 -409q-49 -254 -167 -409t-339 -253q-29 25 -31 68q145 102 227 236t115 310l94 506q10 51 10 101q0 96 -55 96t-130 -70.5t-140.5 -194.5t-93.5 -276l-52 -266h-186l113 596q18 106 18 141t-24.5 46.5t-98.5 11.5q0 57 12 77q49 4 141.5 33
t137.5 51q47 -14 47 -84q0 -12 -4 -49q-27 -137 -76 -254l33 68q33 70 97.5 144.5t140 124.5t143.5 50t117 -50t49 -179z" />
    <glyph glyph-name="Omacron" unicode="&#x14c;" horiz-adv-x="1517" 
d="M749 72q197 0 329 147q190 211 192 594q0 127 -52 247t-148 186t-215 67q-120 0 -224 -71q-104 -70 -176 -192q-119 -201 -119 -445t108 -389q109 -144 305 -144zM1483 809q0 -303 -158 -519q-104 -142 -264 -225t-342 -83t-316 73q-133 74 -206 211q-74 137 -74 318
q0 294 159 507q108 144 268 228t337 84q178 0 311 -69q133 -68 209 -202t76 -323zM580 1645q0 65 18 94h713q-1 -41 -19 -88q-420 0 -712 -6z" />
    <glyph glyph-name="omacron" unicode="&#x14d;" horiz-adv-x="931" 
d="M250 316q0 -100 39 -169q39 -68 106 -67q90 0 167 110q122 173 122 444q0 93 -39 159q-39 65 -119 65t-153 -101q-74 -101 -107 -265q-16 -76 -16 -176zM49 338q1 52 21 164t93 222t177 171t240 61t220 -95q83 -95 83 -278t-108 -356q-157 -245 -421 -245q-136 0 -220 98
q-85 98 -85 258zM985 1292q0 -41 -18 -88q-420 0 -713 -6q0 65 18 94h713z" />
    <glyph glyph-name="Ohungarumlaut" unicode="&#x150;" horiz-adv-x="1517" 
d="M749 72q197 0 329 147q190 211 192 594q0 127 -52 247t-148 186t-215 67q-120 0 -224 -71q-104 -70 -176 -192q-119 -201 -119 -445t108 -389q109 -144 305 -144zM1483 809q0 -303 -158 -519q-104 -142 -264 -225t-342 -83t-316 73q-133 74 -206 211q-74 137 -74 318
q0 294 159 507q108 144 268 228t337 84q178 0 311 -69q133 -68 209 -202t76 -323zM990 1925q58 0 104 -31q-166 -156 -328 -368q-45 4 -74 28q137 215 191 359q49 12 107 12zM1318 1925q58 0 103 -31q-166 -156 -327 -368q-45 4 -74 28q137 215 190 359q50 12 108 12z" />
    <glyph glyph-name="ohungarumlaut" unicode="&#x151;" horiz-adv-x="931" 
d="M250 316q0 -100 39 -168t106 -68q90 0 189.5 141.5t99.5 412.5q0 93 -39 158.5t-119 65.5t-153.5 -101.5t-106.5 -264.5q-16 -76 -16 -176zM354 -18q-135 0 -220 98t-85 258q1 52 21 164t93 222t177 171t240 61t219.5 -95t83.5 -279t-90.5 -326.5t-197 -208t-241.5 -65.5
zM992 1479q58 0 104 -31q-166 -156 -328 -369q-45 4 -74 29q137 215 191 358q49 13 107 13zM664 1479q58 0 104 -31q-166 -156 -328 -369q-45 4 -73 29q137 215 190 358q49 13 107 13z" />
    <glyph glyph-name="OE" unicode="&#x152;" horiz-adv-x="1990" 
d="M1237 833q0 124 -47 239.5t-133 178t-203 62.5q-186 0 -352 -188.5t-166 -558.5q0 -122 47 -239.5t139 -186t223 -68.5q193 0 342.5 182.5t149.5 578.5zM2003 1172q0 -93 2 -115q-39 -16 -102 -15q-4 100 -22.5 150.5t-79 75t-189.5 24.5h-367q199 -153 199 -461
q0 -29 -4 -86h37q129 0 185 35t73 133q49 9 98 2q-52 -214 -68 -462q-63 6 -94 26l2 35q0 80 -44 109.5t-161 29.5h-43l-10 -47q-82 -355 -317 -514h354q216 0 280 81t113 179q70 -12 64 -39q-10 -61 -39 -149q-35 -125 -43 -170q-121 6 -457 6l-641 -18h-16l-327 85
q-130 81 -196.5 216t-66.5 301q0 96 20 184q41 188 147.5 331.5t259 222.5t331.5 81h18l541 -19q410 0 579 7q-16 -126 -16 -219z" />
    <glyph glyph-name="oe" unicode="&#x153;" horiz-adv-x="1347" 
d="M1155 762q0 30 -23.5 60t-64.5 30q-70 0 -131.5 -93t-89.5 -267q119 12 214 72t95 198zM684 634q0 93 -39 158.5t-119 65.5t-153.5 -101.5t-106.5 -264.5q-16 -76 -16 -176t39 -168t106 -68q90 0 189.5 141.5t99.5 412.5zM49 338q1 52 21 164t93 222t177 171t214 61
q212 0 259 -215q115 215 307 215q99 0 151 -52t52 -138t-79 -167t-193.5 -129t-214.5 -54q-4 -45 -5 -70q0 -217 148 -217q113 0 207 115q31 -23 43 -60q-154 -202 -359 -202q-170 0 -184 182q-129 -182 -317 -182q-150 0 -235 98t-85 258z" />
    <glyph glyph-name="Racute" unicode="&#x154;" horiz-adv-x="1310" 
d="M592 719q174 0 277 74q133 95 137 286q0 111 -67 167t-165 56t-170 -18l-96 -561q31 -4 84 -4zM420 167q0 -42 22 -59t86 -26q8 -37 4 -88q-104 6 -248 6t-225 -6q0 53 17 88q59 6 90 23t46 55t28 110l149 865q6 33 6 71q0 82 -131 97q-4 16 -4 45t2 43q209 -13 443 -2
l108 2q178 0 288 -79t109 -225q0 -25 -8 -77q-56 -286 -428 -357q92 -123 178 -342q63 -160 127 -159q36 0 70 32q38 -20 61 -65q-57 -70 -111 -104q-54 -33 -130 -33t-119 60t-81 190q-66 225 -175 393q-43 -2 -102 2l-64 -377q-8 -41 -8 -83zM1044 1925q58 0 105 -31
q-166 -156 -328 -368q-45 4 -73 28q137 215 190 359q48 12 106 12z" />
    <glyph glyph-name="racute" unicode="&#x155;" horiz-adv-x="765" 
d="M430 879q0 -98 -96 -324h4l35 76q80 166 144 246q65 80 149 79q57 0 104 -36q-35 -109 -49 -238q-39 -20 -100 -16q2 18 2 47q0 129 -87 28q-38 -43 -85 -133q-111 -223 -150 -426l-35 -182h-188l115 596q20 102 20 139t-25 48t-96 12q0 53 14 77q48 4 140 33t137 51
q47 -16 47 -77zM750 1479q58 0 104 -31q-166 -156 -328 -369q-45 4 -73 29q137 215 190 358q49 13 107 13z" />
    <glyph glyph-name="Rcommaaccent" unicode="&#x156;" horiz-adv-x="1310" 
d="M592 719q174 0 277 74q133 95 137 286q0 111 -67 167t-165 56t-170 -18l-96 -561q31 -4 84 -4zM420 167q0 -42 22 -59t86 -26q8 -37 4 -88q-104 6 -248 6t-225 -6q0 53 17 88q59 6 90 23t46 55t28 110l149 865q6 33 6 71q0 82 -131 97q-4 16 -4 45t2 43q209 -13 443 -2
l108 2q178 0 288 -79t109 -225q0 -25 -8 -77q-56 -286 -428 -357q92 -123 178 -342q63 -160 127 -159q36 0 70 32q38 -20 61 -65q-57 -70 -111 -104q-54 -33 -130 -33t-119 60t-81 190q-66 225 -175 393q-43 -2 -102 2l-64 -377q-8 -41 -8 -83zM565 -332q0 49 -65 60
q-4 72 35 122q102 20 174 62q53 -20 53 -98q0 -116 -85 -215t-192 -170q-39 16 -47 47q127 110 127 192z" />
    <glyph glyph-name="rcommaaccent" unicode="&#x157;" horiz-adv-x="765" 
d="M430 879q0 -98 -96 -324h4l35 76q80 166 144 246q65 80 149 79q57 0 104 -36q-35 -109 -49 -238q-39 -20 -100 -16q2 18 2 47q0 129 -87 28q-38 -43 -85 -133q-111 -223 -150 -426l-35 -182h-188l115 596q20 102 20 139t-25 48t-96 12q0 53 14 77q48 4 140 33t137 51
q47 -16 47 -77zM299 -186q0 -116 -85 -215t-191 -170q-39 16 -48 47q129 112 127 192q0 49 -65 60q-4 72 35 122q102 20 174 62q53 -20 53 -98z" />
    <glyph glyph-name="Rcaron" unicode="&#x158;" horiz-adv-x="1310" 
d="M592 719q174 0 277 74q133 95 137 286q0 111 -67 167t-165 56t-170 -18l-96 -561q31 -4 84 -4zM420 167q0 -42 22 -59t86 -26q8 -37 4 -88q-104 6 -248 6t-225 -6q0 53 17 88q59 6 90 23t46 55t28 110l149 865q6 33 6 71q0 82 -131 97q-4 16 -4 45t2 43q209 -13 443 -2
l108 2q178 0 288 -79t109 -225q0 -25 -8 -77q-56 -286 -428 -357q92 -123 178 -342q63 -160 127 -159q36 0 70 32q38 -20 61 -65q-57 -70 -111 -104q-54 -33 -130 -33t-119 60t-81 190q-66 225 -175 393q-43 -2 -102 2l-64 -377q-8 -41 -8 -83zM816 1503q-17 0 -23 2
q-121 195 -240 318q10 43 47 57q150 -117 266 -188q176 86 283 170q39 -10 55 -47q-195 -143 -344 -302q-27 -10 -44 -10z" />
    <glyph glyph-name="rcaron" unicode="&#x159;" horiz-adv-x="765" 
d="M430 879q0 -98 -96 -324h4l35 76q80 166 144 246q65 80 149 79q57 0 104 -36q-35 -109 -49 -238q-39 -20 -100 -16q2 18 2 47q0 129 -87 28q-38 -43 -85 -133q-111 -223 -150 -426l-35 -182h-188l115 596q20 102 20 139t-25 48t-96 12q0 53 14 77q48 4 140 33t137 51
q47 -16 47 -77zM521 1057q-17 0 -23 2q-121 195 -240 317q10 43 47 58q150 -117 266 -189q176 86 283 170q39 -10 55 -47q-195 -143 -344 -301q-27 -10 -44 -10z" />
    <glyph glyph-name="Sacute" unicode="&#x15a;" horiz-adv-x="942" 
d="M841 1030q-35 0 -46 2q-1 152 -53 214t-150 62q-205 1 -238 -200q-2 -12 -2 -37q0 -88 60 -151q60 -62 166 -138q108 -76 164 -126q135 -121 135 -277q0 -31 -7 -66q-26 -147 -150 -239t-282 -92t-254 36t-180 111q51 160 59 285q31 10 60 10t51 -6q-2 -20 -2 -60
q0 -147 59 -213t201 -65q98 0 171 65t73 168t-56 164t-160 133t-160 120q-134 118 -134 284q0 201 147 307q115 82 305 82t312 -96q-23 -145 -23 -265q-31 -12 -66 -12zM842 1925q58 0 104 -31q-166 -156 -328 -368q-45 4 -73 28q137 215 190 359q49 12 107 12z" />
    <glyph glyph-name="sacute" unicode="&#x15b;" horiz-adv-x="753" 
d="M156 303q-8 -227 148 -227q147 0 155 94v12q0 41 -31 82q-30 41 -106 116q-76 74 -122 142t-46 158q0 144 102 220q76 56 199 56q73 0 146 -18t118 -47q-35 -104 -39 -221q-35 -18 -100 -19q0 117 -34 163t-106 46q-124 0 -133 -94v-12q0 -43 33 -83t96 -96
q92 -85 140 -151t49 -158q0 -29 -7 -63q-46 -221 -311 -221q-166 0 -284 79q31 113 34 224q47 23 99 18zM706 1479q58 0 105 -31q-166 -156 -328 -369q-45 4 -73 29q137 215 190 358q48 13 106 13z" />
    <glyph glyph-name="Scircumflex" unicode="&#x15c;" horiz-adv-x="942" 
d="M841 1030q-35 0 -46 2q-1 152 -53 214t-150 62q-205 1 -238 -200q-2 -12 -2 -37q0 -88 60 -151q60 -62 166 -138q108 -76 164 -126q135 -121 135 -277q0 -31 -7 -66q-26 -147 -150 -239t-282 -92t-254 36t-180 111q51 160 59 285q31 10 60 10t51 -6q-2 -20 -2 -60
q0 -147 59 -213t201 -65q98 0 171 65t73 168t-56 164t-160 133t-160 120q-134 118 -134 284q0 201 147 307q115 82 305 82t312 -96q-23 -145 -23 -265q-31 -12 -66 -12zM692 1892q31 0 60 -16q80 -129 204 -281q-13 -43 -61 -59q-109 92 -242 166q-150 -76 -280 -170
q-21 30 -21 58t2 34q164 117 320 266z" />
    <glyph glyph-name="scircumflex" unicode="&#x15d;" horiz-adv-x="753" 
d="M156 303q-8 -227 148 -227q147 0 155 94v12q0 41 -31 82q-30 41 -106 116q-76 74 -122 142t-46 158q0 144 102 220q76 56 199 56q73 0 146 -18t118 -47q-35 -104 -39 -221q-35 -18 -100 -19q0 117 -34 163t-106 46q-124 0 -133 -94v-12q0 -43 33 -83t96 -96
q92 -85 140 -151t49 -158q0 -29 -7 -63q-46 -221 -311 -221q-166 0 -284 79q31 113 34 224q47 23 99 18zM557 1446q31 0 59 -16q80 -129 205 -281q-14 -45 -61 -59q-109 92 -242 165q-150 -76 -280 -170q-32 49 -19 93q164 117 320 266z" />
    <glyph glyph-name="Scedilla" unicode="&#x15e;" horiz-adv-x="942" 
d="M414 -301q0 45 -31 69.5t-82 24.5q-32 25 -20 78l92 113q-123 6 -209 42.5t-160 102.5q51 160 59 285q31 10 60 10t51 -6q-2 -20 -2 -60q0 -147 59.5 -212.5t200.5 -65.5q98 0 171 66t73 168t-56 164q-56 61 -160 132q-104 70 -160 120q-134 118 -134 284q0 201 148 307
q114 82 306 82t310 -96q-23 -145 -23 -265q-31 -12 -66 -12t-46 2q-2 152 -53.5 214.5t-149.5 62.5q-205 0 -238 -201q-2 -12 -2 -37q0 -88 59.5 -151.5t167 -138.5t163.5 -125q134 -119 134.5 -285t-135.5 -280q-106 -89 -254 -105l-79 -99q131 -25 131 -154t-107 -188
q-82 -45 -201 -41q-4 10 -4 32.5t2 33.5q185 0 185 129z" />
    <glyph glyph-name="scedilla" unicode="&#x15f;" horiz-adv-x="753" 
d="M156 303q-8 -227 148 -227q147 0 155 94v12q0 41 -31 82t-106.5 116t-121.5 142.5t-46 157.5q0 144 102 220q76 56 219 56t244 -65q-35 -104 -39 -221q-35 -18 -100 -19q0 117 -34 163t-102 46q-129 0 -137 -94v-12q0 -43 33 -83t96 -96q92 -84 140.5 -150.5t48.5 -158.5
q0 -29 -7 -63q-46 -213 -294 -221l-78 -95q131 -25 131 -155q-1 -130 -107 -187q-82 -45 -200 -41q-4 10 -4 32.5t2 33.5q184 0 184 129q0 45 -31 69.5t-82 24.5q-32 25 -20 78l96 119q-109 16 -192 71q31 113 34 224q47 23 99 18z" />
    <glyph glyph-name="Scaron" unicode="&#x160;" horiz-adv-x="942" 
d="M841 1030q-35 0 -46 2q-1 152 -53 214t-150 62q-205 1 -238 -200q-2 -12 -2 -37q0 -88 60 -151q60 -62 166 -138q108 -76 164 -126q135 -121 135 -277q0 -31 -7 -66q-26 -147 -150 -239t-282 -92t-254 36t-180 111q51 160 59 285q31 10 60 10t51 -6q-2 -20 -2 -60
q0 -147 59 -213t201 -65q98 0 171 65t73 168t-56 164t-160 133t-160 120q-134 118 -134 284q0 201 147 307q115 82 305 82t312 -96q-23 -145 -23 -265q-31 -12 -66 -12zM613 1503q-17 0 -23 2q-121 195 -240 318q10 43 47 57q150 -117 267 -188q176 86 282 170
q39 -10 55 -47q-195 -143 -344 -302q-27 -10 -44 -10z" />
    <glyph glyph-name="scaron" unicode="&#x161;" horiz-adv-x="753" 
d="M156 303q-8 -227 148 -227q147 0 155 94v12q0 41 -31 82q-30 41 -106 116q-76 74 -122 142t-46 158q0 144 102 220q76 56 199 56q73 0 146 -18t118 -47q-35 -104 -39 -221q-35 -18 -100 -19q0 117 -34 163t-106 46q-124 0 -133 -94v-12q0 -43 33 -83t96 -96
q92 -85 140 -151t49 -158q0 -29 -7 -63q-46 -221 -311 -221q-166 0 -284 79q31 113 34 224q47 23 99 18zM478 1057q-17 0 -23 2q-121 195 -240 317q10 43 47 58q150 -117 266 -189q176 86 283 170q39 -10 55 -47q-195 -143 -344 -301q-27 -10 -44 -10z" />
    <glyph glyph-name="Tcedilla" unicode="&#x162;" horiz-adv-x="1116" 
d="M725 1385q409 0 522 6q-27 -156 -26 -324q-37 -20 -99 -16q-2 98 -19.5 152t-61.5 78t-130 24h-102l-184 -1055q-9 -53 -9 -84q-1 -67 146 -84q6 -25 6 -50t-2 -38q-98 6 -201 6l-92 -113q131 -25 131 -154.5t-106 -187.5q-82 -45 -201 -41q-4 10 -4 32.5t2 33.5
q184 0 184 129q0 45 -30.5 69.5t-81.5 24.5q-23 18 -23 43.5t2 34.5l107 129q-127 0 -217 -6q0 51 14 90q68 8 102.5 25.5t53 53.5t30.5 107l180 1035h-120q-109 0 -166.5 -58.5t-104.5 -202.5q-67 0 -96 29q54 170 74 318q113 -6 522 -6z" />
    <glyph glyph-name="tcedilla" unicode="&#x163;" horiz-adv-x="659" 
d="M518 1212q0 -47 -35 -194l-22 -100h231q0 -49 -14 -80q-145 0 -240 -15l-96 -407q-25 -105 -25 -185q0 -123 72 -122q35 0 77 25.5t75 66.5q33 -19 43 -66q-41 -53 -104.5 -96t-131.5 -55l-80 -97q131 -25 131 -154.5t-106 -187.5q-82 -45 -201 -41q-4 10 -4 32.5t2 33.5
q184 0 184 129q0 45 -30.5 69.5t-81.5 24.5q-23 18 -23 43.5t2 34.5l99 119q-115 35 -115 200q0 80 29 211l96 424q-94 12 -152 13q0 47 23 80h151l4 20q47 209 54 283q103 14 162 49q26 -11 26 -58z" />
    <glyph glyph-name="Tcaron" unicode="&#x164;" horiz-adv-x="1116" 
d="M725 1385q409 0 522 6q-27 -156 -26 -324q-37 -20 -99 -16q-2 98 -19 152t-61 78t-131 24h-102l-184 -1055q-9 -53 -9 -84q-1 -67 146 -84q6 -25 6 -50t-2 -38q-86 6 -272 6t-258 -6q0 51 14 90q68 8 102 26t54 53q18 36 30 107l180 1035h-120q-109 -1 -166 -59
t-105 -202q-67 0 -96 29q54 170 74 318q113 -6 522 -6zM726 1503q-17 0 -24 2q-121 195 -239 318q10 43 47 57q150 -117 266 -188q176 86 283 170q39 -10 55 -47q-195 -143 -344 -302q-27 -10 -44 -10z" />
    <glyph glyph-name="tcaron" unicode="&#x165;" horiz-adv-x="851" 
d="M518 1212q0 -47 -35 -194l-24 -100h233q0 -49 -14 -80q-145 0 -240 -15l-96 -407q-25 -104 -25 -185q0 -123 72 -122q35 0 77 25.5t75 66.5q33 -19 43 -66q-47 -61 -122 -107t-160 -46q-177 0 -177 211q0 82 29 208l96 424q-94 12 -152 13q0 47 23 80h151l4 20
q47 209 54 283q103 14 162 49q26 -11 26 -58zM1018 1356q0 -37 -10 -82q-33 -178 -213 -332q-46 0 -70 43q125 125 125 199t-92 98q0 86 30 129q43 2 95.5 19.5t83.5 37.5q51 -26 51 -112z" />
    <glyph glyph-name="Tbar" unicode="&#x166;" horiz-adv-x="1116" 
d="M725 1385q409 0 522 6q-27 -156 -26 -324q-37 -20 -99 -16q-2 98 -19.5 152t-61.5 78t-130 24h-102l-104 -594h270q0 -43 -19 -88h-266l-65 -373q-9 -53 -9 -84q-1 -67 146 -84q6 -25 6 -50t-2 -38q-86 6 -271.5 6t-258.5 -6q0 51 14 90q68 8 102.5 25.5t53 53.5
t30.5 107l62 351l-254 -5q0 64 18 95h250l104 594h-120q-109 0 -166.5 -58.5t-104.5 -202.5q-67 0 -96 29q54 170 74 318q113 -6 522 -6z" />
    <glyph glyph-name="tbar" unicode="&#x167;" horiz-adv-x="679" 
d="M518 1212q0 -47 -35 -194l-22 -100h231q0 -49 -14 -80q-146 -1 -240 -15l-55 -229h143q0 -33 -18 -88h-146l-20 -90q-25 -104 -25 -185q0 -123 72 -122q35 0 77 25.5t75 66.5q33 -19 43 -66q-47 -61 -122 -107t-160 -46q-177 0 -177 211q0 82 29 208l22 103l-117 -4
q0 49 19 94h121l51 231q-94 12 -152 13q0 47 23 80h151l4 20q47 209 54 283q103 14 162 49q26 -11 26 -58z" />
    <glyph glyph-name="Umacron" unicode="&#x16a;" horiz-adv-x="1300" 
d="M381 389q0 -299 286 -299q140 0 240 108t135 306l97 549q12 69 12 119t-27 79t-96 52q-4 16 -4 45t2 43q211 -15 408 0q0 -45 -19 -88q-61 -19 -92 -45t-48 -74t-36 -152l-90 -510q-49 -276 -179 -408t-350 -132t-325 101q-106 101 -107 290q0 78 15 151l104 611
q8 43 8 83t-20 58q-20 20 -72 27q-4 14 -4 44t2 44q97 -7 235 -7t238 7q-4 -53 -18 -88q-66 -5 -98 -21t-50 -53t-32 -115l-101 -582q-14 -74 -14 -143zM1284 1739q0 -41 -18 -88q-420 0 -713 -6q0 65 18 94h713z" />
    <glyph glyph-name="umacron" unicode="&#x16b;" horiz-adv-x="1040" 
d="M606 129q0 100 41 180h-4q-35 -73 -95 -149t-136 -127t-150 -51q-147 0 -147 208q0 106 47 294t47 238t-24 61t-89 12q-2 9 -2 31t12 46q46 4 140 33t133 51q23 -14 33 -28t10 -63t-60 -296q-60 -246 -59 -323q0 -113 66 -113q43 0 113 66q70 65 134 191t97 300l47 248
h186l-100 -508q-45 -225 -45 -259t7 -41t26 -7q39 0 100 63q25 -23 39 -65q-51 -59 -113 -99t-117 -40q-137 0 -137 147zM272 1198q0 66 19 94h713q-1 -41 -19 -88q-420 0 -713 -6z" />
    <glyph glyph-name="Ubreve" unicode="&#x16c;" horiz-adv-x="1300" 
d="M381 389q0 -299 286 -299q140 0 240 108t135 306l97 549q12 69 12 119t-27 79t-96 52q-4 16 -4 45t2 43q211 -15 408 0q0 -45 -19 -88q-61 -19 -92 -45t-48 -74t-36 -152l-90 -510q-49 -276 -179 -408t-350 -132t-325 101q-106 101 -107 290q0 78 15 151l104 611
q8 43 8 83t-20 58q-20 20 -72 27q-4 14 -4 44t2 44q97 -7 235 -7t238 7q-4 -53 -18 -88q-66 -5 -98 -21t-50 -53t-32 -115l-101 -582q-14 -74 -14 -143zM892 1526q-294 0 -294 246q0 37 10 92q41 23 86 22q-6 -104 56 -166t176 -61q112 0 192 61t109 166q47 0 63 -12
q-32 -166 -140 -257t-258 -91z" />
    <glyph glyph-name="ubreve" unicode="&#x16d;" horiz-adv-x="1040" 
d="M606 129q0 100 41 180h-4q-35 -73 -95 -149t-136 -127t-150 -51q-147 0 -147 208q0 106 47 294t47 238t-24 61t-89 12q-2 9 -2 31t12 46q46 4 140 33t133 51q23 -14 33 -28t10 -63t-60 -296q-60 -246 -59 -323q0 -113 66 -113q43 0 113 66q70 65 134 191t97 300l47 248
h186l-100 -508q-45 -225 -45 -259t7 -41t26 -7q39 0 100 63q25 -23 39 -65q-51 -59 -113 -99t-117 -40q-137 0 -137 147zM611 1079q-294 0 -294 246q0 37 11 92q41 23 86 23q-6 -104 56 -166t175 -62t193 62t108 166q47 0 64 -13q-33 -166 -141 -257t-258 -91z" />
    <glyph glyph-name="Uring" unicode="&#x16e;" horiz-adv-x="1300" 
d="M381 389q0 -299 286 -299q140 0 240 108t135 306l97 549q12 69 12 119t-27 79t-96 52q-4 16 -4 45t2 43q211 -15 408 0q0 -45 -19 -88q-61 -19 -92 -45t-48 -74t-36 -152l-90 -510q-49 -276 -179 -408t-350 -132t-325 101q-106 101 -107 290q0 78 15 151l104 611
q8 43 8 83t-20 58q-20 20 -72 27q-4 14 -4 44t2 44q97 -7 235 -7t238 7q-4 -53 -18 -88q-66 -5 -98 -21t-50 -53t-32 -115l-101 -582q-14 -74 -14 -143zM911 1599q103 0 103 142q0 28 -22 57t-64 29t-74 -41q-31 -41 -31 -89t24 -73t64 -25zM1128 1718q0 -80 -60 -138
q-60 -56 -158 -56t-148 45q-49 45 -49 127t61 141q62 59 162 59t146 -49t46 -129z" />
    <glyph glyph-name="uring" unicode="&#x16f;" horiz-adv-x="1040" 
d="M606 129q0 100 41 180h-4q-35 -73 -95 -149t-136 -127t-150 -51q-147 0 -147 208q0 106 47 294t47 238t-24 61t-89 12q-2 9 -2 31t12 46q46 4 140 33t133 51q23 -14 33 -28t10 -63t-60 -296q-60 -246 -59 -323q0 -113 66 -113q43 0 113 66q70 65 134 191t97 300l47 248
h186l-100 -508q-45 -225 -45 -259t7 -41t26 -7q39 0 100 63q25 -23 39 -65q-51 -59 -113 -99t-117 -40q-137 0 -137 147zM631 1153q102 -1 102 141q0 28 -21 58q-22 28 -65 28t-74 -41t-31 -89q2 -97 89 -97zM848 1271q0 -81 -60 -137t-159 -56q-98 0 -148 44
q-49 45 -49 127q0 81 62 141t162 60t146 -49t46 -130z" />
    <glyph glyph-name="Uhungarumlaut" unicode="&#x170;" horiz-adv-x="1300" 
d="M381 389q0 -299 286 -299q140 0 240 108t135 306l97 549q12 69 12 119t-27 79t-96 52q-4 16 -4 45t2 43q211 -15 408 0q0 -45 -19 -88q-61 -19 -92 -45t-48 -74t-36 -152l-90 -510q-49 -276 -179 -408t-350 -132t-325 101q-106 101 -107 290q0 78 15 151l104 611
q8 43 8 83t-20 58q-20 20 -72 27q-4 14 -4 44t2 44q97 -7 235 -7t238 7q-4 -53 -18 -88q-66 -5 -98 -21t-50 -53t-32 -115l-101 -582q-14 -74 -14 -143zM962 1925q58 0 105 -31q-166 -156 -328 -368q-45 4 -73 28q137 215 190 359q48 12 106 12zM1290 1925q58 0 105 -31
q-166 -156 -328 -368q-45 4 -74 28q137 215 191 359q48 12 106 12z" />
    <glyph glyph-name="uhungarumlaut" unicode="&#x171;" horiz-adv-x="1040" 
d="M606 129q0 100 41 180h-4q-35 -74 -95.5 -149.5t-136 -126.5t-149.5 -51q-147 0 -147 208q0 106 47 294t47 238t-23.5 61.5t-89.5 11.5q-2 9 -2 31t12 46q47 4 140.5 33t132.5 51q22 -14 32.5 -28.5t10.5 -64.5t-60 -295t-59 -322q0 -113 66 -113q43 0 112.5 65.5
t134 191.5t97.5 300l47 248h186l-100 -508q-45 -225 -45 -259t7 -41t34 -7t92 63q25 -23 39 -65q-51 -59 -113.5 -99t-116.5 -40q-137 0 -137 147zM1010 1479q58 0 104 -31q-166 -156 -328 -369q-45 4 -73 29q137 215 190 358q49 13 107 13zM684 1479q58 0 102 -31
q-166 -156 -327 -369q-45 4 -74 29q137 215 190 358q51 13 109 13z" />
    <glyph glyph-name="Uogonek" unicode="&#x172;" horiz-adv-x="1300" 
d="M381 389q-1 -299 285 -299q140 0 241 107.5t135 306.5l97 549q12 69 12 119t-26.5 79t-96.5 52q-4 16 -4 45t2 43q86 -6 200 -6t208 6q0 -45 -19 -88q-61 -20 -92 -45t-48.5 -74t-35.5 -152l-90 -510q-65 -367 -283 -485q-223 -161 -223 -267q0 -50 32 -77t79 -27t90 17
q6 -19 6 -35t-4 -45q-88 -41 -170 -109q-12 -4 -39 -4q-63 0 -115.5 46t-52.5 132q0 180 227 318q-49 -4 -80 -4q-215 0 -321.5 101t-106.5 290q0 78 15 151l104 611q8 43 8 83t-20.5 59t-71.5 26q-4 14 -4 44t2 44q250 -16 473 0q-4 -53 -18 -88q-66 -6 -98.5 -21.5
t-50 -52.5t-31.5 -115l-101 -582q-14 -74 -14 -143z" />
    <glyph glyph-name="uogonek" unicode="&#x173;" horiz-adv-x="1040" 
d="M842 123q27 0 92 63q25 -23 39 -65q-57 -63 -111 -96q-205 -155 -205 -261q0 -43 32 -70.5t79 -27.5t90 17q6 -19 6 -35t-4 -45q-88 -41 -170 -109q-12 -4 -39 -4q-63 0 -115.5 46t-52.5 178.5t226 269.5q-102 16 -103 145q0 100 41 180h-4q-35 -74 -95.5 -149.5
t-136 -126.5t-149.5 -51q-147 0 -147 208q0 106 47 294t47 238t-23.5 61.5t-89.5 11.5q-2 9 -2 31t12 46q47 4 140.5 33t132.5 51q23 -14 33 -28.5t10 -64.5t-60 -295t-59 -322q0 -113 66 -113q43 0 112.5 65.5t134 191.5t97.5 300l47 248h186l-100 -508q-45 -225 -45 -259
t7 -41t34 -7z" />
    <glyph glyph-name="Wcircumflex" unicode="&#x174;" horiz-adv-x="1972" 
d="M1380 -12q-26 0 -34 2q-90 609 -218 1091q-227 -498 -540 -1081q-20 -14 -50 -14t-38 2q-84 586 -140 890t-68 344t-26 56q-16 16 -49 27q-8 25 -8 50t2 36q290 -16 463 0q0 -55 -15 -91q-89 -16 -119 -40t-30 -72t39 -268t96 -617q238 459 526 1086q25 12 51 12t38 -2
q134 -502 225 -1075q166 328 257 550t104 264q14 42 14 76t-28 54t-93 35q-4 16 -4 46t2 42q55 -6 191 -6t188 6q0 -45 -19 -88q-51 -23 -91 -81t-197 -423t-379 -799q-24 -12 -50 -12zM969 1590q0 28 2 34q164 117 319 266l19 2q31 0 59 -16q80 -129 205 -281
q-13 -43 -62 -59q-109 92 -241 166q-150 -76 -281 -170q-20 30 -20 58z" />
    <glyph glyph-name="wcircumflex" unicode="&#x175;" horiz-adv-x="1421" 
d="M1364 743q0 -131 -101 -307t-372 -454q-57 -4 -98 18q-20 256 -58 459q-43 -121 -117 -223t-225 -254q-57 -4 -98 18q-23 351 -98 668q-13 55 -27 82q-14 26 -41 36t-80 9q0 49 10 77q49 6 109 32t96 52q39 -12 58 -33q46 -56 86 -353q41 -296 49 -408q111 128 161 240
q91 201 15 489q74 18 112 65q33 -8 49 -25q45 -46 121 -502q27 -157 37 -265q117 145 173 265t57 200q0 79 -32 117t-99 47q-16 35 -13 75q54 16 116 43t87 45q123 -47 123 -213zM813 1446q31 0 59 -16q80 -129 205 -281q-14 -45 -61 -59q-109 92 -242 165
q-150 -76 -280 -170q-32 49 -19 93q164 117 320 266z" />
    <glyph glyph-name="Ycircumflex" unicode="&#x176;" 
d="M690 182q0 -45 30 -65t116 -35q6 -25 6 -50t-2 -38q-86 6 -272 6t-259 -6q0 51 15 90q70 12 104 28t52 52q17 35 30 106l49 279q-86 279 -160 459t-94 218q-19 38 -39 52t-53 27q-4 16 -4 44t2 42q75 -7 229 -7t256 7q0 -39 -18 -91q-76 -10 -108 -29q-54 -32 -13 -132
q90 -231 158 -486q152 209 284 434q57 97 57 135t-22 54q-23 16 -73 27q-10 40 -3 88q68 -6 190 -6t189 6q0 -45 -18 -88q-45 -17 -81 -51t-158 -228t-328 -473l-54 -301q-8 -53 -8 -68zM915 1892q31 0 60 -16q80 -129 205 -281q-13 -43 -62 -59q-109 92 -241 166
q-150 -76 -281 -170q-20 30 -20 58t2 34q164 117 319 266z" />
    <glyph glyph-name="ycircumflex" unicode="&#x177;" horiz-adv-x="915" 
d="M-78 -508q-86 0 -172 74q-6 61 14 123q102 -33 188 -33t154 47t175 186q-24 485 -103 779q-14 55 -27 82q-13 26 -40 36t-80 9v18q0 37 10 59q49 6 109 32t96 52q35 -12 52 -28q52 -49 111 -509q19 -155 25 -317l19 29q113 168 173 315t60 215t-26 96t-89 36
q-16 35 -12 75q53 14 115 43t88 47q55 -20 83 -63t27 -98q0 -125 -91 -303t-270 -438t-275 -374t-162 -152t-152 -38zM213 1144q0 28 2 34q164 117 320 266l18 2q31 0 59 -16q80 -129 205 -281q-14 -45 -61 -59q-109 92 -242 165q-150 -76 -281 -170q-20 31 -20 59z" />
    <glyph glyph-name="Ydieresis" unicode="&#x178;" 
d="M690 182q0 -45 30 -65t116 -35q6 -25 6 -50t-2 -38q-86 6 -272 6t-259 -6q0 51 15 90q70 12 104 28t52 52q17 35 30 106l49 279q-86 279 -160 459t-94 218q-19 38 -39 52t-53 27q-4 16 -4 44t2 42q75 -7 229 -7t256 7q0 -39 -18 -91q-76 -10 -108 -29q-54 -32 -13 -132
q90 -231 158 -486q152 209 284 434q57 97 57 135t-22 54q-23 16 -73 27q-10 40 -3 88q68 -6 190 -6t189 6q0 -45 -18 -88q-45 -17 -81 -51t-158 -228t-328 -473l-54 -301q-8 -53 -8 -68zM1026 1538q-45 0 -70 26q-24 26 -24 76t32 83q32 34 81 34q49 1 75 -23t25 -78
q0 -54 -37 -86t-82 -32zM726 1757q50 -1 75 -25t25 -50q-2 -81 -40 -113q-38 -33 -80 -33t-67 26t-25 78t31 84q31 33 81 33z" />
    <glyph glyph-name="Zacute" unicode="&#x179;" horiz-adv-x="1105" 
d="M447 0q-310 0 -472 -6q-20 35 -18 84q475 571 944 1216h-270q-97 0 -155 -20t-103 -76t-88 -168q-68 6 -107 39q61 138 88 322q166 -7 444 -7t439 7q27 -31 27 -84q-502 -684 -940 -1215h296q133 1 202 19t114 71t94 170q63 -12 102 -49q-63 -154 -90 -309q-197 6 -507 6
zM936 1925q58 0 104 -31q-166 -156 -327 -368q-45 4 -74 28q137 215 190 359q49 12 107 12z" />
    <glyph glyph-name="zacute" unicode="&#x17a;" horiz-adv-x="815" 
d="M459 774q-82 0 -126 -10t-73 -34t-61 -71q-47 0 -76 35q63 115 86 244q121 12 267 12t265 -12q24 -34 29 -74q-92 -172 -236 -359t-311 -347q45 14 109 14l69 -2q45 -4 93 -4t78 22q28 22 63 88q53 5 88 -24q-47 -109 -59 -234q-28 -36 -175 -36l-335 18q-78 0 -142 -18
q-23 37 -20 81q433 393 610 699q-61 12 -143 12zM750 1479q58 0 104 -31q-166 -156 -328 -369q-45 4 -73 29q137 215 190 358q49 13 107 13z" />
    <glyph glyph-name="Zdotaccent" unicode="&#x17b;" horiz-adv-x="1105" 
d="M447 0q-310 0 -472 -6q-20 35 -18 84q475 571 944 1216h-270q-97 0 -155 -20t-103 -76t-88 -168q-68 6 -107 39q61 138 88 322q166 -7 444 -7t439 7q27 -31 27 -84q-502 -684 -940 -1215h296q133 1 202 19t114 71t94 170q63 -12 102 -49q-63 -154 -90 -309q-197 6 -507 6
zM765 1776q109 0 109 -108q0 -54 -42 -95t-96 -41q-112 0 -110 106q0 52 43 96q42 42 96 42z" />
    <glyph glyph-name="zdotaccent" unicode="&#x17c;" horiz-adv-x="815" 
d="M459 774q-82 0 -126 -10t-73 -34t-61 -71q-47 0 -76 35q63 115 86 244q121 12 267 12t265 -12q24 -34 29 -74q-92 -172 -236 -359t-311 -347q45 14 109 14l69 -2q45 -4 93 -4t78 22q28 22 63 88q53 5 88 -24q-47 -109 -59 -234q-28 -36 -175 -36l-335 18q-78 0 -142 -18
q-23 37 -20 81q433 393 610 699q-61 12 -143 12zM602 1325q94 0 94 -104q0 -54 -40 -98t-90 -44t-74 25t-25 50q0 25 8 64t45 73t82 34z" />
    <glyph glyph-name="Zcaron" unicode="&#x17d;" horiz-adv-x="1105" 
d="M447 0q-310 0 -472 -6q-20 35 -18 84q475 571 944 1216h-270q-97 0 -155 -20t-103 -76t-88 -168q-68 6 -107 39q61 138 88 322q166 -7 444 -7t439 7q27 -31 27 -84q-502 -684 -940 -1215h296q133 1 202 19t114 71t94 170q63 -12 102 -49q-63 -154 -90 -309q-197 6 -507 6
zM708 1503q-18 0 -24 2q-121 195 -240 318q10 43 48 57q150 -117 266 -188q176 86 282 170q40 -10 56 -47q-195 -143 -344 -302q-26 -10 -44 -10z" />
    <glyph glyph-name="zcaron" unicode="&#x17e;" horiz-adv-x="815" 
d="M459 774q-82 0 -126 -10t-73 -34t-61 -71q-47 0 -76 35q63 115 86 244q121 12 267 12t265 -12q24 -34 29 -74q-92 -172 -236 -359t-311 -347q45 14 109 14l69 -2q45 -4 93 -4t78 22q28 22 63 88q53 5 88 -24q-47 -109 -59 -234q-28 -36 -175 -36l-335 18q-78 0 -142 -18
q-23 37 -20 81q433 393 610 699q-61 12 -143 12zM521 1057q-17 0 -23 2q-121 195 -240 317q10 43 47 58q150 -117 266 -189q176 86 283 170q39 -10 55 -47q-195 -143 -344 -301q-27 -10 -44 -10z" />
    <glyph glyph-name="longs" unicode="&#x17f;" horiz-adv-x="581" 
d="M-106 -508q-96 0 -183 74q-6 61 15 123q102 -33 227 -33q53 0 94.5 40t97.5 425l37 268q31 252 62 436q-94 12 -146 13q0 47 23 80h137q45 272 178 408t294 136t224 -51q-47 -100 -53 -219q-35 -20 -86 -16q-8 192 -129 192q-57 0 -108.5 -54.5t-109.5 -357.5
q-58 -302 -101 -591l-21 -123q-57 -342 -174 -546t-278 -204z" />
    <glyph glyph-name="florin" unicode="&#x192;" horiz-adv-x="757" 
d="M657 918q0 -49 -14 -80q-96 0 -207 -17q-46 -257 -64 -375q-64 -433 -131 -611.5t-164 -260.5t-240 -82t-216 51q47 100 53 219q35 20 86 17q2 -96 36 -144.5t87 -48.5q174 0 256 535l97 704q-90 12 -144 13q0 47 23 80h137q46 277 178.5 410.5t310.5 133.5
q139 0 207 -51q-47 -100 -53 -219q-35 -20 -86 -16q-8 192 -129 192q-57 0 -106 -52t-119 -398h202z" />
    <glyph glyph-name="Oslashacute" unicode="&#x1fe;" horiz-adv-x="1517" 
d="M1272 784q0 160 -60 289q-418 -442 -778 -842q111 -159 311 -159q201 0 333 147t175 383q19 94 19 182zM336 592q0 -156 49 -273l776 840q-114 154 -307 154q-119 0 -223 -71q-104 -70 -176 -192q-119 -200 -119 -458zM1483 809q0 -303 -158 -519q-104 -142 -264 -225
q-161 -83 -371 -83t-366 127l-113 -127q-75 0 -92 49l137 147q-133 162 -133 408q0 292 159 505q108 144 268 228t366 84t360 -119l108 119q69 0 101 -43l-137 -143q135 -154 135 -408zM1142 1925q58 0 105 -31q-166 -156 -327 -368q-45 4 -74 28q137 215 190 359
q48 12 106 12z" />
    <glyph glyph-name="oslashacute" unicode="&#x1ff;" horiz-adv-x="944" 
d="M398 80q87 0 164 110t108 277q16 86 16 145l-2 35q-145 -160 -412 -465q39 -102 126 -102zM536 858q-89 0 -163 -101t-107 -265q-18 -86 -18 -160l2 -43l414 463q-39 106 -128 106zM883 636q0 -236 -108 -409q-73 -115 -179 -181t-229 -64q-123 0 -207 71l-92 -108
q-60 0 -88 41l122 137q-51 88 -51 217q0 215 112 384q154 232 408 232q127 0 209 -75l99 110q59 6 98 -26q-37 -37 -143 -152q49 -81 49 -177zM790 1479q58 0 105 -31q-166 -156 -328 -369q-45 4 -73 29q137 215 190 358q48 13 106 13z" />
    <glyph glyph-name="Scommaaccent" unicode="&#x218;" horiz-adv-x="942" 
d="M841 1030q-35 0 -46 2q-1 152 -53 214t-150 62q-205 1 -238 -200q-2 -12 -2 -37q0 -88 60 -151q60 -62 166 -138q108 -76 164 -126q135 -121 135 -277q0 -31 -7 -66q-26 -147 -150 -239t-282 -92t-254 36t-180 111q51 160 59 285q31 10 60 10t51 -6q-2 -20 -2 -60
q0 -147 59 -213t201 -65q98 0 171 65t73 168t-56 164t-160 133t-160 120q-134 118 -134 284q0 201 147 307q115 82 305 82t312 -96q-23 -145 -23 -265q-31 -12 -66 -12zM328 -332q0 49 -66 60q-4 72 35 122q102 20 174 62q53 -20 53 -98q0 -116 -85 -215t-191 -170
q-39 16 -47 47q127 110 127 192z" />
    <glyph glyph-name="scommaaccent" unicode="&#x219;" horiz-adv-x="753" 
d="M156 303q-8 -227 148 -227q147 0 155 94v12q0 41 -31 82q-30 41 -106 116q-76 74 -122 142t-46 158q0 144 102 220q76 56 199 56q73 0 146 -18t118 -47q-35 -104 -39 -221q-35 -18 -100 -19q0 117 -34 163t-106 46q-124 0 -133 -94v-12q0 -43 33 -83t96 -96
q92 -85 140 -151t49 -158q0 -29 -7 -63q-46 -221 -311 -221q-166 0 -284 79q31 113 34 224q47 23 99 18zM166 -332q0 49 -66 60q-4 70 35 122q102 20 174 62q53 -20 53 -98q0 -116 -85 -215t-191 -170q-39 16 -47 47q127 110 127 192z" />
    <glyph glyph-name="uni021A" unicode="&#x21a;" horiz-adv-x="1116" 
d="M725 1385q409 0 522 6q-27 -156 -26 -324q-37 -20 -99 -16q-2 98 -19 152t-61 78t-131 24h-102l-184 -1055q-9 -53 -9 -84q-1 -67 146 -84q6 -25 6 -50t-2 -38q-86 6 -272 6t-258 -6q0 51 14 90q68 8 102 26t54 53q18 36 30 107l180 1035h-120q-109 -1 -166 -59
t-105 -202q-67 0 -96 29q54 170 74 318q113 -6 522 -6zM393 -332q0 49 -65 60q-4 71 34 122q102 20 175 62q53 -20 53 -98q0 -116 -85 -215t-192 -170q-39 16 -47 47q127 110 127 192z" />
    <glyph glyph-name="uni021B" unicode="&#x21b;" horiz-adv-x="659" 
d="M518 1212q0 -47 -35 -194l-22 -100h231q0 -49 -14 -80q-145 0 -240 -15l-96 -407q-25 -105 -25 -185q0 -123 72 -122q78 0 152 92q30 -17 43 -66q-47 -61 -122 -107t-160 -46q-177 0 -177 211q0 82 29 208l96 424q-94 12 -152 13q0 47 23 80h151l4 20q47 209 54 283
q103 14 162 49q26 -11 26 -58zM385 -186q0 -116 -85 -215t-191 -170q-39 16 -48 47q129 112 127 192q0 49 -65 60q-4 72 35 122q102 20 174 62q53 -20 53 -98z" />
    <glyph glyph-name="dotlessj" unicode="&#x237;" horiz-adv-x="477" 
d="M412 836q0 -55 -25 -183l-94 -501q-47 -254 -166 -409t-340 -253q-29 25 -31 68q278 196 342 546l101 539q10 55 10 89t-25.5 48.5t-97.5 14.5q-4 47 12 77q47 5 126 32.5t118 51.5q37 -16 53.5 -40.5t16.5 -79.5z" />
    <glyph glyph-name="uni02BC" unicode="&#x2bc;" horiz-adv-x="401" 
d="M330 1208q0 70 -86 90q0 86 30 129q44 1 96 19t83 39q51 -29 51 -111q0 -140 -101 -284q-72 -104 -174 -187q-46 0 -69 43q170 157 170 262z" />
    <glyph glyph-name="circumflex" unicode="&#x2c6;" horiz-adv-x="741" 
d="M203 1144q0 28 2 34q164 117 319 266l19 2q31 0 59 -16q80 -129 205 -281q-14 -45 -62 -59q-109 92 -241 165q-150 -76 -281 -170q-20 31 -20 59z" />
    <glyph glyph-name="caron" unicode="&#x2c7;" horiz-adv-x="808" 
d="M534 1057q-18 0 -24 2q-121 195 -240 317q10 43 47 58q150 -117 267 -189q176 86 282 170q40 -10 56 -47q-195 -143 -344 -301q-26 -10 -44 -10z" />
    <glyph glyph-name="firsttonechinese" unicode="&#x2c9;" horiz-adv-x="858" 
d="M946 1292q0 -41 -18 -88q-420 0 -713 -6q0 65 18 94h713z" />
    <glyph glyph-name="breve" unicode="&#x2d8;" horiz-adv-x="815" 
d="M536 1079q-294 0 -294 246q0 37 10 92q41 23 86 23q-6 -104 56.5 -166t175 -62t192.5 61.5t108 166.5q47 0 64 -13q-33 -165 -140.5 -256.5t-257.5 -91.5z" />
    <glyph glyph-name="dotaccent" unicode="&#x2d9;" horiz-adv-x="505" 
d="M430 1325q92 1 92 -103q0 -54 -40 -98.5t-90 -44.5t-74.5 24.5t-24.5 50.5t8 64q8 39 45 73t84 34z" />
    <glyph glyph-name="ring" unicode="&#x2da;" horiz-adv-x="550" 
d="M420 1153q102 -1 102 141q0 28 -21.5 57t-64.5 29t-73.5 -41t-30.5 -89t23.5 -72.5t64.5 -24.5zM637 1271q0 -81 -60.5 -137.5t-158.5 -56.5t-147.5 45t-49.5 127t61.5 141.5t161.5 59.5t146.5 -49t46.5 -130z" />
    <glyph glyph-name="ogonek" unicode="&#x2db;" horiz-adv-x="552" 
d="M49 -238q0 -45 26.5 -72.5t70.5 -27.5t73 19q31 -29 37 -72q-88 -53 -154 -119q-18 -6 -43 -6q-82 0 -133 45t-51 131q0 258 369 432l61 -41q-119 -43 -187.5 -123t-68.5 -166z" />
    <glyph glyph-name="tilde" unicode="&#x2dc;" horiz-adv-x="796" 
d="M401 1141q-91 0 -184 -78q-25 16 -20 49q135 172 249 172q57 0 138 -43q80 -43 110 -43q76 0 150 74q25 -10 37 -41q-112 -178 -222 -178q-55 0 -131 45q-84 43 -127 43z" />
    <glyph glyph-name="hungarumlaut" unicode="&#x2dd;" horiz-adv-x="798" 
d="M818 1479q58 0 104 -31q-166 -156 -328 -369q-45 4 -74 29q137 215 191 358q49 13 107 13zM490 1479q58 0 104 -31q-166 -156 -328 -369q-45 4 -73 29q137 215 190 358q49 13 107 13z" />
    <glyph glyph-name="uni0326" unicode="&#x326;" horiz-adv-x="0" 
d="M-45 -332q0 49 -66 60q-4 70 35 122q102 20 174 62q54 -20 54 -98q0 -10 -5 -39q-30 -185 -272 -346q-39 16 -47 47q127 110 127 192z" />
    <glyph glyph-name="mu" unicode="&#x3bc;" horiz-adv-x="997" 
d="M799 123q27 0 92 63q25 -23 39 -65q-51 -59 -113.5 -99t-116.5 -40q-121 0 -120 124q0 32 9 82t23 80h-2q-45 -125 -126 -205.5t-158 -80.5q-113 0 -142 120h-2q4 -111 -17 -210q-21 -100 -21 -168t3 -86q-45 -18 -104 -57.5t-98 -76.5q-27 18 -27 46t27 113t53 228
l201 1047h186l-80 -410q-20 -102 -20 -192t26.5 -141.5t70.5 -51.5t97 58.5t101.5 168t76.5 259.5l60 309h186l-100 -508q-45 -225 -45 -259t7 -41t34 -7z" />
    <glyph glyph-name="pi" unicode="&#x3c0;" horiz-adv-x="1140" 
d="M76 739q164 209 420 209q122 0 249 -6l205 -4q68 0 105 10t60.5 38t47.5 85q61 -19 88 -39q-53 -123 -75 -248q-12 -16 -45 -23t-136 -7h-45q-98 -419 -98 -521q0 -45 15 -61t49 -16t98 16q18 -35 16 -82q-51 -55 -98 -81.5t-107 -26.5q-145 0 -145 166t172 608l-340 8
q-84 -434 -153.5 -589t-88.5 -175q-111 0 -186 -18q-16 25 -16 51t2 37q123 90 213 299t129 397q-109 4 -159 -11.5t-128 -76.5q-33 8 -49 61z" />
    <glyph glyph-name="Wgrave" unicode="&#x1e80;" horiz-adv-x="1972" 
d="M1380 -12q-26 0 -34 2q-90 609 -218 1091q-227 -498 -540 -1081q-20 -14 -50 -14t-38 2q-84 586 -140 890t-68 344t-26 56q-16 16 -49 27q-8 25 -8 50t2 36q290 -16 463 0q0 -55 -15 -91q-89 -16 -119 -40t-30 -72t39 -268t96 -617q238 459 526 1086q25 12 51 12t38 -2
q134 -502 225 -1075q166 328 257 550t104 264q14 42 14 76t-28 54t-93 35q-4 16 -4 46t2 42q55 -6 191 -6t188 6q0 -45 -19 -88q-51 -23 -91 -81t-197 -423t-379 -799q-24 -12 -50 -12zM1242 1540q-24 0 -40 8q-102 203 -211 340q108 35 193 4q29 -182 90 -348q-8 -4 -32 -4
z" />
    <glyph glyph-name="wgrave" unicode="&#x1e81;" horiz-adv-x="1421" 
d="M1364 743q0 -131 -101 -307t-372 -454q-57 -4 -98 18q-20 256 -58 459q-43 -121 -117 -223t-225 -254q-57 -4 -98 18q-23 351 -98 668q-13 55 -27 82q-14 26 -41 36t-80 9q0 49 10 77q49 6 109 32t96 52q39 -12 58 -33q46 -56 86 -353q41 -296 49 -408q111 128 161 240
q91 201 15 489q74 18 112 65q33 -8 49 -25q45 -46 121 -502q27 -157 37 -265q117 145 173 265t57 200q0 79 -32 117t-99 47q-16 35 -13 75q54 16 116 43t87 45q123 -47 123 -213zM746 1094q-24 0 -39 8q-98 196 -211 340q55 18 103 18t89 -14q29 -182 90 -348q-8 -4 -32 -4z
" />
    <glyph glyph-name="Wacute" unicode="&#x1e82;" horiz-adv-x="1972" 
d="M1380 -12q-26 0 -34 2q-90 609 -218 1091q-227 -498 -540 -1081q-20 -14 -50 -14t-38 2q-84 586 -140 890t-68 344t-26 56q-16 16 -49 27q-8 25 -8 50t2 36q290 -16 463 0q0 -55 -15 -91q-89 -16 -119 -40t-30 -72t39 -268t96 -617q238 459 526 1086q25 12 51 12t38 -2
q134 -502 225 -1075q166 328 257 550t104 264q14 42 14 76t-28 54t-93 35q-4 16 -4 46t2 42q55 -6 191 -6t188 6q0 -45 -19 -88q-51 -23 -91 -81t-197 -423t-379 -799q-24 -12 -50 -12zM1458 1925q58 0 105 -31q-166 -156 -328 -368q-45 4 -74 28q137 215 191 359
q48 12 106 12z" />
    <glyph glyph-name="wacute" unicode="&#x1e83;" horiz-adv-x="1421" 
d="M1364 743q0 -131 -101 -307t-372 -454q-57 -4 -98 18q-20 256 -58 459q-43 -121 -117 -223t-225 -254q-57 -4 -98 18q-23 351 -98 668q-13 55 -27 82q-14 26 -41 36t-80 9q0 49 10 77q49 6 109 32t96 52q39 -12 58 -33q46 -56 86 -353q41 -296 49 -408q111 128 161 240
q91 201 15 489q74 18 112 65q33 -8 49 -25q45 -46 121 -502q27 -157 37 -265q117 145 173 265t57 200q0 79 -32 117t-99 47q-16 35 -13 75q54 16 116 43t87 45q123 -47 123 -213zM962 1479q58 0 105 -31q-166 -156 -328 -369q-45 4 -73 29q137 215 190 358q48 13 106 13z
" />
    <glyph glyph-name="Wdieresis" unicode="&#x1e84;" horiz-adv-x="1972" 
d="M1380 -12q-26 0 -34 2q-90 609 -218 1091q-227 -498 -540 -1081q-20 -14 -50 -14t-38 2q-84 586 -140 890t-68 344t-26 56q-16 16 -49 27q-8 25 -8 50t2 36q290 -16 463 0q0 -55 -15 -91q-89 -16 -119 -40t-30 -72t39 -268t96 -617q238 459 526 1086q25 12 51 12t38 -2
q134 -502 225 -1075q166 328 257 550t104 264q14 42 14 76t-28 54t-93 35q-4 16 -4 46t2 42q55 -6 191 -6t188 6q0 -45 -19 -88q-51 -23 -91 -81t-197 -423t-379 -799q-24 -12 -50 -12zM1419 1538q-94 0 -94 102q0 50 32 83q32 34 81 34q48 1 74 -23t26 -78t-37 -86t-82 -32
zM1119 1757q50 -1 75 -25t25 -50q0 -79 -47 -119q-30 -27 -72 -27t-68 26q-25 26 -25 78t31 84q31 33 81 33z" />
    <glyph glyph-name="wdieresis" unicode="&#x1e85;" horiz-adv-x="1421" 
d="M1364 743q0 -131 -101 -307t-372 -454q-57 -4 -98 18q-20 256 -58 459q-43 -121 -117 -223t-225 -254q-57 -4 -98 18q-23 351 -98 668q-13 55 -27 82q-14 26 -41 36t-80 9q0 49 10 77q49 6 109 32t96 52q39 -12 58 -33q46 -56 86 -353q41 -296 49 -408q111 128 161 240
q91 201 15 489q74 18 112 65q33 -8 49 -25q45 -46 121 -502q27 -157 37 -265q117 145 173 265t57 200q0 79 -32 117t-99 47q-16 35 -13 75q54 16 116 43t87 45q123 -47 123 -213zM829 1193q0 50 32 84t81 34t75 -24q25 -24 25 -78t-37 -86q-37 -31 -81 -31t-70 26
q-25 26 -25 75zM624 1311q50 0 74 -25t25 -50q0 -25 -8 -59t-38 -61q-30 -26 -73 -26q-44 0 -68 26t-24 77q0 52 31 85t81 33z" />
    <glyph glyph-name="uni1E9E" unicode="&#x1e9e;" horiz-adv-x="1361" 
d="M1284 432q0 -218 -144.5 -334t-354.5 -116t-328 127q53 144 61 270q29 12 64 12t53 -6q-4 -74 -4 -98q0 -115 35.5 -161t131.5 -46t168 79t84 157t13 104q0 264 -342 311q-23 35 -16 80q195 217 389 489l-103 3q-111 4 -174 4q-152 0 -250 -97.5t-139 -341.5l-145 -868
q-199 0 -330 -6q0 51 16 88q57 6 87 21.5t46.5 50t28.5 106.5l107 614q49 285 207.5 401t412.5 116q51 0 129 -5l103 -2q156 0 225 7q26 -44 20 -99q-190 -268 -389 -497q158 -23 248 -119t90 -244z" />
    <glyph glyph-name="Ygrave" unicode="&#x1ef2;" 
d="M690 182q0 -45 30 -65t116 -35q6 -25 6 -50t-2 -38q-86 6 -272 6t-259 -6q0 51 15 90q70 12 104 28t52 52q17 35 30 106l49 279q-86 279 -160 459t-94 218q-19 38 -39 52t-53 27q-4 16 -4 44t2 42q75 -7 229 -7t256 7q0 -39 -18 -91q-76 -10 -108 -29q-54 -32 -13 -132
q90 -231 158 -486q152 209 284 434q57 97 57 135t-22 54q-23 16 -73 27q-10 40 -3 88q68 -6 190 -6t189 6q0 -45 -18 -88q-45 -17 -81 -51t-158 -228t-328 -473l-54 -301q-8 -53 -8 -68zM849 1540q-24 0 -40 8q-102 203 -211 340q107 35 193 4q29 -182 90 -348q-8 -4 -32 -4
z" />
    <glyph glyph-name="ygrave" unicode="&#x1ef3;" horiz-adv-x="915" 
d="M-78 -508q-86 0 -172 74q-6 61 14 123q102 -33 188 -33t154 47t175 186q-24 485 -103 779q-14 55 -27 82q-13 26 -40 36t-80 9v18q0 37 10 59q49 6 109 32t96 52q35 -12 52 -28q52 -49 111 -509q19 -155 25 -317l19 29q113 168 173 315t60 215t-26 96t-89 36
q-16 35 -12 75q53 14 115 43t88 47q55 -20 83 -63t27 -98q0 -125 -91 -303t-270 -438t-275 -374t-162 -152t-152 -38zM486 1094q-24 0 -40 8q-100 200 -210 340q55 18 103 18t89 -14q29 -182 90 -348q-8 -4 -32 -4z" />
    <glyph glyph-name="endash" unicode="&#x2013;" horiz-adv-x="1062" 
d="M975 489q-600 0 -879 -6q-4 72 27 113h885q-4 -62 -33 -107z" />
    <glyph glyph-name="emdash" unicode="&#x2014;" horiz-adv-x="2011" 
d="M1915 485q-956 0 -1829 -6q6 74 37 115h1829q-6 -66 -37 -109z" />
    <glyph glyph-name="quoteleft" unicode="&#x2018;" horiz-adv-x="501" 
d="M242 1055q0 37 10 82q33 178 213 331q45 0 70 -43q-125 -125 -125 -199t92 -98q0 -86 -31 -129q-43 -2 -95 -19t-83 -38q-51 27 -51 113z" />
    <glyph glyph-name="quoteright" unicode="&#x2019;" horiz-adv-x="503" 
d="M547 1356q0 -37 -10 -82q-33 -178 -213 -332q-45 0 -70 43q125 125 125 199t-92 98q0 86 30 129q43 1 95 19t84 38q51 -26 51 -112z" />
    <glyph glyph-name="quotesinglbase" unicode="&#x201a;" horiz-adv-x="423" 
d="M262 98q0 -37 -10 -82q-33 -178 -213 -331q-45 0 -70 43q125 124 125 198t-92 99q0 86 31 129q43 2 95 19t83 38q51 -27 51 -113z" />
    <glyph glyph-name="quotedblleft" unicode="&#x201c;" horiz-adv-x="808" 
d="M242 1055q0 37 10 82q33 178 213 331q45 0 70 -43q-121 -121 -121 -192t82 -105q0 -82 -31 -129q-89 -4 -172 -57q-51 27 -51 113zM555 1055q0 226 209 405q45 0 70 -43q-117 -117 -117 -191t92 -98q0 -86 -31 -129q-89 -4 -172 -57q-51 27 -51 113z" />
    <glyph glyph-name="quotedblright" unicode="&#x201d;" horiz-adv-x="811" 
d="M854 1356q0 -37 -10 -82q-33 -178 -213 -332q-45 0 -70 43q121 121 121 193t-82 104q0 88 31 129q85 4 172 57q51 -26 51 -112zM541 1356q0 -37 -11 -82q-33 -180 -198 -324q-44 0 -70 43q117 117 117 191t-92 98q0 86 30 129q88 4 172 57q52 -26 52 -112z" />
    <glyph glyph-name="quotedblbase" unicode="&#x201e;" horiz-adv-x="731" 
d="M569 98q0 -37 -10 -82q-33 -178 -213 -331q-45 0 -70 43q121 121 121 192t-82 105q0 82 31 129q89 4 172 57q51 -27 51 -113zM256 98q0 -223 -209 -405q-45 0 -70 43q117 116 117 190t-92 99q0 86 31 129q89 4 172 57q51 -27 51 -113z" />
    <glyph glyph-name="dagger" unicode="&#x2020;" horiz-adv-x="944" 
d="M719 1321q0 -10 -4 -35q-35 -143 -82 -348h317q-2 -37 -18.5 -83t-38.5 -71q-129 29 -285 39q-147 -664 -264 -1335q-55 0 -84 27q119 659 205 1306q-152 -10 -313 -33q0 84 36 150h291q14 109 45 371q91 15 160 71q35 -20 35 -59z" />
    <glyph glyph-name="daggerdbl" unicode="&#x2021;" horiz-adv-x="946" 
d="M225 -383q0 12 101 383h-330q2 37 18.5 83t38.5 71q156 -31 301 -39l13 63q27 128 27 186t-19 109q33 43 50 101.5t40 191.5l8 55q-156 -10 -321 -33q0 86 36 150h299q10 80 37 371q91 15 160 71q37 -23 37 -49q1 -26 -33 -147t-67 -246h329q-2 -37 -18.5 -83t-38.5 -71
q-156 31 -301 39l-12 -63q-27 -128 -27 -186t18 -109q-33 -43 -50 -101.5t-40 -191.5l-8 -55q156 10 322 33q0 -86 -37 -150h-299q-10 -80 -37 -371q-91 -15 -160 -71q-37 23 -37 59z" />
    <glyph glyph-name="bullet" unicode="&#x2022;" horiz-adv-x="610" 
d="M314 375q-96 0 -152 59.5t-56 157.5t73 155.5t166 57.5t149.5 -58.5t56.5 -156.5t-70.5 -156.5t-166.5 -58.5z" />
    <glyph glyph-name="ellipsis" unicode="&#x2026;" horiz-adv-x="1447" 
d="M760 124q0 -31 -6 -59t-35 -55q-29 -26 -74 -26t-74 26t-29 76q0 49 35 87t81 38t74 -28t28 -59zM10 86q0 49 34 87t81 38t80 -33t22 -87q-12 -54 -41 -81q-30 -26 -74 -26t-73 26t-29 76zM1075 86q0 49 34 87t81 38t80 -33t22 -87q-12 -54 -41 -81q-29 -26 -73 -26
t-74 26q-29 26 -29 76z" />
    <glyph glyph-name="perthousand" unicode="&#x2030;" horiz-adv-x="2070" 
d="M1530 236q0 -64 36 -116t93 -52t99 51t54 117t13 138q0 72 -34.5 122.5t-92.5 50.5t-100 -50.5t-55 -122.5q-13 -74 -13 -138zM862 236q0 -64 36 -116t93 -52t99.5 51t54.5 117t12 138t-33.5 122.5t-91.5 50.5t-100 -50.5t-56 -122.5q-14 -74 -14 -138zM1968 360
q0 -191 -101 -284.5t-219 -93.5t-190 74.5t-72 203.5q0 39 11 96q25 125 111.5 201t205.5 76t186.5 -73t67.5 -200zM1300 360q0 -191 -101 -284.5t-219 -93.5t-189.5 74.5t-71.5 203.5q0 190 104.5 281.5t223 91.5t186 -73t67.5 -200zM330 990q0 -64 35 -116.5t93 -52.5
t100 51.5t54 117.5t12 138t-34 122t-92 50t-100 -50t-55 -122q-13 -74 -13 -138zM768 1114q0 -191 -101 -285t-219 -94t-190 75t-72 204q0 39 11 96q25 125 111.5 200.5t205.5 75.5t186.5 -72.5t67.5 -199.5zM1323 1319q-531 -639 -1069 -1337q-57 25 -64 79l1063 1342
q60 -31 70 -84z" />
    <glyph glyph-name="minute" unicode="&#x2032;" horiz-adv-x="436" 
d="M498 1434q0 -24 -14 -60q-14 -37 -70 -156q-57 -119 -113 -241q-43 0 -76 20q53 170 111 422q63 8 135 43q27 -4 27 -28z" />
    <glyph glyph-name="second" unicode="&#x2033;" horiz-adv-x="763" 
d="M825 1434q0 -24 -13 -60q-12 -37 -70 -156t-113 -241q-43 0 -76 20q53 170 111 422q63 8 135 43q26 -4 26 -28zM498 1434q0 -24 -14 -60q-14 -37 -70 -156q-57 -119 -113 -241q-43 0 -76 20q53 170 111 422q63 8 135 43q27 -4 27 -28z" />
    <glyph glyph-name="guilsinglleft" unicode="&#x2039;" horiz-adv-x="544" 
d="M260 535q38 -117 139 -295q-8 -43 -47 -70q-131 180 -264 322q0 49 27 79l47 39q71 62 143 124.5t129 121.5q20 -2 41 -13.5t29 -25.5q-163 -168 -244 -282z" />
    <glyph glyph-name="guilsinglright" unicode="&#x203a;" horiz-adv-x="552" 
d="M481 531q0 -19 -6 -35q-143 -117 -356 -312q-31 31 -31 78q143 137 236 246q-57 157 -152 326q31 25 76 18q98 -140 223 -277q10 -25 10 -44z" />
    <glyph glyph-name="uni203D" unicode="&#x203d;" horiz-adv-x="1169" 
d="M627 124q0 -32 -6 -59q-6 -28 -35 -54.5t-74 -26.5t-73.5 26.5t-28.5 75.5t33.5 87t80.5 38t75 -27.5t28 -59.5zM805 1202q0 -84 -78 -266q-75 -207 -106 -332q27 76 61 134t96 148t93.5 157t31.5 159q0 176 -172 176q-88 0 -152.5 -57t-111.5 -207q-61 0 -90 21
q39 131 45 239q59 39 152.5 63.5t189.5 24.5q158 0 246 -67.5t88 -200.5t-74 -217t-162 -168t-147.5 -162t-79.5 -186l-25 -2q-33 0 -65 14q20 168 26.5 333t8.5 195l6 181q100 17 184 67q35 -23 35 -47z" />
    <glyph glyph-name="fraction" unicode="&#x2044;" horiz-adv-x="925" 
d="M1104 1382q-586 -709 -1120 -1400q-60 26 -64 79l1114 1405q60 -31 70 -84z" />
    <glyph glyph-name="Euro" unicode="&#x20ac;" horiz-adv-x="1433" 
d="M1392 963q-28 0 -53 6q8 78 9 106q0 139 -62.5 191.5t-187.5 52.5q-217 0 -365.5 -133t-208.5 -352h527q-4 -61 -33 -107q-336 0 -516 -2l-6 -43q-6 -49 -7 -98h523q-4 -61 -33 -107q-313 0 -481 -2q27 -168 129.5 -268.5t298.5 -100.5t391 119q29 -29 33 -78
q-230 -165 -490 -165t-409.5 134t-174.5 357l-157 -2q-2 10 -2 45t20 68h135q0 43 7 88l8 51q-100 0 -148 -2q-4 70 27 113h147q57 190 178 318t276 189.5t299 61.5t244.5 -28.5t207.5 -92.5q-43 -117 -68 -309q-30 -10 -58 -10z" />
    <glyph glyph-name="uni2113" unicode="&#x2113;" horiz-adv-x="698" 
d="M502 1360q-62 0 -152 -508q139 131 176 324q19 107 4.5 145.5t-28.5 38.5zM88 303q0 170 54 472t141.5 490.5t205.5 188.5q53 0 88 -41t35 -107t-12 -126q-49 -259 -270 -447q-41 -254 -41 -388t28.5 -177t80.5 -43t114 59q27 -25 37 -61q-120 -141 -254 -141
q-102 0 -154.5 75.5t-52.5 245.5z" />
    <glyph glyph-name="trademark" unicode="&#x2122;" horiz-adv-x="1937" 
d="M1700 737q-104 0 -162 -4q0 49 8 82q37 4 52.5 11.5t21.5 29t10 76.5l29 321l-305 -518q-25 -8 -70 -8l-133 522l-82 -278q-40 -123 -18 -138.5t51 -17.5q10 -31 10 -82q-53 4 -124 4t-116 -4q0 49 9 82q31 2 56.5 18t61.5 140l86 305q22 76 4 87t-51 11q-8 31 -8 84
q27 -2 124 -2t136 2l119 -504l295 504q32 -2 114 -2t115 2q0 -51 -8 -84q-47 0 -64.5 -18.5t-25.5 -83.5l-31 -330l-4 -65q0 -39 11.5 -49.5t46.5 -14.5q8 -39 8 -82q-62 4 -166 4zM735 1393h-28l-91 -469q-6 -28 -6 -54t21.5 -38.5t70.5 -16.5q8 -33 9 -82q-82 4 -199 4
t-207 -4q0 49 10 82q63 4 90 24.5t41 84.5l91 469h-27q-63 0 -95 -34t-55 -110q-53 -4 -84 15q35 109 50 196q76 -2 307 -2t309 2q-16 -73 -20 -200q-37 -14 -91 -11l3 31q0 113 -99 113z" />
    <glyph glyph-name="Ohm" unicode="&#x2126;" horiz-adv-x="1488" 
d="M1147 184q76 0 117 29t69 104q49 -4 88 -38q-59 -141 -75 -252q-25 -31 -66 -31q-82 0 -147 2l-336 2q-23 35 -19 84q310 267 373 399.5t81 230.5t19 169q0 193 -98 307.5t-264 114.5q-123 0 -235.5 -69t-193 -192.5t-106.5 -259.5t-26 -227q0 -92 50 -202.5t179 -270.5
q-10 -41 -35 -84l-383 -2q-39 -2 -90 -2t-59 55q12 89 12 143t-4 103q34 10 60 10t36 -2q6 -74 33 -97.5t102 -23.5h156q-254 180 -254 454t136 442.5t296 245.5t329 77t296 -68.5t198.5 -192.5t71.5 -284q0 -410 -459 -674h148z" />
    <glyph glyph-name="estimated" unicode="&#x212e;" horiz-adv-x="1230" 
d="M330 684h639v317q-133 131 -319 131t-320 -131v-317zM330 606v-397q129 -131 319 -131q274 0 424 264l76 -47q-125 -183 -246 -239t-254 -56q-253 0 -409 171t-156 435t157 434t397 170t403 -151q163 -152 176 -453h-887z" />
    <glyph glyph-name="arrowleft" unicode="&#x2190;" horiz-adv-x="1239" 
d="M539 249q0 -34 -43 -59q-82 78 -196 169t-185 135q-11 20 -11 57t5 47q182 80 378 231q41 31 73 31t50 -35q-98 -111 -172 -229q549 6 742 12q-4 -100 -35 -139h-717q37 -74 74 -130t37 -90z" />
    <glyph glyph-name="arrowright" unicode="&#x2192;" horiz-adv-x="1239" 
d="M729 832q0 34 43 59q82 -78 196 -169t185 -134q10 -21 10 -58t-4 -47q-180 -79 -379 -231q-40 -31 -72 -31t-51 35q98 111 172 229q-549 -6 -741 -12q5 102 35 139h717q-37 74 -74 130t-37 90z" />
    <glyph glyph-name="partialdiff" unicode="&#x2202;" horiz-adv-x="890" 
d="M376 123q73 0 143.5 113.5t117.5 355.5q27 139 35 239q-49 20 -121 21q-231 0 -301 -344q-18 -92 -19 -164q0 -221 145 -221zM860 831q0 -101 -28 -247t-121 -291.5t-216 -228t-231 -82.5t-168.5 71.5t-60.5 212.5q-1 58 23 182t104 246.5t194.5 192t245.5 69.5
q39 0 72 -8q-6 158 -82 283t-246 237q20 40 57 54q248 -144 352.5 -315t104.5 -376z" />
    <glyph glyph-name="increment" unicode="&#x2206;" horiz-adv-x="1308" 
d="M670 1032l-54 -88l-546 -854h919l-211 868q-31 117 -41 191zM1153 0h-1176q-16 35 -20 82l829 1307q33 14 82 14l332 -1321q-14 -51 -47 -82z" />
    <glyph glyph-name="product" unicode="&#x220f;" horiz-adv-x="1787" 
d="M1316 -205q-134 0 -239 -6q0 59 10 88q82 4 112 40t30 138v1069q0 129 -51 158q-25 14 -77 18.5t-183.5 4.5t-183.5 -4.5t-79 -19.5q-49 -27 -49 -157v-1069q0 -102 30 -138t112 -40q10 -29 10 -88q-123 6 -257 6t-239 -6q0 59 10 88q82 4 112 40t30 138v1069
q0 102 -30 138t-112 41q-10 29 -10 88q115 -6 535 -7h241q412 0 535 7q0 -59 -10 -88q-82 -4 -112 -40t-30 -139v-1069q0 -102 30 -138t112 -40q10 -29 10 -88q-123 6 -257 6z" />
    <glyph glyph-name="summation" unicode="&#x2211;" horiz-adv-x="1452" 
d="M702 -205q-422 0 -526 -4q-27 27 -26 82q250 311 534 641q-266 412 -485 807q0 41 22 68q145 -5 495 -5t546 7q12 -184 43 -324q-33 -20 -93 -25q-16 133 -92 197t-223 64h-444q207 -373 421 -697q9 -26 -4 -57q-281 -319 -483 -569h496q127 0 193.5 19t102 63t68.5 135
q59 -19 90 -50q-48 -146 -73 -356q-140 4 -562 4z" />
    <glyph glyph-name="minus" unicode="&#x2212;" horiz-adv-x="1062" 
d="M975 489q-600 0 -879 -6q-4 72 27 113h885q-4 -62 -33 -107z" />
    <glyph glyph-name="divisionslash" unicode="&#x2215;" horiz-adv-x="589" 
d="M680 1468q53 -17 82 -61q-410 -739 -752 -1425q-56 14 -82 61z" />
    <glyph glyph-name="bulletoperator" unicode="&#x2219;" horiz-adv-x="526" 
d="M371 681q0 -93 -49 -136q-34 -32 -88 -32t-89 32q-34 32 -34 91t40 104q41 45 97 45t90 -33q33 -33 33 -71z" />
    <glyph glyph-name="radical" unicode="&#x221a;" horiz-adv-x="1089" 
d="M133 702q0 53 23 95h288l205 -475l312 1206h415q1 -53 -22 -88h-320l-379 -1440q-33 -8 -80 -8l-311 710h-131z" />
    <glyph glyph-name="infinity" unicode="&#x221e;" horiz-adv-x="1955" 
d="M458 844q-106 0 -172.5 -81t-66.5 -235t79 -243.5t211 -89.5t219 98t167 209q-145 188 -238 265t-199 77zM1765 560q0 152 -76.5 243.5t-208.5 91.5t-221.5 -99.5t-168.5 -209.5q141 -188 235.5 -264t200.5 -76t172.5 81t66.5 233zM1876 543q0 -207 -112 -323t-288 -116
t-289.5 82t-234.5 240q-125 -170 -222 -246t-218 -76t-210 51.5t-141 152t-52 239.5q0 207 112.5 322.5t287.5 115.5t296 -89t227 -234q129 174 227.5 248.5t216.5 74.5t207 -51t141 -151.5t52 -239.5z" />
    <glyph glyph-name="integral" unicode="&#x222b;" horiz-adv-x="942" 
d="M688 1573q-53 0 -76.5 -62.5t-31 -199.5t-11.5 -477l-2 -195q-8 -502 -31.5 -729t-95 -322.5t-220.5 -95.5t-220 51q47 100 53 219q35 20 86 17q8 -193 115 -193q53 0 76.5 62.5t31 201t11.5 478.5l2 194q8 500 31.5 727.5t95 322.5t220.5 95t220 -51q-47 -100 -53 -219
q-35 -20 -86 -17q-8 193 -115 193z" />
    <glyph glyph-name="approxequal" unicode="&#x2248;" horiz-adv-x="1159" 
d="M424 850q81 0 187 -44t156 -58t99 -15q111 0 211 92q41 0 62 -32q-143 -186 -295 -187q-49 0 -96 16t-118 49q-71 32 -117 47t-97 15q-129 0 -256 -133q-40 20 -43 53q145 197 307 197zM358 522q82 0 188 -44t156 -58t99 -14q111 0 211 92q41 0 61 -33
q-143 -186 -295 -186q-49 0 -96 16t-118 48t-117 47t-97 16q-129 0 -256 -134q-40 20 -43 54q144 196 307 196z" />
    <glyph glyph-name="notequal" unicode="&#x2260;" horiz-adv-x="1069" 
d="M629 635l-31 -60q-61 -115 -90 -172h469q-4 -61 -33 -106q-322 0 -493 -2l-187 -367q-46 11 -65 49l168 318q-113 0 -301 -4q-4 72 26 112h332l121 232l-422 -6q-4 72 27 112h452l199 377q41 -13 65 -49l-180 -328h348q-4 -61 -33 -106h-372z" />
    <glyph glyph-name="lessequal" unicode="&#x2264;" horiz-adv-x="1003" 
d="M879 96q0 -63 -23 -98q-164 2 -436 2t-465 -4q-1 65 22 100h902zM901 213q0 -37 -16 -63q-288 161 -813 419q-9 57 34 107l914 428q55 -18 72 -76l-889 -414l694 -352q4 -12 4 -49z" />
    <glyph glyph-name="greaterequal" unicode="&#x2265;" horiz-adv-x="1007" 
d="M889 96q0 -63 -23 -98q-164 2 -436 2t-465 -4q0 65 23 100h901zM983 607q0 -30 -6 -54q-460 -176 -967 -397q-6 16 -6 50t23 68l833 340l-729 426q31 49 94 68l748 -444q10 -27 10 -57z" />
    <glyph glyph-name="lozenge" unicode="&#x25ca;" horiz-adv-x="1079" 
d="M551 987l-344 -457l344 -456l346 456zM551 1135l459 -605l-459 -604l-457 604z" />
    <glyph glyph-name="uni2799" unicode="&#x2799;" horiz-adv-x="1239" 
d="M729 832q0 34 43 59q82 -78 195.5 -169t185.5 -134q10 -21 10 -58t-4 -47q-180 -79 -379 -231q-40 -31 -72 -31t-51 35q98 111 172 229q-549 -6 -741 -12q4 100 35 139h717q-37 74 -74 130t-37 90z" />
    <glyph glyph-name="uni2E18" unicode="&#x2e18;" horiz-adv-x="1169" 
d="M760 852q0 -49 -34 -87t-81 -38t-80 33t-22 87q12 54 41 81q30 26 74 26t73 -26t29 -76zM365 -264q0 24 8 64t36 114q106 279 140 420q-27 -76 -62 -134t-97 -148t-92 -158q-32 -66 -32 -158q0 -176 172 -176q88 0 153 57t111 207q60 0 91 -21q-39 -131 -45 -239
q-58 -39 -152 -64t-190 -24q-158 -1 -246 67t-88 201t103 251q44 50 133 134t148 162q58 78 79 186l24 2q33 0 66 -14q-21 -168 -27 -333t-8 -195l-6 -181q-106 -18 -185 -67q-34 23 -34 47z" />
    <glyph glyph-name="J.ss01" horiz-adv-x="946" 
d="M88 334q28 0 51 -6q-6 -127 31 -187.5t133 -60.5q63 0 127.5 44t112.5 298l121 692q8 57 8 74q0 55 -33 80.5t-121 34.5q-6 25 -6 49t2 39q84 -7 256 -7t268 7q-2 -51 -16 -88q-84 -12 -117 -49t-49 -140l-115 -686q-37 -215 -164.5 -330.5t-313.5 -115.5t-288 92
q43 115 54 250q31 10 59 10z" />
    <glyph glyph-name="Jcircumflex.ss01" horiz-adv-x="946" 
d="M88 334q28 0 51 -6q-6 -128 31 -188t133 -60q63 0 108 31q84 59 132 311l121 692q8 57 8 74q0 55 -33 81t-121 34q-6 25 -6 49t2 39q84 -7 256 -7t268 7q-2 -51 -16 -88q-84 -11 -117 -49t-49 -140l-115 -686q-37 -215 -165 -331q-128 -115 -314 -115q-187 0 -287 92
q43 115 54 250q31 10 59 10zM864 1892q31 0 60 -16q80 -129 204 -281q-13 -43 -61 -59q-109 92 -242 166q-150 -76 -280 -170q-21 30 -21 58t2 34q164 117 320 266z" />
    <glyph glyph-name="Q.ss01" horiz-adv-x="1517" 
d="M749 72q196 0 357.5 180t163.5 561q0 127 -52.5 247t-147.5 186.5t-215 66.5t-224.5 -71t-199.5 -232.5t-95 -404.5q0 -244 108.5 -388.5t304.5 -144.5zM1772 -496q-128 0 -210.5 29t-142 72t-145.5 121t-203 162.5t-379 93.5q-170 4 -299 79.5t-199.5 210t-70.5 312.5
q0 293 133 472t293 263t338 84t311 -68.5t209 -203t76 -322.5q0 -332 -159 -523.5t-349 -258.5q141 -27 251 -73t254 -121t236 -108.5t208 -33.5t169 49q44 -17 57 -68q-70 -76 -160 -122t-218 -46z" />
    <glyph glyph-name="uni1E9E.ss01" horiz-adv-x="1376" 
d="M1298 432q0 -218 -144 -334t-355 -116t-328 127q53 144 61 270q29 12 64 12t53 -6q-4 -74 -4 -98q0 -115 36 -161t132 -46t168 79t84 157t12 104q0 264 -342 311q-23 35 -16 80q195 217 389 489l-102 3q-111 4 -175 4q-152 0 -250 -97.5t-139 -341.5l-108 -622
q-37 -209 -85 -336t-148.5 -227.5t-286.5 -192.5q-25 18 -33 70q137 96 218 215t114 305l139 794q51 285 210 401t410 116q51 0 129 -5l103 -2q156 0 225 7q27 -44 21 -99q-190 -268 -389 -497q158 -23 247.5 -119t89.5 -244z" />
    <glyph glyph-name="i.loclTRK" horiz-adv-x="505" 
d="M260 169q0 -28 8 -36t27 -8q47 0 106 59q31 -20 37 -65q-127 -137 -233 -137q-135 0 -135 149q0 59 22 145l84 295q35 123 35 162t-25 50t-92 12q-2 45 12 77q47 6 122 33t114 51q78 -30 80 -131q0 -57 -25 -147l-112 -395q-25 -86 -25 -114zM434 1325q94 0 94 -104
q0 -54 -40 -98t-90 -44t-74 25t-25 50q0 25 8 64t45 73t82 34z" />
    <glyph glyph-name="f.calt" horiz-adv-x="604" 
d="M599 1366q-36 0 -67.5 -43.5t-78.5 -386.5l-2 -18h213q0 -49 -15 -80q-121 0 -213 -17q-41 -303 -90 -579q-57 -342 -174 -546t-278 -204q-96 0 -183 74q-6 61 15 123q102 -33 227 -33q53 0 94.5 40t97.5 425l37 268q31 252 62 436q-94 12 -146 13q0 47 23 80h137
q50 302 143 423t238 121q104 0 158 -37q-37 -80 -45 -225q-33 -18 -93 -14q4 106 -10 143t-50 37z" />
    <glyph glyph-name="longs.calt" horiz-adv-x="583" 
d="M599 1366q-36 0 -67.5 -43.5t-81.5 -407.5q-50 -363 -106 -689t-172.5 -530t-277.5 -204q-96 0 -183 74q-6 61 15 123q102 -33 227 -33q53 0 94.5 40t97.5 425l37 268q31 252 62 436q-94 12 -146 13q0 47 23 80h137q50 302 143 423t238 121q104 0 158 -37
q-37 -80 -45 -225q-33 -18 -93 -14q4 106 -10 143t-50 37z" />
    <glyph glyph-name="g.ss01" horiz-adv-x="909" 
d="M225 309q0 -162 84 -162q39 0 103.5 69t128 191.5t100.5 280.5l35 143q-53 20 -125 21q-231 0 -301 -344q-25 -117 -25 -199zM195 -18q-166 0 -166 235q1 79 27 217t106 260.5t194.5 192t245.5 69.5q61 0 117 -18q68 4 102 18q27 -10 27 -44t-6 -70l-154 -867
q-45 -256 -168 -371.5t-323 -115.5q-84 0 -157 17.5t-110 45.5q40 89 52 234q37 20 90 16q4 -121 36.5 -171t120.5 -50q203 0 267 361l28 168q16 102 76 256l14 36h-4q-61 -168 -177 -293.5t-238 -125.5z" />
    <glyph glyph-name="gbreve.ss01" horiz-adv-x="909" 
d="M225 309q0 -162 84 -162q39 0 104 69t128 192t100 280l35 143q-53 20 -125 21q-233 0 -301 -344q-25 -117 -25 -199zM195 -18q-166 0 -166 235q1 79 27 217t106 260t194 193q114 70 246 69q61 0 117 -18q68 4 102 18q27 -10 27 -44t-6 -70l-154 -867q-45 -255 -168 -371
t-316 -116t-274 63q40 89 52 234q37 20 90 16q4 -121 37 -171t120 -50q203 0 267 361l28 168q16 102 76 256l14 36h-4q-61 -167 -177 -293t-238 -126zM591 1079q-294 0 -294 246q0 37 10 92q41 23 86 23q-5 -104 57 -166t175 -62t193 62t108 166q47 0 63 -13
q-32 -166 -140 -257t-258 -91z" />
    <glyph glyph-name="gcircumflex.ss01" horiz-adv-x="909" 
d="M225 309q0 -162 84 -162q39 0 104 69t128 192t100 280l35 143q-53 20 -125 21q-233 0 -301 -344q-25 -117 -25 -199zM195 -18q-166 0 -166 235q1 79 27 217t106 260t194 193q114 70 246 69q61 0 117 -18q68 4 102 18q27 -10 27 -44t-6 -70l-154 -867q-45 -255 -168 -371
t-316 -116t-274 63q40 89 52 234q37 20 90 16q4 -121 37 -171t120 -50q203 0 267 361l28 168q16 102 76 256l14 36h-4q-61 -167 -177 -293t-238 -126zM647 1446q31 0 60 -16q80 -129 204 -281q-14 -45 -61 -59q-109 92 -242 165q-150 -76 -280 -170q-32 49 -19 93
q164 117 320 266z" />
    <glyph glyph-name="gcommaaccent.ss01" horiz-adv-x="909" 
d="M225 309q0 -162 84 -162q39 0 103.5 69t128 191.5t100.5 280.5l35 143q-53 20 -125 21q-231 0 -301 -344q-25 -117 -25 -199zM195 -18q-166 0 -166 235q1 79 27 217t106 260.5t194.5 192t245.5 69.5q61 0 117 -18q68 4 102 18q27 -10 27 -44t-6 -70l-154 -867
q-45 -256 -168 -371.5t-323 -115.5q-84 0 -157 17.5t-110 45.5q40 89 52 234q37 20 90 16q4 -121 36.5 -171t120.5 -50q203 0 267 361l28 168q16 102 76 256l14 36h-4q-61 -168 -177 -293.5t-238 -125.5zM465 1143q0 12 4 41q16 76 92 157.5t178 145.5q39 -16 47 -47
q-49 -39 -82.5 -82t-39.5 -68q-14 -59 61 -63q4 -68 -35 -119q-94 -14 -174 -61q-51 17 -51 96z" />
    <glyph glyph-name="gdotaccent.ss01" horiz-adv-x="909" 
d="M225 309q0 -162 84 -162q39 0 104 69t128 192t100 280l35 143q-53 20 -125 21q-233 0 -301 -344q-25 -117 -25 -199zM195 -18q-166 0 -166 235q1 79 27 217t106 260t194 193q114 70 246 69q61 0 117 -18q68 4 102 18q27 -10 27 -44t-6 -70l-154 -867q-45 -255 -168 -371
t-316 -116t-274 63q40 89 52 234q37 20 90 16q4 -121 37 -171t120 -50q203 0 267 361l28 168q16 102 76 256l14 36h-4q-61 -167 -177 -293t-238 -126zM649 1325q95 0 95 -104q0 -54 -41 -98q-40 -44 -90 -44q-51 0 -75 25t-24 50t8 64t45 73t82 34z" />
    <glyph glyph-name="x.ss01" horiz-adv-x="991" 
d="M395 330q-219 -185 -219 -280q0 -40 15.5 -52t54.5 -14q16 -35 12 -82q-141 -21 -264 -84q-59 12 -60 73q0 174 433 521q-55 154 -95 284q-18 57 -51 80t-117 19q-2 9 -2 31t13 46q51 6 122.5 33t104.5 51q33 -8 45 -26.5t52 -154.5t85 -271q156 128 156 233
q0 27 -16.5 40.5t-61.5 17.5q-2 7 -2 31t8 42q162 39 254 88q59 -14 60 -71q0 -182 -367 -463q109 -299 188 -299q39 0 111 63q25 -27 37 -65q-123 -139 -244 -139q-49 0 -82 23t-71 91t-99 234z" />
    <glyph glyph-name="z.ss01" horiz-adv-x="815" 
d="M682 -98q51 0 113 57q51 -20 71 -59q-88 -76 -133 -162q-25 -25 -83 -25t-132 38t-175 108t-163.5 102.5t-102.5 32.5t-65 -12q-23 37 -20 81q433 393 610 699q-61 12 -143 12t-126 -10t-73 -33.5t-61 -71.5q-47 0 -76 35q63 115 86 244q121 12 267 12t265 -12
q24 -34 29 -74q-100 -184 -255 -381.5t-329 -359.5q43 -2 95.5 -28.5t143.5 -82.5t148.5 -83t108.5 -27z" />
    <glyph glyph-name="zacute.ss01" horiz-adv-x="815" 
d="M650 -287q-58 0 -132 38t-175 108q-101 71 -163 103t-103 32q-40 0 -65 -12q-23 37 -20 81q433 393 610 699q-61 12 -143 12t-126 -10t-73 -34t-61 -71q-47 0 -76 35q63 115 86 244q121 12 267 12t265 -12q24 -34 29 -74q-100 -184 -255 -382t-329 -359q44 -2 96 -29
t143 -82t148 -83q57 -27 109 -27t113 57q51 -20 71 -59q-88 -76 -133 -162q-25 -25 -83 -25zM708 1479q58 0 105 -31q-166 -156 -328 -369q-45 4 -73 29q137 215 190 358q48 13 106 13z" />
    <glyph glyph-name="zcaron.ss01" horiz-adv-x="815" 
d="M650 -287q-58 0 -132 38t-175 108q-101 71 -163 103t-103 32q-40 0 -65 -12q-23 37 -20 81q433 393 610 699q-61 12 -143 12t-126 -10t-73 -34t-61 -71q-47 0 -76 35q63 115 86 244q121 12 267 12t265 -12q24 -34 29 -74q-100 -184 -255 -382t-329 -359q44 -2 96 -29
t143 -82t148 -83q57 -27 109 -27t113 57q51 -20 71 -59q-88 -76 -133 -162q-25 -25 -83 -25zM480 1057q-17 0 -23 2q-121 195 -240 317q10 43 47 58q150 -117 266 -189q176 86 283 170q39 -10 55 -47q-195 -143 -344 -301q-27 -10 -44 -10z" />
    <glyph glyph-name="zdotaccent.ss01" horiz-adv-x="815" 
d="M650 -287q-58 0 -132 38t-175 108q-101 71 -163 103t-103 32q-40 0 -65 -12q-23 37 -20 81q433 393 610 699q-61 12 -143 12t-126 -10t-73 -34t-61 -71q-47 0 -76 35q63 115 86 244q121 12 267 12t265 -12q24 -34 29 -74q-100 -184 -255 -382t-329 -359q44 -2 96 -29
t143 -82t148 -83q57 -27 109 -27t113 57q51 -20 71 -59q-88 -76 -133 -162q-25 -25 -83 -25zM561 1325q95 0 95 -104q0 -54 -41 -98q-40 -44 -90 -44q-51 0 -75 25t-24 50t8 64t45 73t82 34z" />
    <glyph glyph-name="f_b" horiz-adv-x="1505" 
d="M1284 629q0 162 -84 162q-39 0 -103.5 -69t-128 -191.5t-100.5 -280.5l-32 -144q53 -20 122 -20q232 0 302 344q24 117 24 199zM1315 956q166 0 166 -235q0 -79 -27 -217t-106.5 -260.5t-194.5 -192t-246 -69.5h-4q-182 0 -280 102q61 90 108 360l119 668q12 61 12 111
q0 151 -137 151q-63 0 -132.5 -57t-131.5 -399h203q0 -49 -15 -80q-96 0 -207 -17q-47 -256 -67 -394t-29 -185q-57 -342 -174 -546t-278 -204q-96 0 -183 74q-6 61 15 123q102 -33 227 -33q53 0 94.5 40t97.5 425l37 268q31 252 62 436q-94 12 -146 13q0 47 23 80h137
q53 276 189.5 410t318.5 134q121 0 192 -39q45 12 72 31q49 -16 49 -80q0 -23 -6 -51l-80 -449q-25 -137 -84 -301h4q66 158 176.5 270.5t225.5 112.5z" />
    <glyph glyph-name="f_h" horiz-adv-x="1619" 
d="M1321 -18q-70 0 -99.5 30.5t-29.5 91.5t33 207l55 244q23 98 23 162q0 90 -53.5 90t-128 -70.5t-140.5 -194.5t-94 -276l-47 -266h-187l197 1112q12 61 12 111q0 151 -137 151q-63 0 -132.5 -57t-131.5 -399h203q0 -49 -15 -80q-96 0 -207 -17q-47 -256 -67 -394
t-29 -185q-57 -342 -174 -546t-278 -204q-96 0 -183 74q-6 61 15 123q102 -33 227 -33q53 0 94.5 40t97.5 425l37 268q31 252 62 436q-94 12 -146 13q0 47 23 80h137q53 276 189.5 410t318.5 134q121 0 192 -39q45 12 72 31q47 -14 47 -82q0 -12 -4 -49q-61 -348 -90 -477
t-86 -309v-7l51 107q33 70 97.5 144.5t140.5 124.5t142 50t116.5 -50t50.5 -150t-22 -193l-60 -250q-33 -139 -33 -161t5.5 -26.5t22.5 -4.5t52 19.5t60 43.5q28 -28 36 -65q-137 -137 -235 -137z" />
    <glyph glyph-name="f_j" horiz-adv-x="1060" 
d="M567 918q275 0 353 38q80 -33 79 -135q0 -18 -8 -71l-114 -598q-50 -254 -167.5 -409t-338.5 -253q-29 25 -31 68q145 102 227 236t115 310l100 539q12 55 12 102t-31.5 70t-116.5 23t-204 -17q-47 -256 -67 -394t-29 -185q-57 -342 -174 -546t-278 -204q-96 0 -183 74
q-6 61 15 123q102 -33 227 -33q53 0 94.5 40t97.5 425l37 268q31 252 62 436q-94 12 -146 13q0 47 23 80h137q55 287 193.5 415.5t337.5 128.5t321 -78q-35 -92 -41 -192q-39 -23 -101 -23t-77 5q-4 104 -40 153t-111 49t-120 -38t-79.5 -132t-79.5 -288h106z" />
    <glyph glyph-name="f_k" horiz-adv-x="1540" 
d="M1284 731q0 41 -20.5 65.5t-55.5 24.5q-76 0 -153.5 -104.5t-122.5 -261.5q352 89 352 276zM1487 778q0 -222 -400 -350q37 -45 107 -170l23 -39q31 -55 53 -73.5t49 -18.5t49.5 13.5t56.5 45.5q31 -27 39 -65q-126 -139 -217.5 -139t-129.5 42t-86 143t-118 212
l-67 -379h-187l193 1108q10 66 10 125t-32 100t-100 41t-137.5 -57t-131.5 -399h203q0 -49 -15 -80q-96 0 -207 -17q-47 -256 -67 -394t-29 -185q-57 -342 -174 -546t-278 -204q-96 0 -183 74q-6 61 15 123q102 -33 227 -33q53 0 94.5 40t97.5 425l37 268q31 252 62 436
q-94 12 -146 13q0 47 23 80h137q53 276 189.5 410t318.5 134q121 0 192 -39q45 12 72 31q51 -14 51 -84q1 -29 -31 -204t-55.5 -282.5t-70.5 -250.5h2q63 152 154.5 237.5t195.5 85.5t157.5 -50t53.5 -128z" />
    <glyph glyph-name="longs_t" horiz-adv-x="1220" 
d="M858 1163q0 133 -139 133q-63 0 -136 -47t-122 -331q-51 -264 -94 -553l-21 -123q-57 -342 -174 -546t-278 -204q-96 0 -183 74q-6 61 15 123q102 -33 227 -33q53 0 94.5 40t97.5 425l37 268q31 252 62 436q-94 12 -146 13q0 47 23 80h137q45 238 181 352t321 114
q106 0 192 -47q45 12 72 31q47 -14 47 -85t-65 -365h190q0 -49 -14 -80q-104 0 -199 -15l-96 -407q-25 -104 -25 -185q0 -123 72 -122q35 0 77 25.5t74 66.5q33 -19 43 -66q-47 -61 -121.5 -107t-159.5 -46q-177 0 -177 211q0 82 28 208l97 424q-57 12 -131 13q0 47 22 80
h133q39 173 39 245z" />
    <glyph glyph-name="longs_b" horiz-adv-x="1505" 
d="M1284 629q0 162 -84 162q-39 0 -103.5 -69t-128 -191.5t-100.5 -280.5l-32 -144q53 -20 122 -20q232 0 302 344q24 117 24 199zM1315 956q166 0 166 -235q0 -79 -27 -217t-106.5 -260.5t-194.5 -192t-246 -69.5h-4q-182 0 -280 102q61 90 108 360l119 668q12 61 12 111
q0 151 -137 151q-63 0 -132.5 -57t-131.5 -399l-115 -676q-57 -342 -174 -546t-278 -204q-96 0 -183 74q-6 61 15 123q102 -33 227 -33q53 0 94.5 40t97.5 425l37 268q31 252 62 436q-94 12 -146 13q0 47 23 80h137q53 276 189.5 410t318.5 134q121 0 192 -39q45 12 72 31
q49 -16 49 -80q0 -23 -6 -51l-80 -449q-25 -137 -84 -301h4q66 158 176.5 270.5t225.5 112.5z" />
    <glyph glyph-name="longs_h" horiz-adv-x="1619" 
d="M1321 -18q-70 0 -99.5 30.5t-29.5 91.5t33 207l55 244q23 98 23 162q0 90 -53.5 90t-128 -70.5t-140.5 -194.5t-94 -276l-47 -266h-187l197 1112q12 61 12 111q0 151 -137 151q-63 0 -132.5 -57t-131.5 -399l-55 -328q-29 -182 -60 -348q-57 -342 -174 -546t-278 -204
q-96 0 -183 74q-6 61 15 123q102 -33 227 -33q53 0 94.5 40t97.5 425l37 268q31 252 62 436q-94 12 -146 13q0 47 23 80h137q53 276 189.5 410t318.5 134q121 0 192 -39q45 12 72 31q47 -14 47 -82q0 -12 -4 -49q-61 -348 -90 -477t-86 -309v-7l51 107q33 70 97.5 144.5
t140.5 124.5t142 50t116.5 -50t50.5 -150t-22 -193l-60 -250q-33 -139 -33 -161t5.5 -26.5t22.5 -4.5t52 19.5t60 43.5q28 -28 36 -65q-137 -137 -235 -137z" />
    <glyph glyph-name="longs_i" horiz-adv-x="1091" 
d="M1012 825q0 -57 -25 -147l-113 -395q-37 -129 -22.5 -143.5t33.5 -14.5q47 0 106 59q31 -20 37 -65q-127 -137 -233 -137q-135 0 -136 149q0 59 23 145l84 295q35 123 35 162t-24.5 50.5t-92.5 11.5q-2 45 12 77q47 6 122 33t114 51q80 -31 80 -131zM968 1169
q-62 0 -77 5q-4 104 -40 153t-111 49t-121 -38t-95 -172.5t-135 -657.5l-43 -266q-57 -342 -174 -546t-278 -204q-96 0 -183 74q-6 61 15 123q102 -33 227 -33q53 0 94.5 40t97.5 425l37 268q31 252 62 436q-94 12 -146 13q0 47 23 80h137q55 287 193.5 415.5t337.5 128.5
t321 -78q-35 -92 -41 -192q-39 -23 -101 -23z" />
    <glyph glyph-name="longs_k" horiz-adv-x="1540" 
d="M1284 731q0 41 -20.5 65.5t-55.5 24.5q-76 0 -153.5 -104.5t-122.5 -261.5q352 89 352 276zM1487 778q0 -222 -400 -350q37 -45 107 -170l23 -39q31 -55 53 -73.5t49 -18.5t49.5 13.5t56.5 45.5q31 -27 39 -65q-126 -139 -217.5 -139t-129.5 42t-86 143t-118 212
l-67 -379h-187l193 1108q10 66 10 125t-32 100t-100 41t-137.5 -57t-131.5 -399l-115 -676q-57 -342 -174 -546t-278 -204q-96 0 -183 74q-6 61 15 123q102 -33 227 -33q53 0 94.5 40t97.5 425l37 268q31 252 62 436q-94 12 -146 13q0 47 23 80h137q53 276 189.5 410
t318.5 134q121 0 192 -39q45 12 72 31q51 -14 51 -84q1 -29 -31 -204t-55.5 -282.5t-70.5 -250.5h2q63 152 154.5 237.5t195.5 85.5t157.5 -50t53.5 -128z" />
    <glyph glyph-name="longs_l" horiz-adv-x="1112" 
d="M870 199q0 -74 37 -74q43 0 105 59q27 -25 37 -61q-51 -61 -114 -101t-118 -40q-139 0 -139 153q0 80 26.5 234.5t145.5 742.5q14 72 14 113q0 150 -139 149q-63 0 -132.5 -57t-131.5 -399q-37 -211 -68 -398l-47 -278q-57 -342 -174 -546t-278 -204q-96 0 -183 74
q-6 61 15 123q102 -33 227 -33q53 0 94.5 40t97.5 425l37 268q31 252 62 436q-94 12 -146 13q0 47 23 80h137q53 276 189.5 410t318.5 134q121 0 192 -39q45 12 72 31q47 -14 47 -82q0 -12 -4 -49q-59 -328 -131 -689t-72 -435z" />
    <glyph glyph-name="longs_longs" horiz-adv-x="1179" 
d="M756 1307q-114 0 -182 -100.5t-103 -288.5l-35 -191q-72 -377 -94 -509q-45 -266 -143 -470q63 -29 165 -29t161 24t96.5 81t68.5 164q63 223 152 837q-98 12 -146 13q4 47 23 80h137q25 148 82 268q-68 121 -182 121zM340 -430q-68 0 -113 19.5t-90 54.5
q-106 -152 -241 -152q-98 0 -185 74q-6 61 15 123q102 -33 189 -33t116.5 26.5t54.5 122t59 316.5l109 704q-94 12 -145 13q0 47 22 80h137q31 152 109 261t184.5 165.5t232.5 56.5t240 -76q129 137 314 137q63 0 119.5 -15t84.5 -36q-47 -100 -53 -219q-35 -20 -86 -16
q-8 192 -129 192q-59 0 -94 -38t-74 -165t-95 -446q-57 -320 -107.5 -558t-217 -414.5t-356.5 -176.5z" />
    <glyph glyph-name="f_f.calt" horiz-adv-x="1202" 
d="M361 -281q99 0 161 24t102 82t89 251t129 749q-198 23 -389 -4l-27 -143q-70 -377 -80 -436q-49 -295 -147 -494q63 -29 162 -29zM856 918q29 175 72 286q-70 102 -176 102q-209 1 -281 -388h385zM784 1401q114 0 217 -55q88 117 236 116q104 0 158 -37q-37 -80 -45 -225
q-33 -18 -93 -14q4 106 -10 143t-50 37t-67.5 -43.5t-78.5 -386.5l-2 -18h213q0 -49 -15 -80q-96 0 -207 -17q-47 -297 -76.5 -442.5t-71.5 -280.5t-124 -257t-193.5 -196.5t-236.5 -74.5q-66 0 -111 19.5t-90 54.5q-106 -152 -243 -152q-96 0 -183 74q-6 61 15 123
q102 -33 227 -33q53 0 94.5 40t102.5 451q61 412 104 678q-94 12 -145 13q0 47 22 80h137q31 155 111 263.5t185.5 164t219.5 55.5z" />
    <glyph glyph-name="longs_longs.calt" horiz-adv-x="1181" 
d="M361 -281q99 0 161 24t102 82t90 253t128 747q-121 12 -144 13q0 47 23 80h135q29 175 72 286q-70 102 -176 102q-209 1 -281 -388l-125 -676q-49 -295 -147 -494q63 -29 162 -29zM1197 1366q-36 0 -67.5 -43.5t-82.5 -410.5t-79 -512.5t-73 -291.5t-127 -267.5
t-193.5 -196t-236.5 -74.5q-66 0 -111 19.5t-90 54.5q-106 -152 -243 -152q-96 0 -183 74q-6 61 15 123q102 -33 227 -33q53 0 94.5 40t102.5 451q61 412 104 678q-94 12 -145 13q0 47 22 80h137q31 156 111 264t185.5 163.5t219.5 55.5t217 -55q88 117 236 116
q104 0 158 -37q-37 -80 -45 -225q-33 -18 -93 -14q4 106 -10 143t-50 37z" />
    <glyph glyph-name="zero.lf" horiz-adv-x="1273" 
d="M354 512q0 -199 69 -316.5t191 -117.5t220 137t149 410q27 141 27 299t-63.5 264t-193.5 106t-226.5 -138t-143.5 -378q-29 -150 -29 -266zM1202 881q0 -113 -30 -267t-115.5 -306t-206.5 -239t-255 -87t-229.5 65.5t-147.5 187t-52 257.5q0 347 120 544t241.5 277
t265.5 80q186 0 297.5 -136.5t111.5 -375.5z" />
    <glyph glyph-name="one.lf" horiz-adv-x="786" 
d="M649 1309q0 -31 -4 -49l-190 -1000q-11 -55 -11 -92t29 -57.5t102 -28.5q12 -51 5 -88q-123 6 -255 6t-237 -6q0 51 16 88q57 6 86 21.5t45.5 50t30.5 106.5l148 774q14 82 14 126t-33 58.5t-127 14.5l-2 20q0 33 15 58q108 16 172.5 32.5t146.5 51.5q49 -14 49 -86z" />
    <glyph glyph-name="two.lf" horiz-adv-x="1075" 
d="M454 186q105 0 164 -6l66 -2q53 0 80 31t41 121q61 4 110 -17q-29 -139 -34 -270q-18 -33 -38 -42t-67 -9l-104 2q-98 6 -300 6t-335 -8q-20 41 -19 86q158 138 196 172t227 197q190 163 290.5 313t104.5 346q0 199 -174 199q-106 0 -174 -74t-95 -211q-63 -6 -112 18
q27 135 32 254q201 106 374 106q343 1 343 -276q0 -169 -101.5 -316t-299.5 -321l-346 -305q66 6 171 6z" />
    </font>
</defs>
</svg>
