<?xml version="1.0" standalone="no"?>
<!DOCTYPE svg PUBLIC "-//W3C//DTD SVG 1.1//EN" "http://www.w3.org/Graphics/SVG/1.1/DTD/svg11.dtd" >
<svg xmlns="http://www.w3.org/2000/svg">
<metadata>
Created by FontPrep 20130207 at Wed Jan  6 13:16:18 2016
 By Martin Campillo
Copyright 2010, 2012 Adobe Systems Incorporated. All Rights Reserved.
</metadata>
<defs>
<font id="daf12afc31dc3d4b43e1f5e66ac75d3d" horiz-adv-x='1024' >
  <font-face 
    font-family="SourceSansPro-Black"
    font-weight="900"
    font-stretch="normal"
    units-per-em="2048"
    panose-1="2 11 8 3 3 4 3 2 2 4"
    ascent="1536"
    descent="-512"
    x-height="1024"
    cap-height="1331"
    bbox="-504 -834 2556 2015"
    underline-thickness="102"
    underline-position="-102"
    unicode-range="U+000D-FEFF"
  />
<missing-glyph horiz-adv-x="1441" 
d="M725 868l82 197l37 74h-246l37 -74l82 -197h8zM852 213l-53 115l-74 196h-8l-74 -196l-53 -115h262zM1057 352v688l-168 -344zM553 696l-168 344v-688zM156 1352h1130v-1352h-1130v1352z" />
    <glyph glyph-name="f_f" unicode="ff" horiz-adv-x="1409" 
d="M1311 1176q-107 0 -107 -127v-25h172v-274h-172v-750h-352v750h-320v-750h-352v750h-135v262l135 10v14q0 272 149.5 333t271.5 61t214 -37l-61 -258q-46 20 -134 20t-88 -115v-16h320v12q0 286 145.5 350t257.5 64t220 -37l-62 -258q-52 21 -102 21z" />
    <glyph glyph-name="f_t" unicode="ft" horiz-adv-x="1482" 
d="M827 393v357h-295v-750h-352v750h-135v262l135 10v14q0 286 145.5 350t257.5 64t220 -37l-62 -258q-52 21 -102 21q-107 0 -107 -127v-25h316l41 266h291v-266h233v-274h-233v-351q0 -86 36.5 -117.5t81.5 -31.5t95 16l53 -254q-126 -37 -234 -37q-198 0 -291.5 110.5
t-93.5 307.5z" />
    <glyph glyph-name=".notdef" horiz-adv-x="1441" 
d="M725 868l82 197l37 74h-246l37 -74l82 -197h8zM852 213l-53 115l-74 196h-8l-74 -196l-53 -115h262zM1057 352v688l-168 -344zM553 696l-168 344v-688zM156 1352h1130v-1352h-1130v1352z" />
    <glyph glyph-name=".null" 
 />
    <glyph glyph-name="nonmarkingreturn" horiz-adv-x="681" 
 />
    <glyph glyph-name="NULL" 
 />
    <glyph glyph-name="NULL" 
 />
    <glyph glyph-name="CR" unicode="&#xd;" horiz-adv-x="430" 
 />
    <glyph glyph-name="space" unicode=" " horiz-adv-x="430" 
 />
    <glyph glyph-name="exclam" unicode="!" horiz-adv-x="737" 
d="M164 188.5q0 90.5 57.5 151.5t147.5 61t147 -61t57 -151.5t-57 -152t-147 -61.5t-147.5 61.5t-57.5 152zM205 1069l-12 303h352l-13 -303l-49 -569h-229z" />
    <glyph glyph-name="quotedbl" unicode="&#x22;" horiz-adv-x="1187" 
d="M164 1098l-12 303h352l-12 -303l-70 -434h-189zM696 1098l-12 303h352l-12 -303l-70 -434h-188z" />
    <glyph glyph-name="numbersign" unicode="#" horiz-adv-x="1105" 
d="M631 590l24 196h-188l-25 -196h189zM70 369v221h172l24 196h-155v222h184l41 323h196l-36 -323h188l41 323h197l-37 -323h159v-222h-188l-25 -196h173v-221h-197l-45 -369h-201l45 369h-188l-45 -369h-201l45 369h-147z" />
    <glyph glyph-name="dollar" unicode="$" horiz-adv-x="1105" 
d="M221 373q158 -115 292 -115t134 106q0 50 -39 81.5t-98 62.5t-225 113t-166 297q0 156 83 258t232 135v213h230v-209q172 -28 309 -172l-174 -201q-110 98 -213 98q-131 0 -131 -95q0 -50 38.5 -78.5t98 -57.5t225.5 -109t166 -297q0 -156 -79 -264t-240 -147v-217h-230
v205q-88 10 -187.5 48t-176.5 107z" />
    <glyph glyph-name="percent" unicode="%" horiz-adv-x="1781" 
d="M492 934q0 229 -102 229t-103 -229q1 -134 31 -184t71 -50t72 50t31 184zM389 508q-150 0 -247 114t-97 310q0 195 96 310q96 114 246 114t249 -115t98 -309q-1 -193 -98 -308q-97 -116 -247 -116zM438 -25l713 1381h197l-713 -1381h-197zM1495 401q-1 230 -103 230
t-102 -230q0 -135 31 -184t72 -49t71 49t31 184zM1737 401q0 -193 -97 -310q-97 -116 -247 -116q-152 0 -249 116t-96 311q1 196 98 310q97 113 246 112q150 -1 248 -115q97 -114 97 -308z" />
    <glyph glyph-name="ampersand" unicode="&#x26;" horiz-adv-x="1413" 
d="M934 104q-192 -129 -422 -129q-229 0 -348 111.5t-119 286.5q0 216 236 358q-80 144 -80 279q0 136 107 241t273 105q165 0 261 -85t96 -242q0 -192 -266 -359q100 -104 233 -199q100 129 144 295h319q-72 -242 -217 -436q121 -59 221 -72l-82 -283q-167 30 -356 129z
M489 996q0 -64 37 -134q63 37 104.5 78t41.5 100q0 86 -78 86q-41 0 -73 -33t-32 -97zM377 382q0 -62 45.5 -101t115.5 -39t142 32q-139 111 -242 232q-61 -62 -61 -124z" />
    <glyph glyph-name="quotesingle" unicode="'" horiz-adv-x="655" 
d="M164 1098l-12 303h352l-12 -303l-70 -434h-189z" />
    <glyph glyph-name="parenleft" unicode="(" horiz-adv-x="737" 
d="M422 569q0 -470 209 -848l-221 -90q-129 211 -200 439.5t-71 499t71 497.5t200 440l221 -90q-209 -378 -209 -848z" />
    <glyph glyph-name="parenright" unicode=")" horiz-adv-x="737" 
d="M315 569.5q0 470.5 -209 847.5l222 90q129 -213 199.5 -440t70.5 -497.5t-70.5 -499t-199.5 -439.5l-222 90q209 378 209 848.5z" />
    <glyph glyph-name="asterisk" unicode="*" horiz-adv-x="966" 
d="M168 762l123 219l-230 106l56 170l248 -49l28 250h180l29 -252l248 51l55 -170l-231 -106l125 -219l-144 -105l-172 187l-172 -187z" />
    <glyph glyph-name="plus" unicode="+" horiz-adv-x="1105" 
d="M426 553h-356v246h356v368h254v-368h356v-246h-356v-369h-254v369z" />
    <glyph glyph-name="comma" unicode="," horiz-adv-x="655" 
d="M342 16h-14q-80 0 -142.5 50.5t-62.5 139.5t61.5 142t163.5 53t161.5 -84.5t59.5 -250.5t-102 -297t-303 -187l-70 185q123 41 185.5 107.5t62.5 141.5z" />
    <glyph glyph-name="hyphen" unicode="-" horiz-adv-x="696" 
d="M90 643h516v-246h-516v246z" />
    <glyph glyph-name="period" unicode="." horiz-adv-x="655" 
d="M123 188.5q0 90.5 57.5 151.5t147.5 61t147 -61t57 -151.5t-57 -152t-147 -61.5t-147.5 61.5t-57.5 152z" />
    <glyph glyph-name="slash" unicode="/" horiz-adv-x="684" 
d="M389 1454h225l-360 -1782h-225z" />
    <glyph glyph-name="zero" unicode="0" horiz-adv-x="1105" 
d="M553 246q31 0 58.5 15t48 60.5t33 125t12.5 208.5t-12.5 207t-33 121t-48 56.5t-58.5 13.5t-58.5 -13.5t-48 -56.5t-33 -121t-12.5 -207t12.5 -208.5t33 -125t48 -60.5t58.5 -15zM201.5 1153.5q131.5 169.5 351.5 169.5t351.5 -171t131.5 -497t-132 -503t-352 -177
q-218 0 -350 177t-132 504.5t131.5 497z" />
    <glyph glyph-name="one" unicode="1" horiz-adv-x="1105" 
d="M766 1298v-1015h233v-283h-864v283h279v671h-246v217q208 43 340 127h258z" />
    <glyph glyph-name="two" unicode="2" horiz-adv-x="1105" 
d="M799 295h217v-295h-942v201q281 259 371 360t131.5 175.5t41.5 151.5t-44 119t-112 42t-118.5 -38t-97.5 -85l-189 188q110 114 210.5 161.5t219.5 47.5q218 0 342.5 -116.5t124.5 -312.5q0 -197 -153.5 -372.5t-218.5 -242.5q131 16 217 16z" />
    <glyph glyph-name="three" unicode="3" horiz-adv-x="1105" 
d="M655 368q0 50 -25 109.5t-298 59.5v245q227 0 254.5 56.5t27.5 91.5q0 119 -135 119q-66 0 -117 -27t-112 -80l-176 213q202 168 419 168q218 0 346 -95.5t128 -277.5t-209 -274v-8q111 -35 180.5 -111.5t69.5 -184.5q0 -190 -145 -293.5t-359 -103.5q-304 0 -463 185
l160 221q132 -123 266 -123q86 0 137 30t51 80z" />
    <glyph glyph-name="four" unicode="4" horiz-adv-x="1105" 
d="M1061 291h-139v-291h-328v291h-553v246l442 761h439v-741h139v-266zM594 705q0 109 12 307h-8q-32 -75 -106 -234l-119 -221h221v148z" />
    <glyph glyph-name="five" unicode="5" horiz-adv-x="1105" 
d="M463 258q192 0 192 168q0 84 -49 126t-123 42t-114.5 -21.5t-69.5 -40.5l-152 99l33 667h770v-294h-467l-16 -189q61 21 134 21q165 0 286 -103t121 -306t-143.5 -327.5t-348.5 -124.5q-286 0 -471 185l156 221q137 -123 262 -123z" />
    <glyph glyph-name="six" unicode="6" horiz-adv-x="1105" 
d="M399 690q103 129 271 129q54 0 127 -23.5t125.5 -72.5t83 -125t30.5 -229t-129 -273.5t-331 -120.5q-201 0 -349.5 162t-148.5 492.5t155 512t389 181.5t398 -164l-184 -209q-31 35 -86.5 62.5t-106.5 27.5q-230 0 -244 -350zM593 238q40 0 82 38.5t42 152.5
q0 144 -153 144q-36 0 -79 -25.5t-77 -84.5q18 -121 64 -173t121 -52z" />
    <glyph glyph-name="seven" unicode="7" horiz-adv-x="1105" 
d="M90 1004v294h930v-217q-208 -241 -263 -422.5t-70 -325t-23 -333.5h-353q16 309 88.5 535t247.5 469h-557z" />
    <glyph glyph-name="eight" unicode="8" horiz-adv-x="1105" 
d="M299 647q-172 130 -172 299q0 181 121.5 279t307.5 98t298.5 -97.5t112.5 -262.5q0 -90 -48.5 -159t-117.5 -114v-8q96 -51 159.5 -132t63.5 -210q0 -158 -132 -261.5t-337 -103.5t-337 99.5t-132 275.5t213 289v8zM684 931q0 75 -35 112.5t-89 37.5t-90 -29.5t-36 -96.5
t50.5 -105.5t142.5 -75.5q57 82 57 157zM387 381q0 -86 50.5 -125t114.5 -39q146 0 146 135q0 66 -51.5 100.5t-191.5 96.5q-68 -82 -68 -168z" />
    <glyph glyph-name="nine" unicode="9" horiz-adv-x="1105" 
d="M702 608q-104 -129 -272 -129q-55 0 -127 23.5t-124 73t-82.5 125t-30.5 229t128.5 273.5t330.5 120t350.5 -161t148.5 -492.5t-156 -513t-381 -181.5q-139 0 -239.5 49.5t-165.5 114.5l184 209q31 -35 86.5 -62.5t107.5 -27.5q108 0 171.5 84.5t70.5 265.5zM385 881
q0 -156 143 -156q101 0 166 111q-18 119 -64.5 172t-103.5 53t-99 -39t-42 -141z" />
    <glyph glyph-name="colon" unicode=":" horiz-adv-x="655" 
d="M123 823q0 89 57 151q58 62 148 62t147 -61t57 -151t-57 -152t-147 -62t-148 62t-57 151zM123 188q0 90 57 152q58 62 148 61q90 0 147 -61q57 -62 57 -152t-57 -151t-147 -61t-148 60q-58 62 -57 152z" />
    <glyph glyph-name="semicolon" unicode=";" horiz-adv-x="655" 
d="M123 823q0 89 57 151q58 62 148 62t147 -61t57 -151t-57 -152t-147 -62t-148 62t-57 151zM342 16h-14q-80 0 -142 50t-63 140q0 89 61 142t164 53t162 -84q59 -85 59 -251t-102 -297t-303 -187l-70 185q123 41 186 107q62 67 62 142z" />
    <glyph glyph-name="less" unicode="&#x3c;" horiz-adv-x="1105" 
d="M70 799l966 368v-286l-331 -103l-279 -94v-8l279 -94l331 -103v-286l-966 368v238z" />
    <glyph glyph-name="equal" unicode="=" horiz-adv-x="1105" 
d="M70 1044h966v-245h-966v245zM70 555h966v-246h-966v246z" />
    <glyph glyph-name="greater" unicode="&#x3e;" horiz-adv-x="1105" 
d="M1036 561l-966 -368v286l331 103l279 94v8l-279 94l-331 103v286l966 -368v-238z" />
    <glyph glyph-name="question" unicode="?" horiz-adv-x="978" 
d="M258 188.5q0 90.5 57.5 151.5t147.5 61t147.5 -61t57.5 -151.5t-57.5 -152t-147.5 -61.5t-147.5 61.5t-57.5 152zM561 1023q0 44 -33.5 67.5t-83.5 23.5t-87.5 -24.5t-77.5 -61.5l-193 176q72 86 170 139.5t200 53.5q203 0 322 -88t119 -273q0 -131 -116.5 -246.5
t-142.5 -175t-20 -114.5h-307q-24 161 88 282.5t137 159t25 81.5z" />
    <glyph glyph-name="at" unicode="@" horiz-adv-x="1892" 
d="M795 426q0 -119 94 -119q29 0 54.5 17.5t60.5 64.5l45 258q-21 49 -72 49q-86 0 -134 -89t-48 -181zM897 -365q-334 0 -566.5 201t-232.5 586q0 217 76 396t205 305t302 196t355 70q350 0 554 -208t204 -542q0 -267 -150 -418t-341 -151q-88 0 -156 41t-86 114h-4
q-59 -92 -137 -113.5t-109 -21.5q-127 0 -203 87t-76 229q0 200 125.5 356t296.5 156q105 0 152 -103h4l33 86h213l-99 -467q-37 -152 86 -151q98 0 166 99t68 226q0 257 -134.5 414.5t-422.5 157.5q-129 0 -253 -53.5t-220 -151.5t-155.5 -236.5t-59.5 -299.5
q0 -298 172.5 -446.5t421.5 -148.5q155 0 303 74l74 -188q-186 -95 -406 -95z" />
    <glyph glyph-name="A" unicode="A" horiz-adv-x="1196" 
d="M778 283h-372l-66 -283h-360l405 1331h426l406 -1331h-373zM715 555l-23 92q-25 96 -49.5 209t-48.5 213h-8q-23 -102 -46.5 -214t-47.5 -208l-23 -92h246z" />
    <glyph glyph-name="B" unicode="B" horiz-adv-x="1253" 
d="M643 270q205 0 205 152q0 74 -50 106.5t-155 32.5h-143v-291h143zM618 807q86 0 127 39t41 100.5t-40.5 88t-127.5 26.5h-118v-254h118zM909 705q283 -59 283 -297q0 -210 -154 -315q-137 -93 -370 -93h-521v1331h480q359 -1 463 -169q40 -64 40 -163q0 -153 -121 -241
q-42 -30 -100 -45v-8z" />
    <glyph glyph-name="C" unicode="C" horiz-adv-x="1200" 
d="M1163 172q-173 -197 -440 -197t-450 176.5t-183 501t191 514t460 189.5q127 0 230.5 -52.5t175.5 -123.5l-193 -217q-49 43 -96 67q-48 24 -110 23q-126 0 -211.5 -105t-85.5 -286.5t78.5 -282t211.5 -100.5t230 106z" />
    <glyph glyph-name="D" unicode="D" horiz-adv-x="1314" 
d="M520 283q163 0 245 77q99 94 99 312q0 312 -208 362q-64 16 -136 15h-20v-766h20zM147 1331h394q489 0 633 -358q50 -125 51 -301q0 -339 -181 -505.5t-483 -166.5h-414v1331z" />
    <glyph glyph-name="E" unicode="E" horiz-adv-x="1138" 
d="M147 1331h861v-295h-508v-209h434v-295h-434v-237h528v-295h-881v1331z" />
    <glyph glyph-name="F" unicode="F" horiz-adv-x="1097" 
d="M147 1331h869v-295h-516v-254h442v-295h-442v-487h-353v1331z" />
    <glyph glyph-name="G" unicode="G" horiz-adv-x="1323" 
d="M799 279q66 0 102 24v184h-196v287h507v-635q-74 -68 -195.5 -116t-260.5 -48q-292 0 -479 176.5t-187 502t194 514t478 188.5q141 0 247.5 -52.5t178.5 -123.5l-193 -217q-49 43 -99 66.5t-124 23.5q-141 0 -231 -103t-90 -286q0 -385 348 -385z" />
    <glyph glyph-name="H" unicode="H" horiz-adv-x="1396" 
d="M147 1331h353v-495h397v495h352v-1331h-352v528h-397v-528h-353v1331z" />
    <glyph glyph-name="I" unicode="I" horiz-adv-x="647" 
d="M147 1331h353v-1331h-353v1331z" />
    <glyph glyph-name="J" unicode="J" horiz-adv-x="1064" 
d="M422 279q80 0 115.5 46.5t35.5 166.5v839h353v-868q0 -209 -115.5 -348.5t-335.5 -139.5q-164 0 -272.5 61.5t-182.5 190.5l238 179q35 -66 80 -96.5t84 -30.5z" />
    <glyph glyph-name="K" unicode="K" horiz-adv-x="1286" 
d="M147 1331h353v-495h8l336 495h385l-398 -540l476 -791h-385l-295 512l-127 -180v-332h-353v1331z" />
    <glyph glyph-name="L" unicode="L" horiz-adv-x="1085" 
d="M147 1331h353v-1036h504v-295h-857v1331z" />
    <glyph glyph-name="M" unicode="M" horiz-adv-x="1589" 
d="M1114 393q0 108 45 475h-8l-111 -311l-184 -448h-131l-184 448l-107 311h-8q6 -48 14 -110q30 -221 31 -365v-393h-324v1331h365l209 -553l74 -217h8l74 217l200 553h365v-1331h-328v393z" />
    <glyph glyph-name="N" unicode="N" horiz-adv-x="1376" 
d="M147 1331h361l295 -594l127 -299h8q-6 52 -14 116q-30 228 -31 392v385h336v-1331h-361l-295 596l-127 297h-8q12 -115 28.5 -250t16.5 -258v-385h-336v1331z" />
    <glyph glyph-name="O" unicode="O" horiz-adv-x="1417" 
d="M708.5 279q120.5 0 189.5 105t69 287.5t-69 282t-189.5 99.5t-189 -99.5t-68.5 -282t68.5 -287.5t189 -105zM258 1175.5q168 180.5 451 180.5t450.5 -182t167.5 -504.5t-169 -508.5t-450 -186q-280 0 -447 184q-171 188 -171 512t168 504.5z" />
    <glyph glyph-name="P" unicode="P" horiz-adv-x="1265" 
d="M647 700q104 0 154.5 49.5t50.5 139.5t-53.5 127t-151.5 37h-147v-353h147zM147 1331h517q372 0 489 -232q43 -85 43 -209q0 -232 -153.5 -350t-378.5 -118h-164v-422h-353v1331z" />
    <glyph glyph-name="Q" unicode="Q" horiz-adv-x="1417" 
d="M1186 -377q-460 0 -637 371q-327 80 -426 424q-33 114 -33 266t45 280t126 215q165 177 448 177t450.5 -182t167.5 -502q0 -262 -109.5 -432t-297.5 -232q79 -106 280 -106q78 0 152 24l61 -254q-87 -49 -227 -49zM708.5 1053q-120.5 0 -189 -99.5t-68.5 -290t68.5 -296
t189 -105.5t189.5 105.5t69 296t-69 290t-189.5 99.5z" />
    <glyph glyph-name="R" unicode="R" horiz-adv-x="1290" 
d="M1184 901q0 -269 -215 -385l288 -516h-393l-229 446h-135v-446h-353v1331h504q375 0 490 -222q43 -83 43 -208zM500 725h127q213 0 213 176q0 86 -54.5 119t-158.5 33h-127v-328z" />
    <glyph glyph-name="S" unicode="S" horiz-adv-x="1155" 
d="M729 373q0 41 -48 71q-25 15 -132 58l-166 69q-185 70 -247 240q-22 59 -21.5 138t37 154t102.5 131q143 122 356 122q115 0 233 -43t210 -135l-176 -222q-140 97 -273 97t-133 -90q0 -47 52 -73t145 -61l161 -63q261 -102 261 -365q0 -177 -141.5 -301.5t-379.5 -124.5
q-127 0 -261 46.5t-242 144.5l200 242q163 -129 313 -129t150 94z" />
    <glyph glyph-name="T" unicode="T" horiz-adv-x="1155" 
d="M401 1036h-352v295h1057v-295h-352v-1036h-353v1036z" />
    <glyph glyph-name="U" unicode="U" horiz-adv-x="1376" 
d="M139 1331h353v-729q0 -178 48 -250.5t152.5 -72.5t154.5 72.5t50 250.5v729h340v-688q0 -342 -133 -505t-413 -163t-416 163t-136 505v688z" />
    <glyph glyph-name="V" unicode="V" horiz-adv-x="1171" 
d="M-20 1331h372l140 -581q29 -106 49 -210t49 -212h8q29 109 50.5 212t47.5 210l135 581h361l-393 -1331h-426z" />
    <glyph glyph-name="W" unicode="W" horiz-adv-x="1687" 
d="M20 1331h361l74 -581q10 -104 22 -209t23 -209h8q36 208 74 418l127 581h295l126 -581q53 -296 74 -418h8q10 106 22.5 210.5t22.5 207.5l74 581h336l-221 -1331h-447l-102 528q-20 98 -49 312h-8q-29 -214 -49 -312l-99 -528h-438z" />
    <glyph glyph-name="X" unicode="X" horiz-adv-x="1204" 
d="M381 684l-340 647h393l90 -217q23 -47 44.5 -101.5t49.5 -119.5h9q46 132 82 221l77 217h377l-340 -663l361 -668h-393l-107 238q-47 100 -94 221h-8q-57 -151 -86 -221l-99 -238h-377z" />
    <glyph glyph-name="Y" unicode="Y" horiz-adv-x="1114" 
d="M733 0h-352v459l-401 872h376l99 -278q54 -163 100 -297h8q27 78 52.5 149.5t52.5 147.5l98 278h369l-402 -872v-459z" />
    <glyph glyph-name="Z" unicode="Z" horiz-adv-x="1110" 
d="M119 1036v295h925v-213l-544 -823h549v-295h-983v213l544 823h-491z" />
    <glyph glyph-name="bracketleft" unicode="[" horiz-adv-x="737" 
d="M172 1450h459v-184h-197v-1393h197v-184h-459v1761z" />
    <glyph glyph-name="backslash" unicode="\" horiz-adv-x="684" 
d="M70 1454h225l360 -1782h-225z" />
    <glyph glyph-name="bracketright" unicode="]" horiz-adv-x="737" 
d="M303 -127v1393h-197v184h459v-1761h-459v184h197z" />
    <glyph glyph-name="asciicircum" unicode="^" horiz-adv-x="1105" 
d="M414 1372h278l320 -819h-287l-78 225l-90 279h-8l-90 -279l-78 -225h-287z" />
    <glyph glyph-name="underscore" unicode="_" horiz-adv-x="1024" 
d="M999 -106v-193h-974v193h974z" />
    <glyph glyph-name="grave" unicode="`" horiz-adv-x="1146" 
d="M238 1491h335l181 -315h-254z" />
    <glyph glyph-name="a" unicode="a" horiz-adv-x="1110" 
d="M422 319q0 -74 94 -73q43 0 70.5 19.5t56.5 49.5v140q-127 -18 -174 -55.5t-47 -80.5zM86 304q0 147 131 238t426 122q-12 106 -143 106q-98 0 -258 -86l-123 229q225 136 437 136t325.5 -114t113.5 -366v-569h-286l-25 98h-8q-136 -123 -278.5 -123t-227 91t-84.5 238z
" />
    <glyph glyph-name="b" unicode="b" horiz-adv-x="1187" 
d="M593 262q70 0 115.5 57.5t45.5 194.5t-36 192.5t-110 55.5t-137 -74v-377q52 -49 122 -49zM119 0v1425h352v-331l-8 -148q111 103 252 103q179 0 289 -141t110 -386.5t-126 -396t-300 -150.5q-140 0 -258 136h-8l-29 -111h-274z" />
    <glyph glyph-name="c" unicode="c" horiz-adv-x="966" 
d="M926 102q-146 -127 -358 -127q-94 0 -188.5 36t-164.5 104.5t-109.5 169t-39.5 227.5q0 246 160 391.5t388 145.5q184 0 299 -115l-159 -217q-59 49 -119 49q-98 0 -153.5 -68.5t-55.5 -185.5t56.5 -185.5t135 -68.5t168.5 66z" />
    <glyph glyph-name="d" unicode="d" horiz-adv-x="1187" 
d="M578 762q-55 0 -99.5 -55.5t-44.5 -190.5q0 -254 152 -254q41 0 71.5 15.5t59.5 58.5v377q-52 49 -139 49zM750 94q-118 -119 -272 -119q-82 0 -159 37t-131.5 106.5t-84 169t-29.5 224.5t35.5 225.5t94 169t134.5 105.5t157 37t134 -28t100 -75l-12 148v331h352v-1425
h-287l-24 94h-8z" />
    <glyph glyph-name="e" unicode="e" horiz-adv-x="1077" 
d="M705 627q0 66 -30 110.5t-99.5 44.5t-113.5 -34.5t-61 -120.5h304zM967 94q-169 -119 -387 -119q-100 0 -196 36q-96 37 -166 105q-152 147 -152 391t147 393t354 149t322 -141t115 -355q0 -72 -15 -139h-583q25 -98 88 -135t156.5 -37t201.5 61z" />
    <glyph glyph-name="f" unicode="f" horiz-adv-x="737" 
d="M639 1176q-107 0 -107 -127v-25h173v-274h-173v-750h-352v750h-135v262l135 10v14q0 286 214 380q77 34 189 34t220 -37l-62 -258q-52 21 -102 21z" />
    <glyph glyph-name="g" unicode="g" horiz-adv-x="1118" 
d="M524 532q49 0 80 35t31 108t-31 106.5t-80 33.5t-79.5 -33.5t-30.5 -106.5t30.5 -108t79.5 -35zM385 280q0 -36 33 -49.5t110 -13.5h154q193 0 298 -62.5t105 -203.5q0 -167 -159.5 -270t-445 -103t-384.5 136q-35 48 -35 118q0 121 144 197v8q-94 66 -94 176
q0 53 30.5 104.5t83.5 88.5v8q-55 37 -97 104.5t-42 159.5q0 177 128.5 274t309.5 97q90 0 164 -25h381v-254h-147q16 -48 16 -122t-33 -139q-94 -185 -381 -185q-51 0 -114 14q-25 -22 -25 -58zM348 -111q0 -94 201 -94q86 0 143.5 25.5t57.5 67.5t-36 52.5t-102 10.5h-80
q-101 0 -147 12q-37 -37 -37 -74z" />
    <glyph glyph-name="h" unicode="h" horiz-adv-x="1191" 
d="M119 1425h352v-331l-16 -176q53 47 127.5 89t179.5 42q168 0 243.5 -114t75.5 -304v-631h-352v586q0 98 -24.5 131t-75.5 33t-84 -20.5t-74 -57.5v-672h-352v1425z" />
    <glyph glyph-name="i" unicode="i" horiz-adv-x="589" 
d="M119 1024h352v-1024h-352v1024zM295 1151q-86 0 -141.5 49t-55.5 127t55.5 127t141.5 49t141.5 -49t55.5 -127t-55.5 -127t-141.5 -49z" />
    <glyph glyph-name="j" unicode="j" horiz-adv-x="593" 
d="M299 1151q-86 0 -141.5 49t-55.5 127t55.5 127t141.5 49t141.5 -49t55.5 -127t-55.5 -127t-141.5 -49zM20 -111q55 0 79 34t24 118v983h352v-971q1 -305 -205 -402q-76 -36 -191.5 -36t-193.5 29l62 258q50 -13 73 -13z" />
    <glyph glyph-name="k" unicode="k" horiz-adv-x="1163" 
d="M119 1425h344v-757h8l283 356h381l-365 -426l385 -598h-381l-205 365l-106 -119v-246h-344v1425z" />
    <glyph glyph-name="l" unicode="l" horiz-adv-x="610" 
d="M119 360v1065h352v-1077q0 -53 19.5 -71.5t33.5 -18.5h22q8 0 19 4l41 -258q-70 -29 -166 -29q-177 0 -249 100.5t-72 284.5z" />
    <glyph glyph-name="m" unicode="m" horiz-adv-x="1777" 
d="M746 1049q198 0 282 -164q63 66 137 115t178 49q168 0 246 -114t78 -304v-631h-352v586q0 98 -24.5 131t-84.5 33t-137 -78v-672h-352v586q0 98 -24.5 131t-84.5 33t-137 -78v-672h-352v1024h287l24 -125h8q61 59 132.5 104.5t175.5 45.5z" />
    <glyph glyph-name="n" unicode="n" horiz-adv-x="1191" 
d="M760.5 1049q169.5 0 245 -114t75.5 -304v-631h-352v586q0 98 -24.5 131t-75.5 33t-84 -20.5t-74 -57.5v-672h-352v1024h287l24 -123h8q153 148 322.5 148z" />
    <glyph glyph-name="o" unicode="o" horiz-adv-x="1146" 
d="M573.5 766q-147.5 0 -147.5 -254t147.5 -254t147.5 254t-147.5 254zM66 512q0 127 42 227.5t112.5 169t162.5 104.5t190.5 36t189.5 -36t161.5 -104.5t113.5 -169t43 -227.5t-43 -227.5t-113.5 -169t-161.5 -104.5t-189.5 -36t-190.5 36t-162.5 104.5t-112.5 169
t-42 227.5z" />
    <glyph glyph-name="p" unicode="p" horiz-adv-x="1187" 
d="M593 262q70 0 115.5 57.5t45.5 194.5t-36 192.5t-110 55.5t-137 -74v-377q52 -49 122 -49zM438 930q128 119 293 119t274 -140t109 -386.5t-126 -397t-300 -150.5q-127 0 -229 103l12 -156v-282h-352v1384h287l24 -94h8z" />
    <glyph glyph-name="q" unicode="q" horiz-adv-x="1187" 
d="M578 762q-55 0 -99.5 -55.5t-44.5 -190.5q0 -254 152 -254q41 0 71.5 15.5t59.5 58.5v377q-52 49 -139 49zM729 78q-103 -103 -255 -103q-78 0 -155 37t-131.5 106.5t-84 169t-29.5 224.5t35.5 225.5t94 169t134.5 105.5t156 37t142 -30t122 -97h8l29 102h274v-1384h-352
v292z" />
    <glyph glyph-name="r" unicode="r" horiz-adv-x="856" 
d="M675.5 741q-46.5 0 -107 -37.5t-97.5 -134.5v-569h-352v1024h287l24 -176h8q57 104 136 152.5t157.5 48.5t124.5 -21l-57 -303q-77 16 -123.5 16z" />
    <glyph glyph-name="s" unicode="s" horiz-adv-x="925" 
d="M545 295q0 48 -123 90q-172 59 -252 139t-80 193q0 149 112.5 240.5t293.5 91.5q127 0 218 -42t158 -94l-155 -208q-115 86 -207 86t-92 -58q0 -47 118 -85q178 -57 257 -132.5t79 -212t-114.5 -232.5t-323.5 -96q-98 0 -207.5 39t-189.5 105l156 217
q139 -102 245.5 -102.5t106.5 61.5z" />
    <glyph glyph-name="t" unicode="t" horiz-adv-x="819" 
d="M164 393v357h-135v262l155 12l41 266h291v-266h234v-274h-234v-351q0 -86 37 -117.5t82.5 -31.5t93.5 16l53 -254q-253 -74 -412 -7q-206 87 -206 388z" />
    <glyph glyph-name="u" unicode="u" horiz-adv-x="1183" 
d="M745 135q-133 -160 -305 -160t-250.5 109t-78.5 309v631h352v-586q0 -98 24.5 -131t75.5 -33t83 20.5t67 70.5v659h352v-1024h-287l-24 135h-9z" />
    <glyph glyph-name="v" unicode="v" horiz-adv-x="1114" 
d="M25 1024h352l110 -446q37 -154 74 -320h8q37 166 74 320l111 446h336l-324 -1024h-406z" />
    <glyph glyph-name="w" unicode="w" horiz-adv-x="1634" 
d="M49 1024h348l78 -430q12 -78 20.5 -155t20.5 -156h8q31 205 58 311l94 430h299l98 -430q18 -78 31.5 -155t30.5 -156h8q12 80 20 156.5t21 154.5l78 430h323l-233 -1024h-410l-74 356q-12 72 -24.5 143.5t-24.5 157.5h-8q-27 -190 -45 -301l-70 -356h-401z" />
    <glyph glyph-name="x" unicode="x" horiz-adv-x="1105" 
d="M336 532l-291 492h377l74 -143q20 -43 40.5 -88t41.5 -88h8q14 43 30.5 88t30.5 88l49 143h365l-291 -532l307 -492h-377l-82 143q-23 43 -45 88t-45 88h-8q-16 -43 -34.5 -87t-34.5 -89l-58 -143h-364z" />
    <glyph glyph-name="y" unicode="y" horiz-adv-x="1110" 
d="M242 -111q124 0 159 103l13 45l-389 987h352l123 -393q23 -72 39 -142.5t34 -148.5h9q46 214 65 291l103 393h335l-344 -1008q-88 -223 -188 -312t-283 -89q-85 0 -155 20l61 267q46 -13 66 -13z" />
    <glyph glyph-name="z" unicode="z" horiz-adv-x="970" 
d="M127 750v274h782v-188l-389 -562h402v-274h-840v188l389 562h-344z" />
    <glyph glyph-name="braceleft" unicode="{" horiz-adv-x="737" 
d="M598 -127h33v-184h-144q-143 0 -206.5 66t-63.5 233q0 80 10.5 177t10.5 152t-39 100.5t-138 49.5v205q98 4 137.5 49t39.5 95q0 61 -10.5 158.5t-10.5 176.5q0 168 64.5 233.5t205.5 65.5h144v-184h-33q-57 0 -77.5 -23.5t-20.5 -103.5l8 -320q0 -123 -41 -175t-123 -71
v-8q82 -18 123 -70.5t41 -175.5l-8 -319q0 -80 20.5 -103.5t77.5 -23.5z" />
    <glyph glyph-name="bar" unicode="|" horiz-adv-x="569" 
d="M172 1536h225v-2048h-225v2048z" />
    <glyph glyph-name="braceright" unicode="}" horiz-adv-x="737" 
d="M139 1266h-33v184h144q141 0 205.5 -65.5t64.5 -233.5q0 -80 -10 -172.5t-10 -152.5t39 -105t137 -49v-205q-98 -4 -137 -49.5t-39 -95.5q0 -70 10 -162t10 -174q0 -164 -63.5 -230.5t-206.5 -66.5h-144v184h33q57 0 78 23.5t21 103.5l-9 319q0 123 41 175.5t123 70.5v8
q-82 18 -123 70.5t-41 175.5l9 320q0 80 -20.5 103.5t-78.5 23.5z" />
    <glyph glyph-name="asciitilde" unicode="~" horiz-adv-x="1105" 
d="M381 872q92 0 163.5 -51t107.5 -73.5t96 -22.5t124 115l181 -140q-151 -221 -328 -221q-66 0 -112 22.5t-85 50.5t-74.5 51.5t-94.5 23.5t-126 -115l-180 139q151 221 328 221z" />
    <glyph glyph-name="uni00A0" unicode="&#xa0;" horiz-adv-x="430" 
 />
    <glyph glyph-name="exclamdown" unicode="&#xa1;" horiz-adv-x="737" 
d="M573 835.5q0 -90.5 -57 -151.5t-147 -61t-147.5 61t-57.5 151.5t57.5 152t147.5 61.5t147 -61.5t57 -152zM532 -45l13 -303h-352l12 303l49 569h229z" />
    <glyph glyph-name="cent" unicode="&#xa2;" horiz-adv-x="1105" 
d="M762 -90h-189v186q-207 29 -328.5 165t-121.5 356t122.5 358t327.5 176v192h189v-182q154 -16 250 -112l-160 -218q-47 37 -90 48v-502q59 13 123 61l139 -221q-114 -98 -262 -121v-186zM463 629q0 -158 110 -221v438q-110 -59 -110 -217z" />
    <glyph glyph-name="sterling" unicode="&#xa3;" horiz-adv-x="1105" 
d="M618 508q0 -110 -77 -205v-8h512v-295h-959v217q86 37 151.5 111.5t65.5 183.5v12q0 13 -2 21h-203v200l140 13h4q-25 88 -25 157q0 70 35 152t129.5 169t305.5 87q210 0 358 -172l-189 -188q-66 78 -143 77q-160 0 -160 -176q0 -22 12 -106h295v-213h-252q2 -10 2 -13
v-24z" />
    <glyph glyph-name="currency" unicode="&#xa4;" horiz-adv-x="1105" 
d="M401 676q0 -80 43 -126t108.5 -46t109 46t43.5 126t-43.5 126t-109 46t-108.5 -46t-43 -126zM554 262q-107 0 -200 39l-145 -145l-174 174l123 123q-68 96 -68 221t66 221l-121 123l174 174l143 -143q98 41 200.5 41t201.5 -41l143 143l174 -174l-123 -123
q68 -93 68 -217.5t-70 -224.5l125 -123l-174 -174l-145 145q-91 -39 -198 -39z" />
    <glyph glyph-name="yen" unicode="&#xa5;" horiz-adv-x="1105" 
d="M1036 721v-164h-307v-102h307v-164h-307v-291h-352v291h-307v164h307v102h-307v164h233l-287 577h361l82 -241q61 -179 94 -266h8q23 66 47.5 133t46.5 133l82 241h353l-287 -577h233z" />
    <glyph glyph-name="brokenbar" unicode="&#xa6;" horiz-adv-x="569" 
d="M397 410v-922h-225v922h225zM172 1536h225v-881h-225v881z" />
    <glyph glyph-name="section" unicode="&#xa7;" horiz-adv-x="1105" 
d="M786 1061q-112 98 -206 98q-93 0 -93 -58q0 -32 41 -55.5t101.5 -50t233.5 -108t173 -310.5q0 -165 -166 -272q43 -65 43 -145q0 -159 -106.5 -253.5t-310.5 -94.5q-115 0 -228.5 44t-185.5 140l201 176q94 -102 205 -102q110 0 110 65q0 33 -39 57.5t-155 72t-225 134
t-109 256.5q0 72 42 142.5t115 117.5q-55 71 -55 170q0 152 102.5 242t298.5 90t373 -139zM365 689q0 -50 29.5 -79.5t76.5 -54.5t104.5 -49.5t114.5 -52.5q51 39 51 90t-28.5 81.5t-75.5 55.5t-105.5 47.5t-115.5 50.5q-51 -39 -51 -89z" />
    <glyph glyph-name="dieresis" unicode="&#xa8;" horiz-adv-x="1146" 
d="M786 1155q-72 0 -116 46t-43 114q0 67 44 113q43 46 115 46t116 -46t44 -114t-44 -113q-44 -46 -116 -46zM360 1155q-72 0 -116 46t-43 114q0 67 44 113q43 46 115 46t116 -46t44 -114t-44 -113q-44 -46 -116 -46z" />
    <glyph glyph-name="copyright" unicode="&#xa9;" horiz-adv-x="1540" 
d="M799 262q-181 0 -293.5 109t-112.5 287t118 290.5t284 112.5q98 0 163.5 -37t114.5 -86l-129 -143q-61 65 -139 65t-121 -58t-43 -144t44 -140.5t122 -54.5q47 0 79 16.5t68 44.5l111 -159q-129 -103 -266 -103zM246 668q0 -123 40 -223.5t110.5 -172t165.5 -110.5
t208 -39t208 39t165.5 110.5t110.5 172t40 223.5t-40 222t-110.5 168.5t-165.5 107.5t-208 38t-208 -38t-165.5 -107.5t-110.5 -168.5t-40 -222zM90 667.5q0 159.5 55.5 285.5t148.5 212t216 132t260 46t260 -46t216 -133t148.5 -212t55.5 -284.5t-55.5 -286.5t-148.5 -215
t-216 -135t-260 -47t-260 47t-216 135t-148.5 215t-55.5 286.5z" />
    <glyph glyph-name="ordfeminine" unicode="&#xaa;" horiz-adv-x="745" 
d="M346 700q37 0 80 41v90q-141 -18 -139 -86q0 -45 59 -45zM446 598q-82 -82 -181 -82t-154 61q-56 61 -57 159t86 157t286 78q-8 65 -85 65t-181 -57l-86 160q155 90 297 90q143 0 222 -76t79 -240v-381h-197l-20 66h-9z" />
    <glyph glyph-name="guillemotleft" unicode="&#xab;" horiz-adv-x="1024" 
d="M102 393v246l275 287l127 -103l-221 -307l221 -307l-127 -103zM512 393v246l274 287l127 -103l-221 -307l221 -307l-127 -103z" />
    <glyph glyph-name="logicalnot" unicode="&#xac;" horiz-adv-x="1105" 
d="M70 799h966v-615h-254v369h-712v246z" />
    <glyph glyph-name="uni00AD" unicode="&#xad;" horiz-adv-x="696" 
d="M90 643h516v-246h-516v246z" />
    <glyph glyph-name="registered" unicode="&#xae;" horiz-adv-x="976" 
d="M483 1055q29 0 41.5 15.5t12.5 35.5t-14.5 33.5t-39.5 13.5h-37v-98h37zM676 1110q0 -72 -70 -106l82 -152h-135l-57 115h-50v-115h-131v397h193q74 0 121 -33.5t47 -105.5zM487 741q129 0 210 83t81 224.5t-81 224.5t-210 83t-209.5 -83t-80.5 -224.5t80.5 -224.5
t209.5 -83zM487 631q-86 0 -161.5 31.5t-131 87t-88 132t-32.5 167t32.5 167t88 132t131 87t161.5 31.5t162 -31.5t131.5 -87t88 -132t32.5 -167t-32.5 -167t-88 -132t-131.5 -87t-162 -31.5z" />
    <glyph glyph-name="macron" unicode="&#xaf;" horiz-adv-x="1146" 
d="M279 1425h589v-221h-589v221z" />
    <glyph glyph-name="degree" unicode="&#xb0;" horiz-adv-x="774" 
d="M389.5 954q59.5 0 95 39t35.5 104.5t-35.5 104.5t-95 39t-95.5 -39t-36 -104.5t36 -104.5t95.5 -39zM389.5 791q-65.5 0 -123 23.5t-99.5 64.5t-65.5 97t-23.5 121.5t23.5 122t65.5 97.5t99.5 64.5t123 23.5t122.5 -23.5t99 -64.5t65.5 -97.5t23.5 -122t-23.5 -121.5
t-65.5 -97t-99 -64.5t-122.5 -23.5z" />
    <glyph glyph-name="plusminus" unicode="&#xb1;" horiz-adv-x="1105" 
d="M70 246h966v-246h-966v246zM426 594h-356v246h356v327h254v-327h356v-246h-356v-246h-254v246z" />
    <glyph glyph-name="two.sups" unicode="&#xb2;" horiz-adv-x="778" 
d="M365 1724q139 0 223 -72t84 -202q0 -90 -56 -173t-124 -163h204v-213h-610v135q254 199 313 293q27 41 27 85t-27 73t-82 29t-129 -91l-143 131q133 168 320 168z" />
    <glyph glyph-name="three.sups" unicode="&#xb3;" horiz-adv-x="778" 
d="M569 1319q136 -67 136 -183t-95 -188q-94 -71 -214 -71q-240 0 -347 163l152 119q67 -89 152 -89q44 0 73 20t29 62q0 85 -168 85v143q63 0 101 18t38 64q0 68 -82 70q-57 0 -119 -74l-143 127q136 139 286 139q212 -1 284 -132q24 -42 24 -93q0 -109 -107 -180z" />
    <glyph glyph-name="acute" unicode="&#xb4;" horiz-adv-x="1146" 
d="M647 1176h-254l180 315h336z" />
    <glyph glyph-name="uni00B5" unicode="&#xb5;" horiz-adv-x="1191" 
d="M119 1024h352v-586q0 -98 24.5 -131t75.5 -33t83 20.5t67 70.5v659h352v-1024h-287l-24 135h-8q-31 -72 -85.5 -105.5t-99.5 -33.5t-70.5 5t-47.5 24l20 -185v-250h-352v1434z" />
    <glyph glyph-name="paragraph" unicode="&#xb6;" horiz-adv-x="1363" 
d="M610 381q-227 0 -379.5 129.5t-152.5 366.5t145.5 345.5t386.5 108.5h90v-950h-90zM815 1331h352v-1495h-352v1495z" />
    <glyph glyph-name="periodcentered" unicode="&#xb7;" horiz-adv-x="655" 
d="M123 655q0 89 57 151q58 62 148 62t147 -61t57 -151t-57 -152t-147 -62t-148 62t-57 151z" />
    <glyph glyph-name="cedilla" unicode="&#xb8;" horiz-adv-x="1146" 
d="M643 -82q119 -40 119 -149t-117 -169q-99 -52 -272 -59l-25 135q164 14 164 86q0 23 -22 43t-93 39l82 164h201z" />
    <glyph glyph-name="one.sups" unicode="&#xb9;" horiz-adv-x="778" 
d="M332 1454h-185v156q129 17 190 57q24 14 52 33h201v-799h-258v553z" />
    <glyph glyph-name="ordmasculine" unicode="&#xba;" horiz-adv-x="770" 
d="M385 709q51 0 71 44q19 45 19 119t-19 119q-18 45 -70 45t-72 -45t-19 -120q-1 -75 19 -119t71 -43zM621 1134q104 -102 104 -261q0 -161 -100 -259t-238 -98q-139 0 -241 98q-101 98 -101 258t101 258q101 99 237 99q137 0 238 -95z" />
    <glyph glyph-name="guillemotright" unicode="&#xbb;" horiz-adv-x="1024" 
d="M332 516l-221 307l127 103l274 -287v-246l-274 -287l-127 103zM741 516l-221 307l127 103l275 -287v-246l-275 -287l-127 103z" />
    <glyph glyph-name="onequarter" unicode="&#xbc;" horiz-adv-x="1679" 
d="M268 1085h-184v156q85 11 131 29t111 61h200v-799h-258v553zM385 -25l713 1381h196l-712 -1381h-197zM1679 164h-118v-164h-226v164h-368v127l270 508h324v-471h118v-164zM1335 328v61l13 246h-9l-143 -307h139z" />
    <glyph glyph-name="onehalf" unicode="&#xbd;" horiz-adv-x="1761" 
d="M268 1085h-184v156q85 11 131 29t111 61h200v-799h-258v553zM356 -25l713 1381h197l-713 -1381h-197zM1348 823q139 -1 223 -73t84 -201q-1 -90 -57 -173t-123 -163h204v-213h-610v135q254 199 313 293q27 41 27 85t-27 73q-27 28 -82 28t-129 -90l-143 131
q133 168 320 168z" />
    <glyph glyph-name="threequarters" unicode="&#xbe;" horiz-adv-x="1691" 
d="M76 1217q134 139 286 139q209 0 284 -132q24 -42 24 -94q0 -109 -107 -180q135 -66 135 -184t-95 -188t-214 -70q-238 0 -346 164l152 119q68 -91 152 -91q44 0 73 20t29 58q0 92 -168 90v144q63 0 101 17t38 65q0 69 -82 69q-61 0 -119 -73zM418 -25l712 1381h197
l-713 -1381h-196zM1692 164h-119v-164h-225v164h-369v127l270 508h324v-471h119v-164zM1348 328v61l12 246h-8l-144 -307h140z" />
    <glyph glyph-name="questiondown" unicode="&#xbf;" horiz-adv-x="978" 
d="M721 835.5q0 -90.5 -57.5 -151.5t-147.5 -61t-147.5 61t-57.5 151.5t57.5 152t147.5 61.5t147.5 -61.5t57.5 -152zM418 1q0 -44 33.5 -67.5t83.5 -23.5t87 24.5t78 61.5l193 -176q-72 -86 -169.5 -139.5t-201.5 -53.5q-202 0 -321 87.5t-119 273.5q0 134 116.5 247.5
t141.5 172.5t20 116h308q24 -161 -88 -282.5t-137 -159t-25 -81.5z" />
    <glyph glyph-name="Agrave" unicode="&#xc0;" horiz-adv-x="1196" 
d="M778 283h-372l-66 -283h-360l405 1331h426l406 -1331h-373zM715 555l-23 92q-25 96 -49 209q-25 113 -49 213h-8q-22 -102 -46 -214t-48 -208l-23 -92h246zM233 1688h369l160 -254h-279z" />
    <glyph glyph-name="Aacute" unicode="&#xc1;" horiz-adv-x="1196" 
d="M778 283h-372l-66 -283h-360l405 1331h426l406 -1331h-373zM715 555l-23 92q-25 96 -49 209q-25 113 -49 213h-8q-22 -102 -46 -214t-48 -208l-23 -92h246zM696 1434h-278l160 254h368z" />
    <glyph glyph-name="Acircumflex" unicode="&#xc2;" horiz-adv-x="1196" 
d="M778 283h-372l-66 -283h-360l405 1331h426l406 -1331h-373zM715 555l-23 92q-25 96 -49 209q-25 113 -49 213h-8q-22 -102 -46 -214t-48 -208l-23 -92h246zM221 1434l197 254h344l196 -254h-266l-98 118h-8l-99 -118h-266z" />
    <glyph glyph-name="Atilde" unicode="&#xc3;" horiz-adv-x="1196" 
d="M778 283h-372l-66 -283h-360l405 1331h426l406 -1331h-373zM715 555l-23 92q-25 96 -49 209q-25 113 -49 213h-8q-22 -102 -46 -214t-48 -208l-23 -92h246zM705 1647q56 0 77 86h176q-29 -225 -157 -282q-39 -17 -93 -17t-133 42t-100 44q-55 0 -78 -86h-176
q18 156 86 228t141 71q73 1 129 -29q57 -30 81 -44t47 -13z" />
    <glyph glyph-name="Adieresis" unicode="&#xc4;" horiz-adv-x="1196" 
d="M778 283h-372l-66 -283h-360l405 1331h426l406 -1331h-373zM715 555l-23 92q-25 96 -49 209q-25 113 -49 213h-8q-22 -102 -46 -214t-48 -208l-23 -92h246zM803 1421q-72 0 -116 46t-44 114t44 114t116 46t116 -46t44 -114t-44 -114t-116 -46zM377 1421q-72 0 -116 46
t-44 114t44 114t116 46t116 -46t44 -114t-44 -114t-116 -46z" />
    <glyph glyph-name="Aring" unicode="&#xc5;" horiz-adv-x="1196" 
d="M778 283h-372l-66 -283h-360l405 1331h426l406 -1331h-373zM715 555l-23 92q-25 96 -49 209q-25 113 -49 213h-8q-22 -102 -46 -214t-48 -208l-23 -92h246zM590 1552q34 0 56 23t22 59t-23 60q-23 22 -55 22t-56 -22q-22 -22 -22 -60t22 -60t56 -22zM590 1425
q-110 1 -178 57t-68 152t68 152t178 57q110 0 178 -56q68 -57 68 -153t-68 -152t-178 -57z" />
    <glyph glyph-name="AE" unicode="&#xc6;" horiz-adv-x="1748" 
d="M1638 295v-295h-860v270h-338l-116 -270h-369l606 1331h1057v-295h-488v-209h414v-295h-414v-237h508zM778 543v526h-8q-37 -96 -70.5 -186t-68.5 -170l-74 -170h221z" />
    <glyph glyph-name="Ccedilla" unicode="&#xc7;" horiz-adv-x="1200" 
d="M659 -238q0 23 -21 43q-22 20 -93 39l70 140q-201 30 -334 160q-191 184 -191 510q0 325 197 518q90 88 208 136q117 48 245 48t232 -52t175 -124l-193 -217q-49 43 -96 67q-48 24 -110 23q-126 0 -212 -106q-87 -106 -86 -286q1 -181 79 -282q79 -100 211 -100t231 106
l192 -213q-140 -159 -347 -191l-25 -63q120 -41 119 -150t-117 -168q-99 -52 -273 -59l-24 135q163 14 163 86z" />
    <glyph glyph-name="Egrave" unicode="&#xc8;" horiz-adv-x="1138" 
d="M147 1331h861v-295h-508v-209h434v-295h-434v-237h528v-295h-881v1331zM238 1688h368l160 -254h-279z" />
    <glyph glyph-name="Eacute" unicode="&#xc9;" horiz-adv-x="1138" 
d="M147 1331h861v-295h-508v-209h434v-295h-434v-237h528v-295h-881v1331zM700 1434h-278l160 254h368z" />
    <glyph glyph-name="Ecircumflex" unicode="&#xca;" horiz-adv-x="1138" 
d="M147 1331h861v-295h-508v-209h434v-295h-434v-237h528v-295h-881v1331zM225 1434l197 254h344l197 -254h-267l-98 118h-8l-98 -118h-267z" />
    <glyph glyph-name="Edieresis" unicode="&#xcb;" horiz-adv-x="1138" 
d="M147 1331h861v-295h-508v-209h434v-295h-434v-237h528v-295h-881v1331zM807 1421q-72 0 -116 46t-44 114t44 114t116 46t116 -46t44 -114t-44 -114t-116 -46zM381 1421q-72 0 -116 46t-44 114t44 114t116 46t116 -46t44 -114t-44 -114t-116 -46z" />
    <glyph glyph-name="Igrave" unicode="&#xcc;" horiz-adv-x="647" 
d="M147 1331h353v-1331h-353v1331zM-33 1688h369l160 -254h-279z" />
    <glyph glyph-name="Iacute" unicode="&#xcd;" horiz-adv-x="647" 
d="M147 1331h353v-1331h-353v1331zM430 1434h-278l159 254h369z" />
    <glyph glyph-name="Icircumflex" unicode="&#xce;" horiz-adv-x="647" 
d="M147 1331h353v-1331h-353v1331zM-45 1434l197 254h344l196 -254h-266l-98 118h-9l-98 -118h-266z" />
    <glyph glyph-name="Idieresis" unicode="&#xcf;" horiz-adv-x="647" 
d="M147 1331h353v-1331h-353v1331zM537 1421q-72 0 -116 46t-44 114t44 114t116 46q71 0 115 -46t44 -114t-44 -114t-115 -46zM111 1421q-72 0 -116 46t-44 114t44 114t116 46q71 0 115 -46t44 -114t-44 -114t-115 -46z" />
    <glyph glyph-name="Eth" unicode="&#xd0;" horiz-adv-x="1368" 
d="M594 1331q491 0 587.5 -241.5t96.5 -499.5t-181 -424t-483 -166h-413v602h-152v152l152 12v565h393zM573 283q163 0 254 85t91 349.5t-136.5 298t-208.5 33.5h-20v-283h238v-164h-238v-319h20z" />
    <glyph glyph-name="Ntilde" unicode="&#xd1;" horiz-adv-x="1376" 
d="M147 1331h361l295 -594l127 -299h8q-6 53 -26 208t-19 300v385h336v-1331h-361l-295 596l-127 297h-8q12 -115 28 -250t17 -258v-385h-336v1331zM803 1647q56 0 78 86h176q-19 -147 -84 -223t-143 -76t-157 42t-100 44q-56 0 -77 -86h-177q19 156 87 228t141 71
q73 1 128 -29q56 -30 81 -44t47 -13z" />
    <glyph glyph-name="Ograve" unicode="&#xd2;" horiz-adv-x="1417" 
d="M709 279q121 0 189 105q68 106 69 288q0 182 -69 281q-70 99 -190 99t-189 -98q-69 -100 -69 -282t69 -288q69 -105 190 -105zM708 -25q-138 -1 -252 47t-195 137t-126 219t-45 294q0 323 168 504q168 180 452 180t451 -182q166 -182 166 -504q0 -323 -171 -511
q-167 -184 -448 -184zM352 1688h369l160 -254h-279z" />
    <glyph glyph-name="Oacute" unicode="&#xd3;" horiz-adv-x="1417" 
d="M709 279q121 0 189 105q68 106 69 288q0 182 -69 281q-70 99 -190 99t-189 -98q-69 -100 -69 -282t69 -288q69 -105 190 -105zM708 -25q-138 -1 -252 47t-195 137t-126 219t-45 294q0 323 168 504q168 180 452 180t451 -182q166 -182 166 -504q0 -323 -171 -511
q-167 -184 -448 -184zM815 1434h-278l159 254h369z" />
    <glyph glyph-name="Ocircumflex" unicode="&#xd4;" horiz-adv-x="1417" 
d="M709 279q121 0 189 105q68 106 69 288q0 182 -69 281q-70 99 -190 99t-189 -98q-69 -100 -69 -282t69 -288q69 -105 190 -105zM708 -25q-138 -1 -252 47t-195 137t-126 219t-45 294q0 323 168 504q168 180 452 180t451 -182q166 -182 166 -504q0 -323 -171 -511
q-167 -184 -448 -184zM340 1434l197 254h344l196 -254h-266l-98 118h-8l-99 -118h-266z" />
    <glyph glyph-name="Otilde" unicode="&#xd5;" horiz-adv-x="1417" 
d="M709 279q121 0 189 105q68 106 69 288q0 182 -69 281q-70 99 -190 99t-189 -98q-69 -100 -69 -282t69 -288q69 -105 190 -105zM708 -25q-138 -1 -252 47t-195 137t-126 219t-45 294q0 323 168 504q168 180 452 180t451 -182q166 -182 166 -504q0 -323 -171 -511
q-167 -184 -448 -184zM823 1647q56 0 78 86h176q-19 -147 -84 -223t-141 -76q-77 0 -157 42t-101 44q-55 0 -78 -86h-176q18 156 86 228t140 71q72 1 129 -29t81 -44t47 -13z" />
    <glyph glyph-name="Odieresis" unicode="&#xd6;" horiz-adv-x="1417" 
d="M709 279q121 0 189 105q68 106 69 288q0 182 -69 281q-70 99 -190 99t-189 -98q-69 -100 -69 -282t69 -288q69 -105 190 -105zM708 -25q-138 -1 -252 47t-195 137t-126 219t-45 294q0 323 168 504q168 180 452 180t451 -182q166 -182 166 -504q0 -323 -171 -511
q-167 -184 -448 -184zM922 1421q-72 0 -116 46t-44 114t44 114t116 46t116 -46t43 -114q1 -68 -43 -114t-116 -46zM496 1421q-72 0 -116 46t-44 114t44 114t116 46t116 -46t43 -114q1 -68 -43 -114t-116 -46z" />
    <glyph glyph-name="multiply" unicode="&#xd7;" horiz-adv-x="1105" 
d="M96 391l283 283l-283 282l174 174l283 -282l283 282l174 -174l-283 -282l283 -283l-174 -174l-283 283l-283 -283z" />
    <glyph glyph-name="Oslash" unicode="&#xd8;" horiz-adv-x="1417" 
d="M1327 672q0 -325 -169 -511t-449 -186q-190 0 -328 86l-127 -155l-180 139l141 172q-125 182 -125 455q0 323 168 503.5t451 180.5q205 0 356 -101l139 170l180 -139l-161 -196q104 -167 104 -418zM451 672q0 -86 14 -150l391 477q-63 53 -147 54q-121 0 -189.5 -99.5
t-68.5 -281.5zM967 672q0 53 -6 96l-373 -455q53 -35 121 -34q121 0 189.5 105t68.5 288z" />
    <glyph glyph-name="Ugrave" unicode="&#xd9;" horiz-adv-x="1376" 
d="M139 1331h353v-729q0 -178 48 -251t152 -73t155 73q50 73 50 251v729h340v-688q0 -342 -133 -505t-413 -163t-416 163t-136 505v688zM332 1688h368l160 -254h-278z" />
    <glyph glyph-name="Uacute" unicode="&#xda;" horiz-adv-x="1376" 
d="M139 1331h353v-729q0 -178 48 -251t152 -73t155 73q50 73 50 251v729h340v-688q0 -342 -133 -505t-413 -163t-416 163t-136 505v688zM795 1434h-279l160 254h368z" />
    <glyph glyph-name="Ucircumflex" unicode="&#xdb;" horiz-adv-x="1376" 
d="M139 1331h353v-729q0 -178 48 -251t152 -73t155 73q50 73 50 251v729h340v-688q0 -342 -133 -505t-413 -163t-416 163t-136 505v688zM319 1434l197 254h344l197 -254h-266l-99 118h-8l-98 -118h-267z" />
    <glyph glyph-name="Udieresis" unicode="&#xdc;" horiz-adv-x="1376" 
d="M139 1331h353v-729q0 -178 48 -251t152 -73t155 73q50 73 50 251v729h340v-688q0 -342 -133 -505t-413 -163t-416 163t-136 505v688zM901 1421q-72 0 -116 46t-44 114t44 114t116 46t116 -46t44 -114t-44 -114t-116 -46zM475 1421q-72 0 -116 46t-44 114t44 114t116 46
t116 -46t44 -114t-44 -114t-116 -46z" />
    <glyph glyph-name="Yacute" unicode="&#xdd;" horiz-adv-x="1114" 
d="M733 0h-352v459l-401 872h376l99 -278q25 -76 49 -148t51 -149h8q27 78 53 150t52 147l98 278h369l-402 -872v-459zM664 1434h-279l160 254h368z" />
    <glyph glyph-name="Thorn" unicode="&#xde;" horiz-adv-x="1290" 
d="M647 508q104 0 154.5 49t50.5 139t-53.5 127t-151.5 37h-147v-352h147zM147 1331h353v-192h164q371 0 451.5 -159t80.5 -283q0 -233 -154 -350.5t-378 -117.5h-164v-229h-353v1331z" />
    <glyph glyph-name="germandbls" unicode="&#xdf;" horiz-adv-x="1339" 
d="M877 233q41 0 65.5 19.5t24.5 52.5t-26 56.5t-63.5 45t-146 83t-108.5 215.5q0 55 20.5 96t45 77.5t45 76.5t20.5 93.5t-30 88t-85 34.5q-88 0 -130 -64.5t-42 -168.5v-938h-348v975q0 212 131.5 341.5t388.5 129.5q212 0 331.5 -104.5t119.5 -251.5q0 -107 -51.5 -176.5
t-74 -100.5t-22.5 -61t25.5 -51t63.5 -42.5t146.5 -85.5t108.5 -249q0 -152 -102.5 -250.5t-294.5 -98.5q-92 0 -165 24t-151 67l119 237q93 -70 185 -70z" />
    <glyph glyph-name="agrave" unicode="&#xe0;" horiz-adv-x="1110" 
d="M422 319q0 -74 94 -73q43 0 71 19t56 50v140q-127 -17 -174 -55t-47 -81zM86 304q0 147 131 238t426 122q-12 106 -143 106q-98 0 -258 -86l-123 229q225 136 437 136t326 -114t113 -366v-569h-286l-25 98h-8q-136 -123 -279 -123q-142 0 -226 91q-85 91 -85 238z
M248 1491h336l180 -315h-254z" />
    <glyph glyph-name="aacute" unicode="&#xe1;" horiz-adv-x="1110" 
d="M422 319q0 -74 94 -73q43 0 71 19t56 50v140q-127 -17 -174 -55t-47 -81zM86 304q0 147 131 238t426 122q-12 106 -143 106q-98 0 -258 -86l-123 229q225 136 437 136t326 -114t113 -366v-569h-286l-25 98h-8q-136 -123 -279 -123q-142 0 -226 91q-85 91 -85 238z
M657 1176h-254l181 315h336z" />
    <glyph glyph-name="acircumflex" unicode="&#xe2;" horiz-adv-x="1110" 
d="M422 319q0 -74 94 -73q43 0 71 19t56 50v140q-127 -17 -174 -55t-47 -81zM86 304q0 147 131 238t426 122q-12 106 -143 106q-98 0 -258 -86l-123 229q225 136 437 136t326 -114t113 -366v-569h-286l-25 98h-8q-136 -123 -279 -123q-142 0 -226 91q-85 91 -85 238z
M444 1491h279l197 -315h-234l-98 151h-8l-99 -151h-233z" />
    <glyph glyph-name="atilde" unicode="&#xe3;" horiz-adv-x="1110" 
d="M422 319q0 -74 94 -73q43 0 71 19t56 50v140q-127 -17 -174 -55t-47 -81zM86 304q0 147 131 238t426 122q-12 106 -143 106q-98 0 -258 -86l-123 229q225 136 437 136t326 -114t113 -366v-569h-286l-25 98h-8q-136 -123 -279 -123q-142 0 -226 91q-85 91 -85 238z
M700 1389q24 0 39 18q16 18 29 68h176q-18 -158 -82 -229q-112 -125 -291 -27q-81 42 -104 42q-45 1 -68 -85h-176q17 158 81 228t136 71t130 -29t82 -44t48 -13z" />
    <glyph glyph-name="adieresis" unicode="&#xe4;" horiz-adv-x="1110" 
d="M422 319q0 -74 94 -73q43 0 71 19t56 50v140q-127 -17 -174 -55t-47 -81zM86 304q0 147 131 238t426 122q-12 106 -143 106q-98 0 -258 -86l-123 229q225 136 437 136t326 -114t113 -366v-569h-286l-25 98h-8q-136 -123 -279 -123q-142 0 -226 91q-85 91 -85 238z
M797 1155q-72 0 -116 46t-44 114q0 67 44 113t116 46q71 0 115 -46t44 -114t-44 -113q-44 -46 -115 -46zM371 1155q-72 0 -116 46t-44 114q0 67 44 113t116 46q71 0 115 -46t44 -114t-44 -113q-44 -46 -115 -46z" />
    <glyph glyph-name="aring" unicode="&#xe5;" horiz-adv-x="1110" 
d="M422 319q0 -74 94 -73q43 0 71 19t56 50v140q-127 -17 -174 -55t-47 -81zM86 304q0 147 131 238t426 122q-12 106 -143 106q-98 0 -258 -86l-123 229q225 136 437 136t326 -114t113 -366v-569h-286l-25 98h-8q-136 -123 -279 -123q-142 0 -226 91q-85 91 -85 238z
M584 1253q34 0 56 25q22 26 22 66t-23 65t-55 25t-56 -25q-22 -25 -22 -66t22 -65t56 -25zM584 1126q-110 0 -178 60t-68 157t68 157t178 60t178 -58q68 -60 68 -158t-68 -158q-67 -60 -178 -60z" />
    <glyph glyph-name="ae" unicode="&#xe6;" horiz-adv-x="1609" 
d="M1237 618q0 164 -128 164t-151 -164h279zM535 1049q191 0 296 -131q135 131 291 131q200 0 307 -143t107 -361q0 -76 -14 -139h-564q42 -156 218 -156q53 0 101 19.5t103 49.5l119 -225q-84 -59 -185.5 -89t-187.5 -30q-208 0 -348 148q-152 -119 -243 -133.5t-153 -14.5
q-127 0 -211.5 91t-84.5 238t129 239t424 123q-6 53 -38 78.5t-115 25.5t-244 -86l-123 229q225 136 416 136zM422 319q0 -73 87 -73t155 61q-18 55 -25 109l-4 39q-117 -18 -165 -54.5t-48 -81.5z" />
    <glyph glyph-name="ccedilla" unicode="&#xe7;" horiz-adv-x="966" 
d="M526 -238q0 23 -21 43q-22 20 -93 39l69 140q-160 27 -266 132q-149 147 -149 394t160 393t388 146q184 0 299 -115l-159 -217q-59 49 -119 49q-97 0 -153 -69t-56 -185t56 -186q56 -68 135 -68t169 66l140 -222q-97 -85 -240 -115l-29 -69q119 -40 119 -149t-117 -169
q-99 -52 -272 -59l-25 135q164 14 164 86z" />
    <glyph glyph-name="egrave" unicode="&#xe8;" horiz-adv-x="1077" 
d="M705 627q0 67 -30 111q-29 44 -99 44t-114 -34t-61 -121h304zM967 94q-169 -119 -387 -119q-100 0 -195 36q-197 74 -279 274q-40 100 -40 226q0 238 147 388t354 150t322 -142t115 -354q0 -72 -15 -139h-583q25 -98 88 -135t155 -37t203 61zM221 1491h336l180 -315h-254
z" />
    <glyph glyph-name="eacute" unicode="&#xe9;" horiz-adv-x="1077" 
d="M705 627q0 67 -30 111q-29 44 -99 44t-114 -34t-61 -121h304zM967 94q-169 -119 -387 -119q-100 0 -195 36q-197 74 -279 274q-40 100 -40 226q0 238 147 388t354 150t322 -142t115 -354q0 -72 -15 -139h-583q25 -98 88 -135t155 -37t203 61zM631 1176h-254l180 315h336z
" />
    <glyph glyph-name="ecircumflex" unicode="&#xea;" horiz-adv-x="1077" 
d="M705 627q0 67 -30 111q-29 44 -99 44t-114 -34t-61 -121h304zM967 94q-169 -119 -387 -119q-100 0 -195 36q-197 74 -279 274q-40 100 -40 226q0 238 147 388t354 150t322 -142t115 -354q0 -72 -15 -139h-583q25 -98 88 -135t155 -37t203 61zM418 1491h278l197 -315h-234
l-98 151h-8l-98 -151h-234z" />
    <glyph glyph-name="edieresis" unicode="&#xeb;" horiz-adv-x="1077" 
d="M705 627q0 67 -30 111q-29 44 -99 44t-114 -34t-61 -121h304zM967 94q-169 -119 -387 -119q-100 0 -195 36q-197 74 -279 274q-40 100 -40 226q0 238 147 388t354 150t322 -142t115 -354q0 -72 -15 -139h-583q25 -98 88 -135t155 -37t203 61zM770 1155q-72 0 -116 46
t-44 114q0 67 44 113t116 46t116 -46t44 -114t-44 -113q-44 -46 -116 -46zM344 1155q-72 0 -116 46t-44 114q0 67 44 113t116 46t116 -46t44 -114t-44 -113q-44 -46 -116 -46z" />
    <glyph glyph-name="igrave" unicode="&#xec;" horiz-adv-x="589" 
d="M119 1024h352v-1024h-352v1024zM-41 1491h336l180 -315h-254z" />
    <glyph glyph-name="iacute" unicode="&#xed;" horiz-adv-x="589" 
d="M119 1024h352v-1024h-352v1024zM369 1176h-254l180 315h336z" />
    <glyph glyph-name="icircumflex" unicode="&#xee;" horiz-adv-x="589" 
d="M119 1024h352v-1024h-352v1024zM156 1491h278l197 -315h-234l-98 151h-8l-98 -151h-234z" />
    <glyph glyph-name="idieresis" unicode="&#xef;" horiz-adv-x="589" 
d="M119 1024h352v-1024h-352v1024zM508 1155q-72 0 -116 46t-44 114q0 67 44 113t116 46t116 -46t44 -114t-44 -113q-44 -46 -116 -46zM82 1155q-72 0 -116 46t-44 114q0 67 44 113t116 46t116 -46t44 -114t-44 -113q-44 -46 -116 -46z" />
    <glyph glyph-name="eth" unicode="&#xf0;" horiz-adv-x="1159" 
d="M1065 553q0 -252 -136.5 -415t-353.5 -163t-357 138t-140 354q0 217 123.5 344t290.5 127q117 0 188 -64q-51 125 -152 224l-290 -146l-91 152l228 115q-74 46 -164 92l151 213q170 -87 283 -170l293 147l90 -153l-237 -119q274 -274 274 -676zM581 680q-184 0 -184 -206
q0 -112 52 -164t124 -52q115 0 139.5 99.5t24.5 148.5v44q0 44 -2 62q-68 68 -154 68z" />
    <glyph glyph-name="ntilde" unicode="&#xf1;" horiz-adv-x="1191" 
d="M761 1049q169 0 245 -114t75 -304v-631h-352v586q0 98 -24 131q-25 33 -76 33t-84 -20t-74 -58v-672h-352v1024h287l24 -123h8q154 148 323 148zM364 1404q64 70 137 71t129 -29t81 -44t49 -13q24 0 39 18q16 18 28 68h177q-18 -158 -82 -229q-114 -128 -291 -27
q-81 42 -103 43q-48 0 -69 -86h-176q17 158 81 228z" />
    <glyph glyph-name="ograve" unicode="&#xf2;" horiz-adv-x="1146" 
d="M721 512q1 254 -147 254t-148 -254t148 -254t147 254zM66 511q0 245 150 392q150 146 356 146q207 0 358 -146t151 -390q0 -243 -151 -391q-152 -147 -358 -147q-207 0 -356 145q-150 146 -150 391zM238 1491h335l181 -315h-254z" />
    <glyph glyph-name="oacute" unicode="&#xf3;" horiz-adv-x="1146" 
d="M721 512q1 254 -147 254t-148 -254t148 -254t147 254zM66 511q0 245 150 392q150 146 356 146q207 0 358 -146t151 -390q0 -243 -151 -391q-152 -147 -358 -147q-207 0 -356 145q-150 146 -150 391zM647 1176h-254l180 315h336z" />
    <glyph glyph-name="ocircumflex" unicode="&#xf4;" horiz-adv-x="1146" 
d="M721 512q1 254 -147 254t-148 -254t148 -254t147 254zM66 511q0 245 150 392q150 146 356 146q207 0 358 -146t151 -390q0 -243 -151 -391q-152 -147 -358 -147q-207 0 -356 145q-150 146 -150 391zM434 1491h279l196 -315h-233l-98 151h-9l-98 -151h-233z" />
    <glyph glyph-name="otilde" unicode="&#xf5;" horiz-adv-x="1146" 
d="M721 512q1 254 -147 254t-148 -254t148 -254t147 254zM66 511q0 245 150 392q150 146 356 146q207 0 358 -146t151 -390q0 -243 -151 -391q-152 -147 -358 -147q-207 0 -356 145q-150 146 -150 391zM690 1389q24 0 39 18q16 18 29 68h176q-18 -158 -82 -229
q-112 -125 -291 -27q-81 42 -104 42q-45 1 -68 -85h-176q17 158 81 228t136 71t130 -29t82 -44t48 -13z" />
    <glyph glyph-name="odieresis" unicode="&#xf6;" horiz-adv-x="1146" 
d="M721 512q1 254 -147 254t-148 -254t148 -254t147 254zM66 511q0 245 150 392q150 146 356 146q207 0 358 -146t151 -390q0 -243 -151 -391q-152 -147 -358 -147q-207 0 -356 145q-150 146 -150 391zM786 1155q-72 0 -116 46t-43 114q0 67 44 113q43 46 115 46t116 -46
t44 -114t-44 -113q-44 -46 -116 -46zM360 1155q-72 0 -116 46t-43 114q0 67 44 113q43 46 115 46t116 -46t44 -114t-44 -113q-44 -46 -116 -46z" />
    <glyph glyph-name="divide" unicode="&#xf7;" horiz-adv-x="1105" 
d="M70 799h966v-246h-966v246zM365 307q0 78 54 127t134 49t134 -49t54 -127t-54 -127t-134 -49t-134 49t-54 127zM553 868q-80 0 -134 49.5t-54 127t54 127t134 49.5t134 -49.5t54 -127t-54 -127t-134 -49.5z" />
    <glyph glyph-name="oslash" unicode="&#xf8;" horiz-adv-x="1146" 
d="M961 868q120 -144 120 -372t-151 -375q-151 -146 -357 -146q-145 0 -268 76l-84 -104l-127 98l90 113q-118 142 -118 371t150 375q150 145 357 145q145 0 267 -74l86 106l127 -98zM406 532q0 -48 4 -94l252 314q-35 27 -89 26q-80 0 -123.5 -67.5t-43.5 -178.5zM741 492
q0 53 -6 96l-252 -314q35 -29 90 -28q80 0 124 67.5t44 178.5z" />
    <glyph glyph-name="ugrave" unicode="&#xf9;" horiz-adv-x="1183" 
d="M111 393v631h352v-586q1 -98 25 -131t75 -33t83 20t67 71v659h352v-1024h-287l-24 135h-9q-132 -160 -303 -160t-251 109t-80 309zM258 1491h336l180 -315h-254z" />
    <glyph glyph-name="uacute" unicode="&#xfa;" horiz-adv-x="1183" 
d="M111 393v631h352v-586q1 -98 25 -131t75 -33t83 20t67 71v659h352v-1024h-287l-24 135h-9q-132 -160 -303 -160t-251 109t-80 309zM668 1176h-254l180 315h336z" />
    <glyph glyph-name="ucircumflex" unicode="&#xfb;" horiz-adv-x="1183" 
d="M111 393v631h352v-586q1 -98 25 -131t75 -33t83 20t67 71v659h352v-1024h-287l-24 135h-9q-132 -160 -303 -160t-251 109t-80 309zM455 1491h278l197 -315h-234l-98 151h-8l-98 -151h-234z" />
    <glyph glyph-name="udieresis" unicode="&#xfc;" horiz-adv-x="1183" 
d="M111 393v631h352v-586q1 -98 25 -131t75 -33t83 20t67 71v659h352v-1024h-287l-24 135h-9q-132 -160 -303 -160t-251 109t-80 309zM807 1155q-72 0 -116 46t-44 114q0 67 44 113t116 46t116 -46t44 -114t-44 -113q-44 -46 -116 -46zM381 1155q-72 0 -116 46t-44 114
q0 67 44 113t116 46t116 -46t44 -114t-44 -113q-44 -46 -116 -46z" />
    <glyph glyph-name="yacute" unicode="&#xfd;" horiz-adv-x="1110" 
d="M176 -98q177 -51 225 90l13 45l-389 987h352l123 -393q23 -72 39 -143t34 -148h9q16 74 31 146t34 145l103 393h335l-344 -1008q-88 -223 -188 -312t-283 -89q-87 0 -155 20zM639 1176h-254l180 315h336z" />
    <glyph glyph-name="thorn" unicode="&#xfe;" horiz-adv-x="1187" 
d="M593 262q70 0 115.5 57.5t45.5 194.5t-36 192.5t-110 55.5t-137 -74v-377q52 -49 122 -49zM471 -360h-352v1785h352v-333l-8 -134q99 91 233 91q190 0 304 -141t114 -386.5t-126 -396t-300 -150.5q-126 0 -225 91l8 -144v-282z" />
    <glyph glyph-name="ydieresis" unicode="&#xff;" horiz-adv-x="1110" 
d="M176 -98q177 -51 225 90l13 45l-389 987h352l123 -393q23 -72 39 -143t34 -148h9q16 74 31 146t34 145l103 393h335l-344 -1008q-88 -223 -188 -312t-283 -89q-87 0 -155 20zM778 1155q-72 0 -116 46t-44 114q0 67 44 113t116 46t116 -46t44 -114t-44 -113
q-44 -46 -116 -46zM352 1155q-72 0 -116 46t-43 114q0 67 44 113q43 46 115 46t116 -46t44 -114t-44 -113q-44 -46 -116 -46z" />
    <glyph glyph-name="Amacron" unicode="&#x100;" horiz-adv-x="1196" 
d="M778 283h-372l-66 -283h-360l405 1331h426l406 -1331h-373zM715 555l-23 92q-25 96 -49 209q-25 113 -49 213h-8q-22 -102 -46 -214t-48 -208l-23 -92h246zM287 1688h606v-222h-606v222z" />
    <glyph glyph-name="amacron" unicode="&#x101;" horiz-adv-x="1110" 
d="M422 319q0 -74 94 -73q43 0 71 19t56 50v140q-127 -17 -174 -55t-47 -81zM86 304q0 147 131 238t426 122q-12 106 -143 106q-98 0 -258 -86l-123 229q225 136 437 136t326 -114t113 -366v-569h-286l-25 98h-8q-136 -123 -279 -123q-142 0 -226 91q-85 91 -85 238z
M289 1425h590v-221h-590v221z" />
    <glyph glyph-name="Abreve" unicode="&#x102;" horiz-adv-x="1196" 
d="M778 283h-372l-66 -283h-360l405 1331h426l406 -1331h-373zM715 555l-23 92q-25 96 -49 209q-25 113 -49 213h-8q-22 -102 -46 -214t-48 -208l-23 -92h246zM881 1688q-25 -254 -291 -254t-291 254h188q23 -84 103 -83t102 83h189z" />
    <glyph glyph-name="abreve" unicode="&#x103;" horiz-adv-x="1110" 
d="M422 319q0 -74 94 -73q43 0 71 19t56 50v140q-127 -17 -174 -55t-47 -81zM86 304q0 147 131 238t426 122q-12 106 -143 106q-98 0 -258 -86l-123 229q225 136 437 136t326 -114t113 -366v-569h-286l-25 98h-8q-136 -123 -279 -123q-142 0 -226 91q-85 91 -85 238z
M584 1176q-74 0 -128 24q-160 70 -167 270h192q14 -106 102 -106q89 0 103 106h193q-7 -200 -167 -271q-54 -23 -128 -23z" />
    <glyph glyph-name="Aogonek" unicode="&#x104;" horiz-adv-x="1196" 
d="M1253 -389q-95 -78 -255 -78q-82 0 -155 52.5t-73 145t55.5 166t116.5 103.5h-98l-66 283h-372l-66 -283h-360l405 1331h426l406 -1331q-86 0 -139.5 -53.5t-53.5 -118.5q0 -35 21.5 -52.5t54 -17.5t76.5 29zM715 555l-23 92q-25 96 -49.5 209t-48.5 213h-8
q-23 -102 -46.5 -214t-47.5 -208l-23 -92h246z" />
    <glyph glyph-name="aogonek" unicode="&#x105;" horiz-adv-x="1110" 
d="M1036 -360q-90 -74 -246 -74q-74 0 -141 48t-67 154t92 194q22 20 39 30l-29 106h-8q-136 -123 -278.5 -123t-227 91t-84.5 238t131 238t426 122q-12 106 -143 106q-98 0 -258 -86l-123 229q225 136 437 136t325.5 -114t113.5 -366v-569q-104 -25 -142 -71t-38 -86
q0 -72 86 -72q35 0 66 24zM422 319q0 -74 94 -73q43 0 70.5 19.5t56.5 49.5v140q-127 -18 -174 -55.5t-47 -80.5z" />
    <glyph glyph-name="Cacute" unicode="&#x106;" horiz-adv-x="1200" 
d="M281 144q-191 184 -191 510q0 325 197 518q90 88 208 136q117 48 245 48t232 -52t175 -124l-193 -217q-49 43 -96 67q-48 24 -110 23q-126 0 -212 -106q-87 -106 -86 -286q1 -181 79 -282q79 -100 211 -100t231 106l192 -213q-171 -195 -440 -196t-442 168zM819 1434
h-278l159 254h369z" />
    <glyph glyph-name="cacute" unicode="&#x107;" horiz-adv-x="966" 
d="M926 102q-146 -127 -358 -127q-94 0 -189 36q-194 74 -274 274q-39 100 -39 227q0 244 160 391q160 146 388 146q184 0 299 -115l-159 -217q-59 49 -119 49q-97 0 -153 -69t-56 -185t56 -186q56 -68 135 -68t169 66zM678 1176h-254l180 315h336z" />
    <glyph glyph-name="Ccircumflex" unicode="&#x108;" horiz-adv-x="1200" 
d="M281 144q-191 184 -191 510q0 325 197 518q90 88 208 136q117 48 245 48t232 -52t175 -124l-193 -217q-49 43 -96 67q-48 24 -110 23q-126 0 -212 -106q-87 -106 -86 -286q1 -181 79 -282q79 -100 211 -100t231 106l192 -213q-171 -195 -440 -196t-442 168zM344 1434
l197 254h344l196 -254h-266l-98 118h-8l-99 -118h-266z" />
    <glyph glyph-name="ccircumflex" unicode="&#x109;" horiz-adv-x="966" 
d="M926 102q-146 -127 -358 -127q-94 0 -189 36q-194 74 -274 274q-39 100 -39 227q0 244 160 391q160 146 388 146q184 0 299 -115l-159 -217q-59 49 -119 49q-97 0 -153 -69t-56 -185t56 -186q56 -68 135 -68t169 66zM465 1491h278l197 -315h-233l-99 151h-8l-98 -151
h-234z" />
    <glyph glyph-name="Cdotaccent" unicode="&#x10a;" horiz-adv-x="1200" 
d="M281 144q-191 184 -191 510q0 325 197 518q90 88 208 136q117 48 245 48t232 -52t175 -124l-193 -217q-49 43 -96 67q-48 24 -110 23q-126 0 -212 -106q-87 -106 -86 -286q1 -181 79 -282q79 -100 211 -100t231 106l192 -213q-171 -195 -440 -196t-442 168zM713 1425
q-85 -1 -141 49t-56 128t55 127t141 49t142 -49q55 -49 55 -127t-55 -128t-141 -49z" />
    <glyph glyph-name="cdotaccent" unicode="&#x10b;" horiz-adv-x="966" 
d="M926 102q-146 -127 -358 -127q-94 0 -189 36q-194 74 -274 274q-39 100 -39 227q0 244 160 391q160 146 388 146q184 0 299 -115l-159 -217q-59 49 -119 49q-97 0 -153 -69t-56 -185t56 -186q56 -68 135 -68t169 66zM604 1151q-84 0 -136 49t-52 127t52 127t136 49
t136 -49t52 -127t-52 -127t-136 -49z" />
    <glyph glyph-name="Ccaron" unicode="&#x10c;" horiz-adv-x="1200" 
d="M281 144q-191 184 -191 510q0 325 197 518q90 88 208 136q117 48 245 48t232 -52t175 -124l-193 -217q-49 43 -96 67q-48 24 -110 23q-126 0 -212 -106q-87 -106 -86 -286q1 -181 79 -282q79 -100 211 -100t231 106l192 -213q-171 -195 -440 -196t-442 168zM1081 1688
l-196 -254h-344l-197 254h266l99 -119h8l98 119h266z" />
    <glyph glyph-name="ccaron" unicode="&#x10d;" horiz-adv-x="966" 
d="M926 102q-146 -127 -358 -127q-94 0 -189 36q-194 74 -274 274q-39 100 -39 227q0 244 160 391q160 146 388 146q184 0 299 -115l-159 -217q-59 49 -119 49q-97 0 -153 -69t-56 -185t56 -186q56 -68 135 -68t169 66zM268 1491h234l98 -152h8l99 152h233l-197 -315h-278z
" />
    <glyph glyph-name="Dcaron" unicode="&#x10e;" horiz-adv-x="1314" 
d="M520 283q161 0 245 77q101 94 99 312q0 312 -209 361q-63 15 -135 16h-20v-766h20zM147 1331h394q488 0 634 -358q50 -125 50 -301q0 -341 -181 -506q-181 -166 -483 -166h-414v1331zM1028 1688l-197 -254h-344l-196 254h266l98 -119h9l98 119h266z" />
    <glyph glyph-name="dcaron" unicode="&#x10f;" horiz-adv-x="1290" 
d="M578 762q-55 0 -100 -55q-44 -56 -44 -193q0 -252 152 -252q81 0 131 74v377q-52 49 -139 49zM750 94q-118 -119 -272 -119q-82 0 -160 37q-154 74 -215 276q-29 99 -29 224t36 225t94 169t134 106t157 37t134 -28t100 -75l-12 148v331h352v-1425h-287l-24 94h-8z
M1147 1122l-12 463h221l-4 -151l-58 -312h-147z" />
    <glyph glyph-name="Dcroat" unicode="&#x110;" horiz-adv-x="1368" 
d="M594 1331q488 0 634 -358q50 -125 50 -301q0 -340 -180 -506t-484 -166h-413v602h-152v152l152 12v565h393zM573 283q163 0 245 77q100 93 100 312q0 311 -209 361q-63 15 -136 16h-20v-283h238v-164h-238v-319h20z" />
    <glyph glyph-name="dcroat" unicode="&#x111;" horiz-adv-x="1187" 
d="M492 -25q-193 0 -305.5 137.5t-112.5 373.5t125.5 379t295.5 143q81 0 134 -28t100 -75l-12 148v73h-295v164h295v135h352v-135h135v-151l-135 -11v-1128h-295l-20 82h-9q-111 -107 -253 -107zM578 721q-55 0 -99.5 -50t-44.5 -178t40 -179.5t112 -51.5q41 0 71.5 15.5
t59.5 58.5v336q-52 49 -139 49z" />
    <glyph glyph-name="Emacron" unicode="&#x112;" horiz-adv-x="1138" 
d="M147 1331h861v-295h-508v-209h434v-295h-434v-237h528v-295h-881v1331zM291 1688h606v-222h-606v222z" />
    <glyph glyph-name="emacron" unicode="&#x113;" horiz-adv-x="1077" 
d="M705 627q0 67 -30 111q-29 44 -99 44t-114 -34t-61 -121h304zM967 94q-169 -119 -387 -119q-100 0 -195 36q-197 74 -279 274q-40 100 -40 226q0 238 147 388t354 150t322 -142t115 -354q0 -72 -15 -139h-583q25 -98 88 -135t155 -37t203 61zM262 1425h590v-221h-590v221
z" />
    <glyph glyph-name="Ebreve" unicode="&#x114;" horiz-adv-x="1138" 
d="M147 1331h861v-295h-508v-209h434v-295h-434v-237h528v-295h-881v1331zM885 1688q-25 -254 -291 -254t-291 254h189q23 -84 103 -83q81 1 101 83h189z" />
    <glyph glyph-name="ebreve" unicode="&#x115;" horiz-adv-x="1077" 
d="M705 627q0 67 -30 111q-29 44 -99 44t-114 -34t-61 -121h304zM967 94q-169 -119 -387 -119q-100 0 -195 36q-197 74 -279 274q-40 100 -40 226q0 238 147 388t354 150t322 -142t115 -354q0 -72 -15 -139h-583q25 -98 88 -135t155 -37t203 61zM557 1176q-139 0 -213 81
q-75 81 -82 213h193q14 -106 102 -106q90 0 102 106h193q-7 -200 -167 -271q-54 -23 -128 -23z" />
    <glyph glyph-name="Edotaccent" unicode="&#x116;" horiz-adv-x="1138" 
d="M147 1331h861v-295h-508v-209h434v-295h-434v-237h528v-295h-881v1331zM594 1425q-86 -1 -141 49t-56 128t55 127t142 49t141 -49t55 -127t-54 -128q-56 -50 -142 -49z" />
    <glyph glyph-name="edotaccent" unicode="&#x117;" horiz-adv-x="1077" 
d="M705 627q0 67 -30 111q-29 44 -99 44t-114 -34t-61 -121h304zM967 94q-169 -119 -387 -119q-100 0 -195 36q-197 74 -279 274q-40 100 -40 226q0 238 147 388t354 150t322 -142t115 -354q0 -72 -15 -139h-583q25 -98 88 -135t155 -37t203 61zM557 1151q-84 0 -136 49
t-52 127t52 127t136 49t136 -49t52 -127t-52 -127t-136 -49z" />
    <glyph glyph-name="Eogonek" unicode="&#x118;" horiz-adv-x="1138" 
d="M1073 -389q-95 -78 -255 -78q-82 0 -155 52.5t-73 148.5q0 128 110 225q28 25 54 41h-607v1331h861v-295h-508v-209h434v-295h-434v-237h528v-295h-12q-68 0 -120 -53.5t-52 -104.5t25.5 -67.5t55 -16.5t70.5 29z" />
    <glyph glyph-name="eogonek" unicode="&#x119;" horiz-adv-x="1077" 
d="M705 627q0 66 -30 110.5t-99.5 44.5t-113.5 -34.5t-61 -120.5h304zM971 -360q-91 -74 -247 -74q-75 0 -139.5 48t-64.5 133t37 141.5t74 91.5q-20 -5 -37 -5q-230 0 -379 143.5t-149 388t147 393.5t354 149t322 -141t115 -355q0 -72 -15 -139h-583q25 -98 88 -135
t156.5 -37t201.5 61l115 -209q-134 -93 -167.5 -132.5t-41.5 -66t-8 -58.5t24.5 -49t58.5 -17t68 24z" />
    <glyph glyph-name="Ecaron" unicode="&#x11a;" horiz-adv-x="1138" 
d="M147 1331h861v-295h-508v-209h434v-295h-434v-237h528v-295h-881v1331zM963 1688l-197 -254h-344l-197 254h267l98 -119h8l98 119h267z" />
    <glyph glyph-name="ecaron" unicode="&#x11b;" horiz-adv-x="1077" 
d="M705 627q0 67 -30 111q-29 44 -99 44t-114 -34t-61 -121h304zM967 94q-169 -119 -387 -119q-100 0 -195 36q-197 74 -279 274q-40 100 -40 226q0 238 147 388t354 150t322 -142t115 -354q0 -72 -15 -139h-583q25 -98 88 -135t155 -37t203 61zM221 1491h234l98 -152h8
l98 152h234l-197 -315h-278z" />
    <glyph glyph-name="Gcircumflex" unicode="&#x11c;" horiz-adv-x="1323" 
d="M799 279q66 0 102 24v184h-196v287h507v-635q-74 -67 -196 -115t-260 -48q-139 0 -260 41q-249 86 -354 340q-52 128 -52 297q0 328 195 515t477 187q142 0 248 -52t178 -124l-193 -217q-49 43 -99 67t-124 23q-141 0 -232 -104t-89 -281q0 -389 348 -389zM393 1434
l197 254h344l196 -254h-266l-98 118h-8l-99 -118h-266z" />
    <glyph glyph-name="gcircumflex" unicode="&#x11d;" horiz-adv-x="1118" 
d="M524 532q49 0 80 35t31 108t-31 107t-80 33q-49 0 -80 -34q-30 -35 -30 -107t30 -107t80 -35zM938 648q0 -74 -33 -139q-94 -185 -381 -185q-51 0 -114 14q-25 -22 -25 -58t33 -50t110 -13h154q193 0 298 -62t105 -204q0 -169 -161 -271t-445 -102t-383 136
q-35 48 -35 118q0 121 144 197v8q-96 68 -95 177q1 110 115 192v8q-55 36 -97 104t-42 160q0 179 128 275t310 96q90 0 164 -25h381v-254h-147q16 -48 16 -122zM348 -111q0 -94 201 -94q86 0 143 26q58 25 58 67t-36 52t-102 11h-80q-103 0 -147 12q-37 -37 -37 -74z
M385 1491h279l196 -315h-233l-99 151h-8l-98 -151h-234z" />
    <glyph glyph-name="Gbreve" unicode="&#x11e;" horiz-adv-x="1323" 
d="M799 279q66 0 102 24v184h-196v287h507v-635q-74 -67 -196 -115t-260 -48q-139 0 -260 41q-249 86 -354 340q-52 128 -52 297q0 328 195 515t477 187q142 0 248 -52t178 -124l-193 -217q-49 43 -99 67t-124 23q-141 0 -232 -104t-89 -281q0 -389 348 -389zM762 1434
q-266 0 -291 254h188q23 -84 103 -83t102 83h189q-25 -254 -291 -254z" />
    <glyph glyph-name="gbreve" unicode="&#x11f;" horiz-adv-x="1118" 
d="M524 532q49 0 80 35t31 108t-31 107t-80 33q-49 0 -80 -34q-30 -35 -30 -107t30 -107t80 -35zM938 648q0 -74 -33 -139q-94 -185 -381 -185q-51 0 -114 14q-25 -22 -25 -58t33 -50t110 -13h154q193 0 298 -62t105 -204q0 -169 -161 -271t-445 -102t-383 136
q-35 48 -35 118q0 121 144 197v8q-96 68 -95 177q1 110 115 192v8q-55 36 -97 104t-42 160q0 179 128 275t310 96q90 0 164 -25h381v-254h-147q16 -48 16 -122zM348 -111q0 -94 201 -94q86 0 143 26q58 25 58 67t-36 52t-102 11h-80q-103 0 -147 12q-37 -37 -37 -74z
M524 1176q-139 0 -213 81q-75 81 -82 213h193q14 -106 102 -106q89 0 103 106h192q-7 -200 -167 -271q-54 -23 -128 -23z" />
    <glyph glyph-name="Gdotaccent" unicode="&#x120;" horiz-adv-x="1323" 
d="M799 279q66 0 102 24v184h-196v287h507v-635q-74 -67 -196 -115t-260 -48q-139 0 -260 41q-249 86 -354 340q-52 128 -52 297q0 328 195 515t477 187q142 0 248 -52t178 -124l-193 -217q-49 43 -99 67t-124 23q-141 0 -232 -104t-89 -281q0 -389 348 -389zM762 1425
q-86 -1 -141 49t-56 128t55 127t142 49t141 -49t55 -127t-55 -128t-141 -49z" />
    <glyph glyph-name="gdotaccent" unicode="&#x121;" horiz-adv-x="1118" 
d="M524 532q49 0 80 35t31 108t-31 107t-80 33q-49 0 -80 -34q-30 -35 -30 -107t30 -107t80 -35zM938 648q0 -74 -33 -139q-94 -185 -381 -185q-51 0 -114 14q-25 -22 -25 -58t33 -50t110 -13h154q193 0 298 -62t105 -204q0 -169 -161 -271t-445 -102t-383 136
q-35 48 -35 118q0 121 144 197v8q-96 68 -95 177q1 110 115 192v8q-55 36 -97 104t-42 160q0 179 128 275t310 96q90 0 164 -25h381v-254h-147q16 -48 16 -122zM348 -111q0 -94 201 -94q86 0 143 26q58 25 58 67t-36 52t-102 11h-80q-103 0 -147 12q-37 -37 -37 -74z
M524 1151q-84 0 -136 49t-52 127t52 127t136 49t136 -49t52 -127t-52 -127t-136 -49z" />
    <glyph glyph-name="uni0122" unicode="&#x122;" horiz-adv-x="1323" 
d="M799 279q66 0 102 24v184h-196v287h507v-635q-74 -67 -196 -115t-260 -48q-139 0 -260 41q-249 86 -354 340q-52 128 -52 297q0 328 195 515t477 187q142 0 248 -52t178 -124l-193 -217q-49 43 -99 67t-124 23q-141 0 -232 -104t-89 -281q0 -389 348 -389zM942 -246
q0 -68 -32 -107q-95 -119 -357 -126l-25 135q72 6 118 20t46 50q0 25 -17 41t-65 28l66 123q150 -12 208 -54t58 -110z" />
    <glyph glyph-name="uni0123" unicode="&#x123;" horiz-adv-x="1118" 
d="M524 532q49 0 80 35t31 108t-31 107t-80 33q-49 0 -80 -34q-30 -35 -30 -107t30 -107t80 -35zM938 648q0 -74 -33 -139q-94 -185 -381 -185q-51 0 -114 14q-25 -22 -25 -58t33 -50t110 -13h154q193 0 298 -62t105 -204q0 -169 -161 -271t-445 -102t-383 136
q-35 48 -35 118q0 121 144 197v8q-96 68 -95 177q1 110 115 192v8q-55 36 -97 104t-42 160q0 179 128 275t310 96q90 0 164 -25h381v-254h-147q16 -48 16 -122zM348 -111q0 -94 201 -94q86 0 143 26q58 25 58 67t-36 52t-102 11h-80q-103 0 -147 12q-37 -37 -37 -74z
M586 1311q0 -25 17 -41t65 -29l-66 -123q-146 12 -206 53t-60 134q0 92 117 152q89 47 272 59l25 -136q-72 -6 -118 -20t-46 -49z" />
    <glyph glyph-name="Hcircumflex" unicode="&#x124;" horiz-adv-x="1396" 
d="M147 1331h353v-495h397v495h352v-1331h-352v528h-397v-528h-353v1331zM328 1434l196 254h344l197 -254h-266l-99 118h-8l-98 -118h-266z" />
    <glyph glyph-name="hcircumflex" unicode="&#x125;" horiz-adv-x="1191" 
d="M119 1425h352v-331l-16 -176q53 47 128 89t179 42q168 0 244 -114t75 -304v-631h-352v586q0 98 -24 131q-25 33 -76 33t-84 -20t-74 -58v-672h-352v1425zM-78 1536l197 254h344l196 -254h-266l-98 119h-8l-99 -119h-266z" />
    <glyph glyph-name="Hbar" unicode="&#x126;" horiz-adv-x="1478" 
d="M1434 991h-144v-991h-352v528h-397v-528h-353v991h-143v152l143 12v176h353v-176h397v176h352v-176h144v-164zM938 991h-397v-155h397v155z" />
    <glyph glyph-name="hbar" unicode="&#x127;" horiz-adv-x="1191" 
d="M762 1008q168 0 243.5 -114t75.5 -304v-590h-352v545q0 98 -24.5 131t-75.5 33t-84 -20.5t-74 -57.5v-631h-352v1126h-135v152l135 10v137h352v-135h336v-164h-336v-73l-16 -176q53 47 127.5 89t179.5 42z" />
    <glyph glyph-name="Itilde" unicode="&#x128;" horiz-adv-x="647" 
d="M147 1331h353v-1331h-353v1331zM438 1647q56 0 78 86h176q-19 -147 -84 -223t-141 -76q-77 0 -157 42t-101 44q-55 0 -78 -86h-176q18 156 86 228t140 71q72 1 129 -29q58 -30 82 -44t46 -13z" />
    <glyph glyph-name="itilde" unicode="&#x129;" horiz-adv-x="589" 
d="M119 1024h352v-1024h-352v1024zM16 1404q64 70 137 71q74 1 129 -29q56 -30 80 -44t49 -13q24 0 40 18t28 68h176q-17 -158 -81 -229q-114 -127 -291 -27q-81 42 -103 43q-48 0 -69 -86h-177q18 158 82 228z" />
    <glyph glyph-name="Imacron" unicode="&#x12a;" horiz-adv-x="647" 
d="M147 1331h353v-1331h-353v1331zM20 1688h607v-222h-607v222z" />
    <glyph glyph-name="imacron" unicode="&#x12b;" horiz-adv-x="589" 
d="M119 1024h352v-1024h-352v1024zM0 1425h590v-221h-590v221z" />
    <glyph glyph-name="uni012C" unicode="&#x12c;" horiz-adv-x="647" 
d="M147 1331h353v-1331h-353v1331zM614 1688q-24 -254 -290 -254q-265 0 -291 254h188q23 -84 103 -83t102 83h188z" />
    <glyph glyph-name="uni012D" unicode="&#x12d;" horiz-adv-x="589" 
d="M119 1024h352v-1024h-352v1024zM295 1176q-74 0 -128 24q-160 70 -167 270h193q14 -106 103 -106t101 106h193q-7 -200 -167 -271q-54 -23 -128 -23z" />
    <glyph glyph-name="Iogonek" unicode="&#x12e;" horiz-adv-x="647" 
d="M340 -166q0 -76 83 -76q32 0 69 29l77 -176q-95 -78 -255 -78q-82 0 -155 52.5t-73 148.5q0 128 108 228q26 24 50 38h-97v1331h353v-1331q-90 -29 -125 -76t-35 -90z" />
    <glyph glyph-name="iogonek" unicode="&#x12f;" horiz-adv-x="589" 
d="M295 1151q-86 0 -141.5 49t-55.5 127t55.5 127t141.5 49t141.5 -49t55.5 -127t-55.5 -127t-141.5 -49zM541 -360q-91 -74 -247 -74q-75 0 -141.5 48t-66.5 155t58.5 163t76.5 68h-102v1024h352v-1024q-90 -25 -121 -71t-31 -85t25 -56t57 -17t70 24z" />
    <glyph glyph-name="Idotaccent" unicode="&#x130;" horiz-adv-x="647" 
d="M147 1331h353v-1331h-353v1331zM324 1425q-86 -1 -142 49t-55 128q0 78 55 127q56 49 142 49t141 -49t55 -127t-55 -128t-141 -49z" />
    <glyph glyph-name="dotlessi" unicode="&#x131;" horiz-adv-x="589" 
d="M119 1024h352v-1024h-352v1024z" />
    <glyph glyph-name="Jcircumflex" unicode="&#x134;" horiz-adv-x="1064" 
d="M573 492v839h353v-868q0 -210 -115 -349t-336 -139q-165 -1 -273 61t-182 191l238 179q35 -66 80 -97q69 -48 152 -21t83 204zM377 1434l196 254h345l196 -254h-266l-98 118h-9l-98 -118h-266z" />
    <glyph glyph-name="jcircumflex" unicode="&#x135;" horiz-adv-x="593" 
d="M20 -111q55 0 79 34t24 118v983h352v-971q0 -306 -206 -402q-77 -36 -191 -36t-193 29l62 258q50 -13 73 -13zM160 1491h278l197 -315h-234l-98 151h-8l-98 -151h-234z" />
    <glyph glyph-name="uni0136" unicode="&#x136;" horiz-adv-x="1286" 
d="M147 1331h353v-495h8l336 495h385l-398 -540l476 -791h-385l-295 512l-127 -180v-332h-353v1331zM623 -274q0 48 -82 69l65 123q150 -12 208 -54t58 -110t-32 -107q-94 -119 -357 -126l-24 135q72 6 118 20t46 50z" />
    <glyph glyph-name="uni0137" unicode="&#x137;" horiz-adv-x="1163" 
d="M119 1425h344v-757h8l283 356h381l-365 -426l385 -598h-381l-205 365l-106 -119v-246h-344v1425zM811 -246q0 -68 -32 -107q-95 -119 -357 -126l-25 135q72 6 118 20t46 50q0 25 -17 41t-65 28l66 123q150 -12 208 -54t58 -110z" />
    <glyph glyph-name="kgreenlandic" unicode="&#x138;" horiz-adv-x="1163" 
d="M119 1024h352v-365h8l275 365h381l-357 -426l377 -598h-381l-205 352l-98 -119v-233h-352v1024z" />
    <glyph glyph-name="Lacute" unicode="&#x139;" horiz-adv-x="1085" 
d="M147 1331h353v-1036h504v-295h-857v1331zM438 1434h-278l159 254h369z" />
    <glyph glyph-name="lacute" unicode="&#x13a;" horiz-adv-x="610" 
d="M119 360v1065h352v-1077q0 -54 19 -72q20 -18 34 -18h22q7 0 19 4l41 -258q-66 -27 -164 -28q-259 -2 -308 228q-15 71 -15 156zM412 1548h-279l160 254h369z" />
    <glyph glyph-name="uni013B" unicode="&#x13b;" horiz-adv-x="1085" 
d="M147 1331h353v-1036h504v-295h-857v1331zM784 -246q0 -68 -32 -107q-94 -119 -357 -126l-24 135q71 6 117 20t47 50q0 48 -82 69l65 123q150 -12 208 -54t58 -110z" />
    <glyph glyph-name="uni013C" unicode="&#x13c;" horiz-adv-x="610" 
d="M119 360v1065h352v-1077q0 -54 19 -72q20 -18 34 -18h22q7 0 19 4l41 -258q-66 -27 -164 -28q-259 -2 -308 228q-15 71 -15 156zM594 -246q0 -68 -32 -107q-95 -119 -357 -126l-25 135q72 6 118 20t46 50q0 25 -17 41t-65 28l66 123q150 -12 208 -54t58 -110z" />
    <glyph glyph-name="Lcaron" unicode="&#x13d;" horiz-adv-x="1085" 
d="M147 1331h353v-1036h504v-295h-857v1331zM737 1042l-12 463h221l-4 -151l-57 -312h-148z" />
    <glyph glyph-name="lcaron" unicode="&#x13e;" horiz-adv-x="692" 
d="M119 360v1065h352v-1077q0 -54 19 -72q20 -18 34 -18h22q7 0 19 4l41 -258q-66 -27 -164 -28q-259 -2 -308 228q-15 71 -15 156zM549 1122l-12 463h221l-4 -151l-58 -312h-147z" />
    <glyph glyph-name="Ldot" unicode="&#x13f;" horiz-adv-x="1085" 
d="M147 1331h353v-1036h504v-295h-857v1331zM662 676q0 90 57 151t147 61t148 -60q58 -62 57 -152q0 -90 -57 -152q-58 -62 -148 -61q-90 -1 -147 61t-57 152z" />
    <glyph glyph-name="ldot" unicode="&#x140;" horiz-adv-x="999" 
d="M119 360v1065h352v-1077q0 -54 19 -72q20 -18 34 -18h22q7 0 19 4l41 -258q-66 -27 -164 -28q-259 -2 -308 228q-15 71 -15 156zM590 676q0 90 57 151t147 61t148 -60q57 -62 57 -152t-57 -152t-147 -61q-90 0 -148 61q-57 62 -57 152z" />
    <glyph glyph-name="Lslash" unicode="&#x141;" horiz-adv-x="1101" 
d="M1020 295v-295h-856v406l-144 -87v271l144 86v655h352v-491l344 192v-270l-344 -193v-274h504z" />
    <glyph glyph-name="lslash" unicode="&#x142;" horiz-adv-x="651" 
d="M143 360v162l-118 -71v278l118 72v624h353v-452l131 76v-279l-131 -76v-346q0 -53 19.5 -71.5t33.5 -18.5h15q14 0 26 4l41 -258q-70 -29 -166 -29q-176 0 -249 100.5t-73 284.5z" />
    <glyph glyph-name="Nacute" unicode="&#x143;" horiz-adv-x="1376" 
d="M147 1331h361l295 -594l127 -299h8q-6 53 -26 208t-19 300v385h336v-1331h-361l-295 596l-127 297h-8q12 -115 28 -250t17 -258v-385h-336v1331zM795 1434h-279l160 254h368z" />
    <glyph glyph-name="nacute" unicode="&#x144;" horiz-adv-x="1191" 
d="M761 1049q169 0 245 -114t75 -304v-631h-352v586q0 98 -24 131q-25 33 -76 33t-84 -20t-74 -58v-672h-352v1024h287l24 -123h8q154 148 323 148zM717 1176h-254l180 315h336z" />
    <glyph glyph-name="uni0145" unicode="&#x145;" horiz-adv-x="1376" 
d="M147 1331h361l295 -594l127 -299h8q-6 53 -26 208t-19 300v385h336v-1331h-361l-295 596l-127 297h-8q12 -115 28 -250t17 -258v-385h-336v1331zM905 -246q0 -68 -32 -107q-95 -119 -357 -126l-24 135q72 6 118 20t45 50q0 25 -17 41t-65 28l66 123q150 -12 208 -54
t58 -110z" />
    <glyph glyph-name="uni0146" unicode="&#x146;" horiz-adv-x="1191" 
d="M761 1049q169 0 245 -114t75 -304v-631h-352v586q0 98 -24 131q-25 33 -76 33t-84 -20t-74 -58v-672h-352v1024h287l24 -123h8q154 148 323 148zM545 -274q0 48 -82 69l65 123q150 -12 208 -54t58 -110t-31 -107q-95 -119 -357 -126l-25 135q72 6 118 20t46 50z" />
    <glyph glyph-name="Ncaron" unicode="&#x147;" horiz-adv-x="1376" 
d="M147 1331h361l295 -594l127 -299h8q-6 53 -26 208t-19 300v385h336v-1331h-361l-295 596l-127 297h-8q12 -115 28 -250t17 -258v-385h-336v1331zM1057 1688l-197 -254h-344l-197 254h267l98 -119h8l99 119h266z" />
    <glyph glyph-name="ncaron" unicode="&#x148;" horiz-adv-x="1191" 
d="M761 1049q169 0 245 -114t75 -304v-631h-352v586q0 98 -24 131q-25 33 -76 33t-84 -20t-74 -58v-672h-352v1024h287l24 -123h8q154 148 323 148zM307 1491h234l98 -152h8l98 152h234l-197 -315h-278z" />
    <glyph glyph-name="napostrophe" unicode="&#x149;" horiz-adv-x="1806" 
d="M328 1069q-74 0 -125 45t-51 127t49 133t127 51q215 0 216 -307t-319 -459l-73 152q98 43 147 105t49 155q-6 -2 -20 -2zM733 1024h287l24 -123h9q153 148 322 148t245 -114t76 -304v-631h-353v586q0 98 -24 131q-25 33 -76 33t-84 -20t-74 -58v-672h-352v1024z" />
    <glyph glyph-name="Omacron" unicode="&#x14c;" horiz-adv-x="1417" 
d="M709 279q121 0 189 105q68 106 69 288q0 182 -69 281q-70 99 -190 99t-189 -98q-69 -100 -69 -282t69 -288q69 -105 190 -105zM708 -25q-138 -1 -252 47t-195 137t-126 219t-45 294q0 323 168 504q168 180 452 180t451 -182q166 -182 166 -504q0 -323 -171 -511
q-167 -184 -448 -184zM406 1688h606v-222h-606v222z" />
    <glyph glyph-name="omacron" unicode="&#x14d;" horiz-adv-x="1146" 
d="M721 512q1 254 -147 254t-148 -254t148 -254t147 254zM66 511q0 245 150 392q150 146 356 146q207 0 358 -146t151 -390q0 -243 -151 -391q-152 -147 -358 -147q-207 0 -356 145q-150 146 -150 391zM279 1425h589v-221h-589v221z" />
    <glyph glyph-name="uni014E" unicode="&#x14e;" horiz-adv-x="1417" 
d="M709 279q121 0 189 105q68 106 69 288q0 182 -69 281q-70 99 -190 99t-189 -98q-69 -100 -69 -282t69 -288q69 -105 190 -105zM708 -25q-138 -1 -252 47t-195 137t-126 219t-45 294q0 323 168 504q168 180 452 180t451 -182q166 -182 166 -504q0 -323 -171 -511
q-167 -184 -448 -184zM999 1688q-25 -254 -291 -254q-265 0 -290 254h188q23 -84 103 -83t102 83h188z" />
    <glyph glyph-name="uni014F" unicode="&#x14f;" horiz-adv-x="1146" 
d="M721 512q1 254 -147 254t-148 -254t148 -254t147 254zM66 511q0 245 150 392q150 146 356 146q207 0 358 -146t151 -390q0 -243 -151 -391q-152 -147 -358 -147q-207 0 -356 145q-150 146 -150 391zM573 1176q-139 0 -214 82q-76 82 -80 212h192q14 -106 102 -106
q89 0 103 106h192q-7 -201 -167 -271q-54 -23 -128 -23z" />
    <glyph glyph-name="Ohungarumlaut" unicode="&#x150;" horiz-adv-x="1417" 
d="M709 279q121 0 189 105q68 106 69 288q0 182 -69 281q-70 99 -190 99t-189 -98q-69 -100 -69 -282t69 -288q69 -105 190 -105zM708 -25q-138 -1 -252 47t-195 137t-126 219t-45 294q0 323 168 504q168 180 452 180t451 -182q166 -182 166 -504q0 -323 -171 -511
q-167 -184 -448 -184zM918 1688h294l-188 -254h-233zM406 1434l126 254h295l-188 -254h-233z" />
    <glyph glyph-name="ohungarumlaut" unicode="&#x151;" horiz-adv-x="1146" 
d="M721 512q1 254 -147 254t-148 -254t148 -254t147 254zM66 511q0 245 150 392q150 146 356 146q207 0 358 -146t151 -390q0 -243 -151 -391q-152 -147 -358 -147q-207 0 -356 145q-150 146 -150 391zM803 1491h274l-200 -315h-213zM434 1491h275l-201 -315h-213z" />
    <glyph glyph-name="OE" unicode="&#x152;" horiz-adv-x="1802" 
d="M554 358q84 -75 253 -75h29v766h-29q-171 0 -253 -70q-103 -88 -103 -308.5t103 -312.5zM293 1178q181 154 493 153h885v-295h-483v-209h409v-295h-409v-237h504v-295h-926q-297 0 -477 160q-199 177 -199 511.5t203 506.5z" />
    <glyph glyph-name="oe" unicode="&#x153;" horiz-adv-x="1671" 
d="M1298 618q0 164 -128 164t-150 -164h278zM877 127q-136 -152 -324 -152q-213 1 -347 141q-140 147 -140 396q0 250 142 393.5t337 143.5t327 -152q136 152 324.5 152t294.5 -143.5t106 -360.5q0 -76 -14 -139h-563q42 -156 217 -156q53 0 101 19.5t104 49.5l119 -225
q-84 -59 -185.5 -89t-187.5 -30q-177 0 -311 152zM422 512q0 -117 33.5 -185.5t101.5 -68.5t103.5 68.5t35.5 185.5t-35.5 185.5t-103.5 68.5t-101.5 -68.5t-33.5 -185.5z" />
    <glyph glyph-name="Racute" unicode="&#x154;" horiz-adv-x="1290" 
d="M1184 901q0 -267 -215 -385l288 -516h-393l-229 446h-135v-446h-353v1331h504q375 0 490 -222q43 -83 43 -208zM500 725h127q213 0 213 176q0 86 -54 119t-159 33h-127v-328zM754 1434h-279l160 254h369z" />
    <glyph glyph-name="racute" unicode="&#x155;" horiz-adv-x="856" 
d="M675 741q-47 0 -107 -38t-97 -134v-569h-352v1024h287l24 -176h8q57 104 136 152q111 68 231 43q29 -5 51 -15l-57 -303q-78 16 -124 16zM602 1176h-254l180 315h336z" />
    <glyph glyph-name="uni0156" unicode="&#x156;" horiz-adv-x="1290" 
d="M1184 901q0 -267 -215 -385l288 -516h-393l-229 446h-135v-446h-353v1331h504q375 0 490 -222q43 -83 43 -208zM500 725h127q213 0 213 176q0 86 -54 119t-159 33h-127v-328zM623 -274q0 48 -82 69l65 123q150 -12 208 -54t58 -110t-32 -107q-94 -119 -357 -126l-24 135
q72 6 118 20t46 50z" />
    <glyph glyph-name="uni0157" unicode="&#x157;" horiz-adv-x="856" 
d="M675 741q-47 0 -107 -38t-97 -134v-569h-352v1024h287l24 -176h8q57 104 136 152q111 68 231 43q29 -5 51 -15l-57 -303q-78 16 -124 16zM483 -246q1 -68 -31 -107q-94 -119 -358 -126l-24 135q72 6 118 20t45 50q0 25 -17 41t-64 28l65 123q150 -12 208 -54t58 -110z
" />
    <glyph glyph-name="Rcaron" unicode="&#x158;" horiz-adv-x="1290" 
d="M1184 901q0 -267 -215 -385l288 -516h-393l-229 446h-135v-446h-353v1331h504q375 0 490 -222q43 -83 43 -208zM500 725h127q213 0 213 176q0 86 -54 119t-159 33h-127v-328zM1016 1688l-197 -254h-344l-196 254h266l98 -119h8l99 119h266z" />
    <glyph glyph-name="rcaron" unicode="&#x159;" horiz-adv-x="856" 
d="M675 741q-47 0 -107 -38t-97 -134v-569h-352v1024h287l24 -176h8q57 104 136 152q111 68 231 43q29 -5 51 -15l-57 -303q-78 16 -124 16zM193 1491h233l98 -152h8l99 152h233l-196 -315h-279z" />
    <glyph glyph-name="Sacute" unicode="&#x15a;" horiz-adv-x="1155" 
d="M729 373q0 43 -39 66t-141 63l-166 69q-114 43 -192 140t-76 231q0 172 141 293t354 121q115 0 233 -43t210 -135l-176 -222q-140 97 -273 97t-133 -90q0 -47 52 -73t145 -61l161 -63q261 -102 261 -365q0 -177 -142 -302q-142 -124 -379 -124q-127 1 -261 47t-242 144
l200 242q165 -131 314 -130t149 95zM713 1434h-279l160 254h369z" />
    <glyph glyph-name="sacute" unicode="&#x15b;" horiz-adv-x="925" 
d="M545 295q0 36 -61 64q-28 13 -62 25t-111 45q-76 32 -125 80q-96 95 -96 208q0 149 113 241q113 91 293 91q127 0 218 -42t158 -94l-155 -208q-115 86 -207 86t-92 -58q0 -36 57 -61q27 -12 62 -24t77 -26q262 -95 258 -307q0 -148 -115 -244t-323 -96q-98 0 -208 39
t-189 105l156 217q139 -102 245 -102t107 61zM569 1176h-254l181 315h335z" />
    <glyph glyph-name="Scircumflex" unicode="&#x15c;" horiz-adv-x="1155" 
d="M729 373q0 43 -39 66t-141 63l-166 69q-114 43 -192 140t-76 231q0 172 141 293t354 121q115 0 233 -43t210 -135l-176 -222q-140 97 -273 97t-133 -90q0 -47 52 -73t145 -61l161 -63q261 -102 261 -365q0 -177 -142 -302q-142 -124 -379 -124q-127 1 -261 47t-242 144
l200 242q165 -131 314 -130t149 95zM238 1434l196 254h344l197 -254h-266l-99 118h-8l-98 -118h-266z" />
    <glyph glyph-name="scircumflex" unicode="&#x15d;" horiz-adv-x="925" 
d="M545 295q0 36 -61 64q-28 13 -62 25t-111 45q-76 32 -125 80q-96 95 -96 208q0 149 113 241q113 91 293 91q127 0 218 -42t158 -94l-155 -208q-115 86 -207 86t-92 -58q0 -36 57 -61q27 -12 62 -24t77 -26q262 -95 258 -307q0 -148 -115 -244t-323 -96q-98 0 -208 39
t-189 105l156 217q139 -102 245 -102t107 61zM356 1491h279l196 -315h-233l-98 151h-8l-99 -151h-233z" />
    <glyph glyph-name="uni015E" unicode="&#x15e;" horiz-adv-x="1155" 
d="M729 373q0 43 -39 66t-141 63l-166 69q-114 43 -192 140t-76 231q0 172 141 293t354 121q115 0 233 -43t210 -135l-176 -222q-140 97 -273 97t-133 -90q0 -47 52 -73t145 -61l161 -63q261 -102 261 -365q0 -177 -127 -288t-290 -131l-26 -64q119 -40 119 -149t-117 -169
q-99 -52 -272 -59l-25 135q164 14 164 86q0 23 -21 43q-22 20 -94 39l69 138q-237 33 -404 184l200 242q165 -131 314 -130t149 95z" />
    <glyph glyph-name="uni015F" unicode="&#x15f;" horiz-adv-x="925" 
d="M545 295q0 36 -61 64q-28 13 -62 25t-111 45q-76 32 -125 80q-96 95 -96 208q0 149 113 241q113 91 293 91q127 0 218 -42t158 -94l-155 -208q-115 86 -207 86t-92 -58q0 -36 57 -61q27 -12 62 -24t77 -26q262 -95 258 -307q0 -148 -112 -242q-71 -59 -164 -79l-31 -76
q119 -40 119 -149t-117 -169q-99 -52 -272 -59l-25 135q164 14 164 86q0 23 -21 43q-22 20 -94 39l67 134q-78 7 -174 41t-175 100l156 217q139 -102 245 -102t107 61z" />
    <glyph glyph-name="Scaron" unicode="&#x160;" horiz-adv-x="1155" 
d="M729 373q0 43 -39 66t-141 63l-166 69q-114 43 -192 140t-76 231q0 172 141 293t354 121q115 0 233 -43t210 -135l-176 -222q-140 97 -273 97t-133 -90q0 -47 52 -73t145 -61l161 -63q261 -102 261 -365q0 -177 -142 -302q-142 -124 -379 -124q-127 1 -261 47t-242 144
l200 242q165 -131 314 -130t149 95zM975 1688l-197 -254h-344l-196 254h266l98 -119h8l99 119h266z" />
    <glyph glyph-name="scaron" unicode="&#x161;" horiz-adv-x="925" 
d="M545 295q0 36 -61 64q-28 13 -62 25t-111 45q-76 32 -125 80q-96 95 -96 208q0 149 113 241q113 91 293 91q127 0 218 -42t158 -94l-155 -208q-115 86 -207 86t-92 -58q0 -36 57 -61q27 -12 62 -24t77 -26q262 -95 258 -307q0 -148 -115 -244t-323 -96q-98 0 -208 39
t-189 105l156 217q139 -102 245 -102t107 61zM160 1491h233l99 -152h8l98 152h233l-196 -315h-279z" />
    <glyph glyph-name="uni0162" unicode="&#x162;" horiz-adv-x="1155" 
d="M524 -238q0 23 -21 43q-22 20 -93 39l77 156h-86v1036h-352v295h1057v-295h-352v-1036h-65l-34 -82q119 -40 119 -149t-117 -169q-99 -52 -272 -59l-25 135q164 14 164 86z" />
    <glyph glyph-name="uni0163" unicode="&#x163;" horiz-adv-x="819" 
d="M164 750h-135v262l155 12l41 266h291v-266h234v-274h-234v-351q0 -85 37 -117t83 -32t93 16l53 -254q-94 -28 -176 -35l-24 -59q120 -41 119 -150t-117 -168q-99 -52 -273 -59l-24 135q162 14 164 86q0 23 -22 43t-93 39l73 147q-172 49 -224 231q-22 77 -21 171v357z
" />
    <glyph glyph-name="Tcaron" unicode="&#x164;" horiz-adv-x="1155" 
d="M401 1036h-352v295h1057v-295h-352v-1036h-353v1036zM946 1688l-196 -254h-344l-197 254h266l98 -119h9l98 119h266z" />
    <glyph glyph-name="tcaron" unicode="&#x165;" horiz-adv-x="819" 
d="M164 750h-135v262l155 12l41 266h291v-266h234v-274h-234v-351q0 -85 37 -117t83 -32t93 16l53 -254q-122 -36 -231 -36q-201 -1 -295 111t-92 306v357zM590 1122l-12 463h221l-4 -151l-58 -312h-147z" />
    <glyph glyph-name="Utilde" unicode="&#x168;" horiz-adv-x="1376" 
d="M139 1331h353v-729q0 -178 48 -251t152 -73t155 73q50 73 50 251v729h340v-688q0 -342 -133 -505t-413 -163t-416 163t-136 505v688zM803 1647q56 0 78 86h176q-19 -147 -84 -223t-143 -76t-157 42t-100 44q-56 0 -77 -86h-177q19 156 87 228t141 71q73 1 128 -29
q56 -30 81 -44t47 -13z" />
    <glyph glyph-name="utilde" unicode="&#x169;" horiz-adv-x="1183" 
d="M111 393v631h352v-586q1 -98 25 -131t75 -33t83 20t67 71v659h352v-1024h-287l-24 135h-9q-132 -160 -303 -160t-251 109t-80 309zM314 1404q64 70 138 71t129 -29q56 -30 81 -44q24 -14 48 -13q24 0 40 18t28 68h176q-18 -158 -82 -229q-114 -127 -290 -27
q-81 42 -103 43q-48 0 -69 -86h-177q17 158 81 228z" />
    <glyph glyph-name="Umacron" unicode="&#x16a;" horiz-adv-x="1376" 
d="M139 1331h353v-729q0 -178 48 -251t152 -73t155 73q50 73 50 251v729h340v-688q0 -342 -133 -505t-413 -163t-416 163t-136 505v688zM385 1688h606v-222h-606v222z" />
    <glyph glyph-name="umacron" unicode="&#x16b;" horiz-adv-x="1183" 
d="M111 393v631h352v-586q1 -98 25 -131t75 -33t83 20t67 71v659h352v-1024h-287l-24 135h-9q-132 -160 -303 -160t-251 109t-80 309zM299 1425h590v-221h-590v221z" />
    <glyph glyph-name="Ubreve" unicode="&#x16c;" horiz-adv-x="1376" 
d="M139 1331h353v-729q0 -178 48 -251t152 -73t155 73q50 73 50 251v729h340v-688q0 -342 -133 -505t-413 -163t-416 163t-136 505v688zM688 1434q-266 0 -291 254h189q23 -84 103 -83t102 83h188q-25 -254 -291 -254z" />
    <glyph glyph-name="ubreve" unicode="&#x16d;" horiz-adv-x="1183" 
d="M111 393v631h352v-586q1 -98 25 -131t75 -33t83 20t67 71v659h352v-1024h-287l-24 135h-9q-132 -160 -303 -160t-251 109t-80 309zM594 1176q-74 0 -128 24q-160 70 -167 270h193q14 -106 103 -106t101 106h193q-7 -200 -167 -271q-54 -23 -128 -23z" />
    <glyph glyph-name="Uring" unicode="&#x16e;" horiz-adv-x="1376" 
d="M139 1331h353v-729q0 -178 48 -251t152 -73t155 73q50 73 50 251v729h340v-688q0 -342 -133 -505t-413 -163t-416 163t-136 505v688zM688 1552q34 0 56 23t22 59t-23 60q-23 22 -55 22t-56 -22q-22 -22 -22 -60t22 -60t56 -22zM688 1425q-110 1 -178 57t-68 152t68 152
t178 57q110 0 178 -56q68 -57 68 -153t-68 -152t-178 -57z" />
    <glyph glyph-name="uring" unicode="&#x16f;" horiz-adv-x="1183" 
d="M111 393v631h352v-586q1 -98 25 -131t75 -33t83 20t67 71v659h352v-1024h-287l-24 135h-9q-132 -160 -303 -160t-251 109t-80 309zM594 1253q34 0 56 25q22 26 22 66t-23 65t-55 25t-56 -25q-22 -25 -22 -66t22 -65t56 -25zM594 1126q-110 0 -178 60t-68 157t68 157
t178 60t178 -58q68 -60 68 -158t-68 -158t-178 -60z" />
    <glyph glyph-name="Uhungarumlaut" unicode="&#x170;" horiz-adv-x="1376" 
d="M139 1331h353v-729q0 -178 48 -251t152 -73t155 73q50 73 50 251v729h340v-688q0 -342 -133 -505t-413 -163t-416 163t-136 505v688zM897 1688h295l-188 -254h-234zM385 1434l127 254h295l-189 -254h-233z" />
    <glyph glyph-name="uhungarumlaut" unicode="&#x171;" horiz-adv-x="1183" 
d="M111 393v631h352v-586q1 -98 25 -131t75 -33t83 20t67 71v659h352v-1024h-287l-24 135h-9q-132 -160 -303 -160t-251 109t-80 309zM823 1491h275l-201 -315h-213zM455 1491h274l-201 -315h-213z" />
    <glyph glyph-name="Uogonek" unicode="&#x172;" horiz-adv-x="1376" 
d="M971 -389q-96 -78 -256 -78q-82 0 -155 52.5t-73 142.5q1 88 55 168q22 32 44 52.5t32 31.5q-244 18 -361.5 182t-117.5 481v688h353v-729q0 -178 48 -250.5t152.5 -72.5t154.5 72.5t50 250.5v729h340v-688q0 -279 -78.5 -421.5t-277.5 -229.5q-76 -35 -108 -79t-32 -83
t26 -55.5t55.5 -16.5t70.5 29z" />
    <glyph glyph-name="uogonek" unicode="&#x173;" horiz-adv-x="1183" 
d="M885 -156q0 -73 87 -73q36 0 64 24l70 -155q-90 -74 -246 -74q-74 0 -141.5 48t-67.5 153q-1 105 93 195q22 20 38 30l-28 143h-9q-133 -160 -305 -160t-250.5 109t-78.5 309v631h352v-586q0 -98 24.5 -131t75.5 -33t83 20.5t67 70.5v659h352v-1024q-104 -25 -142 -71
t-38 -85z" />
    <glyph glyph-name="Wcircumflex" unicode="&#x174;" horiz-adv-x="1687" 
d="M20 1331h361l74 -581q10 -104 22 -208t23 -210h8q36 208 74 418l127 581h295l126 -581q18 -100 36 -206t38 -212h8q10 106 22 210t23 208l74 581h336l-221 -1331h-447l-102 528q-20 98 -49 312h-8q-29 -214 -49 -312l-99 -528h-438zM475 1434l197 254h344l196 -254h-266
l-98 118h-8l-99 -118h-266z" />
    <glyph glyph-name="wcircumflex" unicode="&#x175;" horiz-adv-x="1634" 
d="M49 1024h348l78 -430q13 -78 21 -155t20 -156h8q31 205 58 311l94 430h299l98 -430q17 -78 31 -155t31 -156h8q12 81 20 157t21 154l78 430h323l-233 -1024h-410l-74 356l-24 144t-25 157h-8q-27 -190 -45 -301l-70 -356h-401zM680 1491h278l197 -315h-233l-99 151h-8
l-98 -151h-234z" />
    <glyph glyph-name="Ycircumflex" unicode="&#x176;" horiz-adv-x="1114" 
d="M733 0h-352v459l-401 872h376l99 -278q25 -76 49 -148t51 -149h8q27 78 53 150t52 147l98 278h369l-402 -872v-459zM188 1434l197 254h344l197 -254h-267l-98 118h-8l-98 -118h-267z" />
    <glyph glyph-name="ycircumflex" unicode="&#x177;" horiz-adv-x="1110" 
d="M176 -98q177 -51 225 90l13 45l-389 987h352l123 -393q23 -72 39 -143t34 -148h9q16 74 31 146t34 145l103 393h335l-344 -1008q-88 -223 -188 -312t-283 -89q-87 0 -155 20zM426 1491h279l196 -315h-233l-99 151h-8l-98 -151h-234z" />
    <glyph glyph-name="Ydieresis" unicode="&#x178;" horiz-adv-x="1114" 
d="M733 0h-352v459l-401 872h376l99 -278q25 -76 49 -148t51 -149h8q27 78 53 150t52 147l98 278h369l-402 -872v-459zM770 1421q-72 0 -116 46t-44 114t44 114t116 46t116 -46t44 -114t-44 -114t-116 -46zM344 1421q-72 0 -116 46t-44 114t44 114t116 46t116 -46t44 -114
t-44 -114t-116 -46z" />
    <glyph glyph-name="Zacute" unicode="&#x179;" horiz-adv-x="1110" 
d="M119 1036v295h925v-213l-544 -823h549v-295h-983v213l544 823h-491zM688 1434h-278l159 254h369z" />
    <glyph glyph-name="zacute" unicode="&#x17a;" horiz-adv-x="970" 
d="M127 750v274h782v-188l-389 -562h402v-274h-840v188l389 562h-344zM590 1176h-254l180 315h336z" />
    <glyph glyph-name="Zdotaccent" unicode="&#x17b;" horiz-adv-x="1110" 
d="M119 1036v295h925v-213l-544 -823h549v-295h-983v213l544 823h-491zM582 1425q-86 -1 -142 49t-55 128q0 78 55 127q56 49 142 49t141 -49t55 -127t-55 -128t-141 -49z" />
    <glyph glyph-name="zdotaccent" unicode="&#x17c;" horiz-adv-x="970" 
d="M127 750v274h782v-188l-389 -562h402v-274h-840v188l389 562h-344zM516 1151q-84 0 -136 49t-52 127t52 127t136 49t136 -49t52 -127t-52 -127t-136 -49z" />
    <glyph glyph-name="Zcaron" unicode="&#x17d;" horiz-adv-x="1110" 
d="M119 1036v295h925v-213l-544 -823h549v-295h-983v213l544 823h-491zM950 1688l-196 -254h-344l-197 254h266l99 -119h8l98 119h266z" />
    <glyph glyph-name="zcaron" unicode="&#x17e;" horiz-adv-x="970" 
d="M127 750v274h782v-188l-389 -562h402v-274h-840v188l389 562h-344zM180 1491h234l98 -152h8l98 152h234l-197 -315h-278z" />
    <glyph glyph-name="uni0180" unicode="&#x180;" horiz-adv-x="1191" 
d="M715 1008q178 0 288.5 -135.5t110.5 -371.5t-126.5 -381t-299.5 -145q-140 0 -258 136h-8l-29 -111h-274v1126h-135v152l135 10v137h352v-135h336v-164h-336v-73l-8 -148q111 103 252 103zM602 262q106 0 129 87t23 179q0 192 -144 193q-76 0 -139 -74v-336
q52 -49 131 -49z" />
    <glyph glyph-name="uni018F" unicode="&#x18f;" horiz-adv-x="1400" 
d="M225 1188q191 168 472 168t447.5 -184.5t166.5 -505.5t-168.5 -506t-440.5 -185t-438 180.5t-166 503.5q0 59 8 119h850q-41 291 -292 291q-92 0 -159 -38t-120 -85zM697 262q93 0 161 64.5t92 197.5h-491q12 -139 78.5 -200.5t159.5 -61.5z" />
    <glyph glyph-name="uni0192" unicode="&#x192;" horiz-adv-x="1105" 
d="M885 1077q-121 0 -135 -119l-13 -106h193v-254h-223l-43 -348q-23 -204 -112 -325.5t-294 -121.5q-137 4 -186 31l43 260q33 -11 86 -16q33 2 55.5 11t45.5 52t42 215l27 242h-142v242l156 12h16l9 78q24 230 125.5 328t318.5 98q52 0 109 -14.5t73 -22.5l-63 -262
q-53 20 -88 20z" />
    <glyph glyph-name="Ohorn" unicode="&#x1a0;" horiz-adv-x="1417" 
d="M1376 1438q0 -197 -223 -258q174 -182 174 -507.5t-169 -511.5t-449.5 -186t-449.5 186t-169 510t168 504.5t451 180.5q162 0 292 -64q49 16 77 40t28 75t-33 104l238 103q65 -75 65 -176zM708.5 279q120.5 0 189.5 105t69 287.5t-69 282t-189.5 99.5t-189 -99.5
t-68.5 -282t68.5 -287.5t189 -105z" />
    <glyph glyph-name="ohorn" unicode="&#x1a1;" horiz-adv-x="1146" 
d="M1139 1150.5q0 -99.5 -56.5 -163t-146.5 -88.5q145 -154 145 -392.5t-150.5 -385t-358 -146.5t-357 145.5t-149.5 391.5t150 392t358 145q98 0 198 -39q96 23 96 116q0 45 -32 99l237 102q66 -77 66 -176.5zM426 512q0 -254 147.5 -254t147.5 254t-147.5 254t-147.5 -254
z" />
    <glyph glyph-name="Uhorn" unicode="&#x1af;" horiz-adv-x="1417" 
d="M1503 1479q-1 -169 -161 -241q-48 -22 -105 -32v-563q0 -342 -133 -505t-413 -163t-416 163t-136 505v688h353v-729q0 -178 48 -250.5t152.5 -72.5t154.5 72.5t50 250.5v729h172q113 -1 149 57q16 24 15.5 67.5t-33.5 96.5l238 103q65 -75 65 -176z" />
    <glyph glyph-name="uhorn" unicode="&#x1b0;" horiz-adv-x="1183" 
d="M745 135q-133 -160 -305 -160t-250.5 109t-78.5 309v631h352v-586q0 -98 24.5 -131t75.5 -33t83 20.5t67 70.5v659h114q114 0 149 58q15 24 15 69.5t-33 93.5l238 103q66 -77 66 -176t-55.5 -161.5t-141.5 -90.5v-920h-287l-24 135h-9z" />
    <glyph glyph-name="uni01CD" unicode="&#x1cd;" horiz-adv-x="1196" 
d="M778 283h-372l-66 -283h-360l405 1331h426l406 -1331h-373zM715 555l-23 92q-25 96 -49 209q-25 113 -49 213h-8q-22 -102 -46 -214t-48 -208l-23 -92h246zM958 1688l-196 -254h-344l-197 254h266l99 -119h8l98 119h266z" />
    <glyph glyph-name="uni01CE" unicode="&#x1ce;" horiz-adv-x="1110" 
d="M422 319q0 -74 94 -73q43 0 71 19t56 50v140q-127 -17 -174 -55t-47 -81zM86 304q0 147 131 238t426 122q-12 106 -143 106q-98 0 -258 -86l-123 229q225 136 437 136t326 -114t113 -366v-569h-286l-25 98h-8q-136 -123 -279 -123q-142 0 -226 91q-85 91 -85 238z
M248 1491h233l99 -152h8l98 152h234l-197 -315h-279z" />
    <glyph glyph-name="uni01CF" unicode="&#x1cf;" horiz-adv-x="647" 
d="M147 1331h353v-1331h-353v1331zM692 1688l-196 -254h-344l-197 254h266l98 -119h9l98 119h266z" />
    <glyph glyph-name="uni01D0" unicode="&#x1d0;" horiz-adv-x="589" 
d="M119 1024h352v-1024h-352v1024zM-41 1491h234l98 -152h8l98 152h234l-197 -315h-278z" />
    <glyph glyph-name="uni01D1" unicode="&#x1d1;" horiz-adv-x="1417" 
d="M709 279q121 0 189 105q68 106 69 288q0 182 -69 281q-70 99 -190 99t-189 -98q-69 -100 -69 -282t69 -288q69 -105 190 -105zM708 -25q-138 -1 -252 47t-195 137t-126 219t-45 294q0 323 168 504q168 180 452 180t451 -182q166 -182 166 -504q0 -323 -171 -511
q-167 -184 -448 -184zM1077 1688l-196 -254h-344l-197 254h266l99 -119h8l98 119h266z" />
    <glyph glyph-name="uni01D2" unicode="&#x1d2;" horiz-adv-x="1146" 
d="M721 512q1 254 -147 254t-148 -254t148 -254t147 254zM66 511q0 245 150 392q150 146 356 146q207 0 358 -146t151 -390q0 -243 -151 -391q-152 -147 -358 -147q-207 0 -356 145q-150 146 -150 391zM238 1491h233l98 -152h9l98 152h233l-196 -315h-279z" />
    <glyph glyph-name="uni01D3" unicode="&#x1d3;" horiz-adv-x="1376" 
d="M139 1331h353v-729q0 -178 48 -251t152 -73t155 73q50 73 50 251v729h340v-688q0 -342 -133 -505t-413 -163t-416 163t-136 505v688zM1057 1688l-197 -254h-344l-197 254h267l98 -119h8l99 119h266z" />
    <glyph glyph-name="uni01D4" unicode="&#x1d4;" horiz-adv-x="1183" 
d="M111 393v631h352v-586q1 -98 25 -131t75 -33t83 20t67 71v659h352v-1024h-287l-24 135h-9q-132 -160 -303 -160t-251 109t-80 309zM258 1491h234l98 -152h8l98 152h234l-197 -315h-278z" />
    <glyph glyph-name="uni01D5" unicode="&#x1d5;" horiz-adv-x="1376" 
d="M139 1331h353v-729q0 -178 48 -251t152 -73t155 73q50 73 50 251v729h340v-688q0 -342 -133 -505t-413 -163t-416 163t-136 505v688zM901 1421q-61 0 -100 40q-39 39 -39 99t39 100t100 40t100 -40t39 -99t-39 -99t-100 -41zM475 1421q-61 0 -100 40q-39 39 -39 99
t39 100t100 40t100 -40t39 -99t-39 -99t-100 -41zM385 1954h606v-160h-606v160z" />
    <glyph glyph-name="uni01D6" unicode="&#x1d6;" horiz-adv-x="1183" 
d="M111 393v631h352v-586q1 -98 25 -131t75 -33t83 20t67 71v659h352v-1024h-287l-24 135h-9q-132 -160 -303 -160t-251 109t-80 309zM299 1712h590v-160h-590v160zM807 1155q-61 0 -100 40t-39 99q0 60 39 100t100 40t100 -40t39 -100t-39 -99q-39 -40 -100 -40zM381 1155
q-61 0 -100 40t-39 99q0 60 39 100t100 40t100 -40t39 -100t-39 -99q-39 -40 -100 -40z" />
    <glyph glyph-name="uni01D7" unicode="&#x1d7;" horiz-adv-x="1376" 
d="M139 1331h353v-729q0 -178 48 -251t152 -73t155 73q50 73 50 251v729h340v-688q0 -342 -133 -505t-413 -163t-416 163t-136 505v688zM901 1421q-61 0 -100 40q-39 39 -39 99t39 100t100 40t100 -40t39 -99t-39 -99t-100 -41zM475 1421q-61 0 -100 40q-39 39 -39 99
t39 100t100 40t100 -40t39 -99t-39 -99t-100 -41zM676 2015h364l-245 -254h-279z" />
    <glyph glyph-name="uni01D8" unicode="&#x1d8;" horiz-adv-x="1183" 
d="M111 393v631h352v-586q1 -98 25 -131t75 -33t83 20t67 71v659h352v-1024h-287l-24 135h-9q-132 -160 -303 -160t-251 109t-80 309zM807 1155q-61 0 -100 40t-39 99q0 60 39 100t100 40t100 -40t39 -100t-39 -99q-39 -40 -100 -40zM381 1155q-61 0 -100 40t-39 99
q0 60 39 100t100 40t100 -40t39 -100t-39 -99q-39 -40 -100 -40zM614 1757h295l-245 -233h-222z" />
    <glyph glyph-name="uni01D9" unicode="&#x1d9;" horiz-adv-x="1376" 
d="M139 1331h353v-729q0 -178 48 -251t152 -73t155 73q50 73 50 251v729h340v-688q0 -342 -133 -505t-413 -163t-416 163t-136 505v688zM1057 2015l-197 -254h-344l-197 254h267l98 -119h8l99 119h266zM901 1421q-61 0 -100 40q-39 39 -39 99t39 100t100 40t100 -40t39 -99
t-39 -99t-100 -41zM475 1421q-61 0 -100 40q-39 39 -39 99t39 100t100 40t100 -40t39 -99t-39 -99t-100 -41z" />
    <glyph glyph-name="uni01DA" unicode="&#x1da;" horiz-adv-x="1183" 
d="M111 393v631h352v-586q1 -98 25 -131t75 -33t83 20t67 71v659h352v-1024h-287l-24 135h-9q-132 -160 -303 -160t-251 109t-80 309zM807 1155q-61 0 -100 40t-39 99q0 60 39 100t100 40t100 -40t39 -100t-39 -99q-39 -40 -100 -40zM381 1155q-61 0 -100 40t-39 99
q0 60 39 100t100 40t100 -40t39 -100t-39 -99q-39 -40 -100 -40zM274 1757h234l82 -115h8l82 115h233l-172 -233h-295z" />
    <glyph glyph-name="uni01DB" unicode="&#x1db;" horiz-adv-x="1376" 
d="M139 1331h353v-729q0 -178 48 -251t152 -73t155 73q50 73 50 251v729h340v-688q0 -342 -133 -505t-413 -163t-416 163t-136 505v688zM475 1421q-61 0 -100 40q-39 39 -39 99t39 100t100 40t100 -40t39 -99t-39 -99t-100 -41zM901 1421q-61 0 -100 40q-39 39 -39 99
t39 100t100 40t100 -40t39 -99t-39 -99t-100 -41zM860 1761h-278l-246 254h364z" />
    <glyph glyph-name="uni01DC" unicode="&#x1dc;" horiz-adv-x="1183" 
d="M111 393v631h352v-586q1 -98 25 -131t75 -33t83 20t67 71v659h352v-1024h-287l-24 135h-9q-132 -160 -303 -160t-251 109t-80 309zM381 1155q-61 0 -100 40t-39 99q0 60 39 100t100 40t100 -40t39 -100t-39 -99q-39 -40 -100 -40zM807 1155q-61 0 -100 40t-39 99
q0 60 39 100t100 40t100 -40t39 -100t-39 -99q-39 -40 -100 -40zM745 1524h-221l-245 233h294z" />
    <glyph glyph-name="Gcaron" unicode="&#x1e6;" horiz-adv-x="1323" 
d="M799 279q66 0 102 24v184h-196v287h507v-635q-74 -67 -196 -115t-260 -48q-139 0 -260 41q-249 86 -354 340q-52 128 -52 297q0 328 195 515t477 187q142 0 248 -52t178 -124l-193 -217q-49 43 -99 67t-124 23q-141 0 -232 -104t-89 -281q0 -389 348 -389zM1130 1688
l-196 -254h-344l-197 254h266l99 -119h8l98 119h266z" />
    <glyph glyph-name="gcaron" unicode="&#x1e7;" horiz-adv-x="1118" 
d="M524 532q49 0 80 35t31 108t-31 107t-80 33q-49 0 -80 -34q-30 -35 -30 -107t30 -107t80 -35zM938 648q0 -74 -33 -139q-94 -185 -381 -185q-51 0 -114 14q-25 -22 -25 -58t33 -50t110 -13h154q193 0 298 -62t105 -204q0 -169 -161 -271t-445 -102t-383 136
q-35 48 -35 118q0 121 144 197v8q-96 68 -95 177q1 110 115 192v8q-55 36 -97 104t-42 160q0 179 128 275t310 96q90 0 164 -25h381v-254h-147q16 -48 16 -122zM348 -111q0 -94 201 -94q86 0 143 26q58 25 58 67t-36 52t-102 11h-80q-103 0 -147 12q-37 -37 -37 -74z
M188 1491h234l98 -152h8l99 152h233l-196 -315h-279z" />
    <glyph glyph-name="uni01EA" unicode="&#x1ea;" horiz-adv-x="1417" 
d="M708.5 279q120.5 0 189.5 105t69 287.5t-69 282t-189.5 99.5t-189 -99.5t-68.5 -282t68.5 -287.5t189 -105zM991 -389q-95 -78 -255 -78q-82 0 -155 52.5t-73 148.5q0 133 131 246q-257 24 -403 208t-146 495.5t168 492t451 180.5t450.5 -182t167.5 -502
q0 -392 -249 -576q-79 -58 -165 -99q-151 -70 -151 -169q0 -37 25.5 -53.5t55 -16.5t70.5 29z" />
    <glyph glyph-name="uni01EB" unicode="&#x1eb;" horiz-adv-x="1146" 
d="M573.5 766q-147.5 0 -147.5 -254t147.5 -254t147.5 254t-147.5 254zM836 -360q-91 -74 -247 -74q-75 0 -141.5 48t-66.5 157.5t113 210.5q-181 25 -304.5 168t-123.5 375.5t149.5 378t357 145.5t358 -146.5t150.5 -390.5q-1 -279 -199 -427q-62 -46 -136 -81
q-132 -61 -132 -164q0 -37 26 -53t59 -16t67 24z" />
    <glyph glyph-name="uni0218" unicode="&#x218;" horiz-adv-x="1155" 
d="M729 373q0 43 -39 66t-141 63l-166 69q-114 43 -192 140t-76 231q0 172 141 293t354 121q115 0 233 -43t210 -135l-176 -222q-140 97 -273 97t-133 -90q0 -47 52 -73t145 -61l161 -63q261 -102 261 -365q0 -177 -142 -302q-142 -124 -379 -124q-127 1 -261 47t-242 144
l200 242q165 -131 314 -130t149 95zM766 -246q0 -68 -32 -107q-95 -119 -357 -126l-25 135q72 6 118 20t46 50q0 25 -17 41t-65 28l66 123q150 -12 208 -54t58 -110z" />
    <glyph glyph-name="uni0219" unicode="&#x219;" horiz-adv-x="925" 
d="M545 295q0 36 -61 64q-28 13 -62 25t-111 45q-76 32 -125 80q-96 95 -96 208q0 149 113 241q113 91 293 91q127 0 218 -42t158 -94l-155 -208q-115 86 -207 86t-92 -58q0 -36 57 -61q27 -12 62 -24t77 -26q262 -95 258 -307q0 -148 -115 -244t-323 -96q-98 0 -208 39
t-189 105l156 217q139 -102 245 -102t107 61zM422 -274q0 48 -82 69l66 123q150 -12 208 -54t58 -110t-32 -107q-95 -119 -357 -126l-25 135q72 6 118 20t46 50z" />
    <glyph glyph-name="uni021A" unicode="&#x21a;" horiz-adv-x="1155" 
d="M401 1036h-352v295h1057v-295h-352v-1036h-353v1036zM766 -246q0 -68 -32 -107q-95 -119 -357 -126l-25 135q72 6 118 20t46 50q0 25 -17 41t-65 28l66 123q150 -12 208 -54t58 -110z" />
    <glyph glyph-name="uni021B" unicode="&#x21b;" horiz-adv-x="819" 
d="M164 750h-135v262l155 12l41 266h291v-266h234v-274h-234v-351q0 -85 37 -117t83 -32t93 16l53 -254q-122 -36 -231 -36q-201 -1 -295 111t-92 306v357zM688 -246q0 -68 -32 -107q-95 -119 -357 -126l-25 135q72 6 118 20t46 50q0 25 -17 41t-65 28l66 123
q150 -12 208 -54t58 -110z" />
    <glyph glyph-name="uni0237" unicode="&#x237;" horiz-adv-x="593" 
d="M20 -111q55 0 79 34t24 118v983h352v-971q1 -305 -205 -402q-76 -36 -191.5 -36t-193.5 29l62 258q50 -13 73 -13z" />
    <glyph glyph-name="uni0243" unicode="&#x243;" horiz-adv-x="1306" 
d="M1245 414q0 -203 -144.5 -308.5t-379.5 -105.5h-520v356h-152v152l152 12v811h479q504 0 504 -319q0 -137 -82 -190.5t-139 -67.5v-9q282 -58 282 -331zM553 827h119q86 0 131 39t45 100.5t-45 88t-131 26.5h-119v-254zM696 250q104 0 158.5 50t54.5 144t-54 136.5
t-159 42.5h-143v-103h238v-164h-238v-106h143z" />
    <glyph glyph-name="uni0251" unicode="&#x251;" horiz-adv-x="1187" 
d="M750 94q-118 -119 -272 -119q-82 0 -159 37t-131.5 106.5t-84 169t-29.5 224.5t36.5 225.5t97 169t137.5 105.5t155 37q144 0 258 -127h8l29 102h274v-1024h-287l-24 94h-8zM578 762q-55 0 -99.5 -55.5t-44.5 -190.5q0 -254 152 -254q41 0 71.5 15.5t59.5 58.5v377
q-52 49 -139 49z" />
    <glyph glyph-name="uni0259" unicode="&#x259;" horiz-adv-x="1077" 
d="M373 397q0 -66 29.5 -110.5t99 -44.5t113.5 32.5t61 122.5h-303zM139 930q177 119 387 119q209 0 348 -147q138 -147 138 -388t-144 -390t-355 -149q-210 0 -325 139q-114 139 -114 357q0 76 14 139h584q-23 98 -76 135t-144 37t-198 -61z" />
    <glyph glyph-name="uni0261" unicode="&#x261;" horiz-adv-x="1212" 
d="M604 762q-73 0 -117.5 -54.5t-44.5 -168t42 -169t114 -55.5q41 0 70.5 15.5t60.5 62.5v320q-52 49 -125 49zM504 33q-188 0 -303 140.5t-115 362t130.5 367.5t289.5 146t260 -119h8l25 94h282v-991q0 -205 -141 -309.5t-403 -104.5q-136 1 -292 65q-52 22 -98 50l115 229
q134 -69 255.5 -69t161.5 36.5t50 89.5l8 103q-98 -90 -233 -90z" />
    <glyph glyph-name="h.sups" unicode="&#x2b0;" horiz-adv-x="800" 
d="M516 1229q213 0 213 -283v-414h-246v386q0 55 -11 80.5t-47 25.5t-56.5 -14.5t-44.5 -36.5v-441h-246v943h246v-222l-17 -118q94 94 209 94z" />
    <glyph glyph-name="j.sups" unicode="&#x2b2;" horiz-adv-x="405" 
d="M204.5 1290q-59.5 0 -97 33t-37.5 86t37.5 86t97 33t97.5 -33t38 -86t-38 -86t-97.5 -33zM21 451q34 0 47.5 21.5t13.5 76.5v663h246v-655q0 -205 -96.5 -250t-173.5 -45t-132 17l41 180q20 -8 54 -8z" />
    <glyph glyph-name="r.sups" unicode="&#x2b3;" horiz-adv-x="581" 
d="M460 1016q-34 0 -73 -24.5t-63 -86.5v-373h-246v680h198l19 -118h4q77 135 193 135q54 0 90 -17l-41 -208q-47 12 -81 12z" />
    <glyph glyph-name="w.sups" unicode="&#x2b7;" horiz-adv-x="1099" 
d="M33 1212h241l50 -278l24 -209h6l35 209l70 278h192l74 -278l37 -209h6l27 209l49 278h223l-154 -680h-282l-49 230l-29 184h-4l-29 -184l-45 -230h-278z" />
    <glyph glyph-name="y.sups" unicode="&#x2b8;" horiz-adv-x="749" 
d="M184 287q-58 0 -106 12l41 180q24 -8 58 -8t58.5 18.5t34.5 47.5l9 24l-263 651h246l78 -254q16 -53 24.5 -96t20.5 -96h8q10 50 45 192l62 254h233l-225 -663q-60 -146 -127.5 -204t-196.5 -58z" />
    <glyph glyph-name="uni02B9" unicode="&#x2b9;" horiz-adv-x="655" 
d="M205 1401h352l-59 -332l-107 -405h-229z" />
    <glyph glyph-name="uni02BB" unicode="&#x2bb;" horiz-adv-x="655" 
d="M328 623q-217 0 -217 307t319 459l74 -152q-98 -43 -148 -105t-49 -155q6 2 21 2q74 0 125 -45t51 -127t-49 -133t-127 -51z" />
    <glyph glyph-name="uni02BC" unicode="&#x2bc;" horiz-adv-x="655" 
d="M328 1069q-74 0 -125 45t-51 127t49 133t127 51q215 0 216 -307t-319 -459l-73 152q98 43 147 105t49 155q-6 -2 -20 -2z" />
    <glyph glyph-name="uni02BE" unicode="&#x2be;" horiz-adv-x="348" 
d="M49 1253q66 0 88.5 25t22.5 65.5t-22.5 65.5t-88.5 25v127q145 6 212 -56.5t67 -161t-66.5 -161t-212.5 -56.5v127z" />
    <glyph glyph-name="uni02BF" unicode="&#x2bf;" horiz-adv-x="348" 
d="M299 1434q-66 0 -88.5 -25t-22.5 -65.5t22.5 -65.5t88.5 -25v-127q-145 -6 -212 56.5t-67 161t67 161t212 56.5v-127z" />
    <glyph glyph-name="circumflex" unicode="&#x2c6;" horiz-adv-x="1146" 
d="M434 1491h279l196 -315h-233l-98 151h-9l-98 -151h-233z" />
    <glyph glyph-name="caron" unicode="&#x2c7;" horiz-adv-x="1146" 
d="M238 1491h233l98 -152h9l98 152h233l-196 -315h-279z" />
    <glyph glyph-name="uni02C8" unicode="&#x2c8;" horiz-adv-x="327" 
d="M25 1536h278l-12 -426h-254z" />
    <glyph glyph-name="uni02C9" unicode="&#x2c9;" horiz-adv-x="655" 
d="M33 1425h590v-221h-590v221z" />
    <glyph glyph-name="uni02CA" unicode="&#x2ca;" horiz-adv-x="491" 
d="M319 1176h-253l180 315h336z" />
    <glyph glyph-name="uni02CB" unicode="&#x2cb;" horiz-adv-x="491" 
d="M-90 1491h336l180 -315h-254z" />
    <glyph glyph-name="uni02CC" unicode="&#x2cc;" horiz-adv-x="327" 
d="M291 -127l12 -426h-278l12 426h254z" />
    <glyph glyph-name="breve" unicode="&#x2d8;" horiz-adv-x="1146" 
d="M574 1176q-139 0 -215 81.5t-80 212.5h192q14 -106 102.5 -106t102.5 106h192q-6 -202 -166 -270q-54 -24 -128 -24z" />
    <glyph glyph-name="dotaccent" unicode="&#x2d9;" horiz-adv-x="1146" 
d="M573 1151q-84 0 -136 49t-52 127t52 127t136 49q85 0 137 -49t52 -127t-52 -127t-137 -49z" />
    <glyph glyph-name="ring" unicode="&#x2da;" horiz-adv-x="1146" 
d="M573 1253q33 0 56 25q23 26 23 66t-23 65t-56 25t-55 -25t-22 -66t22 -65t55 -25zM573 1126q-111 0 -179 60t-66 157q0 98 67 158q69 59 179 59t178 -58q68 -60 68 -158t-68 -158t-179 -60z" />
    <glyph glyph-name="ogonek" unicode="&#x2db;" horiz-adv-x="1146" 
d="M836 -360q-92 -74 -248 -74q-74 0 -141 48q-66 48 -66 156t100 199q25 23 43 35h189q-99 -80 -99 -164q0 -69 86 -69q34 0 66 24z" />
    <glyph glyph-name="tilde" unicode="&#x2dc;" horiz-adv-x="1146" 
d="M690 1389q24 0 39 18q16 18 29 68h176q-18 -158 -82 -229q-112 -125 -291 -27q-81 42 -104 42q-45 1 -68 -85h-176q17 158 81 228t136 71t130 -29t82 -44t48 -13z" />
    <glyph glyph-name="hungarumlaut" unicode="&#x2dd;" horiz-adv-x="1146" 
d="M803 1491h274l-200 -315h-213zM434 1491h275l-201 -315h-213z" />
    <glyph glyph-name="l.sups" unicode="&#x2e1;" horiz-adv-x="413" 
d="M295 516q-123 0 -170 73t-47 189v697h246v-705q0 -61 36 -61h8q7 0 17 4l29 -176q-48 -21 -119 -21z" />
    <glyph glyph-name="s.sups" unicode="&#x2e2;" horiz-adv-x="618" 
d="M342 1053q-55 0 -55 -37q0 -25 41 -38.5t80 -27.5q82 -31 132 -78.5t50 -136.5q0 -90 -75 -154.5t-222 -64.5q-66 0 -138.5 24.5t-125.5 65.5l102 152q96 -66 165 -66t69 37q0 25 -39.5 38t-81.5 31q-87 36 -135 84t-48 136t76.5 149.5t180.5 61.5t164.5 -27.5
t107.5 -62.5l-107 -144q-86 58 -141 58z" />
    <glyph glyph-name="x.sups" unicode="&#x2e3;" horiz-adv-x="745" 
d="M225 885l-196 327h262l98 -196h8l70 196h254l-197 -356l205 -324h-258l-49 91l-62 102h-8l-82 -193h-254z" />
    <glyph glyph-name="uni0300" unicode="&#x300;" 
d="M-336 1491h336l180 -315h-254z" />
    <glyph glyph-name="uni0301" unicode="&#x301;" 
d="M74 1176h-254l180 315h336z" />
    <glyph glyph-name="uni0302" unicode="&#x302;" 
d="M-139 1491h278l197 -315h-234l-98 151h-8l-98 -151h-234z" />
    <glyph glyph-name="uni0303" unicode="&#x303;" 
d="M116 1389q24 0 40 18t28 68h176q-18 -158 -81.5 -228.5t-138 -70.5t-129 29.5t-80 43t-48.5 13.5q-46 0 -67 -86h-176q18 158 81.5 228.5t137 70.5t129 -30t80 -43t48.5 -13z" />
    <glyph glyph-name="uni0304" unicode="&#x304;" 
d="M-295 1425h590v-221h-590v221z" />
    <glyph glyph-name="uni0306" unicode="&#x306;" 
d="M0 1364q88 0 102 106h193q-7 -200 -167 -270q-54 -24 -128 -24q-139 0 -215 82t-80 212h193q14 -106 102 -106z" />
    <glyph glyph-name="uni0307" unicode="&#x307;" 
d="M0 1151q-84 0 -136 49t-52 127t52 127t136 49t136 -49t52 -127t-52 -127t-136 -49z" />
    <glyph glyph-name="uni0308" unicode="&#x308;" 
d="M213 1155q-72 0 -116 46t-44 113.5t44 114t116 46.5t116 -46.5t44 -114t-44 -113.5t-116 -46zM-213 1155q-72 0 -116 46t-44 113.5t44 114t116 46.5t116 -46.5t44 -114t-44 -113.5t-116 -46z" />
    <glyph glyph-name="uni0309" unicode="&#x309;" 
d="M-20 1328q0 49 -160 61l41 172q298 -11 351 -121q17 -35 17 -83q0 -96 -87 -153t-220 -61l-24 135q82 10 82 50z" />
    <glyph glyph-name="uni030A" unicode="&#x30a;" 
d="M0 1253q33 0 55.5 25t22.5 65.5t-22.5 65.5t-55.5 25t-55.5 -25t-22.5 -65.5t22.5 -65.5t55.5 -25zM0 1126q-111 0 -178.5 59.5t-67.5 158t67.5 158t178.5 59.5t178.5 -59.5t67.5 -158t-67.5 -158t-178.5 -59.5z" />
    <glyph glyph-name="uni030B" unicode="&#x30b;" 
d="M229 1491h275l-201 -315h-213zM-139 1491h274l-201 -315h-213z" />
    <glyph glyph-name="uni030C" unicode="&#x30c;" 
d="M-336 1491h234l98 -152h8l98 152h234l-197 -315h-278z" />
    <glyph glyph-name="uni030F" unicode="&#x30f;" 
d="M-90 1176h-213l-201 315h275zM279 1176h-213l-201 315h274z" />
    <glyph glyph-name="uni0312" unicode="&#x312;" 
d="M-2 1356q47 0 82 -31t35 -87t-35 -90t-84 -34q-148 0 -148 187t218 268l49 -103q-118 -37 -133 -112q6 2 16 2z" />
    <glyph glyph-name="uni0313" unicode="&#x313;" 
d="M-6 1319q-47 0 -82 30.5t-35 87t35 90.5t84 34q147 0 147 -187t-217 -268l-49 102q118 37 133 113q-6 -2 -16 -2z" />
    <glyph glyph-name="uni031B" unicode="&#x31b;" 
d="M373 1165q0 -149 -105.5 -221t-263.5 -76l-24 136q51 10 86.5 33.5t35.5 78.5t-32 109l237 102q66 -76 66 -162z" />
    <glyph glyph-name="uni0323" unicode="&#x323;" 
d="M0 -479q-84 0 -136 49t-52 127t52 127t136 49t136 -49t52 -127t-52 -127t-136 -49z" />
    <glyph glyph-name="uni0324" unicode="&#x324;" 
d="M213 -455q-72 0 -116 46.5t-44 114t44 113.5t116 46t116 -46t44 -113.5t-44 -114t-116 -46.5zM-213 -455q-72 0 -116 46.5t-44 114t44 113.5t116 46t116 -46t44 -113.5t-44 -114t-116 -46.5z" />
    <glyph glyph-name="uni0326" unicode="&#x326;" 
d="M188 -245.5q0 -67.5 -32 -107.5q-94 -119 -357 -126l-24 135q72 6 118 20.5t46 49.5q0 25 -17.5 41t-64.5 28l65 123q150 -12 208 -54t58 -109.5z" />
    <glyph glyph-name="uni0327" unicode="&#x327;" 
d="M70 -82q118 -40 118 -149t-111 -167q-111 -57 -278 -61l-24 135q164 14 164 86q0 23 -21.5 43.5t-93.5 38.5l82 164h200z" />
    <glyph glyph-name="uni0328" unicode="&#x328;" 
d="M262 -360q-90 -74 -246 -74q-74 0 -141.5 48t-67.5 136.5t47 155t97 98.5h188q-98 -80 -98 -164q0 -69 86 -69q35 0 66 24z" />
    <glyph glyph-name="uni032E" unicode="&#x32e;" 
d="M0 -434q-139 0 -215 82t-80 213h193q14 -107 102 -107t102 107h193q-7 -201 -167 -271q-54 -24 -128 -24z" />
    <glyph glyph-name="uni0331" unicode="&#x331;" 
d="M295 -401h-590v221h590v-221z" />
    <glyph glyph-name="pi" unicode="&#x3c0;" horiz-adv-x="1277" 
d="M741 360v390h-182l-2 -750h-348v750h-176v262l155 12h1037v-274h-131v-402q0 -53 19.5 -71.5t33.5 -18.5h15q14 0 26 4l41 -258q-70 -29 -166 -29q-176 0 -249 100.5t-73 284.5z" />
    <glyph glyph-name="a.sups" unicode="&#x1d43;" horiz-adv-x="745" 
d="M287 745q0 -45 59 -45q39 0 80 41v90q-139 -17 -139 -86zM446 598q-82 -82 -180 -82t-155.5 61.5t-57.5 159.5q0 97 87 156t286 78q-8 65 -85 65t-181 -57l-86 160q155 90 297 90q143 0 222 -76t79 -240v-381h-197l-20 66h-9z" />
    <glyph glyph-name="b.sups" unicode="&#x1d47;" horiz-adv-x="798" 
d="M410 1032q-46 0 -86 -45v-250q91 -65 133.5 -9t42.5 153q0 151 -90 151zM78 532v943h246v-220l-9 -96q74 70 182 70q107 0 180 -97t73 -258t-84.5 -259.5t-194.5 -98.5q-109 0 -176 90h-8l-21 -74h-188z" />
    <glyph glyph-name="d.sups" unicode="&#x1d48;" horiz-adv-x="798" 
d="M299 885q0 -176 98 -176q51 0 78 49v246q-41 32 -80 32t-67.5 -35.5t-28.5 -115.5zM328 516q-129 0 -204 96.5t-75 260.5t85.5 260t187.5 96t165 -70l-12 107v209h246v-943h-201l-16 62h-4q-78 -78 -172 -78z" />
    <glyph glyph-name="e.sups" unicode="&#x1d49;" horiz-adv-x="716" 
d="M471 942q0 102 -92 102q-85 0 -105 -102h197zM655 594q-112 -78 -259 -78t-249 96.5t-102 257.5t97.5 260t239.5 99t218 -93.5t76 -238.5q0 -46 -12 -90h-385q16 -66 58 -86.5t109 -20.5t127 37z" />
    <glyph glyph-name="g.sups" unicode="&#x1d4d;" horiz-adv-x="753" 
d="M420 979q0 90 -49 90t-68.5 -21.5t-19.5 -68.5t19.5 -68.5t68.5 -21.5t49 90zM362 745q-48 0 -83 9q-17 -16 -17 -38t20.5 -29t73.5 -7h103q133 0 201.5 -41t68.5 -143t-106.5 -172t-301.5 -70t-237.5 60.5t-42.5 107.5q0 84 94 127v8q-61 38 -61 114t76 128v8
q-39 23 -67 68t-28 106q0 120 88 184t209 64q72 0 111 -17h254v-176h-94q8 -20 8 -72t-22.5 -95.5t-60.5 -71t-88 -40t-98 -12.5zM356 500q-63 0 -94 8q-24 -25 -24 -45q0 -62 131 -62q55 0 91 16.5t36 41.5t-21.5 33t-64.5 8h-54z" />
    <glyph glyph-name="k.sups" unicode="&#x1d4f;" horiz-adv-x="786" 
d="M78 1475h246v-496h8l172 233h262l-250 -290l262 -390h-262l-135 234l-57 -70v-164h-246v943z" />
    <glyph glyph-name="m.sups" unicode="&#x1d50;" horiz-adv-x="1196" 
d="M504 1229q131 0 190 -111q41 43 90.5 77t120.5 34q115 0 168 -77t53 -206v-414h-245v386q0 55 -14.5 80.5t-53.5 25.5t-88 -49v-443h-246v386q0 55 -14 80.5t-53 25.5t-88 -49v-443h-246v680h198l19 -86h4q41 41 87 72t118 31z" />
    <glyph glyph-name="o.sups" unicode="&#x1d52;" horiz-adv-x="770" 
d="M385 709q51 0 70.5 44.5t19.5 118.5t-19.5 119t-70.5 45t-70.5 -45t-19.5 -120t19.5 -118.5t70.5 -43.5zM385 516q-66 0 -127 23.5t-108.5 69.5t-76 111.5t-28.5 149.5t28.5 150.5t76 113t108.5 71t127 24.5t127 -24.5t108.5 -71t76 -113t28.5 -150.5t-28.5 -149.5
t-76 -111.5t-108.5 -69.5t-127 -23.5z" />
    <glyph glyph-name="p.sups" unicode="&#x1d56;" horiz-adv-x="798" 
d="M410 1032q-46 0 -86 -45v-250q91 -65 133.5 -9t42.5 153q0 151 -90 151zM78 1212h196l17 -65h4q35 35 87 58.5t106 23.5q116 0 189 -97t73 -258t-84.5 -259.5t-184.5 -98.5t-170 70l13 -140v-184h-246v950z" />
    <glyph glyph-name="t.sups" unicode="&#x1d57;" horiz-adv-x="552" 
d="M365 516q-135 0 -194.5 78t-59.5 205v225h-91v180l103 8l29 172h204v-172h152v-188h-152v-221q0 -55 23.5 -76.5t56.5 -21.5t56 8l40 -172q-77 -25 -167 -25z" />
    <glyph glyph-name="u.sups" unicode="&#x1d58;" horiz-adv-x="794" 
d="M286 516q-112 0 -164 75t-52 202v419h245v-389q0 -55 11.5 -78.5t58.5 -23.5t90 49v442h246v-680h-197l-24 82h-4q-98 -98 -210 -98z" />
    <glyph glyph-name="v.sups" unicode="&#x1d5b;" horiz-adv-x="753" 
d="M16 1212h242l123 -503h4l119 503h233l-217 -680h-282z" />
    <glyph glyph-name="c.sups" unicode="&#x1d9c;" horiz-adv-x="647" 
d="M623 594q-94 -78 -243 -78q-148 0 -241.5 95.5t-93.5 258.5t102.5 261t249.5 98q80 0 136.5 -22.5t80.5 -47.5l-110 -155q-39 32 -88 32t-85 -45t-36 -118.5t33.5 -118.5t92.5 -45t103 41z" />
    <glyph glyph-name="f.sups" unicode="&#x1da0;" horiz-adv-x="499" 
d="M434 1319q-69 0 -69 -98v-9h112v-188h-112v-492h-246v492h-90v180l90 6v2q0 203 100 249t183 46t143 -24l-45 -172q-24 8 -66 8z" />
    <glyph glyph-name="z.sups" unicode="&#x1dbb;" horiz-adv-x="655" 
d="M86 1024v188h528v-131l-256 -360h265v-189h-570v132l258 360h-225z" />
    <glyph glyph-name="uni1E06" unicode="&#x1e06;" horiz-adv-x="1253" 
d="M643 270q205 0 205 152q0 74 -50 106t-155 33h-143v-291h143zM618 807q86 0 127 39t41 100t-41 88t-127 27h-118v-254h118zM909 705q283 -59 283 -297q0 -118 -42 -192q-121 -216 -482 -216h-521v1331h480q233 0 356 -67q149 -81 147 -265q0 -152 -121 -241
q-42 -31 -100 -45v-8zM950 -401h-590v221h590v-221z" />
    <glyph glyph-name="uni1E07" unicode="&#x1e07;" horiz-adv-x="1187" 
d="M593 262q70 0 116 57q45 57 45 195t-36 192q-36 56 -110 56t-137 -74v-377q52 -49 122 -49zM119 0v1425h352v-331l-8 -148q111 103 252 103q181 0 290 -142t109 -386q0 -243 -126 -395q-126 -151 -300 -151q-140 0 -258 136h-8l-29 -111h-274zM903 -401h-590v221h590
v-221z" />
    <glyph glyph-name="uni1E0C" unicode="&#x1e0c;" horiz-adv-x="1314" 
d="M520 283q161 0 245 77q101 94 99 312q0 312 -209 361q-63 15 -135 16h-20v-766h20zM147 1331h394q488 0 634 -358q50 -125 50 -301q0 -341 -181 -506q-181 -166 -483 -166h-414v1331zM647 -479q-84 0 -136 49t-52 127t52 127t136 49t136 -49q53 -49 53 -127t-52 -127
t-137 -49z" />
    <glyph glyph-name="uni1E0D" unicode="&#x1e0d;" horiz-adv-x="1187" 
d="M578 762q-55 0 -100 -55q-44 -56 -44 -193q0 -252 152 -252q81 0 131 74v377q-52 49 -139 49zM750 94q-118 -119 -272 -119q-82 0 -160 37q-154 74 -215 276q-29 99 -29 224t36 225t94 169t134 106t157 37t134 -28t100 -75l-12 148v331h352v-1425h-287l-24 94h-8z
M647 -479q-84 0 -136 49t-52 127t52 127t136 49t136 -49q53 -49 53 -127t-52 -127t-137 -49z" />
    <glyph glyph-name="uni1E0E" unicode="&#x1e0e;" horiz-adv-x="1314" 
d="M520 283q161 0 245 77q101 94 99 312q0 312 -209 361q-63 15 -135 16h-20v-766h20zM147 1331h394q488 0 634 -358q50 -125 50 -301q0 -341 -181 -506q-181 -166 -483 -166h-414v1331zM942 -401h-590v221h590v-221z" />
    <glyph glyph-name="uni1E0F" unicode="&#x1e0f;" horiz-adv-x="1187" 
d="M578 762q-55 0 -100 -55q-44 -56 -44 -193q0 -252 152 -252q81 0 131 74v377q-52 49 -139 49zM750 94q-118 -119 -272 -119q-82 0 -160 37q-154 74 -215 276q-29 99 -29 224t36 225t94 169t134 106t157 37t134 -28t100 -75l-12 148v331h352v-1425h-287l-24 94h-8z
M942 -401h-590v221h590v-221z" />
    <glyph glyph-name="uni1E16" unicode="&#x1e16;" horiz-adv-x="1138" 
d="M147 1331h861v-295h-508v-209h434v-295h-434v-237h528v-295h-881v1331zM291 1688h606v-222h-606v222zM582 2015h364l-246 -254h-278z" />
    <glyph glyph-name="uni1E17" unicode="&#x1e17;" horiz-adv-x="1077" 
d="M705 627q0 67 -30 111q-29 44 -99 44t-114 -34t-61 -121h304zM967 94q-169 -119 -387 -119q-100 0 -195 36q-197 74 -279 274q-40 100 -40 226q0 238 147 388t354 150t322 -142t115 -354q0 -72 -15 -139h-583q25 -98 88 -135t155 -37t203 61zM262 1425h590v-221h-590v221
zM578 1757h294l-245 -233h-221z" />
    <glyph glyph-name="uni1E20" unicode="&#x1e20;" horiz-adv-x="1323" 
d="M799 279q66 0 102 24v184h-196v287h507v-635q-74 -67 -196 -115t-260 -48q-139 0 -260 41q-249 86 -354 340q-52 128 -52 297q0 328 195 515t477 187q142 0 248 -52t178 -124l-193 -217q-49 43 -99 67t-124 23q-141 0 -232 -104t-89 -281q0 -389 348 -389zM459 1688h606
v-222h-606v222z" />
    <glyph glyph-name="uni1E21" unicode="&#x1e21;" horiz-adv-x="1118" 
d="M524 532q49 0 80 35t31 108t-31 107t-80 33q-49 0 -80 -34q-30 -35 -30 -107t30 -107t80 -35zM938 648q0 -74 -33 -139q-94 -185 -381 -185q-51 0 -114 14q-25 -22 -25 -58t33 -50t110 -13h154q193 0 298 -62t105 -204q0 -169 -161 -271t-445 -102t-383 136
q-35 48 -35 118q0 121 144 197v8q-96 68 -95 177q1 110 115 192v8q-55 36 -97 104t-42 160q0 179 128 275t310 96q90 0 164 -25h381v-254h-147q16 -48 16 -122zM348 -111q0 -94 201 -94q86 0 143 26q58 25 58 67t-36 52t-102 11h-80q-103 0 -147 12q-37 -37 -37 -74z
M229 1425h590v-221h-590v221z" />
    <glyph glyph-name="uni1E24" unicode="&#x1e24;" horiz-adv-x="1396" 
d="M147 1331h353v-495h397v495h352v-1331h-352v528h-397v-528h-353v1331zM696 -479q-84 0 -136 49t-52 127t52 127t136 49t136 -49t53 -127q-1 -78 -53 -127t-136 -49z" />
    <glyph glyph-name="uni1E25" unicode="&#x1e25;" horiz-adv-x="1191" 
d="M119 1425h352v-331l-16 -176q53 47 128 89t179 42q168 0 244 -114t75 -304v-631h-352v586q0 98 -24 131q-25 33 -76 33t-84 -20t-74 -58v-672h-352v1425zM606 -479q-84 0 -136 49t-52 127t52 127t136 49t136 -49t52 -127t-52 -127t-136 -49z" />
    <glyph glyph-name="uni1E2A" unicode="&#x1e2a;" horiz-adv-x="1396" 
d="M147 1331h353v-495h397v495h352v-1331h-352v528h-397v-528h-353v1331zM696 -434q-139 0 -213 81q-75 81 -82 214h193q14 -107 102 -107q89 0 103 107h192q-7 -201 -167 -272q-54 -23 -128 -23z" />
    <glyph glyph-name="uni1E2B" unicode="&#x1e2b;" horiz-adv-x="1191" 
d="M119 1425h352v-331l-16 -176q53 47 128 89t179 42q168 0 244 -114t75 -304v-631h-352v586q0 98 -24 131q-25 33 -76 33t-84 -20t-74 -58v-672h-352v1425zM606 -434q-139 0 -213 81q-75 81 -82 214h193q14 -107 102 -107q89 0 103 107h192q-7 -201 -167 -272
q-54 -23 -128 -23z" />
    <glyph glyph-name="uni1E34" unicode="&#x1e34;" horiz-adv-x="1286" 
d="M147 1331h353v-495h8l336 495h385l-398 -540l476 -791h-385l-295 512l-127 -180v-332h-353v1331zM979 -401h-590v221h590v-221z" />
    <glyph glyph-name="uni1E35" unicode="&#x1e35;" horiz-adv-x="1163" 
d="M119 1425h344v-757h8l283 356h381l-365 -426l385 -598h-381l-205 365l-106 -119v-246h-344v1425zM918 -401h-590v221h590v-221z" />
    <glyph glyph-name="uni1E36" unicode="&#x1e36;" horiz-adv-x="1085" 
d="M147 1331h353v-1036h504v-295h-857v1331zM596 -479q-84 0 -136 49t-52 127t52 127t136 49t136 -49t52 -127t-52 -127t-136 -49z" />
    <glyph glyph-name="uni1E37" unicode="&#x1e37;" horiz-adv-x="610" 
d="M119 360v1065h352v-1077q0 -54 19 -72q20 -18 34 -18h22q7 0 19 4l41 -258q-66 -27 -164 -28q-259 -2 -308 228q-15 71 -15 156zM406 -479q-84 0 -137 49q-52 49 -52 127t52 127q53 49 137 49t136 -49t52 -127t-52 -127t-136 -49z" />
    <glyph glyph-name="uni1E38" unicode="&#x1e38;" horiz-adv-x="1085" 
d="M147 1331h353v-1036h504v-295h-857v1331zM29 1688h606v-222h-606v222zM596 -479q-84 0 -136 49t-52 127t52 127t136 49t136 -49t52 -127t-52 -127t-136 -49z" />
    <glyph glyph-name="uni1E39" unicode="&#x1e39;" horiz-adv-x="610" 
d="M119 360v1065h352v-1077q0 -54 19 -72q20 -18 34 -18h22q7 0 19 4l41 -258q-66 -27 -164 -28q-259 -2 -308 228q-15 71 -15 156zM-2 1851h590v-221h-590v221zM406 -479q-84 0 -137 49q-52 49 -52 127t52 127q53 49 137 49t136 -49t52 -127t-52 -127t-136 -49z" />
    <glyph glyph-name="uni1E3A" unicode="&#x1e3a;" horiz-adv-x="1085" 
d="M147 1331h353v-1036h504v-295h-857v1331zM891 -401h-590v221h590v-221z" />
    <glyph glyph-name="uni1E3B" unicode="&#x1e3b;" horiz-adv-x="610" 
d="M119 360v1065h352v-1077q0 -54 19 -72q20 -18 34 -18h22q7 0 19 4l41 -258q-66 -27 -164 -28q-259 -2 -308 228q-15 71 -15 156zM700 -401h-589v221h589v-221z" />
    <glyph glyph-name="uni1E42" unicode="&#x1e42;" horiz-adv-x="1589" 
d="M471 393v-393h-324v1331h365l209 -553l74 -217h8l74 217l200 553h365v-1331h-328v393q0 155 20 290q20 136 25 185h-8l-111 -311l-184 -448h-131l-184 448l-107 311h-8q45 -367 45 -475zM799 -479q-84 0 -136 49t-53 127q0 78 52 127t137 49q84 0 136 -49t52 -127
t-52 -127t-136 -49z" />
    <glyph glyph-name="uni1E43" unicode="&#x1e43;" horiz-adv-x="1777" 
d="M745 1049q201 0 283 -164q63 67 137 115t178 49q168 0 246 -114t78 -304v-631h-352v586q0 98 -25 131q-24 33 -84 33t-137 -78v-672h-352v586q0 98 -25 131q-24 33 -84 33t-137 -78v-672h-352v1024h287l24 -125h8q61 59 132 105t175 45zM909 -479q-84 0 -136 49t-52 127
t52 127t136 49q85 0 137 -49t52 -127t-52 -127t-137 -49z" />
    <glyph glyph-name="uni1E44" unicode="&#x1e44;" horiz-adv-x="1376" 
d="M147 1331h361l295 -594l127 -299h8q-6 53 -26 208t-19 300v385h336v-1331h-361l-295 596l-127 297h-8q12 -115 28 -250t17 -258v-385h-336v1331zM688 1425q-86 -1 -141 49t-55 128t55 127t141 49t141 -49t55 -127t-54 -128q-56 -50 -142 -49z" />
    <glyph glyph-name="uni1E45" unicode="&#x1e45;" horiz-adv-x="1191" 
d="M761 1049q169 0 245 -114t75 -304v-631h-352v586q0 98 -24 131q-25 33 -76 33t-84 -20t-74 -58v-672h-352v1024h287l24 -123h8q154 148 323 148zM643 1151q-84 0 -136 49t-52 127t52 127t136 49t136 -49t52 -127t-52 -127t-136 -49z" />
    <glyph glyph-name="uni1E46" unicode="&#x1e46;" horiz-adv-x="1376" 
d="M147 1331h361l295 -594l127 -299h8q-6 53 -26 208t-19 300v385h336v-1331h-361l-295 596l-127 297h-8q12 -115 28 -250t17 -258v-385h-336v1331zM717 -479q-84 0 -136 49t-53 127q0 78 52 127t137 49q84 0 136 -49t52 -127t-52 -127t-136 -49z" />
    <glyph glyph-name="uni1E47" unicode="&#x1e47;" horiz-adv-x="1191" 
d="M761 1049q169 0 245 -114t75 -304v-631h-352v586q0 98 -24 131q-25 33 -76 33t-84 -20t-74 -58v-672h-352v1024h287l24 -123h8q154 148 323 148zM606 -479q-84 0 -136 49t-52 127t52 127t136 49t136 -49t52 -127t-52 -127t-136 -49z" />
    <glyph glyph-name="uni1E48" unicode="&#x1e48;" horiz-adv-x="1376" 
d="M147 1331h361l295 -594l127 -299h8q-6 53 -26 208t-19 300v385h336v-1331h-361l-295 596l-127 297h-8q12 -115 28 -250t17 -258v-385h-336v1331zM1012 -401h-590v221h590v-221z" />
    <glyph glyph-name="uni1E49" unicode="&#x1e49;" horiz-adv-x="1191" 
d="M761 1049q169 0 245 -114t75 -304v-631h-352v586q0 98 -24 131q-25 33 -76 33t-84 -20t-74 -58v-672h-352v1024h287l24 -123h8q154 148 323 148zM901 -401h-590v221h590v-221z" />
    <glyph glyph-name="uni1E52" unicode="&#x1e52;" horiz-adv-x="1417" 
d="M709 279q121 0 189 105q68 106 69 288q0 182 -69 281q-70 99 -190 99t-189 -98q-69 -100 -69 -282t69 -288q69 -105 190 -105zM708 -25q-138 -1 -252 47t-195 137t-126 219t-45 294q0 323 168 504q168 180 452 180t451 -182q166 -182 166 -504q0 -323 -171 -511
q-167 -184 -448 -184zM406 1688h606v-222h-606v222zM696 2015h365l-246 -254h-278z" />
    <glyph glyph-name="uni1E53" unicode="&#x1e53;" horiz-adv-x="1146" 
d="M721 512q1 254 -147 254t-148 -254t148 -254t147 254zM66 511q0 245 150 392q150 146 356 146q207 0 358 -146t151 -390q0 -243 -151 -391q-152 -147 -358 -147q-207 0 -356 145q-150 146 -150 391zM279 1425h589v-221h-589v221zM594 1757h295l-246 -233h-221z" />
    <glyph glyph-name="uni1E5A" unicode="&#x1e5a;" horiz-adv-x="1290" 
d="M1184 901q0 -267 -215 -385l288 -516h-393l-229 446h-135v-446h-353v1331h504q375 0 490 -222q43 -83 43 -208zM500 725h127q213 0 213 176q0 86 -54 119t-159 33h-127v-328zM684 -479q-84 0 -136 49t-52 127t52 127t136 49t136 -49t52 -127t-52 -127t-136 -49z" />
    <glyph glyph-name="uni1E5B" unicode="&#x1e5b;" horiz-adv-x="856" 
d="M675 741q-47 0 -107 -38t-97 -134v-569h-352v1024h287l24 -176h8q57 104 136 152q111 68 231 43q29 -5 51 -15l-57 -303q-78 16 -124 16zM295 -479q-84 0 -136 49t-53 127q0 78 52 127t137 49q84 0 136 -49t52 -127t-52 -127t-136 -49z" />
    <glyph glyph-name="uni1E5C" unicode="&#x1e5c;" horiz-adv-x="1290" 
d="M1184 901q0 -267 -215 -385l288 -516h-393l-229 446h-135v-446h-353v1331h504q375 0 490 -222q43 -83 43 -208zM500 725h127q213 0 213 176q0 86 -54 119t-159 33h-127v-328zM344 1688h606v-222h-606v222zM684 -479q-84 0 -136 49t-52 127t52 127t136 49t136 -49t52 -127
t-52 -127t-136 -49z" />
    <glyph glyph-name="uni1E5D" unicode="&#x1e5d;" horiz-adv-x="856" 
d="M675 741q-47 0 -107 -38t-97 -134v-569h-352v1024h287l24 -176h8q57 104 136 152q111 68 231 43q29 -5 51 -15l-57 -303q-78 16 -124 16zM233 1425h590v-221h-590v221zM295 -479q-84 0 -136 49t-53 127q0 78 52 127t137 49q84 0 136 -49t52 -127t-52 -127t-136 -49z" />
    <glyph glyph-name="uni1E5E" unicode="&#x1e5e;" horiz-adv-x="1290" 
d="M1184 901q0 -267 -215 -385l288 -516h-393l-229 446h-135v-446h-353v1331h504q375 0 490 -222q43 -83 43 -208zM500 725h127q213 0 213 176q0 86 -54 119t-159 33h-127v-328zM979 -401h-590v221h590v-221z" />
    <glyph glyph-name="uni1E5F" unicode="&#x1e5f;" horiz-adv-x="856" 
d="M675 741q-47 0 -107 -38t-97 -134v-569h-352v1024h287l24 -176h8q57 104 136 152q111 68 231 43q29 -5 51 -15l-57 -303q-78 16 -124 16zM590 -401h-590v221h590v-221z" />
    <glyph glyph-name="uni1E60" unicode="&#x1e60;" horiz-adv-x="1155" 
d="M729 373q0 43 -39 66t-141 63l-166 69q-114 43 -192 140t-76 231q0 172 141 293t354 121q115 0 233 -43t210 -135l-176 -222q-140 97 -273 97t-133 -90q0 -47 52 -73t145 -61l161 -63q261 -102 261 -365q0 -177 -142 -302q-142 -124 -379 -124q-127 1 -261 47t-242 144
l200 242q165 -131 314 -130t149 95zM606 1425q-86 -1 -141 49t-55 128t55 127t141 49t142 -49t55 -127q1 -78 -55 -128t-142 -49z" />
    <glyph glyph-name="uni1E61" unicode="&#x1e61;" horiz-adv-x="925" 
d="M545 295q0 36 -61 64q-28 13 -62 25t-111 45q-76 32 -125 80q-96 95 -96 208q0 149 113 241q113 91 293 91q127 0 218 -42t158 -94l-155 -208q-115 86 -207 86t-92 -58q0 -36 57 -61q27 -12 62 -24t77 -26q262 -95 258 -307q0 -148 -115 -244t-323 -96q-98 0 -208 39
t-189 105l156 217q139 -102 245 -102t107 61zM496 1151q-84 0 -137 49q-52 49 -52 127t52 127q53 49 137 49t136 -49t52 -127t-52 -127t-136 -49z" />
    <glyph glyph-name="uni1E62" unicode="&#x1e62;" horiz-adv-x="1155" 
d="M729 373q0 43 -39 66t-141 63l-166 69q-114 43 -192 140t-76 231q0 172 141 293t354 121q115 0 233 -43t210 -135l-176 -222q-140 97 -273 97t-133 -90q0 -47 52 -73t145 -61l161 -63q261 -102 261 -365q0 -177 -142 -302q-142 -124 -379 -124q-127 1 -261 47t-242 144
l200 242q165 -131 314 -130t149 95zM578 -479q-84 0 -137 49q-52 49 -52 127t52 127q53 49 137 49t136 -49t52 -127t-52 -127t-136 -49z" />
    <glyph glyph-name="uni1E63" unicode="&#x1e63;" horiz-adv-x="925" 
d="M545 295q0 36 -61 64q-28 13 -62 25t-111 45q-76 32 -125 80q-96 95 -96 208q0 149 113 241q113 91 293 91q127 0 218 -42t158 -94l-155 -208q-115 86 -207 86t-92 -58q0 -36 57 -61q27 -12 62 -24t77 -26q262 -95 258 -307q0 -148 -115 -244t-323 -96q-98 0 -208 39
t-189 105l156 217q139 -102 245 -102t107 61zM483 -479q-84 0 -136 49t-52 127t52 127t136 49q85 0 137 -49t52 -127t-52 -127t-137 -49z" />
    <glyph glyph-name="uni1E6C" unicode="&#x1e6c;" horiz-adv-x="1155" 
d="M401 1036h-352v295h1057v-295h-352v-1036h-353v1036zM578 -479q-84 0 -137 49q-52 49 -52 127t52 127q53 49 137 49t136 -49t52 -127t-52 -127t-136 -49z" />
    <glyph glyph-name="uni1E6D" unicode="&#x1e6d;" horiz-adv-x="819" 
d="M164 750h-135v262l155 12l41 266h291v-266h234v-274h-234v-351q0 -85 37 -117t83 -32t93 16l53 -254q-122 -36 -231 -36q-201 -1 -295 111t-92 306v357zM500 -479q-84 0 -136 49t-53 127q1 78 53 127t136 49t136 -49t52 -127t-52 -127t-136 -49z" />
    <glyph glyph-name="uni1E6E" unicode="&#x1e6e;" horiz-adv-x="1155" 
d="M401 1036h-352v295h1057v-295h-352v-1036h-353v1036zM872 -401h-589v221h589v-221z" />
    <glyph glyph-name="uni1E6F" unicode="&#x1e6f;" horiz-adv-x="819" 
d="M164 750h-135v262l155 12l41 266h291v-266h234v-274h-234v-351q0 -85 37 -117t83 -32t93 16l53 -254q-122 -36 -231 -36q-201 -1 -295 111t-92 306v357zM795 -401h-590v221h590v-221z" />
    <glyph glyph-name="Wgrave" unicode="&#x1e80;" horiz-adv-x="1687" 
d="M20 1331h361l74 -581q10 -104 22 -208t23 -210h8q36 208 74 418l127 581h295l126 -581q18 -100 36 -206t38 -212h8q10 106 22 210t23 208l74 581h336l-221 -1331h-447l-102 528q-20 98 -49 312h-8q-29 -214 -49 -312l-99 -528h-438zM487 1688h369l160 -254h-279z" />
    <glyph glyph-name="wgrave" unicode="&#x1e81;" horiz-adv-x="1634" 
d="M49 1024h348l78 -430q13 -78 21 -155t20 -156h8q31 205 58 311l94 430h299l98 -430q17 -78 31 -155t31 -156h8q12 81 20 157t21 154l78 430h323l-233 -1024h-410l-74 356l-24 144t-25 157h-8q-27 -190 -45 -301l-70 -356h-401zM483 1491h336l180 -315h-254z" />
    <glyph glyph-name="Wacute" unicode="&#x1e82;" horiz-adv-x="1687" 
d="M20 1331h361l74 -581q10 -104 22 -208t23 -210h8q36 208 74 418l127 581h295l126 -581q18 -100 36 -206t38 -212h8q10 106 22 210t23 208l74 581h336l-221 -1331h-447l-102 528q-20 98 -49 312h-8q-29 -214 -49 -312l-99 -528h-438zM950 1434h-278l159 254h369z" />
    <glyph glyph-name="wacute" unicode="&#x1e83;" horiz-adv-x="1634" 
d="M49 1024h348l78 -430q13 -78 21 -155t20 -156h8q31 205 58 311l94 430h299l98 -430q17 -78 31 -155t31 -156h8q12 81 20 157t21 154l78 430h323l-233 -1024h-410l-74 356l-24 144t-25 157h-8q-27 -190 -45 -301l-70 -356h-401zM893 1176h-254l180 315h336z" />
    <glyph glyph-name="Wdieresis" unicode="&#x1e84;" horiz-adv-x="1687" 
d="M20 1331h361l74 -581q10 -104 22 -208t23 -210h8q36 208 74 418l127 581h295l126 -581q18 -100 36 -206t38 -212h8q10 106 22 210t23 208l74 581h336l-221 -1331h-447l-102 528q-20 98 -49 312h-8q-29 -214 -49 -312l-99 -528h-438zM1057 1421q-72 0 -116 46t-44 114
t44 114t116 46q71 0 115 -46t44 -114t-43 -114q-44 -46 -116 -46zM631 1421q-72 0 -116 46t-44 114t44 114t116 46q71 0 115 -46t44 -114t-43 -114q-44 -46 -116 -46z" />
    <glyph glyph-name="wdieresis" unicode="&#x1e85;" horiz-adv-x="1634" 
d="M49 1024h348l78 -430q13 -78 21 -155t20 -156h8q31 205 58 311l94 430h299l98 -430q17 -78 31 -155t31 -156h8q12 81 20 157t21 154l78 430h323l-233 -1024h-410l-74 356l-24 144t-25 157h-8q-27 -190 -45 -301l-70 -356h-401zM1032 1155q-72 0 -116 46t-44 114
q0 67 44 113t116 46t116 -46t44 -114t-44 -113q-44 -46 -116 -46zM606 1155q-72 0 -116 46t-44 114q0 67 44 113t116 46t116 -46t44 -114t-44 -113q-44 -46 -116 -46z" />
    <glyph glyph-name="uni1E8E" unicode="&#x1e8e;" horiz-adv-x="1114" 
d="M733 0h-352v459l-401 872h376l99 -278q25 -76 49 -148t51 -149h8q27 78 53 150t52 147l98 278h369l-402 -872v-459zM557 1425q-86 -1 -141 49t-56 128q0 78 56 127t141 49q86 0 141 -49q56 -49 56 -127t-56 -128t-141 -49z" />
    <glyph glyph-name="uni1E8F" unicode="&#x1e8f;" horiz-adv-x="1110" 
d="M176 -98q177 -51 225 90l13 45l-389 987h352l123 -393q23 -72 39 -143t34 -148h9q16 74 31 146t34 145l103 393h335l-344 -1008q-88 -223 -188 -312t-283 -89q-87 0 -155 20zM565 1151q-84 0 -136 49t-52 127t52 127t136 49t136 -49q53 -49 53 -127t-52 -127t-137 -49z
" />
    <glyph glyph-name="uni1E92" unicode="&#x1e92;" horiz-adv-x="1110" 
d="M119 1036v295h925v-213l-544 -823h549v-295h-983v213l544 823h-491zM578 -479q-84 0 -137 49q-52 49 -52 127t52 127q53 49 137 49t136 -49t52 -127t-52 -127t-136 -49z" />
    <glyph glyph-name="uni1E93" unicode="&#x1e93;" horiz-adv-x="970" 
d="M127 750v274h782v-188l-389 -562h402v-274h-840v188l389 562h-344zM516 -479q-84 0 -136 49t-52 127t52 127t136 49t136 -49t52 -127t-52 -127t-136 -49z" />
    <glyph glyph-name="uni1E97" unicode="&#x1e97;" horiz-adv-x="819" 
d="M164 750h-135v262l155 12l41 266h291v-266h234v-274h-234v-351q0 -85 37 -117t83 -32t93 16l53 -254q-122 -36 -231 -36q-201 -1 -295 111t-92 306v357zM573 1446q-71 0 -115 46t-44 114t44 114t116 45q72 0 115 -46q44 -45 44 -113t-44 -114t-116 -46zM147 1446
q-71 0 -115 46t-44 114t44 114t116 45q72 0 115 -46q44 -45 44 -113t-44 -114t-116 -46z" />
    <glyph glyph-name="uni1E9E" unicode="&#x1e9e;" horiz-adv-x="1474" 
d="M1036 370q0 52 -66.5 95t-209.5 70l-23 202l201 234q-23 41 -72 71.5t-125 30.5q-121 0 -177 -72.5t-56 -214.5v-786h-352v831q0 366 218 445.5t350 79.5q233 0 373 -108t185 -290l-197 -225q148 -59 230 -141t82 -223q0 -270 -160.5 -332t-282.5 -62t-217.5 45.5
t-150.5 98.5l180 213q81 -74 160 -74q49 0 79.5 30t30.5 82z" />
    <glyph glyph-name="uni1EA0" unicode="&#x1ea0;" horiz-adv-x="1196" 
d="M778 283h-372l-66 -283h-360l405 1331h426l406 -1331h-373zM715 555l-23 92q-25 96 -49 209q-25 113 -49 213h-8q-22 -102 -46 -214t-48 -208l-23 -92h246zM590 -479q-84 0 -136 49t-53 127q1 78 53 127t136 49t136 -49t52 -127t-52 -127t-136 -49z" />
    <glyph glyph-name="uni1EA1" unicode="&#x1ea1;" horiz-adv-x="1110" 
d="M422 319q0 -74 94 -73q43 0 71 19t56 50v140q-127 -17 -174 -55t-47 -81zM86 304q0 147 131 238t426 122q-12 106 -143 106q-98 0 -258 -86l-123 229q225 136 437 136t326 -114t113 -366v-569h-286l-25 98h-8q-136 -123 -279 -123q-142 0 -226 91q-85 91 -85 238z
M549 -479q-84 0 -136 49t-53 127q0 78 52 127t137 49q84 0 136 -49t52 -127t-52 -127t-136 -49z" />
    <glyph glyph-name="uni1EA2" unicode="&#x1ea2;" horiz-adv-x="1196" 
d="M778 283h-372l-66 -283h-360l405 1331h426l406 -1331h-373zM715 555l-23 92q-25 96 -49 209q-25 113 -49 213h-8q-22 -102 -46 -214t-48 -208l-23 -92h246zM819 1623q0 -95 -86 -153q-86 -57 -221 -61l-25 135q84 10 82 49q0 25 -34 40q-35 15 -125 22l41 172
q293 -11 351 -121q17 -35 17 -83z" />
    <glyph glyph-name="uni1EA3" unicode="&#x1ea3;" horiz-adv-x="1110" 
d="M422 319q0 -74 94 -73q43 0 71 19t56 50v140q-127 -17 -174 -55t-47 -81zM86 304q0 147 131 238t426 122q-12 106 -143 106q-98 0 -258 -86l-123 229q225 136 437 136t326 -114t113 -366v-569h-286l-25 98h-8q-136 -123 -279 -123q-142 0 -226 91q-85 91 -85 238z
M813 1357q0 -94 -86 -152t-221 -62l-25 135q35 4 59 14t23 35q0 50 -160 62l41 172q294 -11 352 -121q17 -35 17 -83z" />
    <glyph glyph-name="uni1EA4" unicode="&#x1ea4;" horiz-adv-x="1196" 
d="M778 283h-372l-66 -283h-360l405 1331h426l406 -1331h-373zM715 555l-23 92q-25 96 -49 209q-25 113 -49 213h-8q-22 -102 -46 -214t-48 -208l-23 -92h246zM438 1675h303l197 -241h-246l-98 106h-8l-99 -106h-245zM977 1831h266l-209 -254h-196z" />
    <glyph glyph-name="uni1EA5" unicode="&#x1ea5;" horiz-adv-x="1110" 
d="M422 319q0 -74 94 -73q43 0 71 19t56 50v140q-127 -17 -174 -55t-47 -81zM86 304q0 147 131 238t426 122q-12 106 -143 106q-98 0 -258 -86l-123 229q225 136 437 136t326 -114t113 -366v-569h-286l-25 98h-8q-136 -123 -279 -123q-142 0 -226 91q-85 91 -85 238z
M952 1573h254l-196 -246h-193zM444 1446h279l164 -270h-213l-86 127h-8l-86 -127h-213z" />
    <glyph glyph-name="uni1EA6" unicode="&#x1ea6;" horiz-adv-x="1196" 
d="M778 283h-372l-66 -283h-360l405 1331h426l406 -1331h-373zM715 555l-23 92q-25 96 -49 209q-25 113 -49 213h-8q-22 -102 -46 -214t-48 -208l-23 -92h246zM438 1675h303l197 -241h-246l-98 106h-8l-99 -106h-245zM1120 1577h-196l-209 254h266z" />
    <glyph glyph-name="uni1EA7" unicode="&#x1ea7;" horiz-adv-x="1110" 
d="M422 319q0 -74 94 -73q43 0 71 19t56 50v140q-127 -17 -174 -55t-47 -81zM86 304q0 147 131 238t426 122q-12 106 -143 106q-98 0 -258 -86l-123 229q225 136 437 136t326 -114t113 -366v-569h-286l-25 98h-8q-136 -123 -279 -123q-142 0 -226 91q-85 91 -85 238z
M1133 1327h-193l-197 246h254zM444 1446h279l164 -270h-213l-86 127h-8l-86 -127h-213z" />
    <glyph glyph-name="uni1EA8" unicode="&#x1ea8;" horiz-adv-x="1196" 
d="M778 283h-372l-66 -283h-360l405 1331h426l406 -1331h-373zM715 555l-23 92q-25 96 -49 209q-25 113 -49 213h-8q-22 -102 -46 -214t-48 -208l-23 -92h246zM438 1675h303l197 -241h-246l-98 106h-8l-99 -106h-245zM864 1638q56 9 58 50q0 26 -27 40t-104 21l32 139
q260 -11 305 -108q14 -31 15 -64q0 -96 -73 -137t-181 -47z" />
    <glyph glyph-name="uni1EA9" unicode="&#x1ea9;" horiz-adv-x="1110" 
d="M422 319q0 -74 94 -73q43 0 71 19t56 50v140q-127 -17 -174 -55t-47 -81zM86 304q0 147 131 238t426 122q-12 106 -143 106q-98 0 -258 -86l-123 229q225 136 437 136t326 -114t113 -366v-569h-286l-25 98h-8q-136 -123 -279 -123q-142 0 -226 91q-85 91 -85 238z
M915 1450q0 25 -26 40q-27 15 -105 21l33 144q262 -11 308 -104q15 -29 15 -73t-20 -80q-40 -70 -137 -93q-47 -12 -100 -19l-21 115q25 4 39 14t14 35zM444 1446h279l164 -270h-213l-86 127h-8l-86 -127h-213z" />
    <glyph glyph-name="uni1EAA" unicode="&#x1eaa;" horiz-adv-x="1196" 
d="M778 283h-372l-66 -283h-360l405 1331h426l406 -1331h-373zM715 555l-23 92q-25 96 -49 209q-25 113 -49 213h-8q-22 -102 -46 -214t-48 -208l-23 -92h246zM344 1942q58 58 124 57q65 0 131 -37q65 -37 87 -37q52 0 72 74h151q-16 -135 -74 -193t-122 -57q-64 0 -132 36
q-67 36 -87 38q-52 0 -72 -74h-152q16 135 74 193zM438 1675h303l197 -241h-246l-98 106h-8l-99 -106h-245z" />
    <glyph glyph-name="uni1EAB" unicode="&#x1eab;" horiz-adv-x="1110" 
d="M422 319q0 -74 94 -73q43 0 71 19t56 50v140q-127 -17 -174 -55t-47 -81zM86 304q0 147 131 238t426 122q-12 106 -143 106q-98 0 -258 -86l-123 229q225 136 437 136t326 -114t113 -366v-569h-286l-25 98h-8q-136 -123 -279 -123q-142 0 -226 91q-85 91 -85 238z
M489 1556q-51 0 -69 -73h-148q16 135 72 192t123 58q66 1 128 -37q24 -14 43 -26t40 -11q51 0 70 74h147q-17 -135 -73 -193t-123 -57q-67 0 -127 37q-24 14 -43 25t-40 11zM424 1409h319l160 -233h-225l-90 114h-8l-91 -114h-225z" />
    <glyph glyph-name="uni1EAC" unicode="&#x1eac;" horiz-adv-x="1196" 
d="M778 283h-372l-66 -283h-360l405 1331h426l406 -1331h-373zM715 555l-23 92q-25 96 -49 209q-25 113 -49 213h-8q-22 -102 -46 -214t-48 -208l-23 -92h246zM221 1434l197 254h344l196 -254h-266l-98 118h-8l-99 -118h-266zM590 -479q-84 0 -136 49t-53 127q1 78 53 127
t136 49t136 -49t52 -127t-52 -127t-136 -49z" />
    <glyph glyph-name="uni1EAD" unicode="&#x1ead;" horiz-adv-x="1110" 
d="M422 319q0 -74 94 -73q43 0 71 19t56 50v140q-127 -17 -174 -55t-47 -81zM86 304q0 147 131 238t426 122q-12 106 -143 106q-98 0 -258 -86l-123 229q225 136 437 136t326 -114t113 -366v-569h-286l-25 98h-8q-136 -123 -279 -123q-142 0 -226 91q-85 91 -85 238z
M444 1491h279l197 -315h-234l-98 151h-8l-99 -151h-233zM549 -479q-84 0 -136 49t-53 127q0 78 52 127t137 49q84 0 136 -49t52 -127t-52 -127t-136 -49z" />
    <glyph glyph-name="uni1EAE" unicode="&#x1eae;" horiz-adv-x="1196" 
d="M778 283h-372l-66 -283h-360l405 1331h426l406 -1331h-373zM715 555l-23 92q-25 96 -49 209q-25 113 -49 213h-8q-22 -102 -46 -214t-48 -208l-23 -92h246zM590 1585q66 0 94 28t41 75h156q-25 -254 -291 -254t-291 254h156q12 -47 41 -75q28 -28 94 -28zM616 1913h258
l-208 -254h-172z" />
    <glyph glyph-name="uni1EAF" unicode="&#x1eaf;" horiz-adv-x="1110" 
d="M422 319q0 -74 94 -73q43 0 71 19t56 50v140q-127 -17 -174 -55t-47 -81zM86 304q0 147 131 238t426 122q-12 106 -143 106q-98 0 -258 -86l-123 229q225 136 437 136t326 -114t113 -366v-569h-286l-25 98h-8q-136 -123 -279 -123q-142 0 -226 91q-85 91 -85 238z
M584 1176q-74 0 -128 24q-160 70 -167 270h151q10 -55 44 -91t100 -36q120 0 143 127h152q-7 -200 -167 -271q-54 -23 -128 -23zM592 1675h246l-185 -245h-172z" />
    <glyph glyph-name="uni1EB0" unicode="&#x1eb0;" horiz-adv-x="1196" 
d="M778 283h-372l-66 -283h-360l405 1331h426l406 -1331h-373zM715 555l-23 92q-25 96 -49 209q-25 113 -49 213h-8q-22 -102 -46 -214t-48 -208l-23 -92h246zM590 1585q66 0 94 28t41 75h156q-25 -254 -291 -254t-291 254h156q12 -47 41 -75q28 -28 94 -28zM686 1659h-172
l-209 254h258z" />
    <glyph glyph-name="uni1EB1" unicode="&#x1eb1;" horiz-adv-x="1110" 
d="M422 319q0 -74 94 -73q43 0 71 19t56 50v140q-127 -17 -174 -55t-47 -81zM86 304q0 147 131 238t426 122q-12 106 -143 106q-98 0 -258 -86l-123 229q225 136 437 136t326 -114t113 -366v-569h-286l-25 98h-8q-136 -123 -279 -123q-142 0 -226 91q-85 91 -85 238z
M584 1176q-74 0 -128 24q-160 70 -167 270h151q10 -55 44 -91t100 -36q120 0 143 127h152q-7 -200 -167 -271q-54 -23 -128 -23zM686 1430h-172l-184 245h245z" />
    <glyph glyph-name="uni1EB2" unicode="&#x1eb2;" horiz-adv-x="1196" 
d="M778 283h-372l-66 -283h-360l405 1331h426l406 -1331h-373zM715 555l-23 92q-25 96 -49 209q-25 113 -49 213h-8q-22 -102 -46 -214t-48 -208l-23 -92h246zM590 1585q66 0 94 28t41 75h156q-25 -254 -291 -254t-291 254h156q12 -47 41 -75q28 -28 94 -28zM770 1839
q0 -96 -73 -137t-181 -47l-24 106q55 9 57 49q0 25 -27 40t-104 22l33 139q260 -11 305 -108q14 -31 14 -64z" />
    <glyph glyph-name="uni1EB3" unicode="&#x1eb3;" horiz-adv-x="1110" 
d="M422 319q0 -74 94 -73q43 0 71 19t56 50v140q-127 -17 -174 -55t-47 -81zM86 304q0 147 131 238t426 122q-12 106 -143 106q-98 0 -258 -86l-123 229q225 136 437 136t326 -114t113 -366v-569h-286l-25 98h-8q-136 -123 -279 -123q-142 0 -226 91q-85 91 -85 238z
M764 1631q0 -90 -76 -138q-60 -39 -182 -53l-21 114q52 8 54 50q0 25 -27 40t-104 21l32 143q258 -11 309 -103q15 -30 15 -74zM584 1176q-74 0 -128 24q-160 70 -167 270h151q10 -55 44 -91t100 -36q120 0 143 127h152q-7 -200 -167 -271q-54 -23 -128 -23z" />
    <glyph glyph-name="uni1EB4" unicode="&#x1eb4;" horiz-adv-x="1196" 
d="M778 283h-372l-66 -283h-360l405 1331h426l406 -1331h-373zM715 555l-23 92q-25 96 -49 209q-25 113 -49 213h-8q-22 -102 -46 -214t-48 -208l-23 -92h246zM344 1942q58 58 124 57q65 0 131 -37q65 -37 87 -37q52 0 72 74h151q-16 -135 -74 -193t-122 -57q-64 0 -132 36
q-67 36 -87 38q-52 0 -72 -74h-152q16 135 74 193zM590 1585q66 0 94 28t41 75h156q-25 -254 -291 -254t-291 254h156q12 -47 41 -75q28 -28 94 -28z" />
    <glyph glyph-name="uni1EB5" unicode="&#x1eb5;" horiz-adv-x="1110" 
d="M422 319q0 -74 94 -73q43 0 71 19t56 50v140q-127 -17 -174 -55t-47 -81zM86 304q0 147 131 238t426 122q-12 106 -143 106q-98 0 -258 -86l-123 229q225 136 437 136t326 -114t113 -366v-569h-286l-25 98h-8q-136 -123 -279 -123q-142 0 -226 91q-85 91 -85 238z
M489 1556q-51 0 -69 -73h-148q16 135 72 192t123 58q66 1 128 -37q24 -14 43 -26t40 -11q51 0 70 74h147q-17 -135 -73 -193t-123 -57q-67 0 -127 37q-24 14 -43 25t-40 11zM584 1335q109 0 135 95h160q-7 -175 -167 -234q-54 -20 -128 -20q-147 0 -220 74t-75 180h160
q26 -95 135 -95z" />
    <glyph glyph-name="uni1EB6" unicode="&#x1eb6;" horiz-adv-x="1196" 
d="M778 283h-372l-66 -283h-360l405 1331h426l406 -1331h-373zM715 555l-23 92q-25 96 -49 209q-25 113 -49 213h-8q-22 -102 -46 -214t-48 -208l-23 -92h246zM881 1688q-25 -254 -291 -254t-291 254h188q23 -84 103 -83t102 83h189zM590 -479q-84 0 -136 49t-53 127
q1 78 53 127t136 49t136 -49t52 -127t-52 -127t-136 -49z" />
    <glyph glyph-name="uni1EB7" unicode="&#x1eb7;" horiz-adv-x="1110" 
d="M422 319q0 -74 94 -73q43 0 71 19t56 50v140q-127 -17 -174 -55t-47 -81zM86 304q0 147 131 238t426 122q-12 106 -143 106q-98 0 -258 -86l-123 229q225 136 437 136t326 -114t113 -366v-569h-286l-25 98h-8q-136 -123 -279 -123q-142 0 -226 91q-85 91 -85 238z
M584 1176q-74 0 -128 24q-160 70 -167 270h192q14 -106 102 -106q89 0 103 106h193q-7 -200 -167 -271q-54 -23 -128 -23zM549 -479q-84 0 -136 49t-53 127q0 78 52 127t137 49q84 0 136 -49t52 -127t-52 -127t-136 -49z" />
    <glyph glyph-name="uni1EB8" unicode="&#x1eb8;" horiz-adv-x="1138" 
d="M147 1331h861v-295h-508v-209h434v-295h-434v-237h528v-295h-881v1331zM602 -479q-84 0 -136 49t-52 127t52 127t136 49t136 -49t52 -127t-52 -127t-136 -49z" />
    <glyph glyph-name="uni1EB9" unicode="&#x1eb9;" horiz-adv-x="1077" 
d="M705 627q0 67 -30 111q-29 44 -99 44t-114 -34t-61 -121h304zM967 94q-169 -119 -387 -119q-100 0 -195 36q-197 74 -279 274q-40 100 -40 226q0 238 147 388t354 150t322 -142t115 -354q0 -72 -15 -139h-583q25 -98 88 -135t155 -37t203 61zM557 -479q-84 0 -136 49
t-52 127t52 127t136 49t136 -49t52 -127t-52 -127t-136 -49z" />
    <glyph glyph-name="uni1EBA" unicode="&#x1eba;" horiz-adv-x="1138" 
d="M147 1331h861v-295h-508v-209h434v-295h-434v-237h528v-295h-881v1331zM823 1623q0 -95 -86 -153q-86 -57 -221 -61l-24 135q83 9 81 49q0 25 -34 40q-35 15 -125 22l41 172q293 -11 351 -121q17 -35 17 -83z" />
    <glyph glyph-name="uni1EBB" unicode="&#x1ebb;" horiz-adv-x="1077" 
d="M705 627q0 67 -30 111q-29 44 -99 44t-114 -34t-61 -121h304zM967 94q-169 -119 -387 -119q-100 0 -195 36q-197 74 -279 274q-40 100 -40 226q0 238 147 388t354 150t322 -142t115 -354q0 -72 -15 -139h-583q25 -98 88 -135t155 -37t203 61zM537 1327q0 50 -160 62
l41 172q296 -11 351 -121q17 -35 17 -83q0 -95 -86 -153q-86 -57 -221 -61l-24 135q35 4 59 14t23 35z" />
    <glyph glyph-name="uni1EBC" unicode="&#x1ebc;" horiz-adv-x="1138" 
d="M147 1331h861v-295h-508v-209h434v-295h-434v-237h528v-295h-881v1331zM709 1647q56 0 77 86h177q-19 -147 -84 -223t-143 -76t-157 42t-100 44q-55 0 -78 -86h-176q18 156 86 228t141 71q73 1 129 -29t81 -44t47 -13z" />
    <glyph glyph-name="uni1EBD" unicode="&#x1ebd;" horiz-adv-x="1077" 
d="M705 627q0 67 -30 111q-29 44 -99 44t-114 -34t-61 -121h304zM967 94q-169 -119 -387 -119q-100 0 -195 36q-197 74 -279 274q-40 100 -40 226q0 238 147 388t354 150t322 -142t115 -354q0 -72 -15 -139h-583q25 -98 88 -135t155 -37t203 61zM278 1404q64 70 137 71
t129 -29t81 -44t49 -13q24 0 39 18q16 18 28 68h177q-18 -158 -82 -229q-114 -128 -291 -27q-81 42 -103 43q-48 0 -69 -86h-176q17 158 81 228z" />
    <glyph glyph-name="uni1EBE" unicode="&#x1ebe;" horiz-adv-x="1138" 
d="M147 1331h861v-295h-508v-209h434v-295h-434v-237h528v-295h-881v1331zM442 1675h303l197 -241h-246l-98 106h-8l-98 -106h-246zM981 1831h266l-209 -254h-196z" />
    <glyph glyph-name="uni1EBF" unicode="&#x1ebf;" horiz-adv-x="1077" 
d="M705 627q0 67 -30 111q-29 44 -99 44t-114 -34t-61 -121h304zM967 94q-169 -119 -387 -119q-100 0 -195 36q-197 74 -279 274q-40 100 -40 226q0 238 147 388t354 150t322 -142t115 -354q0 -72 -15 -139h-583q25 -98 88 -135t155 -37t203 61zM926 1573h254l-197 -246
h-192zM418 1446h278l164 -270h-213l-86 127h-8l-86 -127h-213z" />
    <glyph glyph-name="uni1EC0" unicode="&#x1ec0;" horiz-adv-x="1138" 
d="M147 1331h861v-295h-508v-209h434v-295h-434v-237h528v-295h-881v1331zM442 1675h303l197 -241h-246l-98 106h-8l-98 -106h-246zM1124 1577h-196l-209 254h266z" />
    <glyph glyph-name="uni1EC1" unicode="&#x1ec1;" horiz-adv-x="1077" 
d="M705 627q0 67 -30 111q-29 44 -99 44t-114 -34t-61 -121h304zM967 94q-169 -119 -387 -119q-100 0 -195 36q-197 74 -279 274q-40 100 -40 226q0 238 147 388t354 150t322 -142t115 -354q0 -72 -15 -139h-583q25 -98 88 -135t155 -37t203 61zM1106 1327h-193l-196 246
h254zM418 1446h278l164 -270h-213l-86 127h-8l-86 -127h-213z" />
    <glyph glyph-name="uni1EC2" unicode="&#x1ec2;" horiz-adv-x="1138" 
d="M147 1331h861v-295h-508v-209h434v-295h-434v-237h528v-295h-881v1331zM442 1675h303l197 -241h-246l-98 106h-8l-98 -106h-246zM1147 1716q0 -96 -73 -137t-181 -47l-25 106q56 9 58 50q0 26 -27 40t-104 21l32 139q257 -11 306 -108q14 -31 14 -64z" />
    <glyph glyph-name="uni1EC3" unicode="&#x1ec3;" horiz-adv-x="1077" 
d="M705 627q0 67 -30 111q-29 44 -99 44t-114 -34t-61 -121h304zM967 94q-169 -119 -387 -119q-100 0 -195 36q-197 74 -279 274q-40 100 -40 226q0 238 147 388t354 150t322 -142t115 -354q0 -72 -15 -139h-583q25 -98 88 -135t155 -37t203 61zM1047 1603q67 -40 67 -128
t-76 -136q-55 -36 -182 -53l-20 115q24 4 38 14t15 35q0 25 -27 40t-104 21l33 144q175 -7 256 -52zM418 1446h278l164 -270h-213l-86 127h-8l-86 -127h-213z" />
    <glyph glyph-name="uni1EC4" unicode="&#x1ec4;" horiz-adv-x="1138" 
d="M147 1331h861v-295h-508v-209h434v-295h-434v-237h528v-295h-881v1331zM348 1942q58 58 124 57q65 0 131 -37q65 -37 87 -37q52 0 72 74h151q-16 -135 -74 -193t-122 -57q-64 0 -132 36q-67 36 -87 38q-52 0 -72 -74h-152q16 135 74 193zM442 1675h303l197 -241h-246
l-98 106h-8l-98 -106h-246z" />
    <glyph glyph-name="uni1EC5" unicode="&#x1ec5;" horiz-adv-x="1077" 
d="M705 627q0 67 -30 111q-29 44 -99 44t-114 -34t-61 -121h304zM967 94q-169 -119 -387 -119q-100 0 -195 36q-197 74 -279 274q-40 100 -40 226q0 238 147 388t354 150t322 -142t115 -354q0 -72 -15 -139h-583q25 -98 88 -135t155 -37t203 61zM463 1556q-50 0 -70 -73
h-147q16 135 72 192t122 58t128 -37q24 -14 43 -26t40 -11q51 0 70 74h147q-16 -135 -72 -193t-125 -57q-69 0 -125 37q-24 14 -43 25t-40 11zM397 1409h320l160 -233h-226l-90 114h-8l-90 -114h-225z" />
    <glyph glyph-name="uni1EC6" unicode="&#x1ec6;" horiz-adv-x="1138" 
d="M147 1331h861v-295h-508v-209h434v-295h-434v-237h528v-295h-881v1331zM225 1434l197 254h344l197 -254h-267l-98 118h-8l-98 -118h-267zM602 -479q-84 0 -136 49t-52 127t52 127t136 49t136 -49t52 -127t-52 -127t-136 -49z" />
    <glyph glyph-name="uni1EC7" unicode="&#x1ec7;" horiz-adv-x="1077" 
d="M705 627q0 67 -30 111q-29 44 -99 44t-114 -34t-61 -121h304zM967 94q-169 -119 -387 -119q-100 0 -195 36q-197 74 -279 274q-40 100 -40 226q0 238 147 388t354 150t322 -142t115 -354q0 -72 -15 -139h-583q25 -98 88 -135t155 -37t203 61zM418 1491h278l197 -315h-234
l-98 151h-8l-98 -151h-234zM557 -479q-84 0 -136 49t-52 127t52 127t136 49t136 -49t52 -127t-52 -127t-136 -49z" />
    <glyph glyph-name="uni1EC8" unicode="&#x1ec8;" horiz-adv-x="647" 
d="M147 1331h353v-1331h-353v1331zM553 1623q0 -94 -86 -152t-221 -62l-25 135q84 10 82 49q0 50 -160 62l41 172q294 -11 352 -121q17 -35 17 -83z" />
    <glyph glyph-name="uni1EC9" unicode="&#x1ec9;" horiz-adv-x="589" 
d="M119 1024h352v-1024h-352v1024zM524 1357q0 -96 -86 -153t-221 -61l-24 135q35 4 59 14t22 35q0 25 -34 40q-35 15 -125 22l41 172q204 -8 286 -58t82 -146z" />
    <glyph glyph-name="uni1ECA" unicode="&#x1eca;" horiz-adv-x="647" 
d="M147 1331h353v-1331h-353v1331zM324 -479q-84 0 -137 49q-52 49 -52 127t52 127q53 49 137 49t136 -49t52 -127t-52 -127t-136 -49z" />
    <glyph glyph-name="uni1ECB" unicode="&#x1ecb;" horiz-adv-x="589" 
d="M119 1024h352v-1024h-352v1024zM295 1151q-86 0 -141 49t-56 127q0 78 56 127t141 49q86 0 141 -49q56 -49 56 -127t-56 -127t-141 -49zM295 -479q-84 0 -136 49t-53 127q0 78 52 127t137 49q84 0 136 -49t52 -127t-52 -127t-136 -49z" />
    <glyph glyph-name="uni1ECC" unicode="&#x1ecc;" horiz-adv-x="1417" 
d="M709 279q121 0 189 105q68 106 69 288q0 182 -69 281q-70 99 -190 99t-189 -98q-69 -100 -69 -282t69 -288q69 -105 190 -105zM708 -25q-138 -1 -252 47t-195 137t-126 219t-45 294q0 323 168 504q168 180 452 180t451 -182q166 -182 166 -504q0 -323 -171 -511
q-167 -184 -448 -184zM709 -479q-84 0 -137 49q-52 49 -52 127t52 127t136 49t137 -49q52 -49 52 -127t-52 -127t-136 -49z" />
    <glyph glyph-name="uni1ECD" unicode="&#x1ecd;" horiz-adv-x="1146" 
d="M721 512q1 254 -147 254t-148 -254t148 -254t147 254zM66 511q0 245 150 392q150 146 356 146q207 0 358 -146t151 -390q0 -243 -151 -391q-152 -147 -358 -147q-207 0 -356 145q-150 146 -150 391zM573 -479q-84 0 -136 49t-52 127t52 127t136 49q85 0 137 -49t52 -127
t-52 -127t-137 -49z" />
    <glyph glyph-name="uni1ECE" unicode="&#x1ece;" horiz-adv-x="1417" 
d="M709 279q121 0 189 105q68 106 69 288q0 182 -69 281q-70 99 -190 99t-189 -98q-69 -100 -69 -282t69 -288q69 -105 190 -105zM708 -25q-138 -1 -252 47t-195 137t-126 219t-45 294q0 323 168 504q168 180 452 180t451 -182q166 -182 166 -504q0 -323 -171 -511
q-167 -184 -448 -184zM938 1623q0 -94 -86 -152t-221 -62l-25 135q84 10 82 49q0 50 -160 62l41 172q294 -11 352 -121q17 -35 17 -83z" />
    <glyph glyph-name="uni1ECF" unicode="&#x1ecf;" horiz-adv-x="1146" 
d="M721 512q1 254 -147 254t-148 -254t148 -254t147 254zM66 511q0 245 150 392q150 146 356 146q207 0 358 -146t151 -390q0 -243 -151 -391q-152 -147 -358 -147q-207 0 -356 145q-150 146 -150 391zM553 1327q0 50 -160 62l41 172q296 -11 351 -121q17 -35 17 -83
q1 -94 -85 -152t-221 -62l-25 135q35 4 59 14t23 35z" />
    <glyph glyph-name="uni1ED0" unicode="&#x1ed0;" horiz-adv-x="1417" 
d="M709 279q121 0 189 105q68 106 69 288q0 182 -69 281q-70 99 -190 99t-189 -98q-69 -100 -69 -282t69 -288q69 -105 190 -105zM708 -25q-138 -1 -252 47t-195 137t-126 219t-45 294q0 323 168 504q168 180 452 180t451 -182q166 -182 166 -504q0 -323 -171 -511
q-167 -184 -448 -184zM557 1675h303l197 -241h-246l-98 106h-8l-99 -106h-246zM1096 1831h266l-209 -254h-197z" />
    <glyph glyph-name="uni1ED1" unicode="&#x1ed1;" horiz-adv-x="1146" 
d="M721 512q1 254 -147 254t-148 -254t148 -254t147 254zM66 511q0 245 150 392q150 146 356 146q207 0 358 -146t151 -390q0 -243 -151 -391q-152 -147 -358 -147q-207 0 -356 145q-150 146 -150 391zM942 1573h254l-197 -246h-192zM434 1446h279l164 -270h-213l-86 127h-9
l-86 -127h-213z" />
    <glyph glyph-name="uni1ED2" unicode="&#x1ed2;" horiz-adv-x="1417" 
d="M709 279q121 0 189 105q68 106 69 288q0 182 -69 281q-70 99 -190 99t-189 -98q-69 -100 -69 -282t69 -288q69 -105 190 -105zM708 -25q-138 -1 -252 47t-195 137t-126 219t-45 294q0 323 168 504q168 180 452 180t451 -182q166 -182 166 -504q0 -323 -171 -511
q-167 -184 -448 -184zM557 1675h303l197 -241h-246l-98 106h-8l-99 -106h-246zM1239 1577h-197l-208 254h266z" />
    <glyph glyph-name="uni1ED3" unicode="&#x1ed3;" horiz-adv-x="1146" 
d="M721 512q1 254 -147 254t-148 -254t148 -254t147 254zM66 511q0 245 150 392q150 146 356 146q207 0 358 -146t151 -390q0 -243 -151 -391q-152 -147 -358 -147q-207 0 -356 145q-150 146 -150 391zM1122 1327h-192l-197 246h254zM434 1446h279l164 -270h-213l-86 127h-9
l-86 -127h-213z" />
    <glyph glyph-name="uni1ED4" unicode="&#x1ed4;" horiz-adv-x="1417" 
d="M709 279q121 0 189 105q68 106 69 288q0 182 -69 281q-70 99 -190 99t-189 -98q-69 -100 -69 -282t69 -288q69 -105 190 -105zM708 -25q-138 -1 -252 47t-195 137t-126 219t-45 294q0 323 168 504q168 180 452 180t451 -182q166 -182 166 -504q0 -323 -171 -511
q-167 -184 -448 -184zM557 1675h303l197 -241h-246l-98 106h-8l-99 -106h-246zM1040 1688q0 26 -26 40t-105 21l33 139q260 -11 305 -108q14 -31 15 -64q0 -96 -73 -137t-181 -47l-25 106q57 9 57 50z" />
    <glyph glyph-name="uni1ED5" unicode="&#x1ed5;" horiz-adv-x="1146" 
d="M721 512q1 254 -147 254t-148 -254t148 -254t147 254zM66 511q0 245 150 392q150 146 356 146q207 0 358 -146t151 -390q0 -243 -151 -391q-152 -147 -358 -147q-207 0 -356 145q-150 146 -150 391zM905 1450q0 25 -26 40q-27 15 -105 21l33 144q262 -11 308 -104
q15 -29 15 -73t-20 -80q-39 -70 -137 -93q-47 -12 -101 -19l-20 115q25 4 39 14t14 35zM434 1446h279l164 -270h-213l-86 127h-9l-86 -127h-213z" />
    <glyph glyph-name="uni1ED6" unicode="&#x1ed6;" horiz-adv-x="1417" 
d="M709 279q121 0 189 105q68 106 69 288q0 182 -69 281q-70 99 -190 99t-189 -98q-69 -100 -69 -282t69 -288q69 -105 190 -105zM708 -25q-138 -1 -252 47t-195 137t-126 219t-45 294q0 323 168 504q168 180 452 180t451 -182q166 -182 166 -504q0 -323 -171 -511
q-167 -184 -448 -184zM464 1942q58 58 122 57q64 1 109 -25t67 -38t43 -11q52 0 72 74h151q-16 -135 -74 -193t-122 -57q-63 -1 -110 25q-46 26 -68 37t-42 12q-53 0 -71 -74h-152q17 135 75 193zM557 1675h303l197 -241h-246l-98 106h-8l-99 -106h-246z" />
    <glyph glyph-name="uni1ED7" unicode="&#x1ed7;" horiz-adv-x="1146" 
d="M721 512q1 254 -147 254t-148 -254t148 -254t147 254zM66 511q0 245 150 392q150 146 356 146q207 0 358 -146t151 -390q0 -243 -151 -391q-152 -147 -358 -147q-207 0 -356 145q-150 146 -150 391zM479 1556q-51 0 -69 -73h-148q16 135 72 192t112 57q54 0 89 -12
q35 -13 74 -37q38 -24 59 -24q51 0 69 74h148q-17 -135 -73 -193t-125 -57q-69 0 -125 37q-24 14 -43 25t-40 11zM414 1409h319l160 -233h-225l-90 114h-9l-90 -114h-225z" />
    <glyph glyph-name="uni1ED8" unicode="&#x1ed8;" horiz-adv-x="1417" 
d="M709 279q121 0 189 105q68 106 69 288q0 182 -69 281q-70 99 -190 99t-189 -98q-69 -100 -69 -282t69 -288q69 -105 190 -105zM708 -25q-138 -1 -252 47t-195 137t-126 219t-45 294q0 323 168 504q168 180 452 180t451 -182q166 -182 166 -504q0 -323 -171 -511
q-167 -184 -448 -184zM340 1434l197 254h344l196 -254h-266l-98 118h-8l-99 -118h-266zM709 -479q-84 0 -137 49q-52 49 -52 127t52 127t136 49t137 -49q52 -49 52 -127t-52 -127t-136 -49z" />
    <glyph glyph-name="uni1ED9" unicode="&#x1ed9;" horiz-adv-x="1146" 
d="M721 512q1 254 -147 254t-148 -254t148 -254t147 254zM66 511q0 245 150 392q150 146 356 146q207 0 358 -146t151 -390q0 -243 -151 -391q-152 -147 -358 -147q-207 0 -356 145q-150 146 -150 391zM434 1491h279l196 -315h-233l-98 151h-9l-98 -151h-233zM573 -479
q-84 0 -136 49t-52 127t52 127t136 49q85 0 137 -49t52 -127t-52 -127t-137 -49z" />
    <glyph glyph-name="uni1EDA" unicode="&#x1eda;" horiz-adv-x="1417" 
d="M1376 1438q0 -195 -223 -258q174 -182 174 -508q0 -325 -168 -510t-450 -186q-281 -1 -450 185t-169 510t168 505q168 180 451 180q162 0 292 -64q49 16 77 40t28 78t-33 101l238 103q65 -75 65 -176zM709 279q121 0 189 105q68 106 69 288q0 182 -69 281q-70 99 -190 99
t-189 -98q-69 -100 -69 -282t69 -288q69 -105 190 -105zM815 1434h-278l159 254h369z" />
    <glyph glyph-name="uni1EDB" unicode="&#x1edb;" horiz-adv-x="1146" 
d="M936 899q145 -154 145 -392t-151 -385q-152 -147 -358 -147q-207 0 -356 145q-150 145 -150 391q0 245 150 392q150 146 357 146q98 0 199 -39q98 24 96 116q0 48 -32 99l237 102q64 -74 65 -175q0 -100 -56 -164t-146 -89zM426 512q0 -254 148 -254t147 254
q1 254 -147 254t-148 -254zM647 1176h-254l180 315h336z" />
    <glyph glyph-name="uni1EDC" unicode="&#x1edc;" horiz-adv-x="1417" 
d="M1376 1438q0 -195 -223 -258q174 -182 174 -508q0 -325 -168 -510t-450 -186q-281 -1 -450 185t-169 510t168 505q168 180 451 180q162 0 292 -64q49 16 77 40t28 78t-33 101l238 103q65 -75 65 -176zM709 279q121 0 189 105q68 106 69 288q0 182 -69 281q-70 99 -190 99
t-189 -98q-69 -100 -69 -282t69 -288q69 -105 190 -105zM352 1688h369l160 -254h-279z" />
    <glyph glyph-name="uni1EDD" unicode="&#x1edd;" horiz-adv-x="1146" 
d="M936 899q145 -154 145 -392t-151 -385q-152 -147 -358 -147q-207 0 -356 145q-150 145 -150 391q0 245 150 392q150 146 357 146q98 0 199 -39q98 24 96 116q0 48 -32 99l237 102q64 -74 65 -175q0 -100 -56 -164t-146 -89zM426 512q0 -254 148 -254t147 254
q1 254 -147 254t-148 -254zM238 1491h335l181 -315h-254z" />
    <glyph glyph-name="uni1EDE" unicode="&#x1ede;" horiz-adv-x="1417" 
d="M1376 1438q0 -195 -223 -258q174 -182 174 -508q0 -325 -168 -510t-450 -186q-281 -1 -450 185t-169 510t168 505q168 180 451 180q162 0 292 -64q49 16 77 40t28 78t-33 101l238 103q65 -75 65 -176zM709 279q121 0 189 105q68 106 69 288q0 182 -69 281q-70 99 -190 99
t-189 -98q-69 -100 -69 -282t69 -288q69 -105 190 -105zM938 1623q0 -94 -86 -152t-221 -62l-25 135q84 10 82 49q0 50 -160 62l41 172q294 -11 352 -121q17 -35 17 -83z" />
    <glyph glyph-name="uni1EDF" unicode="&#x1edf;" horiz-adv-x="1146" 
d="M936 899q145 -154 145 -392t-151 -385q-152 -147 -358 -147q-207 0 -356 145q-150 145 -150 391q0 245 150 392q150 146 357 146q98 0 199 -39q98 24 96 116q0 48 -32 99l237 102q64 -74 65 -175q0 -100 -56 -164t-146 -89zM426 512q0 -254 148 -254t147 254
q1 254 -147 254t-148 -254zM553 1327q0 50 -160 62l41 172q296 -11 351 -121q17 -35 17 -83q1 -94 -85 -152t-221 -62l-25 135q35 4 59 14t23 35z" />
    <glyph glyph-name="uni1EE0" unicode="&#x1ee0;" horiz-adv-x="1417" 
d="M1376 1438q0 -195 -223 -258q174 -182 174 -508q0 -325 -168 -510t-450 -186q-281 -1 -450 185t-169 510t168 505q168 180 451 180q162 0 292 -64q49 16 77 40t28 78t-33 101l238 103q65 -75 65 -176zM709 279q121 0 189 105q68 106 69 288q0 182 -69 281q-70 99 -190 99
t-189 -98q-69 -100 -69 -282t69 -288q69 -105 190 -105zM823 1647q56 0 78 86h176q-19 -147 -84 -223t-141 -76q-77 0 -157 42t-101 44q-55 0 -78 -86h-176q18 156 86 228t140 71q72 1 129 -29t81 -44t47 -13z" />
    <glyph glyph-name="uni1EE1" unicode="&#x1ee1;" horiz-adv-x="1146" 
d="M936 899q145 -154 145 -392t-151 -385q-152 -147 -358 -147q-207 0 -356 145q-150 145 -150 391q0 245 150 392q150 146 357 146q98 0 199 -39q98 24 96 116q0 48 -32 99l237 102q64 -74 65 -175q0 -100 -56 -164t-146 -89zM426 512q0 -254 148 -254t147 254
q1 254 -147 254t-148 -254zM690 1389q24 0 39 18q16 18 29 68h176q-18 -158 -82 -229q-112 -125 -291 -27q-81 42 -104 42q-45 1 -68 -85h-176q17 158 81 228t136 71t130 -29t82 -44t48 -13z" />
    <glyph glyph-name="uni1EE2" unicode="&#x1ee2;" horiz-adv-x="1417" 
d="M1376 1438q0 -195 -223 -258q174 -182 174 -508q0 -325 -168 -510t-450 -186q-281 -1 -450 185t-169 510t168 505q168 180 451 180q162 0 292 -64q49 16 77 40t28 78t-33 101l238 103q65 -75 65 -176zM709 279q121 0 189 105q68 106 69 288q0 182 -69 281q-70 99 -190 99
t-189 -98q-69 -100 -69 -282t69 -288q69 -105 190 -105zM709 -479q-84 0 -137 49q-52 49 -52 127t52 127t136 49t137 -49q52 -49 52 -127t-52 -127t-136 -49z" />
    <glyph glyph-name="uni1EE3" unicode="&#x1ee3;" horiz-adv-x="1146" 
d="M936 899q145 -154 145 -392t-151 -385q-152 -147 -358 -147q-207 0 -356 145q-150 145 -150 391q0 245 150 392q150 146 357 146q98 0 199 -39q98 24 96 116q0 48 -32 99l237 102q64 -74 65 -175q0 -100 -56 -164t-146 -89zM426 512q0 -254 148 -254t147 254
q1 254 -147 254t-148 -254zM573 -479q-84 0 -136 49t-52 127t52 127t136 49q85 0 137 -49t52 -127t-52 -127t-137 -49z" />
    <glyph glyph-name="uni1EE4" unicode="&#x1ee4;" horiz-adv-x="1376" 
d="M139 1331h353v-729q0 -178 48 -251t152 -73t155 73q50 73 50 251v729h340v-688q0 -342 -133 -505t-413 -163t-416 163t-136 505v688zM688 -479q-84 0 -136 49t-52 127t52 127t136 49t136 -49t52 -127t-52 -127t-136 -49z" />
    <glyph glyph-name="uni1EE5" unicode="&#x1ee5;" horiz-adv-x="1183" 
d="M111 393v631h352v-586q1 -98 25 -131t75 -33t83 20t67 71v659h352v-1024h-287l-24 135h-9q-132 -160 -303 -160t-251 109t-80 309zM631 -479q-84 0 -136 49t-53 127q0 78 52 127t137 49q84 0 136 -49t52 -127t-52 -127t-136 -49z" />
    <glyph glyph-name="uni1EE6" unicode="&#x1ee6;" horiz-adv-x="1376" 
d="M139 1331h353v-729q0 -178 48 -251t152 -73t155 73q50 73 50 251v729h340v-688q0 -342 -133 -505t-413 -163t-416 163t-136 505v688zM668 1593q0 50 -160 62l41 172q296 -11 351 -121q18 -35 18 -83q1 -94 -86 -152t-222 -62l-24 135q82 9 82 49z" />
    <glyph glyph-name="uni1EE7" unicode="&#x1ee7;" horiz-adv-x="1183" 
d="M111 393v631h352v-586q1 -98 25 -131t75 -33t83 20t67 71v659h352v-1024h-287l-24 135h-9q-132 -160 -303 -160t-251 109t-80 309zM823 1357q0 -96 -86 -153t-221 -61l-24 135q34 4 58 14t23 35q0 25 -34 40q-35 15 -125 22l41 172q204 -8 286 -58t82 -146z" />
    <glyph glyph-name="uni1EE8" unicode="&#x1ee8;" horiz-adv-x="1417" 
d="M1438 1655q65 -75 65 -183t-74 -177q-74 -68 -192 -89v-563q0 -342 -133 -505t-413 -163t-416 163t-136 505v688h353v-729q0 -178 48 -251t152 -73t155 73q50 73 50 251v729h172q114 0 149 58q15 25 15 70t-33 93zM795 1434h-279l160 254h368z" />
    <glyph glyph-name="uni1EE9" unicode="&#x1ee9;" horiz-adv-x="1183" 
d="M1065 0h-287l-24 135h-9q-132 -160 -303 -160t-251 109t-80 309v631h352v-586q1 -98 25 -131t75 -33t83 20t67 71v659h114q115 0 149 57q15 25 15 71t-33 93l238 103q64 -74 65 -175q1 -100 -55 -162t-141 -91v-920zM641 1176h-254l180 315h336z" />
    <glyph glyph-name="uni1EEA" unicode="&#x1eea;" horiz-adv-x="1417" 
d="M1438 1655q65 -75 65 -183t-74 -177q-74 -68 -192 -89v-563q0 -342 -133 -505t-413 -163t-416 163t-136 505v688h353v-729q0 -178 48 -251t152 -73t155 73q50 73 50 251v729h172q114 0 149 58q15 25 15 70t-33 93zM332 1688h368l160 -254h-278z" />
    <glyph glyph-name="uni1EEB" unicode="&#x1eeb;" horiz-adv-x="1183" 
d="M1065 0h-287l-24 135h-9q-132 -160 -303 -160t-251 109t-80 309v631h352v-586q1 -98 25 -131t75 -33t83 20t67 71v659h114q115 0 149 57q15 25 15 71t-33 93l238 103q64 -74 65 -175q1 -100 -55 -162t-141 -91v-920zM231 1491h336l181 -315h-254z" />
    <glyph glyph-name="uni1EEC" unicode="&#x1eec;" horiz-adv-x="1417" 
d="M1438 1655q65 -75 65 -183t-74 -177q-74 -68 -192 -89v-563q0 -342 -133 -505t-413 -163t-416 163t-136 505v688h353v-729q0 -178 48 -251t152 -73t155 73q50 73 50 251v729h172q114 0 149 58q15 25 15 70t-33 93zM668 1593q0 50 -160 62l41 172q296 -11 351 -121
q18 -35 18 -83q1 -94 -86 -152t-222 -62l-24 135q82 9 82 49z" />
    <glyph glyph-name="uni1EED" unicode="&#x1eed;" horiz-adv-x="1183" 
d="M1065 0h-287l-24 135h-9q-132 -160 -303 -160t-251 109t-80 309v631h352v-586q1 -98 25 -131t75 -33t83 20t67 71v659h114q115 0 149 57q15 25 15 71t-33 93l238 103q64 -74 65 -175q1 -100 -55 -162t-141 -91v-920zM547 1327q0 50 -160 62l41 172q296 -11 351 -121
q17 -35 17 -83q1 -94 -85 -152t-222 -62l-24 135q35 4 59 14t23 35z" />
    <glyph glyph-name="uni1EEE" unicode="&#x1eee;" horiz-adv-x="1417" 
d="M1438 1655q65 -75 65 -183t-74 -177q-74 -68 -192 -89v-563q0 -342 -133 -505t-413 -163t-416 163t-136 505v688h353v-729q0 -178 48 -251t152 -73t155 73q50 73 50 251v729h172q114 0 149 58q15 25 15 70t-33 93zM803 1647q56 0 78 86h176q-19 -147 -84 -223t-143 -76
t-157 42t-100 44q-56 0 -77 -86h-177q19 156 87 228t141 71q73 1 128 -29q56 -30 81 -44t47 -13z" />
    <glyph glyph-name="uni1EEF" unicode="&#x1eef;" horiz-adv-x="1183" 
d="M1065 0h-287l-24 135h-9q-132 -160 -303 -160t-251 109t-80 309v631h352v-586q1 -98 25 -131t75 -33t83 20t67 71v659h114q115 0 149 57q15 25 15 71t-33 93l238 103q64 -74 65 -175q1 -100 -55 -162t-141 -91v-920zM684 1389q24 0 39 18q16 18 29 68h176
q-18 -158 -82 -229q-112 -125 -291 -27q-81 42 -104 42q-45 1 -68 -85h-176q17 158 81 228t136 71t130 -29t82 -44t48 -13z" />
    <glyph glyph-name="uni1EF0" unicode="&#x1ef0;" horiz-adv-x="1417" 
d="M1438 1655q65 -75 65 -183t-74 -177q-74 -68 -192 -89v-563q0 -342 -133 -505t-413 -163t-416 163t-136 505v688h353v-729q0 -178 48 -251t152 -73t155 73q50 73 50 251v729h172q114 0 149 58q15 25 15 70t-33 93zM688 -479q-84 0 -136 49t-52 127t52 127t136 49t136 -49
t52 -127t-52 -127t-136 -49z" />
    <glyph glyph-name="uni1EF1" unicode="&#x1ef1;" horiz-adv-x="1183" 
d="M1065 0h-287l-24 135h-9q-132 -160 -303 -160t-251 109t-80 309v631h352v-586q1 -98 25 -131t75 -33t83 20t67 71v659h114q115 0 149 57q15 25 15 71t-33 93l238 103q64 -74 65 -175q1 -100 -55 -162t-141 -91v-920zM604 -479q-84 0 -136 49t-52 127t52 127t136 49
t136 -49t52 -127t-52 -127t-136 -49z" />
    <glyph glyph-name="Ygrave" unicode="&#x1ef2;" horiz-adv-x="1114" 
d="M733 0h-352v459l-401 872h376l99 -278q25 -76 49 -148t51 -149h8q27 78 53 150t52 147l98 278h369l-402 -872v-459zM201 1688h368l160 -254h-278z" />
    <glyph glyph-name="ygrave" unicode="&#x1ef3;" horiz-adv-x="1110" 
d="M176 -98q177 -51 225 90l13 45l-389 987h352l123 -393q23 -72 39 -143t34 -148h9q16 74 31 146t34 145l103 393h335l-344 -1008q-88 -223 -188 -312t-283 -89q-87 0 -155 20zM229 1491h336l180 -315h-253z" />
    <glyph glyph-name="uni1EF4" unicode="&#x1ef4;" horiz-adv-x="1114" 
d="M733 0h-352v459l-401 872h376l99 -278q25 -76 49 -148t51 -149h8q27 78 53 150t52 147l98 278h369l-402 -872v-459zM561 -479q-84 0 -136 49t-52 127t52 127t136 49t136 -49q53 -49 53 -127t-52 -127t-137 -49z" />
    <glyph glyph-name="uni1EF5" unicode="&#x1ef5;" horiz-adv-x="1110" 
d="M176 -98q177 -51 225 90l13 45l-389 987h352l123 -393q23 -72 39 -143t34 -148h9q16 74 31 146t34 145l103 393h335l-344 -1008q-88 -223 -188 -312t-283 -89q-87 0 -155 20zM958 -459q-84 0 -136 49t-52 127t52 127q52 50 136 50t136 -50t53 -127q-1 -78 -53 -127
t-136 -49z" />
    <glyph glyph-name="uni1EF6" unicode="&#x1ef6;" horiz-adv-x="1114" 
d="M733 0h-352v459l-401 872h376l99 -278q25 -76 49 -148t51 -149h8q27 78 53 150t52 147l98 278h369l-402 -872v-459zM537 1593q0 50 -160 62l41 172q296 -11 351 -121q17 -35 17 -83q0 -95 -86 -153q-86 -57 -221 -61l-24 135q82 9 82 49z" />
    <glyph glyph-name="uni1EF7" unicode="&#x1ef7;" horiz-adv-x="1110" 
d="M176 -98q177 -51 225 90l13 45l-389 987h352l123 -393q23 -72 39 -143t34 -148h9q16 74 31 146t34 145l103 393h335l-344 -1008q-88 -223 -188 -312t-283 -89q-87 0 -155 20zM545 1327q0 50 -160 62l41 172q296 -11 351 -121q17 -35 17 -83q1 -94 -85 -152
q-87 -58 -222 -62l-24 135q35 4 59 14t23 35z" />
    <glyph glyph-name="uni1EF8" unicode="&#x1ef8;" horiz-adv-x="1114" 
d="M733 0h-352v459l-401 872h376l99 -278q25 -76 49 -148t51 -149h8q27 78 53 150t52 147l98 278h369l-402 -872v-459zM672 1647q56 0 78 86h176q-19 -147 -84 -223t-143 -76t-157 42t-100 44q-56 0 -77 -86h-177q18 156 86 228t141 71q73 1 129 -29t81 -44t47 -13z" />
    <glyph glyph-name="uni1EF9" unicode="&#x1ef9;" horiz-adv-x="1110" 
d="M176 -98q177 -51 225 90l13 45l-389 987h352l123 -393q23 -72 39 -143t34 -148h9q16 74 31 146t34 145l103 393h335l-344 -1008q-88 -223 -188 -312t-283 -89q-87 0 -155 20zM682 1389q24 0 39 18q16 18 29 68h176q-18 -158 -82 -229q-112 -125 -291 -27q-81 42 -104 42
q-45 1 -68 -85h-176q17 158 81 228t136 71t130 -29t82 -44t48 -13z" />
    <glyph glyph-name="uni2007" unicode="&#x2007;" horiz-adv-x="1105" 
 />
    <glyph glyph-name="figuredash" unicode="&#x2012;" horiz-adv-x="1105" 
d="M90 631h926v-221h-926v221z" />
    <glyph glyph-name="endash" unicode="&#x2013;" horiz-adv-x="983" 
d="M90 631h803v-221h-803v221z" />
    <glyph glyph-name="emdash" unicode="&#x2014;" horiz-adv-x="1638" 
d="M90 631h1458v-221h-1458v221z" />
    <glyph glyph-name="uni2015" unicode="&#x2015;" horiz-adv-x="1638" 
d="M90 631h1458v-221h-1458v221z" />
    <glyph glyph-name="uni2016" unicode="&#x2016;" horiz-adv-x="974" 
d="M578 1536h225v-2048h-225v2048zM172 1536h225v-2048h-225v2048z" />
    <glyph glyph-name="quoteleft" unicode="&#x2018;" horiz-adv-x="655" 
d="M328 623q-217 0 -217 307t319 459l74 -152q-197 -86 -197 -260q6 2 21 2q74 0 125 -45t51 -127t-49 -133t-127 -51z" />
    <glyph glyph-name="quoteright" unicode="&#x2019;" horiz-adv-x="655" 
d="M328 1425q217 0 217 -307t-320 -459l-73 152q196 86 196 260q-6 -2 -20 -2q-74 0 -125 45t-51 127t49 133t127 51z" />
    <glyph glyph-name="quotesinglbase" unicode="&#x201a;" horiz-adv-x="655" 
d="M328 47q-74 0 -125 45t-51 127t49 133t127 51q215 0 216 -307t-319 -458l-73 151q196 86 196 260q-6 -2 -20 -2z" />
    <glyph glyph-name="quotedblleft" unicode="&#x201c;" horiz-adv-x="1187" 
d="M328 623q-217 0 -217 307t319 459l74 -152q-98 -43 -148 -105t-49 -155q6 2 21 2q74 0 125 -45t51 -127t-49 -133t-127 -51zM860 623q-217 0 -217 307t320 459l73 -152q-98 -43 -147 -105t-49 -155q6 2 20 2q74 0 125 -45t51 -127t-49 -133t-127 -51z" />
    <glyph glyph-name="quotedblright" unicode="&#x201d;" horiz-adv-x="1187" 
d="M328 1069q-74 0 -125 45t-51 127t49 133t127 51q215 0 216 -307t-319 -459l-73 152q98 43 147 105t49 155q-6 -2 -20 -2zM860 1425q217 0 217 -307t-319 -459l-74 152q98 43 147 105t50 155q-6 -2 -21 -2q-74 0 -125 45t-51 127t49 133t127 51z" />
    <glyph glyph-name="quotedblbase" unicode="&#x201e;" horiz-adv-x="1187" 
d="M328 47q-74 0 -125 45t-51 127t49 133t127 51q215 0 216 -307t-319 -458l-73 151q196 86 196 260q-6 -2 -20 -2zM860 403q217 0 217 -307t-319 -458l-74 151q195 86 197 260q-6 -2 -21 -2q-74 0 -125 45t-51 127t49 133t127 51z" />
    <glyph glyph-name="dagger" unicode="&#x2020;" horiz-adv-x="1089" 
d="M426 856l-344 -20v278l344 -20l-20 364h278l-20 -364l344 20v-278l-344 20l20 -1020h-278z" />
    <glyph glyph-name="daggerdbl" unicode="&#x2021;" horiz-adv-x="1089" 
d="M82 459l344 -29l-20 217l20 217l-344 -28v278l344 -20l-20 364h278l-20 -364l344 20v-278l-344 28l20 -217l-20 -217l344 29v-279l-344 21l20 -365h-278l20 365l-344 -21v279z" />
    <glyph glyph-name="bullet" unicode="&#x2022;" horiz-adv-x="737" 
d="M368.5 238q-61.5 0 -113.5 23.5t-91 63.5t-60.5 94t-21.5 117.5t21.5 118t60.5 94t91 63.5t113.5 24t114 -24t91 -63.5t60 -94t21.5 -118t-21.5 -117.5t-60 -94t-91 -63.5t-114 -23.5z" />
    <glyph glyph-name="ellipsis" unicode="&#x2026;" horiz-adv-x="2027" 
d="M143 188q-1 90 57 152t148 61q90 0 148 -61q58 -62 57 -152q0 -90 -57 -151q-58 -61 -148 -61t-148 60q-58 62 -57 152zM819 188q-1 90 57 152t148 61q90 0 147 -61q57 -62 57 -152t-56 -151q-58 -61 -148 -61t-148 60q-58 62 -57 152zM1495 188q0 90 57 152
q58 62 148 61q90 0 147 -61q57 -62 57 -152t-56 -151q-58 -61 -148 -61t-148 60q-58 62 -57 152z" />
    <glyph glyph-name="perthousand" unicode="&#x2030;" horiz-adv-x="2600" 
d="M2211.5 631q-102.5 0 -102.5 -230q0 -135 31 -184t72 -49t71.5 49t30.5 184q0 230 -102.5 230zM2212 -25q-74 0 -137.5 29t-109.5 84t-71.5 134t-25.5 179.5t25.5 178t71.5 132t109.5 83t137.5 28.5t136 -28.5t108.5 -83t73 -132t26.5 -178t-26.5 -179.5t-73 -134
t-108.5 -84t-136 -29zM1392.5 631q-102.5 0 -102.5 -230q0 -135 31 -184t72 -49t71.5 49t30.5 184q0 230 -102.5 230zM1392.5 -25q-73.5 0 -137 29t-109.5 84t-71.5 134t-25.5 179.5t25.5 178t71.5 132t109.5 83t137 28.5t136 -28.5t108.5 -83t73 -132t27 -178t-27 -179.5
t-73 -134t-108.5 -84t-136 -29zM389.5 1163q-102.5 0 -102.5 -229q0 -135 30.5 -184.5t71.5 -49.5t72 49.5t31 184.5q0 229 -102.5 229zM389 508q-74 0 -137.5 28.5t-109.5 84t-71.5 134.5t-25.5 179t25.5 178t71.5 132t109.5 83t137.5 29t136.5 -29t108.5 -83t72.5 -132
t26.5 -178t-26.5 -179t-72.5 -134.5t-108.5 -84t-136.5 -28.5zM438 -25l713 1381h197l-713 -1381h-197z" />
    <glyph glyph-name="uni2032" unicode="&#x2032;" horiz-adv-x="655" 
d="M205 1401h352l-59 -332l-107 -405h-229z" />
    <glyph glyph-name="uni2033" unicode="&#x2033;" horiz-adv-x="1187" 
d="M205 1401h352l-59 -332l-107 -405h-229zM737 1401h353l-60 -332l-106 -405h-230z" />
    <glyph glyph-name="guilsinglleft" unicode="&#x2039;" horiz-adv-x="614" 
d="M102 393v246l275 287l127 -103l-221 -307l221 -307l-127 -103z" />
    <glyph glyph-name="guilsinglright" unicode="&#x203a;" horiz-adv-x="614" 
d="M332 516l-221 307l127 103l274 -287v-246l-274 -287l-127 103z" />
    <glyph glyph-name="uni203D" unicode="&#x203d;" horiz-adv-x="1019" 
d="M623 974q0 87 -53.5 124t-124.5 37t-123 -27t-105 -80l-192 176q82 92 203.5 142.5t231.5 50.5q212 0 345 -92.5t133 -255.5q0 -200 -112.5 -291.5t-175 -144t-52.5 -113.5h-246l-41 282l-28 242h278l-8 -231q70 94 70 181zM463 401q90 0 147.5 -61t57.5 -151.5
t-57.5 -152t-147.5 -61.5t-147.5 61.5t-57.5 152t57.5 151.5t147.5 61z" />
    <glyph glyph-name="fraction" unicode="&#x2044;" horiz-adv-x="204" 
d="M-352 -25l712 1381h197l-713 -1381h-196z" />
    <glyph glyph-name="zero.sups" unicode="&#x2070;" horiz-adv-x="778" 
d="M492 1303q0 229 -102 229t-103 -229q0 -135 30 -185q31 -49 72 -49t72 49t31 185zM389 877q-151 0 -248 114q-96 114 -96 310t97 310q97 115 246 114q150 -1 248 -116q99 -115 98 -308q-1 -194 -97 -309q-97 -115 -248 -115z" />
    <glyph glyph-name="i.sups" unicode="&#x2071;" horiz-adv-x="401" 
d="M78 1212h246v-680h-246v680zM200.5 1290q-59.5 0 -97 33t-37.5 86t37.5 86t97 33t97.5 -33t38 -86t-38 -86t-97.5 -33z" />
    <glyph glyph-name="four.sups" unicode="&#x2074;" horiz-adv-x="778" 
d="M778 1065h-119v-164h-225v164h-368v127l270 508h323v-471h119v-164zM434 1229v61l12 246h-8l-143 -307h139z" />
    <glyph glyph-name="five.sups" unicode="&#x2075;" horiz-adv-x="778" 
d="M449 1413q47 0 95 -17q96 -34 139 -133q22 -47 22 -107t-24 -112q-79 -170 -315 -168q-90 0 -176 40t-141 124l152 119q67 -89 153 -89q45 0 73 29t28 73t-32 69t-82 25t-97 -41l-105 73l33 402h502v-213h-301l-8 -80q38 6 84 6z" />
    <glyph glyph-name="six.sups" unicode="&#x2076;" horiz-adv-x="778" 
d="M468 1413q106 -1 174 -67t67 -183q0 -117 -84 -205q-83 -83 -207 -81q-252 0 -329 251q-23 78 -23 170q1 187 101 308q100 120 282 118q148 0 251 -92l-98 -155q-74 55 -147 55q-134 0 -156 -182q63 63 169 63zM403 1069q33 0 57 18t23 68q0 92 -86 90q-53 0 -98 -49
q10 -72 41 -100t63 -27z" />
    <glyph glyph-name="seven.sups" unicode="&#x2077;" horiz-adv-x="778" 
d="M102 1487v213h619v-135q-177 -225 -207 -480q-10 -84 -14 -184h-271q10 231 123 440q37 68 86 146h-336z" />
    <glyph glyph-name="eight.sups" unicode="&#x2078;" horiz-adv-x="778" 
d="M217 1315q-119 83 -119 187q0 103 84 162q84 60 209 60t207 -59t82 -162q0 -53 -33 -98t-86 -74v-8q59 -31 101 -85t43 -116q0 -62 -24 -105q-24 -42 -66 -73t-99 -49t-127 -18t-127 18q-116 37 -165 122q-23 43 -23 99t45 108t98 83v8zM455 1481q1 37 -19 54t-48 17
t-46 -16t-18 -47t26 -51t68 -37q37 43 37 80zM303 1142q0 -50 25 -74q26 -24 62 -24t61 24t25 60t-34 54q-33 18 -86 47q-53 -38 -53 -87z" />
    <glyph glyph-name="nine.sups" unicode="&#x2079;" horiz-adv-x="778" 
d="M323 1069q134 0 156 182q-63 -63 -169 -63t-174 66t-66 186q0 118 84 202t206 82q170 0 262 -116q91 -116 91 -304q0 -187 -101 -308t-282 -119q-149 0 -252 92l98 155q75 -55 147 -55zM381 1356q51 0 98 49q-10 71 -41 99q-30 28 -62 28t-57 -18t-24 -68q0 -90 86 -90z
" />
    <glyph glyph-name="parenleft.sups" unicode="&#x207d;" horiz-adv-x="573" 
d="M504 1823q-270 -520 0 -1041l-189 -73q-95 148 -141 279q-47 131 -47 315q0 251 109 457q35 67 79 136z" />
    <glyph glyph-name="parenright.sups" unicode="&#x207e;" horiz-adv-x="573" 
d="M205 1301q0 259 -135 522l188 73q97 -151 131 -248q57 -166 57 -345q0 -253 -108 -459q-35 -66 -80 -135l-188 73q135 260 135 519z" />
    <glyph glyph-name="n.sups" unicode="&#x207f;" horiz-adv-x="798" 
d="M516 1229q212 0 213 -283v-414h-246v386q0 55 -11 80.5t-47 25.5t-56.5 -14.5t-44.5 -36.5v-441h-246v680h196l21 -86h4q103 103 217 103z" />
    <glyph glyph-name="zero.subs" unicode="&#x2080;" horiz-adv-x="778" 
d="M492 -154q0 230 -102 230t-103 -230q1 -135 31 -184t71 -49t72 49t31 184zM389 -580q-150 0 -247 114t-97 311q0 196 97 310q97 115 246 114q150 -1 248 -116q99 -115 98 -308q-1 -194 -98 -309q-97 -116 -247 -116z" />
    <glyph glyph-name="one.subs" unicode="&#x2081;" horiz-adv-x="778" 
d="M332 -2h-185v156q129 17 190 57q24 14 52 33h201v-799h-258v553z" />
    <glyph glyph-name="two.subs" unicode="&#x2082;" horiz-adv-x="778" 
d="M365 268q139 0 223 -72t84 -202q0 -90 -56 -173t-124 -163h204v-213h-610v135q254 199 313 293q27 41 27 85t-27 73t-82 29t-129 -91l-143 131q133 168 320 168z" />
    <glyph glyph-name="three.subs" unicode="&#x2083;" horiz-adv-x="778" 
d="M201 -297q68 -90 161 -90t93 84t-168 84v143q63 0 101 18t38 64q0 68 -82 70q-57 0 -119 -74l-143 127q136 139 286 139q212 -1 284 -132q24 -42 24 -93q0 -109 -107 -180q136 -67 136 -183t-94 -187t-215 -72q-239 -2 -347 163z" />
    <glyph glyph-name="four.subs" unicode="&#x2084;" horiz-adv-x="778" 
d="M778 -391h-119v-164h-225v164h-368v127l270 508h323v-471h119v-164zM434 -227v61l12 246h-8l-143 -307h139z" />
    <glyph glyph-name="five.subs" unicode="&#x2085;" horiz-adv-x="778" 
d="M201 -297q68 -90 153 -90q45 0 73 30q28 29 28 73t-32 69t-82 25t-97 -41l-105 73l33 402h502v-213h-301l-8 -80q38 6 84 6q109 0 183 -72t73 -189q0 -116 -90 -196t-215 -80q-244 0 -351 164z" />
    <glyph glyph-name="six.subs" unicode="&#x2086;" horiz-adv-x="778" 
d="M468 -43q106 0 174 -67t67 -184q0 -117 -83 -202q-83 -84 -208 -84q-170 0 -262 118t-91 305t102 307t282 118q148 0 251 -92l-98 -156q-73 54 -146 55q-134 1 -157 -181q63 63 169 63zM403 -387q33 0 57 18t23 68q0 92 -86 90q-53 0 -98 -49q10 -72 41 -100t63 -27z" />
    <glyph glyph-name="seven.subs" unicode="&#x2087;" horiz-adv-x="778" 
d="M102 31v213h619v-135q-177 -225 -207 -480q-10 -84 -14 -184h-271q10 231 123 440q37 68 86 146h-336z" />
    <glyph glyph-name="eight.subs" unicode="&#x2088;" horiz-adv-x="778" 
d="M217 -141q-119 83 -119 187q0 103 84 162q84 60 209 60t207 -59t82 -162q0 -53 -33 -98t-86 -74v-8q59 -31 101 -85t43 -116q0 -111 -90 -178q-90 -66 -225 -67t-225 66q-91 67 -91 163q0 66 45 118t98 82v9zM455 25q1 37 -19 54t-48 17t-46 -16t-18 -47t26 -51t68 -37
q37 43 37 80zM303 -314q0 -50 25 -74q26 -24 62 -24t61 24t25 60t-34 54q-33 18 -86 47q-53 -38 -53 -87z" />
    <glyph glyph-name="nine.subs" unicode="&#x2089;" horiz-adv-x="778" 
d="M323 -387q134 0 156 182q-63 -63 -169 -63t-174 66t-66 186q0 118 84 202t206 82q170 0 262 -116q91 -116 91 -305q0 -188 -101 -307q-101 -120 -265 -120q-165 0 -269 93l98 155q75 -55 147 -55zM381 -100q51 0 98 49q-10 71 -41 99q-30 28 -62 28t-57 -18t-24 -68
q0 -90 86 -90z" />
    <glyph glyph-name="parenleft.subs" unicode="&#x208d;" horiz-adv-x="573" 
d="M504 367q-270 -520 0 -1041l-189 -74q-94 146 -129 245t-47 177t-12 172t12 172q30 192 176 422z" />
    <glyph glyph-name="parenright.subs" unicode="&#x208e;" horiz-adv-x="573" 
d="M205 -155q0 259 -135 522l188 73q97 -151 131 -248q57 -166 57 -346q0 -252 -108 -458q-35 -66 -80 -136l-188 74q135 260 135 519z" />
    <glyph glyph-name="uni0259.sups" unicode="&#x2094;" horiz-adv-x="716" 
d="M246 803q0 -103 92 -103q85 0 104 103h-196zM82 1151q112 78 259 78t239 -99.5t92 -257.5q0 -159 -98.5 -257.5t-239.5 -98.5t-217 93t-76 239q0 44 12 90h385q-16 59 -48 82.5t-99 23.5t-127 -36z" />
    <glyph glyph-name="colonmonetary" unicode="&#x20a1;" horiz-adv-x="1105" 
d="M198 242q-92 153 -92 415t133.5 437.5t358.5 218.5l25 211h110l-24 -201h16q25 0 53 -4l25 205h110l-26 -232q116 -48 203 -149l-193 -189q-20 23 -47 43l-88 -743q72 18 131 90l192 -180q-149 -169 -356 -187l-24 -202h-111l24 205q-58 7 -69 10l-25 -215h-110l28 248
q-152 66 -244 219zM459 651q0 -141 33 -231l67 573q-100 -100 -100 -342zM719 1053h-17q-16 0 -26 -2l-90 -768q27 -20 65 -31l94 799q-10 2 -26 2z" />
    <glyph glyph-name="lira" unicode="&#x20a4;" horiz-adv-x="1105" 
d="M868 602v-172h-258q-14 -59 -69 -127v-8h512v-295h-959v217q70 29 126 83t79 130h-193v160l156 12h37q-7 29 -27 90h-166v160l115 12h4v21q0 200 129.5 319t340.5 119q210 0 358 -172l-189 -188q-66 77 -140 77q-162 -1 -163 -176h307v-172h-278l20 -90h258z" />
    <glyph glyph-name="uni20A6" unicode="&#x20a6;" horiz-adv-x="1105" 
d="M967 700v-90h139v-131h-139v-479h-320l-147 442l-11 37h-100v-479h-250v479h-139v119l139 12v90h-139v119l139 12v467h320l147 -442l6 -25h105v467h250v-467h139v-131h-139zM348 831h43l-59 216h-8zM453 610l-25 90h-63l10 -90h78zM756 479h-45l63 -227h8zM731 700h-82
l25 -90h67z" />
    <glyph glyph-name="peseta" unicode="&#x20a7;" horiz-adv-x="1105" 
d="M512 1298q399 0 461 -335h117v-213h-115q-30 -164 -158.5 -252t-304.5 -88h-61v-410h-332v750h-119v200l119 11v337h393zM451 1081v-118h194q-33 119 -149 118h-45zM496 627q117 0 151 123h-196v-123h45z" />
    <glyph glyph-name="dong" unicode="&#x20ab;" horiz-adv-x="1105" 
d="M221 342q-90 100 -90 279t105 278.5t235 99.5q66 0 106.5 -18t81.5 -55l-8 123v16h-295v172h295v86h287v-86h145v-160l-145 -12v-803h-238l-20 70h-4q-86 -90 -225 -90q-140 0 -230 100zM426 629q0 -158 111 -158q37 0 61.5 13.5t52.5 47.5v193q-47 41 -98 41t-89 -34
t-38 -103zM160 172h848v-172h-848v172z" />
    <glyph glyph-name="Euro" unicode="&#x20ac;" horiz-adv-x="1105" 
d="M41 426v160l106 8v41q0 41 3 53h-109v160l129 10q53 225 200.5 345t351.5 120t347 -160l-192 -188q-82 78 -164 78q-143 0 -191 -193h404v-172h-426v-39q0 -39 2 -51h342v-172h-318q55 -180 199 -180q95 0 168 98l192 -180q-160 -189 -370 -189q-209 0 -352.5 116
t-192.5 335h-129z" />
    <glyph glyph-name="uni20B1" unicode="&#x20b1;" horiz-adv-x="1105" 
d="M512 1298q356 0 444 -270h134v-131h-109q2 -12 2 -15v-67h107v-131h-134q-49 -136 -167.5 -205t-276.5 -69h-61v-410h-332v684h-119v119l119 10v84h-119v119l119 10v272h393zM451 1081v-53h163q-39 53 -118 53h-45zM496 627q78 0 118 57h-163v-57h45zM659 826v30
q0 29 -2 41h-206v-82h206q2 8 2 11z" />
    <glyph glyph-name="uni20B2" unicode="&#x20b2;" horiz-adv-x="1105" 
d="M655 1053q-233 0 -233 -402q0 -199 64.5 -296t181.5 -97q37 0 61 8v213h-115v287h426v-639q-125 -109 -282 -141v-211h-230v211q-208 37 -333 204t-125 446t123.5 452t334.5 221v215h230v-209q158 -31 286 -160l-192 -188q-47 41 -91 63.5t-106 22.5z" />
    <glyph glyph-name="uni20B5" unicode="&#x20b5;" horiz-adv-x="1105" 
d="M782 -225h-188v207q-221 29 -354.5 198.5t-133.5 454.5t132 459t356 217v188h188v-180q171 -22 287 -156l-192 -188q-45 49 -95 65v-780q59 25 111 84l192 -180q-131 -145 -303 -180v-209zM594 1020q-135 -81 -135 -371q0 -289 135 -373v744z" />
    <glyph glyph-name="uni20B9" unicode="&#x20b9;" horiz-adv-x="1105" 
d="M139 373v278h127q154 0 197 107h-324v160l156 12h170q-20 51 -70.5 70.5t-128.5 19.5h-127v278h824v-172h-263q92 -74 115 -196h148v-172h-146q-29 -216 -217 -318l338 -440h-393l-266 373h-140z" />
    <glyph glyph-name="uni20BA" unicode="&#x20ba;" horiz-adv-x="1105" 
d="M1049 555q0 -289 -224.5 -440.5t-660.5 -139.5v443l-144 -78v188l144 78v99l-144 -78v188l144 78v405h352v-233l283 152v-189l-283 -151v-99l283 152v-189l-283 -151v-287q104 14 169 81t65 157v14q0 14 -5 35l289 65q15 -54 15 -100z" />
    <glyph glyph-name="uni2113" unicode="&#x2113;" horiz-adv-x="1011" 
d="M1032 143q-194 -168 -356 -168q-168 0 -284 75.5t-154 211.5l-97 -57l-129 213l209 125v413q0 253 113.5 386t289.5 133q177 0 272 -97.5t95 -276.5t-97 -322t-329 -306v-45q0 -86 43.5 -124t103.5 -38t108 30t85 60zM713 1116q0 105 -65 105q-32 0 -57.5 -47.5
t-25.5 -172.5v-210q148 140 148 325z" />
    <glyph glyph-name="uni2117" unicode="&#x2117;" horiz-adv-x="1540" 
d="M246 668q0 -123 40 -223.5t110.5 -172t165.5 -110.5t208 -39t208 39t165.5 110.5t110.5 172t40 223.5t-40 222t-110.5 168.5t-165.5 107.5t-208 38t-208 -38t-165.5 -107.5t-110.5 -168.5t-40 -222zM90 667.5q0 159.5 55.5 285.5t148.5 212t216 132t260 46t260 -46
t216 -133t148.5 -212t55.5 -284.5t-55.5 -286.5t-148.5 -215t-216 -135t-260 -47t-260 47t-216 135t-148.5 215t-55.5 286.5zM766 631q143 0 143 119q0 55 -35.5 78.5t-107.5 23.5h-37v-221h37zM479 1036h303q261 0 315 -100t54 -179q0 -152 -104.5 -227t-264.5 -75h-53
v-168h-250v749z" />
    <glyph glyph-name="uni2120" unicode="&#x2120;" horiz-adv-x="1433" 
d="M651 1384h258l70 -167l37 -127h8l37 127l69 167h259v-647h-218v164l25 246h-8l-94 -316h-148l-94 316h-8l24 -246v-164h-217v647zM313 1241q-51 0 -51 -33q0 -16 19.5 -25t54.5 -24l82 -33q135 -54 135 -192q0 -91 -74.5 -156t-201.5 -65t-248 102l114 139
q82 -73 160 -73q45 0 45 28q0 18 -19.5 28.5t-52.5 25.5l-83 36q-132 60 -132 197q0 89 71.5 151t191.5 62q119 0 229 -82l-102 -143q-87 57 -138 57z" />
    <glyph glyph-name="trademark" unicode="&#x2122;" horiz-adv-x="1433" 
d="M176 1180h-168v204h561v-204h-168v-443h-225v443zM651 1384h258l70 -167l37 -127h8l37 127l69 167h259v-647h-218v164l25 246h-8l-94 -316h-148l-94 316h-8l24 -246v-164h-217v647z" />
    <glyph glyph-name="uni2126" unicode="&#x2126;" horiz-adv-x="1523" 
d="M1405 741q0 -246 -184 -450v-8h217v-283h-598v229q111 96 157.5 216t46.5 278t-76.5 254t-205.5 96t-206 -96t-77 -254t47 -277.5t158 -216.5v-229h-598v283h217v8q-121 129 -152.5 252t-31.5 198q0 297 177 466t466 169t466 -169t177 -466z" />
    <glyph glyph-name="estimated" unicode="&#x212e;" horiz-adv-x="1638" 
d="M1272 686q10 0 10 10v377q0 23 -18 45q-186 195 -442 195q-255 0 -443 -201q-18 -23 -19 -47v-369q0 -10 9 -10h903zM833 -23q-164 0 -295.5 54.5t-230 147.5t-156 218t-57.5 268.5t57.5 268.5t156 218t230.5 147.5t282 54.5t282.5 -54.5t231 -147.5t155.5 -218t57 -268
v-19h-1177q-8 0 -9 -8v-375q0 -15 17 -43q181 -203 450 -203q137 0 257 61.5t206 166.5h107q-100 -123 -250 -196t-314 -73z" />
    <glyph glyph-name="onethird" unicode="&#x2153;" horiz-adv-x="1740" 
d="M268 1085h-184v156q85 11 131 29t111 61h200v-799h-258v553zM344 -25l713 1381h196l-712 -1381h-197zM1667 225q0 -106 -94 -177t-214 -72q-239 -2 -347 163l151 119q68 -90 156 -90q41 0 70 20t29 62q-1 85 -169 86v143q63 -1 101 17t39 65q0 68 -82 70q-60 0 -119 -74
l-144 127q138 140 288 140q140 -1 224 -65q84 -63 83 -167t-107 -174q135 -66 135 -193z" />
    <glyph glyph-name="twothirds" unicode="&#x2154;" horiz-adv-x="1761" 
d="M369 1356q139 0 223 -73t84 -202q0 -90 -56 -173t-124 -163h204v-213h-610v136q256 201 313 293q27 41 27 85t-27 72q-27 29 -82 29t-128 -90l-144 131q133 168 320 168zM446 -25l713 1381h197l-713 -1381h-197zM1184 258q68 -90 161 -90t93 84t-168 84v143q63 -1 101 17
t38 65q0 68 -82 70q-57 0 -119 -74l-143 127q137 140 287 140q212 -1 283 -133q24 -42 24 -93q0 -109 -107 -180q136 -67 136 -183t-94 -187t-215 -72q-237 -2 -347 163z" />
    <glyph glyph-name="oneeighth" unicode="&#x215b;" horiz-adv-x="1740" 
d="M268 1085h-184v156q85 11 131 29t111 61h200v-799h-258v553zM365 -25l712 1381h197l-713 -1381h-196zM1667 220q0 -112 -89 -177q-89 -66 -224 -67t-226 66q-92 67 -92 163q0 66 45 118t99 83v8q-119 83 -119 187t84 163q83 59 207 59t208 -60t83 -164q-1 -105 -119 -169
v-8q59 -31 101 -85q42 -55 42 -117zM1417 580q0 37 -19 54t-47 17t-46 -16q-19 -16 -19 -47q0 -30 26 -50t68 -38q37 43 37 80zM1266 241q0 -49 24 -73t62 -25q38 0 62 24q24 23 24 59t-33 54t-86 48q-53 -38 -53 -87z" />
    <glyph glyph-name="threeeighths" unicode="&#x215c;" horiz-adv-x="1761" 
d="M82 1217q134 139 286 139q209 0 284 -132q24 -42 24 -94q0 -109 -107 -180q136 -67 136 -184t-96 -187q-96 -71 -214 -71q-238 0 -346 164l152 119q68 -91 152 -91q44 0 73 20t29 58q0 92 -168 90v144q63 0 101 17t38 65q0 69 -82 69q-58 0 -119 -73zM426 -25l713 1381
h196l-712 -1381h-197zM1200 414q-119 83 -119 187q0 103 84 162q84 60 209 60t207 -59t82 -162q0 -53 -33 -98t-86 -74v-8q60 -31 102 -85q42 -55 42 -117q0 -111 -90 -177t-225 -67t-225 66q-91 67 -91 163q0 66 45 118t98 83v8zM1438 580q0 37 -20 54t-47 17
q-28 0 -46 -16t-18 -47q1 -30 27 -50t67 -38q37 43 37 80zM1286 241q0 -49 25 -73t61 -25q36 0 62 24q24 23 24 59t-33 54t-86 48q-53 -38 -53 -87z" />
    <glyph glyph-name="fiveeighths" unicode="&#x215d;" horiz-adv-x="1761" 
d="M449 1044q47 0 95 -17q96 -34 139 -133q22 -48 22 -108q0 -119 -92 -199q-92 -81 -214 -80q-243 2 -350 165l152 119q68 -91 153 -91q45 0 73 30t28 74t-32 68t-83 25q-51 0 -96 -41l-105 74l33 401h502v-213h-301l-8 -80q38 6 84 6zM426 -25l713 1381h196l-712 -1381
h-197zM1200 414q-119 83 -119 187q0 103 84 162q84 60 209 60t207 -59t82 -162q0 -53 -33 -98t-86 -74v-8q60 -31 102 -85q42 -55 42 -117q0 -111 -90 -177t-225 -67t-225 66q-91 67 -91 163q0 66 45 118t98 83v8zM1438 580q0 37 -20 54t-47 17q-28 0 -46 -16t-18 -47
q1 -30 27 -50t67 -38q37 43 37 80zM1286 241q0 -49 25 -73t61 -25q36 0 62 24q24 23 24 59t-33 54t-86 48q-53 -38 -53 -87z" />
    <glyph glyph-name="seveneighths" unicode="&#x215e;" horiz-adv-x="1720" 
d="M63 1118v213h619v-135q-177 -225 -207 -479q-10 -84 -14 -185h-271q11 232 123 441q37 68 86 145h-336zM324 -25l712 1381h197l-713 -1381h-196zM1159 414q-119 83 -119 187q0 103 84 162q84 60 209 60t207 -59t82 -162q0 -53 -33 -98t-86 -74v-8q59 -31 101 -85
q42 -55 43 -117q0 -110 -89 -177q-89 -66 -225 -67t-226 66q-91 67 -91 163q0 66 45 118t98 83v8zM1397 580q1 37 -19 54t-48 17t-46 -16t-18 -47q0 -30 26 -50t68 -38q37 43 37 80zM1245 241q0 -49 25 -73q26 -24 62 -25q36 0 61 24q25 23 25 59t-34 54q-33 18 -86 48
q-53 -38 -53 -87z" />
    <glyph glyph-name="uni2190" unicode="&#x2190;" horiz-adv-x="1261" 
d="M1180 655v-278h-668l266 -225l-164 -189l-573 549v8l573 549l164 -188l-266 -226h668z" />
    <glyph glyph-name="arrowup" unicode="&#x2191;" horiz-adv-x="1261" 
d="M770 -53h-278v667l-226 -266l-188 164l549 573h8l549 -573l-189 -164l-225 266v-667z" />
    <glyph glyph-name="uni2192" unicode="&#x2192;" horiz-adv-x="1261" 
d="M82 377v278h668l-267 226l164 188l574 -549v-8l-574 -549l-164 189l267 225h-668z" />
    <glyph glyph-name="arrowdown" unicode="&#x2193;" horiz-adv-x="1261" 
d="M492 1085h278v-667l225 266l189 -164l-549 -573h-8l-549 573l188 164l226 -266v667z" />
    <glyph glyph-name="partialdiff" unicode="&#x2202;" horiz-adv-x="1220" 
d="M625 1376q244 0 368.5 -170.5t124.5 -447.5q0 -352 -168 -567.5t-432 -215.5q-173 0 -293.5 113t-120.5 310t124.5 331.5t314.5 134.5q144 0 243 -116v20q0 326 -200 326q-109 0 -203 -90l-150 217q189 155 392 155zM588 598q-162 0 -162 -206q0 -67 40 -100.5t80 -33.5
q77 0 129.5 50.5t84.5 180.5q-61 109 -172 109z" />
    <glyph glyph-name="uni2206" unicode="&#x2206;" horiz-adv-x="1376" 
d="M905 295l-131 410l-82 323h-8l-82 -323l-131 -410h434zM1303 0h-1229v213l401 1139h426l402 -1139v-213z" />
    <glyph glyph-name="product" unicode="&#x220f;" horiz-adv-x="1482" 
d="M156 1298h1171v-1544h-352v1237h-467v-1237h-352v1544z" />
    <glyph glyph-name="summation" unicode="&#x2211;" horiz-adv-x="1118" 
d="M78 1298h971v-294h-545v-9l307 -471l-319 -467v-8h602v-295h-1037v205l398 565l-377 570v204z" />
    <glyph glyph-name="minus" unicode="&#x2212;" horiz-adv-x="1105" 
d="M70 799h966v-246h-966v246z" />
    <glyph glyph-name="uni2215" unicode="&#x2215;" horiz-adv-x="204" 
d="M-352 -25l712 1381h197l-713 -1381h-196z" />
    <glyph glyph-name="uni2219" unicode="&#x2219;" horiz-adv-x="1105" 
d="M348 676q0 90 58 151t147 61q90 0 147 -60q58 -62 58 -152t-58 -152t-147 -61q-89 -1 -147 61t-58 152z" />
    <glyph glyph-name="radical" unicode="&#x221a;" horiz-adv-x="1228" 
d="M623 369q20 -80 45 -185h8q12 97 33 185l307 1310h229l-442 -1831h-238l-307 828l-156 -62l-57 160l389 156z" />
    <glyph glyph-name="infinity" unicode="&#x221e;" horiz-adv-x="1691" 
d="M651 631q-87 139 -203 139q-62 0 -91 -35t-29 -84t35 -92t97 -43q112 0 191 115zM1364 702q0 76 -50 123t-122 47q-150 0 -254 -147q75 -103 127.5 -150t129.5 -47t123 49t46 125zM74 643q0 215 112.5 333t306.5 118t322 -181h8q168 213 391 213q173 0 288.5 -123
t115.5 -303q0 -231 -121 -363t-303 -132q-129 0 -225.5 54t-194.5 183h-8q-134 -180 -330 -180q-152 0 -257 114t-105 267z" />
    <glyph glyph-name="integral" unicode="&#x222b;" horiz-adv-x="843" 
d="M184 -61q76 0 101.5 54t25.5 184q0 182 -36.5 455.5t-36.5 426.5q0 154 34.5 358.5t389.5 204.5q52 0 124 -16l-32 -254q-27 8 -74 8q-78 0 -102.5 -55.5t-24.5 -185.5q0 -180 37 -457t37 -427q0 -149 -35.5 -354t-388.5 -205q-49 0 -125 17l33 254q27 -8 73 -8z" />
    <glyph glyph-name="approxequal" unicode="&#x2248;" horiz-adv-x="1105" 
d="M381 1118q93 0 197 -75q38 -29 74 -51t77 -21q78 0 143 114l181 -139q-151 -221 -328 -221q-66 0 -112 23q-46 22 -85 50q-38 28 -74 52t-77 22q-77 0 -144 -114l-180 139q151 221 328 221zM381 629q63 0 111 -24q48 -23 86 -51t74 -50t77 -23q78 0 143 115l181 -139
q-151 -221 -328 -221q-66 0 -112 22t-85 50q-38 28 -74 52t-77 23q-77 0 -144 -115l-180 140q151 221 328 221z" />
    <glyph glyph-name="notequal" unicode="&#x2260;" horiz-adv-x="1105" 
d="M70 307v246h307l135 246h-442v245h577l144 246h217l-144 -246h172v-245h-307l-135 -246h442v-246h-577l-144 -246h-217l144 246h-172z" />
    <glyph glyph-name="lessequal" unicode="&#x2264;" horiz-adv-x="1105" 
d="M70 885l966 282v-286l-610 -136v-8l287 -61l323 -74v-287l-966 283v287zM70 246h966v-246h-966v246z" />
    <glyph glyph-name="greaterequal" unicode="&#x2265;" horiz-adv-x="1105" 
d="M1036 598l-966 -283v287l323 74l287 61v8l-610 136v286l966 -282v-287zM70 246h966v-246h-966v246z" />
    <glyph glyph-name="uni231C" unicode="&#x231c;" horiz-adv-x="737" 
d="M172 1417h459v-184h-197v-1233h-262v1417z" />
    <glyph glyph-name="uni231D" unicode="&#x231d;" horiz-adv-x="737" 
d="M565 0h-262v1233h-197v184h459v-1417z" />
    <glyph glyph-name="uni231E" unicode="&#x231e;" horiz-adv-x="737" 
d="M172 1298h262v-1232h197v-185h-459v1417z" />
    <glyph glyph-name="uni231F" unicode="&#x231f;" horiz-adv-x="737" 
d="M565 -119h-459v185h197v1232h262v-1417z" />
    <glyph glyph-name="uni25A0" unicode="&#x25a0;" horiz-adv-x="737" 
d="M111 799h516v-525h-516v525z" />
    <glyph glyph-name="triagup" unicode="&#x25b2;" horiz-adv-x="1228" 
d="M1192 29h-1155v4l573 1093h8l574 -1093v-4z" />
    <glyph glyph-name="uni25B3" unicode="&#x25b3;" horiz-adv-x="1228" 
d="M1192 29h-1155v4l573 1093h8l574 -1093v-4zM807 254l-193 385l-190 -385h383z" />
    <glyph glyph-name="uni25B6" unicode="&#x25b6;" horiz-adv-x="1228" 
d="M106 1155h5l1093 -573v-9l-1093 -573h-5v1155z" />
    <glyph glyph-name="uni25B7" unicode="&#x25b7;" horiz-adv-x="1228" 
d="M106 1155h5l1093 -573v-9l-1093 -573h-5v1155zM717 578l-385 190v-383z" />
    <glyph glyph-name="triagdn" unicode="&#x25bc;" horiz-adv-x="1228" 
d="M37 1126h1155v-4l-574 -1093h-8l-573 1093v4z" />
    <glyph glyph-name="uni25BD" unicode="&#x25bd;" horiz-adv-x="1228" 
d="M37 1126h1155v-4l-574 -1093h-8l-573 1093v4zM424 901l190 -385l193 385h-383z" />
    <glyph glyph-name="uni25C0" unicode="&#x25c0;" horiz-adv-x="1228" 
d="M1122 1155v-1155h-4l-1093 573v9l1093 573h4z" />
    <glyph glyph-name="uni25C1" unicode="&#x25c1;" horiz-adv-x="1228" 
d="M1122 0h-4l-1093 573v9l1093 573h4v-1155zM897 385v383l-385 -190z" />
    <glyph glyph-name="uni25C6" unicode="&#x25c6;" horiz-adv-x="737" 
d="M12 537l357 356l356 -356l-356 -357z" />
    <glyph glyph-name="uni25C9" unicode="&#x25c9;" horiz-adv-x="1024" 
d="M512 274q109 0 179.5 74t70.5 188.5t-70.5 188.5t-179.5 74t-179.5 -74t-70.5 -188.5t70.5 -188.5t179.5 -74zM512 102q-92 0 -171 33t-136.5 90.5t-90 137t-32.5 174t32.5 174.5t90 137t136.5 90t171 33t171 -33t136.5 -90t90 -137t32.5 -174.5t-32.5 -174t-90 -137
t-136.5 -90.5t-171 -33zM512 387q-61 0 -102 43t-41 106.5t41 106.5t102 43t102 -43t41 -106.5t-41 -106.5t-102 -43z" />
    <glyph glyph-name="lozenge" unicode="&#x25ca;" horiz-adv-x="1146" 
d="M578 274l102 238l78 164l-78 164l-102 237h-9l-102 -237l-78 -164l78 -164l102 -238h9zM102 676l332 696h279l331 -696l-331 -696h-279z" />
    <glyph glyph-name="uni2610" unicode="&#x2610;" horiz-adv-x="1658" 
d="M1507 1384v-1241l-143 -163h-1212v1261l163 143h1192zM1315 111v1081h-1032v-1081h1032z" />
    <glyph glyph-name="uni2611" unicode="&#x2611;" horiz-adv-x="1658" 
d="M152 -20v1261l163 143h899q100 156 232 295l213 -184q-76 -72 -152 -164v-1188l-143 -163h-1212zM283 1192v-1081h1032v950q-220 -359 -336 -799l-324 -37q-112 300 -286 553l221 144q98 -160 201 -439h8q113 381 297 709h-813z" />
    <glyph glyph-name="uni266A" unicode="&#x266a;" horiz-adv-x="1146" 
d="M926 784q0 97 -55.5 176.5t-157.5 114.5v-702q0 -213 -113 -323.5t-313 -110.5q-159 0 -198.5 67.5t-39.5 120.5t28.5 105.5t106.5 113t222 60.5q88 0 118 -25v1040h185q17 -34 41.5 -54.5t105.5 -76.5q147 -98 206.5 -195t59.5 -205q0 -187 -114 -333l-111 45
q29 85 29 182z" />
    <glyph glyph-name="uni2713" unicode="&#x2713;" horiz-adv-x="1351" 
d="M242 717q120 -187 250 -500h8q168 563 354 828.5t285 367.5l213 -184q-457 -428 -680 -1233l-324 -37q-126 337 -328 614z" />
    <glyph glyph-name="uni2752" unicode="&#x2752;" horiz-adv-x="880" 
d="M770 860v-524l-123 -143h-536v544l143 123h516zM598 303v385h-377v-385h377z" />
    <glyph glyph-name="uni27E6" unicode="&#x27e6;" horiz-adv-x="942" 
d="M373 -127h106v1393h-106v-1393zM172 1450h664v-184h-177v-1393h177v-184h-664v1761z" />
    <glyph glyph-name="uni27E7" unicode="&#x27e7;" horiz-adv-x="942" 
d="M463 1266v-1393h106v1393h-106zM770 -311h-664v184h177v1393h-177v184h664v-1761z" />
    <glyph glyph-name="uni2E22" unicode="&#x2e22;" horiz-adv-x="737" 
d="M172 1450h459v-184h-197v-697h-262v881z" />
    <glyph glyph-name="uni2E23" unicode="&#x2e23;" horiz-adv-x="737" 
d="M565 569h-262v697h-197v184h459v-881z" />
    <glyph glyph-name="uni2E24" unicode="&#x2e24;" horiz-adv-x="737" 
d="M172 569h262v-696h197v-184h-459v880z" />
    <glyph glyph-name="uni2E25" unicode="&#x2e25;" horiz-adv-x="737" 
d="M565 -311h-459v184h197v696h262v-880z" />
    <glyph glyph-name="fi" unicode="&#xfb01;" horiz-adv-x="1363" 
d="M532 1049v-25h173v-274h-173v-750h-352v750h-135v262l135 10v14q0 286 214 380q77 34 193 34t216 -37l-62 -258q-47 19 -102 21q-107 0 -107 -127zM893 1024h352v-1024h-352v1024zM1069 1151q-86 0 -141 49t-56 127q0 78 56 127t141 49q86 0 141 -49q56 -49 56 -127
t-56 -127t-141 -49z" />
    <glyph glyph-name="fl" unicode="&#xfb02;" horiz-adv-x="1347" 
d="M532 1049v-25h173v-274h-173v-750h-352v750h-135v262l135 10v14q0 286 214 380q77 34 193 34t216 -37l-62 -258q-47 19 -102 21q-107 0 -107 -127zM856 360v1065h352v-1077q0 -54 20 -72t34 -18h21q7 0 20 4l40 -258q-66 -27 -164 -28t-158 27q-165 77 -165 357z" />
    <glyph glyph-name="uniFEFF" unicode="&#xfeff;" 
 />
    <glyph glyph-name="uni00470303" horiz-adv-x="1323" 
d="M799 279q66 0 102 24v184h-196v287h507v-635q-74 -67 -196 -115t-260 -48q-139 0 -260 41q-249 86 -354 340q-52 128 -52 297q0 328 195 515t477 187q142 0 248 -52t178 -124l-193 -217q-49 43 -99 67t-124 23q-141 0 -232 -104t-89 -281q0 -389 348 -389zM877 1647
q56 0 77 86h176q-29 -225 -157 -282q-39 -17 -93 -17t-133 42t-100 44q-55 0 -78 -86h-176q18 156 86 228t141 71q73 1 129 -29q57 -30 81 -44t47 -13z" />
    <glyph glyph-name="uni00670303" horiz-adv-x="1118" 
d="M524 532q49 0 80 35t31 108t-31 107t-80 33q-49 0 -80 -34q-30 -35 -30 -107t30 -107t80 -35zM938 648q0 -74 -33 -139q-94 -185 -381 -185q-51 0 -114 14q-25 -22 -25 -58t33 -50t110 -13h154q193 0 298 -62t105 -204q0 -169 -161 -271t-445 -102t-383 136
q-35 48 -35 118q0 121 144 197v8q-96 68 -95 177q1 110 115 192v8q-55 36 -97 104t-42 160q0 179 128 275t310 96q90 0 164 -25h381v-254h-147q16 -48 16 -122zM348 -111q0 -94 201 -94q86 0 143 26q58 25 58 67t-36 52t-102 11h-80q-103 0 -147 12q-37 -37 -37 -74z
M640 1389q24 0 40 18t29 68h176q-17 -158 -81 -229q-112 -125 -292 -27q-81 42 -104 42q-45 1 -68 -85h-176q18 158 82 228t135 71q72 1 130 -29q57 -30 81 -44t48 -13z" />
    <glyph glyph-name="iogonek.d" horiz-adv-x="589" 
d="M541 -360q-91 -74 -247 -74q-75 0 -141.5 48t-66.5 155t94 197q24 22 41 34h-102v1024h352v-1024q-90 -25 -121 -71t-31 -85t25 -56t57 -17t70 24z" />
    </font>
</defs>
</svg>
